<svg width="304" height="2117" viewBox="0 0 304 2117" fill="none" xmlns="http://www.w3.org/2000/svg" xmlns:xlink="http://www.w3.org/1999/xlink">
<g clip-path="url(#clip0_152_15466)">
<path d="M123.559 0H180.505V86.9598H123.559V0Z" fill="url(#pattern0_152_15466)"/>
<g filter="url(#filter0_f_152_15466)">
<path d="M168.46 -10.0615V94.8089H190.338V-10.0615H168.46Z" fill="black"/>
</g>
</g>
<rect x="2" y="50" width="300" height="861.677" rx="40" fill="black"/>
<circle cx="151.89" cy="216.773" r="109.89" fill="#494949"/>
<circle cx="151.89" cy="216.773" r="59.977" fill="#616060"/>
<circle cx="151.89" cy="216.773" r="105.494" stroke="url(#paint0_linear_152_15466)" stroke-width="8.79121"/>
<circle cx="151.89" cy="480.729" r="109.89" fill="#494949"/>
<circle cx="151.89" cy="480.729" r="59.977" fill="#616060"/>
<circle cx="151.89" cy="480.729" r="105.494" stroke="url(#paint1_linear_152_15466)" stroke-width="8.79121"/>
<g filter="url(#filter1_d_152_15466)">
<circle cx="151.89" cy="744.685" r="109.89" fill="#E30101"/>
</g>
<circle cx="151.89" cy="744.685" r="59.977" fill="#F70000"/>
<circle cx="151.89" cy="744.685" r="105.494" stroke="url(#paint2_linear_152_15466)" stroke-width="8.79121"/>
<path d="M42.1094 911.677H261.89V961.677H42.1094V911.677Z" fill="black"/>
<path d="M97.0547 961.677H206.945V1011.68H97.0547V961.677Z" fill="black"/>
<rect x="2" y="1011.68" width="300" height="117" rx="2" fill="white"/>
<rect x="2" y="1011.68" width="300" height="117" rx="2" stroke="black" stroke-width="3"/>
<path d="M102.685 1057.6C102.433 1055.24 101.371 1053.41 99.5001 1052.09C97.6469 1050.78 95.2359 1050.12 92.2671 1050.12C90.18 1050.12 88.3898 1050.44 86.8964 1051.07C85.403 1051.7 84.2605 1052.55 83.4688 1053.63C82.6772 1054.71 82.2723 1055.94 82.2543 1057.33C82.2543 1058.48 82.5152 1059.48 83.037 1060.33C83.5768 1061.17 84.3055 1061.89 85.2231 1062.48C86.1407 1063.06 87.1573 1063.55 88.2728 1063.94C89.3883 1064.34 90.5129 1064.67 91.6464 1064.94L96.8282 1066.24C98.9153 1066.72 100.921 1067.38 102.847 1068.21C104.79 1069.03 106.526 1070.08 108.055 1071.34C109.603 1072.6 110.826 1074.12 111.726 1075.9C112.626 1077.68 113.075 1079.77 113.075 1082.16C113.075 1085.4 112.248 1088.25 110.592 1090.71C108.937 1093.16 106.544 1095.08 103.413 1096.46C100.301 1097.83 96.5313 1098.51 92.1052 1098.51C87.805 1098.51 84.0716 1097.85 80.9049 1096.52C77.7562 1095.19 75.2913 1093.24 73.51 1090.69C71.7468 1088.13 70.7932 1085.02 70.6492 1081.35H80.5001C80.644 1083.27 81.2378 1084.88 82.2813 1086.15C83.3249 1087.43 84.6833 1088.38 86.3566 1089.01C88.0479 1089.64 89.9371 1089.96 92.0242 1089.96C94.2013 1089.96 96.1085 1089.63 97.7458 1088.99C99.4011 1088.32 100.697 1087.4 101.632 1086.23C102.568 1085.05 103.045 1083.66 103.063 1082.08C103.045 1080.64 102.622 1079.45 101.794 1078.52C100.966 1077.56 99.806 1076.77 98.3126 1076.14C96.8372 1075.49 95.1099 1074.92 93.1308 1074.41L86.8424 1072.79C82.2903 1071.62 78.6918 1069.85 76.047 1067.48C73.4201 1065.08 72.1066 1061.91 72.1066 1057.95C72.1066 1054.69 72.9882 1051.84 74.7515 1049.39C76.5328 1046.95 78.9527 1045.05 82.0114 1043.7C85.0702 1042.33 88.5337 1041.65 92.4021 1041.65C96.3244 1041.65 99.761 1042.33 102.712 1043.7C105.68 1045.05 108.011 1046.93 109.702 1049.34C111.393 1051.73 112.266 1054.49 112.32 1057.6H102.685ZM145.936 1066.02V1074.06H121.053V1066.02H145.936ZM177.826 1042.4V1097.68H167.813V1052.15H167.489L154.562 1060.41V1051.23L168.299 1042.4H177.826ZM190.101 1087.42V1079.46L213.555 1042.4H220.194V1053.74H216.146L200.357 1078.76V1079.19H233.094V1087.42H190.101ZM216.469 1097.68V1084.99L216.577 1081.43V1042.4H226.023V1097.68H216.469Z" fill="black"/>
<g clip-path="url(#clip1_152_15466)">
<rect width="75" height="988.323" transform="translate(114.5 1128.68)" fill="url(#pattern1_152_15466)"/>
<g filter="url(#filter2_f_152_15466)">
<path d="M177.561 622.839V2622.84H199.439V622.839H177.561Z" fill="black"/>
</g>
</g>
<defs>
<pattern id="pattern0_152_15466" patternContentUnits="objectBoundingBox" width="1" height="1">
<use xlink:href="#image0_152_15466" transform="matrix(0.00165982 0 0 0.00108696 -0.645279 0)"/>
</pattern>
<filter id="filter0_f_152_15466" x="144.832" y="-33.6897" width="69.1343" height="152.127" filterUnits="userSpaceOnUse" color-interpolation-filters="sRGB">
<feFlood flood-opacity="0" result="BackgroundImageFix"/>
<feBlend mode="normal" in="SourceGraphic" in2="BackgroundImageFix" result="shape"/>
<feGaussianBlur stdDeviation="11.8141" result="effect1_foregroundBlur_152_15466"/>
</filter>
<filter id="filter1_d_152_15466" x="22" y="614.795" width="259.78" height="259.78" filterUnits="userSpaceOnUse" color-interpolation-filters="sRGB">
<feFlood flood-opacity="0" result="BackgroundImageFix"/>
<feColorMatrix in="SourceAlpha" type="matrix" values="0 0 0 0 0 0 0 0 0 0 0 0 0 0 0 0 0 0 127 0" result="hardAlpha"/>
<feOffset/>
<feGaussianBlur stdDeviation="10"/>
<feComposite in2="hardAlpha" operator="out"/>
<feColorMatrix type="matrix" values="0 0 0 0 0.890196 0 0 0 0 0.00392157 0 0 0 0 0.00392157 0 0 0 1 0"/>
<feBlend mode="normal" in2="BackgroundImageFix" result="effect1_dropShadow_152_15466"/>
<feBlend mode="normal" in="SourceGraphic" in2="effect1_dropShadow_152_15466" result="shape"/>
</filter>
<pattern id="pattern1_152_15466" patternContentUnits="objectBoundingBox" width="1" height="1">
<use xlink:href="#image0_152_15466" transform="matrix(0.0143235 0 0 0.00108696 -9.38323 0)"/>
</pattern>
<filter id="filter2_f_152_15466" x="153.932" y="599.211" width="69.1352" height="2047.26" filterUnits="userSpaceOnUse" color-interpolation-filters="sRGB">
<feFlood flood-opacity="0" result="BackgroundImageFix"/>
<feBlend mode="normal" in="SourceGraphic" in2="BackgroundImageFix" result="shape"/>
<feGaussianBlur stdDeviation="11.8141" result="effect1_foregroundBlur_152_15466"/>
</filter>
<linearGradient id="paint0_linear_152_15466" x1="71.5075" y1="161.218" x2="194.825" y2="314.431" gradientUnits="userSpaceOnUse">
<stop stop-color="white"/>
<stop offset="0.453069" stop-opacity="0"/>
<stop offset="1" stop-color="#666666"/>
</linearGradient>
<linearGradient id="paint1_linear_152_15466" x1="71.5075" y1="425.174" x2="194.825" y2="578.387" gradientUnits="userSpaceOnUse">
<stop stop-color="white"/>
<stop offset="0.453069" stop-opacity="0"/>
<stop offset="1" stop-color="#666666"/>
</linearGradient>
<linearGradient id="paint2_linear_152_15466" x1="71.5075" y1="689.13" x2="194.825" y2="842.343" gradientUnits="userSpaceOnUse">
<stop stop-color="white"/>
<stop offset="0.453069" stop-opacity="0"/>
<stop offset="1" stop-color="#666666"/>
</linearGradient>
<clipPath id="clip0_152_15466">
<path d="M123.559 17.5023C123.559 7.83607 131.395 0 141.061 0H162.939C172.605 0 180.441 7.83607 180.441 17.5023V50H123.559V17.5023Z" fill="white"/>
</clipPath>
<clipPath id="clip1_152_15466">
<rect width="75" height="988.323" fill="white" transform="translate(114.5 1128.68)"/>
</clipPath>
</defs>
</svg>