<svg width="12" height="39" viewBox="0 0 12 39" fill="none" xmlns="http://www.w3.org/2000/svg">
<rect x="6.61133" y="-0.00845337" width="4.82339" height="14.4149" fill="#020202"/>
<rect x="3.59668" y="8.04858" width="7.83783" height="6.35788" fill="#020202"/>
<path d="M3.59623 8.04858H5.35016C5.42885 12.7084 6.0397 17.3644 5.18856 21.9464L5.16685 22.0633L2.14359 36.078H0.389648L3.41291 22.0633L3.43462 21.9464C4.28576 17.3644 3.67491 12.7084 3.59623 8.04858Z" fill="#020202"/>
<path d="M9.64207 8.04858H11.396L11.5143 15.0559C11.6286 19.7189 11.3423 24.3831 10.6586 28.9971L9.60941 36.078H7.85547L8.90468 28.9971C9.58835 24.3831 9.87464 19.7189 9.7604 15.0559L9.64207 8.04858Z" fill="#020202"/>
<path d="M0.389648 36.078H9.62319V38.4553H0.389648V36.078Z" fill="#020202"/>
</svg>
