<svg width="53" height="88" viewBox="0 0 53 88" fill="none" xmlns="http://www.w3.org/2000/svg" xmlns:xlink="http://www.w3.org/1999/xlink">
<path d="M51.6475 57.2564C51.6475 73.5937 40.1619 86.7134 26.1365 86.7134C12.1111 86.7134 0.625488 73.5937 0.625488 57.2564C0.625488 40.919 12.1111 27.7993 26.1365 27.7993C40.1619 27.7993 51.6475 40.919 51.6475 57.2564Z" fill="url(#pattern0_245_22625)"/>
<path d="M51.6475 57.2564C51.6475 73.5937 40.1619 86.7134 26.1365 86.7134C12.1111 86.7134 0.625488 73.5937 0.625488 57.2564C0.625488 40.919 12.1111 27.7993 26.1365 27.7993C40.1619 27.7993 51.6475 40.919 51.6475 57.2564Z" fill="url(#grad1)"/>
<path d="M51.6475 57.2564C51.6475 73.5937 40.1619 86.7134 26.1365 86.7134C12.1111 86.7134 0.625488 73.5937 0.625488 57.2564C0.625488 40.919 12.1111 27.7993 26.1365 27.7993C40.1619 27.7993 51.6475 40.919 51.6475 57.2564Z" stroke="black"/>
<mask id="path-2-inside-1_245_22625" fill="white">
<path fill-rule="evenodd" clip-rule="evenodd" d="M6.6709 5.56987C6.6709 2.57435 9.09925 0.145996 12.0948 0.145996H39.9638C42.9593 0.145996 45.3877 2.57435 45.3877 5.56987V14.7835C45.3877 16.3671 44.709 17.7922 43.6266 18.7838C42.658 19.6712 41.7581 20.783 41.7581 22.0967V22.7828C41.7581 24.4907 43.1427 25.8752 44.8506 25.8752H45.0636C45.2426 25.8752 45.3877 26.0203 45.3877 26.1993V61.7623C45.3877 72.4537 36.7206 81.1207 26.0293 81.1207C15.3379 81.1207 6.6709 72.4536 6.6709 61.7623V26.1993C6.6709 26.0203 6.81597 25.8752 6.99492 25.8752H7.20771C8.91563 25.8752 10.3002 24.4907 10.3002 22.7828V22.0964C10.3002 20.7828 9.40036 19.671 8.4318 18.7836C7.34951 17.7921 6.6709 16.367 6.6709 14.7835V5.56987Z"/>
</mask>
<g filter="url(#filter0_ii_245_22625)">
<path fill-rule="evenodd" clip-rule="evenodd" d="M6.6709 5.56987C6.6709 2.57435 9.09925 0.145996 12.0948 0.145996H39.9638C42.9593 0.145996 45.3877 2.57435 45.3877 5.56987V14.7835C45.3877 16.3671 44.709 17.7922 43.6266 18.7838C42.658 19.6712 41.7581 20.783 41.7581 22.0967V22.7828C41.7581 24.4907 43.1427 25.8752 44.8506 25.8752H45.0636C45.2426 25.8752 45.3877 26.0203 45.3877 26.1993V61.7623C45.3877 72.4537 36.7206 81.1207 26.0293 81.1207C15.3379 81.1207 6.6709 72.4536 6.6709 61.7623V26.1993C6.6709 26.0203 6.81597 25.8752 6.99492 25.8752H7.20771C8.91563 25.8752 10.3002 24.4907 10.3002 22.7828V22.0964C10.3002 20.7828 9.40036 19.671 8.4318 18.7836C7.34951 17.7921 6.6709 16.367 6.6709 14.7835V5.56987Z" fill="url(#grad1)"/>
</g>
<path d="M12.0948 -0.854004C8.54696 -0.854004 5.6709 2.02206 5.6709 5.56987H7.6709C7.6709 3.12663 9.65153 1.146 12.0948 1.146V-0.854004ZM39.9638 -0.854004H12.0948V1.146H39.9638V-0.854004ZM46.3877 5.56987C46.3877 2.02206 43.5116 -0.854004 39.9638 -0.854004V1.146C42.407 1.146 44.3877 3.12663 44.3877 5.56987H46.3877ZM46.3877 14.7835V5.56987H44.3877V14.7835H46.3877ZM44.3022 19.5211C45.5826 18.3481 46.3877 16.6591 46.3877 14.7835H44.3877C44.3877 16.0751 43.8354 17.2363 42.9511 18.0464L44.3022 19.5211ZM42.7581 22.7828V22.0967H40.7581V22.7828H42.7581ZM44.8506 26.8752H45.0636V24.8752H44.8506V26.8752ZM45.0636 26.8752C44.6903 26.8752 44.3877 26.5726 44.3877 26.1993H46.3877C46.3877 25.468 45.7949 24.8752 45.0636 24.8752V26.8752ZM44.3877 26.1993V61.7623H46.3877V26.1993H44.3877ZM44.3877 61.7623C44.3877 71.9014 36.1683 80.1207 26.0293 80.1207V82.1207C37.2729 82.1207 46.3877 73.0059 46.3877 61.7623H44.3877ZM26.0293 80.1207C15.8902 80.1207 7.6709 71.9014 7.6709 61.7623H5.6709C5.6709 73.0059 14.7857 82.1207 26.0293 82.1207V80.1207ZM7.6709 61.7623V26.1993H5.6709V61.7623H7.6709ZM7.6709 26.1993C7.6709 26.5726 7.36825 26.8752 6.99492 26.8752V24.8752C6.26368 24.8752 5.6709 25.468 5.6709 26.1993H7.6709ZM6.99492 26.8752H7.20771V24.8752H6.99492V26.8752ZM9.30017 22.0964V22.7828H11.3002V22.0964H9.30017ZM5.6709 14.7835C5.6709 16.659 6.47593 18.3479 7.75626 19.521L9.10733 18.0463C8.2231 17.2362 7.6709 16.075 7.6709 14.7835H5.6709ZM5.6709 5.56987V14.7835H7.6709V5.56987H5.6709ZM7.20771 26.8752C9.46791 26.8752 11.3002 25.043 11.3002 22.7828H9.30017C9.30017 23.9384 8.36335 24.8752 7.20771 24.8752V26.8752ZM40.7581 22.7828C40.7581 25.043 42.5904 26.8752 44.8506 26.8752V24.8752C43.6949 24.8752 42.7581 23.9384 42.7581 22.7828H40.7581ZM11.3002 22.0964C11.3002 20.3271 10.1025 18.9581 9.10733 18.0463L7.75626 19.521C8.6982 20.384 9.30017 21.2385 9.30017 22.0964H11.3002ZM42.9511 18.0464C41.9559 18.9582 40.7581 20.3273 40.7581 22.0967H42.7581C42.7581 21.2387 43.3601 20.3841 44.3022 19.5211L42.9511 18.0464Z" fill="black" mask="url(#path-2-inside-1_245_22625)"/>
<line x1="6.6709" y1="54.9091" x2="45.3877" y2="54.9091" stroke="black" stroke-width="0.903978"/>
<defs>
<filter id="filter0_ii_245_22625" x="6.6709" y="0.145996" width="44.9017" height="90.252" filterUnits="userSpaceOnUse" color-interpolation-filters="sRGB">
<feFlood flood-opacity="0" result="BackgroundImageFix"/>
<feBlend mode="normal" in="SourceGraphic" in2="BackgroundImageFix" result="shape"/>
<feColorMatrix in="SourceAlpha" type="matrix" values="0 0 0 0 0 0 0 0 0 0 0 0 0 0 0 0 0 0 127 0" result="hardAlpha"/>
<feOffset dx="6.18492"/>
<feGaussianBlur stdDeviation="3.09246"/>
<feComposite in2="hardAlpha" operator="arithmetic" k2="-1" k3="1"/>
<feColorMatrix type="matrix" values="0 0 0 0 0.3125 0 0 0 0 0.3125 0 0 0 0 0.3125 0 0 0 1 0"/>
<feBlend mode="normal" in2="shape" result="effect1_innerShadow_245_22625"/>
<feColorMatrix in="SourceAlpha" type="matrix" values="0 0 0 0 0 0 0 0 0 0 0 0 0 0 0 0 0 0 127 0" result="hardAlpha"/>
<feOffset dy="9.27737"/>
<feGaussianBlur stdDeviation="8.81351"/>
<feComposite in2="hardAlpha" operator="arithmetic" k2="-1" k3="1"/>
<feColorMatrix type="matrix" values="0 0 0 0 0 0 0 0 0 0 0 0 0 0 0 0 0 0 1 0"/>
<feBlend mode="normal" in2="effect1_innerShadow_245_22625" result="effect2_innerShadow_245_22625"/>
</filter>

<linearGradient id="paint0_linear_245_22625" x1="26.1365" y1="27.2993" x2="26.1365" y2="87.2134" gradientUnits="userSpaceOnUse">
<stop stop-opacity="0"/>
<stop offset="1"/>
</linearGradient>

   <linearGradient id="grad1" x1="0%" y1="0%" x2="0%" y2="100%">
      <stop offset="17%" style="stop-color: rgba(159,165,160,1); stop-opacity: 1" />
      <stop offset="100%" style="stop-color: rgba(116,118,115,1); stop-opacity: 0.79" />
    </linearGradient>
</defs>
</svg>
