<svg width="25" height="25" viewBox="0 0 25 25" fill="none" xmlns="http://www.w3.org/2000/svg">
<path d="M22.7674 19.1955L19.2524 22.7105C18.1194 23.8435 16.6124 24.4675 15.0104 24.4675H10.0394C8.43741 24.4675 6.93041 23.8435 5.79641 22.7105L2.28141 19.1955C1.14841 18.0615 0.524414 16.5545 0.524414 14.9525V9.98153C0.524414 8.37953 1.14841 6.87253 2.28141 5.73853L5.79641 2.22353C6.93041 1.09053 8.43741 0.46653 10.0394 0.46653H15.0104C16.6134 0.46653 18.1194 1.09053 19.2524 2.22353L22.7674 5.73753C23.9014 6.87053 24.5254 8.37753 24.5254 9.98053V14.9515C24.5254 16.5545 23.9014 18.0625 22.7674 19.1955ZM16.9644 9.40653C17.3554 9.01553 17.3554 8.38353 16.9644 7.99253C16.7694 7.79753 16.5134 7.69953 16.2574 7.69953C16.0014 7.69953 15.7454 7.79753 15.5504 7.99253L12.5074 11.0355L9.46441 7.99253C9.26941 7.79753 9.01341 7.69953 8.75741 7.69953C8.50141 7.69953 8.24541 7.79753 8.05041 7.99253C7.65941 8.38353 7.65941 9.01553 8.05041 9.40653L11.0934 12.4495L8.05041 15.4925C7.65941 15.8835 7.65941 16.5155 8.05041 16.9065C8.44141 17.2975 9.07341 17.2975 9.46441 16.9065L12.5074 13.8635L15.5504 16.9065C15.9414 17.2975 16.5734 17.2975 16.9644 16.9065C17.3554 16.5155 17.3554 15.8835 16.9644 15.4925L13.9214 12.4495L16.9644 9.40653Z" fill="#F50000"/>
</svg>
