<svg width="25" height="25" viewBox="0 0 25 25" fill="none" xmlns="http://www.w3.org/2000/svg">
<g clip-path="url(#clip0_247_25893)">
<path d="M24.1112 10.1502L20.6102 4.15017C19.7172 2.62017 18.0632 1.67017 16.2922 1.67017H9.22023C7.44923 1.67017 5.79423 2.62117 4.90123 4.15017L1.40123 10.1502C0.494228 11.7042 0.494228 13.6352 1.40123 15.1892L4.90123 21.1892C5.79423 22.7192 7.44823 23.6692 9.22023 23.6692H16.2922C18.0632 23.6692 19.7182 22.7182 20.6112 21.1892L24.1112 15.1892C25.0172 13.6352 25.0172 11.7042 24.1112 10.1502ZM18.9552 11.1812L14.5292 15.5262C13.7462 16.2942 12.7382 16.6772 11.7302 16.6772C10.7322 16.6772 9.73323 16.3012 8.95323 15.5482L7.05423 13.6802C6.66023 13.2932 6.65523 12.6602 7.04223 12.2662C7.42923 11.8712 8.06123 11.8662 8.45623 12.2542L10.3492 14.1152C11.1272 14.8652 12.3512 14.8612 13.1302 14.0972L17.5552 9.75317C17.9482 9.36517 18.5792 9.37217 18.9692 9.76617C19.3562 10.1602 19.3502 10.7942 18.9552 11.1812Z" fill="#00FF44"/>
</g>
<defs>
<clipPath id="clip0_247_25893">
<rect width="24" height="24" fill="white" transform="translate(0.755219 0.670166)"/>
</clipPath>
</defs>
</svg>
