<svg width="63" height="99" viewBox="0 0 63 99" fill="none" xmlns="http://www.w3.org/2000/svg" xmlns:xlink="http://www.w3.org/1999/xlink">
<g filter="url(#filter0_dii_597_4422)">
<path d="M7.41113 6.02747L6.31738 4.56921H59.6744L60.5085 6.02747V94.5511H7.41113V6.02747Z" fill="url(#paint0_linear_597_4422)"/>
</g>
<rect x="30.0234" y="10.2097" width="20.4409" height="86.8915" fill="#79787A"/>
<rect x="30.0234" y="10.2097" width="20.4409" height="86.8915" fill="url(#pattern0_597_4422)" fill-opacity="0.5"/>
<path d="M30.0235 10.2097H50.4644L45.6382 7.24558H25.1973L30.0235 10.2097Z" fill="#ABB0BE"/>
<path d="M30.0235 10.2097H50.4644L45.6382 7.24558H25.1973L30.0235 10.2097Z" fill="url(#pattern1_597_4422)" fill-opacity="0.5"/>
<path d="M30.0234 10.2097L25.1738 7.20972V94.1012L30.0234 97.1012V10.2097Z" fill="#8A898E"/>
<path d="M30.0234 10.2097L25.1738 7.20972V94.1012L30.0234 97.1012V10.2097Z" fill="url(#pattern2_597_4422)" fill-opacity="0.5"/>
<g filter="url(#filter1_i_597_4422)">
<rect x="31.5771" y="83.8691" width="2.20166" height="11.6362" fill="#79787A"/>
</g>
<g filter="url(#filter2_i_597_4422)">
<rect x="46.8086" y="83.8691" width="2.20166" height="11.6362" fill="#79787A"/>
</g>
<circle cx="40.9683" cy="89.0073" r="5.13818" fill="#2C2C2C"/>
<path d="M38.6379 85.6044C38.7831 85.3189 39.0763 85.1392 39.3966 85.1392H43.1454C43.4657 85.1392 43.7589 85.3189 43.9041 85.6044L45.4393 88.6212C45.5627 88.8638 45.5627 89.1508 45.4393 89.3934L43.9041 92.4102C43.7589 92.6957 43.4657 92.8755 43.1454 92.8755H39.3966C39.0763 92.8755 38.7831 92.6957 38.6379 92.4102L37.1027 89.3934C36.9793 89.1508 36.9793 88.8638 37.1027 88.6212L38.6379 85.6044Z" fill="#ACACAC"/>
<g filter="url(#filter3_i_597_4422)">
<path d="M38.6379 85.6044C38.7831 85.3189 39.0763 85.1392 39.3966 85.1392H43.1454C43.4657 85.1392 43.7589 85.3189 43.9041 85.6044L45.4393 88.6212C45.5627 88.8638 45.5627 89.1508 45.4393 89.3934L43.9041 92.4102C43.7589 92.6957 43.4657 92.8755 43.1454 92.8755H39.3966C39.0763 92.8755 38.7831 92.6957 38.6379 92.4102L37.1027 89.3934C36.9793 89.1508 36.9793 88.8638 37.1027 88.6212L38.6379 85.6044Z" fill="url(#pattern3_597_4422)"/>
</g>
<g filter="url(#filter4_f_597_4422)">
<path d="M38.785 85.6793C38.9021 85.4492 39.1384 85.3043 39.3966 85.3043H43.1454C43.4036 85.3043 43.6399 85.4492 43.757 85.6793L45.2921 88.6961C45.3916 88.8916 45.3916 89.123 45.2921 89.3185L43.757 92.3354C43.6399 92.5655 43.4036 92.7104 43.1454 92.7104H39.3966C39.1384 92.7104 38.9021 92.5655 38.785 92.3354L37.2499 89.3185C37.1504 89.123 37.1504 88.8916 37.2499 88.6961L38.785 85.6793Z" stroke="#1C1C1C" stroke-width="0.33019"/>
</g>
<g filter="url(#filter5_f_597_4422)">
<ellipse cx="41.271" cy="89.0073" rx="2.39212" ry="2.58654" fill="#151515"/>
<path d="M43.6305 89.0073C43.6305 90.4202 42.5718 91.5612 41.271 91.5612C39.9703 91.5612 38.9116 90.4202 38.9116 89.0073C38.9116 87.5944 39.9703 86.4534 41.271 86.4534C42.5718 86.4534 43.6305 87.5944 43.6305 89.0073Z" stroke="url(#paint1_linear_597_4422)" stroke-width="0.0653221"/>
</g>
<ellipse cx="41.2711" cy="89.0067" rx="2.3043" ry="2.49158" fill="url(#pattern4_597_4422)"/>
<ellipse cx="41.2711" cy="89.0067" rx="2.3043" ry="2.49158" fill="url(#paint2_radial_597_4422)" fill-opacity="0.2"/>
<g filter="url(#filter6_f_597_4422)">
<path d="M43.5594 89.007C43.5594 90.3787 42.5317 91.4847 41.2712 91.4847C40.0107 91.4847 38.983 90.3787 38.983 89.007C38.983 87.6352 40.0107 86.5292 41.2712 86.5292C42.5317 86.5292 43.5594 87.6352 43.5594 89.007Z" stroke="url(#paint3_linear_597_4422)" stroke-width="0.0891325"/>
</g>
<g filter="url(#filter7_f_597_4422)">
<path d="M43.5594 89.007C43.5594 90.3787 42.5317 91.4847 41.2712 91.4847C40.0107 91.4847 38.983 90.3787 38.983 89.007C38.983 87.6352 40.0107 86.5292 41.2712 86.5292C42.5317 86.5292 43.5594 87.6352 43.5594 89.007Z" stroke="url(#paint4_linear_597_4422)" stroke-width="0.0891325"/>
</g>
<g filter="url(#filter8_f_597_4422)">
<path d="M43.5594 89.007C43.5594 90.3787 42.5317 91.4847 41.2712 91.4847C40.0107 91.4847 38.983 90.3787 38.983 89.007C38.983 87.6352 40.0107 86.5292 41.2712 86.5292C42.5317 86.5292 43.5594 87.6352 43.5594 89.007Z" stroke="url(#paint5_linear_597_4422)" stroke-width="0.0891325"/>
</g>
<g filter="url(#filter9_f_597_4422)">
<path d="M43.5594 89.007C43.5594 90.3787 42.5317 91.4847 41.2712 91.4847C40.0107 91.4847 38.983 90.3787 38.983 89.007C38.983 87.6352 40.0107 86.5292 41.2712 86.5292C42.5317 86.5292 43.5594 87.6352 43.5594 89.007Z" stroke="url(#paint6_linear_597_4422)" stroke-width="0.0891325"/>
</g>
<g filter="url(#filter10_f_597_4422)">
<path d="M43.5594 89.007C43.5594 90.3787 42.5317 91.4847 41.2712 91.4847C40.0107 91.4847 38.983 90.3787 38.983 89.007C38.983 87.6352 40.0107 86.5292 41.2712 86.5292C42.5317 86.5292 43.5594 87.6352 43.5594 89.007Z" stroke="url(#paint7_linear_597_4422)" stroke-width="0.0891325"/>
</g>
<g filter="url(#filter11_ii_597_4422)">
<path d="M31.9355 86.326V80.4973H34.6531L41.4585 84.881V90.1023H37.4359L31.9355 86.326Z" fill="#D9D9D9"/>
</g>
<g filter="url(#filter12_ii_597_4422)">
<rect x="37.5645" y="84.8857" width="3.89453" height="5.21655" fill="#D9D9D9"/>
</g>
<g filter="url(#filter13_ii_597_4422)">
<path d="M37.5645 84.8857H41.459L34.6643 80.4973H31.5645L37.5645 84.8857Z" fill="#D9D9D9"/>
</g>
<g filter="url(#filter14_ii_597_4422)">
<path d="M46.9355 86.326V80.4973H49.6531L56.4585 84.881V90.1023H52.4359L46.9355 86.326Z" fill="#D9D9D9"/>
</g>
<g filter="url(#filter15_ii_597_4422)">
<rect x="52.5645" y="84.8857" width="3.89453" height="5.21655" fill="#D9D9D9"/>
</g>
<g filter="url(#filter16_ii_597_4422)">
<path d="M52.5645 84.8857H56.459L49.6643 80.4973H46.5645L52.5645 84.8857Z" fill="#D9D9D9"/>
</g>
<rect x="38.3887" y="45.7194" width="18.6738" height="36.9929" fill="#D0D0CE"/>
<rect x="38.3887" y="45.7194" width="18.6738" height="36.9929" fill="url(#pattern5_597_4422)"/>
<path d="M38.3899 45.7194H57.0637L51.2217 38.7354H32.5479L38.3899 45.7194Z" fill="#676666"/>
<path d="M38.3887 45.7194L32.5337 38.7194V75.7123L38.3887 82.7123V45.7194Z" fill="#B1B1AF"/>
<g filter="url(#filter17_f_597_4422)">
<path d="M38.3887 45.7194V82.7123" stroke="#DCD9D9" stroke-width="2"/>
</g>
<g filter="url(#filter18_f_597_4422)">
<path d="M37.9287 46.2158L56.885 46.2158" stroke="#DCD9D9" stroke-width="2"/>
</g>
<g filter="url(#filter19_f_597_4422)">
<path d="M37.9277 46.2157L32.5479 38.7354" stroke="#DCD9D9"/>
</g>
<g filter="url(#filter20_i_597_4422)">
<rect x="31.5771" y="11.8691" width="2.20166" height="11.6362" fill="#79787A"/>
</g>
<g filter="url(#filter21_i_597_4422)">
<rect x="46.8086" y="11.8691" width="2.20166" height="11.6362" fill="#79787A"/>
</g>
<circle cx="40.9683" cy="17.0073" r="5.13818" fill="#2C2C2C"/>
<path d="M38.6379 13.6044C38.7831 13.3189 39.0763 13.1392 39.3966 13.1392H43.1454C43.4657 13.1392 43.7589 13.3189 43.9041 13.6044L45.4393 16.6212C45.5627 16.8638 45.5627 17.1508 45.4393 17.3934L43.9041 20.4102C43.7589 20.6957 43.4657 20.8755 43.1454 20.8755H39.3966C39.0763 20.8755 38.7831 20.6957 38.6379 20.4102L37.1027 17.3934C36.9793 17.1508 36.9793 16.8638 37.1027 16.6212L38.6379 13.6044Z" fill="#ACACAC"/>
<g filter="url(#filter22_i_597_4422)">
<path d="M38.6379 13.6044C38.7831 13.3189 39.0763 13.1392 39.3966 13.1392H43.1454C43.4657 13.1392 43.7589 13.3189 43.9041 13.6044L45.4393 16.6212C45.5627 16.8638 45.5627 17.1508 45.4393 17.3934L43.9041 20.4102C43.7589 20.6957 43.4657 20.8755 43.1454 20.8755H39.3966C39.0763 20.8755 38.7831 20.6957 38.6379 20.4102L37.1027 17.3934C36.9793 17.1508 36.9793 16.8638 37.1027 16.6212L38.6379 13.6044Z" fill="url(#pattern6_597_4422)"/>
</g>
<g filter="url(#filter23_f_597_4422)">
<path d="M38.785 13.6793C38.9021 13.4492 39.1384 13.3043 39.3966 13.3043H43.1454C43.4036 13.3043 43.6399 13.4492 43.757 13.6793L45.2921 16.6961C45.3916 16.8916 45.3916 17.123 45.2921 17.3185L43.757 20.3354C43.6399 20.5655 43.4036 20.7104 43.1454 20.7104H39.3966C39.1384 20.7104 38.9021 20.5655 38.785 20.3354L37.2499 17.3185C37.1504 17.123 37.1504 16.8916 37.2499 16.6961L38.785 13.6793Z" stroke="#1C1C1C" stroke-width="0.33019"/>
</g>
<g filter="url(#filter24_f_597_4422)">
<ellipse cx="41.271" cy="17.0073" rx="2.39212" ry="2.58654" fill="#151515"/>
<path d="M43.6305 17.0073C43.6305 18.4202 42.5718 19.5612 41.271 19.5612C39.9703 19.5612 38.9116 18.4202 38.9116 17.0073C38.9116 15.5944 39.9703 14.4534 41.271 14.4534C42.5718 14.4534 43.6305 15.5944 43.6305 17.0073Z" stroke="url(#paint8_linear_597_4422)" stroke-width="0.0653221"/>
</g>
<ellipse cx="41.2711" cy="17.0067" rx="2.3043" ry="2.49158" fill="url(#pattern7_597_4422)"/>
<ellipse cx="41.2711" cy="17.0067" rx="2.3043" ry="2.49158" fill="url(#paint9_radial_597_4422)" fill-opacity="0.2"/>
<g filter="url(#filter25_f_597_4422)">
<path d="M43.5594 17.007C43.5594 18.3787 42.5317 19.4847 41.2712 19.4847C40.0107 19.4847 38.983 18.3787 38.983 17.007C38.983 15.6352 40.0107 14.5292 41.2712 14.5292C42.5317 14.5292 43.5594 15.6352 43.5594 17.007Z" stroke="url(#paint10_linear_597_4422)" stroke-width="0.0891325"/>
</g>
<g filter="url(#filter26_f_597_4422)">
<path d="M43.5594 17.007C43.5594 18.3787 42.5317 19.4847 41.2712 19.4847C40.0107 19.4847 38.983 18.3787 38.983 17.007C38.983 15.6352 40.0107 14.5292 41.2712 14.5292C42.5317 14.5292 43.5594 15.6352 43.5594 17.007Z" stroke="url(#paint11_linear_597_4422)" stroke-width="0.0891325"/>
</g>
<g filter="url(#filter27_f_597_4422)">
<path d="M43.5594 17.007C43.5594 18.3787 42.5317 19.4847 41.2712 19.4847C40.0107 19.4847 38.983 18.3787 38.983 17.007C38.983 15.6352 40.0107 14.5292 41.2712 14.5292C42.5317 14.5292 43.5594 15.6352 43.5594 17.007Z" stroke="url(#paint12_linear_597_4422)" stroke-width="0.0891325"/>
</g>
<g filter="url(#filter28_f_597_4422)">
<path d="M43.5594 17.007C43.5594 18.3787 42.5317 19.4847 41.2712 19.4847C40.0107 19.4847 38.983 18.3787 38.983 17.007C38.983 15.6352 40.0107 14.5292 41.2712 14.5292C42.5317 14.5292 43.5594 15.6352 43.5594 17.007Z" stroke="url(#paint13_linear_597_4422)" stroke-width="0.0891325"/>
</g>
<g filter="url(#filter29_f_597_4422)">
<path d="M43.5594 17.007C43.5594 18.3787 42.5317 19.4847 41.2712 19.4847C40.0107 19.4847 38.983 18.3787 38.983 17.007C38.983 15.6352 40.0107 14.5292 41.2712 14.5292C42.5317 14.5292 43.5594 15.6352 43.5594 17.007Z" stroke="url(#paint14_linear_597_4422)" stroke-width="0.0891325"/>
</g>
<g filter="url(#filter30_ii_597_4422)">
<path d="M31.9355 31.326V25.4973H34.6531L41.4585 29.881V35.1023H37.4359L31.9355 31.326Z" fill="#D9D9D9"/>
</g>
<g filter="url(#filter31_ii_597_4422)">
<rect x="37.5645" y="29.8857" width="3.89453" height="5.21655" fill="#D9D9D9"/>
</g>
<g filter="url(#filter32_ii_597_4422)">
<path d="M37.5645 29.8857H41.459L34.6643 25.4973H31.5645L37.5645 29.8857Z" fill="#D9D9D9"/>
</g>
<g filter="url(#filter33_ii_597_4422)">
<path d="M46.9355 31.326V25.4973H49.6531L56.4585 29.881V35.1023H52.4359L46.9355 31.326Z" fill="#D9D9D9"/>
</g>
<g filter="url(#filter34_ii_597_4422)">
<rect x="52.5645" y="29.8857" width="3.89453" height="5.21655" fill="#D9D9D9"/>
</g>
<g filter="url(#filter35_ii_597_4422)">
<path d="M52.5645 29.8857H56.459L49.6643 25.4973H46.5645L52.5645 29.8857Z" fill="#D9D9D9"/>
</g>
<circle cx="15.9585" cy="29.9286" r="3.33936" fill="#323232"/>
<g filter="url(#filter36_f_597_4422)">
<circle cx="15.9585" cy="29.9286" r="3.08936" stroke="#A9A9A9" stroke-width="0.5"/>
</g>
<circle cx="15.9585" cy="72.6414" r="3.33936" fill="#323232"/>
<g filter="url(#filter37_f_597_4422)">
<circle cx="15.9585" cy="72.6414" r="3.08936" stroke="#A9A9A9" stroke-width="0.5"/>
</g>
<defs>
<filter id="filter0_dii_597_4422" x="0.317383" y="0.569214" width="62.1914" height="97.9819" filterUnits="userSpaceOnUse" color-interpolation-filters="sRGB">
<feFlood flood-opacity="0" result="BackgroundImageFix"/>
<feColorMatrix in="SourceAlpha" type="matrix" values="0 0 0 0 0 0 0 0 0 0 0 0 0 0 0 0 0 0 127 0" result="hardAlpha"/>
<feOffset dx="-2"/>
<feGaussianBlur stdDeviation="2"/>
<feComposite in2="hardAlpha" operator="out"/>
<feColorMatrix type="matrix" values="0 0 0 0 0 0 0 0 0 0 0 0 0 0 0 0 0 0 0.25 0"/>
<feBlend mode="normal" in2="BackgroundImageFix" result="effect1_dropShadow_597_4422"/>
<feBlend mode="normal" in="SourceGraphic" in2="effect1_dropShadow_597_4422" result="shape"/>
<feColorMatrix in="SourceAlpha" type="matrix" values="0 0 0 0 0 0 0 0 0 0 0 0 0 0 0 0 0 0 127 0" result="hardAlpha"/>
<feOffset dy="-1"/>
<feGaussianBlur stdDeviation="1"/>
<feComposite in2="hardAlpha" operator="arithmetic" k2="-1" k3="1"/>
<feColorMatrix type="matrix" values="0 0 0 0 0 0 0 0 0 0 0 0 0 0 0 0 0 0 0.38 0"/>
<feBlend mode="normal" in2="shape" result="effect2_innerShadow_597_4422"/>
<feColorMatrix in="SourceAlpha" type="matrix" values="0 0 0 0 0 0 0 0 0 0 0 0 0 0 0 0 0 0 127 0" result="hardAlpha"/>
<feOffset dy="2"/>
<feGaussianBlur stdDeviation="1"/>
<feComposite in2="hardAlpha" operator="arithmetic" k2="-1" k3="1"/>
<feColorMatrix type="matrix" values="0 0 0 0 0 0 0 0 0 0 0 0 0 0 0 0 0 0 0.53 0"/>
<feBlend mode="normal" in2="effect2_innerShadow_597_4422" result="effect3_innerShadow_597_4422"/>
</filter>
<pattern id="pattern0_597_4422" patternContentUnits="objectBoundingBox" width="1" height="1">
<use xlink:href="#image0_597_4422" transform="matrix(0.00138736 0 0 0.000326371 -2.34131 0)"/>
</pattern>
<pattern id="pattern1_597_4422" patternContentUnits="objectBoundingBox" width="1" height="1">
<use xlink:href="#image0_597_4422" transform="matrix(0.000244141 0 0 0.00208112 0 -2.68827)"/>
</pattern>
<pattern id="pattern2_597_4422" patternContentUnits="objectBoundingBox" width="1" height="1">
<use xlink:href="#image0_597_4422" transform="matrix(0.00604955 0 0 0.000326371 -11.8895 0)"/>
</pattern>
<filter id="filter1_i_597_4422" x="31.5771" y="83.8691" width="3.20215" height="12.6362" filterUnits="userSpaceOnUse" color-interpolation-filters="sRGB">
<feFlood flood-opacity="0" result="BackgroundImageFix"/>
<feBlend mode="normal" in="SourceGraphic" in2="BackgroundImageFix" result="shape"/>
<feColorMatrix in="SourceAlpha" type="matrix" values="0 0 0 0 0 0 0 0 0 0 0 0 0 0 0 0 0 0 127 0" result="hardAlpha"/>
<feOffset dx="1" dy="1"/>
<feGaussianBlur stdDeviation="2"/>
<feComposite in2="hardAlpha" operator="arithmetic" k2="-1" k3="1"/>
<feColorMatrix type="matrix" values="0 0 0 0 0 0 0 0 0 0 0 0 0 0 0 0 0 0 0.59 0"/>
<feBlend mode="normal" in2="shape" result="effect1_innerShadow_597_4422"/>
</filter>
<filter id="filter2_i_597_4422" x="46.8086" y="83.8691" width="3.20117" height="12.6362" filterUnits="userSpaceOnUse" color-interpolation-filters="sRGB">
<feFlood flood-opacity="0" result="BackgroundImageFix"/>
<feBlend mode="normal" in="SourceGraphic" in2="BackgroundImageFix" result="shape"/>
<feColorMatrix in="SourceAlpha" type="matrix" values="0 0 0 0 0 0 0 0 0 0 0 0 0 0 0 0 0 0 127 0" result="hardAlpha"/>
<feOffset dx="1" dy="1"/>
<feGaussianBlur stdDeviation="2"/>
<feComposite in2="hardAlpha" operator="arithmetic" k2="-1" k3="1"/>
<feColorMatrix type="matrix" values="0 0 0 0 0 0 0 0 0 0 0 0 0 0 0 0 0 0 0.59 0"/>
<feBlend mode="normal" in2="shape" result="effect1_innerShadow_597_4422"/>
</filter>
<filter id="filter3_i_597_4422" x="37.0098" y="85.1392" width="8.52246" height="8.39671" filterUnits="userSpaceOnUse" color-interpolation-filters="sRGB">
<feFlood flood-opacity="0" result="BackgroundImageFix"/>
<feBlend mode="normal" in="SourceGraphic" in2="BackgroundImageFix" result="shape"/>
<feColorMatrix in="SourceAlpha" type="matrix" values="0 0 0 0 0 0 0 0 0 0 0 0 0 0 0 0 0 0 127 0" result="hardAlpha"/>
<feOffset dy="0.990571"/>
<feGaussianBlur stdDeviation="0.33019"/>
<feComposite in2="hardAlpha" operator="arithmetic" k2="-1" k3="1"/>
<feColorMatrix type="matrix" values="0 0 0 0 0 0 0 0 0 0 0 0 0 0 0 0 0 0 0.56 0"/>
<feBlend mode="normal" in2="shape" result="effect1_innerShadow_597_4422"/>
</filter>
<pattern id="pattern3_597_4422" patternContentUnits="objectBoundingBox" width="1" height="1">
<use xlink:href="#image1_597_4422" transform="translate(-0.226805 -0.226805) scale(0.00196434)"/>
</pattern>
<filter id="filter4_f_597_4422" x="36.8447" y="84.9741" width="8.85265" height="8.06652" filterUnits="userSpaceOnUse" color-interpolation-filters="sRGB">
<feFlood flood-opacity="0" result="BackgroundImageFix"/>
<feBlend mode="normal" in="SourceGraphic" in2="BackgroundImageFix" result="shape"/>
<feGaussianBlur stdDeviation="0.0825476" result="effect1_foregroundBlur_597_4422"/>
</filter>
<filter id="filter5_f_597_4422" x="38.8678" y="86.4096" width="4.80646" height="5.19538" filterUnits="userSpaceOnUse" color-interpolation-filters="sRGB">
<feFlood flood-opacity="0" result="BackgroundImageFix"/>
<feBlend mode="normal" in="SourceGraphic" in2="BackgroundImageFix" result="shape"/>
<feGaussianBlur stdDeviation="0.00557078" result="effect1_foregroundBlur_597_4422"/>
</filter>
<pattern id="pattern4_597_4422" patternContentUnits="objectBoundingBox" width="1" height="1">
<use xlink:href="#image2_597_4422" transform="matrix(0.00130905 0 0 0.00121065 -0.0406363 0)"/>
</pattern>
<filter id="filter6_f_597_4422" x="38.8642" y="86.4103" width="4.81359" height="5.19323" filterUnits="userSpaceOnUse" color-interpolation-filters="sRGB">
<feFlood flood-opacity="0" result="BackgroundImageFix"/>
<feBlend mode="normal" in="SourceGraphic" in2="BackgroundImageFix" result="shape"/>
<feGaussianBlur stdDeviation="0.0371385" result="effect1_foregroundBlur_597_4422"/>
</filter>
<filter id="filter7_f_597_4422" x="38.8828" y="86.4289" width="4.77645" height="5.15609" filterUnits="userSpaceOnUse" color-interpolation-filters="sRGB">
<feFlood flood-opacity="0" result="BackgroundImageFix"/>
<feBlend mode="normal" in="SourceGraphic" in2="BackgroundImageFix" result="shape"/>
<feGaussianBlur stdDeviation="0.0278539" result="effect1_foregroundBlur_597_4422"/>
</filter>
<filter id="filter8_f_597_4422" x="38.8828" y="86.4289" width="4.77645" height="5.15609" filterUnits="userSpaceOnUse" color-interpolation-filters="sRGB">
<feFlood flood-opacity="0" result="BackgroundImageFix"/>
<feBlend mode="normal" in="SourceGraphic" in2="BackgroundImageFix" result="shape"/>
<feGaussianBlur stdDeviation="0.0278539" result="effect1_foregroundBlur_597_4422"/>
</filter>
<filter id="filter9_f_597_4422" x="38.8828" y="86.4289" width="4.77645" height="5.15609" filterUnits="userSpaceOnUse" color-interpolation-filters="sRGB">
<feFlood flood-opacity="0" result="BackgroundImageFix"/>
<feBlend mode="normal" in="SourceGraphic" in2="BackgroundImageFix" result="shape"/>
<feGaussianBlur stdDeviation="0.0278539" result="effect1_foregroundBlur_597_4422"/>
</filter>
<filter id="filter10_f_597_4422" x="38.8828" y="86.4289" width="4.77645" height="5.15609" filterUnits="userSpaceOnUse" color-interpolation-filters="sRGB">
<feFlood flood-opacity="0" result="BackgroundImageFix"/>
<feBlend mode="normal" in="SourceGraphic" in2="BackgroundImageFix" result="shape"/>
<feGaussianBlur stdDeviation="0.0278539" result="effect1_foregroundBlur_597_4422"/>
</filter>
<filter id="filter11_ii_597_4422" x="31.9355" y="79.4973" width="9.52246" height="12.605" filterUnits="userSpaceOnUse" color-interpolation-filters="sRGB">
<feFlood flood-opacity="0" result="BackgroundImageFix"/>
<feBlend mode="normal" in="SourceGraphic" in2="BackgroundImageFix" result="shape"/>
<feColorMatrix in="SourceAlpha" type="matrix" values="0 0 0 0 0 0 0 0 0 0 0 0 0 0 0 0 0 0 127 0" result="hardAlpha"/>
<feOffset dy="-1"/>
<feGaussianBlur stdDeviation="1"/>
<feComposite in2="hardAlpha" operator="arithmetic" k2="-1" k3="1"/>
<feColorMatrix type="matrix" values="0 0 0 0 0 0 0 0 0 0 0 0 0 0 0 0 0 0 0.38 0"/>
<feBlend mode="normal" in2="shape" result="effect1_innerShadow_597_4422"/>
<feColorMatrix in="SourceAlpha" type="matrix" values="0 0 0 0 0 0 0 0 0 0 0 0 0 0 0 0 0 0 127 0" result="hardAlpha"/>
<feOffset dy="2"/>
<feGaussianBlur stdDeviation="1"/>
<feComposite in2="hardAlpha" operator="arithmetic" k2="-1" k3="1"/>
<feColorMatrix type="matrix" values="0 0 0 0 0 0 0 0 0 0 0 0 0 0 0 0 0 0 0.53 0"/>
<feBlend mode="normal" in2="effect1_innerShadow_597_4422" result="effect2_innerShadow_597_4422"/>
</filter>
<filter id="filter12_ii_597_4422" x="37.5645" y="83.8857" width="3.89453" height="8.21655" filterUnits="userSpaceOnUse" color-interpolation-filters="sRGB">
<feFlood flood-opacity="0" result="BackgroundImageFix"/>
<feBlend mode="normal" in="SourceGraphic" in2="BackgroundImageFix" result="shape"/>
<feColorMatrix in="SourceAlpha" type="matrix" values="0 0 0 0 0 0 0 0 0 0 0 0 0 0 0 0 0 0 127 0" result="hardAlpha"/>
<feOffset dy="-1"/>
<feGaussianBlur stdDeviation="1"/>
<feComposite in2="hardAlpha" operator="arithmetic" k2="-1" k3="1"/>
<feColorMatrix type="matrix" values="0 0 0 0 0 0 0 0 0 0 0 0 0 0 0 0 0 0 0.38 0"/>
<feBlend mode="normal" in2="shape" result="effect1_innerShadow_597_4422"/>
<feColorMatrix in="SourceAlpha" type="matrix" values="0 0 0 0 0 0 0 0 0 0 0 0 0 0 0 0 0 0 127 0" result="hardAlpha"/>
<feOffset dy="2"/>
<feGaussianBlur stdDeviation="1"/>
<feComposite in2="hardAlpha" operator="arithmetic" k2="-1" k3="1"/>
<feColorMatrix type="matrix" values="0 0 0 0 0 0 0 0 0 0 0 0 0 0 0 0 0 0 0.53 0"/>
<feBlend mode="normal" in2="effect1_innerShadow_597_4422" result="effect2_innerShadow_597_4422"/>
</filter>
<filter id="filter13_ii_597_4422" x="31.5645" y="79.4973" width="9.89453" height="7.38843" filterUnits="userSpaceOnUse" color-interpolation-filters="sRGB">
<feFlood flood-opacity="0" result="BackgroundImageFix"/>
<feBlend mode="normal" in="SourceGraphic" in2="BackgroundImageFix" result="shape"/>
<feColorMatrix in="SourceAlpha" type="matrix" values="0 0 0 0 0 0 0 0 0 0 0 0 0 0 0 0 0 0 127 0" result="hardAlpha"/>
<feOffset dy="-1"/>
<feGaussianBlur stdDeviation="1"/>
<feComposite in2="hardAlpha" operator="arithmetic" k2="-1" k3="1"/>
<feColorMatrix type="matrix" values="0 0 0 0 0 0 0 0 0 0 0 0 0 0 0 0 0 0 0.38 0"/>
<feBlend mode="normal" in2="shape" result="effect1_innerShadow_597_4422"/>
<feColorMatrix in="SourceAlpha" type="matrix" values="0 0 0 0 0 0 0 0 0 0 0 0 0 0 0 0 0 0 127 0" result="hardAlpha"/>
<feOffset dy="2"/>
<feGaussianBlur stdDeviation="1"/>
<feComposite in2="hardAlpha" operator="arithmetic" k2="-1" k3="1"/>
<feColorMatrix type="matrix" values="0 0 0 0 0 0 0 0 0 0 0 0 0 0 0 0 0 0 0.53 0"/>
<feBlend mode="normal" in2="effect1_innerShadow_597_4422" result="effect2_innerShadow_597_4422"/>
</filter>
<filter id="filter14_ii_597_4422" x="46.9355" y="79.4973" width="9.52246" height="12.605" filterUnits="userSpaceOnUse" color-interpolation-filters="sRGB">
<feFlood flood-opacity="0" result="BackgroundImageFix"/>
<feBlend mode="normal" in="SourceGraphic" in2="BackgroundImageFix" result="shape"/>
<feColorMatrix in="SourceAlpha" type="matrix" values="0 0 0 0 0 0 0 0 0 0 0 0 0 0 0 0 0 0 127 0" result="hardAlpha"/>
<feOffset dy="-1"/>
<feGaussianBlur stdDeviation="1"/>
<feComposite in2="hardAlpha" operator="arithmetic" k2="-1" k3="1"/>
<feColorMatrix type="matrix" values="0 0 0 0 0 0 0 0 0 0 0 0 0 0 0 0 0 0 0.38 0"/>
<feBlend mode="normal" in2="shape" result="effect1_innerShadow_597_4422"/>
<feColorMatrix in="SourceAlpha" type="matrix" values="0 0 0 0 0 0 0 0 0 0 0 0 0 0 0 0 0 0 127 0" result="hardAlpha"/>
<feOffset dy="2"/>
<feGaussianBlur stdDeviation="1"/>
<feComposite in2="hardAlpha" operator="arithmetic" k2="-1" k3="1"/>
<feColorMatrix type="matrix" values="0 0 0 0 0 0 0 0 0 0 0 0 0 0 0 0 0 0 0.53 0"/>
<feBlend mode="normal" in2="effect1_innerShadow_597_4422" result="effect2_innerShadow_597_4422"/>
</filter>
<filter id="filter15_ii_597_4422" x="52.5645" y="83.8857" width="3.89453" height="8.21655" filterUnits="userSpaceOnUse" color-interpolation-filters="sRGB">
<feFlood flood-opacity="0" result="BackgroundImageFix"/>
<feBlend mode="normal" in="SourceGraphic" in2="BackgroundImageFix" result="shape"/>
<feColorMatrix in="SourceAlpha" type="matrix" values="0 0 0 0 0 0 0 0 0 0 0 0 0 0 0 0 0 0 127 0" result="hardAlpha"/>
<feOffset dy="-1"/>
<feGaussianBlur stdDeviation="1"/>
<feComposite in2="hardAlpha" operator="arithmetic" k2="-1" k3="1"/>
<feColorMatrix type="matrix" values="0 0 0 0 0 0 0 0 0 0 0 0 0 0 0 0 0 0 0.38 0"/>
<feBlend mode="normal" in2="shape" result="effect1_innerShadow_597_4422"/>
<feColorMatrix in="SourceAlpha" type="matrix" values="0 0 0 0 0 0 0 0 0 0 0 0 0 0 0 0 0 0 127 0" result="hardAlpha"/>
<feOffset dy="2"/>
<feGaussianBlur stdDeviation="1"/>
<feComposite in2="hardAlpha" operator="arithmetic" k2="-1" k3="1"/>
<feColorMatrix type="matrix" values="0 0 0 0 0 0 0 0 0 0 0 0 0 0 0 0 0 0 0.53 0"/>
<feBlend mode="normal" in2="effect1_innerShadow_597_4422" result="effect2_innerShadow_597_4422"/>
</filter>
<filter id="filter16_ii_597_4422" x="46.5645" y="79.4973" width="9.89453" height="7.38843" filterUnits="userSpaceOnUse" color-interpolation-filters="sRGB">
<feFlood flood-opacity="0" result="BackgroundImageFix"/>
<feBlend mode="normal" in="SourceGraphic" in2="BackgroundImageFix" result="shape"/>
<feColorMatrix in="SourceAlpha" type="matrix" values="0 0 0 0 0 0 0 0 0 0 0 0 0 0 0 0 0 0 127 0" result="hardAlpha"/>
<feOffset dy="-1"/>
<feGaussianBlur stdDeviation="1"/>
<feComposite in2="hardAlpha" operator="arithmetic" k2="-1" k3="1"/>
<feColorMatrix type="matrix" values="0 0 0 0 0 0 0 0 0 0 0 0 0 0 0 0 0 0 0.38 0"/>
<feBlend mode="normal" in2="shape" result="effect1_innerShadow_597_4422"/>
<feColorMatrix in="SourceAlpha" type="matrix" values="0 0 0 0 0 0 0 0 0 0 0 0 0 0 0 0 0 0 127 0" result="hardAlpha"/>
<feOffset dy="2"/>
<feGaussianBlur stdDeviation="1"/>
<feComposite in2="hardAlpha" operator="arithmetic" k2="-1" k3="1"/>
<feColorMatrix type="matrix" values="0 0 0 0 0 0 0 0 0 0 0 0 0 0 0 0 0 0 0.53 0"/>
<feBlend mode="normal" in2="effect1_innerShadow_597_4422" result="effect2_innerShadow_597_4422"/>
</filter>
<pattern id="pattern5_597_4422" patternContentUnits="objectBoundingBox" width="1" height="1">
<use xlink:href="#image3_597_4422" transform="matrix(0.0356173 0 0 0.0219086 -32.1834 -15.004)"/>
</pattern>
<filter id="filter17_f_597_4422" x="36.3887" y="44.7194" width="4" height="38.9929" filterUnits="userSpaceOnUse" color-interpolation-filters="sRGB">
<feFlood flood-opacity="0" result="BackgroundImageFix"/>
<feBlend mode="normal" in="SourceGraphic" in2="BackgroundImageFix" result="shape"/>
<feGaussianBlur stdDeviation="0.5" result="effect1_foregroundBlur_597_4422"/>
</filter>
<filter id="filter18_f_597_4422" x="36.9287" y="44.2158" width="20.9561" height="4" filterUnits="userSpaceOnUse" color-interpolation-filters="sRGB">
<feFlood flood-opacity="0" result="BackgroundImageFix"/>
<feBlend mode="normal" in="SourceGraphic" in2="BackgroundImageFix" result="shape"/>
<feGaussianBlur stdDeviation="0.5" result="effect1_foregroundBlur_597_4422"/>
</filter>
<filter id="filter19_f_597_4422" x="31.1416" y="37.4434" width="8.19238" height="10.0643" filterUnits="userSpaceOnUse" color-interpolation-filters="sRGB">
<feFlood flood-opacity="0" result="BackgroundImageFix"/>
<feBlend mode="normal" in="SourceGraphic" in2="BackgroundImageFix" result="shape"/>
<feGaussianBlur stdDeviation="0.5" result="effect1_foregroundBlur_597_4422"/>
</filter>
<filter id="filter20_i_597_4422" x="31.5771" y="11.8691" width="3.20215" height="12.6362" filterUnits="userSpaceOnUse" color-interpolation-filters="sRGB">
<feFlood flood-opacity="0" result="BackgroundImageFix"/>
<feBlend mode="normal" in="SourceGraphic" in2="BackgroundImageFix" result="shape"/>
<feColorMatrix in="SourceAlpha" type="matrix" values="0 0 0 0 0 0 0 0 0 0 0 0 0 0 0 0 0 0 127 0" result="hardAlpha"/>
<feOffset dx="1" dy="1"/>
<feGaussianBlur stdDeviation="2"/>
<feComposite in2="hardAlpha" operator="arithmetic" k2="-1" k3="1"/>
<feColorMatrix type="matrix" values="0 0 0 0 0 0 0 0 0 0 0 0 0 0 0 0 0 0 0.59 0"/>
<feBlend mode="normal" in2="shape" result="effect1_innerShadow_597_4422"/>
</filter>
<filter id="filter21_i_597_4422" x="46.8086" y="11.8691" width="3.20117" height="12.6362" filterUnits="userSpaceOnUse" color-interpolation-filters="sRGB">
<feFlood flood-opacity="0" result="BackgroundImageFix"/>
<feBlend mode="normal" in="SourceGraphic" in2="BackgroundImageFix" result="shape"/>
<feColorMatrix in="SourceAlpha" type="matrix" values="0 0 0 0 0 0 0 0 0 0 0 0 0 0 0 0 0 0 127 0" result="hardAlpha"/>
<feOffset dx="1" dy="1"/>
<feGaussianBlur stdDeviation="2"/>
<feComposite in2="hardAlpha" operator="arithmetic" k2="-1" k3="1"/>
<feColorMatrix type="matrix" values="0 0 0 0 0 0 0 0 0 0 0 0 0 0 0 0 0 0 0.59 0"/>
<feBlend mode="normal" in2="shape" result="effect1_innerShadow_597_4422"/>
</filter>
<filter id="filter22_i_597_4422" x="37.0098" y="13.1392" width="8.52246" height="8.39671" filterUnits="userSpaceOnUse" color-interpolation-filters="sRGB">
<feFlood flood-opacity="0" result="BackgroundImageFix"/>
<feBlend mode="normal" in="SourceGraphic" in2="BackgroundImageFix" result="shape"/>
<feColorMatrix in="SourceAlpha" type="matrix" values="0 0 0 0 0 0 0 0 0 0 0 0 0 0 0 0 0 0 127 0" result="hardAlpha"/>
<feOffset dy="0.990571"/>
<feGaussianBlur stdDeviation="0.33019"/>
<feComposite in2="hardAlpha" operator="arithmetic" k2="-1" k3="1"/>
<feColorMatrix type="matrix" values="0 0 0 0 0 0 0 0 0 0 0 0 0 0 0 0 0 0 0.56 0"/>
<feBlend mode="normal" in2="shape" result="effect1_innerShadow_597_4422"/>
</filter>
<pattern id="pattern6_597_4422" patternContentUnits="objectBoundingBox" width="1" height="1">
<use xlink:href="#image1_597_4422" transform="translate(-0.226805 -0.226805) scale(0.00196434)"/>
</pattern>
<filter id="filter23_f_597_4422" x="36.8447" y="12.9741" width="8.85265" height="8.06652" filterUnits="userSpaceOnUse" color-interpolation-filters="sRGB">
<feFlood flood-opacity="0" result="BackgroundImageFix"/>
<feBlend mode="normal" in="SourceGraphic" in2="BackgroundImageFix" result="shape"/>
<feGaussianBlur stdDeviation="0.0825476" result="effect1_foregroundBlur_597_4422"/>
</filter>
<filter id="filter24_f_597_4422" x="38.8678" y="14.4096" width="4.80646" height="5.19538" filterUnits="userSpaceOnUse" color-interpolation-filters="sRGB">
<feFlood flood-opacity="0" result="BackgroundImageFix"/>
<feBlend mode="normal" in="SourceGraphic" in2="BackgroundImageFix" result="shape"/>
<feGaussianBlur stdDeviation="0.00557078" result="effect1_foregroundBlur_597_4422"/>
</filter>
<pattern id="pattern7_597_4422" patternContentUnits="objectBoundingBox" width="1" height="1">
<use xlink:href="#image2_597_4422" transform="matrix(0.00130905 0 0 0.00121065 -0.0406363 0)"/>
</pattern>
<filter id="filter25_f_597_4422" x="38.8642" y="14.4103" width="4.81359" height="5.19323" filterUnits="userSpaceOnUse" color-interpolation-filters="sRGB">
<feFlood flood-opacity="0" result="BackgroundImageFix"/>
<feBlend mode="normal" in="SourceGraphic" in2="BackgroundImageFix" result="shape"/>
<feGaussianBlur stdDeviation="0.0371385" result="effect1_foregroundBlur_597_4422"/>
</filter>
<filter id="filter26_f_597_4422" x="38.8828" y="14.4289" width="4.77645" height="5.15609" filterUnits="userSpaceOnUse" color-interpolation-filters="sRGB">
<feFlood flood-opacity="0" result="BackgroundImageFix"/>
<feBlend mode="normal" in="SourceGraphic" in2="BackgroundImageFix" result="shape"/>
<feGaussianBlur stdDeviation="0.0278539" result="effect1_foregroundBlur_597_4422"/>
</filter>
<filter id="filter27_f_597_4422" x="38.8828" y="14.4289" width="4.77645" height="5.15609" filterUnits="userSpaceOnUse" color-interpolation-filters="sRGB">
<feFlood flood-opacity="0" result="BackgroundImageFix"/>
<feBlend mode="normal" in="SourceGraphic" in2="BackgroundImageFix" result="shape"/>
<feGaussianBlur stdDeviation="0.0278539" result="effect1_foregroundBlur_597_4422"/>
</filter>
<filter id="filter28_f_597_4422" x="38.8828" y="14.4289" width="4.77645" height="5.15609" filterUnits="userSpaceOnUse" color-interpolation-filters="sRGB">
<feFlood flood-opacity="0" result="BackgroundImageFix"/>
<feBlend mode="normal" in="SourceGraphic" in2="BackgroundImageFix" result="shape"/>
<feGaussianBlur stdDeviation="0.0278539" result="effect1_foregroundBlur_597_4422"/>
</filter>
<filter id="filter29_f_597_4422" x="38.8828" y="14.4289" width="4.77645" height="5.15609" filterUnits="userSpaceOnUse" color-interpolation-filters="sRGB">
<feFlood flood-opacity="0" result="BackgroundImageFix"/>
<feBlend mode="normal" in="SourceGraphic" in2="BackgroundImageFix" result="shape"/>
<feGaussianBlur stdDeviation="0.0278539" result="effect1_foregroundBlur_597_4422"/>
</filter>
<filter id="filter30_ii_597_4422" x="31.9355" y="24.4973" width="9.52246" height="12.605" filterUnits="userSpaceOnUse" color-interpolation-filters="sRGB">
<feFlood flood-opacity="0" result="BackgroundImageFix"/>
<feBlend mode="normal" in="SourceGraphic" in2="BackgroundImageFix" result="shape"/>
<feColorMatrix in="SourceAlpha" type="matrix" values="0 0 0 0 0 0 0 0 0 0 0 0 0 0 0 0 0 0 127 0" result="hardAlpha"/>
<feOffset dy="-1"/>
<feGaussianBlur stdDeviation="1"/>
<feComposite in2="hardAlpha" operator="arithmetic" k2="-1" k3="1"/>
<feColorMatrix type="matrix" values="0 0 0 0 0 0 0 0 0 0 0 0 0 0 0 0 0 0 0.38 0"/>
<feBlend mode="normal" in2="shape" result="effect1_innerShadow_597_4422"/>
<feColorMatrix in="SourceAlpha" type="matrix" values="0 0 0 0 0 0 0 0 0 0 0 0 0 0 0 0 0 0 127 0" result="hardAlpha"/>
<feOffset dy="2"/>
<feGaussianBlur stdDeviation="1"/>
<feComposite in2="hardAlpha" operator="arithmetic" k2="-1" k3="1"/>
<feColorMatrix type="matrix" values="0 0 0 0 0 0 0 0 0 0 0 0 0 0 0 0 0 0 0.53 0"/>
<feBlend mode="normal" in2="effect1_innerShadow_597_4422" result="effect2_innerShadow_597_4422"/>
</filter>
<filter id="filter31_ii_597_4422" x="37.5645" y="28.8857" width="3.89453" height="8.21655" filterUnits="userSpaceOnUse" color-interpolation-filters="sRGB">
<feFlood flood-opacity="0" result="BackgroundImageFix"/>
<feBlend mode="normal" in="SourceGraphic" in2="BackgroundImageFix" result="shape"/>
<feColorMatrix in="SourceAlpha" type="matrix" values="0 0 0 0 0 0 0 0 0 0 0 0 0 0 0 0 0 0 127 0" result="hardAlpha"/>
<feOffset dy="-1"/>
<feGaussianBlur stdDeviation="1"/>
<feComposite in2="hardAlpha" operator="arithmetic" k2="-1" k3="1"/>
<feColorMatrix type="matrix" values="0 0 0 0 0 0 0 0 0 0 0 0 0 0 0 0 0 0 0.38 0"/>
<feBlend mode="normal" in2="shape" result="effect1_innerShadow_597_4422"/>
<feColorMatrix in="SourceAlpha" type="matrix" values="0 0 0 0 0 0 0 0 0 0 0 0 0 0 0 0 0 0 127 0" result="hardAlpha"/>
<feOffset dy="2"/>
<feGaussianBlur stdDeviation="1"/>
<feComposite in2="hardAlpha" operator="arithmetic" k2="-1" k3="1"/>
<feColorMatrix type="matrix" values="0 0 0 0 0 0 0 0 0 0 0 0 0 0 0 0 0 0 0.53 0"/>
<feBlend mode="normal" in2="effect1_innerShadow_597_4422" result="effect2_innerShadow_597_4422"/>
</filter>
<filter id="filter32_ii_597_4422" x="31.5645" y="24.4973" width="9.89453" height="7.38843" filterUnits="userSpaceOnUse" color-interpolation-filters="sRGB">
<feFlood flood-opacity="0" result="BackgroundImageFix"/>
<feBlend mode="normal" in="SourceGraphic" in2="BackgroundImageFix" result="shape"/>
<feColorMatrix in="SourceAlpha" type="matrix" values="0 0 0 0 0 0 0 0 0 0 0 0 0 0 0 0 0 0 127 0" result="hardAlpha"/>
<feOffset dy="-1"/>
<feGaussianBlur stdDeviation="1"/>
<feComposite in2="hardAlpha" operator="arithmetic" k2="-1" k3="1"/>
<feColorMatrix type="matrix" values="0 0 0 0 0 0 0 0 0 0 0 0 0 0 0 0 0 0 0.38 0"/>
<feBlend mode="normal" in2="shape" result="effect1_innerShadow_597_4422"/>
<feColorMatrix in="SourceAlpha" type="matrix" values="0 0 0 0 0 0 0 0 0 0 0 0 0 0 0 0 0 0 127 0" result="hardAlpha"/>
<feOffset dy="2"/>
<feGaussianBlur stdDeviation="1"/>
<feComposite in2="hardAlpha" operator="arithmetic" k2="-1" k3="1"/>
<feColorMatrix type="matrix" values="0 0 0 0 0 0 0 0 0 0 0 0 0 0 0 0 0 0 0.53 0"/>
<feBlend mode="normal" in2="effect1_innerShadow_597_4422" result="effect2_innerShadow_597_4422"/>
</filter>
<filter id="filter33_ii_597_4422" x="46.9355" y="24.4973" width="9.52246" height="12.605" filterUnits="userSpaceOnUse" color-interpolation-filters="sRGB">
<feFlood flood-opacity="0" result="BackgroundImageFix"/>
<feBlend mode="normal" in="SourceGraphic" in2="BackgroundImageFix" result="shape"/>
<feColorMatrix in="SourceAlpha" type="matrix" values="0 0 0 0 0 0 0 0 0 0 0 0 0 0 0 0 0 0 127 0" result="hardAlpha"/>
<feOffset dy="-1"/>
<feGaussianBlur stdDeviation="1"/>
<feComposite in2="hardAlpha" operator="arithmetic" k2="-1" k3="1"/>
<feColorMatrix type="matrix" values="0 0 0 0 0 0 0 0 0 0 0 0 0 0 0 0 0 0 0.38 0"/>
<feBlend mode="normal" in2="shape" result="effect1_innerShadow_597_4422"/>
<feColorMatrix in="SourceAlpha" type="matrix" values="0 0 0 0 0 0 0 0 0 0 0 0 0 0 0 0 0 0 127 0" result="hardAlpha"/>
<feOffset dy="2"/>
<feGaussianBlur stdDeviation="1"/>
<feComposite in2="hardAlpha" operator="arithmetic" k2="-1" k3="1"/>
<feColorMatrix type="matrix" values="0 0 0 0 0 0 0 0 0 0 0 0 0 0 0 0 0 0 0.53 0"/>
<feBlend mode="normal" in2="effect1_innerShadow_597_4422" result="effect2_innerShadow_597_4422"/>
</filter>
<filter id="filter34_ii_597_4422" x="52.5645" y="28.8857" width="3.89453" height="8.21655" filterUnits="userSpaceOnUse" color-interpolation-filters="sRGB">
<feFlood flood-opacity="0" result="BackgroundImageFix"/>
<feBlend mode="normal" in="SourceGraphic" in2="BackgroundImageFix" result="shape"/>
<feColorMatrix in="SourceAlpha" type="matrix" values="0 0 0 0 0 0 0 0 0 0 0 0 0 0 0 0 0 0 127 0" result="hardAlpha"/>
<feOffset dy="-1"/>
<feGaussianBlur stdDeviation="1"/>
<feComposite in2="hardAlpha" operator="arithmetic" k2="-1" k3="1"/>
<feColorMatrix type="matrix" values="0 0 0 0 0 0 0 0 0 0 0 0 0 0 0 0 0 0 0.38 0"/>
<feBlend mode="normal" in2="shape" result="effect1_innerShadow_597_4422"/>
<feColorMatrix in="SourceAlpha" type="matrix" values="0 0 0 0 0 0 0 0 0 0 0 0 0 0 0 0 0 0 127 0" result="hardAlpha"/>
<feOffset dy="2"/>
<feGaussianBlur stdDeviation="1"/>
<feComposite in2="hardAlpha" operator="arithmetic" k2="-1" k3="1"/>
<feColorMatrix type="matrix" values="0 0 0 0 0 0 0 0 0 0 0 0 0 0 0 0 0 0 0.53 0"/>
<feBlend mode="normal" in2="effect1_innerShadow_597_4422" result="effect2_innerShadow_597_4422"/>
</filter>
<filter id="filter35_ii_597_4422" x="46.5645" y="24.4973" width="9.89453" height="7.38843" filterUnits="userSpaceOnUse" color-interpolation-filters="sRGB">
<feFlood flood-opacity="0" result="BackgroundImageFix"/>
<feBlend mode="normal" in="SourceGraphic" in2="BackgroundImageFix" result="shape"/>
<feColorMatrix in="SourceAlpha" type="matrix" values="0 0 0 0 0 0 0 0 0 0 0 0 0 0 0 0 0 0 127 0" result="hardAlpha"/>
<feOffset dy="-1"/>
<feGaussianBlur stdDeviation="1"/>
<feComposite in2="hardAlpha" operator="arithmetic" k2="-1" k3="1"/>
<feColorMatrix type="matrix" values="0 0 0 0 0 0 0 0 0 0 0 0 0 0 0 0 0 0 0.38 0"/>
<feBlend mode="normal" in2="shape" result="effect1_innerShadow_597_4422"/>
<feColorMatrix in="SourceAlpha" type="matrix" values="0 0 0 0 0 0 0 0 0 0 0 0 0 0 0 0 0 0 127 0" result="hardAlpha"/>
<feOffset dy="2"/>
<feGaussianBlur stdDeviation="1"/>
<feComposite in2="hardAlpha" operator="arithmetic" k2="-1" k3="1"/>
<feColorMatrix type="matrix" values="0 0 0 0 0 0 0 0 0 0 0 0 0 0 0 0 0 0 0.53 0"/>
<feBlend mode="normal" in2="effect1_innerShadow_597_4422" result="effect2_innerShadow_597_4422"/>
</filter>
<filter id="filter36_f_597_4422" x="11.6191" y="25.5892" width="8.67871" height="8.67871" filterUnits="userSpaceOnUse" color-interpolation-filters="sRGB">
<feFlood flood-opacity="0" result="BackgroundImageFix"/>
<feBlend mode="normal" in="SourceGraphic" in2="BackgroundImageFix" result="shape"/>
<feGaussianBlur stdDeviation="0.5" result="effect1_foregroundBlur_597_4422"/>
</filter>
<filter id="filter37_f_597_4422" x="11.6191" y="68.302" width="8.67871" height="8.67871" filterUnits="userSpaceOnUse" color-interpolation-filters="sRGB">
<feFlood flood-opacity="0" result="BackgroundImageFix"/>
<feBlend mode="normal" in="SourceGraphic" in2="BackgroundImageFix" result="shape"/>
<feGaussianBlur stdDeviation="0.5" result="effect1_foregroundBlur_597_4422"/>
</filter>
<linearGradient id="paint0_linear_597_4422" x1="31.1455" y1="4.56921" x2="42.1022" y2="93.5817" gradientUnits="userSpaceOnUse">
<stop stop-color="#F5F5F5"/>
<stop offset="0.22" stop-color="#8A8A8A"/>
<stop offset="0.458333" stop-color="#CFCFCF"/>
<stop offset="0.765" stop-color="#575757"/>
<stop offset="1" stop-color="#4B4B4B"/>
</linearGradient>
<linearGradient id="paint1_linear_597_4422" x1="41.271" y1="86.4208" x2="43.1844" y2="91.0339" gradientUnits="userSpaceOnUse">
<stop stop-color="#414141"/>
<stop offset="0.223759" stop-color="white"/>
<stop offset="0.755" stop-color="#414141"/>
<stop offset="1" stop-color="#6B6B6B"/>
</linearGradient>
<radialGradient id="paint2_radial_597_4422" cx="0" cy="0" r="1" gradientUnits="userSpaceOnUse" gradientTransform="translate(41.2711 89.0067) rotate(90) scale(2.49158 2.3043)">
<stop/>
<stop offset="1" stop-opacity="0"/>
</radialGradient>
<linearGradient id="paint3_linear_597_4422" x1="41.2712" y1="86.4846" x2="41.2712" y2="91.5293" gradientUnits="userSpaceOnUse">
<stop stop-opacity="0.41"/>
<stop offset="1" stop-color="white"/>
</linearGradient>
<linearGradient id="paint4_linear_597_4422" x1="41.2712" y1="86.4846" x2="41.2712" y2="91.5293" gradientUnits="userSpaceOnUse">
<stop stop-opacity="0.41"/>
<stop offset="1" stop-color="white"/>
</linearGradient>
<linearGradient id="paint5_linear_597_4422" x1="41.2712" y1="86.4846" x2="41.2712" y2="91.5293" gradientUnits="userSpaceOnUse">
<stop stop-opacity="0.41"/>
<stop offset="1" stop-color="white"/>
</linearGradient>
<linearGradient id="paint6_linear_597_4422" x1="41.2712" y1="86.4846" x2="41.2712" y2="91.5293" gradientUnits="userSpaceOnUse">
<stop stop-opacity="0.41"/>
<stop offset="1" stop-color="white"/>
</linearGradient>
<linearGradient id="paint7_linear_597_4422" x1="41.2712" y1="86.4846" x2="41.2712" y2="91.5293" gradientUnits="userSpaceOnUse">
<stop stop-opacity="0.41"/>
<stop offset="1" stop-color="white"/>
</linearGradient>
<linearGradient id="paint8_linear_597_4422" x1="41.271" y1="14.4208" x2="43.1844" y2="19.0339" gradientUnits="userSpaceOnUse">
<stop stop-color="#414141"/>
<stop offset="0.223759" stop-color="white"/>
<stop offset="0.755" stop-color="#414141"/>
<stop offset="1" stop-color="#6B6B6B"/>
</linearGradient>
<radialGradient id="paint9_radial_597_4422" cx="0" cy="0" r="1" gradientUnits="userSpaceOnUse" gradientTransform="translate(41.2711 17.0067) rotate(90) scale(2.49158 2.3043)">
<stop/>
<stop offset="1" stop-opacity="0"/>
</radialGradient>
<linearGradient id="paint10_linear_597_4422" x1="41.2712" y1="14.4846" x2="41.2712" y2="19.5293" gradientUnits="userSpaceOnUse">
<stop stop-opacity="0.41"/>
<stop offset="1" stop-color="white"/>
</linearGradient>
<linearGradient id="paint11_linear_597_4422" x1="41.2712" y1="14.4846" x2="41.2712" y2="19.5293" gradientUnits="userSpaceOnUse">
<stop stop-opacity="0.41"/>
<stop offset="1" stop-color="white"/>
</linearGradient>
<linearGradient id="paint12_linear_597_4422" x1="41.2712" y1="14.4846" x2="41.2712" y2="19.5293" gradientUnits="userSpaceOnUse">
<stop stop-opacity="0.41"/>
<stop offset="1" stop-color="white"/>
</linearGradient>
<linearGradient id="paint13_linear_597_4422" x1="41.2712" y1="14.4846" x2="41.2712" y2="19.5293" gradientUnits="userSpaceOnUse">
<stop stop-opacity="0.41"/>
<stop offset="1" stop-color="white"/>
</linearGradient>
<linearGradient id="paint14_linear_597_4422" x1="41.2712" y1="14.4846" x2="41.2712" y2="19.5293" gradientUnits="userSpaceOnUse">
<stop stop-opacity="0.41"/>
<stop offset="1" stop-color="white"/>
</linearGradient>

</defs>
</svg>
