<svg width="61" height="135" preserveAspectRatio="none" viewBox="0 0 61 135" fill="none" xmlns="http://www.w3.org/2000/svg">
<g filter="url(#filter0_d_82_2307)">
<g filter="url(#filter1_d_82_2307)">
<rect x="12.4678" y="2.94183" width="36.3126" height="101.722" fill="#F4F0F0"/>
</g>
<g filter="url(#filter2_f_82_2307)">
<mask id="path-2-inside-1_82_2307" fill="white">
<path d="M12.4678 2.94183H48.7804V104.664H12.4678V2.94183Z"/>
</mask>
<path d="M12.4678 2.94183V-0.165216H9.36072V2.94183H12.4678ZM48.7804 2.94183H51.8875V-0.165216H48.7804V2.94183ZM48.7804 104.664V107.771H51.8875V104.664H48.7804ZM12.4678 104.664H9.36072V107.771H12.4678V104.664ZM12.4678 6.04888H48.7804V-0.165216H12.4678V6.04888ZM45.6734 2.94183V104.664H51.8875V2.94183H45.6734ZM48.7804 101.557H12.4678V107.771H48.7804V101.557ZM15.5748 104.664V2.94183H9.36072V104.664H15.5748Z" fill="white" mask="url(#path-2-inside-1_82_2307)"/>
</g>
<g filter="url(#filter3_i_82_2307)">
<path fill-rule="evenodd" clip-rule="evenodd" d="M14.4147 14.5916C14.4147 15.1636 14.8784 15.6273 15.4504 15.6273H45.8706C46.4426 15.6273 46.9062 15.1636 46.9062 14.5916V10.9401C46.9062 10.3681 46.4426 9.90439 45.8706 9.90439H43.9214C43.3947 9.90439 42.9676 9.47736 42.9676 8.95059C42.9676 8.42382 42.5406 7.99679 42.0138 7.99679H19.3068C18.78 7.99679 18.353 8.42382 18.353 8.95059C18.353 9.47736 17.9259 9.90439 17.3992 9.90439H15.4504C14.8784 9.90439 14.4147 10.3681 14.4147 10.9401V14.5916Z" fill="#F4F0F0"/>
</g>
<g filter="url(#filter4_i_82_2307)">
<path fill-rule="evenodd" clip-rule="evenodd" d="M46.9056 94.9942C46.9056 94.4222 46.4419 93.9585 45.8699 93.9585H15.4497C14.8778 93.9585 14.4141 94.4222 14.4141 94.9942V98.6457C14.4141 99.2177 14.8778 99.6814 15.4497 99.6814L17.3987 99.6814C17.9254 99.6814 18.3525 100.108 18.3525 100.635C18.3525 101.162 18.7795 101.589 19.3063 101.589H42.0133C42.5401 101.589 42.9672 101.162 42.9672 100.635C42.9672 100.108 43.3942 99.6814 43.921 99.6814L45.8699 99.6814C46.4419 99.6814 46.9056 99.2177 46.9056 98.6457V94.9942Z" fill="#F4F0F0"/>
</g>
<g filter="url(#filter5_diiii_82_2307)">
<rect x="14.4141" y="27.4674" width="33.4908" height="45.8784" rx="2.07137" fill="#F5F504"/>
</g>
<g filter="url(#filter6_i_82_2307)">
<path d="M7.65625 104.664H48.7802L43.6017 114.841H7.65625V104.664Z" fill="#E3E3E3"/>
</g>
<path d="M12.4675 2.94183L7.65625 14.0272V114.841L12.4675 104.592V2.94183Z" fill="#CDCDCD"/>
<path d="M14.3621 91.3158C14.6272 91.0865 14.8358 90.8987 14.9877 90.7524C15.1423 90.6032 15.2707 90.4486 15.3729 90.2884C15.4751 90.1282 15.5262 89.968 15.5262 89.8078C15.5262 89.6421 15.4862 89.5123 15.4061 89.4184C15.3287 89.3245 15.2058 89.2775 15.0374 89.2775C14.8744 89.2775 14.7474 89.33 14.6562 89.435C14.5679 89.5371 14.5209 89.6752 14.5154 89.8492H14.0597C14.068 89.5344 14.1619 89.2941 14.3414 89.1284C14.5237 88.9599 14.7543 88.8757 15.0332 88.8757C15.3343 88.8757 15.569 88.9585 15.7375 89.1243C15.9087 89.29 15.9943 89.5109 15.9943 89.7871C15.9943 89.9859 15.9432 90.1779 15.8411 90.3629C15.7416 90.5452 15.6215 90.7095 15.4806 90.8559C15.3425 90.9995 15.1658 91.1666 14.9504 91.3572L14.7639 91.5229H16.0772V91.9165H14.0638V91.5726L14.3621 91.3158ZM16.4921 90.4085C16.4921 89.9307 16.5722 89.5579 16.7324 89.29C16.8953 89.0193 17.1743 88.884 17.5692 88.884C17.9641 88.884 18.2417 89.0193 18.4019 89.29C18.5648 89.5579 18.6463 89.9307 18.6463 90.4085C18.6463 90.8918 18.5648 91.2702 18.4019 91.5436C18.2417 91.8143 17.9641 91.9496 17.5692 91.9496C17.1743 91.9496 16.8953 91.8143 16.7324 91.5436C16.5722 91.2702 16.4921 90.8918 16.4921 90.4085ZM18.1823 90.4085C18.1823 90.1848 18.1671 89.9956 18.1367 89.8409C18.1091 89.6863 18.0511 89.5606 17.9628 89.464C17.8744 89.3645 17.7432 89.3148 17.5692 89.3148C17.3952 89.3148 17.264 89.3645 17.1756 89.464C17.0873 89.5606 17.0279 89.6863 16.9975 89.8409C16.9699 89.9956 16.9561 90.1848 16.9561 90.4085C16.9561 90.6405 16.9699 90.8352 16.9975 90.9926C17.0251 91.1501 17.0831 91.2771 17.1715 91.3738C17.2626 91.4704 17.3952 91.5188 17.5692 91.5188C17.7432 91.5188 17.8744 91.4704 17.9628 91.3738C18.0539 91.2771 18.1133 91.1501 18.1409 90.9926C18.1685 90.8352 18.1823 90.6405 18.1823 90.4085Z" fill="black"/>
<path d="M25.3575 91.3158C25.6226 91.0865 25.8311 90.8987 25.983 90.7524C26.1377 90.6032 26.2661 90.4486 26.3683 90.2884C26.4705 90.1282 26.5216 89.968 26.5216 89.8078C26.5216 89.6421 26.4815 89.5123 26.4014 89.4184C26.3241 89.3245 26.2012 89.2775 26.0327 89.2775C25.8698 89.2775 25.7428 89.33 25.6516 89.435C25.5632 89.5371 25.5163 89.6752 25.5108 89.8492H25.0551C25.0633 89.5344 25.1572 89.2941 25.3368 89.1284C25.519 88.9599 25.7497 88.8757 26.0286 88.8757C26.3296 88.8757 26.5644 88.9585 26.7329 89.1243C26.9041 89.29 26.9897 89.5109 26.9897 89.7871C26.9897 89.9859 26.9386 90.1779 26.8364 90.3629C26.737 90.5452 26.6169 90.7095 26.476 90.8559C26.3379 90.9995 26.1612 91.1666 25.9457 91.3572L25.7593 91.5229H27.0726V91.9165H25.0592V91.5726L25.3575 91.3158ZM27.4253 89.3687V88.9378H28.287V91.9579H27.8106V89.3687H27.4253Z" fill="black"/>
<path d="M34.4269 89.3687V88.9378H35.2886V91.9579H34.8122V89.3687H34.4269ZM36.1984 91.3158C36.4635 91.0865 36.672 90.8987 36.8239 90.7524C36.9786 90.6032 37.107 90.4486 37.2092 90.2884C37.3114 90.1282 37.3625 89.968 37.3625 89.8078C37.3625 89.6421 37.3225 89.5123 37.2424 89.4184C37.165 89.3245 37.0421 89.2775 36.8737 89.2775C36.7107 89.2775 36.5837 89.33 36.4925 89.435C36.4042 89.5371 36.3572 89.6752 36.3517 89.8492H35.896C35.9043 89.5344 35.9982 89.2941 36.1777 89.1284C36.36 88.9599 36.5906 88.8757 36.8695 88.8757C37.1706 88.8757 37.4053 88.9585 37.5738 89.1243C37.745 89.29 37.8306 89.5109 37.8306 89.7871C37.8306 89.9859 37.7795 90.1779 37.6774 90.3629C37.5779 90.5452 37.4578 90.7095 37.3169 90.8559C37.1788 90.9995 37.0021 91.1666 36.7867 91.3572L36.6002 91.5229H37.9135V91.9165H35.9001V91.5726L36.1984 91.3158Z" fill="black"/>
<path d="M43.7851 89.3687V88.9378H44.6468V91.9579H44.1704V89.3687H43.7851ZM45.2873 89.6835C45.3039 89.4267 45.4019 89.2264 45.5814 89.0828C45.7637 88.9392 45.9957 88.8674 46.2774 88.8674C46.4707 88.8674 46.6378 88.9019 46.7787 88.971C46.9195 89.04 47.0259 89.1339 47.0977 89.2527C47.1695 89.3714 47.2054 89.5054 47.2054 89.6545C47.2054 89.8258 47.1598 89.9721 47.0687 90.0937C46.9775 90.2152 46.8685 90.2966 46.7414 90.3381V90.3546C46.9044 90.4044 47.0314 90.4955 47.1225 90.6281C47.2137 90.7579 47.2592 90.925 47.2592 91.1293C47.2592 91.2923 47.222 91.4373 47.1474 91.5643C47.0728 91.6914 46.9624 91.7922 46.816 91.8667C46.6696 91.9386 46.4942 91.9745 46.2898 91.9745C45.9916 91.9745 45.7458 91.8985 45.5524 91.7466C45.3619 91.5919 45.2597 91.371 45.2459 91.0838H45.7016C45.7126 91.2301 45.7692 91.3503 45.8714 91.4442C45.9736 91.5353 46.1117 91.5809 46.2857 91.5809C46.4542 91.5809 46.584 91.5353 46.6751 91.4442C46.7663 91.3503 46.8118 91.2301 46.8118 91.0838C46.8118 90.8904 46.7497 90.7537 46.6254 90.6736C46.5039 90.5908 46.3161 90.5494 46.062 90.5494H45.9543V90.1599H46.0661C46.2898 90.1572 46.4597 90.1199 46.5757 90.0481C46.6945 89.9763 46.7538 89.863 46.7538 89.7084C46.7538 89.5758 46.711 89.4709 46.6254 89.3935C46.5398 89.3134 46.4183 89.2734 46.2609 89.2734C46.1062 89.2734 45.986 89.3134 45.9004 89.3935C45.8148 89.4709 45.7637 89.5675 45.7472 89.6835H45.2873Z" fill="black"/>
<rect x="17.5127" y="65.9554" width="27.2949" height="4.46879" fill="#383838"/>
<circle cx="21.1167" cy="57.2154" r="2.83941" fill="#383838"/>
<path fill-rule="evenodd" clip-rule="evenodd" d="M24.6436 58.5314L23.7065 58.1823C23.7145 58.161 23.7222 58.1395 23.7297 58.1178C23.7372 58.0961 23.7444 58.0745 23.7513 58.0528L24.7041 58.3562C24.6948 58.3856 24.685 58.4149 24.6749 58.4442C24.6648 58.4735 24.6544 58.5025 24.6436 58.5314ZM24.5408 55.6515L23.6312 56.0671C23.6124 56.0258 23.5926 55.985 23.5717 55.9448L24.4599 55.4853C24.4882 55.54 24.5152 55.5954 24.5408 55.6515ZM22.4321 53.6881L22.083 54.6252C22.0617 54.6173 22.0402 54.6095 22.0185 54.6021C21.9968 54.5946 21.9751 54.5874 21.9535 54.5805L22.2569 53.6276C22.2862 53.637 22.3156 53.6467 22.3449 53.6568C22.3741 53.6669 22.4032 53.6774 22.4321 53.6881ZM19.5522 53.7909L19.9677 54.7005C19.9265 54.7193 19.8857 54.7392 19.8454 54.76L19.386 53.8718C19.4407 53.8435 19.4961 53.8165 19.5522 53.7909ZM17.5888 55.8996C17.578 55.9285 17.5676 55.9576 17.5575 55.9869C17.5474 56.0162 17.5377 56.0455 17.5283 56.0749L18.4812 56.3783C18.4881 56.3566 18.4953 56.3349 18.5027 56.3132C18.5102 56.2916 18.5179 56.2701 18.5259 56.2487L17.5888 55.8996ZM17.6916 58.7796L18.6012 58.364C18.62 58.4052 18.6399 58.446 18.6607 58.4863L17.7725 58.9457C17.7442 58.891 17.7172 58.8356 17.6916 58.7796Z" fill="#373737"/>
<path d="M18.651 58.5596L22.6751 54.7763L23.9395 56.9663L18.651 58.5596Z" fill="#D9D9D9"/>
<path d="M15.9169 59.0379C15.9169 58.9226 15.9363 58.8326 15.9749 58.7679C16.0143 58.7026 16.0816 58.6699 16.1769 58.6699C16.2723 58.6699 16.3393 58.7026 16.3779 58.7679C16.4173 58.8326 16.4369 58.9226 16.4369 59.0379C16.4369 59.1546 16.4173 59.2459 16.3779 59.3119C16.3393 59.3773 16.2723 59.4099 16.1769 59.4099C16.0816 59.4099 16.0143 59.3773 15.9749 59.3119C15.9363 59.2459 15.9169 59.1546 15.9169 59.0379ZM16.3249 59.0379C16.3249 58.9839 16.3213 58.9383 16.3139 58.9009C16.3073 58.8636 16.2933 58.8333 16.2719 58.8099C16.2506 58.7859 16.2189 58.7739 16.1769 58.7739C16.1349 58.7739 16.1033 58.7859 16.0819 58.8099C16.0606 58.8333 16.0463 58.8636 16.0389 58.9009C16.0323 58.9383 16.0289 58.9839 16.0289 59.0379C16.0289 59.0939 16.0323 59.1409 16.0389 59.1789C16.0456 59.2169 16.0596 59.2476 16.0809 59.2709C16.1029 59.2943 16.1349 59.3059 16.1769 59.3059C16.2189 59.3059 16.2506 59.2943 16.2719 59.2709C16.2939 59.2476 16.3083 59.2169 16.3149 59.1789C16.3216 59.1409 16.3249 59.0939 16.3249 59.0379ZM16.6186 59.4189C16.5979 59.4189 16.5806 59.4119 16.5666 59.3979C16.5526 59.3839 16.5456 59.3666 16.5456 59.3459C16.5456 59.3253 16.5526 59.3079 16.5666 59.2939C16.5806 59.2799 16.5979 59.2729 16.6186 59.2729C16.6386 59.2729 16.6556 59.2799 16.6696 59.2939C16.6836 59.3079 16.6906 59.3253 16.6906 59.3459C16.6906 59.3666 16.6836 59.3839 16.6696 59.3979C16.6556 59.4119 16.6386 59.4189 16.6186 59.4189ZM16.7838 58.7869V58.6829H16.9918V59.4119H16.8768V58.7869H16.7838Z" fill="#373737"/>
<path d="M20.1624 60.7169C20.2364 60.7169 20.301 60.7312 20.3564 60.7599C20.4124 60.7879 20.4554 60.8285 20.4854 60.8819C20.516 60.9345 20.5314 60.9962 20.5314 61.0669C20.5314 61.1375 20.516 61.1989 20.4854 61.2509C20.4554 61.3029 20.4124 61.3429 20.3564 61.3709C20.301 61.3982 20.2364 61.4119 20.1624 61.4119H19.9354V60.7169H20.1624ZM20.1624 61.3189C20.2437 61.3189 20.306 61.2969 20.3494 61.2529C20.3927 61.2089 20.4144 61.1469 20.4144 61.0669C20.4144 60.9862 20.3927 60.9232 20.3494 60.8779C20.306 60.8325 20.2437 60.8099 20.1624 60.8099H20.0494V61.3189H20.1624ZM21.1493 61.1229C21.1493 61.1435 21.148 61.1622 21.1453 61.1789H20.7243C20.7277 61.2229 20.744 61.2582 20.7733 61.2849C20.8027 61.3115 20.8387 61.3249 20.8813 61.3249C20.9427 61.3249 20.986 61.2992 21.0113 61.2479H21.1343C21.1177 61.2985 21.0873 61.3402 21.0433 61.3729C21 61.4049 20.946 61.4209 20.8813 61.4209C20.8287 61.4209 20.7813 61.4092 20.7393 61.3859C20.698 61.3619 20.6653 61.3285 20.6413 61.2859C20.618 61.2425 20.6063 61.1925 20.6063 61.1359C20.6063 61.0792 20.6177 61.0295 20.6403 60.9869C20.6637 60.9435 20.696 60.9102 20.7373 60.8869C20.7793 60.8635 20.8273 60.8519 20.8813 60.8519C20.9333 60.8519 20.9797 60.8632 21.0203 60.8859C21.061 60.9085 21.0927 60.9405 21.1153 60.9819C21.138 61.0225 21.1493 61.0695 21.1493 61.1229ZM21.0303 61.0869C21.0297 61.0449 21.0147 61.0112 20.9853 60.9859C20.956 60.9605 20.9197 60.9479 20.8763 60.9479C20.837 60.9479 20.8033 60.9605 20.7753 60.9859C20.7473 61.0105 20.7307 61.0442 20.7253 61.0869H21.0303ZM21.3755 60.6719V61.4119H21.2615V60.6719H21.3755ZM21.4872 61.1339C21.4872 61.0785 21.4985 61.0295 21.5212 60.9869C21.5445 60.9442 21.5759 60.9112 21.6152 60.8879C21.6552 60.8639 21.6992 60.8519 21.7472 60.8519C21.7905 60.8519 21.8282 60.8605 21.8602 60.8779C21.8929 60.8945 21.9189 60.9155 21.9382 60.9409V60.8609H22.0532V61.4119H21.9382V61.3299C21.9189 61.3559 21.8925 61.3775 21.8592 61.3949C21.8259 61.4122 21.7879 61.4209 21.7452 61.4209C21.6979 61.4209 21.6545 61.4089 21.6152 61.3849C21.5759 61.3602 21.5445 61.3262 21.5212 61.2829C21.4985 61.2389 21.4872 61.1892 21.4872 61.1339ZM21.9382 61.1359C21.9382 61.0979 21.9302 61.0649 21.9142 61.0369C21.8989 61.0089 21.8785 60.9875 21.8532 60.9729C21.8279 60.9582 21.8005 60.9509 21.7712 60.9509C21.7419 60.9509 21.7145 60.9582 21.6892 60.9729C21.6639 60.9869 21.6432 61.0079 21.6272 61.0359C21.6119 61.0632 21.6042 61.0959 21.6042 61.1339C21.6042 61.1719 21.6119 61.2052 21.6272 61.2339C21.6432 61.2625 21.6639 61.2845 21.6892 61.2999C21.7152 61.3145 21.7425 61.3219 21.7712 61.3219C21.8005 61.3219 21.8279 61.3145 21.8532 61.2999C21.8785 61.2852 21.8989 61.2639 21.9142 61.2359C21.9302 61.2072 21.9382 61.1739 21.9382 61.1359ZM22.6989 60.8609L22.3609 61.6709H22.2429L22.3549 61.4029L22.1379 60.8609H22.2649L22.4199 61.2809L22.5809 60.8609H22.6989Z" fill="#373737"/>
<path d="M16.9506 56.119C17.0146 56.0637 17.065 56.0183 17.1016 55.983C17.139 55.947 17.17 55.9097 17.1946 55.871C17.2193 55.8323 17.2316 55.7937 17.2316 55.755C17.2316 55.715 17.222 55.6837 17.2026 55.661C17.184 55.6383 17.1543 55.627 17.1136 55.627C17.0743 55.627 17.0436 55.6397 17.0216 55.665C17.0003 55.6897 16.989 55.723 16.9876 55.765H16.8776C16.8796 55.689 16.9023 55.631 16.9456 55.591C16.9896 55.5503 17.0453 55.53 17.1126 55.53C17.1853 55.53 17.242 55.55 17.2826 55.59C17.324 55.63 17.3446 55.6833 17.3446 55.75C17.3446 55.798 17.3323 55.8443 17.3076 55.889C17.2836 55.933 17.2546 55.9727 17.2206 56.008C17.1873 56.0427 17.1446 56.083 17.0926 56.129L17.0476 56.169H17.3646V56.264H16.8786V56.181L16.9506 56.119Z" fill="#373737"/>
<path d="M19.0055 53.5652V53.4792L19.3415 52.9972H19.4795V53.4662H19.5725V53.5652H19.4795V53.7172H19.3675V53.5652H19.0055ZM19.3725 53.1132L19.1365 53.4662H19.3725V53.1132Z" fill="#373737"/>
<path d="M22.5404 52.8682C22.533 52.8375 22.5197 52.8145 22.5004 52.7992C22.481 52.7838 22.454 52.7762 22.4194 52.7762C22.3667 52.7762 22.3274 52.7965 22.3014 52.8372C22.2754 52.8772 22.2617 52.9438 22.2604 53.0372C22.2777 53.0078 22.303 52.9852 22.3364 52.9692C22.3697 52.9532 22.4057 52.9452 22.4444 52.9452C22.4884 52.9452 22.527 52.9548 22.5604 52.9742C22.5944 52.9928 22.6207 53.0202 22.6394 53.0562C22.6587 53.0922 22.6684 53.1352 22.6684 53.1852C22.6684 53.2318 22.659 53.2735 22.6404 53.3102C22.6224 53.3468 22.5954 53.3758 22.5594 53.3972C22.5234 53.4178 22.48 53.4282 22.4294 53.4282C22.3607 53.4282 22.3067 53.4132 22.2674 53.3832C22.2287 53.3525 22.2014 53.3095 22.1854 53.2542C22.17 53.1988 22.1624 53.1298 22.1624 53.0472C22.1624 52.8032 22.2484 52.6812 22.4204 52.6812C22.487 52.6812 22.5394 52.6992 22.5774 52.7352C22.616 52.7712 22.6387 52.8155 22.6454 52.8682H22.5404ZM22.4194 53.0412C22.3787 53.0412 22.344 53.0535 22.3154 53.0782C22.2874 53.1022 22.2734 53.1372 22.2734 53.1832C22.2734 53.2292 22.2864 53.2658 22.3124 53.2932C22.339 53.3198 22.376 53.3332 22.4234 53.3332C22.4654 53.3332 22.4984 53.3202 22.5224 53.2942C22.547 53.2682 22.5594 53.2335 22.5594 53.1902C22.5594 53.1448 22.5474 53.1088 22.5234 53.0822C22.5 53.0548 22.4654 53.0412 22.4194 53.0412Z" fill="#373737"/>
<path d="M24.8368 55.3362C24.7675 55.3016 24.7328 55.2469 24.7328 55.1722C24.7328 55.1362 24.7418 55.1032 24.7598 55.0732C24.7778 55.0432 24.8048 55.0196 24.8408 55.0022C24.8768 54.9842 24.9208 54.9752 24.9728 54.9752C25.0241 54.9752 25.0678 54.9842 25.1038 55.0022C25.1405 55.0196 25.1678 55.0432 25.1858 55.0732C25.2038 55.1032 25.2128 55.1362 25.2128 55.1722C25.2128 55.2096 25.2031 55.2426 25.1838 55.2712C25.1651 55.2992 25.1401 55.3209 25.1088 55.3362C25.1468 55.3502 25.1768 55.3732 25.1988 55.4052C25.2208 55.4366 25.2318 55.4736 25.2318 55.5162C25.2318 55.5596 25.2208 55.5979 25.1988 55.6312C25.1768 55.6646 25.1461 55.6902 25.1068 55.7082C25.0675 55.7262 25.0228 55.7352 24.9728 55.7352C24.9228 55.7352 24.8781 55.7262 24.8388 55.7082C24.8001 55.6902 24.7698 55.6646 24.7478 55.6312C24.7258 55.5979 24.7148 55.5596 24.7148 55.5162C24.7148 55.4729 24.7258 55.4356 24.7478 55.4042C24.7698 55.3729 24.7995 55.3502 24.8368 55.3362ZM25.1038 55.1862C25.1038 55.1489 25.0921 55.1202 25.0688 55.1002C25.0455 55.0802 25.0135 55.0702 24.9728 55.0702C24.9328 55.0702 24.9011 55.0802 24.8778 55.1002C24.8545 55.1202 24.8428 55.1492 24.8428 55.1872C24.8428 55.2206 24.8548 55.2479 24.8788 55.2692C24.9035 55.2899 24.9348 55.3002 24.9728 55.3002C25.0108 55.3002 25.0421 55.2896 25.0668 55.2682C25.0915 55.2469 25.1038 55.2196 25.1038 55.1862ZM24.9728 55.3862C24.9288 55.3862 24.8928 55.3972 24.8648 55.4192C24.8375 55.4406 24.8238 55.4716 24.8238 55.5122C24.8238 55.5502 24.8371 55.5812 24.8638 55.6052C24.8905 55.6286 24.9268 55.6402 24.9728 55.6402C25.0181 55.6402 25.0538 55.6282 25.0798 55.6042C25.1065 55.5802 25.1198 55.5496 25.1198 55.5122C25.1198 55.4722 25.1061 55.4412 25.0788 55.4192C25.0521 55.3972 25.0168 55.3862 24.9728 55.3862Z" fill="#373737"/>
<path d="M24.8272 58.1791V58.0751H25.0352V58.8041H24.9202V58.1791H24.8272ZM25.1918 58.4301C25.1918 58.3147 25.2112 58.2247 25.2498 58.1601C25.2892 58.0947 25.3565 58.0621 25.4518 58.0621C25.5472 58.0621 25.6142 58.0947 25.6528 58.1601C25.6922 58.2247 25.7118 58.3147 25.7118 58.4301C25.7118 58.5467 25.6922 58.6381 25.6528 58.7041C25.6142 58.7694 25.5472 58.8021 25.4518 58.8021C25.3565 58.8021 25.2892 58.7694 25.2498 58.7041C25.2112 58.6381 25.1918 58.5467 25.1918 58.4301ZM25.5998 58.4301C25.5998 58.3761 25.5962 58.3304 25.5888 58.2931C25.5822 58.2557 25.5682 58.2254 25.5468 58.2021C25.5255 58.1781 25.4938 58.1661 25.4518 58.1661C25.4098 58.1661 25.3782 58.1781 25.3568 58.2021C25.3355 58.2254 25.3212 58.2557 25.3138 58.2931C25.3072 58.3304 25.3038 58.3761 25.3038 58.4301C25.3038 58.4861 25.3072 58.5331 25.3138 58.5711C25.3205 58.6091 25.3345 58.6397 25.3558 58.6631C25.3778 58.6864 25.4098 58.6981 25.4518 58.6981C25.4938 58.6981 25.5255 58.6864 25.5468 58.6631C25.5688 58.6397 25.5832 58.6091 25.5898 58.5711C25.5965 58.5331 25.5998 58.4861 25.5998 58.4301Z" fill="#373737"/>
<rect x="30.623" y="34.3882" width="15.0186" height="2.18844" fill="#383838"/>
<rect x="30.623" y="37.2204" width="15.0186" height="2.18844" fill="#383838"/>
<rect x="30.623" y="40.0525" width="15.0186" height="2.18844" fill="#383838"/>
<rect x="30.623" y="42.8845" width="15.0186" height="3.94772" fill="#383838"/>
<circle cx="44.1614" cy="31.7372" r="1.4807" fill="#FF0000"/>
<circle cx="44.1614" cy="61.4209" r="1.4807" fill="#0B8E00"/>
<circle cx="20.1167" cy="35.2154" r="2.83941" fill="#383838"/>
<path fill-rule="evenodd" clip-rule="evenodd" d="M23.6436 36.5314L22.7065 36.1823C22.7145 36.161 22.7222 36.1395 22.7297 36.1178C22.7372 36.0961 22.7444 36.0745 22.7513 36.0528L23.7041 36.3562C23.6948 36.3856 23.685 36.4149 23.6749 36.4442C23.6648 36.4735 23.6544 36.5025 23.6436 36.5314ZM23.5408 33.6515L22.6312 34.0671C22.6124 34.0258 22.5926 33.985 22.5717 33.9448L23.4599 33.4853C23.4882 33.54 23.5152 33.5954 23.5408 33.6515ZM21.4321 31.6881L21.083 32.6252C21.0617 32.6173 21.0402 32.6095 21.0185 32.6021C20.9968 32.5946 20.9751 32.5874 20.9535 32.5805L21.2569 31.6276C21.2862 31.637 21.3156 31.6467 21.3449 31.6568C21.3741 31.6669 21.4032 31.6774 21.4321 31.6881ZM18.5522 31.7909L18.9677 32.7005C18.9265 32.7193 18.8857 32.7392 18.8454 32.76L18.386 31.8718C18.4407 31.8435 18.4961 31.8165 18.5522 31.7909ZM16.5888 33.8996C16.578 33.9285 16.5676 33.9576 16.5575 33.9869C16.5474 34.0162 16.5377 34.0455 16.5283 34.0749L17.4812 34.3783C17.4881 34.3566 17.4953 34.3349 17.5027 34.3132C17.5102 34.2916 17.5179 34.2701 17.5259 34.2487L16.5888 33.8996ZM16.6916 36.7796L17.6012 36.364C17.62 36.4052 17.6399 36.446 17.6607 36.4863L16.7725 36.9457C16.7442 36.891 16.7172 36.8356 16.6916 36.7796Z" fill="#373737"/>
<path d="M18.9141 32.66L22.4497 36.9034L20.1879 38.0344L18.9141 32.66Z" fill="#D9D9D9"/>
<path d="M15.5225 36.7869V36.6829H15.7305V37.4119H15.6155V36.7869H15.5225ZM15.8871 37.0379C15.8871 36.9226 15.9065 36.8326 15.9451 36.7679C15.9845 36.7026 16.0518 36.6699 16.1471 36.6699C16.2425 36.6699 16.3095 36.7026 16.3481 36.7679C16.3875 36.8326 16.4071 36.9226 16.4071 37.0379C16.4071 37.1546 16.3875 37.2459 16.3481 37.3119C16.3095 37.3773 16.2425 37.4099 16.1471 37.4099C16.0518 37.4099 15.9845 37.3773 15.9451 37.3119C15.9065 37.2459 15.8871 37.1546 15.8871 37.0379ZM16.2951 37.0379C16.2951 36.9839 16.2915 36.9383 16.2841 36.9009C16.2775 36.8636 16.2635 36.8333 16.2421 36.8099C16.2208 36.7859 16.1891 36.7739 16.1471 36.7739C16.1051 36.7739 16.0735 36.7859 16.0521 36.8099C16.0308 36.8333 16.0165 36.8636 16.0091 36.9009C16.0025 36.9383 15.9991 36.9839 15.9991 37.0379C15.9991 37.0939 16.0025 37.1409 16.0091 37.1789C16.0158 37.2169 16.0298 37.2476 16.0511 37.2709C16.0731 37.2943 16.1051 37.3059 16.1471 37.3059C16.1891 37.3059 16.2208 37.2943 16.2421 37.2709C16.2641 37.2476 16.2785 37.2169 16.2851 37.1789C16.2918 37.1409 16.2951 37.0939 16.2951 37.0379Z" fill="#373737"/>
<path d="M17.4888 38.3599V38.4529H17.3038V39.0549H17.1898V38.4529H17.0038V38.3599H17.4888ZM17.8893 38.4949C17.9313 38.4949 17.9686 38.5039 18.0013 38.5219C18.0346 38.5399 18.0606 38.5665 18.0793 38.6019C18.0986 38.6372 18.1083 38.6799 18.1083 38.7299V39.0549H17.9953V38.7469C17.9953 38.6975 17.983 38.6599 17.9583 38.6339C17.9336 38.6072 17.9 38.5939 17.8573 38.5939C17.8146 38.5939 17.7806 38.6072 17.7553 38.6339C17.7306 38.6599 17.7183 38.6975 17.7183 38.7469V39.0549H17.6043V38.3149H17.7183V38.5679C17.7376 38.5445 17.762 38.5265 17.7913 38.5139C17.8213 38.5012 17.854 38.4949 17.8893 38.4949ZM18.3677 38.5839C18.3844 38.5559 18.4064 38.5342 18.4337 38.5189C18.4617 38.5029 18.4947 38.4949 18.5327 38.4949V38.6129H18.5037C18.459 38.6129 18.425 38.6242 18.4017 38.6469C18.379 38.6695 18.3677 38.7089 18.3677 38.7649V39.0549H18.2537V38.5039H18.3677V38.5839ZM19.1425 38.7659C19.1425 38.7865 19.1412 38.8052 19.1385 38.8219H18.7175C18.7208 38.8659 18.7372 38.9012 18.7665 38.9279C18.7958 38.9545 18.8318 38.9679 18.8745 38.9679C18.9358 38.9679 18.9792 38.9422 19.0045 38.8909H19.1275C19.1108 38.9415 19.0805 38.9832 19.0365 39.0159C18.9932 39.0479 18.9392 39.0639 18.8745 39.0639C18.8218 39.0639 18.7745 39.0522 18.7325 39.0289C18.6912 39.0049 18.6585 38.9715 18.6345 38.9289C18.6112 38.8855 18.5995 38.8355 18.5995 38.7789C18.5995 38.7222 18.6108 38.6725 18.6335 38.6299C18.6568 38.5865 18.6892 38.5532 18.7305 38.5299C18.7725 38.5065 18.8205 38.4949 18.8745 38.4949C18.9265 38.4949 18.9728 38.5062 19.0135 38.5289C19.0542 38.5515 19.0858 38.5835 19.1085 38.6249C19.1312 38.6655 19.1425 38.7125 19.1425 38.7659ZM19.0235 38.7299C19.0228 38.6879 19.0078 38.6542 18.9785 38.6289C18.9492 38.6035 18.9128 38.5909 18.8695 38.5909C18.8302 38.5909 18.7965 38.6035 18.7685 38.6289C18.7405 38.6535 18.7238 38.6872 18.7185 38.7299H19.0235ZM19.4547 39.0639C19.4114 39.0639 19.3724 39.0562 19.3377 39.0409C19.3037 39.0249 19.2767 39.0035 19.2567 38.9769C19.2367 38.9495 19.226 38.9192 19.2247 38.8859H19.3427C19.3447 38.9092 19.3557 38.9289 19.3757 38.9449C19.3964 38.9602 19.422 38.9679 19.4527 38.9679C19.4847 38.9679 19.5094 38.9619 19.5267 38.9499C19.5447 38.9372 19.5537 38.9212 19.5537 38.9019C19.5537 38.8812 19.5437 38.8659 19.5237 38.8559C19.5044 38.8459 19.4734 38.8349 19.4307 38.8229C19.3894 38.8115 19.3557 38.8005 19.3297 38.7899C19.3037 38.7792 19.281 38.7629 19.2617 38.7409C19.243 38.7189 19.2337 38.6899 19.2337 38.6539C19.2337 38.6245 19.2424 38.5979 19.2597 38.5739C19.277 38.5492 19.3017 38.5299 19.3337 38.5159C19.3664 38.5019 19.4037 38.4949 19.4457 38.4949C19.5084 38.4949 19.5587 38.5109 19.5967 38.5429C19.6354 38.5742 19.656 38.6172 19.6587 38.6719H19.5447C19.5427 38.6472 19.5327 38.6275 19.5147 38.6129C19.4967 38.5982 19.4724 38.5909 19.4417 38.5909C19.4117 38.5909 19.3887 38.5965 19.3727 38.6079C19.3567 38.6192 19.3487 38.6342 19.3487 38.6529C19.3487 38.6675 19.354 38.6799 19.3647 38.6899C19.3754 38.6999 19.3884 38.7079 19.4037 38.7139C19.419 38.7192 19.4417 38.7262 19.4717 38.7349C19.5117 38.7455 19.5444 38.7565 19.5697 38.7679C19.5957 38.7785 19.618 38.7945 19.6367 38.8159C19.6554 38.8372 19.665 38.8655 19.6657 38.9009C19.6657 38.9322 19.657 38.9602 19.6397 38.9849C19.6224 39.0095 19.5977 39.0289 19.5657 39.0429C19.5344 39.0569 19.4974 39.0639 19.4547 39.0639ZM20.0739 38.4949C20.1159 38.4949 20.1532 38.5039 20.1859 38.5219C20.2192 38.5399 20.2452 38.5665 20.2639 38.6019C20.2832 38.6372 20.2929 38.6799 20.2929 38.7299V39.0549H20.1799V38.7469C20.1799 38.6975 20.1675 38.6599 20.1429 38.6339C20.1182 38.6072 20.0845 38.5939 20.0419 38.5939C19.9992 38.5939 19.9652 38.6072 19.9399 38.6339C19.9152 38.6599 19.9029 38.6975 19.9029 38.7469V39.0549H19.7889V38.3149H19.9029V38.5679C19.9222 38.5445 19.9465 38.5265 19.9759 38.5139C20.0059 38.5012 20.0385 38.4949 20.0739 38.4949ZM20.6773 39.0639C20.6253 39.0639 20.5783 39.0522 20.5363 39.0289C20.4943 39.0049 20.4613 38.9715 20.4373 38.9289C20.4133 38.8855 20.4013 38.8355 20.4013 38.7789C20.4013 38.7229 20.4136 38.6732 20.4383 38.6299C20.4629 38.5865 20.4966 38.5532 20.5393 38.5299C20.5819 38.5065 20.6296 38.4949 20.6823 38.4949C20.7349 38.4949 20.7826 38.5065 20.8253 38.5299C20.8679 38.5532 20.9016 38.5865 20.9263 38.6299C20.9509 38.6732 20.9633 38.7229 20.9633 38.7789C20.9633 38.8349 20.9506 38.8845 20.9253 38.9279C20.8999 38.9712 20.8653 39.0049 20.8213 39.0289C20.7779 39.0522 20.7299 39.0639 20.6773 39.0639ZM20.6773 38.9649C20.7066 38.9649 20.7339 38.9579 20.7593 38.9439C20.7853 38.9299 20.8063 38.9089 20.8223 38.8809C20.8383 38.8529 20.8463 38.8189 20.8463 38.7789C20.8463 38.7389 20.8386 38.7052 20.8233 38.6779C20.8079 38.6499 20.7876 38.6289 20.7623 38.6149C20.7369 38.6009 20.7096 38.5939 20.6803 38.5939C20.6509 38.5939 20.6236 38.6009 20.5983 38.6149C20.5736 38.6289 20.5539 38.6499 20.5393 38.6779C20.5246 38.7052 20.5173 38.7389 20.5173 38.7789C20.5173 38.8382 20.5323 38.8842 20.5623 38.9169C20.5929 38.9489 20.6313 38.9649 20.6773 38.9649ZM21.19 38.3149V39.0549H21.076V38.3149H21.19ZM21.3016 38.7769C21.3016 38.7215 21.313 38.6725 21.3356 38.6299C21.359 38.5872 21.3903 38.5542 21.4296 38.5309C21.4696 38.5069 21.514 38.4949 21.5626 38.4949C21.5986 38.4949 21.634 38.5029 21.6686 38.5189C21.704 38.5342 21.732 38.5549 21.7526 38.5809V38.3149H21.8676V39.0549H21.7526V38.9719C21.734 38.9985 21.708 39.0205 21.6746 39.0379C21.642 39.0552 21.6043 39.0639 21.5616 39.0639C21.5136 39.0639 21.4696 39.0519 21.4296 39.0279C21.3903 39.0032 21.359 38.9692 21.3356 38.9259C21.313 38.8819 21.3016 38.8322 21.3016 38.7769ZM21.7526 38.7789C21.7526 38.7409 21.7446 38.7079 21.7286 38.6799C21.7133 38.6519 21.693 38.6305 21.6676 38.6159C21.6423 38.6012 21.615 38.5939 21.5856 38.5939C21.5563 38.5939 21.529 38.6012 21.5036 38.6159C21.4783 38.6299 21.4576 38.6509 21.4416 38.6789C21.4263 38.7062 21.4186 38.7389 21.4186 38.7769C21.4186 38.8149 21.4263 38.8482 21.4416 38.8769C21.4576 38.9055 21.4783 38.9275 21.5036 38.9429C21.5296 38.9575 21.557 38.9649 21.5856 38.9649C21.615 38.9649 21.6423 38.9575 21.6676 38.9429C21.693 38.9282 21.7133 38.9069 21.7286 38.8789C21.7446 38.8502 21.7526 38.8169 21.7526 38.7789ZM22.5291 39.2409C22.4638 39.1782 22.4135 39.0985 22.3781 39.0019C22.3435 38.9052 22.3261 38.8015 22.3261 38.6909C22.3261 38.5775 22.3448 38.4705 22.3821 38.3699C22.4201 38.2692 22.4758 38.1862 22.5491 38.1209H22.6671V38.1319C22.5905 38.2025 22.5328 38.2872 22.4941 38.3859C22.4555 38.4845 22.4361 38.5862 22.4361 38.6909C22.4361 38.7915 22.4541 38.8889 22.4901 38.9829C22.5261 39.0769 22.5785 39.1592 22.6471 39.2299V39.2409H22.5291ZM22.7363 38.5019C22.7363 38.4532 22.7503 38.4152 22.7783 38.3879C22.807 38.3599 22.8437 38.3459 22.8883 38.3459C22.933 38.3459 22.9693 38.3599 22.9973 38.3879C23.026 38.4152 23.0403 38.4532 23.0403 38.5019C23.0403 38.5505 23.026 38.5889 22.9973 38.6169C22.9693 38.6449 22.933 38.6589 22.8883 38.6589C22.8437 38.6589 22.807 38.6449 22.7783 38.6169C22.7503 38.5889 22.7363 38.5505 22.7363 38.5019ZM23.3463 38.3589L22.9473 39.0549H22.8353L23.2343 38.3589H23.3463ZM22.8883 38.4149C22.8463 38.4149 22.8253 38.4439 22.8253 38.5019C22.8253 38.5605 22.8463 38.5899 22.8883 38.5899C22.9083 38.5899 22.9237 38.5829 22.9343 38.5689C22.9457 38.5542 22.9513 38.5319 22.9513 38.5019C22.9513 38.4439 22.9303 38.4149 22.8883 38.4149ZM23.1433 38.9109C23.1433 38.8622 23.1573 38.8242 23.1853 38.7969C23.214 38.7689 23.2507 38.7549 23.2953 38.7549C23.3393 38.7549 23.3753 38.7689 23.4033 38.7969C23.432 38.8242 23.4463 38.8622 23.4463 38.9109C23.4463 38.9595 23.432 38.9979 23.4033 39.0259C23.3753 39.0539 23.3393 39.0679 23.2953 39.0679C23.2507 39.0679 23.214 39.0539 23.1853 39.0259C23.1573 38.9979 23.1433 38.9595 23.1433 38.9109ZM23.2943 38.8239C23.2523 38.8239 23.2313 38.8529 23.2313 38.9109C23.2313 38.9689 23.2523 38.9979 23.2943 38.9979C23.3363 38.9979 23.3573 38.9689 23.3573 38.9109C23.3573 38.8529 23.3363 38.8239 23.2943 38.8239ZM23.5353 39.2409V39.2299C23.6039 39.1592 23.6563 39.0769 23.6923 38.9829C23.7283 38.8889 23.7463 38.7915 23.7463 38.6909C23.7463 38.5862 23.7269 38.4845 23.6883 38.3859C23.6496 38.2872 23.5919 38.2025 23.5153 38.1319V38.1209H23.6333C23.7066 38.1862 23.7619 38.2692 23.7993 38.3699C23.8373 38.4705 23.8563 38.5775 23.8563 38.6909C23.8563 38.8015 23.8386 38.9052 23.8033 39.0019C23.7686 39.0985 23.7186 39.1782 23.6533 39.2409H23.5353Z" fill="#373737"/>
<path d="M15.0182 34.122V34.036L15.3542 33.554H15.4922V34.023H15.5852V34.122H15.4922V34.274H15.3802V34.122H15.0182ZM15.3852 33.67L15.1492 34.023H15.3852V33.67ZM15.6796 33.9C15.6796 33.7847 15.699 33.6947 15.7376 33.63C15.777 33.5647 15.8443 33.532 15.9396 33.532C16.035 33.532 16.102 33.5647 16.1406 33.63C16.18 33.6947 16.1996 33.7847 16.1996 33.9C16.1996 34.0167 16.18 34.108 16.1406 34.174C16.102 34.2393 16.035 34.272 15.9396 34.272C15.8443 34.272 15.777 34.2393 15.7376 34.174C15.699 34.108 15.6796 34.0167 15.6796 33.9ZM16.0876 33.9C16.0876 33.846 16.084 33.8003 16.0766 33.763C16.07 33.7257 16.056 33.6953 16.0346 33.672C16.0133 33.648 15.9816 33.636 15.9396 33.636C15.8976 33.636 15.866 33.648 15.8446 33.672C15.8233 33.6953 15.809 33.7257 15.8016 33.763C15.795 33.8003 15.7916 33.846 15.7916 33.9C15.7916 33.956 15.795 34.003 15.8016 34.041C15.8083 34.079 15.8223 34.1097 15.8436 34.133C15.8656 34.1563 15.8976 34.168 15.9396 34.168C15.9816 34.168 16.0133 34.1563 16.0346 34.133C16.0566 34.1097 16.071 34.079 16.0776 34.041C16.0843 34.003 16.0876 33.956 16.0876 33.9Z" fill="#373737"/>
<path d="M18.0218 31.0406C18.0145 31.01 18.0012 30.987 17.9818 30.9716C17.9625 30.9563 17.9355 30.9486 17.9008 30.9486C17.8482 30.9486 17.8088 30.969 17.7828 31.0096C17.7568 31.0496 17.7432 31.1163 17.7418 31.2096C17.7592 31.1803 17.7845 31.1576 17.8178 31.1416C17.8512 31.1256 17.8872 31.1176 17.9258 31.1176C17.9698 31.1176 18.0085 31.1273 18.0418 31.1466C18.0758 31.1653 18.1022 31.1926 18.1208 31.2286C18.1402 31.2646 18.1498 31.3076 18.1498 31.3576C18.1498 31.4043 18.1405 31.446 18.1218 31.4826C18.1038 31.5193 18.0768 31.5483 18.0408 31.5696C18.0048 31.5903 17.9615 31.6006 17.9108 31.6006C17.8422 31.6006 17.7882 31.5856 17.7488 31.5556C17.7102 31.525 17.6828 31.482 17.6668 31.4266C17.6515 31.3713 17.6438 31.3023 17.6438 31.2196C17.6438 30.9756 17.7298 30.8536 17.9018 30.8536C17.9685 30.8536 18.0208 30.8716 18.0588 30.9076C18.0975 30.9436 18.1202 30.988 18.1268 31.0406H18.0218ZM17.9008 31.2136C17.8602 31.2136 17.8255 31.226 17.7968 31.2506C17.7688 31.2746 17.7548 31.3096 17.7548 31.3556C17.7548 31.4016 17.7678 31.4383 17.7938 31.4656C17.8205 31.4923 17.8575 31.5056 17.9048 31.5056C17.9468 31.5056 17.9798 31.4926 18.0038 31.4666C18.0285 31.4406 18.0408 31.406 18.0408 31.3626C18.0408 31.3173 18.0288 31.2813 18.0048 31.2546C17.9815 31.2273 17.9468 31.2136 17.9008 31.2136ZM18.2714 31.2266C18.2714 31.1113 18.2908 31.0213 18.3294 30.9566C18.3688 30.8913 18.4361 30.8586 18.5314 30.8586C18.6268 30.8586 18.6938 30.8913 18.7324 30.9566C18.7718 31.0213 18.7914 31.1113 18.7914 31.2266C18.7914 31.3433 18.7718 31.4346 18.7324 31.5006C18.6938 31.566 18.6268 31.5986 18.5314 31.5986C18.4361 31.5986 18.3688 31.566 18.3294 31.5006C18.2908 31.4346 18.2714 31.3433 18.2714 31.2266ZM18.6794 31.2266C18.6794 31.1726 18.6758 31.127 18.6684 31.0896C18.6618 31.0523 18.6478 31.022 18.6264 30.9986C18.6051 30.9746 18.5734 30.9626 18.5314 30.9626C18.4894 30.9626 18.4578 30.9746 18.4364 30.9986C18.4151 31.022 18.4008 31.0523 18.3934 31.0896C18.3868 31.127 18.3834 31.1726 18.3834 31.2266C18.3834 31.2826 18.3868 31.3296 18.3934 31.3676C18.4001 31.4056 18.4141 31.4363 18.4354 31.4596C18.4574 31.483 18.4894 31.4946 18.5314 31.4946C18.5734 31.4946 18.6051 31.483 18.6264 31.4596C18.6484 31.4363 18.6628 31.4056 18.6694 31.3676C18.6761 31.3296 18.6794 31.2826 18.6794 31.2266Z" fill="#373737"/>
<path d="M20.829 30.9952C20.7597 30.9605 20.725 30.9058 20.725 30.8312C20.725 30.7952 20.734 30.7622 20.752 30.7322C20.77 30.7022 20.797 30.6785 20.833 30.6612C20.869 30.6432 20.913 30.6342 20.965 30.6342C21.0163 30.6342 21.06 30.6432 21.096 30.6612C21.1327 30.6785 21.16 30.7022 21.178 30.7322C21.196 30.7622 21.205 30.7952 21.205 30.8312C21.205 30.8685 21.1953 30.9015 21.176 30.9302C21.1573 30.9582 21.1323 30.9798 21.101 30.9952C21.139 31.0092 21.169 31.0322 21.191 31.0642C21.213 31.0955 21.224 31.1325 21.224 31.1752C21.224 31.2185 21.213 31.2568 21.191 31.2902C21.169 31.3235 21.1383 31.3492 21.099 31.3672C21.0597 31.3852 21.015 31.3942 20.965 31.3942C20.915 31.3942 20.8703 31.3852 20.831 31.3672C20.7923 31.3492 20.762 31.3235 20.74 31.2902C20.718 31.2568 20.707 31.2185 20.707 31.1752C20.707 31.1318 20.718 31.0945 20.74 31.0632C20.762 31.0318 20.7917 31.0092 20.829 30.9952ZM21.096 30.8452C21.096 30.8078 21.0843 30.7792 21.061 30.7592C21.0377 30.7392 21.0057 30.7292 20.965 30.7292C20.925 30.7292 20.8933 30.7392 20.87 30.7592C20.8467 30.7792 20.835 30.8082 20.835 30.8462C20.835 30.8795 20.847 30.9068 20.871 30.9282C20.8957 30.9488 20.927 30.9592 20.965 30.9592C21.003 30.9592 21.0343 30.9485 21.059 30.9272C21.0837 30.9058 21.096 30.8785 21.096 30.8452ZM20.965 31.0452C20.921 31.0452 20.885 31.0562 20.857 31.0782C20.8297 31.0995 20.816 31.1305 20.816 31.1712C20.816 31.2092 20.8293 31.2402 20.856 31.2642C20.8827 31.2875 20.919 31.2992 20.965 31.2992C21.0103 31.2992 21.046 31.2872 21.072 31.2632C21.0987 31.2392 21.112 31.2085 21.112 31.1712C21.112 31.1312 21.0983 31.1002 21.071 31.0782C21.0443 31.0562 21.009 31.0452 20.965 31.0452ZM21.3437 31.0022C21.3437 30.8868 21.363 30.7968 21.4017 30.7322C21.441 30.6668 21.5084 30.6342 21.6037 30.6342C21.699 30.6342 21.766 30.6668 21.8047 30.7322C21.844 30.7968 21.8637 30.8868 21.8637 31.0022C21.8637 31.1188 21.844 31.2102 21.8047 31.2762C21.766 31.3415 21.699 31.3742 21.6037 31.3742C21.5084 31.3742 21.441 31.3415 21.4017 31.2762C21.363 31.2102 21.3437 31.1188 21.3437 31.0022ZM21.7517 31.0022C21.7517 30.9482 21.748 30.9025 21.7407 30.8652C21.734 30.8278 21.72 30.7975 21.6987 30.7742C21.6774 30.7502 21.6457 30.7382 21.6037 30.7382C21.5617 30.7382 21.53 30.7502 21.5087 30.7742C21.4874 30.7975 21.473 30.8278 21.4657 30.8652C21.459 30.9025 21.4557 30.9482 21.4557 31.0022C21.4557 31.0582 21.459 31.1052 21.4657 31.1432C21.4724 31.1812 21.4864 31.2118 21.5077 31.2352C21.5297 31.2585 21.5617 31.2702 21.6037 31.2702C21.6457 31.2702 21.6774 31.2585 21.6987 31.2352C21.7207 31.2118 21.735 31.1812 21.7417 31.1432C21.7484 31.1052 21.7517 31.0582 21.7517 31.0022Z" fill="#373737"/>
<path d="M23.669 33.0495V32.9455H23.877V33.6745H23.762V33.0495H23.669ZM24.0336 33.3005C24.0336 33.1852 24.053 33.0952 24.0916 33.0305C24.131 32.9652 24.1983 32.9325 24.2936 32.9325C24.389 32.9325 24.456 32.9652 24.4946 33.0305C24.534 33.0952 24.5536 33.1852 24.5536 33.3005C24.5536 33.4172 24.534 33.5085 24.4946 33.5745C24.456 33.6398 24.389 33.6725 24.2936 33.6725C24.1983 33.6725 24.131 33.6398 24.0916 33.5745C24.053 33.5085 24.0336 33.4172 24.0336 33.3005ZM24.4416 33.3005C24.4416 33.2465 24.438 33.2008 24.4306 33.1635C24.424 33.1262 24.41 33.0958 24.3886 33.0725C24.3673 33.0485 24.3356 33.0365 24.2936 33.0365C24.2516 33.0365 24.22 33.0485 24.1986 33.0725C24.1773 33.0958 24.163 33.1262 24.1556 33.1635C24.149 33.2008 24.1456 33.2465 24.1456 33.3005C24.1456 33.3565 24.149 33.4035 24.1556 33.4415C24.1623 33.4795 24.1763 33.5102 24.1976 33.5335C24.2196 33.5568 24.2516 33.5685 24.2936 33.5685C24.3356 33.5685 24.3673 33.5568 24.3886 33.5335C24.4106 33.5102 24.425 33.4795 24.4316 33.4415C24.4383 33.4035 24.4416 33.3565 24.4416 33.3005ZM24.6743 33.3005C24.6743 33.1852 24.6936 33.0952 24.7323 33.0305C24.7716 32.9652 24.8389 32.9325 24.9343 32.9325C25.0296 32.9325 25.0966 32.9652 25.1353 33.0305C25.1746 33.0952 25.1943 33.1852 25.1943 33.3005C25.1943 33.4172 25.1746 33.5085 25.1353 33.5745C25.0966 33.6398 25.0296 33.6725 24.9343 33.6725C24.8389 33.6725 24.7716 33.6398 24.7323 33.5745C24.6936 33.5085 24.6743 33.4172 24.6743 33.3005ZM25.0823 33.3005C25.0823 33.2465 25.0786 33.2008 25.0713 33.1635C25.0646 33.1262 25.0506 33.0958 25.0293 33.0725C25.0079 33.0485 24.9763 33.0365 24.9343 33.0365C24.8923 33.0365 24.8606 33.0485 24.8393 33.0725C24.8179 33.0958 24.8036 33.1262 24.7963 33.1635C24.7896 33.2008 24.7863 33.2465 24.7863 33.3005C24.7863 33.3565 24.7896 33.4035 24.7963 33.4415C24.8029 33.4795 24.8169 33.5102 24.8383 33.5335C24.8603 33.5568 24.8923 33.5685 24.9343 33.5685C24.9763 33.5685 25.0079 33.5568 25.0293 33.5335C25.0513 33.5102 25.0656 33.4795 25.0723 33.4415C25.0789 33.4035 25.0823 33.3565 25.0823 33.3005Z" fill="#373737"/>
<path d="M23.856 36.1277V36.0237H24.064V36.7527H23.949V36.1277H23.856ZM24.2836 36.5977C24.3476 36.5424 24.398 36.4971 24.4346 36.4617C24.472 36.4257 24.503 36.3884 24.5276 36.3497C24.5523 36.3111 24.5646 36.2724 24.5646 36.2337C24.5646 36.1937 24.555 36.1624 24.5356 36.1397C24.517 36.1171 24.4873 36.1057 24.4466 36.1057C24.4073 36.1057 24.3766 36.1184 24.3546 36.1437C24.3333 36.1684 24.322 36.2017 24.3206 36.2437H24.2106C24.2126 36.1677 24.2353 36.1097 24.2786 36.0697C24.3226 36.0291 24.3783 36.0087 24.4456 36.0087C24.5183 36.0087 24.575 36.0287 24.6156 36.0687C24.657 36.1087 24.6776 36.1621 24.6776 36.2287C24.6776 36.2767 24.6653 36.3231 24.6406 36.3677C24.6166 36.4117 24.5876 36.4514 24.5536 36.4867C24.5203 36.5214 24.4776 36.5617 24.4256 36.6077L24.3806 36.6477H24.6976V36.7427H24.2116V36.6597L24.2836 36.5977ZM24.7978 36.3787C24.7978 36.2634 24.8171 36.1734 24.8558 36.1087C24.8951 36.0434 24.9625 36.0107 25.0578 36.0107C25.1531 36.0107 25.2201 36.0434 25.2588 36.1087C25.2981 36.1734 25.3178 36.2634 25.3178 36.3787C25.3178 36.4954 25.2981 36.5867 25.2588 36.6527C25.2201 36.7181 25.1531 36.7507 25.0578 36.7507C24.9625 36.7507 24.8951 36.7181 24.8558 36.6527C24.8171 36.5867 24.7978 36.4954 24.7978 36.3787ZM25.2058 36.3787C25.2058 36.3247 25.2021 36.2791 25.1948 36.2417C25.1881 36.2044 25.1741 36.1741 25.1528 36.1507C25.1315 36.1267 25.0998 36.1147 25.0578 36.1147C25.0158 36.1147 24.9841 36.1267 24.9628 36.1507C24.9415 36.1741 24.9271 36.2044 24.9198 36.2417C24.9131 36.2791 24.9098 36.3247 24.9098 36.3787C24.9098 36.4347 24.9131 36.4817 24.9198 36.5197C24.9265 36.5577 24.9405 36.5884 24.9618 36.6117C24.9838 36.6351 25.0158 36.6467 25.0578 36.6467C25.0998 36.6467 25.1315 36.6351 25.1528 36.6117C25.1748 36.5884 25.1891 36.5577 25.1958 36.5197C25.2025 36.4817 25.2058 36.4347 25.2058 36.3787Z" fill="#373737"/>
<path fill-rule="evenodd" clip-rule="evenodd" d="M23.8801 45.4805L22.8804 45.4564C22.8809 45.4336 22.8812 45.4108 22.8812 45.3878C22.8812 45.3649 22.8809 45.3421 22.8804 45.3193L23.8801 45.2951C23.8808 45.326 23.8812 45.3568 23.8812 45.3878C23.8812 45.4188 23.8808 45.4497 23.8801 45.4805ZM22.843 42.7918L22.1189 43.4815C22.0876 43.4486 22.0555 43.4166 22.0227 43.3853L22.7123 42.6611C22.757 42.7036 22.8005 42.7472 22.843 42.7918ZM20.209 41.6241L20.1849 42.6238C20.1621 42.6233 20.1393 42.623 20.1163 42.623C20.0934 42.623 20.0706 42.6233 20.0478 42.6238L20.0237 41.6241C20.0545 41.6234 20.0854 41.623 20.1163 41.623C20.1473 41.623 20.1782 41.6234 20.209 41.6241ZM17.5203 42.6611L18.21 43.3853C18.1771 43.4166 18.1451 43.4486 18.1138 43.4815L17.3896 42.7918C17.4321 42.7472 17.4757 42.7036 17.5203 42.6611ZM17.3896 47.9838L18.1138 47.2942C18.1451 47.327 18.1771 47.3591 18.21 47.3904L17.5203 48.1145C17.4757 48.072 17.4321 48.0285 17.3896 47.9838Z" fill="#373737"/>
<circle cx="20.1167" cy="45.2751" r="2.83941" fill="#383838"/>
<rect x="16.8262" y="47.0992" width="1.03247" height="0.163484" transform="rotate(-37.121 16.8262 47.0992)" fill="#383838"/>
<path d="M17.281 48.2843H16.946V48.4833C16.96 48.4647 16.9806 48.449 17.008 48.4363C17.036 48.4237 17.0656 48.4173 17.097 48.4173C17.153 48.4173 17.1983 48.4293 17.233 48.4533C17.2683 48.4773 17.2933 48.5077 17.308 48.5443C17.3233 48.581 17.331 48.6197 17.331 48.6603C17.331 48.7097 17.3213 48.7537 17.302 48.7923C17.2833 48.8303 17.255 48.8603 17.217 48.8823C17.1796 48.9043 17.1336 48.9153 17.079 48.9153C17.0063 48.9153 16.948 48.8973 16.904 48.8613C16.86 48.8253 16.8336 48.7777 16.825 48.7183H16.936C16.9433 48.7497 16.9596 48.7747 16.985 48.7933C17.0103 48.8113 17.042 48.8203 17.08 48.8203C17.1273 48.8203 17.1626 48.806 17.186 48.7773C17.21 48.7487 17.222 48.7107 17.222 48.6633C17.222 48.6153 17.21 48.5787 17.186 48.5533C17.162 48.5273 17.1266 48.5143 17.08 48.5143C17.0473 48.5143 17.0196 48.5227 16.997 48.5393C16.975 48.5553 16.959 48.5773 16.949 48.6053H16.841V48.1843H17.281V48.2843Z" fill="#373737"/>
<path d="M15.8761 47.0198V46.9158H16.0841V47.6448H15.9691V47.0198H15.8761ZM16.2407 47.2708C16.2407 47.1555 16.26 47.0655 16.2987 47.0008C16.338 46.9355 16.4053 46.9028 16.5007 46.9028C16.596 46.9028 16.663 46.9355 16.7017 47.0008C16.741 47.0655 16.7607 47.1555 16.7607 47.2708C16.7607 47.3875 16.741 47.4788 16.7017 47.5448C16.663 47.6102 16.596 47.6428 16.5007 47.6428C16.4053 47.6428 16.338 47.6102 16.2987 47.5448C16.26 47.4788 16.2407 47.3875 16.2407 47.2708ZM16.6487 47.2708C16.6487 47.2168 16.645 47.1712 16.6377 47.1338C16.631 47.0965 16.617 47.0662 16.5957 47.0428C16.5743 47.0188 16.5427 47.0068 16.5007 47.0068C16.4587 47.0068 16.427 47.0188 16.4057 47.0428C16.3843 47.0662 16.37 47.0965 16.3627 47.1338C16.356 47.1712 16.3527 47.2168 16.3527 47.2708C16.3527 47.3268 16.356 47.3738 16.3627 47.4118C16.3693 47.4498 16.3833 47.4805 16.4047 47.5038C16.4267 47.5272 16.4587 47.5388 16.5007 47.5388C16.5427 47.5388 16.5743 47.5272 16.5957 47.5038C16.6177 47.4805 16.632 47.4498 16.6387 47.4118C16.6453 47.3738 16.6487 47.3268 16.6487 47.2708Z" fill="#373737"/>
<path d="M16.1821 42.6461C16.2461 42.5908 16.2964 42.5454 16.3331 42.5101C16.3704 42.4741 16.4014 42.4368 16.4261 42.3981C16.4507 42.3594 16.4631 42.3208 16.4631 42.2821C16.4631 42.2421 16.4534 42.2108 16.4341 42.1881C16.4154 42.1654 16.3857 42.1541 16.3451 42.1541C16.3057 42.1541 16.2751 42.1668 16.2531 42.1921C16.2317 42.2168 16.2204 42.2501 16.2191 42.2921H16.1091C16.1111 42.2161 16.1337 42.1581 16.1771 42.1181C16.2211 42.0774 16.2767 42.0571 16.3441 42.0571C16.4167 42.0571 16.4734 42.0771 16.5141 42.1171C16.5554 42.1571 16.5761 42.2104 16.5761 42.2771C16.5761 42.3251 16.5637 42.3714 16.5391 42.4161C16.5151 42.4601 16.4861 42.4998 16.4521 42.5351C16.4187 42.5698 16.3761 42.6101 16.3241 42.6561L16.2791 42.6961H16.5961V42.7911H16.1101V42.7081L16.1821 42.6461ZM16.6962 42.4271C16.6962 42.3118 16.7156 42.2218 16.7542 42.1571C16.7936 42.0918 16.8609 42.0591 16.9562 42.0591C17.0516 42.0591 17.1186 42.0918 17.1572 42.1571C17.1966 42.2218 17.2162 42.3118 17.2162 42.4271C17.2162 42.5438 17.1966 42.6351 17.1572 42.7011C17.1186 42.7664 17.0516 42.7991 16.9562 42.7991C16.8609 42.7991 16.7936 42.7664 16.7542 42.7011C16.7156 42.6351 16.6962 42.5438 16.6962 42.4271ZM17.1042 42.4271C17.1042 42.3731 17.1006 42.3274 17.0932 42.2901C17.0866 42.2528 17.0726 42.2224 17.0512 42.1991C17.0299 42.1751 16.9982 42.1631 16.9562 42.1631C16.9142 42.1631 16.8826 42.1751 16.8612 42.1991C16.8399 42.2224 16.8256 42.2528 16.8182 42.2901C16.8116 42.3274 16.8082 42.3731 16.8082 42.4271C16.8082 42.4831 16.8116 42.5301 16.8182 42.5681C16.8249 42.6061 16.8389 42.6368 16.8602 42.6601C16.8822 42.6834 16.9142 42.6951 16.9562 42.6951C16.9982 42.6951 17.0299 42.6834 17.0512 42.6601C17.0732 42.6368 17.0876 42.6061 17.0942 42.5681C17.1009 42.5301 17.1042 42.4831 17.1042 42.4271Z" fill="#373737"/>
<path d="M19.557 40.8245C19.561 40.7625 19.5847 40.7141 19.628 40.6795C19.672 40.6448 19.728 40.6275 19.796 40.6275C19.8427 40.6275 19.883 40.6358 19.917 40.6525C19.951 40.6691 19.9767 40.6918 19.994 40.7205C20.0114 40.7491 20.02 40.7815 20.02 40.8175C20.02 40.8588 20.009 40.8941 19.987 40.9235C19.965 40.9528 19.9387 40.9725 19.908 40.9825V40.9865C19.9474 40.9985 19.978 41.0205 20 41.0525C20.022 41.0838 20.033 41.1241 20.033 41.1735C20.033 41.2128 20.024 41.2478 20.006 41.2785C19.988 41.3091 19.9614 41.3335 19.926 41.3515C19.8907 41.3688 19.8484 41.3775 19.799 41.3775C19.727 41.3775 19.6677 41.3591 19.621 41.3225C19.575 41.2851 19.5504 41.2318 19.547 41.1625H19.657C19.6597 41.1978 19.6734 41.2268 19.698 41.2495C19.7227 41.2715 19.756 41.2825 19.798 41.2825C19.8387 41.2825 19.87 41.2715 19.892 41.2495C19.914 41.2268 19.925 41.1978 19.925 41.1625C19.925 41.1158 19.91 41.0828 19.88 41.0635C19.8507 41.0435 19.8054 41.0335 19.744 41.0335H19.718V40.9395H19.745C19.799 40.9388 19.84 40.9298 19.868 40.9125C19.8967 40.8951 19.911 40.8678 19.911 40.8305C19.911 40.7985 19.9007 40.7731 19.88 40.7545C19.8594 40.7351 19.83 40.7255 19.792 40.7255C19.7547 40.7255 19.7257 40.7351 19.705 40.7545C19.6844 40.7731 19.672 40.7965 19.668 40.8245H19.557ZM20.1528 40.9995C20.1528 40.8841 20.1721 40.7941 20.2108 40.7295C20.2501 40.6641 20.3174 40.6315 20.4128 40.6315C20.5081 40.6315 20.5751 40.6641 20.6138 40.7295C20.6531 40.7941 20.6728 40.8841 20.6728 40.9995C20.6728 41.1161 20.6531 41.2075 20.6138 41.2735C20.5751 41.3388 20.5081 41.3715 20.4128 41.3715C20.3174 41.3715 20.2501 41.3388 20.2108 41.2735C20.1721 41.2075 20.1528 41.1161 20.1528 40.9995ZM20.5608 40.9995C20.5608 40.9455 20.5571 40.8998 20.5498 40.8625C20.5431 40.8251 20.5291 40.7948 20.5078 40.7715C20.4864 40.7475 20.4548 40.7355 20.4128 40.7355C20.3708 40.7355 20.3391 40.7475 20.3178 40.7715C20.2964 40.7948 20.2821 40.8251 20.2748 40.8625C20.2681 40.8998 20.2648 40.9455 20.2648 40.9995C20.2648 41.0555 20.2681 41.1025 20.2748 41.1405C20.2814 41.1785 20.2954 41.2091 20.3168 41.2325C20.3388 41.2558 20.3708 41.2675 20.4128 41.2675C20.4548 41.2675 20.4864 41.2558 20.5078 41.2325C20.5298 41.2091 20.5441 41.1785 20.5508 41.1405C20.5574 41.1025 20.5608 41.0555 20.5608 40.9995Z" fill="#373737"/>
<path d="M22.8512 42.4196V42.3336L23.1872 41.8516H23.3252V42.3206H23.4182V42.4196H23.3252V42.5716H23.2132V42.4196H22.8512ZM23.2182 41.9676L22.9822 42.3206H23.2182V41.9676ZM23.5126 42.1976C23.5126 42.0823 23.532 41.9923 23.5706 41.9276C23.61 41.8623 23.6773 41.8296 23.7726 41.8296C23.868 41.8296 23.935 41.8623 23.9736 41.9276C24.013 41.9923 24.0326 42.0823 24.0326 42.1976C24.0326 42.3143 24.013 42.4056 23.9736 42.4716C23.935 42.5369 23.868 42.5696 23.7726 42.5696C23.6773 42.5696 23.61 42.5369 23.5706 42.4716C23.532 42.4056 23.5126 42.3143 23.5126 42.1976ZM23.9206 42.1976C23.9206 42.1436 23.917 42.0979 23.9096 42.0606C23.903 42.0233 23.889 41.9929 23.8676 41.9696C23.8463 41.9456 23.8146 41.9336 23.7726 41.9336C23.7306 41.9336 23.699 41.9456 23.6776 41.9696C23.6563 41.9929 23.642 42.0233 23.6346 42.0606C23.628 42.0979 23.6246 42.1436 23.6246 42.1976C23.6246 42.2536 23.628 42.3006 23.6346 42.3386C23.6413 42.3766 23.6553 42.4073 23.6766 42.4306C23.6986 42.4539 23.7306 42.4656 23.7726 42.4656C23.8146 42.4656 23.8463 42.4539 23.8676 42.4306C23.8896 42.4073 23.904 42.3766 23.9106 42.3386C23.9173 42.3006 23.9206 42.2536 23.9206 42.1976Z" fill="#373737"/>
<path d="M24.6228 45.1442H24.2878V45.3432C24.3018 45.3245 24.3224 45.3089 24.3498 45.2962C24.3778 45.2835 24.4074 45.2772 24.4388 45.2772C24.4948 45.2772 24.5401 45.2892 24.5748 45.3132C24.6101 45.3372 24.6351 45.3675 24.6498 45.4042C24.6651 45.4409 24.6728 45.4795 24.6728 45.5202C24.6728 45.5695 24.6631 45.6135 24.6438 45.6522C24.6251 45.6902 24.5968 45.7202 24.5588 45.7422C24.5214 45.7642 24.4754 45.7752 24.4208 45.7752C24.3481 45.7752 24.2898 45.7572 24.2458 45.7212C24.2018 45.6852 24.1754 45.6375 24.1668 45.5782H24.2778C24.2851 45.6095 24.3014 45.6345 24.3268 45.6532C24.3521 45.6712 24.3838 45.6802 24.4218 45.6802C24.4691 45.6802 24.5044 45.6659 24.5278 45.6372C24.5518 45.6085 24.5638 45.5705 24.5638 45.5232C24.5638 45.4752 24.5518 45.4385 24.5278 45.4132C24.5038 45.3872 24.4684 45.3742 24.4218 45.3742C24.3891 45.3742 24.3614 45.3825 24.3388 45.3992C24.3168 45.4152 24.3008 45.4372 24.2908 45.4652H24.1828V45.0442H24.6228V45.1442ZM24.7914 45.4012C24.7914 45.2859 24.8108 45.1959 24.8494 45.1312C24.8888 45.0659 24.9561 45.0332 25.0514 45.0332C25.1468 45.0332 25.2138 45.0659 25.2524 45.1312C25.2918 45.1959 25.3114 45.2859 25.3114 45.4012C25.3114 45.5179 25.2918 45.6092 25.2524 45.6752C25.2138 45.7405 25.1468 45.7732 25.0514 45.7732C24.9561 45.7732 24.8888 45.7405 24.8494 45.6752C24.8108 45.6092 24.7914 45.5179 24.7914 45.4012ZM25.1994 45.4012C25.1994 45.3472 25.1958 45.3015 25.1884 45.2642C25.1818 45.2269 25.1678 45.1965 25.1464 45.1732C25.1251 45.1492 25.0934 45.1372 25.0514 45.1372C25.0094 45.1372 24.9778 45.1492 24.9564 45.1732C24.9351 45.1965 24.9208 45.2269 24.9134 45.2642C24.9068 45.3015 24.9034 45.3472 24.9034 45.4012C24.9034 45.4572 24.9068 45.5042 24.9134 45.5422C24.9201 45.5802 24.9341 45.6109 24.9554 45.6342C24.9774 45.6575 25.0094 45.6692 25.0514 45.6692C25.0934 45.6692 25.1251 45.6575 25.1464 45.6342C25.1684 45.6109 25.1828 45.5802 25.1894 45.5422C25.1961 45.5042 25.1994 45.4572 25.1994 45.4012Z" fill="#373737"/>
<path d="M18.3165 48.7116V49.4066H18.2025V49.1026H17.8755V49.4066H17.7615V48.7116H17.8755V49.0096H18.2025V48.7116H18.3165ZM18.9626 48.8556L18.6246 49.6656H18.5066L18.6186 49.3976L18.4016 48.8556H18.5286L18.6836 49.2756L18.8446 48.8556H18.9626ZM19.2486 49.4156C19.2053 49.4156 19.1663 49.4079 19.1316 49.3926C19.0976 49.3766 19.0706 49.3552 19.0506 49.3286C19.0306 49.3012 19.02 49.2709 19.0186 49.2376H19.1366C19.1386 49.2609 19.1496 49.2806 19.1696 49.2966C19.1903 49.3119 19.216 49.3196 19.2466 49.3196C19.2786 49.3196 19.3033 49.3136 19.3206 49.3016C19.3386 49.2889 19.3476 49.2729 19.3476 49.2536C19.3476 49.2329 19.3376 49.2176 19.3176 49.2076C19.2983 49.1976 19.2673 49.1866 19.2246 49.1746C19.1833 49.1632 19.1496 49.1522 19.1236 49.1416C19.0976 49.1309 19.075 49.1146 19.0556 49.0926C19.037 49.0706 19.0276 49.0416 19.0276 49.0056C19.0276 48.9762 19.0363 48.9496 19.0536 48.9256C19.071 48.9009 19.0956 48.8816 19.1276 48.8676C19.1603 48.8536 19.1976 48.8466 19.2396 48.8466C19.3023 48.8466 19.3526 48.8626 19.3906 48.8946C19.4293 48.9259 19.45 48.9689 19.4526 49.0236H19.3386C19.3366 48.9989 19.3266 48.9792 19.3086 48.9646C19.2906 48.9499 19.2663 48.9426 19.2356 48.9426C19.2056 48.9426 19.1826 48.9482 19.1666 48.9596C19.1506 48.9709 19.1426 48.9859 19.1426 49.0046C19.1426 49.0192 19.148 49.0316 19.1586 49.0416C19.1693 49.0516 19.1823 49.0596 19.1976 49.0656C19.213 49.0709 19.2356 49.0779 19.2656 49.0866C19.3056 49.0972 19.3383 49.1082 19.3636 49.1196C19.3896 49.1302 19.412 49.1462 19.4306 49.1676C19.4493 49.1889 19.459 49.2172 19.4596 49.2526C19.4596 49.2839 19.451 49.3119 19.4336 49.3366C19.4163 49.3612 19.3916 49.3806 19.3596 49.3946C19.3283 49.4086 19.2913 49.4156 19.2486 49.4156ZM19.7158 48.9486V49.2536C19.7158 49.2742 19.7205 49.2892 19.7298 49.2986C19.7398 49.3072 19.7565 49.3116 19.7798 49.3116H19.8498V49.4066H19.7598C19.7085 49.4066 19.6691 49.3946 19.6418 49.3706C19.6145 49.3466 19.6008 49.3076 19.6008 49.2536V48.9486H19.5358V48.8556H19.6008V48.7186H19.7158V48.8556H19.8498V48.9486H19.7158ZM20.4599 49.1176C20.4599 49.1382 20.4585 49.1569 20.4559 49.1736H20.0349C20.0382 49.2176 20.0545 49.2529 20.0839 49.2796C20.1132 49.3062 20.1492 49.3196 20.1919 49.3196C20.2532 49.3196 20.2965 49.2939 20.3219 49.2426H20.4449C20.4282 49.2932 20.3979 49.3349 20.3539 49.3676C20.3105 49.3996 20.2565 49.4156 20.1919 49.4156C20.1392 49.4156 20.0919 49.4039 20.0499 49.3806C20.0085 49.3566 19.9759 49.3232 19.9519 49.2806C19.9285 49.2372 19.9169 49.1872 19.9169 49.1306C19.9169 49.0739 19.9282 49.0242 19.9509 48.9816C19.9742 48.9382 20.0065 48.9049 20.0479 48.8816C20.0899 48.8582 20.1379 48.8466 20.1919 48.8466C20.2439 48.8466 20.2902 48.8579 20.3309 48.8806C20.3715 48.9032 20.4032 48.9352 20.4259 48.9766C20.4485 49.0172 20.4599 49.0642 20.4599 49.1176ZM20.3409 49.0816C20.3402 49.0396 20.3252 49.0059 20.2959 48.9806C20.2665 48.9552 20.2302 48.9426 20.1869 48.9426C20.1475 48.9426 20.1139 48.9552 20.0859 48.9806C20.0579 49.0052 20.0412 49.0389 20.0359 49.0816H20.3409ZM20.6861 48.9356C20.7027 48.9076 20.7247 48.8859 20.7521 48.8706C20.7801 48.8546 20.8131 48.8466 20.8511 48.8466V48.9646H20.8221C20.7774 48.9646 20.7434 48.9759 20.7201 48.9986C20.6974 49.0212 20.6861 49.0606 20.6861 49.1166V49.4066H20.5721V48.8556H20.6861V48.9356ZM21.4609 49.1176C21.4609 49.1382 21.4595 49.1569 21.4569 49.1736H21.0359C21.0392 49.2176 21.0555 49.2529 21.0849 49.2796C21.1142 49.3062 21.1502 49.3196 21.1929 49.3196C21.2542 49.3196 21.2975 49.2939 21.3229 49.2426H21.4459C21.4292 49.2932 21.3989 49.3349 21.3549 49.3676C21.3115 49.3996 21.2575 49.4156 21.1929 49.4156C21.1402 49.4156 21.0929 49.4039 21.0509 49.3806C21.0095 49.3566 20.9769 49.3232 20.9529 49.2806C20.9295 49.2372 20.9179 49.1872 20.9179 49.1306C20.9179 49.0739 20.9292 49.0242 20.9519 48.9816C20.9752 48.9382 21.0075 48.9049 21.0489 48.8816C21.0909 48.8582 21.1389 48.8466 21.1929 48.8466C21.2449 48.8466 21.2912 48.8579 21.3319 48.8806C21.3725 48.9032 21.4042 48.9352 21.4269 48.9766C21.4495 49.0172 21.4609 49.0642 21.4609 49.1176ZM21.3419 49.0816C21.3412 49.0396 21.3262 49.0059 21.2969 48.9806C21.2675 48.9552 21.2312 48.9426 21.1879 48.9426C21.1485 48.9426 21.1149 48.9552 21.0869 48.9806C21.0589 49.0052 21.0422 49.0389 21.0369 49.0816H21.3419ZM21.773 49.4156C21.7297 49.4156 21.6907 49.4079 21.656 49.3926C21.622 49.3766 21.595 49.3552 21.575 49.3286C21.555 49.3012 21.5444 49.2709 21.543 49.2376H21.661C21.663 49.2609 21.674 49.2806 21.694 49.2966C21.7147 49.3119 21.7404 49.3196 21.771 49.3196C21.803 49.3196 21.8277 49.3136 21.845 49.3016C21.863 49.2889 21.872 49.2729 21.872 49.2536C21.872 49.2329 21.862 49.2176 21.842 49.2076C21.8227 49.1976 21.7917 49.1866 21.749 49.1746C21.7077 49.1632 21.674 49.1522 21.648 49.1416C21.622 49.1309 21.5994 49.1146 21.58 49.0926C21.5614 49.0706 21.552 49.0416 21.552 49.0056C21.552 48.9762 21.5607 48.9496 21.578 48.9256C21.5954 48.9009 21.62 48.8816 21.652 48.8676C21.6847 48.8536 21.722 48.8466 21.764 48.8466C21.8267 48.8466 21.877 48.8626 21.915 48.8946C21.9537 48.9259 21.9744 48.9689 21.977 49.0236H21.863C21.861 48.9989 21.851 48.9792 21.833 48.9646C21.815 48.9499 21.7907 48.9426 21.76 48.9426C21.73 48.9426 21.707 48.9482 21.691 48.9596C21.675 48.9709 21.667 48.9859 21.667 49.0046C21.667 49.0192 21.6724 49.0316 21.683 49.0416C21.6937 49.0516 21.7067 49.0596 21.722 49.0656C21.7374 49.0709 21.76 49.0779 21.79 49.0866C21.83 49.0972 21.8627 49.1082 21.888 49.1196C21.914 49.1302 21.9364 49.1462 21.955 49.1676C21.9737 49.1889 21.9834 49.2172 21.984 49.2526C21.984 49.2839 21.9754 49.3119 21.958 49.3366C21.9407 49.3612 21.916 49.3806 21.884 49.3946C21.8527 49.4086 21.8157 49.4156 21.773 49.4156ZM22.1652 48.7826C22.1446 48.7826 22.1272 48.7756 22.1132 48.7616C22.0992 48.7476 22.0922 48.7302 22.0922 48.7096C22.0922 48.6889 22.0992 48.6716 22.1132 48.6576C22.1272 48.6436 22.1446 48.6366 22.1652 48.6366C22.1852 48.6366 22.2022 48.6436 22.2162 48.6576C22.2302 48.6716 22.2372 48.6889 22.2372 48.7096C22.2372 48.7302 22.2302 48.7476 22.2162 48.7616C22.2022 48.7756 22.1852 48.7826 22.1652 48.7826ZM22.2212 48.8556V49.4066H22.1072V48.8556H22.2212ZM22.5709 49.4156C22.5276 49.4156 22.4886 49.4079 22.4539 49.3926C22.4199 49.3766 22.3929 49.3552 22.3729 49.3286C22.3529 49.3012 22.3422 49.2709 22.3409 49.2376H22.4589C22.4609 49.2609 22.4719 49.2806 22.4919 49.2966C22.5126 49.3119 22.5382 49.3196 22.5689 49.3196C22.6009 49.3196 22.6256 49.3136 22.6429 49.3016C22.6609 49.2889 22.6699 49.2729 22.6699 49.2536C22.6699 49.2329 22.6599 49.2176 22.6399 49.2076C22.6206 49.1976 22.5896 49.1866 22.5469 49.1746C22.5056 49.1632 22.4719 49.1522 22.4459 49.1416C22.4199 49.1309 22.3972 49.1146 22.3779 49.0926C22.3592 49.0706 22.3499 49.0416 22.3499 49.0056C22.3499 48.9762 22.3586 48.9496 22.3759 48.9256C22.3932 48.9009 22.4179 48.8816 22.4499 48.8676C22.4826 48.8536 22.5199 48.8466 22.5619 48.8466C22.6246 48.8466 22.6749 48.8626 22.7129 48.8946C22.7516 48.9259 22.7722 48.9689 22.7749 49.0236H22.6609C22.6589 48.9989 22.6489 48.9792 22.6309 48.9646C22.6129 48.9499 22.5886 48.9426 22.5579 48.9426C22.5279 48.9426 22.5049 48.9482 22.4889 48.9596C22.4729 48.9709 22.4649 48.9859 22.4649 49.0046C22.4649 49.0192 22.4702 49.0316 22.4809 49.0416C22.4916 49.0516 22.5046 49.0596 22.5199 49.0656C22.5352 49.0709 22.5579 49.0779 22.5879 49.0866C22.6279 49.0972 22.6606 49.1082 22.6859 49.1196C22.7119 49.1302 22.7342 49.1462 22.7529 49.1676C22.7716 49.1889 22.7812 49.2172 22.7819 49.2526C22.7819 49.2839 22.7732 49.3119 22.7559 49.3366C22.7386 49.3612 22.7139 49.3806 22.6819 49.3946C22.6506 49.4086 22.6136 49.4156 22.5709 49.4156ZM23.4168 49.5926C23.3515 49.5299 23.3012 49.4502 23.2658 49.3536C23.2312 49.2569 23.2138 49.1532 23.2138 49.0426C23.2138 48.9292 23.2325 48.8222 23.2698 48.7216C23.3078 48.6209 23.3635 48.5379 23.4368 48.4726H23.5548V48.4836C23.4782 48.5542 23.4205 48.6389 23.3818 48.7376C23.3432 48.8362 23.3238 48.9379 23.3238 49.0426C23.3238 49.1432 23.3418 49.2406 23.3778 49.3346C23.4138 49.4286 23.4662 49.5109 23.5348 49.5816V49.5926H23.4168ZM23.624 48.8536C23.624 48.8049 23.638 48.7669 23.666 48.7396C23.6947 48.7116 23.7314 48.6976 23.776 48.6976C23.8207 48.6976 23.857 48.7116 23.885 48.7396C23.9137 48.7669 23.928 48.8049 23.928 48.8536C23.928 48.9022 23.9137 48.9406 23.885 48.9686C23.857 48.9966 23.8207 49.0106 23.776 49.0106C23.7314 49.0106 23.6947 48.9966 23.666 48.9686C23.638 48.9406 23.624 48.9022 23.624 48.8536ZM24.234 48.7106L23.835 49.4066H23.723L24.122 48.7106H24.234ZM23.776 48.7666C23.734 48.7666 23.713 48.7956 23.713 48.8536C23.713 48.9122 23.734 48.9416 23.776 48.9416C23.796 48.9416 23.8114 48.9346 23.822 48.9206C23.8334 48.9059 23.839 48.8836 23.839 48.8536C23.839 48.7956 23.818 48.7666 23.776 48.7666ZM24.031 49.2626C24.031 49.2139 24.045 49.1759 24.073 49.1486C24.1017 49.1206 24.1384 49.1066 24.183 49.1066C24.227 49.1066 24.263 49.1206 24.291 49.1486C24.3197 49.1759 24.334 49.2139 24.334 49.2626C24.334 49.3112 24.3197 49.3496 24.291 49.3776C24.263 49.4056 24.227 49.4196 24.183 49.4196C24.1384 49.4196 24.1017 49.4056 24.073 49.3776C24.045 49.3496 24.031 49.3112 24.031 49.2626ZM24.182 49.1756C24.14 49.1756 24.119 49.2046 24.119 49.2626C24.119 49.3206 24.14 49.3496 24.182 49.3496C24.224 49.3496 24.245 49.3206 24.245 49.2626C24.245 49.2046 24.224 49.1756 24.182 49.1756ZM24.423 49.5926V49.5816C24.4916 49.5109 24.544 49.4286 24.58 49.3346C24.616 49.2406 24.634 49.1432 24.634 49.0426C24.634 48.9379 24.6146 48.8362 24.576 48.7376C24.5373 48.6389 24.4796 48.5542 24.403 48.4836V48.4726H24.521C24.5943 48.5379 24.6496 48.6209 24.687 48.7216C24.725 48.8222 24.744 48.9292 24.744 49.0426C24.744 49.1532 24.7263 49.2569 24.691 49.3536C24.6563 49.4502 24.6063 49.5299 24.541 49.5926H24.423Z" fill="#373737"/>
<path d="M17.5077 46.4838L21.7417 42.937L22.8787 45.1958L17.5077 46.4838Z" fill="#D9D9D9"/>
<path d="M43.2132 29.1145H42.9222L42.8722 29.2565H42.7532L43.0022 28.5605H43.1342L43.3832 29.2565H43.2632L43.2132 29.1145ZM43.1812 29.0215L43.0682 28.6985L42.9542 29.0215H43.1812ZM43.6055 28.5165V29.2565H43.4915V28.5165H43.6055ZM43.7172 28.9785C43.7172 28.9232 43.7285 28.8742 43.7512 28.8315C43.7745 28.7889 43.8058 28.7559 43.8452 28.7325C43.8852 28.7085 43.9292 28.6965 43.9772 28.6965C44.0205 28.6965 44.0582 28.7052 44.0902 28.7225C44.1228 28.7392 44.1488 28.7602 44.1682 28.7855V28.7055H44.2832V29.2565H44.1682V29.1745C44.1488 29.2005 44.1225 29.2222 44.0892 29.2395C44.0558 29.2569 44.0178 29.2655 43.9752 29.2655C43.9278 29.2655 43.8845 29.2535 43.8452 29.2295C43.8058 29.2049 43.7745 29.1709 43.7512 29.1275C43.7285 29.0835 43.7172 29.0339 43.7172 28.9785ZM44.1682 28.9805C44.1682 28.9425 44.1602 28.9095 44.1442 28.8815C44.1288 28.8535 44.1085 28.8322 44.0832 28.8175C44.0578 28.8029 44.0305 28.7955 44.0012 28.7955C43.9718 28.7955 43.9445 28.8029 43.9192 28.8175C43.8938 28.8315 43.8732 28.8525 43.8572 28.8805C43.8418 28.9079 43.8342 28.9405 43.8342 28.9785C43.8342 29.0165 43.8418 29.0499 43.8572 29.0785C43.8732 29.1072 43.8938 29.1292 43.9192 29.1445C43.9452 29.1592 43.9725 29.1665 44.0012 29.1665C44.0305 29.1665 44.0578 29.1592 44.0832 29.1445C44.1085 29.1299 44.1288 29.1085 44.1442 29.0805C44.1602 29.0519 44.1682 29.0185 44.1682 28.9805ZM44.5469 28.7855C44.5636 28.7575 44.5856 28.7359 44.6129 28.7205C44.6409 28.7045 44.6739 28.6965 44.7119 28.6965V28.8145H44.6829C44.6382 28.8145 44.6042 28.8259 44.5809 28.8485C44.5582 28.8712 44.5469 28.9105 44.5469 28.9665V29.2565H44.4329V28.7055H44.5469V28.7855ZM45.4837 28.6965C45.527 28.6965 45.5657 28.7055 45.5997 28.7235C45.6344 28.7415 45.6614 28.7682 45.6807 28.8035C45.7007 28.8389 45.7107 28.8815 45.7107 28.9315V29.2565H45.5977V28.9485C45.5977 28.8992 45.5854 28.8615 45.5607 28.8355C45.536 28.8089 45.5024 28.7955 45.4597 28.7955C45.417 28.7955 45.383 28.8089 45.3577 28.8355C45.333 28.8615 45.3207 28.8992 45.3207 28.9485V29.2565H45.2077V28.9485C45.2077 28.8992 45.1954 28.8615 45.1707 28.8355C45.146 28.8089 45.1124 28.7955 45.0697 28.7955C45.027 28.7955 44.993 28.8089 44.9677 28.8355C44.943 28.8615 44.9307 28.8992 44.9307 28.9485V29.2565H44.8167V28.7055H44.9307V28.7685C44.9494 28.7459 44.973 28.7282 45.0017 28.7155C45.0304 28.7029 45.061 28.6965 45.0937 28.6965C45.1377 28.6965 45.177 28.7059 45.2117 28.7245C45.2464 28.7432 45.273 28.7702 45.2917 28.8055C45.3084 28.7722 45.3344 28.7459 45.3697 28.7265C45.405 28.7065 45.443 28.6965 45.4837 28.6965Z" fill="#373737"/>
<path d="M43.8363 64.4355C43.7717 64.4355 43.712 64.4205 43.6573 64.3905C43.6033 64.3598 43.5603 64.3175 43.5283 64.2635C43.497 64.2088 43.4813 64.1475 43.4813 64.0795C43.4813 64.0115 43.497 63.9505 43.5283 63.8965C43.5603 63.8425 43.6033 63.8005 43.6573 63.7705C43.712 63.7398 43.7717 63.7245 43.8363 63.7245C43.9017 63.7245 43.9613 63.7398 44.0153 63.7705C44.07 63.8005 44.113 63.8425 44.1443 63.8965C44.1757 63.9505 44.1913 64.0115 44.1913 64.0795C44.1913 64.1475 44.1757 64.2088 44.1443 64.2635C44.113 64.3175 44.07 64.3598 44.0153 64.3905C43.9613 64.4205 43.9017 64.4355 43.8363 64.4355ZM43.8363 64.3365C43.8823 64.3365 43.9233 64.3261 43.9593 64.3055C43.9953 64.2841 44.0233 64.2541 44.0433 64.2155C44.064 64.1761 44.0743 64.1308 44.0743 64.0795C44.0743 64.0281 44.064 63.9831 44.0433 63.9445C44.0233 63.9058 43.9953 63.8761 43.9593 63.8555C43.9233 63.8348 43.8823 63.8245 43.8363 63.8245C43.7903 63.8245 43.7493 63.8348 43.7133 63.8555C43.6773 63.8761 43.649 63.9058 43.6283 63.9445C43.6083 63.9831 43.5983 64.0281 43.5983 64.0795C43.5983 64.1308 43.6083 64.1761 43.6283 64.2155C43.649 64.2541 43.6773 64.2841 43.7133 64.3055C43.7493 64.3261 43.7903 64.3365 43.8363 64.3365ZM44.5815 63.8685C44.6248 63.8685 44.6635 63.8775 44.6975 63.8955C44.7322 63.9135 44.7592 63.9401 44.7785 63.9755C44.7978 64.0108 44.8075 64.0535 44.8075 64.1035V64.4285H44.6945V64.1205C44.6945 64.0711 44.6822 64.0335 44.6575 64.0075C44.6328 63.9808 44.5992 63.9675 44.5565 63.9675C44.5138 63.9675 44.4798 63.9808 44.4545 64.0075C44.4298 64.0335 44.4175 64.0711 44.4175 64.1205V64.4285H44.3035V63.8775H44.4175V63.9405C44.4362 63.9178 44.4598 63.9001 44.4885 63.8875C44.5178 63.8748 44.5488 63.8685 44.5815 63.8685Z" fill="#373737"/>
<circle cx="42.172" cy="35.4825" r="0.743286" fill="#D9D9D9"/>
<circle cx="42.172" cy="38.3146" r="0.743286" fill="#D9D9D9"/>
<circle cx="42.172" cy="41.1468" r="0.743286" fill="#D9D9D9"/>
<circle cx="42.172" cy="43.9789" r="0.743286" fill="#D9D9D9"/>
<circle cx="42.172" cy="45.7858" r="0.743286" fill="#D9D9D9"/>
</g>
<defs>
<filter id="filter0_d_82_2307" x="0.30826" y="1.84384" width="55.82" height="126.595" filterUnits="userSpaceOnUse" color-interpolation-filters="sRGB">
<feFlood flood-opacity="0" result="BackgroundImageFix"/>
<feColorMatrix in="SourceAlpha" type="matrix" values="0 0 0 0 0 0 0 0 0 0 0 0 0 0 0 0 0 0 127 0" result="hardAlpha"/>
<feOffset dy="6.24999"/>
<feGaussianBlur stdDeviation="3.674"/>
<feComposite in2="hardAlpha" operator="out"/>
<feColorMatrix type="matrix" values="0 0 0 0 0.0375 0 0 0 0 0.0375 0 0 0 0 0.0375 0 0 0 1 0"/>
<feBlend mode="normal" in2="BackgroundImageFix" result="effect1_dropShadow_82_2307"/>
<feBlend mode="normal" in="SourceGraphic" in2="effect1_dropShadow_82_2307" result="shape"/>
</filter>
<filter id="filter1_d_82_2307" x="0.660986" y="2.94183" width="59.9261" height="131.136" filterUnits="userSpaceOnUse" color-interpolation-filters="sRGB">
<feFlood flood-opacity="0" result="BackgroundImageFix"/>
<feColorMatrix in="SourceAlpha" type="matrix" values="0 0 0 0 0 0 0 0 0 0 0 0 0 0 0 0 0 0 127 0" result="hardAlpha"/>
<feOffset dy="17.6066"/>
<feGaussianBlur stdDeviation="5.90339"/>
<feComposite in2="hardAlpha" operator="out"/>
<feColorMatrix type="matrix" values="0 0 0 0 0 0 0 0 0 0 0 0 0 0 0 0 0 0 0.25 0"/>
<feBlend mode="normal" in2="BackgroundImageFix" result="effect1_dropShadow_82_2307"/>
<feBlend mode="normal" in="SourceGraphic" in2="effect1_dropShadow_82_2307" result="shape"/>
</filter>
<filter id="filter2_f_82_2307" x="10.3964" y="0.870467" width="40.4552" height="105.865" filterUnits="userSpaceOnUse" color-interpolation-filters="sRGB">
<feFlood flood-opacity="0" result="BackgroundImageFix"/>
<feBlend mode="normal" in="SourceGraphic" in2="BackgroundImageFix" result="shape"/>
<feGaussianBlur stdDeviation="1.03568" result="effect1_foregroundBlur_82_2307"/>
</filter>
<filter id="filter3_i_82_2307" x="14.415" y="7.99677" width="32.4912" height="9.70192" filterUnits="userSpaceOnUse" color-interpolation-filters="sRGB">
<feFlood flood-opacity="0" result="BackgroundImageFix"/>
<feBlend mode="normal" in="SourceGraphic" in2="BackgroundImageFix" result="shape"/>
<feColorMatrix in="SourceAlpha" type="matrix" values="0 0 0 0 0 0 0 0 0 0 0 0 0 0 0 0 0 0 127 0" result="hardAlpha"/>
<feOffset dy="2.07137"/>
<feGaussianBlur stdDeviation="2.07137"/>
<feComposite in2="hardAlpha" operator="arithmetic" k2="-1" k3="1"/>
<feColorMatrix type="matrix" values="0 0 0 0 0 0 0 0 0 0 0 0 0 0 0 0 0 0 1 0"/>
<feBlend mode="normal" in2="shape" result="effect1_innerShadow_82_2307"/>
</filter>
<filter id="filter4_i_82_2307" x="14.4141" y="93.9585" width="32.4912" height="9.70198" filterUnits="userSpaceOnUse" color-interpolation-filters="sRGB">
<feFlood flood-opacity="0" result="BackgroundImageFix"/>
<feBlend mode="normal" in="SourceGraphic" in2="BackgroundImageFix" result="shape"/>
<feColorMatrix in="SourceAlpha" type="matrix" values="0 0 0 0 0 0 0 0 0 0 0 0 0 0 0 0 0 0 127 0" result="hardAlpha"/>
<feOffset dy="2.07137"/>
<feGaussianBlur stdDeviation="2.07137"/>
<feComposite in2="hardAlpha" operator="arithmetic" k2="-1" k3="1"/>
<feColorMatrix type="matrix" values="0 0 0 0 0 0 0 0 0 0 0 0 0 0 0 0 0 0 1 0"/>
<feBlend mode="normal" in2="shape" result="effect1_innerShadow_82_2307"/>
</filter>
<filter id="filter5_diiii_82_2307" x="11.307" y="24.4154" width="39.7053" height="55.1446" filterUnits="userSpaceOnUse" color-interpolation-filters="sRGB">
<feFlood flood-opacity="0" result="BackgroundImageFix"/>
<feColorMatrix in="SourceAlpha" type="matrix" values="0 0 0 0 0 0 0 0 0 0 0 0 0 0 0 0 0 0 127 0" result="hardAlpha"/>
<feOffset dy="3.10705"/>
<feGaussianBlur stdDeviation="1.55352"/>
<feComposite in2="hardAlpha" operator="out"/>
<feColorMatrix type="matrix" values="0 0 0 0 0.445833 0 0 0 0 0.445833 0 0 0 0 0.445833 0 0 0 1 0"/>
<feBlend mode="normal" in2="BackgroundImageFix" result="effect1_dropShadow_82_2307"/>
<feBlend mode="normal" in="SourceGraphic" in2="effect1_dropShadow_82_2307" result="shape"/>
<feColorMatrix in="SourceAlpha" type="matrix" values="0 0 0 0 0 0 0 0 0 0 0 0 0 0 0 0 0 0 127 0" result="hardAlpha"/>
<feOffset dx="3.05205"/>
<feGaussianBlur stdDeviation="1.52602"/>
<feComposite in2="hardAlpha" operator="arithmetic" k2="-1" k3="1"/>
<feColorMatrix type="matrix" values="0 0 0 0 0.3125 0 0 0 0 0.3125 0 0 0 0 0.3125 0 0 0 0.39 0"/>
<feBlend mode="normal" in2="shape" result="effect2_innerShadow_82_2307"/>
<feColorMatrix in="SourceAlpha" type="matrix" values="0 0 0 0 0 0 0 0 0 0 0 0 0 0 0 0 0 0 127 0" result="hardAlpha"/>
<feOffset dx="-3.05205"/>
<feGaussianBlur stdDeviation="3.0902"/>
<feComposite in2="hardAlpha" operator="arithmetic" k2="-1" k3="1"/>
<feColorMatrix type="matrix" values="0 0 0 0 0.620833 0 0 0 0 0.620833 0 0 0 0 0.620833 0 0 0 0.26 0"/>
<feBlend mode="normal" in2="effect2_innerShadow_82_2307" result="effect3_innerShadow_82_2307"/>
<feColorMatrix in="SourceAlpha" type="matrix" values="0 0 0 0 0 0 0 0 0 0 0 0 0 0 0 0 0 0 127 0" result="hardAlpha"/>
<feOffset dy="3.05205"/>
<feGaussianBlur stdDeviation="1.52602"/>
<feComposite in2="hardAlpha" operator="arithmetic" k2="-1" k3="1"/>
<feColorMatrix type="matrix" values="0 0 0 0 0 0 0 0 0 0 0 0 0 0 0 0 0 0 0.19 0"/>
<feBlend mode="normal" in2="effect3_innerShadow_82_2307" result="effect4_innerShadow_82_2307"/>
<feColorMatrix in="SourceAlpha" type="matrix" values="0 0 0 0 0 0 0 0 0 0 0 0 0 0 0 0 0 0 127 0" result="hardAlpha"/>
<feOffset dy="-3.81506"/>
<feGaussianBlur stdDeviation="1.52602"/>
<feComposite in2="hardAlpha" operator="arithmetic" k2="-1" k3="1"/>
<feColorMatrix type="matrix" values="0 0 0 0 0.113725 0 0 0 0 0.12549 0 0 0 0 0.129412 0 0 0 0.42 0"/>
<feBlend mode="normal" in2="effect4_innerShadow_82_2307" result="effect5_innerShadow_82_2307"/>
</filter>
<filter id="filter6_i_82_2307" x="7.65625" y="102.593" width="41.124" height="12.2481" filterUnits="userSpaceOnUse" color-interpolation-filters="sRGB">
<feFlood flood-opacity="0" result="BackgroundImageFix"/>
<feBlend mode="normal" in="SourceGraphic" in2="BackgroundImageFix" result="shape"/>
<feColorMatrix in="SourceAlpha" type="matrix" values="0 0 0 0 0 0 0 0 0 0 0 0 0 0 0 0 0 0 127 0" result="hardAlpha"/>
<feOffset dy="-2.07137"/>
<feGaussianBlur stdDeviation="1.03568"/>
<feComposite in2="hardAlpha" operator="arithmetic" k2="-1" k3="1"/>
<feColorMatrix type="matrix" values="0 0 0 0 0.5 0 0 0 0 0.5 0 0 0 0 0.5 0 0 0 1 0"/>
<feBlend mode="normal" in2="shape" result="effect1_innerShadow_82_2307"/>
</filter>
</defs>
</svg>
