<svg width="41" height="15" viewBox="0 0 41 15" fill="none" xmlns="http://www.w3.org/2000/svg">
<circle cx="5.9123" cy="13.5534" r="1.15827" fill="#0E000F"/>
<circle cx="9.69135" cy="13.5537" r="1.15827" fill="#0E000F"/>
<circle cx="13.4692" cy="13.5537" r="1.15827" fill="#0E000F"/>
<circle cx="27.7464" cy="13.5537" r="1.15827" fill="#0E000F"/>
<circle cx="31.5256" cy="13.5542" r="1.15827" fill="#0E000F"/>
<circle cx="35.3035" cy="13.5542" r="1.15827" fill="#0E000F"/>
<rect x="3.42535" y="3.14174" width="34.3649" height="10.1235" fill="#483437"/>
<mask id="path-8-inside-1_561_5739" fill="white">
<path d="M3.42517 3.1421C3.42517 1.85397 4.46941 0.809732 5.75754 0.809732H35.4577C36.7459 0.809732 37.7901 1.85397 37.7901 3.1421H3.42517Z"/>
</mask>
<path d="M3.42517 3.1421C3.42517 1.85397 4.46941 0.809732 5.75754 0.809732H35.4577C36.7459 0.809732 37.7901 1.85397 37.7901 3.1421H3.42517Z" fill="#0E000F"/>
<path d="M3.42517 0.809732H37.7901H3.42517ZM37.7901 3.95495H3.42517V3.1421C3.42517 2.86469 3.47466 2.58951 3.57131 2.32948L5.75754 2.32926H37.6446C37.7406 2.58951 37.7901 2.86469 37.7901 3.1421V3.95495ZM3.42517 3.1421V0.809732V3.1421ZM37.7901 0.809732V3.1421V0.809732Z" fill="#352023" mask="url(#path-8-inside-1_561_5739)"/>
<path d="M3.42535 13.2658H37.7903V12.3956H3.42535V13.2658Z" fill="#0E000F"/>
<rect x="3.42535" y="3.14174" width="1.18931" height="10.1235" fill="#0E000F"/>
<rect x="8.94742" y="3.14174" width="1.18931" height="10.1235" fill="#0E000F"/>
<rect x="14.4691" y="3.14174" width="1.18931" height="10.1235" fill="#0E000F"/>
<rect x="15.6584" y="5.22803" width="9.85419" height="5.95169" fill="#0E000F"/>
<rect x="25.5128" y="3.14174" width="1.18931" height="10.1235" fill="#0E000F"/>
<rect x="31.034" y="3.14174" width="1.18931" height="10.1235" fill="#0E000F"/>
<rect x="36.6006" y="3.14174" width="1.18931" height="10.1235" fill="#0E000F"/>
<path fill-rule="evenodd" clip-rule="evenodd" d="M40.1084 13.2655C40.5543 13.2655 40.9157 12.904 40.9157 12.4582C40.9157 12.0123 40.5543 11.6509 40.1084 11.6509C39.8616 11.6509 39.6406 11.7617 39.4925 11.9362H37.7898V12.9803H39.4926C39.6407 13.1548 39.8616 13.2655 40.1084 13.2655Z" fill="#0E000F"/>
<path fill-rule="evenodd" clip-rule="evenodd" d="M1.10656 13.2655C0.660705 13.2655 0.299269 12.904 0.299269 12.4582C0.299269 12.0123 0.660705 11.6509 1.10656 11.6509C1.3534 11.6509 1.57437 11.7617 1.72245 11.9362H3.42517V12.9803H1.72232C1.57424 13.1548 1.35333 13.2655 1.10656 13.2655Z" fill="#0E000F"/>
</svg>
