<svg width="46" height="15" viewBox="0 0 46 15" fill="none" xmlns="http://www.w3.org/2000/svg">
<circle cx="33.3406" cy="13.7676" r="1.15827" fill="#0E000F"/>
<circle cx="37.1193" cy="13.7676" r="1.15827" fill="#0E000F"/>
<circle cx="4.54886" cy="13.7676" r="1.15827" fill="#0E000F"/>
<circle cx="8.32746" cy="13.7679" r="1.15827" fill="#0E000F"/>
<circle cx="12.1053" cy="13.7679" r="1.15827" fill="#0E000F"/>
<circle cx="40.8972" cy="13.7676" r="1.15827" fill="#0E000F"/>
<path d="M4.13549 1.93103C4.47418 1.36788 5.08325 1.02345 5.74039 1.02345H39.4852C40.0739 1.02345 40.6284 1.30029 40.9822 1.77087L44.7264 6.75142C44.9704 7.0759 45.1023 7.47086 45.1023 7.8768V11.6065C45.1023 12.6408 44.2638 13.4793 43.2295 13.4793H2.80853C1.77421 13.4793 0.93573 12.6408 0.93573 11.6065V7.77114C0.93573 7.43105 1.02834 7.09737 1.20362 6.80592L4.13549 1.93103Z" fill="#028209"/>
<rect x="3.54263" y="4.35956" width="2.16456" height="2.16456" fill="#0E000F"/>
<rect x="39.349" y="4.35956" width="2.16456" height="2.16456" fill="#0E000F"/>
<rect x="9.05222" y="8.94799" width="26.7399" height="1.88006" fill="#C7C905"/>
<path d="M20.4727 2.86533L19.4445 6.80944H18.2815L17.6523 4.21374L17.0005 6.80944H15.8375L14.8374 2.86533H15.8656L16.4331 5.73633L17.1354 2.86533H18.1916L18.8658 5.73633L19.4389 2.86533H20.4727ZM23.4097 6.11276H21.9377L21.7018 6.80944H20.6961L22.1231 2.86533H23.2356L24.6627 6.80944H23.6457L23.4097 6.11276ZM23.1625 5.37113L22.6737 3.9272L22.1906 5.37113H23.1625ZM27.7151 4.11261C27.644 3.98151 27.541 3.88226 27.4061 3.81484C27.275 3.74367 27.1196 3.70809 26.9398 3.70809C26.6289 3.70809 26.3798 3.81109 26.1926 4.0171C26.0053 4.21936 25.9116 4.49092 25.9116 4.83176C25.9116 5.19509 26.009 5.47975 26.2038 5.68576C26.4023 5.88802 26.6739 5.98915 27.0185 5.98915C27.2544 5.98915 27.453 5.92922 27.614 5.80936C27.7788 5.68951 27.8987 5.51721 27.9736 5.29247H26.7544V4.58456H28.8444V5.47788C28.7733 5.7176 28.6515 5.94046 28.4793 6.14647C28.3107 6.35248 28.0953 6.51916 27.8331 6.64651C27.5709 6.77386 27.275 6.83753 26.9454 6.83753C26.5559 6.83753 26.2075 6.75325 25.9004 6.5847C25.597 6.41241 25.3592 6.17456 25.1869 5.87117C25.0183 5.56777 24.934 5.22131 24.934 4.83176C24.934 4.44222 25.0183 4.09576 25.1869 3.79236C25.3592 3.48522 25.597 3.24738 25.9004 3.07883C26.2038 2.90653 26.5503 2.82038 26.9398 2.82038C27.4118 2.82038 27.8088 2.93462 28.1309 3.1631C28.4568 3.39158 28.6721 3.70809 28.777 4.11261H27.7151ZM30.3149 5.6071C30.3711 5.903 30.5434 6.05096 30.8318 6.05096C31.0303 6.05096 31.1708 5.96293 31.2532 5.78689C31.3356 5.61085 31.3768 5.32431 31.3768 4.92728C31.2944 5.04339 31.182 5.13329 31.0397 5.19696C30.8973 5.26064 30.7381 5.29247 30.5621 5.29247C30.3224 5.29247 30.1089 5.24378 29.9216 5.14639C29.7343 5.04526 29.5864 4.89731 29.4777 4.70254C29.3729 4.50403 29.3204 4.26431 29.3204 3.98339C29.3204 3.70621 29.3766 3.46462 29.489 3.25862C29.6051 3.05261 29.768 2.89342 29.9778 2.78105C30.1913 2.66868 30.4422 2.6125 30.7306 2.6125C31.285 2.6125 31.6727 2.7848 31.8937 3.12939C32.1146 3.47399 32.2251 3.98151 32.2251 4.65198C32.2251 5.1389 32.1802 5.54155 32.0903 5.85993C32.0041 6.17456 31.8562 6.41428 31.6464 6.57908C31.4404 6.74389 31.1576 6.82629 30.7981 6.82629C30.5134 6.82629 30.2699 6.77011 30.0677 6.65774C29.8692 6.54537 29.7156 6.39742 29.607 6.21389C29.5021 6.03036 29.4422 5.82809 29.4272 5.6071H30.3149ZM30.7812 4.53399C30.9385 4.53399 31.064 4.48717 31.1576 4.39353C31.2513 4.29614 31.2981 4.16505 31.2981 4.00024C31.2981 3.82045 31.2494 3.68187 31.152 3.58448C31.0546 3.4871 30.9235 3.4384 30.7587 3.4384C30.5939 3.4384 30.4628 3.48897 30.3654 3.5901C30.2718 3.68749 30.225 3.82233 30.225 3.99462C30.225 4.15568 30.2718 4.28678 30.3654 4.38791C30.4628 4.4853 30.6014 4.53399 30.7812 4.53399Z" fill="#0E000F"/>
<rect x="7.41968" y="2.77659" width="2.16456" height="9.17521" fill="#0E000F"/>
<rect x="35.4707" y="2.77659" width="2.16456" height="9.17521" fill="#0E000F"/>
</svg>
