<svg width="1682" height="50" viewBox="0 0 1682 50" fill="none" xmlns="http://www.w3.org/2000/svg">

<g filter="url(#filter0_i_561_4000)">
<path d="M0.764893 34.47H467.319C474.643 34.47 481.675 31.6002 486.908 26.4761L489.923 23.5239C495.156 18.3998 502.189 15.53 509.513 15.53H789.005C796.329 15.53 803.362 18.3998 808.595 23.5239L811.61 26.4761C816.843 31.6002 823.875 34.47 831.199 34.47H961.882H975.207H1249.01H1272.01H1681.43" stroke="#45596D" stroke-width="21"/>
</g>
<mask id="mask0_561_4000" style="mask-type:alpha" maskUnits="userSpaceOnUse" x="0" y="10" width="1682" height="36">
<path d="M0.931274 37.47H467.485C474.809 37.47 481.841 34.6002 487.075 29.4761L490.09 26.5239C495.323 21.3998 502.355 18.53 509.679 18.53H789.171C796.495 18.53 803.528 21.3998 808.761 26.5239L811.776 29.4761C817.009 34.6002 824.042 37.47 831.366 37.47H962.048H975.373H1249.18H1272.18H1681.6" stroke="black" stroke-width="17"/>
</mask>
<g mask="url(#mask0_561_4000)">
<g filter="url(#filter1_f_561_4000)">
<path d="M0.931274 37.47H467.485C474.809 37.47 481.841 34.6002 487.075 29.4761L490.09 26.5239C495.323 21.3998 502.355 18.53 509.679 18.53H789.171C796.495 18.53 803.528 21.3998 808.761 26.5239L811.776 29.4761C817.009 34.6002 824.042 37.47 831.366 37.47H962.048H975.373H1249.18H1272.18H1681.6" stroke="url(#paint0_linear_561_4000)" stroke-width="9"/>
</g>
<g filter="url(#filter2_f_561_4000)">
<path d="M0.931274 37.47H467.485C474.809 37.47 481.841 34.6002 487.075 29.4761L490.09 26.5239C495.323 21.3998 502.355 18.53 509.679 18.53H789.171C796.495 18.53 803.528 21.3998 808.761 26.5239L811.776 29.4761C817.009 34.6002 824.042 37.47 831.366 37.47H962.048H975.373H1249.18H1272.18H1681.6" stroke="url(#paint1_linear_561_4000)" stroke-width="9"/>
</g>
</g>
<g opacity="0.5" filter="url(#filter3_f_561_4000)">
<rect x="221.424" y="33.5769" width="5.4646" height="7.78619" fill="url(#paint2_linear_561_4000)"/>
<path fill-rule="evenodd" clip-rule="evenodd" d="M219.802 38.4572L218.59 41.3633H221.013L219.802 38.4572ZM220.213 37.4702L221.424 40.3768V34.5636L220.213 37.4702ZM219.802 36.4833L221.013 33.5771H218.59L219.802 36.4833ZM219.39 37.4702L218.179 34.5636V40.3768L219.39 37.4702Z" fill="#00B3FF"/>
<path fill-rule="evenodd" clip-rule="evenodd" d="M216.188 38.4572L214.977 41.3633H217.4L216.188 38.4572ZM216.6 37.4702L217.811 40.3768V34.5636L216.6 37.4702ZM216.188 36.4833L217.4 33.5771H214.977L216.188 36.4833ZM215.777 37.4702L214.566 34.5636V40.3768L215.777 37.4702Z" fill="#00B3FF"/>
<path fill-rule="evenodd" clip-rule="evenodd" d="M212.575 38.4572L211.364 41.3633H213.787L212.575 38.4572ZM212.987 37.4702L214.198 40.3768V34.5636L212.987 37.4702ZM212.575 36.4833L213.787 33.5771H211.364L212.575 36.4833ZM212.164 37.4702L210.953 34.5636V40.3768L212.164 37.4702Z" fill="#00B3FF"/>
<path fill-rule="evenodd" clip-rule="evenodd" d="M208.963 38.4572L207.751 41.3633H210.174L208.963 38.4572ZM209.374 37.4702L210.585 40.3768V34.5636L209.374 37.4702ZM208.963 36.4833L210.174 33.5771H207.751L208.963 36.4833ZM208.551 37.4702L207.34 34.5636V40.3768L208.551 37.4702Z" fill="#00B3FF"/>
<path fill-rule="evenodd" clip-rule="evenodd" d="M205.35 38.4572L204.138 41.3633H206.561L205.35 38.4572ZM205.761 37.4702L206.972 40.3768V34.5636L205.761 37.4702ZM205.35 36.4833L206.561 33.5771H204.138L205.35 36.4833ZM204.938 37.4702L203.727 34.5636V40.3768L204.938 37.4702Z" fill="#00B3FF"/>
<path fill-rule="evenodd" clip-rule="evenodd" d="M201.737 38.4572L200.525 41.3633H202.948L201.737 38.4572ZM202.148 37.4702L203.359 40.3768V34.5636L202.148 37.4702ZM201.737 36.4833L202.948 33.5771H200.525L201.737 36.4833ZM201.325 37.4702L200.114 34.5636V40.3768L201.325 37.4702Z" fill="#00B3FF"/>
<path fill-rule="evenodd" clip-rule="evenodd" d="M198.124 38.4572L196.912 41.3633H199.335L198.124 38.4572ZM198.535 37.4702L199.747 40.3768V34.5636L198.535 37.4702ZM198.124 36.4833L199.335 33.5771H196.912L198.124 36.4833ZM197.712 37.4702L196.501 34.5636V40.3768L197.712 37.4702Z" fill="#00B3FF"/>
<path fill-rule="evenodd" clip-rule="evenodd" d="M194.511 38.4572L193.299 41.3633H195.722L194.511 38.4572ZM194.922 37.4702L196.133 40.3768V34.5636L194.922 37.4702ZM194.511 36.4833L195.722 33.5771H193.299L194.511 36.4833ZM194.099 37.4702L192.888 34.5636V40.3768L194.099 37.4702Z" fill="#00B3FF"/>
<path fill-rule="evenodd" clip-rule="evenodd" d="M190.898 38.4572L189.687 41.3633H192.109L190.898 38.4572ZM191.309 37.4702L192.521 40.3768V34.5636L191.309 37.4702ZM190.898 36.4833L192.109 33.5771H189.687L190.898 36.4833ZM190.486 37.4702L189.275 34.5636V40.3768L190.486 37.4702Z" fill="#00B3FF"/>
<path fill-rule="evenodd" clip-rule="evenodd" d="M187.285 38.4572L186.074 41.3633H188.496L187.285 38.4572ZM187.696 37.4702L188.908 40.3768V34.5636L187.696 37.4702ZM187.285 36.4833L188.496 33.5771H186.074L187.285 36.4833ZM186.874 37.4702L185.662 34.5636V40.3768L186.874 37.4702Z" fill="#00B3FF"/>
<path fill-rule="evenodd" clip-rule="evenodd" d="M183.672 38.4572L182.461 41.3633H184.883L183.672 38.4572ZM184.083 37.4702L185.295 40.3768V34.5636L184.083 37.4702ZM183.672 36.4833L184.883 33.5771H182.461L183.672 36.4833ZM183.261 37.4702L182.049 34.5636V40.3768L183.261 37.4702Z" fill="#00B3FF"/>
<path fill-rule="evenodd" clip-rule="evenodd" d="M180.059 38.4572L178.848 41.3633H181.27L180.059 38.4572ZM180.47 37.4702L181.682 40.3768V34.5636L180.47 37.4702ZM180.059 36.4833L181.27 33.5771H178.848L180.059 36.4833ZM179.648 37.4702L178.436 34.5636V40.3768L179.648 37.4702Z" fill="#00B3FF"/>
<path fill-rule="evenodd" clip-rule="evenodd" d="M176.446 38.4572L175.235 41.3633H177.657L176.446 38.4572ZM176.857 37.4702L178.069 40.3768V34.5636L176.857 37.4702ZM176.446 36.4833L177.657 33.5771H175.235L176.446 36.4833ZM176.034 37.4702L174.823 34.5636V40.3768L176.034 37.4702Z" fill="#00B3FF"/>
<path fill-rule="evenodd" clip-rule="evenodd" d="M172.833 38.4572L171.622 41.3633H174.044L172.833 38.4572ZM173.244 37.4702L174.456 40.3768V34.5636L173.244 37.4702ZM172.833 36.4833L174.044 33.5771H171.622L172.833 36.4833ZM172.422 37.4702L171.21 34.5636V40.3768L172.422 37.4702Z" fill="#00B3FF"/>
<path fill-rule="evenodd" clip-rule="evenodd" d="M169.22 38.4572L168.009 41.3633H170.431L169.22 38.4572ZM169.631 37.4702L170.843 40.3768V34.5636L169.631 37.4702ZM169.22 36.4833L170.431 33.5771H168.009L169.22 36.4833ZM168.809 37.4702L167.597 34.5636V40.3768L168.809 37.4702Z" fill="#00B3FF"/>
<path fill-rule="evenodd" clip-rule="evenodd" d="M165.607 38.4572L164.396 41.3633H166.818L165.607 38.4572ZM166.019 37.4702L167.23 40.3768V34.5636L166.019 37.4702ZM165.607 36.4833L166.818 33.5771H164.396L165.607 36.4833ZM165.196 37.4702L163.984 34.5636V40.3768L165.196 37.4702Z" fill="#00B3FF"/>
<path fill-rule="evenodd" clip-rule="evenodd" d="M161.994 38.4572L160.783 41.3633H163.205L161.994 38.4572ZM162.405 37.4702L163.617 40.3768V34.5636L162.405 37.4702ZM161.994 36.4833L163.205 33.5771H160.783L161.994 36.4833ZM161.583 37.4702L160.371 34.5636V40.3768L161.583 37.4702Z" fill="#00B3FF"/>
<path fill-rule="evenodd" clip-rule="evenodd" d="M158.381 38.4572L157.17 41.3633H159.592L158.381 38.4572ZM158.792 37.4702L160.004 40.3768V34.5636L158.792 37.4702ZM158.381 36.4833L159.592 33.5771H157.17L158.381 36.4833ZM157.97 37.4702L156.758 34.5636V40.3768L157.97 37.4702Z" fill="#00B3FF"/>
<path fill-rule="evenodd" clip-rule="evenodd" d="M154.768 38.4572L153.557 41.3633H155.98L154.768 38.4572ZM155.18 37.4702L156.391 40.3768V34.5636L155.18 37.4702ZM154.768 36.4833L155.98 33.5771H153.557L154.768 36.4833ZM154.357 37.4702L153.146 34.5636V40.3768L154.357 37.4702Z" fill="#00B3FF"/>
<path fill-rule="evenodd" clip-rule="evenodd" d="M151.155 38.4572L149.944 41.3633H152.366L151.155 38.4572ZM151.567 37.4702L152.778 40.3768V34.5636L151.567 37.4702ZM151.155 36.4833L152.366 33.5771H149.944L151.155 36.4833ZM150.744 37.4702L149.532 34.5636V40.3768L150.744 37.4702Z" fill="#00B3FF"/>
<path fill-rule="evenodd" clip-rule="evenodd" d="M147.542 38.4572L146.331 41.3633H148.754L147.542 38.4572ZM147.954 37.4702L149.165 40.3768V34.5636L147.954 37.4702ZM147.542 36.4833L148.754 33.5771H146.331L147.542 36.4833ZM147.131 37.4702L145.92 34.5636V40.3768L147.131 37.4702Z" fill="#00B3FF"/>
<path fill-rule="evenodd" clip-rule="evenodd" d="M143.93 38.4572L142.718 41.3633H145.141L143.93 38.4572ZM144.341 37.4702L145.552 40.3768V34.5636L144.341 37.4702ZM143.93 36.4833L145.141 33.5771H142.718L143.93 36.4833ZM143.518 37.4702L142.307 34.5636V40.3768L143.518 37.4702Z" fill="#00B3FF"/>
<path fill-rule="evenodd" clip-rule="evenodd" d="M140.317 38.4572L139.105 41.3633H141.528L140.317 38.4572ZM140.728 37.4702L141.939 40.3768V34.5636L140.728 37.4702ZM140.317 36.4833L141.528 33.5771H139.105L140.317 36.4833ZM139.905 37.4702L138.694 34.5636V40.3768L139.905 37.4702Z" fill="#00B3FF"/>
<path fill-rule="evenodd" clip-rule="evenodd" d="M136.703 38.4572L135.492 41.3633H137.915L136.703 38.4572ZM137.115 37.4702L138.326 40.3768V34.5636L137.115 37.4702ZM136.703 36.4833L137.915 33.5771H135.492L136.703 36.4833ZM136.292 37.4702L135.081 34.5636V40.3768L136.292 37.4702Z" fill="#00B3FF"/>
<path fill-rule="evenodd" clip-rule="evenodd" d="M133.09 38.4572L131.879 41.3633H134.302L133.09 38.4572ZM133.502 37.4702L134.713 40.3768V34.5636L133.502 37.4702ZM133.09 36.4833L134.302 33.5771H131.879L133.09 36.4833ZM132.679 37.4702L131.468 34.5636V40.3768L132.679 37.4702Z" fill="#00B3FF"/>
<path fill-rule="evenodd" clip-rule="evenodd" d="M129.478 38.4572L128.266 41.3633H130.689L129.478 38.4572ZM129.889 37.4702L131.1 40.3768V34.5636L129.889 37.4702ZM129.478 36.4833L130.689 33.5771H128.266L129.478 36.4833ZM129.066 37.4702L127.855 34.5636V40.3768L129.066 37.4702Z" fill="#00B3FF"/>
<path fill-rule="evenodd" clip-rule="evenodd" d="M125.865 38.4572L124.653 41.3633H127.076L125.865 38.4572ZM126.276 37.4702L127.487 40.3768V34.5636L126.276 37.4702ZM125.865 36.4833L127.076 33.5771H124.653L125.865 36.4833ZM125.453 37.4702L124.242 34.5636V40.3768L125.453 37.4702Z" fill="#00B3FF"/>
<path fill-rule="evenodd" clip-rule="evenodd" d="M122.252 38.4572L121.041 41.3633H123.463L122.252 38.4572ZM122.663 37.4702L123.875 40.3768V34.5636L122.663 37.4702ZM122.252 36.4833L123.463 33.5771H121.041L122.252 36.4833ZM121.84 37.4702L120.629 34.5636V40.3768L121.84 37.4702Z" fill="#00B3FF"/>
<path fill-rule="evenodd" clip-rule="evenodd" d="M118.639 38.4572L117.427 41.3633H119.85L118.639 38.4572ZM119.05 37.4702L120.262 40.3768V34.5636L119.05 37.4702ZM118.639 36.4833L119.85 33.5771H117.427L118.639 36.4833ZM118.227 37.4702L117.016 34.5636V40.3768L118.227 37.4702Z" fill="#00B3FF"/>
<path fill-rule="evenodd" clip-rule="evenodd" d="M115.026 38.4572L113.815 41.3633H116.237L115.026 38.4572ZM115.437 37.4702L116.649 40.3768V34.5636L115.437 37.4702ZM115.026 36.4833L116.237 33.5771H113.815L115.026 36.4833ZM114.615 37.4702L113.403 34.5636V40.3768L114.615 37.4702Z" fill="#00B3FF"/>
<path fill-rule="evenodd" clip-rule="evenodd" d="M111.413 38.4572L110.202 41.3633H112.624L111.413 38.4572ZM111.824 37.4702L113.036 40.3768V34.5636L111.824 37.4702ZM111.413 36.4833L112.624 33.5771H110.202L111.413 36.4833ZM111.002 37.4702L109.79 34.5636V40.3768L111.002 37.4702Z" fill="#00B3FF"/>
<path fill-rule="evenodd" clip-rule="evenodd" d="M107.8 38.4572L106.589 41.3633H109.011L107.8 38.4572ZM108.211 37.4702L109.423 40.3768V34.5636L108.211 37.4702ZM107.8 36.4833L109.011 33.5771H106.589L107.8 36.4833ZM107.389 37.4702L106.177 34.5636V40.3768L107.389 37.4702Z" fill="#00B3FF"/>
<path fill-rule="evenodd" clip-rule="evenodd" d="M104.187 38.4572L102.976 41.3633H105.398L104.187 38.4572ZM104.598 37.4702L105.81 40.3768V34.5636L104.598 37.4702ZM104.187 36.4833L105.398 33.5771H102.976L104.187 36.4833ZM103.776 37.4702L102.564 34.5636V40.3768L103.776 37.4702Z" fill="#00B3FF"/>
<path fill-rule="evenodd" clip-rule="evenodd" d="M100.574 38.4572L99.3627 41.3633H101.785L100.574 38.4572ZM100.985 37.4702L102.197 40.3768V34.5636L100.985 37.4702ZM100.574 36.4833L101.785 33.5771H99.3627L100.574 36.4833ZM100.163 37.4702L98.9511 34.5636V40.3768L100.163 37.4702Z" fill="#00B3FF"/>
<path fill-rule="evenodd" clip-rule="evenodd" d="M96.9611 38.4572L95.7499 41.3633H98.1724L96.9611 38.4572ZM97.3725 37.4702L98.5839 40.3768V34.5636L97.3725 37.4702ZM96.9611 36.4833L98.1724 33.5771H95.7499L96.9611 36.4833ZM96.5498 37.4702L95.3383 34.5636V40.3768L96.5498 37.4702Z" fill="#00B3FF"/>
<path fill-rule="evenodd" clip-rule="evenodd" d="M93.3481 38.4572L92.1368 41.3633H94.5593L93.3481 38.4572ZM93.7594 37.4702L94.9709 40.3768V34.5636L93.7594 37.4702ZM93.3481 36.4833L94.5593 33.5771H92.1368L93.3481 36.4833ZM92.9367 37.4702L91.7253 34.5636V40.3768L92.9367 37.4702Z" fill="#00B3FF"/>
<path fill-rule="evenodd" clip-rule="evenodd" d="M89.7352 38.4572L88.524 41.3633H90.9465L89.7352 38.4572ZM90.1466 37.4702L91.358 40.3768V34.5636L90.1466 37.4702ZM89.7352 36.4833L90.9465 33.5771H88.524L89.7352 36.4833ZM89.3239 37.4702L88.1124 34.5636V40.3768L89.3239 37.4702Z" fill="#00B3FF"/>
<path fill-rule="evenodd" clip-rule="evenodd" d="M86.1222 38.4572L84.9109 41.3633H87.3334L86.1222 38.4572ZM86.5335 37.4702L87.745 40.3768V34.5636L86.5335 37.4702ZM86.1222 36.4833L87.3334 33.5771H84.9109L86.1222 36.4833ZM85.7108 37.4702L84.4994 34.5636V40.3768L85.7108 37.4702Z" fill="#00B3FF"/>
<path fill-rule="evenodd" clip-rule="evenodd" d="M82.5091 38.4572L81.2979 41.3633H83.7204L82.5091 38.4572ZM82.9205 37.4702L84.1319 40.3768V34.5636L82.9205 37.4702ZM82.5091 36.4833L83.7204 33.5771H81.2979L82.5091 36.4833ZM82.0978 37.4702L80.8864 34.5636V40.3768L82.0978 37.4702Z" fill="#00B3FF"/>
<path fill-rule="evenodd" clip-rule="evenodd" d="M78.8964 38.4572L77.6851 41.3633H80.1076L78.8964 38.4572ZM79.3077 37.4702L80.5191 40.3768V34.5636L79.3077 37.4702ZM78.8964 36.4833L80.1076 33.5771H77.6851L78.8964 36.4833ZM78.485 37.4702L77.2736 34.5636V40.3768L78.485 37.4702Z" fill="#00B3FF"/>
<path fill-rule="evenodd" clip-rule="evenodd" d="M75.2833 38.4572L74.072 41.3633H76.4945L75.2833 38.4572ZM75.6946 37.4702L76.906 40.3768V34.5636L75.6946 37.4702ZM75.2833 36.4833L76.4945 33.5771H74.072L75.2833 36.4833ZM74.8719 37.4702L73.6605 34.5636V40.3768L74.8719 37.4702Z" fill="#00B3FF"/>
<path fill-rule="evenodd" clip-rule="evenodd" d="M71.6705 38.4572L70.4592 41.3633H72.8817L71.6705 38.4572ZM72.0818 37.4702L73.2933 40.3768V34.5636L72.0818 37.4702ZM71.6705 36.4833L72.8817 33.5771H70.4592L71.6705 36.4833ZM71.2591 37.4702L70.0477 34.5636V40.3768L71.2591 37.4702Z" fill="#00B3FF"/>
<path fill-rule="evenodd" clip-rule="evenodd" d="M68.0574 38.4572L66.8462 41.3633H69.2687L68.0574 38.4572ZM68.4688 37.4702L69.6802 40.3768V34.5636L68.4688 37.4702ZM68.0574 36.4833L69.2687 33.5771H66.8462L68.0574 36.4833ZM67.6461 37.4702L66.4346 34.5636V40.3768L67.6461 37.4702Z" fill="#00B3FF"/>
<path fill-rule="evenodd" clip-rule="evenodd" d="M64.4443 38.4572L63.2331 41.3633H65.6556L64.4443 38.4572ZM64.8557 37.4702L66.0671 40.3768V34.5636L64.8557 37.4702ZM64.4443 36.4833L65.6556 33.5771H63.2331L64.4443 36.4833ZM64.033 37.4702L62.8215 34.5636V40.3768L64.033 37.4702Z" fill="#00B3FF"/>
<path fill-rule="evenodd" clip-rule="evenodd" d="M60.8315 38.4572L59.6203 41.3633H62.0428L60.8315 38.4572ZM61.2429 37.4702L62.4543 40.3768V34.5636L61.2429 37.4702ZM60.8315 36.4833L62.0428 33.5771H59.6203L60.8315 36.4833ZM60.4202 37.4702L59.2087 34.5636V40.3768L60.4202 37.4702Z" fill="#00B3FF"/>
<path fill-rule="evenodd" clip-rule="evenodd" d="M57.2185 38.4572L56.0072 41.3633H58.4297L57.2185 38.4572ZM57.6298 37.4702L58.8413 40.3768V34.5636L57.6298 37.4702ZM57.2185 36.4833L58.4297 33.5771H56.0072L57.2185 36.4833ZM56.8071 37.4702L55.5957 34.5636V40.3768L56.8071 37.4702Z" fill="#00B3FF"/>
<path fill-rule="evenodd" clip-rule="evenodd" d="M53.6057 38.4572L52.3945 41.3633H54.817L53.6057 38.4572ZM54.0171 37.4702L55.2285 40.3768V34.5636L54.0171 37.4702ZM53.6057 36.4833L54.817 33.5771H52.3945L53.6057 36.4833ZM53.1943 37.4702L51.9829 34.5636V40.3768L53.1943 37.4702Z" fill="#00B3FF"/>
<path fill-rule="evenodd" clip-rule="evenodd" d="M49.9926 38.4572L48.7814 41.3633H51.2039L49.9926 38.4572ZM50.404 37.4702L51.6154 40.3768V34.5636L50.404 37.4702ZM49.9926 36.4833L51.2039 33.5771H48.7814L49.9926 36.4833ZM49.5813 37.4702L48.3698 34.5636V40.3768L49.5813 37.4702Z" fill="#00B3FF"/>
<path fill-rule="evenodd" clip-rule="evenodd" d="M46.3798 38.4572L45.1686 41.3633H47.5911L46.3798 38.4572ZM46.7912 37.4702L48.0026 40.3768V34.5636L46.7912 37.4702ZM46.3798 36.4833L47.5911 33.5771H45.1686L46.3798 36.4833ZM45.9685 37.4702L44.757 34.5636V40.3768L45.9685 37.4702Z" fill="#00B3FF"/>
<path fill-rule="evenodd" clip-rule="evenodd" d="M42.7668 38.4572L41.5555 41.3633H43.978L42.7668 38.4572ZM43.1781 37.4702L44.3896 40.3768V34.5636L43.1781 37.4702ZM42.7668 36.4833L43.978 33.5771H41.5555L42.7668 36.4833ZM42.3554 37.4702L41.144 34.5636V40.3768L42.3554 37.4702Z" fill="#00B3FF"/>
<path fill-rule="evenodd" clip-rule="evenodd" d="M39.1537 38.4572L37.9424 41.3633H40.3649L39.1537 38.4572ZM39.565 37.4702L40.7765 40.3768V34.5636L39.565 37.4702ZM39.1537 36.4833L40.3649 33.5771H37.9424L39.1537 36.4833ZM38.7423 37.4702L37.5309 34.5636V40.3768L38.7423 37.4702Z" fill="#00B3FF"/>
<path fill-rule="evenodd" clip-rule="evenodd" d="M35.5404 38.4578L34.3291 41.3639H36.7516L35.5404 38.4578ZM35.9517 37.4709L37.1632 40.3774V34.5643L35.9517 37.4709ZM35.5404 36.4839L36.7516 33.5778H34.3291L35.5404 36.4839ZM35.129 37.4709L33.9176 34.5643V40.3774L35.129 37.4709Z" fill="#00B3FF"/>
<path fill-rule="evenodd" clip-rule="evenodd" d="M31.9278 38.4572L30.7166 41.3633H33.1391L31.9278 38.4572ZM32.3392 37.4702L33.5506 40.3768V34.5636L32.3392 37.4702ZM31.9278 36.4833L33.1391 33.5771H30.7166L31.9278 36.4833ZM31.5165 37.4702L30.3051 34.5636V40.3768L31.5165 37.4702Z" fill="#00B3FF"/>
<path fill-rule="evenodd" clip-rule="evenodd" d="M28.3148 38.4572L27.1036 41.3633H29.5261L28.3148 38.4572ZM28.7262 37.4702L29.9376 40.3768V34.5636L28.7262 37.4702ZM28.3148 36.4833L29.5261 33.5771H27.1036L28.3148 36.4833ZM27.9035 37.4702L26.692 34.5636V40.3768L27.9035 37.4702Z" fill="#00B3FF"/>
<path fill-rule="evenodd" clip-rule="evenodd" d="M24.702 38.4572L23.4907 41.3633H25.9132L24.702 38.4572ZM25.1133 37.4702L26.3247 40.3768V34.5636L25.1133 37.4702ZM24.702 36.4833L25.9132 33.5771H23.4907L24.702 36.4833ZM24.2906 37.4702L23.0792 34.5636V40.3768L24.2906 37.4702Z" fill="#00B3FF"/>
<path fill-rule="evenodd" clip-rule="evenodd" d="M21.0892 38.4571L19.8779 41.3632H22.3004L21.0892 38.4571ZM21.5005 37.4701L22.712 40.3767V34.5635L21.5005 37.4701ZM21.0892 36.4832L22.3004 33.577H19.8779L21.0892 36.4832ZM20.6778 37.4701L19.4664 34.5635V40.3767L20.6778 37.4701Z" fill="#00B3FF"/>
<path fill-rule="evenodd" clip-rule="evenodd" d="M17.4761 38.4572L16.2649 41.3633H18.6874L17.4761 38.4572ZM17.8875 37.4702L19.0989 40.3768V34.5636L17.8875 37.4702ZM17.4761 36.4833L18.6874 33.5771H16.2649L17.4761 36.4833ZM17.0648 37.4702L15.8533 34.5636V40.3768L17.0648 37.4702Z" fill="#00B3FF"/>
<path fill-rule="evenodd" clip-rule="evenodd" d="M13.8633 38.4572L12.6521 41.3633H15.0746L13.8633 38.4572ZM14.2747 37.4702L15.4861 40.3768V34.5636L14.2747 37.4702ZM13.8633 36.4833L15.0746 33.5771H12.6521L13.8633 36.4833ZM13.452 37.4702L12.2405 34.5636V40.3768L13.452 37.4702Z" fill="#00B3FF"/>
<path fill-rule="evenodd" clip-rule="evenodd" d="M10.2502 38.4572L9.03899 41.3633H11.4615L10.2502 38.4572ZM10.6616 37.4702L11.873 40.3768V34.5636L10.6616 37.4702ZM10.2502 36.4833L11.4615 33.5771H9.03899L10.2502 36.4833ZM9.83888 37.4702L8.62744 34.5636V40.3768L9.83888 37.4702Z" fill="#00B3FF"/>
<path fill-rule="evenodd" clip-rule="evenodd" d="M6.6375 38.4573L5.42625 41.3634H7.84875L6.6375 38.4573ZM7.04886 37.4703L8.2603 40.3769V34.5637L7.04886 37.4703ZM6.6375 36.4833L7.84875 33.5772H5.42625L6.6375 36.4833ZM6.22615 37.4703L5.01471 34.5637V40.3769L6.22615 37.4703Z" fill="#00B3FF"/>
</g>
<rect x="221.424" y="33.5769" width="5.4646" height="7.78619" fill="url(#paint3_linear_561_4000)"/>
<path fill-rule="evenodd" clip-rule="evenodd" d="M219.802 38.4572L218.59 41.3633H221.013L219.802 38.4572ZM220.213 37.4702L221.424 40.3768V34.5636L220.213 37.4702ZM219.802 36.4833L221.013 33.5771H218.59L219.802 36.4833ZM219.39 37.4702L218.179 34.5636V40.3768L219.39 37.4702Z" fill="#00B3FF"/>
<path fill-rule="evenodd" clip-rule="evenodd" d="M216.188 38.4572L214.977 41.3633H217.4L216.188 38.4572ZM216.6 37.4702L217.811 40.3768V34.5636L216.6 37.4702ZM216.188 36.4833L217.4 33.5771H214.977L216.188 36.4833ZM215.777 37.4702L214.566 34.5636V40.3768L215.777 37.4702Z" fill="#00B3FF"/>
<path fill-rule="evenodd" clip-rule="evenodd" d="M212.575 38.4572L211.364 41.3633H213.787L212.575 38.4572ZM212.987 37.4702L214.198 40.3768V34.5636L212.987 37.4702ZM212.575 36.4833L213.787 33.5771H211.364L212.575 36.4833ZM212.164 37.4702L210.953 34.5636V40.3768L212.164 37.4702Z" fill="#00B3FF"/>
<path fill-rule="evenodd" clip-rule="evenodd" d="M208.963 38.4572L207.751 41.3633H210.174L208.963 38.4572ZM209.374 37.4702L210.585 40.3768V34.5636L209.374 37.4702ZM208.963 36.4833L210.174 33.5771H207.751L208.963 36.4833ZM208.551 37.4702L207.34 34.5636V40.3768L208.551 37.4702Z" fill="#00B3FF"/>
<path fill-rule="evenodd" clip-rule="evenodd" d="M205.35 38.4572L204.138 41.3633H206.561L205.35 38.4572ZM205.761 37.4702L206.972 40.3768V34.5636L205.761 37.4702ZM205.35 36.4833L206.561 33.5771H204.138L205.35 36.4833ZM204.938 37.4702L203.727 34.5636V40.3768L204.938 37.4702Z" fill="#00B3FF"/>
<path fill-rule="evenodd" clip-rule="evenodd" d="M201.737 38.4572L200.525 41.3633H202.948L201.737 38.4572ZM202.148 37.4702L203.359 40.3768V34.5636L202.148 37.4702ZM201.737 36.4833L202.948 33.5771H200.525L201.737 36.4833ZM201.325 37.4702L200.114 34.5636V40.3768L201.325 37.4702Z" fill="#00B3FF"/>
<path fill-rule="evenodd" clip-rule="evenodd" d="M198.124 38.4572L196.912 41.3633H199.335L198.124 38.4572ZM198.535 37.4702L199.747 40.3768V34.5636L198.535 37.4702ZM198.124 36.4833L199.335 33.5771H196.912L198.124 36.4833ZM197.712 37.4702L196.501 34.5636V40.3768L197.712 37.4702Z" fill="#00B3FF"/>
<path fill-rule="evenodd" clip-rule="evenodd" d="M194.511 38.4572L193.299 41.3633H195.722L194.511 38.4572ZM194.922 37.4702L196.133 40.3768V34.5636L194.922 37.4702ZM194.511 36.4833L195.722 33.5771H193.299L194.511 36.4833ZM194.099 37.4702L192.888 34.5636V40.3768L194.099 37.4702Z" fill="#00B3FF"/>
<path fill-rule="evenodd" clip-rule="evenodd" d="M190.898 38.4572L189.687 41.3633H192.109L190.898 38.4572ZM191.309 37.4702L192.521 40.3768V34.5636L191.309 37.4702ZM190.898 36.4833L192.109 33.5771H189.687L190.898 36.4833ZM190.486 37.4702L189.275 34.5636V40.3768L190.486 37.4702Z" fill="#00B3FF"/>
<path fill-rule="evenodd" clip-rule="evenodd" d="M187.285 38.4572L186.074 41.3633H188.496L187.285 38.4572ZM187.696 37.4702L188.908 40.3768V34.5636L187.696 37.4702ZM187.285 36.4833L188.496 33.5771H186.074L187.285 36.4833ZM186.874 37.4702L185.662 34.5636V40.3768L186.874 37.4702Z" fill="#00B3FF"/>
<path fill-rule="evenodd" clip-rule="evenodd" d="M183.672 38.4572L182.461 41.3633H184.883L183.672 38.4572ZM184.083 37.4702L185.295 40.3768V34.5636L184.083 37.4702ZM183.672 36.4833L184.883 33.5771H182.461L183.672 36.4833ZM183.261 37.4702L182.049 34.5636V40.3768L183.261 37.4702Z" fill="#00B3FF"/>
<path fill-rule="evenodd" clip-rule="evenodd" d="M180.059 38.4572L178.848 41.3633H181.27L180.059 38.4572ZM180.47 37.4702L181.682 40.3768V34.5636L180.47 37.4702ZM180.059 36.4833L181.27 33.5771H178.848L180.059 36.4833ZM179.648 37.4702L178.436 34.5636V40.3768L179.648 37.4702Z" fill="#00B3FF"/>
<path fill-rule="evenodd" clip-rule="evenodd" d="M176.446 38.4572L175.235 41.3633H177.657L176.446 38.4572ZM176.857 37.4702L178.069 40.3768V34.5636L176.857 37.4702ZM176.446 36.4833L177.657 33.5771H175.235L176.446 36.4833ZM176.034 37.4702L174.823 34.5636V40.3768L176.034 37.4702Z" fill="#00B3FF"/>
<path fill-rule="evenodd" clip-rule="evenodd" d="M172.833 38.4572L171.622 41.3633H174.044L172.833 38.4572ZM173.244 37.4702L174.456 40.3768V34.5636L173.244 37.4702ZM172.833 36.4833L174.044 33.5771H171.622L172.833 36.4833ZM172.422 37.4702L171.21 34.5636V40.3768L172.422 37.4702Z" fill="#00B3FF"/>
<path fill-rule="evenodd" clip-rule="evenodd" d="M169.22 38.4572L168.009 41.3633H170.431L169.22 38.4572ZM169.631 37.4702L170.843 40.3768V34.5636L169.631 37.4702ZM169.22 36.4833L170.431 33.5771H168.009L169.22 36.4833ZM168.809 37.4702L167.597 34.5636V40.3768L168.809 37.4702Z" fill="#00B3FF"/>
<path fill-rule="evenodd" clip-rule="evenodd" d="M165.607 38.4572L164.396 41.3633H166.818L165.607 38.4572ZM166.019 37.4702L167.23 40.3768V34.5636L166.019 37.4702ZM165.607 36.4833L166.818 33.5771H164.396L165.607 36.4833ZM165.196 37.4702L163.984 34.5636V40.3768L165.196 37.4702Z" fill="#00B3FF"/>
<path fill-rule="evenodd" clip-rule="evenodd" d="M161.994 38.4572L160.783 41.3633H163.205L161.994 38.4572ZM162.405 37.4702L163.617 40.3768V34.5636L162.405 37.4702ZM161.994 36.4833L163.205 33.5771H160.783L161.994 36.4833ZM161.583 37.4702L160.371 34.5636V40.3768L161.583 37.4702Z" fill="#00B3FF"/>
<path fill-rule="evenodd" clip-rule="evenodd" d="M158.381 38.4572L157.17 41.3633H159.592L158.381 38.4572ZM158.792 37.4702L160.004 40.3768V34.5636L158.792 37.4702ZM158.381 36.4833L159.592 33.5771H157.17L158.381 36.4833ZM157.97 37.4702L156.758 34.5636V40.3768L157.97 37.4702Z" fill="#00B3FF"/>
<path fill-rule="evenodd" clip-rule="evenodd" d="M154.768 38.4572L153.557 41.3633H155.98L154.768 38.4572ZM155.18 37.4702L156.391 40.3768V34.5636L155.18 37.4702ZM154.768 36.4833L155.98 33.5771H153.557L154.768 36.4833ZM154.357 37.4702L153.146 34.5636V40.3768L154.357 37.4702Z" fill="#00B3FF"/>
<path fill-rule="evenodd" clip-rule="evenodd" d="M151.155 38.4572L149.944 41.3633H152.366L151.155 38.4572ZM151.567 37.4702L152.778 40.3768V34.5636L151.567 37.4702ZM151.155 36.4833L152.366 33.5771H149.944L151.155 36.4833ZM150.744 37.4702L149.532 34.5636V40.3768L150.744 37.4702Z" fill="#00B3FF"/>
<path fill-rule="evenodd" clip-rule="evenodd" d="M147.542 38.4572L146.331 41.3633H148.754L147.542 38.4572ZM147.954 37.4702L149.165 40.3768V34.5636L147.954 37.4702ZM147.542 36.4833L148.754 33.5771H146.331L147.542 36.4833ZM147.131 37.4702L145.92 34.5636V40.3768L147.131 37.4702Z" fill="#00B3FF"/>
<path fill-rule="evenodd" clip-rule="evenodd" d="M143.93 38.4572L142.718 41.3633H145.141L143.93 38.4572ZM144.341 37.4702L145.552 40.3768V34.5636L144.341 37.4702ZM143.93 36.4833L145.141 33.5771H142.718L143.93 36.4833ZM143.518 37.4702L142.307 34.5636V40.3768L143.518 37.4702Z" fill="#00B3FF"/>
<path fill-rule="evenodd" clip-rule="evenodd" d="M140.317 38.4572L139.105 41.3633H141.528L140.317 38.4572ZM140.728 37.4702L141.939 40.3768V34.5636L140.728 37.4702ZM140.317 36.4833L141.528 33.5771H139.105L140.317 36.4833ZM139.905 37.4702L138.694 34.5636V40.3768L139.905 37.4702Z" fill="#00B3FF"/>
<path fill-rule="evenodd" clip-rule="evenodd" d="M136.703 38.4572L135.492 41.3633H137.915L136.703 38.4572ZM137.115 37.4702L138.326 40.3768V34.5636L137.115 37.4702ZM136.703 36.4833L137.915 33.5771H135.492L136.703 36.4833ZM136.292 37.4702L135.081 34.5636V40.3768L136.292 37.4702Z" fill="#00B3FF"/>
<path fill-rule="evenodd" clip-rule="evenodd" d="M133.09 38.4572L131.879 41.3633H134.302L133.09 38.4572ZM133.502 37.4702L134.713 40.3768V34.5636L133.502 37.4702ZM133.09 36.4833L134.302 33.5771H131.879L133.09 36.4833ZM132.679 37.4702L131.468 34.5636V40.3768L132.679 37.4702Z" fill="#00B3FF"/>
<path fill-rule="evenodd" clip-rule="evenodd" d="M129.478 38.4572L128.266 41.3633H130.689L129.478 38.4572ZM129.889 37.4702L131.1 40.3768V34.5636L129.889 37.4702ZM129.478 36.4833L130.689 33.5771H128.266L129.478 36.4833ZM129.066 37.4702L127.855 34.5636V40.3768L129.066 37.4702Z" fill="#00B3FF"/>
<path fill-rule="evenodd" clip-rule="evenodd" d="M125.865 38.4572L124.653 41.3633H127.076L125.865 38.4572ZM126.276 37.4702L127.487 40.3768V34.5636L126.276 37.4702ZM125.865 36.4833L127.076 33.5771H124.653L125.865 36.4833ZM125.453 37.4702L124.242 34.5636V40.3768L125.453 37.4702Z" fill="#00B3FF"/>
<path fill-rule="evenodd" clip-rule="evenodd" d="M122.252 38.4572L121.041 41.3633H123.463L122.252 38.4572ZM122.663 37.4702L123.875 40.3768V34.5636L122.663 37.4702ZM122.252 36.4833L123.463 33.5771H121.041L122.252 36.4833ZM121.84 37.4702L120.629 34.5636V40.3768L121.84 37.4702Z" fill="#00B3FF"/>
<path fill-rule="evenodd" clip-rule="evenodd" d="M118.639 38.4572L117.427 41.3633H119.85L118.639 38.4572ZM119.05 37.4702L120.262 40.3768V34.5636L119.05 37.4702ZM118.639 36.4833L119.85 33.5771H117.427L118.639 36.4833ZM118.227 37.4702L117.016 34.5636V40.3768L118.227 37.4702Z" fill="#00B3FF"/>
<path fill-rule="evenodd" clip-rule="evenodd" d="M115.026 38.4572L113.815 41.3633H116.237L115.026 38.4572ZM115.437 37.4702L116.649 40.3768V34.5636L115.437 37.4702ZM115.026 36.4833L116.237 33.5771H113.815L115.026 36.4833ZM114.615 37.4702L113.403 34.5636V40.3768L114.615 37.4702Z" fill="#00B3FF"/>
<path fill-rule="evenodd" clip-rule="evenodd" d="M111.413 38.4572L110.202 41.3633H112.624L111.413 38.4572ZM111.824 37.4702L113.036 40.3768V34.5636L111.824 37.4702ZM111.413 36.4833L112.624 33.5771H110.202L111.413 36.4833ZM111.002 37.4702L109.79 34.5636V40.3768L111.002 37.4702Z" fill="#00B3FF"/>
<path fill-rule="evenodd" clip-rule="evenodd" d="M107.8 38.4572L106.589 41.3633H109.011L107.8 38.4572ZM108.211 37.4702L109.423 40.3768V34.5636L108.211 37.4702ZM107.8 36.4833L109.011 33.5771H106.589L107.8 36.4833ZM107.389 37.4702L106.177 34.5636V40.3768L107.389 37.4702Z" fill="#00B3FF"/>
<path fill-rule="evenodd" clip-rule="evenodd" d="M104.187 38.4572L102.976 41.3633H105.398L104.187 38.4572ZM104.598 37.4702L105.81 40.3768V34.5636L104.598 37.4702ZM104.187 36.4833L105.398 33.5771H102.976L104.187 36.4833ZM103.776 37.4702L102.564 34.5636V40.3768L103.776 37.4702Z" fill="#00B3FF"/>
<path fill-rule="evenodd" clip-rule="evenodd" d="M100.574 38.4572L99.3627 41.3633H101.785L100.574 38.4572ZM100.985 37.4702L102.197 40.3768V34.5636L100.985 37.4702ZM100.574 36.4833L101.785 33.5771H99.3627L100.574 36.4833ZM100.163 37.4702L98.9511 34.5636V40.3768L100.163 37.4702Z" fill="#00B3FF"/>
<path fill-rule="evenodd" clip-rule="evenodd" d="M96.9611 38.4572L95.7499 41.3633H98.1724L96.9611 38.4572ZM97.3725 37.4702L98.5839 40.3768V34.5636L97.3725 37.4702ZM96.9611 36.4833L98.1724 33.5771H95.7499L96.9611 36.4833ZM96.5498 37.4702L95.3383 34.5636V40.3768L96.5498 37.4702Z" fill="#00B3FF"/>
<path fill-rule="evenodd" clip-rule="evenodd" d="M93.3481 38.4572L92.1368 41.3633H94.5593L93.3481 38.4572ZM93.7594 37.4702L94.9709 40.3768V34.5636L93.7594 37.4702ZM93.3481 36.4833L94.5593 33.5771H92.1368L93.3481 36.4833ZM92.9367 37.4702L91.7253 34.5636V40.3768L92.9367 37.4702Z" fill="#00B3FF"/>
<path fill-rule="evenodd" clip-rule="evenodd" d="M89.7352 38.4572L88.524 41.3633H90.9465L89.7352 38.4572ZM90.1466 37.4702L91.358 40.3768V34.5636L90.1466 37.4702ZM89.7352 36.4833L90.9465 33.5771H88.524L89.7352 36.4833ZM89.3239 37.4702L88.1124 34.5636V40.3768L89.3239 37.4702Z" fill="#00B3FF"/>
<path fill-rule="evenodd" clip-rule="evenodd" d="M86.1222 38.4572L84.9109 41.3633H87.3334L86.1222 38.4572ZM86.5335 37.4702L87.745 40.3768V34.5636L86.5335 37.4702ZM86.1222 36.4833L87.3334 33.5771H84.9109L86.1222 36.4833ZM85.7108 37.4702L84.4994 34.5636V40.3768L85.7108 37.4702Z" fill="#00B3FF"/>
<path fill-rule="evenodd" clip-rule="evenodd" d="M82.5091 38.4572L81.2979 41.3633H83.7204L82.5091 38.4572ZM82.9205 37.4702L84.1319 40.3768V34.5636L82.9205 37.4702ZM82.5091 36.4833L83.7204 33.5771H81.2979L82.5091 36.4833ZM82.0978 37.4702L80.8864 34.5636V40.3768L82.0978 37.4702Z" fill="#00B3FF"/>
<path fill-rule="evenodd" clip-rule="evenodd" d="M78.8964 38.4572L77.6851 41.3633H80.1076L78.8964 38.4572ZM79.3077 37.4702L80.5191 40.3768V34.5636L79.3077 37.4702ZM78.8964 36.4833L80.1076 33.5771H77.6851L78.8964 36.4833ZM78.485 37.4702L77.2736 34.5636V40.3768L78.485 37.4702Z" fill="#00B3FF"/>
<path fill-rule="evenodd" clip-rule="evenodd" d="M75.2833 38.4572L74.072 41.3633H76.4945L75.2833 38.4572ZM75.6946 37.4702L76.906 40.3768V34.5636L75.6946 37.4702ZM75.2833 36.4833L76.4945 33.5771H74.072L75.2833 36.4833ZM74.8719 37.4702L73.6605 34.5636V40.3768L74.8719 37.4702Z" fill="#00B3FF"/>
<path fill-rule="evenodd" clip-rule="evenodd" d="M71.6705 38.4572L70.4592 41.3633H72.8817L71.6705 38.4572ZM72.0818 37.4702L73.2933 40.3768V34.5636L72.0818 37.4702ZM71.6705 36.4833L72.8817 33.5771H70.4592L71.6705 36.4833ZM71.2591 37.4702L70.0477 34.5636V40.3768L71.2591 37.4702Z" fill="#00B3FF"/>
<path fill-rule="evenodd" clip-rule="evenodd" d="M68.0574 38.4572L66.8462 41.3633H69.2687L68.0574 38.4572ZM68.4688 37.4702L69.6802 40.3768V34.5636L68.4688 37.4702ZM68.0574 36.4833L69.2687 33.5771H66.8462L68.0574 36.4833ZM67.6461 37.4702L66.4346 34.5636V40.3768L67.6461 37.4702Z" fill="#00B3FF"/>
<path fill-rule="evenodd" clip-rule="evenodd" d="M64.4443 38.4572L63.2331 41.3633H65.6556L64.4443 38.4572ZM64.8557 37.4702L66.0671 40.3768V34.5636L64.8557 37.4702ZM64.4443 36.4833L65.6556 33.5771H63.2331L64.4443 36.4833ZM64.033 37.4702L62.8215 34.5636V40.3768L64.033 37.4702Z" fill="#00B3FF"/>
<path fill-rule="evenodd" clip-rule="evenodd" d="M60.8315 38.4572L59.6203 41.3633H62.0428L60.8315 38.4572ZM61.2429 37.4702L62.4543 40.3768V34.5636L61.2429 37.4702ZM60.8315 36.4833L62.0428 33.5771H59.6203L60.8315 36.4833ZM60.4202 37.4702L59.2087 34.5636V40.3768L60.4202 37.4702Z" fill="#00B3FF"/>
<path fill-rule="evenodd" clip-rule="evenodd" d="M57.2185 38.4572L56.0072 41.3633H58.4297L57.2185 38.4572ZM57.6298 37.4702L58.8413 40.3768V34.5636L57.6298 37.4702ZM57.2185 36.4833L58.4297 33.5771H56.0072L57.2185 36.4833ZM56.8071 37.4702L55.5957 34.5636V40.3768L56.8071 37.4702Z" fill="#00B3FF"/>
<path fill-rule="evenodd" clip-rule="evenodd" d="M53.6057 38.4572L52.3945 41.3633H54.817L53.6057 38.4572ZM54.0171 37.4702L55.2285 40.3768V34.5636L54.0171 37.4702ZM53.6057 36.4833L54.817 33.5771H52.3945L53.6057 36.4833ZM53.1943 37.4702L51.9829 34.5636V40.3768L53.1943 37.4702Z" fill="#00B3FF"/>
<path fill-rule="evenodd" clip-rule="evenodd" d="M49.9926 38.4572L48.7814 41.3633H51.2039L49.9926 38.4572ZM50.404 37.4702L51.6154 40.3768V34.5636L50.404 37.4702ZM49.9926 36.4833L51.2039 33.5771H48.7814L49.9926 36.4833ZM49.5813 37.4702L48.3698 34.5636V40.3768L49.5813 37.4702Z" fill="#00B3FF"/>
<path fill-rule="evenodd" clip-rule="evenodd" d="M46.3798 38.4572L45.1686 41.3633H47.5911L46.3798 38.4572ZM46.7912 37.4702L48.0026 40.3768V34.5636L46.7912 37.4702ZM46.3798 36.4833L47.5911 33.5771H45.1686L46.3798 36.4833ZM45.9685 37.4702L44.757 34.5636V40.3768L45.9685 37.4702Z" fill="#00B3FF"/>
<path fill-rule="evenodd" clip-rule="evenodd" d="M42.7668 38.4572L41.5555 41.3633H43.978L42.7668 38.4572ZM43.1781 37.4702L44.3896 40.3768V34.5636L43.1781 37.4702ZM42.7668 36.4833L43.978 33.5771H41.5555L42.7668 36.4833ZM42.3554 37.4702L41.144 34.5636V40.3768L42.3554 37.4702Z" fill="#00B3FF"/>
<path fill-rule="evenodd" clip-rule="evenodd" d="M39.1537 38.4572L37.9424 41.3633H40.3649L39.1537 38.4572ZM39.565 37.4702L40.7765 40.3768V34.5636L39.565 37.4702ZM39.1537 36.4833L40.3649 33.5771H37.9424L39.1537 36.4833ZM38.7423 37.4702L37.5309 34.5636V40.3768L38.7423 37.4702Z" fill="#00B3FF"/>
<path fill-rule="evenodd" clip-rule="evenodd" d="M35.5404 38.4578L34.3291 41.3639H36.7516L35.5404 38.4578ZM35.9517 37.4709L37.1632 40.3774V34.5643L35.9517 37.4709ZM35.5404 36.4839L36.7516 33.5778H34.3291L35.5404 36.4839ZM35.129 37.4709L33.9176 34.5643V40.3774L35.129 37.4709Z" fill="#00B3FF"/>
<path fill-rule="evenodd" clip-rule="evenodd" d="M31.9278 38.4572L30.7166 41.3633H33.1391L31.9278 38.4572ZM32.3392 37.4702L33.5506 40.3768V34.5636L32.3392 37.4702ZM31.9278 36.4833L33.1391 33.5771H30.7166L31.9278 36.4833ZM31.5165 37.4702L30.3051 34.5636V40.3768L31.5165 37.4702Z" fill="#00B3FF"/>
<path fill-rule="evenodd" clip-rule="evenodd" d="M28.3148 38.4572L27.1036 41.3633H29.5261L28.3148 38.4572ZM28.7262 37.4702L29.9376 40.3768V34.5636L28.7262 37.4702ZM28.3148 36.4833L29.5261 33.5771H27.1036L28.3148 36.4833ZM27.9035 37.4702L26.692 34.5636V40.3768L27.9035 37.4702Z" fill="#00B3FF"/>
<path fill-rule="evenodd" clip-rule="evenodd" d="M24.702 38.4572L23.4907 41.3633H25.9132L24.702 38.4572ZM25.1133 37.4702L26.3247 40.3768V34.5636L25.1133 37.4702ZM24.702 36.4833L25.9132 33.5771H23.4907L24.702 36.4833ZM24.2906 37.4702L23.0792 34.5636V40.3768L24.2906 37.4702Z" fill="#00B3FF"/>
<path fill-rule="evenodd" clip-rule="evenodd" d="M21.0892 38.4571L19.8779 41.3632H22.3004L21.0892 38.4571ZM21.5005 37.4701L22.712 40.3767V34.5635L21.5005 37.4701ZM21.0892 36.4832L22.3004 33.577H19.8779L21.0892 36.4832ZM20.6778 37.4701L19.4664 34.5635V40.3767L20.6778 37.4701Z" fill="#00B3FF"/>
<path fill-rule="evenodd" clip-rule="evenodd" d="M17.4761 38.4572L16.2649 41.3633H18.6874L17.4761 38.4572ZM17.8875 37.4702L19.0989 40.3768V34.5636L17.8875 37.4702ZM17.4761 36.4833L18.6874 33.5771H16.2649L17.4761 36.4833ZM17.0648 37.4702L15.8533 34.5636V40.3768L17.0648 37.4702Z" fill="#00B3FF"/>
<path fill-rule="evenodd" clip-rule="evenodd" d="M13.8633 38.4572L12.6521 41.3633H15.0746L13.8633 38.4572ZM14.2747 37.4702L15.4861 40.3768V34.5636L14.2747 37.4702ZM13.8633 36.4833L15.0746 33.5771H12.6521L13.8633 36.4833ZM13.452 37.4702L12.2405 34.5636V40.3768L13.452 37.4702Z" fill="#00B3FF"/>
<path fill-rule="evenodd" clip-rule="evenodd" d="M10.2502 38.4572L9.03899 41.3633H11.4615L10.2502 38.4572ZM10.6616 37.4702L11.873 40.3768V34.5636L10.6616 37.4702ZM10.2502 36.4833L11.4615 33.5771H9.03899L10.2502 36.4833ZM9.83888 37.4702L8.62744 34.5636V40.3768L9.83888 37.4702Z" fill="#00B3FF"/>
<path fill-rule="evenodd" clip-rule="evenodd" d="M6.6375 38.4573L5.42625 41.3634H7.84875L6.6375 38.4573ZM7.04886 37.4703L8.2603 40.3769V34.5637L7.04886 37.4703ZM6.6375 36.4833L7.84875 33.5772H5.42625L6.6375 36.4833ZM6.22615 37.4703L5.01471 34.5637V40.3769L6.22615 37.4703Z" fill="#00B3FF"/>
<defs>
<filter id="filter0_i_561_4000" x="0.764893" y="5.03003" width="1680.66" height="43.9399" filterUnits="userSpaceOnUse" color-interpolation-filters="sRGB">
<feFlood flood-opacity="0" result="BackgroundImageFix"/>
<feBlend mode="normal" in="SourceGraphic" in2="BackgroundImageFix" result="shape"/>
<feColorMatrix in="SourceAlpha" type="matrix" values="0 0 0 0 0 0 0 0 0 0 0 0 0 0 0 0 0 0 127 0" result="hardAlpha"/>
<feOffset dy="4"/>
<feGaussianBlur stdDeviation="2"/>
<feComposite in2="hardAlpha" operator="arithmetic" k2="-1" k3="1"/>
<feColorMatrix type="matrix" values="0 0 0 0 0.141667 0 0 0 0 0.141667 0 0 0 0 0.141667 0 0 0 1 0"/>
<feBlend mode="normal" in2="shape" result="effect1_innerShadow_561_4000"/>
</filter>
<filter id="filter1_f_561_4000" x="-24.0687" y="-10.97" width="1730.66" height="77.9399" filterUnits="userSpaceOnUse" color-interpolation-filters="sRGB">
<feFlood flood-opacity="0" result="BackgroundImageFix"/>
<feBlend mode="normal" in="SourceGraphic" in2="BackgroundImageFix" result="shape"/>
<feGaussianBlur stdDeviation="12.5" result="effect1_foregroundBlur_561_4000"/>
</filter>
<filter id="filter2_f_561_4000" x="-3.06873" y="10.03" width="1688.66" height="35.9399" filterUnits="userSpaceOnUse" color-interpolation-filters="sRGB">
<feFlood flood-opacity="0" result="BackgroundImageFix"/>
<feBlend mode="normal" in="SourceGraphic" in2="BackgroundImageFix" result="shape"/>
<feGaussianBlur stdDeviation="2" result="effect1_foregroundBlur_561_4000"/>
</filter>
<filter id="filter3_f_561_4000" x="3.4817" y="32.0439" width="224.94" height="10.8531" filterUnits="userSpaceOnUse" color-interpolation-filters="sRGB">
<feFlood flood-opacity="0" result="BackgroundImageFix"/>
<feBlend mode="normal" in="SourceGraphic" in2="BackgroundImageFix" result="shape"/>
<feGaussianBlur stdDeviation="0.766507" result="effect1_foregroundBlur_561_4000"/>
</filter>
<linearGradient id="paint0_linear_561_4000" x1="0.931274" y1="28" x2="1681.6" y2="28" gradientUnits="userSpaceOnUse">
<stop stop-color="#FFCB87" stop-opacity="0"/>
<stop offset="0.26817" stop-color="#FFCB87" stop-opacity="0"/>
<stop offset="0.280854" stop-color="#FF0000"/>
<stop offset="0.303157" stop-color="#FF0000"/>
<stop offset="0.331837" stop-color="#FFCB87" stop-opacity="0"/>
<stop offset="0.437147" stop-color="#FFCB87" stop-opacity="0"/>
<stop offset="0.459716" stop-color="#FF0000"/>
<stop offset="0.502713" stop-color="#FF0000"/>
<stop offset="0.514921" stop-color="#FFCB87" stop-opacity="0"/>
<stop offset="1" stop-color="#FFCB87" stop-opacity="0"/>
</linearGradient>
<linearGradient id="paint1_linear_561_4000" x1="0.931274" y1="28" x2="1681.6" y2="28" gradientUnits="userSpaceOnUse">
<stop stop-color="#FFCB87" stop-opacity="0"/>
<stop offset="0.262575" stop-color="#FFCB87" stop-opacity="0"/>
<stop offset="0.278003" stop-color="#FF0000"/>
<stop offset="0.309525" stop-color="#FF0000"/>
<stop offset="0.325914" stop-color="#FFCB87" stop-opacity="0"/>
<stop offset="0.440732" stop-color="#FFCB87" stop-opacity="0"/>
<stop offset="0.464827" stop-color="#FF0000"/>
<stop offset="0.499384" stop-color="#FF0000"/>
<stop offset="0.513016" stop-color="#FFCB87" stop-opacity="0"/>
<stop offset="1" stop-color="#FFCB87" stop-opacity="0"/>
</linearGradient>
<linearGradient id="paint2_linear_561_4000" x1="221.424" y1="37.47" x2="226.889" y2="37.47" gradientUnits="userSpaceOnUse">
<stop stop-color="#97FF05"/>
<stop offset="1" stop-color="#008E0A"/>
</linearGradient>
<linearGradient id="paint3_linear_561_4000" x1="221.424" y1="37.47" x2="226.889" y2="37.47" gradientUnits="userSpaceOnUse">
<stop stop-color="#97FF05"/>
<stop offset="1" stop-color="#008E0A"/>
</linearGradient>
</defs>
</svg>
