<svg width="128" height="106" viewBox="0 0 128 106" fill="none" xmlns="http://www.w3.org/2000/svg">
<rect x="2.76431" y="2.8207" width="82.4581" height="86.307" stroke="#E6E6E6" stroke-width="5.21026"/>
<path d="M25.0873 73.1487H62.8994C67.2157 73.1487 70.7148 69.6496 70.7148 65.3333V47.7917C70.7148 46.5961 70.4405 45.4164 69.9129 44.3434L59.5012 23.1671C58.1868 20.4937 55.4668 18.8 52.4877 18.8H43.9934H35.499C32.52 18.8 29.8 20.4937 28.4855 23.1671L18.0738 44.3434C17.5463 45.4164 17.272 46.5961 17.272 47.7917V65.3333C17.272 69.6496 20.771 73.1487 25.0873 73.1487Z" fill="#E6E6E6"/>
<path d="M44.8359 69.8547V86.4979C44.8359 90.5059 46.3343 94.3692 49.0368 97.3291V97.3291C52.0804 100.663 56.3859 102.562 60.8997 102.562H66.4843C74.2379 102.562 81.6621 99.4272 87.0698 93.8707L96.5507 84.1288C99.9788 80.6063 104.685 78.6193 109.601 78.6193V78.6193C113.361 78.6193 117.03 79.7836 120.102 81.9523L126.282 86.315" stroke="#E6E6E6" stroke-width="5.21026"/>
</svg>
