<svg width="203" height="173" viewBox="0 0 203 173" fill="none" xmlns="http://www.w3.org/2000/svg">
<mask id="path-1-inside-1_809_26075" fill="white">
<path fill-rule="evenodd" clip-rule="evenodd" d="M172.865 172.529C190.884 154.311 202.01 129.261 202.01 101.613C202.01 45.9155 156.859 0.764038 101.162 0.764038C45.4645 0.764038 0.312988 45.9155 0.312988 101.613C0.312988 129.261 11.4393 154.311 29.4587 172.529H172.865Z"/>
</mask>
<path d="M172.865 172.529V185.555H178.302L182.126 181.689L172.865 172.529ZM29.4587 172.529L20.1978 181.689L24.0214 185.555H29.4587V172.529ZM188.985 101.613C188.985 125.694 179.309 147.491 163.604 163.369L182.126 181.689C202.459 161.132 215.036 132.828 215.036 101.613H188.985ZM101.162 13.7897C149.665 13.7897 188.985 53.1094 188.985 101.613H215.036C215.036 38.7217 164.053 -12.2616 101.162 -12.2616V13.7897ZM13.3386 101.613C13.3386 53.1094 52.6584 13.7897 101.162 13.7897V-12.2616C38.2706 -12.2616 -12.7127 38.7217 -12.7127 101.613H13.3386ZM38.7195 163.369C23.0139 147.491 13.3386 125.694 13.3386 101.613H-12.7127C-12.7127 132.828 -0.135383 161.132 20.1978 181.689L38.7195 163.369ZM29.4587 185.555H172.865V159.504H29.4587V185.555Z" fill="#E6E6E6" mask="url(#path-1-inside-1_809_26075)"/>
<circle cx="53.1597" cy="147.74" r="7.3208" fill="#E6E6E6"/>
<circle cx="29.3662" cy="102.391" r="7.3208" fill="#E6E6E6"/>
<circle cx="101.163" cy="32.2322" r="7.3208" fill="#E6E6E6"/>
<circle cx="154.035" cy="52.9746" r="7.3208" fill="#E6E6E6"/>
<circle cx="171.118" cy="102.391" r="7.3208" fill="#E6E6E6"/>
<circle cx="146.714" cy="147.74" r="7.3208" fill="#E6E6E6"/>
<circle cx="33.6364" cy="129.031" r="3.05042" fill="#E6E6E6"/>
<circle cx="32.4166" cy="73.9208" r="3.05042" fill="#E6E6E6"/>
<circle cx="65.1574" cy="35.2827" r="3.05042" fill="#E6E6E6"/>
<circle cx="134.706" cy="36.5026" r="3.05042" fill="#E6E6E6"/>
<circle cx="166.848" cy="73.9208" r="3.05042" fill="#E6E6E6"/>
<circle cx="165.83" cy="129.031" r="3.05042" fill="#E6E6E6"/>
<rect x="92.9185" y="94.1473" width="16.4872" height="16.4872" rx="5.21026" fill="#E6E6E6"/>
<path d="M46.5181 48.9535C45.0805 49.0112 43.9619 50.2235 44.0197 51.6611L44.9614 75.0884C45.0192 76.526 46.2314 77.6445 47.669 77.5868C49.1066 77.529 50.2252 76.3167 50.1674 74.8791L49.3304 54.0549L70.1546 53.2179C71.5922 53.1601 72.7108 51.9478 72.653 50.5102C72.5952 49.0726 71.383 47.954 69.9454 48.0118L46.5181 48.9535ZM105.675 102.501L48.3894 49.6419L44.8561 53.4711L102.142 106.33L105.675 102.501Z" fill="#E6E6E6"/>
</svg>
