<svg width="164" height="84" viewBox="0 0 164 84" fill="none" xmlns="http://www.w3.org/2000/svg">
<path fill-rule="evenodd" clip-rule="evenodd" d="M147.276 5.41375C147.276 2.5362 144.943 0.203491 142.066 0.203491H6.11895C3.2414 0.203491 0.908691 2.5362 0.908691 5.41374V78.0527C0.908691 80.9303 3.2414 83.263 6.11894 83.263H142.066C144.943 83.263 147.276 80.9303 147.276 78.0527V61.6738C147.276 58.7962 149.609 56.4635 152.486 56.4635H157.897C160.775 56.4635 163.107 54.1308 163.107 51.2533V32.2133C163.107 29.3358 160.775 27.0031 157.897 27.0031H152.486C149.608 27.0031 147.276 24.6704 147.276 21.7928V5.41375Z" fill="#E6E6E6"/>
</svg>
