<svg width="158" height="97" viewBox="0 0 158 97" fill="none" xmlns="http://www.w3.org/2000/svg">
<path d="M83.9369 96.0366C60.7145 96.0366 37.4921 96.0226 14.2697 96.0647C12.7748 96.0647 11.5584 95.7414 10.551 94.6307C8.01612 91.8377 5.37447 89.1337 2.96959 86.2328C1.38182 84.3114 0.833986 81.9448 0.847914 79.3673C0.917554 66.6814 0.871127 53.9956 0.903626 41.305C0.903626 40.3396 1.08469 39.3227 1.41431 38.4135C5.06341 28.2629 8.75894 18.1311 12.4452 7.99924C13.6755 4.61571 14.734 3.87996 18.3599 3.87996C22.9932 3.87996 27.6265 3.83778 32.2599 3.90807C33.4762 3.92682 34.0798 3.55191 34.2516 2.34284C34.4698 0.740116 35.4169 0.149639 37.0325 0.163698C43.5739 0.22462 50.12 0.248052 56.6615 0.149639C58.4303 0.121521 59.7303 0.580781 60.5056 2.18351C61.1787 3.58472 62.214 3.95025 63.7229 3.91276C69.048 3.78623 74.3731 3.80498 79.6982 3.76748C82.2423 3.74874 83.5701 4.77036 84.5683 7.64308C88.3984 18.7028 93.6957 28.9659 100.878 38.1933C114.676 55.9216 132.624 66.8408 154.449 71.3443C157.142 71.902 157.151 71.8645 157.151 74.681C157.151 80.6467 157.156 86.6077 157.151 92.5734C157.146 95.6102 156.724 96.0366 153.776 96.0366C130.498 96.0366 107.215 96.0366 83.9369 96.0366ZM43.7364 35.5923C44.4885 35.5923 45.0503 35.5923 45.6167 35.5923C57.0236 35.5923 68.4352 35.5923 79.8421 35.5923C80.4224 35.5923 81.0956 35.7423 81.5552 35.4939C82.312 35.0862 83.4726 34.4348 83.5005 33.8397C83.6072 31.4731 83.7419 28.9799 83.1337 26.7352C81.6991 21.449 79.8003 16.294 78.1939 11.0547C77.7715 9.68163 77.0379 9.19425 75.6916 9.19894C67.061 9.22706 58.435 9.23643 49.8043 9.19894C48.6344 9.19425 48.2258 9.57853 48.0401 10.7454C47.3437 15.1271 46.5081 19.4854 45.742 23.8531C45.0735 27.6912 44.4282 31.5387 43.7364 35.597V35.5923ZM43.8293 9.39108C43.3789 9.3161 43.105 9.23174 42.8311 9.22706C34.5487 9.21769 26.2663 9.22706 17.9885 9.21768C16.6003 9.21768 15.7739 9.83159 15.2725 11.1813C12.9976 17.3016 10.6485 23.3938 8.33646 29.5001C7.94648 30.5358 7.4915 31.5621 7.25473 32.6353C6.87868 34.3364 7.84434 35.5877 9.45997 35.5877C18.9588 35.6017 28.4529 35.583 37.9517 35.6111C38.9452 35.6111 39.3445 35.3252 39.5116 34.2802C40.2359 29.786 41.0762 25.3105 41.8608 20.8257C42.5201 17.0439 43.1607 13.2573 43.8246 9.39108H43.8293ZM103.886 72.3332C104.025 71.6443 104.086 71.4803 104.086 71.3115C104.095 64.3008 104.123 57.2947 104.058 50.284C104.053 49.6373 103.584 48.8968 103.134 48.372C100.4 45.2087 97.5908 42.1063 94.847 38.9524C94.1135 38.1089 93.5099 37.1435 92.5768 35.8688C92.5768 45.6305 92.5675 54.9 92.6046 64.1743C92.6046 64.5632 92.8832 65.1022 93.1989 65.313C96.653 67.6234 100.144 69.8822 103.886 72.3285V72.3332ZM116.974 78.0364C116.974 76.9586 116.974 76.3306 116.974 75.6979C116.974 71.0257 116.881 66.3487 117.02 61.6811C117.076 59.8722 116.477 58.8365 114.982 57.8993C112.879 56.5777 110.948 54.975 108.951 53.4801C108.376 53.0489 107.828 52.585 107.155 52.0507C107.02 52.4772 106.927 52.6318 106.927 52.7818C106.918 59.3801 106.904 65.9785 106.927 72.5815C106.927 72.9892 107.113 73.6406 107.396 73.7719C110.469 75.1965 113.575 76.5368 116.974 78.0317V78.0364ZM119.796 61.2406V74.8357C119.796 78.9268 119.792 78.9456 123.701 80.1781C125.53 80.7545 127.387 81.2513 129.425 81.8417C129.425 76.6165 129.439 71.7708 129.397 66.9298C129.397 66.5643 129.063 66.0347 128.738 65.8613C125.888 64.343 123.009 62.8902 119.796 61.2406ZM78.1475 65.0506C78.129 61.7186 75.4919 59.0427 72.205 59.024C68.8716 59.0052 66.1417 61.7702 66.1603 65.1443C66.1835 68.4669 68.8251 71.1335 72.1214 71.1522C75.5059 71.171 78.1661 68.4763 78.1475 65.0506ZM20.6905 65.0366C20.6626 61.7514 17.9606 59.038 14.7061 59.024C11.3449 59.0099 8.67073 61.7467 8.69858 65.1584C8.72644 68.5044 11.3402 71.1335 14.6597 71.1522C18.0163 71.171 20.723 68.4248 20.6951 65.0366H20.6905ZM139.56 84.1615C139.56 79.5595 139.569 75.2481 139.542 70.9366C139.542 70.632 139.374 70.14 139.161 70.0556C136.784 69.1137 134.379 68.2373 131.756 67.2579C131.756 72.2629 131.747 76.9258 131.779 81.5933C131.779 81.9167 132.067 82.465 132.313 82.5259C134.644 83.1023 136.997 83.5944 139.56 84.1615ZM141.408 70.7867C141.408 75.2809 141.394 79.522 141.44 83.7584C141.44 84.0443 141.854 84.527 142.132 84.5785C144.212 84.9441 146.306 85.2253 148.604 85.5627C148.604 81.3356 148.622 77.3803 148.571 73.4298C148.571 73.1111 148.126 72.6096 147.791 72.5066C145.804 71.9161 143.794 71.4193 141.412 70.7867H141.408ZM149.997 73.1439V85.7361C151.728 85.8813 153.358 86.0172 154.909 86.1485C155.053 85.7782 155.127 85.6705 155.127 85.5674C155.145 83.2945 155.169 81.0169 155.169 78.7441C155.172 75.6136 153.666 73.75 150.651 73.1533C150.484 73.1205 150.308 73.1533 149.997 73.1533V73.1439Z" fill="#E6E6E6"/>
</svg>
