<svg width="25" height="25" viewBox="0 0 25 25" fill="none" xmlns="http://www.w3.org/2000/svg">
<g clip-path="url(#clip0_308_98)">
<path d="M10.1395 13.3535H14.0465L14.6425 15.3535H9.54346L10.1395 13.3535ZM11.8925 7.46752L10.7355 11.3535H13.4505L12.2915 7.46752C12.2025 7.33152 11.9805 7.33052 11.8925 7.46752ZM1.53846 8.85552L8.59246 1.80152C10.5235 -0.129478 13.6545 -0.129478 15.5855 1.80152L22.6405 8.85652C24.5715 10.7875 24.5715 13.9185 22.6405 15.8505L15.5855 22.9055C13.6545 24.8365 10.5235 24.8365 8.59246 22.9055L1.53846 15.8495C-0.39254 13.9185 -0.39254 10.7875 1.53846 8.85652V8.85552ZM12.0915 5.36452C11.2025 5.36452 10.4205 5.86652 10.0505 6.67552L7.45646 15.3535H7.09046C6.53846 15.3535 6.09046 15.8015 6.09046 16.3535C6.09046 16.9055 6.53846 17.3535 7.09046 17.3535H17.0905C17.6425 17.3535 18.0905 16.9055 18.0905 16.3535C18.0905 15.8015 17.6425 15.3535 17.0905 15.3535H16.7285L14.1305 6.67552C13.7605 5.86652 12.9785 5.36452 12.0895 5.36452H12.0915Z" fill="#FFFF00"/>
</g>
<defs>
<clipPath id="clip0_308_98">
<rect width="24" height="24" fill="white" transform="translate(0.0914307 0.353516)"/>
</clipPath>
</defs>
</svg>
