<svg width="25" height="25" viewBox="0 0 25 25" fill="none" xmlns="http://www.w3.org/2000/svg">
<g clip-path="url(#clip0_308_102)">
<path d="M24.891 5.89551L16.473 14.3135C15.5344 15.2498 14.2628 15.7755 12.937 15.7755C11.6113 15.7755 10.3396 15.2498 9.40101 14.3135L0.983012 5.89551C0.969012 6.05351 0.937012 6.19651 0.937012 6.35351V18.3535C0.9386 19.6791 1.46589 20.95 2.40323 21.8873C3.34057 22.8246 4.61142 23.3519 5.93701 23.3535H19.937C21.2626 23.3519 22.5335 22.8246 23.4708 21.8873C24.4081 20.95 24.9354 19.6791 24.937 18.3535V6.35351C24.937 6.19651 24.905 6.05351 24.891 5.89551Z" fill="#00318A"/>
<path d="M15.0589 12.8995L24.1929 3.76452C23.7504 3.03083 23.1264 2.42355 22.3809 2.00125C21.6354 1.57894 20.7937 1.35586 19.9369 1.35352H5.93691C5.08013 1.35586 4.23841 1.57894 3.49293 2.00125C2.74746 2.42355 2.12339 3.03083 1.68091 3.76452L10.8149 12.8995C11.3785 13.4608 12.1415 13.776 12.9369 13.776C13.7323 13.776 14.4953 13.4608 15.0589 12.8995Z" fill="#00318A"/>
</g>
<defs>
<clipPath id="clip0_308_102">
<rect width="24" height="24" fill="white" transform="translate(0.937012 0.353516)"/>
</clipPath>
</defs>
</svg>
