<svg width="43" height="45" viewBox="0 0 43 45" fill="none" xmlns="http://www.w3.org/2000/svg">
<g filter="url(#filter0_d_308_2338)">
<rect x="4.04602" y="3.94971" width="34.7128" height="36" rx="12" fill="white" fill-opacity="0.06" style="mix-blend-mode:lighten" shape-rendering="crispEdges"/>
<rect x="4.04602" y="3.94971" width="34.7128" height="36" rx="12" fill="#5E5E5E" fill-opacity="0.18" style="mix-blend-mode:color-dodge" shape-rendering="crispEdges"/>
<rect x="4.04602" y="3.94971" width="34.7128" height="36" rx="12" fill="url(#paint0_radial_308_2338)" shape-rendering="crispEdges"/>
<rect x="4.04602" y="3.94971" width="34.7128" height="36" rx="12" fill="url(#paint1_radial_308_2338)" style="mix-blend-mode:color-dodge" shape-rendering="crispEdges"/>
<rect x="4.29602" y="4.19971" width="34.2128" height="35.5" rx="11.75" stroke="url(#paint2_linear_308_2338)" stroke-width="0.5" shape-rendering="crispEdges"/>
<g clip-path="url(#clip0_308_2338)">
<path d="M25.6937 14.5935H17.1112V17.6587H25.6937V14.5935Z" fill="white" fill-opacity="0.96"/>
<path d="M25.0806 23.7889H17.7242V29.3062H25.0806V23.7889Z" fill="white" fill-opacity="0.96"/>
<path d="M26.9197 18.8846H15.8851C15.3974 18.8846 14.9296 19.0784 14.5847 19.4233C14.2398 19.7682 14.046 20.236 14.046 20.7237V26.8541H16.4982V22.5628H26.3067V26.8541H28.7588V20.7237C28.7588 20.236 28.5651 19.7682 28.2202 19.4233C27.8753 19.0784 27.4075 18.8846 26.9197 18.8846ZM25.6937 21.3368H23.2415V20.1107H25.6937V21.3368Z" fill="white" fill-opacity="0.96"/>
</g>
</g>
<defs>
<filter id="filter0_d_308_2338" x="0.0460205" y="0.949707" width="42.7128" height="44" filterUnits="userSpaceOnUse" color-interpolation-filters="sRGB">
<feFlood flood-opacity="0" result="BackgroundImageFix"/>
<feColorMatrix in="SourceAlpha" type="matrix" values="0 0 0 0 0 0 0 0 0 0 0 0 0 0 0 0 0 0 127 0" result="hardAlpha"/>
<feOffset dy="1"/>
<feGaussianBlur stdDeviation="2"/>
<feComposite in2="hardAlpha" operator="out"/>
<feColorMatrix type="matrix" values="0 0 0 0 0 0 0 0 0 0 0 0 0 0 0 0 0 0 0.1 0"/>
<feBlend mode="normal" in2="BackgroundImageFix" result="effect1_dropShadow_308_2338"/>
<feBlend mode="normal" in="SourceGraphic" in2="effect1_dropShadow_308_2338" result="shape"/>
</filter>
<radialGradient id="paint0_radial_308_2338" cx="0" cy="0" r="1" gradientUnits="userSpaceOnUse" gradientTransform="translate(21.4024 39.9497) rotate(-89.7265) scale(36.0004 34.7156)">
<stop stop-color="white" stop-opacity="0.12"/>
<stop offset="0.6875" stop-color="white" stop-opacity="0"/>
</radialGradient>
<radialGradient id="paint1_radial_308_2338" cx="0" cy="0" r="1" gradientUnits="userSpaceOnUse" gradientTransform="translate(21.4024 39.9497) rotate(-89.7265) scale(36.0004 35.0849)">
<stop stop-color="#5E5E5E" stop-opacity="0.32"/>
<stop offset="0.738467" stop-color="#5E5E5E" stop-opacity="0"/>
</radialGradient>
<linearGradient id="paint2_linear_308_2338" x1="6.69361" y1="4.94971" x2="22.5416" y2="28.6188" gradientUnits="userSpaceOnUse">
<stop stop-color="white" stop-opacity="0.4"/>
<stop offset="0.51" stop-color="white" stop-opacity="0"/>
<stop offset="0.650663" stop-color="white" stop-opacity="0"/>
<stop offset="1" stop-color="white" stop-opacity="0.1"/>
</linearGradient>
<clipPath id="clip0_308_2338">
<rect width="14.7128" height="14.7128" fill="white" transform="translate(14.046 14.5933)"/>
</clipPath>
</defs>
</svg>
