<svg width="329" height="32" viewBox="0 0 329 32" fill="none" xmlns="http://www.w3.org/2000/svg">
<rect x="0.421143" y="0.0292969" width="24.1218" height="31.9419" rx="3" fill="black"/>
<rect x="198.09" y="0.0292969" width="24.1218" height="31.9419" rx="3" fill="black"/>
<rect x="246.738" y="0.0292969" width="24.1218" height="31.9419" rx="3" fill="#3D4436"/>
<path d="M246.738 24.0763L256.325 7.92383L261.273 7.92383L270.86 24.0763L264.056 24.0763L258.838 15.2246L253.58 24.0763L246.738 24.0763Z" fill="black"/>
<rect x="49.069" y="3.31836" width="11.1236" height="25.3628" rx="3" fill="black"/>
<rect x="49.9718" y="4.54346" width="9.31805" height="9.12236" rx="4.56118" fill="#05FF16"/>
<rect x="295.386" y="0.0334778" width="32.6419" height="31.9373" fill="#999999"/>
<path d="M295.386 31.9711V29.6199L307.037 16.0002L295.386 2.38057V0.0292969H302.685L311.752 10.5435L320.728 0.0292969H328.028V2.38057L316.331 16.0002L328.028 29.5755V31.9711H320.728L311.661 21.5013L302.685 31.9711H295.386Z" fill="white"/>
<path fill-rule="evenodd" clip-rule="evenodd" d="M85.4364 0.905304C86.3319 0.0290428 87.7634 0.0290428 88.6589 0.905304L95.2477 7.35283C96.004 8.09289 97.0201 8.50732 98.0782 8.50732H111.563C112.621 8.50732 113.638 8.09289 114.394 7.35283L120.983 0.905304C121.878 0.0290428 123.31 0.0290426 124.205 0.905303C125.128 1.80884 125.128 3.29489 124.205 4.19843L114.466 13.7282C113.688 14.4896 113.25 15.5322 113.25 16.6207V23.369C113.25 24.418 112.843 25.426 112.114 26.1805L107.889 30.5554C106.329 32.1706 103.752 32.2069 102.147 30.6365L97.6079 26.1947C96.8299 25.4334 96.3914 24.3907 96.3914 23.3022V16.6206C96.3914 15.532 95.9529 14.4894 95.1749 13.7281L85.4364 4.19843C84.5131 3.29489 84.5131 1.80884 85.4364 0.905304Z" fill="black"/>
<path fill-rule="evenodd" clip-rule="evenodd" d="M173.564 20.6155L161.507 0.178711L149.449 20.6155H160.51V31.8208H162.502V20.6155H173.564Z" fill="black"/>
</svg>
