<svg width="267" height="32" viewBox="0 0 267 32" fill="none" xmlns="http://www.w3.org/2000/svg">
<rect x="145.786" y="0.0292969" width="32.6876" height="31.9419" fill="black"/>
<path d="M147.666 30.1352V1.8667H170.608C171.706 1.8667 172.697 2.12881 173.581 2.65303C174.491 3.17725 175.215 3.88495 175.75 4.77612C176.313 5.66729 176.594 6.6371 176.594 7.68554V14.9984C176.594 16.0468 176.313 17.0167 175.75 17.9078C175.215 18.799 174.491 19.5067 173.581 20.0309C172.697 20.5551 171.706 20.8172 170.608 20.8172L153.893 20.8566V30.1352H147.666ZM153.893 14.6839H170.286V7.96075H153.893V14.6839Z" fill="#FF0900"/>
<rect x="66.4811" y="0.0292969" width="24.1218" height="31.9419" rx="3" fill="black"/>
<rect x="0.174072" y="3.31885" width="11.1236" height="25.3628" rx="3" fill="black"/>
<rect x="1.07703" y="4.54395" width="9.31805" height="9.12236" rx="4.56118" fill="#FF7700"/>
<rect x="233.657" y="0.0334778" width="32.6419" height="31.9373" fill="#999999"/>
<path d="M233.657 31.9711V29.6199L245.309 16.0002L233.657 2.38057V0.0292969H240.956L250.023 10.5435L259 0.0292969H266.299V2.38057L254.602 16.0002L266.299 29.5755V31.9711H259L249.933 21.5013L240.956 31.9711H233.657Z" fill="white"/>
</svg>
