<svg width="490" height="68" viewBox="0 0 490 68" fill="none" xmlns="http://www.w3.org/2000/svg">
<g opacity="0.2">
<g filter="url(#filter0_f_245_10951)">
<rect x="449.064" y="30.2114" width="10.5644" height="7.57751" fill="url(#paint0_linear_245_10951)"/>
<path fill-rule="evenodd" clip-rule="evenodd" d="M445.927 34.9607L443.585 37.7889H448.268L445.927 34.9607ZM446.722 34.0002L449.064 36.8289V31.1715L446.722 34.0002ZM445.927 33.0397L448.268 30.2114H443.585L445.927 33.0397ZM445.132 34.0002L442.79 31.1715V36.8289L445.132 34.0002Z" fill="#00B3FF"/>
<path fill-rule="evenodd" clip-rule="evenodd" d="M438.942 34.9607L436.601 37.7889H441.284L438.942 34.9607ZM439.738 34.0002L442.08 36.8289V31.1715L439.738 34.0002ZM438.942 33.0397L441.284 30.2114H436.601L438.942 33.0397ZM438.147 34.0002L435.805 31.1715V36.8289L438.147 34.0002Z" fill="#00B3FF"/>
<path fill-rule="evenodd" clip-rule="evenodd" d="M431.958 34.9607L429.616 37.7889H434.299L431.958 34.9607ZM432.753 34.0002L435.095 36.8289V31.1715L432.753 34.0002ZM431.958 33.0397L434.299 30.2114H429.616L431.958 33.0397ZM431.162 34.0002L428.82 31.1715V36.8289L431.162 34.0002Z" fill="#00B3FF"/>
<path fill-rule="evenodd" clip-rule="evenodd" d="M424.973 34.9607L422.631 37.7889H427.314L424.973 34.9607ZM425.768 34.0002L428.11 36.8289V31.1715L425.768 34.0002ZM424.973 33.0397L427.314 30.2114H422.631L424.973 33.0397ZM424.178 34.0002L421.836 31.1715V36.8289L424.178 34.0002Z" fill="#00B3FF"/>
<path fill-rule="evenodd" clip-rule="evenodd" d="M417.988 34.9607L415.646 37.7889H420.33L417.988 34.9607ZM418.783 34.0002L421.125 36.8289V31.1715L418.783 34.0002ZM417.988 33.0397L420.33 30.2114H415.646L417.988 33.0397ZM417.193 34.0002L414.851 31.1715V36.8289L417.193 34.0002Z" fill="#00B3FF"/>
<path fill-rule="evenodd" clip-rule="evenodd" d="M411.003 34.9607L408.662 37.7889H413.345L411.003 34.9607ZM411.799 34.0002L414.141 36.8289V31.1715L411.799 34.0002ZM411.003 33.0397L413.345 30.2114H408.662L411.003 33.0397ZM410.208 34.0002L407.866 31.1715V36.8289L410.208 34.0002Z" fill="#00B3FF"/>
<path fill-rule="evenodd" clip-rule="evenodd" d="M404.019 34.9607L401.677 37.7889H406.36L404.019 34.9607ZM404.814 34.0002L407.156 36.8289V31.1715L404.814 34.0002ZM404.019 33.0397L406.36 30.2114H401.677L404.019 33.0397ZM403.223 34.0002L400.881 31.1715V36.8289L403.223 34.0002Z" fill="#00B3FF"/>
<path fill-rule="evenodd" clip-rule="evenodd" d="M397.034 34.9607L394.692 37.7889H399.376L397.034 34.9607ZM397.829 34.0002L400.171 36.8289V31.1715L397.829 34.0002ZM397.034 33.0397L399.376 30.2114H394.692L397.034 33.0397ZM396.239 34.0002L393.897 31.1715V36.8289L396.239 34.0002Z" fill="#00B3FF"/>
<path fill-rule="evenodd" clip-rule="evenodd" d="M390.049 34.9607L387.707 37.7889H392.391L390.049 34.9607ZM390.844 34.0002L393.186 36.8289V31.1715L390.844 34.0002ZM390.049 33.0397L392.391 30.2114H387.707L390.049 33.0397ZM389.254 34.0002L386.912 31.1715V36.8289L389.254 34.0002Z" fill="#00B3FF"/>
<path fill-rule="evenodd" clip-rule="evenodd" d="M383.064 34.9607L380.723 37.7889H385.406L383.064 34.9607ZM383.86 34.0002L386.202 36.8289V31.1715L383.86 34.0002ZM383.064 33.0397L385.406 30.2114H380.723L383.064 33.0397ZM382.269 34.0002L379.927 31.1715V36.8289L382.269 34.0002Z" fill="#00B3FF"/>
<path fill-rule="evenodd" clip-rule="evenodd" d="M376.08 34.9607L373.738 37.7889H378.421L376.08 34.9607ZM376.875 34.0002L379.217 36.8289V31.1715L376.875 34.0002ZM376.08 33.0397L378.421 30.2114H373.738L376.08 33.0397ZM375.284 34.0002L372.942 31.1715V36.8289L375.284 34.0002Z" fill="#00B3FF"/>
<path fill-rule="evenodd" clip-rule="evenodd" d="M369.095 34.9607L366.753 37.7889H371.437L369.095 34.9607ZM369.89 34.0002L372.232 36.8289V31.1715L369.89 34.0002ZM369.095 33.0397L371.437 30.2114H366.753L369.095 33.0397ZM368.3 34.0002L365.958 31.1715V36.8289L368.3 34.0002Z" fill="#00B3FF"/>
<path fill-rule="evenodd" clip-rule="evenodd" d="M362.11 34.9607L359.769 37.7889H364.452L362.11 34.9607ZM362.905 34.0002L365.247 36.8289V31.1715L362.905 34.0002ZM362.11 33.0397L364.452 30.2114H359.769L362.11 33.0397ZM361.315 34.0002L358.973 31.1715V36.8289L361.315 34.0002Z" fill="#00B3FF"/>
<path fill-rule="evenodd" clip-rule="evenodd" d="M355.125 34.9607L352.784 37.7889H357.467L355.125 34.9607ZM355.921 34.0002L358.263 36.8289V31.1715L355.921 34.0002ZM355.125 33.0397L357.467 30.2114H352.784L355.125 33.0397ZM354.33 34.0002L351.988 31.1715V36.8289L354.33 34.0002Z" fill="#00B3FF"/>
<path fill-rule="evenodd" clip-rule="evenodd" d="M348.141 34.9607L345.799 37.7889H350.482L348.141 34.9607ZM348.936 34.0002L351.278 36.8289V31.1715L348.936 34.0002ZM348.141 33.0397L350.482 30.2114H345.799L348.141 33.0397ZM347.345 34.0002L345.003 31.1715V36.8289L347.345 34.0002Z" fill="#00B3FF"/>
<path fill-rule="evenodd" clip-rule="evenodd" d="M341.156 34.9607L338.814 37.7889H343.497L341.156 34.9607ZM341.951 34.0002L344.293 36.8289V31.1715L341.951 34.0002ZM341.156 33.0397L343.497 30.2114H338.814L341.156 33.0397ZM340.361 34.0002L338.019 31.1715V36.8289L340.361 34.0002Z" fill="#00B3FF"/>
<path fill-rule="evenodd" clip-rule="evenodd" d="M334.171 34.9607L331.83 37.7889H336.513L334.171 34.9607ZM334.966 34.0002L337.308 36.8289V31.1715L334.966 34.0002ZM334.171 33.0397L336.513 30.2114H331.83L334.171 33.0397ZM333.376 34.0002L331.034 31.1715V36.8289L333.376 34.0002Z" fill="#00B3FF"/>
<path fill-rule="evenodd" clip-rule="evenodd" d="M327.187 34.9607L324.845 37.7889H329.528L327.187 34.9607ZM327.982 34.0002L330.324 36.8289V31.1715L327.982 34.0002ZM327.187 33.0397L329.528 30.2114H324.845L327.187 33.0397ZM326.391 34.0002L324.049 31.1715V36.8289L326.391 34.0002Z" fill="#00B3FF"/>
<path fill-rule="evenodd" clip-rule="evenodd" d="M320.202 34.9607L317.86 37.7889H322.543L320.202 34.9607ZM320.997 34.0002L323.339 36.8289V31.1715L320.997 34.0002ZM320.202 33.0397L322.543 30.2114H317.86L320.202 33.0397ZM319.406 34.0002L317.064 31.1715V36.8289L319.406 34.0002Z" fill="#00B3FF"/>
<path fill-rule="evenodd" clip-rule="evenodd" d="M313.217 34.9607L310.875 37.7889H315.559L313.217 34.9607ZM314.012 34.0002L316.354 36.8289V31.1715L314.012 34.0002ZM313.217 33.0397L315.559 30.2114H310.875L313.217 33.0397ZM312.422 34.0002L310.08 31.1715V36.8289L312.422 34.0002Z" fill="#00B3FF"/>
<path fill-rule="evenodd" clip-rule="evenodd" d="M306.232 34.9607L303.891 37.7889H308.574L306.232 34.9607ZM307.027 34.0002L309.37 36.8289V31.1715L307.027 34.0002ZM306.232 33.0397L308.574 30.2114H303.891L306.232 33.0397ZM305.437 34.0002L303.095 31.1715V36.8289L305.437 34.0002Z" fill="#00B3FF"/>
<path fill-rule="evenodd" clip-rule="evenodd" d="M299.247 34.9607L296.906 37.7889H301.589L299.247 34.9607ZM300.043 34.0002L302.385 36.8289V31.1715L300.043 34.0002ZM299.247 33.0397L301.589 30.2114H296.906L299.247 33.0397ZM298.452 34.0002L296.11 31.1715V36.8289L298.452 34.0002Z" fill="#00B3FF"/>
<path fill-rule="evenodd" clip-rule="evenodd" d="M292.263 34.9607L289.921 37.7889H294.604L292.263 34.9607ZM293.058 34.0002L295.4 36.8289V31.1715L293.058 34.0002ZM292.263 33.0397L294.604 30.2114H289.921L292.263 33.0397ZM291.468 34.0002L289.125 31.1715V36.8289L291.468 34.0002Z" fill="#00B3FF"/>
<path fill-rule="evenodd" clip-rule="evenodd" d="M285.278 34.9607L282.936 37.7889H287.62L285.278 34.9607ZM286.073 34.0002L288.415 36.8289V31.1715L286.073 34.0002ZM285.278 33.0397L287.62 30.2114H282.936L285.278 33.0397ZM284.483 34.0002L282.141 31.1715V36.8289L284.483 34.0002Z" fill="#00B3FF"/>
<path fill-rule="evenodd" clip-rule="evenodd" d="M278.293 34.9607L275.952 37.7889H280.635L278.293 34.9607ZM279.089 34.0002L281.431 36.8289V31.1715L279.089 34.0002ZM278.293 33.0397L280.635 30.2114H275.952L278.293 33.0397ZM277.498 34.0002L275.156 31.1715V36.8289L277.498 34.0002Z" fill="#00B3FF"/>
<path fill-rule="evenodd" clip-rule="evenodd" d="M271.309 34.9607L268.967 37.7889H273.65L271.309 34.9607ZM272.104 34.0002L274.446 36.8289V31.1715L272.104 34.0002ZM271.309 33.0397L273.65 30.2114H268.967L271.309 33.0397ZM270.513 34.0002L268.171 31.1715V36.8289L270.513 34.0002Z" fill="#00B3FF"/>
<path fill-rule="evenodd" clip-rule="evenodd" d="M264.324 34.9607L261.982 37.7889H266.665L264.324 34.9607ZM265.119 34.0002L267.461 36.8289V31.1715L265.119 34.0002ZM264.324 33.0397L266.665 30.2114H261.982L264.324 33.0397ZM263.529 34.0002L261.187 31.1715V36.8289L263.529 34.0002Z" fill="#00B3FF"/>
<path fill-rule="evenodd" clip-rule="evenodd" d="M257.339 34.9607L254.998 37.7889H259.681L257.339 34.9607ZM258.134 34.0002L260.476 36.8289V31.1715L258.134 34.0002ZM257.339 33.0397L259.681 30.2114H254.998L257.339 33.0397ZM256.544 34.0002L254.202 31.1715V36.8289L256.544 34.0002Z" fill="#00B3FF"/>
<path fill-rule="evenodd" clip-rule="evenodd" d="M250.354 34.9607L248.013 37.7889H252.696L250.354 34.9607ZM251.149 34.0002L253.491 36.8289V31.1715L251.149 34.0002ZM250.354 33.0397L252.696 30.2114H248.013L250.354 33.0397ZM249.559 34.0002L247.217 31.1715V36.8289L249.559 34.0002Z" fill="#00B3FF"/>
<path fill-rule="evenodd" clip-rule="evenodd" d="M243.37 34.9607L241.028 37.7889H245.711L243.37 34.9607ZM244.165 34.0002L246.507 36.8289V31.1715L244.165 34.0002ZM243.37 33.0397L245.711 30.2114H241.028L243.37 33.0397ZM242.574 34.0002L240.232 31.1715V36.8289L242.574 34.0002Z" fill="#00B3FF"/>
<path fill-rule="evenodd" clip-rule="evenodd" d="M236.385 34.9607L234.043 37.7889H238.726L236.385 34.9607ZM237.18 34.0002L239.522 36.8289V31.1715L237.18 34.0002ZM236.385 33.0397L238.726 30.2114H234.043L236.385 33.0397ZM235.59 34.0002L233.248 31.1715V36.8289L235.59 34.0002Z" fill="#00B3FF"/>
<path fill-rule="evenodd" clip-rule="evenodd" d="M229.4 34.9607L227.059 37.7889H231.742L229.4 34.9607ZM230.195 34.0002L232.537 36.8289V31.1715L230.195 34.0002ZM229.4 33.0397L231.742 30.2114H227.059L229.4 33.0397ZM228.605 34.0002L226.263 31.1715V36.8289L228.605 34.0002Z" fill="#00B3FF"/>
<path fill-rule="evenodd" clip-rule="evenodd" d="M222.415 34.9607L220.074 37.7889H224.757L222.415 34.9607ZM223.211 34.0002L225.553 36.8289V31.1715L223.211 34.0002ZM222.415 33.0397L224.757 30.2114H220.074L222.415 33.0397ZM221.62 34.0002L219.278 31.1715V36.8289L221.62 34.0002Z" fill="#00B3FF"/>
<path fill-rule="evenodd" clip-rule="evenodd" d="M215.431 34.9607L213.089 37.7889H217.772L215.431 34.9607ZM216.226 34.0002L218.568 36.8289V31.1715L216.226 34.0002ZM215.431 33.0397L217.772 30.2114H213.089L215.431 33.0397ZM214.636 34.0002L212.294 31.1715V36.8289L214.636 34.0002Z" fill="#00B3FF"/>
<path fill-rule="evenodd" clip-rule="evenodd" d="M208.446 34.9607L206.104 37.7889H210.788L208.446 34.9607ZM209.241 34.0002L211.583 36.8289V31.1715L209.241 34.0002ZM208.446 33.0397L210.788 30.2114H206.104L208.446 33.0397ZM207.651 34.0002L205.309 31.1715V36.8289L207.651 34.0002Z" fill="#00B3FF"/>
<path fill-rule="evenodd" clip-rule="evenodd" d="M201.461 34.9607L199.12 37.7889H203.803L201.461 34.9607ZM202.256 34.0002L204.599 36.8289V31.1715L202.256 34.0002ZM201.461 33.0397L203.803 30.2114H199.12L201.461 33.0397ZM200.666 34.0002L198.324 31.1715V36.8289L200.666 34.0002Z" fill="#00B3FF"/>
<path fill-rule="evenodd" clip-rule="evenodd" d="M194.476 34.9607L192.135 37.7889H196.818L194.476 34.9607ZM195.272 34.0002L197.614 36.8289V31.1715L195.272 34.0002ZM194.476 33.0397L196.818 30.2114H192.135L194.476 33.0397ZM193.681 34.0002L191.339 31.1715V36.8289L193.681 34.0002Z" fill="#00B3FF"/>
<path fill-rule="evenodd" clip-rule="evenodd" d="M187.492 34.9607L185.15 37.7889H189.833L187.492 34.9607ZM188.287 34.0002L190.629 36.8289V31.1715L188.287 34.0002ZM187.492 33.0397L189.833 30.2114H185.15L187.492 33.0397ZM186.697 34.0002L184.354 31.1715V36.8289L186.697 34.0002Z" fill="#00B3FF"/>
<path fill-rule="evenodd" clip-rule="evenodd" d="M180.507 34.9607L178.165 37.7889H182.849L180.507 34.9607ZM181.302 34.0002L183.644 36.8289V31.1715L181.302 34.0002ZM180.507 33.0397L182.849 30.2114H178.165L180.507 33.0397ZM179.712 34.0002L177.37 31.1715V36.8289L179.712 34.0002Z" fill="#00B3FF"/>
<path fill-rule="evenodd" clip-rule="evenodd" d="M173.522 34.9607L171.181 37.7889H175.864L173.522 34.9607ZM174.317 34.0002L176.659 36.8289V31.1715L174.317 34.0002ZM173.522 33.0397L175.864 30.2114H171.181L173.522 33.0397ZM172.727 34.0002L170.385 31.1715V36.8289L172.727 34.0002Z" fill="#00B3FF"/>
<path fill-rule="evenodd" clip-rule="evenodd" d="M166.538 34.9607L164.196 37.7889H168.879L166.538 34.9607ZM167.333 34.0002L169.675 36.8289V31.1715L167.333 34.0002ZM166.538 33.0397L168.879 30.2114H164.196L166.538 33.0397ZM165.742 34.0002L163.4 31.1715V36.8289L165.742 34.0002Z" fill="#00B3FF"/>
<path fill-rule="evenodd" clip-rule="evenodd" d="M159.553 34.9607L157.211 37.7889H161.894L159.553 34.9607ZM160.348 34.0002L162.69 36.8289V31.1715L160.348 34.0002ZM159.553 33.0397L161.894 30.2114H157.211L159.553 33.0397ZM158.757 34.0002L156.415 31.1715V36.8289L158.757 34.0002Z" fill="#00B3FF"/>
<path fill-rule="evenodd" clip-rule="evenodd" d="M152.568 34.9607L150.226 37.7889H154.91L152.568 34.9607ZM153.363 34.0002L155.705 36.8289V31.1715L153.363 34.0002ZM152.568 33.0397L154.91 30.2114H150.226L152.568 33.0397ZM151.773 34.0002L149.431 31.1715V36.8289L151.773 34.0002Z" fill="#00B3FF"/>
<path fill-rule="evenodd" clip-rule="evenodd" d="M145.583 34.9607L143.242 37.7889H147.925L145.583 34.9607ZM146.379 34.0002L148.721 36.8289V31.1715L146.379 34.0002ZM145.583 33.0397L147.925 30.2114H143.242L145.583 33.0397ZM144.788 34.0002L142.446 31.1715V36.8289L144.788 34.0002Z" fill="#00B3FF"/>
<path fill-rule="evenodd" clip-rule="evenodd" d="M138.599 34.9607L136.257 37.7889H140.94L138.599 34.9607ZM139.394 34.0002L141.736 36.8289V31.1715L139.394 34.0002ZM138.599 33.0397L140.94 30.2114H136.257L138.599 33.0397ZM137.803 34.0002L135.461 31.1715V36.8289L137.803 34.0002Z" fill="#00B3FF"/>
<path fill-rule="evenodd" clip-rule="evenodd" d="M131.614 34.9607L129.272 37.7889H133.955L131.614 34.9607ZM132.409 34.0002L134.751 36.8289V31.1715L132.409 34.0002ZM131.614 33.0397L133.955 30.2114H129.272L131.614 33.0397ZM130.819 34.0002L128.477 31.1715V36.8289L130.819 34.0002Z" fill="#00B3FF"/>
<path fill-rule="evenodd" clip-rule="evenodd" d="M124.629 34.9607L122.288 37.7889H126.971L124.629 34.9607ZM125.424 34.0002L127.766 36.8289V31.1715L125.424 34.0002ZM124.629 33.0397L126.971 30.2114H122.288L124.629 33.0397ZM123.834 34.0002L121.492 31.1715V36.8289L123.834 34.0002Z" fill="#00B3FF"/>
<path fill-rule="evenodd" clip-rule="evenodd" d="M117.644 34.9607L115.303 37.7889H119.986L117.644 34.9607ZM118.439 34.0002L120.781 36.8289V31.1715L118.439 34.0002ZM117.644 33.0397L119.986 30.2114H115.303L117.644 33.0397ZM116.849 34.0002L114.507 31.1715V36.8289L116.849 34.0002Z" fill="#00B3FF"/>
<path fill-rule="evenodd" clip-rule="evenodd" d="M110.659 34.9607L108.318 37.7889H113.001L110.659 34.9607ZM111.455 34.0002L113.797 36.8289V31.1715L111.455 34.0002ZM110.659 33.0397L113.001 30.2114H108.318L110.659 33.0397ZM109.864 34.0002L107.522 31.1715V36.8289L109.864 34.0002Z" fill="#00B3FF"/>
<path fill-rule="evenodd" clip-rule="evenodd" d="M103.675 34.9607L101.333 37.7889H106.016L103.675 34.9607ZM104.47 34.0002L106.812 36.8289V31.1715L104.47 34.0002ZM103.675 33.0397L106.016 30.2114H101.333L103.675 33.0397ZM102.879 34.0002L100.537 31.1715V36.8289L102.879 34.0002Z" fill="#00B3FF"/>
<path fill-rule="evenodd" clip-rule="evenodd" d="M96.69 34.9607L94.3484 37.7889H99.0316L96.69 34.9607ZM97.4852 34.0002L99.8273 36.8289V31.1715L97.4852 34.0002ZM96.69 33.0397L99.0316 30.2114H94.3484L96.69 33.0397ZM95.8947 34.0002L93.5527 31.1715V36.8289L95.8947 34.0002Z" fill="#00B3FF"/>
<path fill-rule="evenodd" clip-rule="evenodd" d="M89.7055 34.9607L87.3639 37.7889H92.0471L89.7055 34.9607ZM90.5008 34.0002L92.8428 36.8289V31.1715L90.5008 34.0002ZM89.7055 33.0397L92.0471 30.2114H87.3639L89.7055 33.0397ZM88.9103 34.0002L86.5682 31.1715V36.8289L88.9103 34.0002Z" fill="#00B3FF"/>
<path fill-rule="evenodd" clip-rule="evenodd" d="M82.7206 34.9607L80.379 37.7889H85.0623L82.7206 34.9607ZM83.5159 34.0002L85.8579 36.8289V31.1715L83.5159 34.0002ZM82.7206 33.0397L85.0623 30.2114H80.379L82.7206 33.0397ZM81.9254 34.0002L79.5834 31.1715V36.8289L81.9254 34.0002Z" fill="#00B3FF"/>
<path fill-rule="evenodd" clip-rule="evenodd" d="M75.736 34.9607L73.3944 37.7889H78.0777L75.736 34.9607ZM76.5313 34.0002L78.8733 36.8289V31.1715L76.5313 34.0002ZM75.736 33.0397L78.0777 30.2114H73.3944L75.736 33.0397ZM74.9408 34.0002L72.5988 31.1715V36.8289L74.9408 34.0002Z" fill="#00B3FF"/>
<path fill-rule="evenodd" clip-rule="evenodd" d="M68.7512 34.9607L66.4095 37.7889H71.0928L68.7512 34.9607ZM69.5464 34.0002L71.8884 36.8289V31.1715L69.5464 34.0002ZM68.7512 33.0397L71.0928 30.2114H66.4095L68.7512 33.0397ZM67.9559 34.0002L65.6139 31.1715V36.8289L67.9559 34.0002Z" fill="#00B3FF"/>
<path fill-rule="evenodd" clip-rule="evenodd" d="M61.7663 34.9609L59.4246 37.7891H64.1079L61.7663 34.9609ZM62.5615 34.0004L64.9036 36.8291V31.1717L62.5615 34.0004ZM61.7663 33.0399L64.1079 30.2116H59.4246L61.7663 33.0399ZM60.971 34.0004L58.629 31.1717V36.8291L60.971 34.0004Z" fill="#00B3FF"/>
<path fill-rule="evenodd" clip-rule="evenodd" d="M54.7818 34.9607L52.4401 37.7889H57.1234L54.7818 34.9607ZM55.577 34.0002L57.9191 36.8289V31.1715L55.577 34.0002ZM54.7818 33.0397L57.1234 30.2114H52.4401L54.7818 33.0397ZM53.9865 34.0002L51.6445 31.1715V36.8289L53.9865 34.0002Z" fill="#00B3FF"/>
<path fill-rule="evenodd" clip-rule="evenodd" d="M47.7969 34.9607L45.4553 37.7889H50.1386L47.7969 34.9607ZM48.5922 34.0002L50.9342 36.8289V31.1715L48.5922 34.0002ZM47.7969 33.0397L50.1386 30.2114H45.4553L47.7969 33.0397ZM47.0017 34.0002L44.6597 31.1715V36.8289L47.0017 34.0002Z" fill="#00B3FF"/>
<path fill-rule="evenodd" clip-rule="evenodd" d="M40.8122 34.9607L38.4705 37.7889H43.1538L40.8122 34.9607ZM41.6074 34.0002L43.9495 36.8289V31.1715L41.6074 34.0002ZM40.8122 33.0397L43.1538 30.2114H38.4705L40.8122 33.0397ZM40.0169 34.0002L37.6749 31.1715V36.8289L40.0169 34.0002Z" fill="#00B3FF"/>
<path fill-rule="evenodd" clip-rule="evenodd" d="M33.8276 34.9607L31.4859 37.7889H36.1692L33.8276 34.9607ZM34.6228 34.0002L36.9648 36.8289V31.1715L34.6228 34.0002ZM33.8276 33.0397L36.1692 30.2114H31.4859L33.8276 33.0397ZM33.0323 34.0002L30.6903 31.1715V36.8289L33.0323 34.0002Z" fill="#00B3FF"/>
</g>
<g filter="url(#filter1_f_245_10951)">
<rect x="449.064" y="30.2114" width="10.5644" height="7.57751" fill="url(#paint1_linear_245_10951)"/>
<path fill-rule="evenodd" clip-rule="evenodd" d="M445.927 34.9607L443.585 37.7889H448.268L445.927 34.9607ZM446.722 34.0002L449.064 36.8289V31.1715L446.722 34.0002ZM445.927 33.0397L448.268 30.2114H443.585L445.927 33.0397ZM445.132 34.0002L442.79 31.1715V36.8289L445.132 34.0002Z" fill="#00B3FF"/>
<path fill-rule="evenodd" clip-rule="evenodd" d="M438.942 34.9607L436.601 37.7889H441.284L438.942 34.9607ZM439.738 34.0002L442.08 36.8289V31.1715L439.738 34.0002ZM438.942 33.0397L441.284 30.2114H436.601L438.942 33.0397ZM438.147 34.0002L435.805 31.1715V36.8289L438.147 34.0002Z" fill="#00B3FF"/>
<path fill-rule="evenodd" clip-rule="evenodd" d="M431.958 34.9607L429.616 37.7889H434.299L431.958 34.9607ZM432.753 34.0002L435.095 36.8289V31.1715L432.753 34.0002ZM431.958 33.0397L434.299 30.2114H429.616L431.958 33.0397ZM431.162 34.0002L428.82 31.1715V36.8289L431.162 34.0002Z" fill="#00B3FF"/>
<path fill-rule="evenodd" clip-rule="evenodd" d="M424.973 34.9607L422.631 37.7889H427.314L424.973 34.9607ZM425.768 34.0002L428.11 36.8289V31.1715L425.768 34.0002ZM424.973 33.0397L427.314 30.2114H422.631L424.973 33.0397ZM424.178 34.0002L421.836 31.1715V36.8289L424.178 34.0002Z" fill="#00B3FF"/>
<path fill-rule="evenodd" clip-rule="evenodd" d="M417.988 34.9607L415.646 37.7889H420.33L417.988 34.9607ZM418.783 34.0002L421.125 36.8289V31.1715L418.783 34.0002ZM417.988 33.0397L420.33 30.2114H415.646L417.988 33.0397ZM417.193 34.0002L414.851 31.1715V36.8289L417.193 34.0002Z" fill="#00B3FF"/>
<path fill-rule="evenodd" clip-rule="evenodd" d="M411.003 34.9607L408.662 37.7889H413.345L411.003 34.9607ZM411.799 34.0002L414.141 36.8289V31.1715L411.799 34.0002ZM411.003 33.0397L413.345 30.2114H408.662L411.003 33.0397ZM410.208 34.0002L407.866 31.1715V36.8289L410.208 34.0002Z" fill="#00B3FF"/>
<path fill-rule="evenodd" clip-rule="evenodd" d="M404.019 34.9607L401.677 37.7889H406.36L404.019 34.9607ZM404.814 34.0002L407.156 36.8289V31.1715L404.814 34.0002ZM404.019 33.0397L406.36 30.2114H401.677L404.019 33.0397ZM403.223 34.0002L400.881 31.1715V36.8289L403.223 34.0002Z" fill="#00B3FF"/>
<path fill-rule="evenodd" clip-rule="evenodd" d="M397.034 34.9607L394.692 37.7889H399.376L397.034 34.9607ZM397.829 34.0002L400.171 36.8289V31.1715L397.829 34.0002ZM397.034 33.0397L399.376 30.2114H394.692L397.034 33.0397ZM396.239 34.0002L393.897 31.1715V36.8289L396.239 34.0002Z" fill="#00B3FF"/>
<path fill-rule="evenodd" clip-rule="evenodd" d="M390.049 34.9607L387.707 37.7889H392.391L390.049 34.9607ZM390.844 34.0002L393.186 36.8289V31.1715L390.844 34.0002ZM390.049 33.0397L392.391 30.2114H387.707L390.049 33.0397ZM389.254 34.0002L386.912 31.1715V36.8289L389.254 34.0002Z" fill="#00B3FF"/>
<path fill-rule="evenodd" clip-rule="evenodd" d="M383.064 34.9607L380.723 37.7889H385.406L383.064 34.9607ZM383.86 34.0002L386.202 36.8289V31.1715L383.86 34.0002ZM383.064 33.0397L385.406 30.2114H380.723L383.064 33.0397ZM382.269 34.0002L379.927 31.1715V36.8289L382.269 34.0002Z" fill="#00B3FF"/>
<path fill-rule="evenodd" clip-rule="evenodd" d="M376.08 34.9607L373.738 37.7889H378.421L376.08 34.9607ZM376.875 34.0002L379.217 36.8289V31.1715L376.875 34.0002ZM376.08 33.0397L378.421 30.2114H373.738L376.08 33.0397ZM375.284 34.0002L372.942 31.1715V36.8289L375.284 34.0002Z" fill="#00B3FF"/>
<path fill-rule="evenodd" clip-rule="evenodd" d="M369.095 34.9607L366.753 37.7889H371.437L369.095 34.9607ZM369.89 34.0002L372.232 36.8289V31.1715L369.89 34.0002ZM369.095 33.0397L371.437 30.2114H366.753L369.095 33.0397ZM368.3 34.0002L365.958 31.1715V36.8289L368.3 34.0002Z" fill="#00B3FF"/>
<path fill-rule="evenodd" clip-rule="evenodd" d="M362.11 34.9607L359.769 37.7889H364.452L362.11 34.9607ZM362.905 34.0002L365.247 36.8289V31.1715L362.905 34.0002ZM362.11 33.0397L364.452 30.2114H359.769L362.11 33.0397ZM361.315 34.0002L358.973 31.1715V36.8289L361.315 34.0002Z" fill="#00B3FF"/>
<path fill-rule="evenodd" clip-rule="evenodd" d="M355.125 34.9607L352.784 37.7889H357.467L355.125 34.9607ZM355.921 34.0002L358.263 36.8289V31.1715L355.921 34.0002ZM355.125 33.0397L357.467 30.2114H352.784L355.125 33.0397ZM354.33 34.0002L351.988 31.1715V36.8289L354.33 34.0002Z" fill="#00B3FF"/>
<path fill-rule="evenodd" clip-rule="evenodd" d="M348.141 34.9607L345.799 37.7889H350.482L348.141 34.9607ZM348.936 34.0002L351.278 36.8289V31.1715L348.936 34.0002ZM348.141 33.0397L350.482 30.2114H345.799L348.141 33.0397ZM347.345 34.0002L345.003 31.1715V36.8289L347.345 34.0002Z" fill="#00B3FF"/>
<path fill-rule="evenodd" clip-rule="evenodd" d="M341.156 34.9607L338.814 37.7889H343.497L341.156 34.9607ZM341.951 34.0002L344.293 36.8289V31.1715L341.951 34.0002ZM341.156 33.0397L343.497 30.2114H338.814L341.156 33.0397ZM340.361 34.0002L338.019 31.1715V36.8289L340.361 34.0002Z" fill="#00B3FF"/>
<path fill-rule="evenodd" clip-rule="evenodd" d="M334.171 34.9607L331.83 37.7889H336.513L334.171 34.9607ZM334.966 34.0002L337.308 36.8289V31.1715L334.966 34.0002ZM334.171 33.0397L336.513 30.2114H331.83L334.171 33.0397ZM333.376 34.0002L331.034 31.1715V36.8289L333.376 34.0002Z" fill="#00B3FF"/>
<path fill-rule="evenodd" clip-rule="evenodd" d="M327.187 34.9607L324.845 37.7889H329.528L327.187 34.9607ZM327.982 34.0002L330.324 36.8289V31.1715L327.982 34.0002ZM327.187 33.0397L329.528 30.2114H324.845L327.187 33.0397ZM326.391 34.0002L324.049 31.1715V36.8289L326.391 34.0002Z" fill="#00B3FF"/>
<path fill-rule="evenodd" clip-rule="evenodd" d="M320.202 34.9607L317.86 37.7889H322.543L320.202 34.9607ZM320.997 34.0002L323.339 36.8289V31.1715L320.997 34.0002ZM320.202 33.0397L322.543 30.2114H317.86L320.202 33.0397ZM319.406 34.0002L317.064 31.1715V36.8289L319.406 34.0002Z" fill="#00B3FF"/>
<path fill-rule="evenodd" clip-rule="evenodd" d="M313.217 34.9607L310.875 37.7889H315.559L313.217 34.9607ZM314.012 34.0002L316.354 36.8289V31.1715L314.012 34.0002ZM313.217 33.0397L315.559 30.2114H310.875L313.217 33.0397ZM312.422 34.0002L310.08 31.1715V36.8289L312.422 34.0002Z" fill="#00B3FF"/>
<path fill-rule="evenodd" clip-rule="evenodd" d="M306.232 34.9607L303.891 37.7889H308.574L306.232 34.9607ZM307.027 34.0002L309.37 36.8289V31.1715L307.027 34.0002ZM306.232 33.0397L308.574 30.2114H303.891L306.232 33.0397ZM305.437 34.0002L303.095 31.1715V36.8289L305.437 34.0002Z" fill="#00B3FF"/>
<path fill-rule="evenodd" clip-rule="evenodd" d="M299.247 34.9607L296.906 37.7889H301.589L299.247 34.9607ZM300.043 34.0002L302.385 36.8289V31.1715L300.043 34.0002ZM299.247 33.0397L301.589 30.2114H296.906L299.247 33.0397ZM298.452 34.0002L296.11 31.1715V36.8289L298.452 34.0002Z" fill="#00B3FF"/>
<path fill-rule="evenodd" clip-rule="evenodd" d="M292.263 34.9607L289.921 37.7889H294.604L292.263 34.9607ZM293.058 34.0002L295.4 36.8289V31.1715L293.058 34.0002ZM292.263 33.0397L294.604 30.2114H289.921L292.263 33.0397ZM291.468 34.0002L289.125 31.1715V36.8289L291.468 34.0002Z" fill="#00B3FF"/>
<path fill-rule="evenodd" clip-rule="evenodd" d="M285.278 34.9607L282.936 37.7889H287.62L285.278 34.9607ZM286.073 34.0002L288.415 36.8289V31.1715L286.073 34.0002ZM285.278 33.0397L287.62 30.2114H282.936L285.278 33.0397ZM284.483 34.0002L282.141 31.1715V36.8289L284.483 34.0002Z" fill="#00B3FF"/>
<path fill-rule="evenodd" clip-rule="evenodd" d="M278.293 34.9607L275.952 37.7889H280.635L278.293 34.9607ZM279.089 34.0002L281.431 36.8289V31.1715L279.089 34.0002ZM278.293 33.0397L280.635 30.2114H275.952L278.293 33.0397ZM277.498 34.0002L275.156 31.1715V36.8289L277.498 34.0002Z" fill="#00B3FF"/>
<path fill-rule="evenodd" clip-rule="evenodd" d="M271.309 34.9607L268.967 37.7889H273.65L271.309 34.9607ZM272.104 34.0002L274.446 36.8289V31.1715L272.104 34.0002ZM271.309 33.0397L273.65 30.2114H268.967L271.309 33.0397ZM270.513 34.0002L268.171 31.1715V36.8289L270.513 34.0002Z" fill="#00B3FF"/>
<path fill-rule="evenodd" clip-rule="evenodd" d="M264.324 34.9607L261.982 37.7889H266.665L264.324 34.9607ZM265.119 34.0002L267.461 36.8289V31.1715L265.119 34.0002ZM264.324 33.0397L266.665 30.2114H261.982L264.324 33.0397ZM263.529 34.0002L261.187 31.1715V36.8289L263.529 34.0002Z" fill="#00B3FF"/>
<path fill-rule="evenodd" clip-rule="evenodd" d="M257.339 34.9607L254.998 37.7889H259.681L257.339 34.9607ZM258.134 34.0002L260.476 36.8289V31.1715L258.134 34.0002ZM257.339 33.0397L259.681 30.2114H254.998L257.339 33.0397ZM256.544 34.0002L254.202 31.1715V36.8289L256.544 34.0002Z" fill="#00B3FF"/>
<path fill-rule="evenodd" clip-rule="evenodd" d="M250.354 34.9607L248.013 37.7889H252.696L250.354 34.9607ZM251.149 34.0002L253.491 36.8289V31.1715L251.149 34.0002ZM250.354 33.0397L252.696 30.2114H248.013L250.354 33.0397ZM249.559 34.0002L247.217 31.1715V36.8289L249.559 34.0002Z" fill="#00B3FF"/>
<path fill-rule="evenodd" clip-rule="evenodd" d="M243.37 34.9607L241.028 37.7889H245.711L243.37 34.9607ZM244.165 34.0002L246.507 36.8289V31.1715L244.165 34.0002ZM243.37 33.0397L245.711 30.2114H241.028L243.37 33.0397ZM242.574 34.0002L240.232 31.1715V36.8289L242.574 34.0002Z" fill="#00B3FF"/>
<path fill-rule="evenodd" clip-rule="evenodd" d="M236.385 34.9607L234.043 37.7889H238.726L236.385 34.9607ZM237.18 34.0002L239.522 36.8289V31.1715L237.18 34.0002ZM236.385 33.0397L238.726 30.2114H234.043L236.385 33.0397ZM235.59 34.0002L233.248 31.1715V36.8289L235.59 34.0002Z" fill="#00B3FF"/>
<path fill-rule="evenodd" clip-rule="evenodd" d="M229.4 34.9607L227.059 37.7889H231.742L229.4 34.9607ZM230.195 34.0002L232.537 36.8289V31.1715L230.195 34.0002ZM229.4 33.0397L231.742 30.2114H227.059L229.4 33.0397ZM228.605 34.0002L226.263 31.1715V36.8289L228.605 34.0002Z" fill="#00B3FF"/>
<path fill-rule="evenodd" clip-rule="evenodd" d="M222.415 34.9607L220.074 37.7889H224.757L222.415 34.9607ZM223.211 34.0002L225.553 36.8289V31.1715L223.211 34.0002ZM222.415 33.0397L224.757 30.2114H220.074L222.415 33.0397ZM221.62 34.0002L219.278 31.1715V36.8289L221.62 34.0002Z" fill="#00B3FF"/>
<path fill-rule="evenodd" clip-rule="evenodd" d="M215.431 34.9607L213.089 37.7889H217.772L215.431 34.9607ZM216.226 34.0002L218.568 36.8289V31.1715L216.226 34.0002ZM215.431 33.0397L217.772 30.2114H213.089L215.431 33.0397ZM214.636 34.0002L212.294 31.1715V36.8289L214.636 34.0002Z" fill="#00B3FF"/>
<path fill-rule="evenodd" clip-rule="evenodd" d="M208.446 34.9607L206.104 37.7889H210.788L208.446 34.9607ZM209.241 34.0002L211.583 36.8289V31.1715L209.241 34.0002ZM208.446 33.0397L210.788 30.2114H206.104L208.446 33.0397ZM207.651 34.0002L205.309 31.1715V36.8289L207.651 34.0002Z" fill="#00B3FF"/>
<path fill-rule="evenodd" clip-rule="evenodd" d="M201.461 34.9607L199.12 37.7889H203.803L201.461 34.9607ZM202.256 34.0002L204.599 36.8289V31.1715L202.256 34.0002ZM201.461 33.0397L203.803 30.2114H199.12L201.461 33.0397ZM200.666 34.0002L198.324 31.1715V36.8289L200.666 34.0002Z" fill="#00B3FF"/>
<path fill-rule="evenodd" clip-rule="evenodd" d="M194.476 34.9607L192.135 37.7889H196.818L194.476 34.9607ZM195.272 34.0002L197.614 36.8289V31.1715L195.272 34.0002ZM194.476 33.0397L196.818 30.2114H192.135L194.476 33.0397ZM193.681 34.0002L191.339 31.1715V36.8289L193.681 34.0002Z" fill="#00B3FF"/>
<path fill-rule="evenodd" clip-rule="evenodd" d="M187.492 34.9607L185.15 37.7889H189.833L187.492 34.9607ZM188.287 34.0002L190.629 36.8289V31.1715L188.287 34.0002ZM187.492 33.0397L189.833 30.2114H185.15L187.492 33.0397ZM186.697 34.0002L184.354 31.1715V36.8289L186.697 34.0002Z" fill="#00B3FF"/>
<path fill-rule="evenodd" clip-rule="evenodd" d="M180.507 34.9607L178.165 37.7889H182.849L180.507 34.9607ZM181.302 34.0002L183.644 36.8289V31.1715L181.302 34.0002ZM180.507 33.0397L182.849 30.2114H178.165L180.507 33.0397ZM179.712 34.0002L177.37 31.1715V36.8289L179.712 34.0002Z" fill="#00B3FF"/>
<path fill-rule="evenodd" clip-rule="evenodd" d="M173.522 34.9607L171.181 37.7889H175.864L173.522 34.9607ZM174.317 34.0002L176.659 36.8289V31.1715L174.317 34.0002ZM173.522 33.0397L175.864 30.2114H171.181L173.522 33.0397ZM172.727 34.0002L170.385 31.1715V36.8289L172.727 34.0002Z" fill="#00B3FF"/>
<path fill-rule="evenodd" clip-rule="evenodd" d="M166.538 34.9607L164.196 37.7889H168.879L166.538 34.9607ZM167.333 34.0002L169.675 36.8289V31.1715L167.333 34.0002ZM166.538 33.0397L168.879 30.2114H164.196L166.538 33.0397ZM165.742 34.0002L163.4 31.1715V36.8289L165.742 34.0002Z" fill="#00B3FF"/>
<path fill-rule="evenodd" clip-rule="evenodd" d="M159.553 34.9607L157.211 37.7889H161.894L159.553 34.9607ZM160.348 34.0002L162.69 36.8289V31.1715L160.348 34.0002ZM159.553 33.0397L161.894 30.2114H157.211L159.553 33.0397ZM158.757 34.0002L156.415 31.1715V36.8289L158.757 34.0002Z" fill="#00B3FF"/>
<path fill-rule="evenodd" clip-rule="evenodd" d="M152.568 34.9607L150.226 37.7889H154.91L152.568 34.9607ZM153.363 34.0002L155.705 36.8289V31.1715L153.363 34.0002ZM152.568 33.0397L154.91 30.2114H150.226L152.568 33.0397ZM151.773 34.0002L149.431 31.1715V36.8289L151.773 34.0002Z" fill="#00B3FF"/>
<path fill-rule="evenodd" clip-rule="evenodd" d="M145.583 34.9607L143.242 37.7889H147.925L145.583 34.9607ZM146.379 34.0002L148.721 36.8289V31.1715L146.379 34.0002ZM145.583 33.0397L147.925 30.2114H143.242L145.583 33.0397ZM144.788 34.0002L142.446 31.1715V36.8289L144.788 34.0002Z" fill="#00B3FF"/>
<path fill-rule="evenodd" clip-rule="evenodd" d="M138.599 34.9607L136.257 37.7889H140.94L138.599 34.9607ZM139.394 34.0002L141.736 36.8289V31.1715L139.394 34.0002ZM138.599 33.0397L140.94 30.2114H136.257L138.599 33.0397ZM137.803 34.0002L135.461 31.1715V36.8289L137.803 34.0002Z" fill="#00B3FF"/>
<path fill-rule="evenodd" clip-rule="evenodd" d="M131.614 34.9607L129.272 37.7889H133.955L131.614 34.9607ZM132.409 34.0002L134.751 36.8289V31.1715L132.409 34.0002ZM131.614 33.0397L133.955 30.2114H129.272L131.614 33.0397ZM130.819 34.0002L128.477 31.1715V36.8289L130.819 34.0002Z" fill="#00B3FF"/>
<path fill-rule="evenodd" clip-rule="evenodd" d="M124.629 34.9607L122.288 37.7889H126.971L124.629 34.9607ZM125.424 34.0002L127.766 36.8289V31.1715L125.424 34.0002ZM124.629 33.0397L126.971 30.2114H122.288L124.629 33.0397ZM123.834 34.0002L121.492 31.1715V36.8289L123.834 34.0002Z" fill="#00B3FF"/>
<path fill-rule="evenodd" clip-rule="evenodd" d="M117.644 34.9607L115.303 37.7889H119.986L117.644 34.9607ZM118.439 34.0002L120.781 36.8289V31.1715L118.439 34.0002ZM117.644 33.0397L119.986 30.2114H115.303L117.644 33.0397ZM116.849 34.0002L114.507 31.1715V36.8289L116.849 34.0002Z" fill="#00B3FF"/>
<path fill-rule="evenodd" clip-rule="evenodd" d="M110.659 34.9607L108.318 37.7889H113.001L110.659 34.9607ZM111.455 34.0002L113.797 36.8289V31.1715L111.455 34.0002ZM110.659 33.0397L113.001 30.2114H108.318L110.659 33.0397ZM109.864 34.0002L107.522 31.1715V36.8289L109.864 34.0002Z" fill="#00B3FF"/>
<path fill-rule="evenodd" clip-rule="evenodd" d="M103.675 34.9607L101.333 37.7889H106.016L103.675 34.9607ZM104.47 34.0002L106.812 36.8289V31.1715L104.47 34.0002ZM103.675 33.0397L106.016 30.2114H101.333L103.675 33.0397ZM102.879 34.0002L100.537 31.1715V36.8289L102.879 34.0002Z" fill="#00B3FF"/>
<path fill-rule="evenodd" clip-rule="evenodd" d="M96.69 34.9607L94.3484 37.7889H99.0316L96.69 34.9607ZM97.4852 34.0002L99.8273 36.8289V31.1715L97.4852 34.0002ZM96.69 33.0397L99.0316 30.2114H94.3484L96.69 33.0397ZM95.8947 34.0002L93.5527 31.1715V36.8289L95.8947 34.0002Z" fill="#00B3FF"/>
<path fill-rule="evenodd" clip-rule="evenodd" d="M89.7055 34.9607L87.3639 37.7889H92.0471L89.7055 34.9607ZM90.5008 34.0002L92.8428 36.8289V31.1715L90.5008 34.0002ZM89.7055 33.0397L92.0471 30.2114H87.3639L89.7055 33.0397ZM88.9103 34.0002L86.5682 31.1715V36.8289L88.9103 34.0002Z" fill="#00B3FF"/>
<path fill-rule="evenodd" clip-rule="evenodd" d="M82.7206 34.9607L80.379 37.7889H85.0623L82.7206 34.9607ZM83.5159 34.0002L85.8579 36.8289V31.1715L83.5159 34.0002ZM82.7206 33.0397L85.0623 30.2114H80.379L82.7206 33.0397ZM81.9254 34.0002L79.5834 31.1715V36.8289L81.9254 34.0002Z" fill="#00B3FF"/>
<path fill-rule="evenodd" clip-rule="evenodd" d="M75.736 34.9607L73.3944 37.7889H78.0777L75.736 34.9607ZM76.5313 34.0002L78.8733 36.8289V31.1715L76.5313 34.0002ZM75.736 33.0397L78.0777 30.2114H73.3944L75.736 33.0397ZM74.9408 34.0002L72.5988 31.1715V36.8289L74.9408 34.0002Z" fill="#00B3FF"/>
<path fill-rule="evenodd" clip-rule="evenodd" d="M68.7512 34.9607L66.4095 37.7889H71.0928L68.7512 34.9607ZM69.5464 34.0002L71.8884 36.8289V31.1715L69.5464 34.0002ZM68.7512 33.0397L71.0928 30.2114H66.4095L68.7512 33.0397ZM67.9559 34.0002L65.6139 31.1715V36.8289L67.9559 34.0002Z" fill="#00B3FF"/>
<path fill-rule="evenodd" clip-rule="evenodd" d="M61.7663 34.9609L59.4246 37.7891H64.1079L61.7663 34.9609ZM62.5615 34.0004L64.9036 36.8291V31.1717L62.5615 34.0004ZM61.7663 33.0399L64.1079 30.2116H59.4246L61.7663 33.0399ZM60.971 34.0004L58.629 31.1717V36.8291L60.971 34.0004Z" fill="#00B3FF"/>
<path fill-rule="evenodd" clip-rule="evenodd" d="M54.7818 34.9607L52.4401 37.7889H57.1234L54.7818 34.9607ZM55.577 34.0002L57.9191 36.8289V31.1715L55.577 34.0002ZM54.7818 33.0397L57.1234 30.2114H52.4401L54.7818 33.0397ZM53.9865 34.0002L51.6445 31.1715V36.8289L53.9865 34.0002Z" fill="#00B3FF"/>
<path fill-rule="evenodd" clip-rule="evenodd" d="M47.7969 34.9607L45.4553 37.7889H50.1386L47.7969 34.9607ZM48.5922 34.0002L50.9342 36.8289V31.1715L48.5922 34.0002ZM47.7969 33.0397L50.1386 30.2114H45.4553L47.7969 33.0397ZM47.0017 34.0002L44.6597 31.1715V36.8289L47.0017 34.0002Z" fill="#00B3FF"/>
<path fill-rule="evenodd" clip-rule="evenodd" d="M40.8122 34.9607L38.4705 37.7889H43.1538L40.8122 34.9607ZM41.6074 34.0002L43.9495 36.8289V31.1715L41.6074 34.0002ZM40.8122 33.0397L43.1538 30.2114H38.4705L40.8122 33.0397ZM40.0169 34.0002L37.6749 31.1715V36.8289L40.0169 34.0002Z" fill="#00B3FF"/>
<path fill-rule="evenodd" clip-rule="evenodd" d="M33.8276 34.9607L31.4859 37.7889H36.1692L33.8276 34.9607ZM34.6228 34.0002L36.9648 36.8289V31.1715L34.6228 34.0002ZM33.8276 33.0397L36.1692 30.2114H31.4859L33.8276 33.0397ZM33.0323 34.0002L30.6903 31.1715V36.8289L33.0323 34.0002Z" fill="#00B3FF"/>
</g>
<g filter="url(#filter2_f_245_10951)">
<rect x="449.064" y="30.2114" width="10.5644" height="7.57751" fill="url(#paint2_linear_245_10951)"/>
<path fill-rule="evenodd" clip-rule="evenodd" d="M445.927 34.9607L443.585 37.7889H448.268L445.927 34.9607ZM446.722 34.0002L449.064 36.8289V31.1715L446.722 34.0002ZM445.927 33.0397L448.268 30.2114H443.585L445.927 33.0397ZM445.132 34.0002L442.79 31.1715V36.8289L445.132 34.0002Z" fill="#00B3FF"/>
<path fill-rule="evenodd" clip-rule="evenodd" d="M438.942 34.9607L436.601 37.7889H441.284L438.942 34.9607ZM439.738 34.0002L442.08 36.8289V31.1715L439.738 34.0002ZM438.942 33.0397L441.284 30.2114H436.601L438.942 33.0397ZM438.147 34.0002L435.805 31.1715V36.8289L438.147 34.0002Z" fill="#00B3FF"/>
<path fill-rule="evenodd" clip-rule="evenodd" d="M431.958 34.9607L429.616 37.7889H434.299L431.958 34.9607ZM432.753 34.0002L435.095 36.8289V31.1715L432.753 34.0002ZM431.958 33.0397L434.299 30.2114H429.616L431.958 33.0397ZM431.162 34.0002L428.82 31.1715V36.8289L431.162 34.0002Z" fill="#00B3FF"/>
<path fill-rule="evenodd" clip-rule="evenodd" d="M424.973 34.9607L422.631 37.7889H427.314L424.973 34.9607ZM425.768 34.0002L428.11 36.8289V31.1715L425.768 34.0002ZM424.973 33.0397L427.314 30.2114H422.631L424.973 33.0397ZM424.178 34.0002L421.836 31.1715V36.8289L424.178 34.0002Z" fill="#00B3FF"/>
<path fill-rule="evenodd" clip-rule="evenodd" d="M417.988 34.9607L415.646 37.7889H420.33L417.988 34.9607ZM418.783 34.0002L421.125 36.8289V31.1715L418.783 34.0002ZM417.988 33.0397L420.33 30.2114H415.646L417.988 33.0397ZM417.193 34.0002L414.851 31.1715V36.8289L417.193 34.0002Z" fill="#00B3FF"/>
<path fill-rule="evenodd" clip-rule="evenodd" d="M411.003 34.9607L408.662 37.7889H413.345L411.003 34.9607ZM411.799 34.0002L414.141 36.8289V31.1715L411.799 34.0002ZM411.003 33.0397L413.345 30.2114H408.662L411.003 33.0397ZM410.208 34.0002L407.866 31.1715V36.8289L410.208 34.0002Z" fill="#00B3FF"/>
<path fill-rule="evenodd" clip-rule="evenodd" d="M404.019 34.9607L401.677 37.7889H406.36L404.019 34.9607ZM404.814 34.0002L407.156 36.8289V31.1715L404.814 34.0002ZM404.019 33.0397L406.36 30.2114H401.677L404.019 33.0397ZM403.223 34.0002L400.881 31.1715V36.8289L403.223 34.0002Z" fill="#00B3FF"/>
<path fill-rule="evenodd" clip-rule="evenodd" d="M397.034 34.9607L394.692 37.7889H399.376L397.034 34.9607ZM397.829 34.0002L400.171 36.8289V31.1715L397.829 34.0002ZM397.034 33.0397L399.376 30.2114H394.692L397.034 33.0397ZM396.239 34.0002L393.897 31.1715V36.8289L396.239 34.0002Z" fill="#00B3FF"/>
<path fill-rule="evenodd" clip-rule="evenodd" d="M390.049 34.9607L387.707 37.7889H392.391L390.049 34.9607ZM390.844 34.0002L393.186 36.8289V31.1715L390.844 34.0002ZM390.049 33.0397L392.391 30.2114H387.707L390.049 33.0397ZM389.254 34.0002L386.912 31.1715V36.8289L389.254 34.0002Z" fill="#00B3FF"/>
<path fill-rule="evenodd" clip-rule="evenodd" d="M383.064 34.9607L380.723 37.7889H385.406L383.064 34.9607ZM383.86 34.0002L386.202 36.8289V31.1715L383.86 34.0002ZM383.064 33.0397L385.406 30.2114H380.723L383.064 33.0397ZM382.269 34.0002L379.927 31.1715V36.8289L382.269 34.0002Z" fill="#00B3FF"/>
<path fill-rule="evenodd" clip-rule="evenodd" d="M376.08 34.9607L373.738 37.7889H378.421L376.08 34.9607ZM376.875 34.0002L379.217 36.8289V31.1715L376.875 34.0002ZM376.08 33.0397L378.421 30.2114H373.738L376.08 33.0397ZM375.284 34.0002L372.942 31.1715V36.8289L375.284 34.0002Z" fill="#00B3FF"/>
<path fill-rule="evenodd" clip-rule="evenodd" d="M369.095 34.9607L366.753 37.7889H371.437L369.095 34.9607ZM369.89 34.0002L372.232 36.8289V31.1715L369.89 34.0002ZM369.095 33.0397L371.437 30.2114H366.753L369.095 33.0397ZM368.3 34.0002L365.958 31.1715V36.8289L368.3 34.0002Z" fill="#00B3FF"/>
<path fill-rule="evenodd" clip-rule="evenodd" d="M362.11 34.9607L359.769 37.7889H364.452L362.11 34.9607ZM362.905 34.0002L365.247 36.8289V31.1715L362.905 34.0002ZM362.11 33.0397L364.452 30.2114H359.769L362.11 33.0397ZM361.315 34.0002L358.973 31.1715V36.8289L361.315 34.0002Z" fill="#00B3FF"/>
<path fill-rule="evenodd" clip-rule="evenodd" d="M355.125 34.9607L352.784 37.7889H357.467L355.125 34.9607ZM355.921 34.0002L358.263 36.8289V31.1715L355.921 34.0002ZM355.125 33.0397L357.467 30.2114H352.784L355.125 33.0397ZM354.33 34.0002L351.988 31.1715V36.8289L354.33 34.0002Z" fill="#00B3FF"/>
<path fill-rule="evenodd" clip-rule="evenodd" d="M348.141 34.9607L345.799 37.7889H350.482L348.141 34.9607ZM348.936 34.0002L351.278 36.8289V31.1715L348.936 34.0002ZM348.141 33.0397L350.482 30.2114H345.799L348.141 33.0397ZM347.345 34.0002L345.003 31.1715V36.8289L347.345 34.0002Z" fill="#00B3FF"/>
<path fill-rule="evenodd" clip-rule="evenodd" d="M341.156 34.9607L338.814 37.7889H343.497L341.156 34.9607ZM341.951 34.0002L344.293 36.8289V31.1715L341.951 34.0002ZM341.156 33.0397L343.497 30.2114H338.814L341.156 33.0397ZM340.361 34.0002L338.019 31.1715V36.8289L340.361 34.0002Z" fill="#00B3FF"/>
<path fill-rule="evenodd" clip-rule="evenodd" d="M334.171 34.9607L331.83 37.7889H336.513L334.171 34.9607ZM334.966 34.0002L337.308 36.8289V31.1715L334.966 34.0002ZM334.171 33.0397L336.513 30.2114H331.83L334.171 33.0397ZM333.376 34.0002L331.034 31.1715V36.8289L333.376 34.0002Z" fill="#00B3FF"/>
<path fill-rule="evenodd" clip-rule="evenodd" d="M327.187 34.9607L324.845 37.7889H329.528L327.187 34.9607ZM327.982 34.0002L330.324 36.8289V31.1715L327.982 34.0002ZM327.187 33.0397L329.528 30.2114H324.845L327.187 33.0397ZM326.391 34.0002L324.049 31.1715V36.8289L326.391 34.0002Z" fill="#00B3FF"/>
<path fill-rule="evenodd" clip-rule="evenodd" d="M320.202 34.9607L317.86 37.7889H322.543L320.202 34.9607ZM320.997 34.0002L323.339 36.8289V31.1715L320.997 34.0002ZM320.202 33.0397L322.543 30.2114H317.86L320.202 33.0397ZM319.406 34.0002L317.064 31.1715V36.8289L319.406 34.0002Z" fill="#00B3FF"/>
<path fill-rule="evenodd" clip-rule="evenodd" d="M313.217 34.9607L310.875 37.7889H315.559L313.217 34.9607ZM314.012 34.0002L316.354 36.8289V31.1715L314.012 34.0002ZM313.217 33.0397L315.559 30.2114H310.875L313.217 33.0397ZM312.422 34.0002L310.08 31.1715V36.8289L312.422 34.0002Z" fill="#00B3FF"/>
<path fill-rule="evenodd" clip-rule="evenodd" d="M306.232 34.9607L303.891 37.7889H308.574L306.232 34.9607ZM307.027 34.0002L309.37 36.8289V31.1715L307.027 34.0002ZM306.232 33.0397L308.574 30.2114H303.891L306.232 33.0397ZM305.437 34.0002L303.095 31.1715V36.8289L305.437 34.0002Z" fill="#00B3FF"/>
<path fill-rule="evenodd" clip-rule="evenodd" d="M299.247 34.9607L296.906 37.7889H301.589L299.247 34.9607ZM300.043 34.0002L302.385 36.8289V31.1715L300.043 34.0002ZM299.247 33.0397L301.589 30.2114H296.906L299.247 33.0397ZM298.452 34.0002L296.11 31.1715V36.8289L298.452 34.0002Z" fill="#00B3FF"/>
<path fill-rule="evenodd" clip-rule="evenodd" d="M292.263 34.9607L289.921 37.7889H294.604L292.263 34.9607ZM293.058 34.0002L295.4 36.8289V31.1715L293.058 34.0002ZM292.263 33.0397L294.604 30.2114H289.921L292.263 33.0397ZM291.468 34.0002L289.125 31.1715V36.8289L291.468 34.0002Z" fill="#00B3FF"/>
<path fill-rule="evenodd" clip-rule="evenodd" d="M285.278 34.9607L282.936 37.7889H287.62L285.278 34.9607ZM286.073 34.0002L288.415 36.8289V31.1715L286.073 34.0002ZM285.278 33.0397L287.62 30.2114H282.936L285.278 33.0397ZM284.483 34.0002L282.141 31.1715V36.8289L284.483 34.0002Z" fill="#00B3FF"/>
<path fill-rule="evenodd" clip-rule="evenodd" d="M278.293 34.9607L275.952 37.7889H280.635L278.293 34.9607ZM279.089 34.0002L281.431 36.8289V31.1715L279.089 34.0002ZM278.293 33.0397L280.635 30.2114H275.952L278.293 33.0397ZM277.498 34.0002L275.156 31.1715V36.8289L277.498 34.0002Z" fill="#00B3FF"/>
<path fill-rule="evenodd" clip-rule="evenodd" d="M271.309 34.9607L268.967 37.7889H273.65L271.309 34.9607ZM272.104 34.0002L274.446 36.8289V31.1715L272.104 34.0002ZM271.309 33.0397L273.65 30.2114H268.967L271.309 33.0397ZM270.513 34.0002L268.171 31.1715V36.8289L270.513 34.0002Z" fill="#00B3FF"/>
<path fill-rule="evenodd" clip-rule="evenodd" d="M264.324 34.9607L261.982 37.7889H266.665L264.324 34.9607ZM265.119 34.0002L267.461 36.8289V31.1715L265.119 34.0002ZM264.324 33.0397L266.665 30.2114H261.982L264.324 33.0397ZM263.529 34.0002L261.187 31.1715V36.8289L263.529 34.0002Z" fill="#00B3FF"/>
<path fill-rule="evenodd" clip-rule="evenodd" d="M257.339 34.9607L254.998 37.7889H259.681L257.339 34.9607ZM258.134 34.0002L260.476 36.8289V31.1715L258.134 34.0002ZM257.339 33.0397L259.681 30.2114H254.998L257.339 33.0397ZM256.544 34.0002L254.202 31.1715V36.8289L256.544 34.0002Z" fill="#00B3FF"/>
<path fill-rule="evenodd" clip-rule="evenodd" d="M250.354 34.9607L248.013 37.7889H252.696L250.354 34.9607ZM251.149 34.0002L253.491 36.8289V31.1715L251.149 34.0002ZM250.354 33.0397L252.696 30.2114H248.013L250.354 33.0397ZM249.559 34.0002L247.217 31.1715V36.8289L249.559 34.0002Z" fill="#00B3FF"/>
<path fill-rule="evenodd" clip-rule="evenodd" d="M243.37 34.9607L241.028 37.7889H245.711L243.37 34.9607ZM244.165 34.0002L246.507 36.8289V31.1715L244.165 34.0002ZM243.37 33.0397L245.711 30.2114H241.028L243.37 33.0397ZM242.574 34.0002L240.232 31.1715V36.8289L242.574 34.0002Z" fill="#00B3FF"/>
<path fill-rule="evenodd" clip-rule="evenodd" d="M236.385 34.9607L234.043 37.7889H238.726L236.385 34.9607ZM237.18 34.0002L239.522 36.8289V31.1715L237.18 34.0002ZM236.385 33.0397L238.726 30.2114H234.043L236.385 33.0397ZM235.59 34.0002L233.248 31.1715V36.8289L235.59 34.0002Z" fill="#00B3FF"/>
<path fill-rule="evenodd" clip-rule="evenodd" d="M229.4 34.9607L227.059 37.7889H231.742L229.4 34.9607ZM230.195 34.0002L232.537 36.8289V31.1715L230.195 34.0002ZM229.4 33.0397L231.742 30.2114H227.059L229.4 33.0397ZM228.605 34.0002L226.263 31.1715V36.8289L228.605 34.0002Z" fill="#00B3FF"/>
<path fill-rule="evenodd" clip-rule="evenodd" d="M222.415 34.9607L220.074 37.7889H224.757L222.415 34.9607ZM223.211 34.0002L225.553 36.8289V31.1715L223.211 34.0002ZM222.415 33.0397L224.757 30.2114H220.074L222.415 33.0397ZM221.62 34.0002L219.278 31.1715V36.8289L221.62 34.0002Z" fill="#00B3FF"/>
<path fill-rule="evenodd" clip-rule="evenodd" d="M215.431 34.9607L213.089 37.7889H217.772L215.431 34.9607ZM216.226 34.0002L218.568 36.8289V31.1715L216.226 34.0002ZM215.431 33.0397L217.772 30.2114H213.089L215.431 33.0397ZM214.636 34.0002L212.294 31.1715V36.8289L214.636 34.0002Z" fill="#00B3FF"/>
<path fill-rule="evenodd" clip-rule="evenodd" d="M208.446 34.9607L206.104 37.7889H210.788L208.446 34.9607ZM209.241 34.0002L211.583 36.8289V31.1715L209.241 34.0002ZM208.446 33.0397L210.788 30.2114H206.104L208.446 33.0397ZM207.651 34.0002L205.309 31.1715V36.8289L207.651 34.0002Z" fill="#00B3FF"/>
<path fill-rule="evenodd" clip-rule="evenodd" d="M201.461 34.9607L199.12 37.7889H203.803L201.461 34.9607ZM202.256 34.0002L204.599 36.8289V31.1715L202.256 34.0002ZM201.461 33.0397L203.803 30.2114H199.12L201.461 33.0397ZM200.666 34.0002L198.324 31.1715V36.8289L200.666 34.0002Z" fill="#00B3FF"/>
<path fill-rule="evenodd" clip-rule="evenodd" d="M194.476 34.9607L192.135 37.7889H196.818L194.476 34.9607ZM195.272 34.0002L197.614 36.8289V31.1715L195.272 34.0002ZM194.476 33.0397L196.818 30.2114H192.135L194.476 33.0397ZM193.681 34.0002L191.339 31.1715V36.8289L193.681 34.0002Z" fill="#00B3FF"/>
<path fill-rule="evenodd" clip-rule="evenodd" d="M187.492 34.9607L185.15 37.7889H189.833L187.492 34.9607ZM188.287 34.0002L190.629 36.8289V31.1715L188.287 34.0002ZM187.492 33.0397L189.833 30.2114H185.15L187.492 33.0397ZM186.697 34.0002L184.354 31.1715V36.8289L186.697 34.0002Z" fill="#00B3FF"/>
<path fill-rule="evenodd" clip-rule="evenodd" d="M180.507 34.9607L178.165 37.7889H182.849L180.507 34.9607ZM181.302 34.0002L183.644 36.8289V31.1715L181.302 34.0002ZM180.507 33.0397L182.849 30.2114H178.165L180.507 33.0397ZM179.712 34.0002L177.37 31.1715V36.8289L179.712 34.0002Z" fill="#00B3FF"/>
<path fill-rule="evenodd" clip-rule="evenodd" d="M173.522 34.9607L171.181 37.7889H175.864L173.522 34.9607ZM174.317 34.0002L176.659 36.8289V31.1715L174.317 34.0002ZM173.522 33.0397L175.864 30.2114H171.181L173.522 33.0397ZM172.727 34.0002L170.385 31.1715V36.8289L172.727 34.0002Z" fill="#00B3FF"/>
<path fill-rule="evenodd" clip-rule="evenodd" d="M166.538 34.9607L164.196 37.7889H168.879L166.538 34.9607ZM167.333 34.0002L169.675 36.8289V31.1715L167.333 34.0002ZM166.538 33.0397L168.879 30.2114H164.196L166.538 33.0397ZM165.742 34.0002L163.4 31.1715V36.8289L165.742 34.0002Z" fill="#00B3FF"/>
<path fill-rule="evenodd" clip-rule="evenodd" d="M159.553 34.9607L157.211 37.7889H161.894L159.553 34.9607ZM160.348 34.0002L162.69 36.8289V31.1715L160.348 34.0002ZM159.553 33.0397L161.894 30.2114H157.211L159.553 33.0397ZM158.757 34.0002L156.415 31.1715V36.8289L158.757 34.0002Z" fill="#00B3FF"/>
<path fill-rule="evenodd" clip-rule="evenodd" d="M152.568 34.9607L150.226 37.7889H154.91L152.568 34.9607ZM153.363 34.0002L155.705 36.8289V31.1715L153.363 34.0002ZM152.568 33.0397L154.91 30.2114H150.226L152.568 33.0397ZM151.773 34.0002L149.431 31.1715V36.8289L151.773 34.0002Z" fill="#00B3FF"/>
<path fill-rule="evenodd" clip-rule="evenodd" d="M145.583 34.9607L143.242 37.7889H147.925L145.583 34.9607ZM146.379 34.0002L148.721 36.8289V31.1715L146.379 34.0002ZM145.583 33.0397L147.925 30.2114H143.242L145.583 33.0397ZM144.788 34.0002L142.446 31.1715V36.8289L144.788 34.0002Z" fill="#00B3FF"/>
<path fill-rule="evenodd" clip-rule="evenodd" d="M138.599 34.9607L136.257 37.7889H140.94L138.599 34.9607ZM139.394 34.0002L141.736 36.8289V31.1715L139.394 34.0002ZM138.599 33.0397L140.94 30.2114H136.257L138.599 33.0397ZM137.803 34.0002L135.461 31.1715V36.8289L137.803 34.0002Z" fill="#00B3FF"/>
<path fill-rule="evenodd" clip-rule="evenodd" d="M131.614 34.9607L129.272 37.7889H133.955L131.614 34.9607ZM132.409 34.0002L134.751 36.8289V31.1715L132.409 34.0002ZM131.614 33.0397L133.955 30.2114H129.272L131.614 33.0397ZM130.819 34.0002L128.477 31.1715V36.8289L130.819 34.0002Z" fill="#00B3FF"/>
<path fill-rule="evenodd" clip-rule="evenodd" d="M124.629 34.9607L122.288 37.7889H126.971L124.629 34.9607ZM125.424 34.0002L127.766 36.8289V31.1715L125.424 34.0002ZM124.629 33.0397L126.971 30.2114H122.288L124.629 33.0397ZM123.834 34.0002L121.492 31.1715V36.8289L123.834 34.0002Z" fill="#00B3FF"/>
<path fill-rule="evenodd" clip-rule="evenodd" d="M117.644 34.9607L115.303 37.7889H119.986L117.644 34.9607ZM118.439 34.0002L120.781 36.8289V31.1715L118.439 34.0002ZM117.644 33.0397L119.986 30.2114H115.303L117.644 33.0397ZM116.849 34.0002L114.507 31.1715V36.8289L116.849 34.0002Z" fill="#00B3FF"/>
<path fill-rule="evenodd" clip-rule="evenodd" d="M110.659 34.9607L108.318 37.7889H113.001L110.659 34.9607ZM111.455 34.0002L113.797 36.8289V31.1715L111.455 34.0002ZM110.659 33.0397L113.001 30.2114H108.318L110.659 33.0397ZM109.864 34.0002L107.522 31.1715V36.8289L109.864 34.0002Z" fill="#00B3FF"/>
<path fill-rule="evenodd" clip-rule="evenodd" d="M103.675 34.9607L101.333 37.7889H106.016L103.675 34.9607ZM104.47 34.0002L106.812 36.8289V31.1715L104.47 34.0002ZM103.675 33.0397L106.016 30.2114H101.333L103.675 33.0397ZM102.879 34.0002L100.537 31.1715V36.8289L102.879 34.0002Z" fill="#00B3FF"/>
<path fill-rule="evenodd" clip-rule="evenodd" d="M96.69 34.9607L94.3484 37.7889H99.0316L96.69 34.9607ZM97.4852 34.0002L99.8273 36.8289V31.1715L97.4852 34.0002ZM96.69 33.0397L99.0316 30.2114H94.3484L96.69 33.0397ZM95.8947 34.0002L93.5527 31.1715V36.8289L95.8947 34.0002Z" fill="#00B3FF"/>
<path fill-rule="evenodd" clip-rule="evenodd" d="M89.7055 34.9607L87.3639 37.7889H92.0471L89.7055 34.9607ZM90.5008 34.0002L92.8428 36.8289V31.1715L90.5008 34.0002ZM89.7055 33.0397L92.0471 30.2114H87.3639L89.7055 33.0397ZM88.9103 34.0002L86.5682 31.1715V36.8289L88.9103 34.0002Z" fill="#00B3FF"/>
<path fill-rule="evenodd" clip-rule="evenodd" d="M82.7206 34.9607L80.379 37.7889H85.0623L82.7206 34.9607ZM83.5159 34.0002L85.8579 36.8289V31.1715L83.5159 34.0002ZM82.7206 33.0397L85.0623 30.2114H80.379L82.7206 33.0397ZM81.9254 34.0002L79.5834 31.1715V36.8289L81.9254 34.0002Z" fill="#00B3FF"/>
<path fill-rule="evenodd" clip-rule="evenodd" d="M75.736 34.9607L73.3944 37.7889H78.0777L75.736 34.9607ZM76.5313 34.0002L78.8733 36.8289V31.1715L76.5313 34.0002ZM75.736 33.0397L78.0777 30.2114H73.3944L75.736 33.0397ZM74.9408 34.0002L72.5988 31.1715V36.8289L74.9408 34.0002Z" fill="#00B3FF"/>
<path fill-rule="evenodd" clip-rule="evenodd" d="M68.7512 34.9607L66.4095 37.7889H71.0928L68.7512 34.9607ZM69.5464 34.0002L71.8884 36.8289V31.1715L69.5464 34.0002ZM68.7512 33.0397L71.0928 30.2114H66.4095L68.7512 33.0397ZM67.9559 34.0002L65.6139 31.1715V36.8289L67.9559 34.0002Z" fill="#00B3FF"/>
<path fill-rule="evenodd" clip-rule="evenodd" d="M61.7663 34.9609L59.4246 37.7891H64.1079L61.7663 34.9609ZM62.5615 34.0004L64.9036 36.8291V31.1717L62.5615 34.0004ZM61.7663 33.0399L64.1079 30.2116H59.4246L61.7663 33.0399ZM60.971 34.0004L58.629 31.1717V36.8291L60.971 34.0004Z" fill="#00B3FF"/>
<path fill-rule="evenodd" clip-rule="evenodd" d="M54.7818 34.9607L52.4401 37.7889H57.1234L54.7818 34.9607ZM55.577 34.0002L57.9191 36.8289V31.1715L55.577 34.0002ZM54.7818 33.0397L57.1234 30.2114H52.4401L54.7818 33.0397ZM53.9865 34.0002L51.6445 31.1715V36.8289L53.9865 34.0002Z" fill="#00B3FF"/>
<path fill-rule="evenodd" clip-rule="evenodd" d="M47.7969 34.9607L45.4553 37.7889H50.1386L47.7969 34.9607ZM48.5922 34.0002L50.9342 36.8289V31.1715L48.5922 34.0002ZM47.7969 33.0397L50.1386 30.2114H45.4553L47.7969 33.0397ZM47.0017 34.0002L44.6597 31.1715V36.8289L47.0017 34.0002Z" fill="#00B3FF"/>
<path fill-rule="evenodd" clip-rule="evenodd" d="M40.8122 34.9607L38.4705 37.7889H43.1538L40.8122 34.9607ZM41.6074 34.0002L43.9495 36.8289V31.1715L41.6074 34.0002ZM40.8122 33.0397L43.1538 30.2114H38.4705L40.8122 33.0397ZM40.0169 34.0002L37.6749 31.1715V36.8289L40.0169 34.0002Z" fill="#00B3FF"/>
<path fill-rule="evenodd" clip-rule="evenodd" d="M33.8276 34.9607L31.4859 37.7889H36.1692L33.8276 34.9607ZM34.6228 34.0002L36.9648 36.8289V31.1715L34.6228 34.0002ZM33.8276 33.0397L36.1692 30.2114H31.4859L33.8276 33.0397ZM33.0323 34.0002L30.6903 31.1715V36.8289L33.0323 34.0002Z" fill="#00B3FF"/>
</g>
</g>
<rect x="30.6903" y="30.2114" width="418.374" height="7.57764" fill="#535664"/>
<g opacity="0.5" filter="url(#filter3_f_245_10951)">
<rect x="449.064" y="30.2114" width="10.5644" height="7.57751" fill="url(#paint3_linear_245_10951)"/>
<path fill-rule="evenodd" clip-rule="evenodd" d="M445.927 34.9607L443.585 37.7889H448.268L445.927 34.9607ZM446.722 34.0002L449.064 36.8289V31.1715L446.722 34.0002ZM445.927 33.0397L448.268 30.2114H443.585L445.927 33.0397ZM445.132 34.0002L442.79 31.1715V36.8289L445.132 34.0002Z" fill="#00B3FF"/>
<path fill-rule="evenodd" clip-rule="evenodd" d="M438.942 34.9607L436.601 37.7889H441.284L438.942 34.9607ZM439.738 34.0002L442.08 36.8289V31.1715L439.738 34.0002ZM438.942 33.0397L441.284 30.2114H436.601L438.942 33.0397ZM438.147 34.0002L435.805 31.1715V36.8289L438.147 34.0002Z" fill="#00B3FF"/>
<path fill-rule="evenodd" clip-rule="evenodd" d="M431.958 34.9607L429.616 37.7889H434.299L431.958 34.9607ZM432.753 34.0002L435.095 36.8289V31.1715L432.753 34.0002ZM431.958 33.0397L434.299 30.2114H429.616L431.958 33.0397ZM431.162 34.0002L428.82 31.1715V36.8289L431.162 34.0002Z" fill="#00B3FF"/>
<path fill-rule="evenodd" clip-rule="evenodd" d="M424.973 34.9607L422.631 37.7889H427.314L424.973 34.9607ZM425.768 34.0002L428.11 36.8289V31.1715L425.768 34.0002ZM424.973 33.0397L427.314 30.2114H422.631L424.973 33.0397ZM424.178 34.0002L421.836 31.1715V36.8289L424.178 34.0002Z" fill="#00B3FF"/>
<path fill-rule="evenodd" clip-rule="evenodd" d="M417.988 34.9607L415.646 37.7889H420.33L417.988 34.9607ZM418.783 34.0002L421.125 36.8289V31.1715L418.783 34.0002ZM417.988 33.0397L420.33 30.2114H415.646L417.988 33.0397ZM417.193 34.0002L414.851 31.1715V36.8289L417.193 34.0002Z" fill="#00B3FF"/>
<path fill-rule="evenodd" clip-rule="evenodd" d="M411.003 34.9607L408.662 37.7889H413.345L411.003 34.9607ZM411.799 34.0002L414.141 36.8289V31.1715L411.799 34.0002ZM411.003 33.0397L413.345 30.2114H408.662L411.003 33.0397ZM410.208 34.0002L407.866 31.1715V36.8289L410.208 34.0002Z" fill="#00B3FF"/>
<path fill-rule="evenodd" clip-rule="evenodd" d="M404.019 34.9607L401.677 37.7889H406.36L404.019 34.9607ZM404.814 34.0002L407.156 36.8289V31.1715L404.814 34.0002ZM404.019 33.0397L406.36 30.2114H401.677L404.019 33.0397ZM403.223 34.0002L400.881 31.1715V36.8289L403.223 34.0002Z" fill="#00B3FF"/>
<path fill-rule="evenodd" clip-rule="evenodd" d="M397.034 34.9607L394.692 37.7889H399.376L397.034 34.9607ZM397.829 34.0002L400.171 36.8289V31.1715L397.829 34.0002ZM397.034 33.0397L399.376 30.2114H394.692L397.034 33.0397ZM396.239 34.0002L393.897 31.1715V36.8289L396.239 34.0002Z" fill="#00B3FF"/>
<path fill-rule="evenodd" clip-rule="evenodd" d="M390.049 34.9607L387.707 37.7889H392.391L390.049 34.9607ZM390.844 34.0002L393.186 36.8289V31.1715L390.844 34.0002ZM390.049 33.0397L392.391 30.2114H387.707L390.049 33.0397ZM389.254 34.0002L386.912 31.1715V36.8289L389.254 34.0002Z" fill="#00B3FF"/>
<path fill-rule="evenodd" clip-rule="evenodd" d="M383.064 34.9607L380.723 37.7889H385.406L383.064 34.9607ZM383.86 34.0002L386.202 36.8289V31.1715L383.86 34.0002ZM383.064 33.0397L385.406 30.2114H380.723L383.064 33.0397ZM382.269 34.0002L379.927 31.1715V36.8289L382.269 34.0002Z" fill="#00B3FF"/>
<path fill-rule="evenodd" clip-rule="evenodd" d="M376.08 34.9607L373.738 37.7889H378.421L376.08 34.9607ZM376.875 34.0002L379.217 36.8289V31.1715L376.875 34.0002ZM376.08 33.0397L378.421 30.2114H373.738L376.08 33.0397ZM375.284 34.0002L372.942 31.1715V36.8289L375.284 34.0002Z" fill="#00B3FF"/>
<path fill-rule="evenodd" clip-rule="evenodd" d="M369.095 34.9607L366.753 37.7889H371.437L369.095 34.9607ZM369.89 34.0002L372.232 36.8289V31.1715L369.89 34.0002ZM369.095 33.0397L371.437 30.2114H366.753L369.095 33.0397ZM368.3 34.0002L365.958 31.1715V36.8289L368.3 34.0002Z" fill="#00B3FF"/>
<path fill-rule="evenodd" clip-rule="evenodd" d="M362.11 34.9607L359.769 37.7889H364.452L362.11 34.9607ZM362.905 34.0002L365.247 36.8289V31.1715L362.905 34.0002ZM362.11 33.0397L364.452 30.2114H359.769L362.11 33.0397ZM361.315 34.0002L358.973 31.1715V36.8289L361.315 34.0002Z" fill="#00B3FF"/>
<path fill-rule="evenodd" clip-rule="evenodd" d="M355.125 34.9607L352.784 37.7889H357.467L355.125 34.9607ZM355.921 34.0002L358.263 36.8289V31.1715L355.921 34.0002ZM355.125 33.0397L357.467 30.2114H352.784L355.125 33.0397ZM354.33 34.0002L351.988 31.1715V36.8289L354.33 34.0002Z" fill="#00B3FF"/>
<path fill-rule="evenodd" clip-rule="evenodd" d="M348.141 34.9607L345.799 37.7889H350.482L348.141 34.9607ZM348.936 34.0002L351.278 36.8289V31.1715L348.936 34.0002ZM348.141 33.0397L350.482 30.2114H345.799L348.141 33.0397ZM347.345 34.0002L345.003 31.1715V36.8289L347.345 34.0002Z" fill="#00B3FF"/>
<path fill-rule="evenodd" clip-rule="evenodd" d="M341.156 34.9607L338.814 37.7889H343.497L341.156 34.9607ZM341.951 34.0002L344.293 36.8289V31.1715L341.951 34.0002ZM341.156 33.0397L343.497 30.2114H338.814L341.156 33.0397ZM340.361 34.0002L338.019 31.1715V36.8289L340.361 34.0002Z" fill="#00B3FF"/>
<path fill-rule="evenodd" clip-rule="evenodd" d="M334.171 34.9607L331.83 37.7889H336.513L334.171 34.9607ZM334.966 34.0002L337.308 36.8289V31.1715L334.966 34.0002ZM334.171 33.0397L336.513 30.2114H331.83L334.171 33.0397ZM333.376 34.0002L331.034 31.1715V36.8289L333.376 34.0002Z" fill="#00B3FF"/>
<path fill-rule="evenodd" clip-rule="evenodd" d="M327.187 34.9607L324.845 37.7889H329.528L327.187 34.9607ZM327.982 34.0002L330.324 36.8289V31.1715L327.982 34.0002ZM327.187 33.0397L329.528 30.2114H324.845L327.187 33.0397ZM326.391 34.0002L324.049 31.1715V36.8289L326.391 34.0002Z" fill="#00B3FF"/>
<path fill-rule="evenodd" clip-rule="evenodd" d="M320.202 34.9607L317.86 37.7889H322.543L320.202 34.9607ZM320.997 34.0002L323.339 36.8289V31.1715L320.997 34.0002ZM320.202 33.0397L322.543 30.2114H317.86L320.202 33.0397ZM319.406 34.0002L317.064 31.1715V36.8289L319.406 34.0002Z" fill="#00B3FF"/>
<path fill-rule="evenodd" clip-rule="evenodd" d="M313.217 34.9607L310.875 37.7889H315.559L313.217 34.9607ZM314.012 34.0002L316.354 36.8289V31.1715L314.012 34.0002ZM313.217 33.0397L315.559 30.2114H310.875L313.217 33.0397ZM312.422 34.0002L310.08 31.1715V36.8289L312.422 34.0002Z" fill="#00B3FF"/>
<path fill-rule="evenodd" clip-rule="evenodd" d="M306.232 34.9607L303.891 37.7889H308.574L306.232 34.9607ZM307.027 34.0002L309.37 36.8289V31.1715L307.027 34.0002ZM306.232 33.0397L308.574 30.2114H303.891L306.232 33.0397ZM305.437 34.0002L303.095 31.1715V36.8289L305.437 34.0002Z" fill="#00B3FF"/>
<path fill-rule="evenodd" clip-rule="evenodd" d="M299.247 34.9607L296.906 37.7889H301.589L299.247 34.9607ZM300.043 34.0002L302.385 36.8289V31.1715L300.043 34.0002ZM299.247 33.0397L301.589 30.2114H296.906L299.247 33.0397ZM298.452 34.0002L296.11 31.1715V36.8289L298.452 34.0002Z" fill="#00B3FF"/>
<path fill-rule="evenodd" clip-rule="evenodd" d="M292.263 34.9607L289.921 37.7889H294.604L292.263 34.9607ZM293.058 34.0002L295.4 36.8289V31.1715L293.058 34.0002ZM292.263 33.0397L294.604 30.2114H289.921L292.263 33.0397ZM291.468 34.0002L289.125 31.1715V36.8289L291.468 34.0002Z" fill="#00B3FF"/>
<path fill-rule="evenodd" clip-rule="evenodd" d="M285.278 34.9607L282.936 37.7889H287.62L285.278 34.9607ZM286.073 34.0002L288.415 36.8289V31.1715L286.073 34.0002ZM285.278 33.0397L287.62 30.2114H282.936L285.278 33.0397ZM284.483 34.0002L282.141 31.1715V36.8289L284.483 34.0002Z" fill="#00B3FF"/>
<path fill-rule="evenodd" clip-rule="evenodd" d="M278.293 34.9607L275.952 37.7889H280.635L278.293 34.9607ZM279.089 34.0002L281.431 36.8289V31.1715L279.089 34.0002ZM278.293 33.0397L280.635 30.2114H275.952L278.293 33.0397ZM277.498 34.0002L275.156 31.1715V36.8289L277.498 34.0002Z" fill="#00B3FF"/>
<path fill-rule="evenodd" clip-rule="evenodd" d="M271.309 34.9607L268.967 37.7889H273.65L271.309 34.9607ZM272.104 34.0002L274.446 36.8289V31.1715L272.104 34.0002ZM271.309 33.0397L273.65 30.2114H268.967L271.309 33.0397ZM270.513 34.0002L268.171 31.1715V36.8289L270.513 34.0002Z" fill="#00B3FF"/>
<path fill-rule="evenodd" clip-rule="evenodd" d="M264.324 34.9607L261.982 37.7889H266.665L264.324 34.9607ZM265.119 34.0002L267.461 36.8289V31.1715L265.119 34.0002ZM264.324 33.0397L266.665 30.2114H261.982L264.324 33.0397ZM263.529 34.0002L261.187 31.1715V36.8289L263.529 34.0002Z" fill="#00B3FF"/>
<path fill-rule="evenodd" clip-rule="evenodd" d="M257.339 34.9607L254.998 37.7889H259.681L257.339 34.9607ZM258.134 34.0002L260.476 36.8289V31.1715L258.134 34.0002ZM257.339 33.0397L259.681 30.2114H254.998L257.339 33.0397ZM256.544 34.0002L254.202 31.1715V36.8289L256.544 34.0002Z" fill="#00B3FF"/>
<path fill-rule="evenodd" clip-rule="evenodd" d="M250.354 34.9607L248.013 37.7889H252.696L250.354 34.9607ZM251.149 34.0002L253.491 36.8289V31.1715L251.149 34.0002ZM250.354 33.0397L252.696 30.2114H248.013L250.354 33.0397ZM249.559 34.0002L247.217 31.1715V36.8289L249.559 34.0002Z" fill="#00B3FF"/>
<path fill-rule="evenodd" clip-rule="evenodd" d="M243.37 34.9607L241.028 37.7889H245.711L243.37 34.9607ZM244.165 34.0002L246.507 36.8289V31.1715L244.165 34.0002ZM243.37 33.0397L245.711 30.2114H241.028L243.37 33.0397ZM242.574 34.0002L240.232 31.1715V36.8289L242.574 34.0002Z" fill="#00B3FF"/>
<path fill-rule="evenodd" clip-rule="evenodd" d="M236.385 34.9607L234.043 37.7889H238.726L236.385 34.9607ZM237.18 34.0002L239.522 36.8289V31.1715L237.18 34.0002ZM236.385 33.0397L238.726 30.2114H234.043L236.385 33.0397ZM235.59 34.0002L233.248 31.1715V36.8289L235.59 34.0002Z" fill="#00B3FF"/>
<path fill-rule="evenodd" clip-rule="evenodd" d="M229.4 34.9607L227.059 37.7889H231.742L229.4 34.9607ZM230.195 34.0002L232.537 36.8289V31.1715L230.195 34.0002ZM229.4 33.0397L231.742 30.2114H227.059L229.4 33.0397ZM228.605 34.0002L226.263 31.1715V36.8289L228.605 34.0002Z" fill="#00B3FF"/>
<path fill-rule="evenodd" clip-rule="evenodd" d="M222.415 34.9607L220.074 37.7889H224.757L222.415 34.9607ZM223.211 34.0002L225.553 36.8289V31.1715L223.211 34.0002ZM222.415 33.0397L224.757 30.2114H220.074L222.415 33.0397ZM221.62 34.0002L219.278 31.1715V36.8289L221.62 34.0002Z" fill="#00B3FF"/>
<path fill-rule="evenodd" clip-rule="evenodd" d="M215.431 34.9607L213.089 37.7889H217.772L215.431 34.9607ZM216.226 34.0002L218.568 36.8289V31.1715L216.226 34.0002ZM215.431 33.0397L217.772 30.2114H213.089L215.431 33.0397ZM214.636 34.0002L212.294 31.1715V36.8289L214.636 34.0002Z" fill="#00B3FF"/>
<path fill-rule="evenodd" clip-rule="evenodd" d="M208.446 34.9607L206.104 37.7889H210.788L208.446 34.9607ZM209.241 34.0002L211.583 36.8289V31.1715L209.241 34.0002ZM208.446 33.0397L210.788 30.2114H206.104L208.446 33.0397ZM207.651 34.0002L205.309 31.1715V36.8289L207.651 34.0002Z" fill="#00B3FF"/>
<path fill-rule="evenodd" clip-rule="evenodd" d="M201.461 34.9607L199.12 37.7889H203.803L201.461 34.9607ZM202.256 34.0002L204.599 36.8289V31.1715L202.256 34.0002ZM201.461 33.0397L203.803 30.2114H199.12L201.461 33.0397ZM200.666 34.0002L198.324 31.1715V36.8289L200.666 34.0002Z" fill="#00B3FF"/>
<path fill-rule="evenodd" clip-rule="evenodd" d="M194.476 34.9607L192.135 37.7889H196.818L194.476 34.9607ZM195.272 34.0002L197.614 36.8289V31.1715L195.272 34.0002ZM194.476 33.0397L196.818 30.2114H192.135L194.476 33.0397ZM193.681 34.0002L191.339 31.1715V36.8289L193.681 34.0002Z" fill="#00B3FF"/>
<path fill-rule="evenodd" clip-rule="evenodd" d="M187.492 34.9607L185.15 37.7889H189.833L187.492 34.9607ZM188.287 34.0002L190.629 36.8289V31.1715L188.287 34.0002ZM187.492 33.0397L189.833 30.2114H185.15L187.492 33.0397ZM186.697 34.0002L184.354 31.1715V36.8289L186.697 34.0002Z" fill="#00B3FF"/>
<path fill-rule="evenodd" clip-rule="evenodd" d="M180.507 34.9607L178.165 37.7889H182.849L180.507 34.9607ZM181.302 34.0002L183.644 36.8289V31.1715L181.302 34.0002ZM180.507 33.0397L182.849 30.2114H178.165L180.507 33.0397ZM179.712 34.0002L177.37 31.1715V36.8289L179.712 34.0002Z" fill="#00B3FF"/>
<path fill-rule="evenodd" clip-rule="evenodd" d="M173.522 34.9607L171.181 37.7889H175.864L173.522 34.9607ZM174.317 34.0002L176.659 36.8289V31.1715L174.317 34.0002ZM173.522 33.0397L175.864 30.2114H171.181L173.522 33.0397ZM172.727 34.0002L170.385 31.1715V36.8289L172.727 34.0002Z" fill="#00B3FF"/>
<path fill-rule="evenodd" clip-rule="evenodd" d="M166.538 34.9607L164.196 37.7889H168.879L166.538 34.9607ZM167.333 34.0002L169.675 36.8289V31.1715L167.333 34.0002ZM166.538 33.0397L168.879 30.2114H164.196L166.538 33.0397ZM165.742 34.0002L163.4 31.1715V36.8289L165.742 34.0002Z" fill="#00B3FF"/>
<path fill-rule="evenodd" clip-rule="evenodd" d="M159.553 34.9607L157.211 37.7889H161.894L159.553 34.9607ZM160.348 34.0002L162.69 36.8289V31.1715L160.348 34.0002ZM159.553 33.0397L161.894 30.2114H157.211L159.553 33.0397ZM158.757 34.0002L156.415 31.1715V36.8289L158.757 34.0002Z" fill="#00B3FF"/>
<path fill-rule="evenodd" clip-rule="evenodd" d="M152.568 34.9607L150.226 37.7889H154.91L152.568 34.9607ZM153.363 34.0002L155.705 36.8289V31.1715L153.363 34.0002ZM152.568 33.0397L154.91 30.2114H150.226L152.568 33.0397ZM151.773 34.0002L149.431 31.1715V36.8289L151.773 34.0002Z" fill="#00B3FF"/>
<path fill-rule="evenodd" clip-rule="evenodd" d="M145.583 34.9607L143.242 37.7889H147.925L145.583 34.9607ZM146.379 34.0002L148.721 36.8289V31.1715L146.379 34.0002ZM145.583 33.0397L147.925 30.2114H143.242L145.583 33.0397ZM144.788 34.0002L142.446 31.1715V36.8289L144.788 34.0002Z" fill="#00B3FF"/>
<path fill-rule="evenodd" clip-rule="evenodd" d="M138.599 34.9607L136.257 37.7889H140.94L138.599 34.9607ZM139.394 34.0002L141.736 36.8289V31.1715L139.394 34.0002ZM138.599 33.0397L140.94 30.2114H136.257L138.599 33.0397ZM137.803 34.0002L135.461 31.1715V36.8289L137.803 34.0002Z" fill="#00B3FF"/>
<path fill-rule="evenodd" clip-rule="evenodd" d="M131.614 34.9607L129.272 37.7889H133.955L131.614 34.9607ZM132.409 34.0002L134.751 36.8289V31.1715L132.409 34.0002ZM131.614 33.0397L133.955 30.2114H129.272L131.614 33.0397ZM130.819 34.0002L128.477 31.1715V36.8289L130.819 34.0002Z" fill="#00B3FF"/>
<path fill-rule="evenodd" clip-rule="evenodd" d="M124.629 34.9607L122.288 37.7889H126.971L124.629 34.9607ZM125.424 34.0002L127.766 36.8289V31.1715L125.424 34.0002ZM124.629 33.0397L126.971 30.2114H122.288L124.629 33.0397ZM123.834 34.0002L121.492 31.1715V36.8289L123.834 34.0002Z" fill="#00B3FF"/>
<path fill-rule="evenodd" clip-rule="evenodd" d="M117.644 34.9607L115.303 37.7889H119.986L117.644 34.9607ZM118.439 34.0002L120.781 36.8289V31.1715L118.439 34.0002ZM117.644 33.0397L119.986 30.2114H115.303L117.644 33.0397ZM116.849 34.0002L114.507 31.1715V36.8289L116.849 34.0002Z" fill="#00B3FF"/>
<path fill-rule="evenodd" clip-rule="evenodd" d="M110.659 34.9607L108.318 37.7889H113.001L110.659 34.9607ZM111.455 34.0002L113.797 36.8289V31.1715L111.455 34.0002ZM110.659 33.0397L113.001 30.2114H108.318L110.659 33.0397ZM109.864 34.0002L107.522 31.1715V36.8289L109.864 34.0002Z" fill="#00B3FF"/>
<path fill-rule="evenodd" clip-rule="evenodd" d="M103.675 34.9607L101.333 37.7889H106.016L103.675 34.9607ZM104.47 34.0002L106.812 36.8289V31.1715L104.47 34.0002ZM103.675 33.0397L106.016 30.2114H101.333L103.675 33.0397ZM102.879 34.0002L100.537 31.1715V36.8289L102.879 34.0002Z" fill="#00B3FF"/>
<path fill-rule="evenodd" clip-rule="evenodd" d="M96.69 34.9607L94.3484 37.7889H99.0316L96.69 34.9607ZM97.4852 34.0002L99.8273 36.8289V31.1715L97.4852 34.0002ZM96.69 33.0397L99.0316 30.2114H94.3484L96.69 33.0397ZM95.8947 34.0002L93.5527 31.1715V36.8289L95.8947 34.0002Z" fill="#00B3FF"/>
<path fill-rule="evenodd" clip-rule="evenodd" d="M89.7055 34.9607L87.3639 37.7889H92.0471L89.7055 34.9607ZM90.5008 34.0002L92.8428 36.8289V31.1715L90.5008 34.0002ZM89.7055 33.0397L92.0471 30.2114H87.3639L89.7055 33.0397ZM88.9103 34.0002L86.5682 31.1715V36.8289L88.9103 34.0002Z" fill="#00B3FF"/>
<path fill-rule="evenodd" clip-rule="evenodd" d="M82.7206 34.9607L80.379 37.7889H85.0623L82.7206 34.9607ZM83.5159 34.0002L85.8579 36.8289V31.1715L83.5159 34.0002ZM82.7206 33.0397L85.0623 30.2114H80.379L82.7206 33.0397ZM81.9254 34.0002L79.5834 31.1715V36.8289L81.9254 34.0002Z" fill="#00B3FF"/>
<path fill-rule="evenodd" clip-rule="evenodd" d="M75.736 34.9607L73.3944 37.7889H78.0777L75.736 34.9607ZM76.5313 34.0002L78.8733 36.8289V31.1715L76.5313 34.0002ZM75.736 33.0397L78.0777 30.2114H73.3944L75.736 33.0397ZM74.9408 34.0002L72.5988 31.1715V36.8289L74.9408 34.0002Z" fill="#00B3FF"/>
<path fill-rule="evenodd" clip-rule="evenodd" d="M68.7512 34.9607L66.4095 37.7889H71.0928L68.7512 34.9607ZM69.5464 34.0002L71.8884 36.8289V31.1715L69.5464 34.0002ZM68.7512 33.0397L71.0928 30.2114H66.4095L68.7512 33.0397ZM67.9559 34.0002L65.6139 31.1715V36.8289L67.9559 34.0002Z" fill="#00B3FF"/>
<path fill-rule="evenodd" clip-rule="evenodd" d="M61.7663 34.9609L59.4246 37.7891H64.1079L61.7663 34.9609ZM62.5615 34.0004L64.9036 36.8291V31.1717L62.5615 34.0004ZM61.7663 33.0399L64.1079 30.2116H59.4246L61.7663 33.0399ZM60.971 34.0004L58.629 31.1717V36.8291L60.971 34.0004Z" fill="#00B3FF"/>
<path fill-rule="evenodd" clip-rule="evenodd" d="M54.7818 34.9607L52.4401 37.7889H57.1234L54.7818 34.9607ZM55.577 34.0002L57.9191 36.8289V31.1715L55.577 34.0002ZM54.7818 33.0397L57.1234 30.2114H52.4401L54.7818 33.0397ZM53.9865 34.0002L51.6445 31.1715V36.8289L53.9865 34.0002Z" fill="#00B3FF"/>
<path fill-rule="evenodd" clip-rule="evenodd" d="M47.7969 34.9607L45.4553 37.7889H50.1386L47.7969 34.9607ZM48.5922 34.0002L50.9342 36.8289V31.1715L48.5922 34.0002ZM47.7969 33.0397L50.1386 30.2114H45.4553L47.7969 33.0397ZM47.0017 34.0002L44.6597 31.1715V36.8289L47.0017 34.0002Z" fill="#00B3FF"/>
<path fill-rule="evenodd" clip-rule="evenodd" d="M40.8122 34.9607L38.4705 37.7889H43.1538L40.8122 34.9607ZM41.6074 34.0002L43.9495 36.8289V31.1715L41.6074 34.0002ZM40.8122 33.0397L43.1538 30.2114H38.4705L40.8122 33.0397ZM40.0169 34.0002L37.6749 31.1715V36.8289L40.0169 34.0002Z" fill="#00B3FF"/>
<path fill-rule="evenodd" clip-rule="evenodd" d="M33.8276 34.9607L31.4859 37.7889H36.1692L33.8276 34.9607ZM34.6228 34.0002L36.9648 36.8289V31.1715L34.6228 34.0002ZM33.8276 33.0397L36.1692 30.2114H31.4859L33.8276 33.0397ZM33.0323 34.0002L30.6903 31.1715V36.8289L33.0323 34.0002Z" fill="#00B3FF"/>
</g>
<rect x="449.064" y="30.2114" width="10.5644" height="7.57751" fill="url(#paint4_linear_245_10951)"/>
<path fill-rule="evenodd" clip-rule="evenodd" d="M445.927 34.9607L443.585 37.7889H448.268L445.927 34.9607ZM446.722 34.0002L449.064 36.8289V31.1715L446.722 34.0002ZM445.927 33.0397L448.268 30.2114H443.585L445.927 33.0397ZM445.132 34.0002L442.79 31.1715V36.8289L445.132 34.0002Z" fill="#00B3FF"/>
<path fill-rule="evenodd" clip-rule="evenodd" d="M438.942 34.9607L436.601 37.7889H441.284L438.942 34.9607ZM439.738 34.0002L442.08 36.8289V31.1715L439.738 34.0002ZM438.942 33.0397L441.284 30.2114H436.601L438.942 33.0397ZM438.147 34.0002L435.805 31.1715V36.8289L438.147 34.0002Z" fill="#00B3FF"/>
<path fill-rule="evenodd" clip-rule="evenodd" d="M431.958 34.9607L429.616 37.7889H434.299L431.958 34.9607ZM432.753 34.0002L435.095 36.8289V31.1715L432.753 34.0002ZM431.958 33.0397L434.299 30.2114H429.616L431.958 33.0397ZM431.162 34.0002L428.82 31.1715V36.8289L431.162 34.0002Z" fill="#00B3FF"/>
<path fill-rule="evenodd" clip-rule="evenodd" d="M424.973 34.9607L422.631 37.7889H427.314L424.973 34.9607ZM425.768 34.0002L428.11 36.8289V31.1715L425.768 34.0002ZM424.973 33.0397L427.314 30.2114H422.631L424.973 33.0397ZM424.178 34.0002L421.836 31.1715V36.8289L424.178 34.0002Z" fill="#00B3FF"/>
<path fill-rule="evenodd" clip-rule="evenodd" d="M417.988 34.9607L415.646 37.7889H420.33L417.988 34.9607ZM418.783 34.0002L421.125 36.8289V31.1715L418.783 34.0002ZM417.988 33.0397L420.33 30.2114H415.646L417.988 33.0397ZM417.193 34.0002L414.851 31.1715V36.8289L417.193 34.0002Z" fill="#00B3FF"/>
<path fill-rule="evenodd" clip-rule="evenodd" d="M411.003 34.9607L408.662 37.7889H413.345L411.003 34.9607ZM411.799 34.0002L414.141 36.8289V31.1715L411.799 34.0002ZM411.003 33.0397L413.345 30.2114H408.662L411.003 33.0397ZM410.208 34.0002L407.866 31.1715V36.8289L410.208 34.0002Z" fill="#00B3FF"/>
<path fill-rule="evenodd" clip-rule="evenodd" d="M404.019 34.9607L401.677 37.7889H406.36L404.019 34.9607ZM404.814 34.0002L407.156 36.8289V31.1715L404.814 34.0002ZM404.019 33.0397L406.36 30.2114H401.677L404.019 33.0397ZM403.223 34.0002L400.881 31.1715V36.8289L403.223 34.0002Z" fill="#00B3FF"/>
<path fill-rule="evenodd" clip-rule="evenodd" d="M397.034 34.9607L394.692 37.7889H399.376L397.034 34.9607ZM397.829 34.0002L400.171 36.8289V31.1715L397.829 34.0002ZM397.034 33.0397L399.376 30.2114H394.692L397.034 33.0397ZM396.239 34.0002L393.897 31.1715V36.8289L396.239 34.0002Z" fill="#00B3FF"/>
<path fill-rule="evenodd" clip-rule="evenodd" d="M390.049 34.9607L387.707 37.7889H392.391L390.049 34.9607ZM390.844 34.0002L393.186 36.8289V31.1715L390.844 34.0002ZM390.049 33.0397L392.391 30.2114H387.707L390.049 33.0397ZM389.254 34.0002L386.912 31.1715V36.8289L389.254 34.0002Z" fill="#00B3FF"/>
<path fill-rule="evenodd" clip-rule="evenodd" d="M383.064 34.9607L380.723 37.7889H385.406L383.064 34.9607ZM383.86 34.0002L386.202 36.8289V31.1715L383.86 34.0002ZM383.064 33.0397L385.406 30.2114H380.723L383.064 33.0397ZM382.269 34.0002L379.927 31.1715V36.8289L382.269 34.0002Z" fill="#00B3FF"/>
<path fill-rule="evenodd" clip-rule="evenodd" d="M376.08 34.9607L373.738 37.7889H378.421L376.08 34.9607ZM376.875 34.0002L379.217 36.8289V31.1715L376.875 34.0002ZM376.08 33.0397L378.421 30.2114H373.738L376.08 33.0397ZM375.284 34.0002L372.942 31.1715V36.8289L375.284 34.0002Z" fill="#00B3FF"/>
<path fill-rule="evenodd" clip-rule="evenodd" d="M369.095 34.9607L366.753 37.7889H371.437L369.095 34.9607ZM369.89 34.0002L372.232 36.8289V31.1715L369.89 34.0002ZM369.095 33.0397L371.437 30.2114H366.753L369.095 33.0397ZM368.3 34.0002L365.958 31.1715V36.8289L368.3 34.0002Z" fill="#00B3FF"/>
<path fill-rule="evenodd" clip-rule="evenodd" d="M362.11 34.9607L359.769 37.7889H364.452L362.11 34.9607ZM362.905 34.0002L365.247 36.8289V31.1715L362.905 34.0002ZM362.11 33.0397L364.452 30.2114H359.769L362.11 33.0397ZM361.315 34.0002L358.973 31.1715V36.8289L361.315 34.0002Z" fill="#00B3FF"/>
<path fill-rule="evenodd" clip-rule="evenodd" d="M355.125 34.9607L352.784 37.7889H357.467L355.125 34.9607ZM355.921 34.0002L358.263 36.8289V31.1715L355.921 34.0002ZM355.125 33.0397L357.467 30.2114H352.784L355.125 33.0397ZM354.33 34.0002L351.988 31.1715V36.8289L354.33 34.0002Z" fill="#00B3FF"/>
<path fill-rule="evenodd" clip-rule="evenodd" d="M348.141 34.9607L345.799 37.7889H350.482L348.141 34.9607ZM348.936 34.0002L351.278 36.8289V31.1715L348.936 34.0002ZM348.141 33.0397L350.482 30.2114H345.799L348.141 33.0397ZM347.345 34.0002L345.003 31.1715V36.8289L347.345 34.0002Z" fill="#00B3FF"/>
<path fill-rule="evenodd" clip-rule="evenodd" d="M341.156 34.9607L338.814 37.7889H343.497L341.156 34.9607ZM341.951 34.0002L344.293 36.8289V31.1715L341.951 34.0002ZM341.156 33.0397L343.497 30.2114H338.814L341.156 33.0397ZM340.361 34.0002L338.019 31.1715V36.8289L340.361 34.0002Z" fill="#00B3FF"/>
<path fill-rule="evenodd" clip-rule="evenodd" d="M334.171 34.9607L331.83 37.7889H336.513L334.171 34.9607ZM334.966 34.0002L337.308 36.8289V31.1715L334.966 34.0002ZM334.171 33.0397L336.513 30.2114H331.83L334.171 33.0397ZM333.376 34.0002L331.034 31.1715V36.8289L333.376 34.0002Z" fill="#00B3FF"/>
<path fill-rule="evenodd" clip-rule="evenodd" d="M327.187 34.9607L324.845 37.7889H329.528L327.187 34.9607ZM327.982 34.0002L330.324 36.8289V31.1715L327.982 34.0002ZM327.187 33.0397L329.528 30.2114H324.845L327.187 33.0397ZM326.391 34.0002L324.049 31.1715V36.8289L326.391 34.0002Z" fill="#00B3FF"/>
<path fill-rule="evenodd" clip-rule="evenodd" d="M320.202 34.9607L317.86 37.7889H322.543L320.202 34.9607ZM320.997 34.0002L323.339 36.8289V31.1715L320.997 34.0002ZM320.202 33.0397L322.543 30.2114H317.86L320.202 33.0397ZM319.406 34.0002L317.064 31.1715V36.8289L319.406 34.0002Z" fill="#00B3FF"/>
<path fill-rule="evenodd" clip-rule="evenodd" d="M313.217 34.9607L310.875 37.7889H315.559L313.217 34.9607ZM314.012 34.0002L316.354 36.8289V31.1715L314.012 34.0002ZM313.217 33.0397L315.559 30.2114H310.875L313.217 33.0397ZM312.422 34.0002L310.08 31.1715V36.8289L312.422 34.0002Z" fill="#00B3FF"/>
<path fill-rule="evenodd" clip-rule="evenodd" d="M306.232 34.9607L303.891 37.7889H308.574L306.232 34.9607ZM307.027 34.0002L309.37 36.8289V31.1715L307.027 34.0002ZM306.232 33.0397L308.574 30.2114H303.891L306.232 33.0397ZM305.437 34.0002L303.095 31.1715V36.8289L305.437 34.0002Z" fill="#00B3FF"/>
<path fill-rule="evenodd" clip-rule="evenodd" d="M299.247 34.9607L296.906 37.7889H301.589L299.247 34.9607ZM300.043 34.0002L302.385 36.8289V31.1715L300.043 34.0002ZM299.247 33.0397L301.589 30.2114H296.906L299.247 33.0397ZM298.452 34.0002L296.11 31.1715V36.8289L298.452 34.0002Z" fill="#00B3FF"/>
<path fill-rule="evenodd" clip-rule="evenodd" d="M292.263 34.9607L289.921 37.7889H294.604L292.263 34.9607ZM293.058 34.0002L295.4 36.8289V31.1715L293.058 34.0002ZM292.263 33.0397L294.604 30.2114H289.921L292.263 33.0397ZM291.468 34.0002L289.125 31.1715V36.8289L291.468 34.0002Z" fill="#00B3FF"/>
<path fill-rule="evenodd" clip-rule="evenodd" d="M285.278 34.9607L282.936 37.7889H287.62L285.278 34.9607ZM286.073 34.0002L288.415 36.8289V31.1715L286.073 34.0002ZM285.278 33.0397L287.62 30.2114H282.936L285.278 33.0397ZM284.483 34.0002L282.141 31.1715V36.8289L284.483 34.0002Z" fill="#00B3FF"/>
<path fill-rule="evenodd" clip-rule="evenodd" d="M278.293 34.9607L275.952 37.7889H280.635L278.293 34.9607ZM279.089 34.0002L281.431 36.8289V31.1715L279.089 34.0002ZM278.293 33.0397L280.635 30.2114H275.952L278.293 33.0397ZM277.498 34.0002L275.156 31.1715V36.8289L277.498 34.0002Z" fill="#00B3FF"/>
<path fill-rule="evenodd" clip-rule="evenodd" d="M271.309 34.9607L268.967 37.7889H273.65L271.309 34.9607ZM272.104 34.0002L274.446 36.8289V31.1715L272.104 34.0002ZM271.309 33.0397L273.65 30.2114H268.967L271.309 33.0397ZM270.513 34.0002L268.171 31.1715V36.8289L270.513 34.0002Z" fill="#00B3FF"/>
<path fill-rule="evenodd" clip-rule="evenodd" d="M264.324 34.9607L261.982 37.7889H266.665L264.324 34.9607ZM265.119 34.0002L267.461 36.8289V31.1715L265.119 34.0002ZM264.324 33.0397L266.665 30.2114H261.982L264.324 33.0397ZM263.529 34.0002L261.187 31.1715V36.8289L263.529 34.0002Z" fill="#00B3FF"/>
<path fill-rule="evenodd" clip-rule="evenodd" d="M257.339 34.9607L254.998 37.7889H259.681L257.339 34.9607ZM258.134 34.0002L260.476 36.8289V31.1715L258.134 34.0002ZM257.339 33.0397L259.681 30.2114H254.998L257.339 33.0397ZM256.544 34.0002L254.202 31.1715V36.8289L256.544 34.0002Z" fill="#00B3FF"/>
<path fill-rule="evenodd" clip-rule="evenodd" d="M250.354 34.9607L248.013 37.7889H252.696L250.354 34.9607ZM251.149 34.0002L253.491 36.8289V31.1715L251.149 34.0002ZM250.354 33.0397L252.696 30.2114H248.013L250.354 33.0397ZM249.559 34.0002L247.217 31.1715V36.8289L249.559 34.0002Z" fill="#00B3FF"/>
<path fill-rule="evenodd" clip-rule="evenodd" d="M243.37 34.9607L241.028 37.7889H245.711L243.37 34.9607ZM244.165 34.0002L246.507 36.8289V31.1715L244.165 34.0002ZM243.37 33.0397L245.711 30.2114H241.028L243.37 33.0397ZM242.574 34.0002L240.232 31.1715V36.8289L242.574 34.0002Z" fill="#00B3FF"/>
<path fill-rule="evenodd" clip-rule="evenodd" d="M236.385 34.9607L234.043 37.7889H238.726L236.385 34.9607ZM237.18 34.0002L239.522 36.8289V31.1715L237.18 34.0002ZM236.385 33.0397L238.726 30.2114H234.043L236.385 33.0397ZM235.59 34.0002L233.248 31.1715V36.8289L235.59 34.0002Z" fill="#00B3FF"/>
<path fill-rule="evenodd" clip-rule="evenodd" d="M229.4 34.9607L227.059 37.7889H231.742L229.4 34.9607ZM230.195 34.0002L232.537 36.8289V31.1715L230.195 34.0002ZM229.4 33.0397L231.742 30.2114H227.059L229.4 33.0397ZM228.605 34.0002L226.263 31.1715V36.8289L228.605 34.0002Z" fill="#00B3FF"/>
<path fill-rule="evenodd" clip-rule="evenodd" d="M222.415 34.9607L220.074 37.7889H224.757L222.415 34.9607ZM223.211 34.0002L225.553 36.8289V31.1715L223.211 34.0002ZM222.415 33.0397L224.757 30.2114H220.074L222.415 33.0397ZM221.62 34.0002L219.278 31.1715V36.8289L221.62 34.0002Z" fill="#00B3FF"/>
<path fill-rule="evenodd" clip-rule="evenodd" d="M215.431 34.9607L213.089 37.7889H217.772L215.431 34.9607ZM216.226 34.0002L218.568 36.8289V31.1715L216.226 34.0002ZM215.431 33.0397L217.772 30.2114H213.089L215.431 33.0397ZM214.636 34.0002L212.294 31.1715V36.8289L214.636 34.0002Z" fill="#00B3FF"/>
<path fill-rule="evenodd" clip-rule="evenodd" d="M208.446 34.9607L206.104 37.7889H210.788L208.446 34.9607ZM209.241 34.0002L211.583 36.8289V31.1715L209.241 34.0002ZM208.446 33.0397L210.788 30.2114H206.104L208.446 33.0397ZM207.651 34.0002L205.309 31.1715V36.8289L207.651 34.0002Z" fill="#00B3FF"/>
<path fill-rule="evenodd" clip-rule="evenodd" d="M201.461 34.9607L199.12 37.7889H203.803L201.461 34.9607ZM202.256 34.0002L204.599 36.8289V31.1715L202.256 34.0002ZM201.461 33.0397L203.803 30.2114H199.12L201.461 33.0397ZM200.666 34.0002L198.324 31.1715V36.8289L200.666 34.0002Z" fill="#00B3FF"/>
<path fill-rule="evenodd" clip-rule="evenodd" d="M194.476 34.9607L192.135 37.7889H196.818L194.476 34.9607ZM195.272 34.0002L197.614 36.8289V31.1715L195.272 34.0002ZM194.476 33.0397L196.818 30.2114H192.135L194.476 33.0397ZM193.681 34.0002L191.339 31.1715V36.8289L193.681 34.0002Z" fill="#00B3FF"/>
<path fill-rule="evenodd" clip-rule="evenodd" d="M187.492 34.9607L185.15 37.7889H189.833L187.492 34.9607ZM188.287 34.0002L190.629 36.8289V31.1715L188.287 34.0002ZM187.492 33.0397L189.833 30.2114H185.15L187.492 33.0397ZM186.697 34.0002L184.354 31.1715V36.8289L186.697 34.0002Z" fill="#00B3FF"/>
<path fill-rule="evenodd" clip-rule="evenodd" d="M180.507 34.9607L178.165 37.7889H182.849L180.507 34.9607ZM181.302 34.0002L183.644 36.8289V31.1715L181.302 34.0002ZM180.507 33.0397L182.849 30.2114H178.165L180.507 33.0397ZM179.712 34.0002L177.37 31.1715V36.8289L179.712 34.0002Z" fill="#00B3FF"/>
<path fill-rule="evenodd" clip-rule="evenodd" d="M173.522 34.9607L171.181 37.7889H175.864L173.522 34.9607ZM174.317 34.0002L176.659 36.8289V31.1715L174.317 34.0002ZM173.522 33.0397L175.864 30.2114H171.181L173.522 33.0397ZM172.727 34.0002L170.385 31.1715V36.8289L172.727 34.0002Z" fill="#00B3FF"/>
<path fill-rule="evenodd" clip-rule="evenodd" d="M166.538 34.9607L164.196 37.7889H168.879L166.538 34.9607ZM167.333 34.0002L169.675 36.8289V31.1715L167.333 34.0002ZM166.538 33.0397L168.879 30.2114H164.196L166.538 33.0397ZM165.742 34.0002L163.4 31.1715V36.8289L165.742 34.0002Z" fill="#00B3FF"/>
<path fill-rule="evenodd" clip-rule="evenodd" d="M159.553 34.9607L157.211 37.7889H161.894L159.553 34.9607ZM160.348 34.0002L162.69 36.8289V31.1715L160.348 34.0002ZM159.553 33.0397L161.894 30.2114H157.211L159.553 33.0397ZM158.757 34.0002L156.415 31.1715V36.8289L158.757 34.0002Z" fill="#00B3FF"/>
<path fill-rule="evenodd" clip-rule="evenodd" d="M152.568 34.9607L150.226 37.7889H154.91L152.568 34.9607ZM153.363 34.0002L155.705 36.8289V31.1715L153.363 34.0002ZM152.568 33.0397L154.91 30.2114H150.226L152.568 33.0397ZM151.773 34.0002L149.431 31.1715V36.8289L151.773 34.0002Z" fill="#00B3FF"/>
<path fill-rule="evenodd" clip-rule="evenodd" d="M145.583 34.9607L143.242 37.7889H147.925L145.583 34.9607ZM146.379 34.0002L148.721 36.8289V31.1715L146.379 34.0002ZM145.583 33.0397L147.925 30.2114H143.242L145.583 33.0397ZM144.788 34.0002L142.446 31.1715V36.8289L144.788 34.0002Z" fill="#00B3FF"/>
<path fill-rule="evenodd" clip-rule="evenodd" d="M138.599 34.9607L136.257 37.7889H140.94L138.599 34.9607ZM139.394 34.0002L141.736 36.8289V31.1715L139.394 34.0002ZM138.599 33.0397L140.94 30.2114H136.257L138.599 33.0397ZM137.803 34.0002L135.461 31.1715V36.8289L137.803 34.0002Z" fill="#00B3FF"/>
<path fill-rule="evenodd" clip-rule="evenodd" d="M131.614 34.9607L129.272 37.7889H133.955L131.614 34.9607ZM132.409 34.0002L134.751 36.8289V31.1715L132.409 34.0002ZM131.614 33.0397L133.955 30.2114H129.272L131.614 33.0397ZM130.819 34.0002L128.477 31.1715V36.8289L130.819 34.0002Z" fill="#00B3FF"/>
<path fill-rule="evenodd" clip-rule="evenodd" d="M124.629 34.9607L122.288 37.7889H126.971L124.629 34.9607ZM125.424 34.0002L127.766 36.8289V31.1715L125.424 34.0002ZM124.629 33.0397L126.971 30.2114H122.288L124.629 33.0397ZM123.834 34.0002L121.492 31.1715V36.8289L123.834 34.0002Z" fill="#00B3FF"/>
<path fill-rule="evenodd" clip-rule="evenodd" d="M117.644 34.9607L115.303 37.7889H119.986L117.644 34.9607ZM118.439 34.0002L120.781 36.8289V31.1715L118.439 34.0002ZM117.644 33.0397L119.986 30.2114H115.303L117.644 33.0397ZM116.849 34.0002L114.507 31.1715V36.8289L116.849 34.0002Z" fill="#00B3FF"/>
<path fill-rule="evenodd" clip-rule="evenodd" d="M110.659 34.9607L108.318 37.7889H113.001L110.659 34.9607ZM111.455 34.0002L113.797 36.8289V31.1715L111.455 34.0002ZM110.659 33.0397L113.001 30.2114H108.318L110.659 33.0397ZM109.864 34.0002L107.522 31.1715V36.8289L109.864 34.0002Z" fill="#00B3FF"/>
<path fill-rule="evenodd" clip-rule="evenodd" d="M103.675 34.9607L101.333 37.7889H106.016L103.675 34.9607ZM104.47 34.0002L106.812 36.8289V31.1715L104.47 34.0002ZM103.675 33.0397L106.016 30.2114H101.333L103.675 33.0397ZM102.879 34.0002L100.537 31.1715V36.8289L102.879 34.0002Z" fill="#00B3FF"/>
<path fill-rule="evenodd" clip-rule="evenodd" d="M96.69 34.9607L94.3484 37.7889H99.0316L96.69 34.9607ZM97.4852 34.0002L99.8273 36.8289V31.1715L97.4852 34.0002ZM96.69 33.0397L99.0316 30.2114H94.3484L96.69 33.0397ZM95.8947 34.0002L93.5527 31.1715V36.8289L95.8947 34.0002Z" fill="#00B3FF"/>
<path fill-rule="evenodd" clip-rule="evenodd" d="M89.7055 34.9607L87.3639 37.7889H92.0471L89.7055 34.9607ZM90.5008 34.0002L92.8428 36.8289V31.1715L90.5008 34.0002ZM89.7055 33.0397L92.0471 30.2114H87.3639L89.7055 33.0397ZM88.9103 34.0002L86.5682 31.1715V36.8289L88.9103 34.0002Z" fill="#00B3FF"/>
<path fill-rule="evenodd" clip-rule="evenodd" d="M82.7206 34.9607L80.379 37.7889H85.0623L82.7206 34.9607ZM83.5159 34.0002L85.8579 36.8289V31.1715L83.5159 34.0002ZM82.7206 33.0397L85.0623 30.2114H80.379L82.7206 33.0397ZM81.9254 34.0002L79.5834 31.1715V36.8289L81.9254 34.0002Z" fill="#00B3FF"/>
<path fill-rule="evenodd" clip-rule="evenodd" d="M75.736 34.9607L73.3944 37.7889H78.0777L75.736 34.9607ZM76.5313 34.0002L78.8733 36.8289V31.1715L76.5313 34.0002ZM75.736 33.0397L78.0777 30.2114H73.3944L75.736 33.0397ZM74.9408 34.0002L72.5988 31.1715V36.8289L74.9408 34.0002Z" fill="#00B3FF"/>
<path fill-rule="evenodd" clip-rule="evenodd" d="M68.7512 34.9607L66.4095 37.7889H71.0928L68.7512 34.9607ZM69.5464 34.0002L71.8884 36.8289V31.1715L69.5464 34.0002ZM68.7512 33.0397L71.0928 30.2114H66.4095L68.7512 33.0397ZM67.9559 34.0002L65.6139 31.1715V36.8289L67.9559 34.0002Z" fill="#00B3FF"/>
<path fill-rule="evenodd" clip-rule="evenodd" d="M61.7663 34.9609L59.4246 37.7891H64.1079L61.7663 34.9609ZM62.5615 34.0004L64.9036 36.8291V31.1717L62.5615 34.0004ZM61.7663 33.0399L64.1079 30.2116H59.4246L61.7663 33.0399ZM60.971 34.0004L58.629 31.1717V36.8291L60.971 34.0004Z" fill="#00B3FF"/>
<path fill-rule="evenodd" clip-rule="evenodd" d="M54.7818 34.9607L52.4401 37.7889H57.1234L54.7818 34.9607ZM55.577 34.0002L57.9191 36.8289V31.1715L55.577 34.0002ZM54.7818 33.0397L57.1234 30.2114H52.4401L54.7818 33.0397ZM53.9865 34.0002L51.6445 31.1715V36.8289L53.9865 34.0002Z" fill="#00B3FF"/>
<path fill-rule="evenodd" clip-rule="evenodd" d="M47.7969 34.9607L45.4553 37.7889H50.1386L47.7969 34.9607ZM48.5922 34.0002L50.9342 36.8289V31.1715L48.5922 34.0002ZM47.7969 33.0397L50.1386 30.2114H45.4553L47.7969 33.0397ZM47.0017 34.0002L44.6597 31.1715V36.8289L47.0017 34.0002Z" fill="#00B3FF"/>
<path fill-rule="evenodd" clip-rule="evenodd" d="M40.8122 34.9607L38.4705 37.7889H43.1538L40.8122 34.9607ZM41.6074 34.0002L43.9495 36.8289V31.1715L41.6074 34.0002ZM40.8122 33.0397L43.1538 30.2114H38.4705L40.8122 33.0397ZM40.0169 34.0002L37.6749 31.1715V36.8289L40.0169 34.0002Z" fill="#00B3FF"/>
<path fill-rule="evenodd" clip-rule="evenodd" d="M33.8276 34.9607L31.4859 37.7889H36.1692L33.8276 34.9607ZM34.6228 34.0002L36.9648 36.8289V31.1715L34.6228 34.0002ZM33.8276 33.0397L36.1692 30.2114H31.4859L33.8276 33.0397ZM33.0323 34.0002L30.6903 31.1715V36.8289L33.0323 34.0002Z" fill="#00B3FF"/>
<defs>
<filter id="filter0_f_245_10951" x="0.690308" y="0.211426" width="488.938" height="67.5777" filterUnits="userSpaceOnUse" color-interpolation-filters="sRGB">
<feFlood flood-opacity="0" result="BackgroundImageFix"/>
<feBlend mode="normal" in="SourceGraphic" in2="BackgroundImageFix" result="shape"/>
<feGaussianBlur stdDeviation="15" result="effect1_foregroundBlur_245_10951"/>
</filter>
<filter id="filter1_f_245_10951" x="0.690308" y="0.211426" width="488.938" height="67.5777" filterUnits="userSpaceOnUse" color-interpolation-filters="sRGB">
<feFlood flood-opacity="0" result="BackgroundImageFix"/>
<feBlend mode="normal" in="SourceGraphic" in2="BackgroundImageFix" result="shape"/>
<feGaussianBlur stdDeviation="15" result="effect1_foregroundBlur_245_10951"/>
</filter>
<filter id="filter2_f_245_10951" x="0.690308" y="0.211426" width="488.938" height="67.5777" filterUnits="userSpaceOnUse" color-interpolation-filters="sRGB">
<feFlood flood-opacity="0" result="BackgroundImageFix"/>
<feBlend mode="normal" in="SourceGraphic" in2="BackgroundImageFix" result="shape"/>
<feGaussianBlur stdDeviation="15" result="effect1_foregroundBlur_245_10951"/>
</filter>
<filter id="filter3_f_245_10951" x="27.6903" y="27.2114" width="434.938" height="13.5777" filterUnits="userSpaceOnUse" color-interpolation-filters="sRGB">
<feFlood flood-opacity="0" result="BackgroundImageFix"/>
<feBlend mode="normal" in="SourceGraphic" in2="BackgroundImageFix" result="shape"/>
<feGaussianBlur stdDeviation="1.5" result="effect1_foregroundBlur_245_10951"/>
</filter>
<linearGradient id="paint0_linear_245_10951" x1="449.064" y1="34.0002" x2="459.629" y2="34.0002" gradientUnits="userSpaceOnUse">
<stop stop-color="#97FF05"/>
<stop offset="1" stop-color="#008E0A"/>
</linearGradient>
<linearGradient id="paint1_linear_245_10951" x1="449.064" y1="34.0002" x2="459.629" y2="34.0002" gradientUnits="userSpaceOnUse">
<stop stop-color="#97FF05"/>
<stop offset="1" stop-color="#008E0A"/>
</linearGradient>
<linearGradient id="paint2_linear_245_10951" x1="449.064" y1="34.0002" x2="459.629" y2="34.0002" gradientUnits="userSpaceOnUse">
<stop stop-color="#97FF05"/>
<stop offset="1" stop-color="#008E0A"/>
</linearGradient>
<linearGradient id="paint3_linear_245_10951" x1="449.064" y1="34.0002" x2="459.629" y2="34.0002" gradientUnits="userSpaceOnUse">
<stop stop-color="#97FF05"/>
<stop offset="1" stop-color="#008E0A"/>
</linearGradient>
<linearGradient id="paint4_linear_245_10951" x1="449.064" y1="34.0002" x2="459.629" y2="34.0002" gradientUnits="userSpaceOnUse">
<stop stop-color="#97FF05"/>
<stop offset="1" stop-color="#008E0A"/>
</linearGradient>
</defs>
</svg>
