<svg width="1401" height="2400" viewBox="0 0 1401 2400" fill="none" xmlns="http://www.w3.org/2000/svg">
<rect x="75.0938" y="50" width="1250" height="900" fill="#FFFF00"/>
<rect x="1.5" y="-1.5" width="1247" height="47" transform="matrix(1 0 0 -1 75.0938 47)" stroke="black" stroke-width="3"/>
<rect x="1.5" y="-1.5" width="1247" height="47" transform="matrix(1 0 0 -1 75.0938 997)" stroke="black" stroke-width="3"/>
<rect x="1.59375" y="1.5" width="72" height="2397" stroke="black" stroke-width="3"/>
<rect x="1326.59" y="1.5" width="72" height="2397" stroke="black" stroke-width="3"/>
<path d="M462 244.556H657.736V268.98H622.304V458.524H594.44V356.012H532.176V374.588C532.176 387.316 525.296 393.852 514.632 393.852C497.776 393.852 474.728 368.396 474.728 349.132C474.728 338.812 480.232 331.588 495.712 331.588H594.44V268.98H462V244.556ZM707.852 268.98V458.524H679.988V268.98H649.372V244.556H743.284V268.98H707.852ZM910.052 268.98V458.524H882.188V372.524H806.164V385.252C806.164 400.388 798.252 406.58 789.652 406.58C772.108 406.58 748.372 380.436 748.372 362.892C748.372 354.636 753.876 348.1 769.356 348.1H778.3V268.98H734.956V244.556H945.484V268.98H910.052ZM882.188 268.98H806.164V348.1H882.188V268.98Z" fill="black"/>
<path d="M511.223 559.909V733H487.22L399.238 606.055H397.632V733H371.516V559.909H395.688L483.755 687.023H485.361V559.909H511.223ZM561.561 733H533.839L596.128 559.909H626.301L688.59 733H660.868L611.933 591.349H610.58L561.561 733ZM566.209 665.217H656.135V687.192H566.209V665.217ZM711.206 559.909H742.899L798.005 694.46H800.033L855.138 559.909H886.832V733H861.984V607.746H860.378L809.33 732.746H788.708L737.659 607.661H736.054V733H711.206V559.909ZM922.421 733V559.909H1030.94V582.391H948.537V635.129H1025.28V657.526H948.537V710.518H1031.96V733H922.421Z" fill="black"/>
</svg>
