<svg width="1000" height="2650" viewBox="0 0 1000 2650" fill="none" xmlns="http://www.w3.org/2000/svg">
<mask id="path-1-inside-1_70_3473" fill="white">
<path d="M462.5 1000H537.5V2650H462.5V1000Z"/>
</mask>
<path d="M462.5 1000H537.5V2650H462.5V1000Z" fill="white"/>
<path d="M534.3 1000V2650H540.7V1000H534.3ZM465.7 2650V1000H459.3V2650H465.7Z" fill="black" mask="url(#path-1-inside-1_70_3473)"/>
<rect x="463" y="1220.21" width="74" height="246.5" fill="black" stroke="black"/>
<rect x="463" y="1766.46" width="74" height="246.5" fill="black" stroke="black"/>
<rect x="463" y="2312.71" width="74" height="246.5" fill="black" stroke="black"/>
<circle cx="500" cy="500" r="487.5" transform="rotate(45 500 500)" fill="#FFFF00" stroke="black" stroke-width="25"/>
<line x1="862.394" y1="155.286" x2="155.287" y2="862.393" stroke="black" stroke-width="25"/>
<path d="M462.567 296.112H424.454C422.988 287.968 420.26 280.801 416.269 274.612C412.279 268.422 407.392 263.169 401.61 258.853C395.828 254.537 389.353 251.279 382.187 249.08C375.102 246.882 367.568 245.782 359.587 245.782C345.173 245.782 332.264 249.406 320.863 256.654C309.543 263.902 300.585 274.53 293.988 288.538C287.473 302.545 284.215 319.648 284.215 339.845C284.215 360.204 287.473 377.388 293.988 391.396C300.585 405.403 309.584 415.99 320.985 423.157C332.387 430.324 345.213 433.907 359.465 433.907C367.365 433.907 374.857 432.848 381.942 430.731C389.109 428.532 395.584 425.315 401.366 421.08C407.148 416.846 412.034 411.674 416.025 405.566C420.097 399.377 422.906 392.292 424.454 384.311L462.567 384.433C460.531 396.73 456.582 408.05 450.718 418.393C444.936 428.654 437.484 437.531 428.363 445.024C419.323 452.435 408.98 458.176 397.335 462.248C385.689 466.32 372.984 468.356 359.221 468.356C337.558 468.356 318.257 463.225 301.317 452.964C284.378 442.621 271.022 427.84 261.249 408.62C251.558 389.401 246.712 366.475 246.712 339.845C246.712 313.133 251.599 290.207 261.371 271.069C271.144 251.849 284.5 237.109 301.44 226.847C318.379 216.505 337.639 211.333 359.221 211.333C372.496 211.333 384.874 213.247 396.357 217.075C407.922 220.821 418.305 226.359 427.508 233.688C436.71 240.936 444.325 249.813 450.352 260.319C456.378 270.743 460.45 282.674 462.567 296.112Z" fill="black"/>
<path d="M562.741 586.551V554.056H756.364V586.551H678.304V804.238H640.679V586.551H562.741Z" fill="black"/>
</svg>
