<svg width="601" height="2964" viewBox="0 0 601 2964" fill="none" xmlns="http://www.w3.org/2000/svg">
<mask id="path-1-inside-1_70_3692" fill="white">
<path d="M263.07 864H338.07V2964H263.07V864Z"/>
</mask>
<path d="M263.07 864H338.07V2964H263.07V864Z" fill="#FFFF00"/>
<path d="M334.87 864V2964H341.27V864H334.87ZM266.27 2964V864H259.87V2964H266.27Z" fill="black" mask="url(#path-1-inside-1_70_3692)"/>
<rect x="263.57" y="1144.12" width="74" height="314" fill="black" stroke="black"/>
<rect x="263.57" y="1839.35" width="74" height="314" fill="black" stroke="black"/>
<rect x="263.57" y="2534.58" width="74" height="314" fill="black" stroke="black"/>
<rect x="1.70312" y="1.5" width="597" height="861" fill="#FFFF00" stroke="black" stroke-width="3"/>
<path fill-rule="evenodd" clip-rule="evenodd" d="M525.203 173.164L131.365 567.002L75.2031 510.84L469.041 117.002L525.203 173.164Z" fill="black"/>
<path fill-rule="evenodd" clip-rule="evenodd" d="M525.203 510.837L131.365 116.999L75.2031 173.161L469.041 566.999L525.203 510.837Z" fill="black"/>
<path d="M94.8458 656.262C94.5276 653.284 93.1867 650.966 90.8231 649.307C88.4822 647.648 85.4367 646.819 81.6867 646.819C79.0503 646.819 76.789 647.216 74.9026 648.012C73.0163 648.807 71.5731 649.887 70.5731 651.25C69.5731 652.614 69.0617 654.171 69.039 655.921C69.039 657.375 69.3685 658.637 70.0276 659.705C70.7094 660.773 71.6299 661.682 72.789 662.432C73.9481 663.159 75.2322 663.773 76.6413 664.273C78.0503 664.773 79.4708 665.194 80.9026 665.534L87.4481 667.171C90.0844 667.784 92.6185 668.614 95.0503 669.659C97.5049 670.705 99.6981 672.023 101.63 673.614C103.584 675.205 105.13 677.125 106.266 679.375C107.403 681.625 107.971 684.262 107.971 687.284C107.971 691.375 106.925 694.978 104.834 698.091C102.744 701.182 99.7208 703.603 95.7663 705.353C91.8344 707.08 87.0731 707.944 81.4822 707.944C76.0503 707.944 71.3344 707.103 67.3344 705.421C63.3572 703.739 60.2435 701.284 57.9935 698.057C55.7663 694.83 54.5617 690.898 54.3799 686.262H66.8231C67.0049 688.694 67.7549 690.716 69.0731 692.33C70.3913 693.944 72.1072 695.148 74.2208 695.944C76.3572 696.739 78.7435 697.137 81.3799 697.137C84.1299 697.137 86.539 696.728 88.6072 695.909C90.6981 695.069 92.3344 693.909 93.5163 692.432C94.6981 690.932 95.3003 689.182 95.3231 687.182C95.3003 685.364 94.7663 683.864 93.7208 682.682C92.6753 681.478 91.2094 680.478 89.3231 679.682C87.4594 678.864 85.2776 678.137 82.7776 677.5L74.8344 675.455C69.0844 673.978 64.539 671.739 61.1981 668.739C57.8799 665.716 56.2208 661.705 56.2208 656.705C56.2208 652.591 57.3344 648.989 59.5617 645.898C61.8117 642.807 64.8685 640.409 68.7322 638.705C72.5958 636.978 76.9708 636.114 81.8572 636.114C86.8117 636.114 91.1526 636.978 94.8799 638.705C98.6299 640.409 101.573 642.784 103.709 645.83C105.846 648.853 106.948 652.33 107.016 656.262H94.8458ZM118.286 706.887V637.069H130.934V666.625H163.286V637.069H175.968V706.887H163.286V677.228H130.934V706.887H118.286ZM232.775 637.069H245.423V682.682C245.423 687.682 244.241 692.08 241.878 695.875C239.537 699.671 236.241 702.637 231.991 704.773C227.741 706.887 222.775 707.944 217.093 707.944C211.389 707.944 206.412 706.887 202.162 704.773C197.912 702.637 194.616 699.671 192.275 695.875C189.934 692.08 188.764 687.682 188.764 682.682V637.069H201.412V681.625C201.412 684.534 202.048 687.125 203.321 689.398C204.616 691.671 206.434 693.455 208.775 694.75C211.116 696.023 213.889 696.659 217.093 696.659C220.298 696.659 223.071 696.023 225.412 694.75C227.775 693.455 229.593 691.671 230.866 689.398C232.139 687.125 232.775 684.534 232.775 681.625V637.069ZM315.585 637.069V706.887H304.335L271.437 659.33H270.858V706.887H258.21V637.069H269.528L302.392 684.659H303.006V637.069H315.585ZM325.338 647.671V637.069H381.043V647.671H359.463V706.887H346.918V647.671H325.338ZM403.469 637.069V706.887H390.821V637.069H403.469ZM473.58 637.069V706.887H462.33L429.432 659.33H428.853V706.887H416.205V637.069H427.523L460.387 684.659H461.001V637.069H473.58ZM533.174 659.364C532.606 657.523 531.822 655.875 530.822 654.421C529.845 652.944 528.663 651.682 527.276 650.637C525.913 649.591 524.345 648.807 522.572 648.284C520.799 647.739 518.867 647.466 516.776 647.466C513.026 647.466 509.685 648.409 506.754 650.296C503.822 652.182 501.515 654.955 499.833 658.614C498.174 662.25 497.345 666.682 497.345 671.909C497.345 677.182 498.174 681.648 499.833 685.307C501.492 688.966 503.799 691.75 506.754 693.659C509.708 695.546 513.14 696.489 517.049 696.489C520.595 696.489 523.663 695.807 526.254 694.444C528.867 693.08 530.879 691.148 532.288 688.648C533.697 686.125 534.401 683.171 534.401 679.784L537.265 680.228H518.31V670.341H546.64V678.728C546.64 684.705 545.367 689.875 542.822 694.239C540.276 698.603 536.776 701.966 532.322 704.33C527.867 706.671 522.754 707.841 516.981 707.841C510.549 707.841 504.901 706.398 500.038 703.512C495.197 700.603 491.413 696.478 488.685 691.137C485.981 685.773 484.629 679.409 484.629 672.046C484.629 666.409 485.424 661.375 487.015 656.944C488.629 652.512 490.879 648.75 493.765 645.659C496.651 642.546 500.038 640.182 503.924 638.569C507.81 636.932 512.038 636.114 516.606 636.114C520.47 636.114 524.072 636.682 527.413 637.819C530.754 638.932 533.72 640.523 536.31 642.591C538.924 644.659 541.072 647.114 542.754 649.955C544.435 652.796 545.538 655.932 546.06 659.364H533.174ZM181.088 807.887V738.069H193.735V797.284H224.485V807.887H181.088ZM247.15 738.069V807.887H234.503V738.069H247.15ZM259.886 738.069H275.364L296.091 788.659H296.909L317.636 738.069H333.114V807.887H320.977V759.921H320.33L301.034 807.682H291.966L272.67 759.819H272.023V807.887H259.886V738.069ZM358.574 738.069V807.887H345.926V738.069H358.574ZM368.242 748.671V738.069H423.946V748.671H402.367V807.887H389.821V748.671H368.242Z" fill="black"/>
<circle cx="301" cy="133.933" r="60.5703" fill="black"/>
</svg>
