<svg width="601" height="801" viewBox="0 0 601 801" fill="none" xmlns="http://www.w3.org/2000/svg">
<rect width="600" height="800" transform="translate(0.5 0.5)" fill="#230068"/>
<path fill-rule="evenodd" clip-rule="evenodd" d="M118.392 172.975L75.5 115.674H519.483V219.976L308.872 221.982C312.523 227.48 316.174 232.99 319.935 238.429L322.834 242.557L326.156 247.298L333.412 257.64L337.251 263.117L355.539 289.241L362.512 299.186L376.631 319.361L380.219 324.49L387.349 334.684L395.075 345.73C398.24 350.256 401.422 354.775 404.634 359.275L408.113 364.113L414.679 373.296L418.314 378.354C419.913 380.6 421.48 382.86 423.031 385.153L425.209 388.465L428.547 393.37C428.249 397.257 428.077 399.537 427.56 401.433C426.808 404.122 425.35 406.04 421.824 410.679C419.427 413.919 417.045 417.185 414.694 420.471L410.949 425.737C404.571 434.563 398.381 443.491 392.27 452.498L384.827 463.457L380.972 469.105L368.905 486.801L360.365 499.336L356.134 505.554L348.44 516.834C341.466 527.101 334.587 537.429 306.866 579.017L525.5 581.023V685.326H79.3646L104.63 649.049C104.63 649.049 117.285 630.78 131.263 610.983L133.99 607.247L137.093 602.962C145.978 590.745 154.816 578.496 163.513 566.143C171.693 554.519 179.889 542.928 188.225 531.418C196.75 519.65 205.259 507.871 213.627 495.988C221.791 484.386 229.971 472.809 238.277 461.311L241.552 456.788L250.5 444.408C253.101 440.818 255.718 437.236 258.366 433.668L262.08 428.659L269.257 418.928C272.579 414.495 275.823 410.181 278.691 405.581C280.32 402.956 281.825 400.237 283.141 397.35C282.89 393.801 281.887 391.07 280.399 388.492C279.192 386.42 277.656 384.446 275.933 382.226C274.444 380.4 272.987 378.564 271.545 376.719L269.476 374.11L266.045 369.692C259.808 361.793 253.712 353.793 247.679 345.735L243.934 340.701C230.535 322.846 217.263 304.902 204.052 286.914C204.052 286.914 206.293 290.007 196.343 276.444C186.392 262.88 176.441 249.32 166.349 235.858C166.349 235.858 165.503 234.942 160.442 227.999C155.38 221.057 144.933 207.615 144.933 207.615L118.392 172.975Z" fill="#FFFF00"/>
</svg>
