<svg width="1001" height="2675" viewBox="0 0 1001 2675" fill="none" xmlns="http://www.w3.org/2000/svg">
<mask id="path-1-inside-1_69_2757" fill="white">
<path d="M462.5 674.5H537.5V2674.5H462.5V674.5Z"/>
</mask>
<path d="M462.5 674.5H537.5V2674.5H462.5V674.5Z" fill="white"/>
<path d="M534.3 674.5V2674.5H540.7V674.5H534.3ZM465.7 2674.5V674.5H459.3V2674.5H465.7Z" fill="black" mask="url(#path-1-inside-1_69_2757)"/>
<rect x="463" y="941.31" width="74" height="299" fill="black" stroke="black"/>
<rect x="463" y="1603.43" width="74" height="299" fill="black" stroke="black"/>
<rect x="463" y="2265.55" width="74" height="299" fill="black" stroke="black"/>
<path d="M3.98061 672.5L500.043 3.46643L996.054 672.479L3.98061 672.5Z" fill="#FFFF02" stroke="black" stroke-width="4"/>
<!-- <path d="M430.062 375.099V619.463H393.073V412.088H391.641L333.176 450.27V414.952L394.147 375.099H430.062ZM577.878 623.52C559.026 623.44 542.918 618.469 529.554 608.605C516.191 598.741 505.969 584.383 498.889 565.531C491.81 546.679 488.27 523.969 488.27 497.4C488.27 470.912 491.81 448.281 498.889 429.508C506.049 410.736 516.31 396.417 529.674 386.554C543.117 376.69 559.185 371.758 577.878 371.758C596.571 371.758 612.6 376.73 625.963 386.673C639.327 396.537 649.549 410.855 656.628 429.628C663.787 448.321 667.367 470.912 667.367 497.4C667.367 524.048 663.827 546.798 656.747 565.65C649.668 584.423 639.446 598.781 626.083 608.724C612.719 618.588 596.651 623.52 577.878 623.52ZM577.878 591.662C594.424 591.662 607.35 583.588 616.656 567.44C626.043 551.292 630.736 527.946 630.736 497.4C630.736 477.116 628.588 459.974 624.293 445.974C620.077 431.895 613.992 421.236 606.037 413.997C598.162 406.679 588.776 403.02 577.878 403.02C561.412 403.02 548.486 411.133 539.1 427.361C529.713 443.588 524.98 466.934 524.901 497.4C524.901 517.764 527.009 534.986 531.225 549.065C535.52 563.065 541.605 573.684 549.48 580.923C557.355 588.082 566.821 591.662 577.878 591.662Z" fill="black"/> -->
</svg>
