<svg width="878" height="878" viewBox="0 0 878 878" fill="none" xmlns="http://www.w3.org/2000/svg">
<path d="M452.941 846.718L2.65532 452.718L424.793 30.58L875.079 424.58L452.941 846.718Z" fill="white" stroke="black" stroke-width="3"/>
<circle cx="438.867" cy="438.648" r="118.965" stroke="#FF0000" stroke-width="25"/>
<rect x="156.664" y="410.436" width="564.403" height="56.4275" fill="#230068"/>
<path d="M338.235 268.14C331.835 261.868 326.651 255.404 324.347 251.18C323.131 249.004 322.555 247.084 322.555 245.484C322.555 243.244 323.835 242.028 326.011 242.028C327.867 242.028 329.595 243.18 331.259 245.1C333.563 243.5 334.331 240.62 334.331 237.804C334.331 235.436 333.819 233.324 333.243 231.98H319.867V227.436H351.611V231.98H338.491C339.195 233.836 339.515 235.884 339.515 238.444C339.515 241.388 338.811 243.884 337.339 245.996C340.027 246.956 342.587 247.34 345.339 247.34C347.515 247.34 349.435 247.148 351.739 246.764L351.867 251.308C349.691 251.82 347.835 251.948 345.339 251.948C342.011 251.948 337.787 251.18 334.267 249.26C332.987 250.156 331.387 250.988 329.595 251.564C332.667 255.724 337.019 259.948 342.139 264.684L338.235 268.14ZM377.254 231.98H369.702V244.332H364.39C356.518 244.332 352.166 246.956 352.166 253.356C352.166 259.372 356.646 262.508 362.214 262.508C366.182 262.508 369.19 261.228 372.902 258.604L375.078 262.764C371.686 265.58 367.654 267.244 362.15 267.244C353.318 267.244 347.046 261.932 347.046 253.292C347.046 244.332 352.998 239.852 363.686 239.852H364.518V231.98H344.102V227.436H377.254V231.98ZM363.959 227.884C360.439 216.492 359.159 214.572 354.807 214.572C353.015 214.572 351.031 215.02 349.495 215.596L348.087 211.052C349.879 210.348 352.311 209.9 354.487 209.9C361.975 209.9 364.279 213.548 368.695 227.884H363.959ZM383.328 256.172C379.488 256.172 376.864 254.252 376.864 251.308C376.864 248.876 378.592 247.468 381.088 247.468C383.2 247.468 384.8 248.364 386.656 250.412C391.776 248.748 395.232 244.652 395.232 238.38C395.232 233.58 393.056 231.02 389.216 231.02C386.272 231.02 384.608 232.684 384.608 234.924C384.608 237.932 387.296 239.212 391.712 239.532L390.944 243.692C384.224 243.18 379.872 240.236 379.872 234.668C379.872 229.868 383.2 226.796 389.088 226.796C395.936 226.796 400.288 231.276 400.288 238.764C400.288 246.38 396.064 251.692 389.856 254.316C393.248 257.58 396.256 261.228 398.88 264.812L394.464 267.628C390.816 262.508 387.872 258.796 385.376 255.98C384.672 256.108 384.096 256.172 383.328 256.172ZM412.896 231.98V267.244H407.712V231.98H402.016V227.436H419.488V231.98H412.896ZM417.932 227.436H454.348V231.98H447.756V267.244H442.572V248.172H430.988V251.628C430.988 253.996 429.708 255.212 427.724 255.212C424.588 255.212 420.3 250.476 420.3 246.892C420.3 244.972 421.324 243.628 424.204 243.628H442.572V231.98H417.932V227.436ZM469.09 227.436H505.506V231.98H498.914V267.244H493.73V248.172H482.146V251.628C482.146 253.996 480.866 255.212 478.882 255.212C475.746 255.212 471.458 250.476 471.458 246.892C471.458 244.972 472.482 243.628 475.362 243.628H493.73V231.98H469.09V227.436ZM514.83 231.98V267.244H509.646V231.98H503.95V227.436H521.422V231.98H514.83ZM552.448 231.98V267.244H547.264V251.244H533.12V253.612C533.12 256.428 531.648 257.58 530.048 257.58C526.784 257.58 522.368 252.716 522.368 249.452C522.368 247.916 523.392 246.7 526.272 246.7H527.936V231.98H519.872V227.436H559.04V231.98H552.448ZM547.264 231.98H533.12V246.7H547.264V231.98Z" fill="black"/>
<path d="M265.602 429.192C265.397 427.377 264.553 425.971 263.07 424.974C261.587 423.964 259.721 423.459 257.471 423.459C255.86 423.459 254.467 423.714 253.29 424.226C252.114 424.724 251.2 425.415 250.548 426.297C249.909 427.166 249.589 428.157 249.589 429.269C249.589 430.202 249.807 431.008 250.241 431.685C250.689 432.363 251.271 432.932 251.987 433.392C252.715 433.839 253.495 434.217 254.326 434.523C255.157 434.817 255.956 435.06 256.723 435.252L260.558 436.249C261.811 436.556 263.096 436.972 264.413 437.496C265.729 438.02 266.95 438.71 268.075 439.567C269.2 440.423 270.108 441.484 270.798 442.75C271.501 444.016 271.853 445.531 271.853 447.295C271.853 449.519 271.278 451.494 270.127 453.22C268.989 454.946 267.334 456.308 265.161 457.305C263 458.302 260.386 458.8 257.317 458.8C254.377 458.8 251.833 458.334 249.685 457.401C247.538 456.467 245.857 455.144 244.642 453.431C243.428 451.705 242.756 449.66 242.629 447.295H248.573C248.688 448.714 249.148 449.896 249.954 450.842C250.772 451.776 251.814 452.472 253.08 452.933C254.358 453.38 255.758 453.604 257.279 453.604C258.954 453.604 260.443 453.342 261.747 452.817C263.064 452.281 264.099 451.539 264.854 450.593C265.608 449.634 265.985 448.516 265.985 447.237C265.985 446.074 265.653 445.121 264.988 444.38C264.336 443.638 263.447 443.025 262.322 442.539C261.21 442.053 259.951 441.625 258.545 441.254L253.904 439.989C250.759 439.132 248.266 437.873 246.425 436.211C244.597 434.549 243.683 432.35 243.683 429.614C243.683 427.352 244.297 425.376 245.524 423.689C246.751 422.001 248.413 420.691 250.51 419.758C252.607 418.812 254.972 418.339 257.605 418.339C260.264 418.339 262.61 418.805 264.643 419.739C266.688 420.672 268.299 421.957 269.475 423.593C270.651 425.217 271.265 427.083 271.316 429.192H265.602ZM276.457 423.977V418.876H306.851V423.977H294.598V458.148H288.691V423.977H276.457ZM311.704 458.148H305.415L319.547 418.876H326.393L340.526 458.148H334.236L323.133 426.009H322.827L311.704 458.148ZM312.759 442.769H333.163V447.755H312.759V442.769ZM339.08 423.977V418.876H369.474V423.977H357.221V458.148H351.314V423.977H339.08ZM381.576 418.876V458.148H375.651V418.876H381.576ZM423.78 438.512C423.78 442.705 423.013 446.31 421.479 449.327C419.945 452.332 417.842 454.646 415.17 456.269C412.511 457.88 409.487 458.685 406.099 458.685C402.699 458.685 399.663 457.88 396.991 456.269C394.332 454.646 392.235 452.325 390.701 449.308C389.167 446.291 388.4 442.692 388.4 438.512C388.4 434.319 389.167 430.72 390.701 427.716C392.235 424.699 394.332 422.385 396.991 420.774C399.663 419.151 402.699 418.339 406.099 418.339C409.487 418.339 412.511 419.151 415.17 420.774C417.842 422.385 419.945 424.699 421.479 427.716C423.013 430.72 423.78 434.319 423.78 438.512ZM417.912 438.512C417.912 435.316 417.394 432.625 416.359 430.439C415.336 428.24 413.93 426.578 412.14 425.453C410.363 424.315 408.349 423.746 406.099 423.746C403.837 423.746 401.817 424.315 400.04 425.453C398.263 426.578 396.856 428.24 395.821 430.439C394.798 432.625 394.287 435.316 394.287 438.512C394.287 441.708 394.798 444.406 395.821 446.604C396.856 448.79 398.263 450.452 400.04 451.59C401.817 452.715 403.837 453.278 406.099 453.278C408.349 453.278 410.363 452.715 412.14 451.59C413.93 450.452 415.336 448.79 416.359 446.604C417.394 444.406 417.912 441.708 417.912 438.512ZM462.326 418.876V458.148H456.879L436.917 429.346H436.553V458.148H430.627V418.876H436.112L456.093 447.717H456.458V418.876H462.326ZM515.878 418.876V458.148H510.432L490.47 429.346H490.106V458.148H484.18V418.876H489.665L509.646 447.717H510.01V418.876H515.878ZM527.299 458.148H521.01L535.143 418.876H541.988L556.121 458.148H549.831L538.728 426.009H538.422L527.299 458.148ZM528.354 442.769H548.758V447.755H528.354V442.769ZM561.253 418.876H568.444L580.946 449.404H581.407L593.909 418.876H601.101V458.148H595.463V429.729H595.098L583.516 458.091H578.837L567.255 429.71H566.89V458.148H561.253V418.876ZM609.175 458.148V418.876H633.798V423.977H615.101V435.942H632.513V441.024H615.101V453.048H634.028V458.148H609.175Z" fill="white"/>
</svg>
