<svg width="2591" height="3125" viewBox="0 0 2591 3125" fill="none" xmlns="http://www.w3.org/2000/svg">
<rect x="75.0977" y="275" width="2440" height="900" fill="#FFFF00"/>
<rect x="1.5" y="-1.5" width="2437" height="47" transform="matrix(1 0 0 -1 75.0977 272)" stroke="black" stroke-width="3"/>
<rect x="1.5" y="-1.5" width="2437" height="47" transform="matrix(1 0 0 -1 75.0977 1222)" stroke="black" stroke-width="3"/>
<rect x="1.59766" y="76.5" width="72" height="3047" stroke="black" stroke-width="3"/>
<circle cx="37.5977" cy="37.5" r="36" stroke="black" stroke-width="3"/>
<rect x="2516.6" y="76.5" width="72" height="3047" stroke="black" stroke-width="3"/>
<circle cx="2552.6" cy="37.5" r="36" stroke="black" stroke-width="3"/>
<path d="M754.826 688.34C720.426 654.628 692.562 619.884 680.178 597.18C673.642 585.484 670.546 575.164 670.546 566.564C670.546 554.524 677.426 547.988 689.122 547.988C699.098 547.988 708.386 554.18 717.33 564.5C729.714 555.9 733.842 540.42 733.842 525.284C733.842 512.556 731.09 501.204 727.994 493.98H656.098V469.556H826.722V493.98H756.202C759.986 503.956 761.706 514.964 761.706 528.724C761.706 544.548 757.922 557.964 750.01 569.316C764.458 574.476 778.218 576.54 793.01 576.54C804.706 576.54 815.026 575.508 827.41 573.444L828.098 597.868C816.402 600.62 806.426 601.308 793.01 601.308C775.122 601.308 752.418 597.18 733.498 586.86C726.618 591.676 718.018 596.148 708.386 599.244C724.898 621.604 748.29 644.308 775.81 669.764L754.826 688.34ZM964.553 493.98H923.961V560.372H895.409C853.097 560.372 829.705 574.476 829.705 608.876C829.705 641.212 853.785 658.068 883.713 658.068C905.041 658.068 921.209 651.188 941.161 637.084L952.857 659.444C934.625 674.58 912.953 683.524 883.369 683.524C835.897 683.524 802.185 654.972 802.185 608.532C802.185 560.372 834.177 536.292 891.625 536.292H896.097V493.98H786.361V469.556H964.553V493.98ZM893.089 471.964C874.169 410.732 867.289 400.412 843.897 400.412C834.265 400.412 823.601 402.82 815.345 405.916L807.777 381.492C817.409 377.708 830.481 375.3 842.177 375.3C882.425 375.3 894.809 394.908 918.545 471.964H893.089ZM997.201 624.012C976.561 624.012 962.457 613.692 962.457 597.868C962.457 584.796 971.745 577.228 985.161 577.228C996.513 577.228 1005.11 582.044 1015.09 593.052C1042.61 584.108 1061.18 562.092 1061.18 528.38C1061.18 502.58 1049.49 488.82 1028.85 488.82C1013.02 488.82 1004.08 497.764 1004.08 509.804C1004.08 525.972 1018.53 532.852 1042.26 534.572L1038.14 556.932C1002.02 554.18 978.625 538.356 978.625 508.428C978.625 482.628 996.513 466.116 1028.16 466.116C1064.97 466.116 1088.36 490.196 1088.36 530.444C1088.36 571.38 1065.66 599.932 1032.29 614.036C1050.52 631.58 1066.69 651.188 1080.79 670.452L1057.06 685.588C1037.45 658.068 1021.62 638.116 1008.21 622.98C1004.42 623.668 1001.33 624.012 997.201 624.012ZM1156.13 493.98V683.524H1128.26V493.98H1097.65V469.556H1191.56V493.98H1156.13ZM1183.2 469.556H1378.93V493.98H1343.5V683.524H1315.64V581.012H1253.37V599.588C1253.37 612.316 1246.49 618.852 1235.83 618.852C1218.97 618.852 1195.93 593.396 1195.93 574.132C1195.93 563.812 1201.43 556.588 1216.91 556.588H1315.64V493.98H1183.2V469.556ZM1458.17 469.556H1653.9V493.98H1618.47V683.524H1590.61V581.012H1528.34V599.588C1528.34 612.316 1521.46 618.852 1510.8 618.852C1493.94 618.852 1470.9 593.396 1470.9 574.132C1470.9 563.812 1476.4 556.588 1491.88 556.588H1590.61V493.98H1458.17V469.556ZM1704.02 493.98V683.524H1676.16V493.98H1645.54V469.556H1739.45V493.98H1704.02ZM1906.22 493.98V683.524H1878.36V597.524H1802.33V610.252C1802.33 625.388 1794.42 631.58 1785.82 631.58C1768.28 631.58 1744.54 605.436 1744.54 587.892C1744.54 579.636 1750.04 573.1 1765.52 573.1H1774.47V493.98H1731.12V469.556H1941.65V493.98H1906.22ZM1878.36 493.98H1802.33V573.1H1878.36V493.98Z" fill="black"/>
<path d="M532.02 830.379C531.118 822.378 527.399 816.18 520.863 811.786C514.327 807.334 506.101 805.109 496.184 805.109C489.085 805.109 482.943 806.236 477.76 808.489C472.576 810.687 468.547 813.729 465.674 817.617C462.856 821.449 461.448 825.815 461.448 830.717C461.448 834.83 462.406 838.38 464.321 841.366C466.293 844.353 468.857 846.86 472.012 848.888C475.224 850.861 478.661 852.523 482.324 853.875C485.986 855.171 489.507 856.241 492.888 857.087L509.792 861.482C515.313 862.834 520.976 864.665 526.779 866.975C532.583 869.285 537.964 872.328 542.922 876.103C547.881 879.878 551.881 884.555 554.924 890.133C558.023 895.711 559.572 902.388 559.572 910.163C559.572 919.967 557.037 928.673 551.966 936.279C546.951 943.886 539.654 949.886 530.076 954.281C520.553 958.676 509.031 960.874 495.508 960.874C482.549 960.874 471.336 958.817 461.87 954.704C452.404 950.591 444.995 944.759 439.642 937.209C434.29 929.602 431.332 920.587 430.768 910.163H456.968C457.475 916.418 459.504 921.629 463.054 925.799C466.66 929.912 471.252 932.983 476.83 935.011C482.464 936.983 488.634 937.969 495.339 937.969C502.72 937.969 509.284 936.814 515.032 934.504C520.835 932.138 525.399 928.87 528.723 924.7C532.048 920.474 533.71 915.544 533.71 909.91C533.71 904.782 532.245 900.585 529.315 897.317C526.441 894.049 522.525 891.344 517.567 889.203C512.665 887.062 507.115 885.174 500.917 883.54L480.464 877.962C466.603 874.187 455.616 868.637 447.502 861.312C439.445 853.988 435.417 844.296 435.417 832.239C435.417 822.266 438.121 813.56 443.53 806.123C448.939 798.685 456.264 792.91 465.505 788.797C474.745 784.627 485.169 782.543 496.776 782.543C508.496 782.543 518.835 784.599 527.794 788.712C536.809 792.826 543.908 798.488 549.092 805.7C554.276 812.856 556.98 821.082 557.206 830.379H532.02ZM579.864 807.391V784.909H713.823V807.391H659.817V958H633.786V807.391H579.864ZM735.214 958H707.492L769.781 784.909H799.954L862.243 958H834.521L785.586 816.349H784.234L735.214 958ZM739.862 890.217H829.788V912.192H739.862V890.217ZM855.869 807.391V784.909H989.829V807.391H935.823V958H909.791V807.391H855.869ZM1043.17 784.909V958H1017.05V784.909H1043.17ZM1229.18 871.455C1229.18 889.936 1225.79 905.825 1219.03 919.122C1212.27 932.363 1203 942.562 1191.23 949.717C1179.51 956.817 1166.18 960.366 1151.25 960.366C1136.26 960.366 1122.88 956.817 1111.1 949.717C1099.39 942.562 1090.14 932.335 1083.38 919.038C1076.62 905.74 1073.24 889.879 1073.24 871.455C1073.24 852.973 1076.62 837.112 1083.38 823.871C1090.14 810.574 1099.39 800.376 1111.1 793.276C1122.88 786.12 1136.26 782.543 1151.25 782.543C1166.18 782.543 1179.51 786.12 1191.23 793.276C1203 800.376 1212.27 810.574 1219.03 823.871C1225.79 837.112 1229.18 852.973 1229.18 871.455ZM1203.31 871.455C1203.31 857.368 1201.03 845.508 1196.47 835.873C1191.96 826.182 1185.76 818.857 1177.87 813.898C1170.04 808.884 1161.17 806.376 1151.25 806.376C1141.28 806.376 1132.38 808.884 1124.54 813.898C1116.71 818.857 1110.51 826.182 1105.95 835.873C1101.44 845.508 1099.19 857.368 1099.19 871.455C1099.19 885.541 1101.44 897.429 1105.95 907.121C1110.51 916.756 1116.71 924.08 1124.54 929.095C1132.38 934.054 1141.28 936.533 1151.25 936.533C1161.17 936.533 1170.04 934.054 1177.87 929.095C1185.76 924.08 1191.96 916.756 1196.47 907.121C1201.03 897.429 1203.31 885.541 1203.31 871.455ZM1399.06 784.909V958H1375.06L1287.08 831.055H1285.47V958H1259.36V784.909H1283.53L1371.59 912.023H1373.2V784.909H1399.06ZM1635.09 784.909V958H1611.09L1523.11 831.055H1521.5V958H1495.38V784.909H1519.56L1607.62 912.023H1609.23V784.909H1635.09ZM1685.43 958H1657.71L1720 784.909H1750.17L1812.46 958H1784.74L1735.8 816.349H1734.45L1685.43 958ZM1690.08 890.217H1780V912.192H1690.08V890.217ZM1835.07 784.909H1866.77L1921.87 919.46H1923.9L1979.01 784.909H2010.7V958H1985.85V832.746H1984.25L1933.2 957.746H1912.58L1861.53 832.661H1859.92V958H1835.07V784.909ZM2046.29 958V784.909H2154.81V807.391H2072.41V860.129H2149.15V882.526H2072.41V935.518H2155.82V958H2046.29Z" fill="black"/>
<path d="M128.282 1080.86H136.804L151.623 1117.04H152.168L166.986 1080.86H175.509V1127.4H168.827V1093.72H168.395L154.668 1127.34H149.123L135.395 1093.7H134.963V1127.4H128.282V1080.86ZM185.079 1127.4V1080.86H214.261V1086.9H192.102V1101.09H212.738V1107.11H192.102V1121.36H214.534V1127.4H185.079ZM226.933 1127.4H219.479L236.229 1080.86H244.343L261.093 1127.4H253.638L240.479 1089.31H240.115L226.933 1127.4ZM228.183 1109.18H252.365V1115.09H228.183V1109.18ZM304.742 1080.86V1127.4H298.288L274.629 1093.27H274.197V1127.4H267.174V1080.86H273.674L297.356 1115.04H297.788V1080.86H304.742ZM356.03 1093.09C355.788 1090.93 354.788 1089.27 353.03 1088.09C351.273 1086.89 349.061 1086.29 346.394 1086.29C344.485 1086.29 342.834 1086.59 341.44 1087.2C340.046 1087.79 338.962 1088.61 338.19 1089.65C337.432 1090.68 337.053 1091.86 337.053 1093.18C337.053 1094.28 337.311 1095.24 337.826 1096.04C338.356 1096.84 339.046 1097.52 339.894 1098.06C340.758 1098.59 341.682 1099.04 342.667 1099.4C343.652 1099.75 344.599 1100.04 345.508 1100.27L350.053 1101.45C351.538 1101.81 353.061 1102.31 354.621 1102.93C356.182 1103.55 357.629 1104.37 358.962 1105.38C360.296 1106.4 361.371 1107.65 362.19 1109.15C363.023 1110.65 363.44 1112.45 363.44 1114.54C363.44 1117.18 362.758 1119.52 361.394 1121.56C360.046 1123.61 358.084 1125.22 355.508 1126.4C352.947 1127.59 349.849 1128.18 346.212 1128.18C342.727 1128.18 339.712 1127.62 337.167 1126.52C334.621 1125.41 332.629 1123.84 331.19 1121.81C329.75 1119.77 328.955 1117.34 328.803 1114.54H335.849C335.985 1116.22 336.53 1117.62 337.485 1118.75C338.455 1119.85 339.69 1120.68 341.19 1121.22C342.705 1121.75 344.364 1122.02 346.167 1122.02C348.152 1122.02 349.917 1121.71 351.462 1121.09C353.023 1120.45 354.25 1119.57 355.144 1118.45C356.038 1117.31 356.485 1115.99 356.485 1114.47C356.485 1113.09 356.091 1111.96 355.303 1111.09C354.53 1110.21 353.477 1109.48 352.144 1108.9C350.826 1108.33 349.334 1107.82 347.667 1107.38L342.167 1105.88C338.44 1104.87 335.485 1103.37 333.303 1101.4C331.137 1099.43 330.053 1096.83 330.053 1093.59C330.053 1090.9 330.78 1088.56 332.235 1086.56C333.69 1084.56 335.659 1083.01 338.144 1081.9C340.629 1080.78 343.432 1080.22 346.553 1080.22C349.705 1080.22 352.485 1080.78 354.894 1081.88C357.318 1082.99 359.227 1084.51 360.621 1086.45C362.015 1088.37 362.743 1090.59 362.803 1093.09H356.03ZM371.192 1127.4V1080.86H400.373V1086.9H378.214V1101.09H398.851V1107.11H378.214V1121.36H400.646V1127.4H371.192ZM413.046 1127.4H405.591L422.341 1080.86H430.455L447.205 1127.4H439.75L426.591 1089.31H426.228L413.046 1127.4ZM414.296 1109.18H438.478V1115.09H414.296V1109.18ZM469.584 1127.4V1080.86H476.607V1121.36H497.698V1127.4H469.584ZM505.069 1127.4V1080.86H534.251V1086.9H512.092V1101.09H532.728V1107.11H512.092V1121.36H534.524V1127.4H505.069ZM547.06 1080.86L560.014 1118.77H560.537L573.492 1080.86H581.083L564.333 1127.4H556.219L539.469 1080.86H547.06ZM587.164 1127.4V1080.86H616.346V1086.9H594.187V1101.09H614.823V1107.11H594.187V1121.36H616.619V1127.4H587.164ZM625.087 1127.4V1080.86H632.109V1121.36H653.2V1127.4H625.087ZM692.437 1128.18C688.846 1128.16 685.778 1127.21 683.233 1125.34C680.687 1123.46 678.74 1120.72 677.392 1117.13C676.043 1113.54 675.369 1109.21 675.369 1104.15C675.369 1099.11 676.043 1094.8 677.392 1091.22C678.755 1087.65 680.71 1084.92 683.255 1083.04C685.816 1081.16 688.877 1080.22 692.437 1080.22C695.998 1080.22 699.051 1081.17 701.596 1083.06C704.142 1084.94 706.089 1087.67 707.437 1091.25C708.801 1094.81 709.483 1099.11 709.483 1104.15C709.483 1109.23 708.809 1113.56 707.46 1117.15C706.112 1120.73 704.165 1123.46 701.619 1125.36C699.074 1127.24 696.013 1128.18 692.437 1128.18ZM692.437 1122.11C695.589 1122.11 698.051 1120.57 699.824 1117.5C701.612 1114.42 702.505 1109.97 702.505 1104.15C702.505 1100.29 702.096 1097.03 701.278 1094.36C700.475 1091.68 699.316 1089.65 697.801 1088.27C696.301 1086.87 694.513 1086.18 692.437 1086.18C689.301 1086.18 686.839 1087.72 685.051 1090.81C683.263 1093.9 682.362 1098.35 682.346 1104.15C682.346 1108.03 682.748 1111.31 683.551 1114C684.369 1116.66 685.528 1118.68 687.028 1120.06C688.528 1121.43 690.331 1122.11 692.437 1122.11ZM733.11 1128.18C729.519 1128.16 726.451 1127.21 723.905 1125.34C721.36 1123.46 719.413 1120.72 718.064 1117.13C716.716 1113.54 716.042 1109.21 716.042 1104.15C716.042 1099.11 716.716 1094.8 718.064 1091.22C719.428 1087.65 721.383 1084.92 723.928 1083.04C726.489 1081.16 729.549 1080.22 733.11 1080.22C736.67 1080.22 739.723 1081.17 742.269 1083.06C744.814 1084.94 746.761 1087.67 748.11 1091.25C749.473 1094.81 750.155 1099.11 750.155 1104.15C750.155 1109.23 749.481 1113.56 748.133 1117.15C746.784 1120.73 744.837 1123.46 742.292 1125.36C739.746 1127.24 736.686 1128.18 733.11 1128.18ZM733.11 1122.11C736.261 1122.11 738.723 1120.57 740.496 1117.5C742.284 1114.42 743.178 1109.97 743.178 1104.15C743.178 1100.29 742.769 1097.03 741.951 1094.36C741.148 1091.68 739.989 1089.65 738.473 1088.27C736.973 1086.87 735.186 1086.18 733.11 1086.18C729.973 1086.18 727.511 1087.72 725.723 1090.81C723.936 1093.9 723.034 1098.35 723.019 1104.15C723.019 1108.03 723.42 1111.31 724.223 1114C725.042 1116.66 726.201 1118.68 727.701 1120.06C729.201 1121.43 731.004 1122.11 733.11 1122.11ZM773.782 1128.18C770.191 1128.16 767.123 1127.21 764.578 1125.34C762.032 1123.46 760.085 1120.72 758.737 1117.13C757.388 1113.54 756.714 1109.21 756.714 1104.15C756.714 1099.11 757.388 1094.8 758.737 1091.22C760.1 1087.65 762.055 1084.92 764.6 1083.04C767.161 1081.16 770.222 1080.22 773.782 1080.22C777.343 1080.22 780.396 1081.17 782.941 1083.06C785.487 1084.94 787.434 1087.67 788.782 1091.25C790.146 1094.81 790.828 1099.11 790.828 1104.15C790.828 1109.23 790.153 1113.56 788.805 1117.15C787.457 1120.73 785.51 1123.46 782.964 1125.36C780.419 1127.24 777.358 1128.18 773.782 1128.18ZM773.782 1122.11C776.934 1122.11 779.396 1120.57 781.169 1117.5C782.957 1114.42 783.85 1109.97 783.85 1104.15C783.85 1100.29 783.441 1097.03 782.623 1094.36C781.82 1091.68 780.661 1089.65 779.146 1088.27C777.646 1086.87 775.858 1086.18 773.782 1086.18C770.646 1086.18 768.184 1087.72 766.396 1090.81C764.608 1093.9 763.707 1098.35 763.691 1104.15C763.691 1108.03 764.093 1111.31 764.896 1114C765.714 1116.66 766.873 1118.68 768.373 1120.06C769.873 1121.43 771.676 1122.11 773.782 1122.11ZM814.455 1128.18C810.864 1128.16 807.796 1127.21 805.25 1125.34C802.705 1123.46 800.758 1120.72 799.409 1117.13C798.061 1113.54 797.387 1109.21 797.387 1104.15C797.387 1099.11 798.061 1094.8 799.409 1091.22C800.773 1087.65 802.727 1084.92 805.273 1083.04C807.834 1081.16 810.894 1080.22 814.455 1080.22C818.015 1080.22 821.068 1081.17 823.614 1083.06C826.159 1084.94 828.106 1087.67 829.455 1091.25C830.818 1094.81 831.5 1099.11 831.5 1104.15C831.5 1109.23 830.826 1113.56 829.477 1117.15C828.129 1120.73 826.182 1123.46 823.637 1125.36C821.091 1127.24 818.031 1128.18 814.455 1128.18ZM814.455 1122.11C817.606 1122.11 820.068 1120.57 821.841 1117.5C823.629 1114.42 824.523 1109.97 824.523 1104.15C824.523 1100.29 824.114 1097.03 823.296 1094.36C822.493 1091.68 821.334 1089.65 819.818 1088.27C818.318 1086.87 816.531 1086.18 814.455 1086.18C811.318 1086.18 808.856 1087.72 807.068 1090.81C805.281 1093.9 804.379 1098.35 804.364 1104.15C804.364 1108.03 804.765 1111.31 805.568 1114C806.387 1116.66 807.546 1118.68 809.046 1120.06C810.546 1121.43 812.349 1122.11 814.455 1122.11ZM855.857 1080.86H864.379L879.198 1117.04H879.743L894.561 1080.86H903.084V1127.4H896.402V1093.72H895.97L882.243 1127.34H876.698L862.97 1093.7H862.538V1127.4H855.857V1080.86ZM944.702 1092.5V1097.95H925.633V1092.5H944.702ZM930.747 1084.13H937.542V1117.15C937.542 1118.47 937.739 1119.46 938.133 1120.13C938.527 1120.78 939.035 1121.23 939.656 1121.47C940.292 1121.7 940.982 1121.81 941.724 1121.81C942.27 1121.81 942.747 1121.78 943.156 1121.7C943.565 1121.62 943.883 1121.56 944.111 1121.52L945.338 1127.13C944.944 1127.28 944.383 1127.43 943.656 1127.59C942.929 1127.75 942.02 1127.84 940.929 1127.86C939.141 1127.89 937.474 1127.57 935.929 1126.9C934.383 1126.24 933.133 1125.21 932.179 1123.81C931.224 1122.42 930.747 1120.67 930.747 1118.56V1084.13ZM951.579 1127.4V1092.5H958.147V1098.04H958.51C959.147 1096.16 960.268 1094.68 961.874 1093.61C963.495 1092.52 965.329 1091.97 967.374 1091.97C967.798 1091.97 968.298 1091.99 968.874 1092.02C969.465 1092.05 969.927 1092.09 970.26 1092.13V1098.63C969.988 1098.56 969.503 1098.47 968.806 1098.38C968.109 1098.28 967.412 1098.22 966.715 1098.22C965.109 1098.22 963.677 1098.56 962.42 1099.25C961.177 1099.91 960.192 1100.84 959.465 1102.04C958.738 1103.22 958.374 1104.57 958.374 1106.09V1127.4H951.579Z" fill="#FF0000"/>
</svg>
