<svg width="1400" height="2400" viewBox="0 0 1400 2400" fill="none" xmlns="http://www.w3.org/2000/svg">
<mask id="path-1-inside-1_69_3169" fill="white">
<path d="M662.5 400H737.5V2050H662.5V400Z"/>
</mask>
<path d="M662.5 400H737.5V2050H662.5V400Z" fill="white"/>
<path d="M734.3 400V2050H740.7V400H734.3ZM665.7 2050V400H659.3V2050H665.7Z" fill="black" mask="url(#path-1-inside-1_69_3169)"/>
<rect x="663" y="620.205" width="74" height="246.5" fill="black" stroke="black"/>
<rect x="663" y="1166.46" width="74" height="246.5" fill="black" stroke="black"/>
<rect x="663" y="1712.71" width="74" height="246.5" fill="black" stroke="black"/>
<circle cx="700" cy="443.455" r="421.75" fill="#FF0000" stroke="black" stroke-width="4"/>
<path d="M513.844 405.486C513.01 398.09 509.573 392.361 503.531 388.299C497.49 384.184 489.885 382.127 480.719 382.127C474.156 382.127 468.479 383.169 463.688 385.252C458.896 387.283 455.172 390.096 452.516 393.689C449.911 397.231 448.609 401.268 448.609 405.799C448.609 409.601 449.495 412.882 451.266 415.643C453.089 418.403 455.458 420.721 458.375 422.596C461.344 424.419 464.521 425.955 467.906 427.205C471.292 428.403 474.547 429.393 477.672 430.174L493.297 434.236C498.401 435.486 503.635 437.179 509 439.314C514.365 441.45 519.339 444.262 523.922 447.752C528.505 451.242 532.203 455.564 535.016 460.721C537.88 465.877 539.313 472.049 539.313 479.236C539.313 488.299 536.969 496.346 532.281 503.377C527.646 510.408 520.901 515.955 512.047 520.018C503.245 524.08 492.594 526.111 480.094 526.111C468.115 526.111 457.75 524.21 449 520.408C440.25 516.606 433.401 511.215 428.453 504.236C423.505 497.205 420.771 488.872 420.25 479.236H444.469C444.938 485.018 446.813 489.835 450.094 493.689C453.427 497.492 457.672 500.33 462.828 502.205C468.036 504.028 473.74 504.939 479.938 504.939C486.76 504.939 492.828 503.872 498.141 501.736C503.505 499.549 507.724 496.528 510.797 492.674C513.87 488.768 515.406 484.21 515.406 479.002C515.406 474.262 514.052 470.382 511.344 467.361C508.688 464.34 505.068 461.84 500.484 459.861C495.953 457.882 490.823 456.137 485.094 454.627L466.188 449.471C453.375 445.981 443.219 440.851 435.719 434.08C428.271 427.309 424.547 418.351 424.547 407.205C424.547 397.986 427.047 389.939 432.047 383.064C437.047 376.189 443.818 370.851 452.359 367.049C460.901 363.195 470.536 361.268 481.266 361.268C492.099 361.268 501.656 363.169 509.938 366.971C518.271 370.773 524.833 376.007 529.625 382.674C534.417 389.288 536.917 396.893 537.125 405.486H513.844ZM558.07 384.236V363.455H681.898V384.236H631.976V523.455H607.913V384.236H558.07ZM839.17 443.455C839.17 460.538 836.045 475.226 829.795 487.518C823.545 499.757 814.978 509.184 804.092 515.799C793.259 522.361 780.941 525.643 767.139 525.643C753.285 525.643 740.915 522.361 730.03 515.799C719.196 509.184 710.655 499.731 704.405 487.439C698.155 475.148 695.03 460.486 695.03 443.455C695.03 426.372 698.155 411.71 704.405 399.471C710.655 387.179 719.196 377.752 730.03 371.189C740.915 364.575 753.285 361.268 767.139 361.268C780.941 361.268 793.259 364.575 804.092 371.189C814.978 377.752 823.545 387.179 829.795 399.471C836.045 411.71 839.17 426.372 839.17 443.455ZM815.264 443.455C815.264 430.434 813.155 419.471 808.936 410.564C804.769 401.606 799.04 394.835 791.748 390.252C784.509 385.617 776.306 383.299 767.139 383.299C757.92 383.299 749.691 385.617 742.452 390.252C735.212 394.835 729.483 401.606 725.264 410.564C721.097 419.471 719.014 430.434 719.014 443.455C719.014 456.476 721.097 467.465 725.264 476.424C729.483 485.33 735.212 492.101 742.452 496.736C749.691 501.32 757.92 503.611 767.139 503.611C776.306 503.611 784.509 501.32 791.748 496.736C799.04 492.101 804.769 485.33 808.936 476.424C813.155 467.465 815.264 456.476 815.264 443.455ZM867.068 523.455V363.455H924.099C936.547 363.455 946.86 365.721 955.037 370.252C963.214 374.783 969.334 380.981 973.396 388.846C977.459 396.658 979.49 405.46 979.49 415.252C979.49 425.096 977.433 433.95 973.318 441.814C969.255 449.627 963.11 455.825 954.88 460.408C946.703 464.939 936.417 467.205 924.021 467.205H884.802V446.736H921.834C929.698 446.736 936.078 445.382 940.974 442.674C945.87 439.913 949.464 436.163 951.755 431.424C954.047 426.684 955.193 421.294 955.193 415.252C955.193 409.21 954.047 403.846 951.755 399.158C949.464 394.471 945.844 390.799 940.896 388.143C936 385.486 929.542 384.158 921.521 384.158H891.209V523.455H867.068Z" fill="white"/>
</svg>
