<svg width="1000" height="2650" viewBox="0 0 1000 2650" fill="none" xmlns="http://www.w3.org/2000/svg">
<mask id="path-1-inside-1_69_3096" fill="white">
<path d="M462.5 1000H537.5V2650H462.5V1000Z"/>
</mask>
<path d="M462.5 1000H537.5V2650H462.5V1000Z" fill="white"/>
<path d="M534.3 1000V2650H540.7V1000H534.3ZM465.7 2650V1000H459.3V2650H465.7Z" fill="black" mask="url(#path-1-inside-1_69_3096)"/>
<rect x="463" y="1220.21" width="74" height="246.5" fill="black" stroke="black"/>
<rect x="463" y="1766.46" width="74" height="246.5" fill="black" stroke="black"/>
<rect x="463" y="2312.71" width="74" height="246.5" fill="black" stroke="black"/>
<circle cx="500.002" cy="500" r="487.5" transform="rotate(45 500.002 500)" fill="#FFFF00" stroke="black" stroke-width="25"/>
<line x1="862.394" y1="155.286" x2="155.287" y2="862.393" stroke="black" stroke-width="25"/>
<path d="M242.437 247.248V214.754H436.059V247.248H357.999V464.936H320.374V247.248H242.437Z" fill="black"/>
<path d="M516.641 725.239V613.239H589.484V630.247H536.93V660.653H585.711V677.661H536.93V708.231H589.922V725.239H516.641ZM608.644 613.239H633.472L666.722 694.396H668.034L701.284 613.239H726.112V725.239H706.644V648.294H705.605L674.651 724.911H660.105L629.151 648.13H628.112V725.239H608.644V613.239ZM817.268 613.239H837.557V686.411C837.557 694.432 835.661 701.487 831.869 707.575C828.114 713.664 822.828 718.422 816.01 721.849C809.192 725.239 801.226 726.935 792.111 726.935C782.96 726.935 774.976 725.239 768.158 721.849C761.341 718.422 756.054 713.664 752.299 707.575C748.544 701.487 746.666 694.432 746.666 686.411V613.239H766.955V684.716C766.955 689.382 767.976 693.539 770.018 697.185C772.096 700.83 775.012 703.692 778.768 705.771C782.523 707.812 786.971 708.833 792.111 708.833C797.252 708.833 801.7 707.812 805.455 705.771C809.247 703.692 812.163 700.83 814.205 697.185C816.247 693.539 817.268 689.382 817.268 684.716V613.239Z" fill="black"/>
</svg>
