<svg width="1000" height="2650" viewBox="0 0 1000 2650" fill="none" xmlns="http://www.w3.org/2000/svg">
<mask id="path-1-inside-1_69_3083" fill="white">
<path d="M462.5 1000H537.5V2650H462.5V1000Z"/>
</mask>
<path d="M462.5 1000H537.5V2650H462.5V1000Z" fill="white"/>
<path d="M534.3 1000V2650H540.7V1000H534.3ZM465.7 2650V1000H459.3V2650H465.7Z" fill="black" mask="url(#path-1-inside-1_69_3083)"/>
<rect x="463" y="1220.21" width="74" height="246.5" fill="black" stroke="black"/>
<rect x="463" y="1766.46" width="74" height="246.5" fill="black" stroke="black"/>
<rect x="463" y="2312.71" width="74" height="246.5" fill="black" stroke="black"/>
<circle cx="500.002" cy="500" r="487.5" transform="rotate(45 500.002 500)" fill="#FFFF00" stroke="black" stroke-width="25"/>
<line x1="862.394" y1="155.286" x2="155.287" y2="862.393" stroke="black" stroke-width="25"/>
<path d="M242.437 247.248V214.754H436.059V247.248H357.999V464.936H320.374V247.248H242.437Z" fill="black"/>
<path d="M744.392 633.094C742.03 625.683 738.854 619.046 734.864 613.182C730.955 607.237 726.272 602.188 720.815 598.035C715.359 593.8 709.129 590.583 702.125 588.384C695.203 586.185 687.588 585.086 679.281 585.086C665.192 585.086 652.488 588.71 641.168 595.958C629.848 603.206 620.889 613.834 614.293 627.842C607.777 641.768 604.52 658.829 604.52 679.026C604.52 699.305 607.818 716.448 614.415 730.455C621.011 744.463 630.051 755.091 641.534 762.339C653.017 769.587 666.088 773.211 680.747 773.211C694.348 773.211 706.197 770.442 716.295 764.904C726.475 759.366 734.334 751.548 739.872 741.449C745.491 731.27 748.301 719.298 748.301 705.535L758.074 707.367H686.489V676.217H784.827V704.68C784.827 725.691 780.348 743.933 771.389 759.407C762.512 774.799 750.215 786.689 734.497 795.077C718.861 803.466 700.944 807.66 680.747 807.66C658.107 807.66 638.236 802.448 621.134 792.023C604.113 781.599 590.838 766.818 581.31 747.68C571.781 728.46 567.017 705.657 567.017 679.271C567.017 659.318 569.786 641.401 575.324 625.521C580.862 609.64 588.639 596.162 598.656 585.086C608.755 573.929 620.604 565.418 634.205 559.555C647.886 553.61 662.83 550.637 679.037 550.637C692.556 550.637 705.138 552.632 716.784 556.623C728.511 560.613 738.936 566.273 748.057 573.603C757.259 580.932 764.874 589.646 770.901 599.745C776.927 609.762 780.999 620.878 783.116 633.094H744.392Z" fill="black"/>
</svg>
