<svg width="1000" height="2650" viewBox="0 0 1000 2650" fill="none" xmlns="http://www.w3.org/2000/svg">
<mask id="path-1-inside-1_69_3027" fill="white">
<path d="M462.5 1000H537.5V2650H462.5V1000Z"/>
</mask>
<path d="M462.5 1000H537.5V2650H462.5V1000Z" fill="white"/>
<path d="M534.3 1000V2650H540.7V1000H534.3ZM465.7 2650V1000H459.3V2650H465.7Z" fill="black" mask="url(#path-1-inside-1_69_3027)"/>
<rect x="463" y="1220.21" width="74" height="246.5" fill="black" stroke="black"/>
<rect x="463" y="1766.46" width="74" height="246.5" fill="black" stroke="black"/>
<rect x="463" y="2312.71" width="74" height="246.5" fill="black" stroke="black"/>
<circle cx="500.002" cy="500" r="487.5" transform="rotate(45 500.002 500)" fill="#FFFF00" stroke="black" stroke-width="25"/>
<line x1="862.394" y1="155.286" x2="155.287" y2="862.393" stroke="black" stroke-width="25"/>
<path d="M242.437 247.248V214.754H436.059V247.248H357.999V464.936H320.374V247.248H242.437Z" fill="black"/>
<path d="M575.08 804.239V554.057H664.256C683.72 554.057 699.845 557.6 712.631 564.685C725.417 571.77 734.986 581.462 741.338 593.759C747.69 605.975 750.866 619.738 750.866 635.049C750.866 650.441 747.65 664.286 741.216 676.583C734.864 688.799 725.254 698.49 712.386 705.657C699.6 712.742 683.516 716.285 664.134 716.285H602.81V684.279H660.713C673.01 684.279 682.987 682.162 690.642 677.927C698.297 673.61 703.917 667.747 707.5 660.336C711.083 652.925 712.875 644.496 712.875 635.049C712.875 625.602 711.083 617.214 707.5 609.884C703.917 602.555 698.257 596.813 690.52 592.66C682.865 588.506 672.766 586.43 660.224 586.43H612.827V804.239H575.08Z" fill="black"/>
</svg>
