<svg width="901" height="2830" viewBox="0 0 901 2830" fill="none" xmlns="http://www.w3.org/2000/svg">
<mask id="path-1-inside-1_70_3318" fill="white">
<path d="M413.5 830H488.5V2830H413.5V830Z"/>
</mask>
<path d="M413.5 830H488.5V2830H413.5V830Z" fill="white"/>
<path d="M485.3 830V2830H491.7V830H485.3ZM416.7 2830V830H410.3V2830H416.7Z" fill="black" mask="url(#path-1-inside-1_70_3318)"/>
<rect x="414" y="1096.81" width="74" height="299" fill="black" stroke="black"/>
<rect x="414" y="1758.93" width="74" height="299" fill="black" stroke="black"/>
<rect x="414" y="2421.05" width="74" height="299" fill="black" stroke="black"/>
<path d="M9.53061 825.319L450.852 11.3273L892.172 825.319H9.53061Z" fill="#FF0000" stroke="black" stroke-width="10.3341"/>
<path d="M124.606 759.965L449.092 121.522L773.578 759.965H124.606Z" fill="white" stroke="black" stroke-width="10.3341"/>
<rect x="232.867" y="571.521" width="423.338" height="33.2506" fill="black"/>
<rect x="232.867" y="680.094" width="423.338" height="33.2506" fill="black"/>
<path d="M264.41 570.228L275.282 553.538L286.155 570.228V731.328H264.41V570.228Z" fill="black"/>
<path d="M332.105 570.228L342.978 553.538L353.85 570.228V731.328H332.105V570.228Z" fill="black"/>
<path d="M399.824 570.228L410.696 553.538L421.569 570.228V731.328H399.824V570.228Z" fill="black"/>
<path d="M467.52 570.228L478.392 553.538L489.264 570.228V731.328H467.52V570.228Z" fill="black"/>
<path d="M535.215 570.228L546.087 553.538L556.959 570.228V731.328H535.215V570.228Z" fill="black"/>
<path d="M602.934 570.228L613.806 553.538L624.678 570.228V731.328H602.934V570.228Z" fill="black"/>
</svg>
