<svg width="901" height="2830" viewBox="0 0 901 2830" fill="none" xmlns="http://www.w3.org/2000/svg">
<mask id="path-1-inside-1_70_3430" fill="white">
<path d="M413.5 830H488.5V2830H413.5V830Z"/>
</mask>
<path d="M413.5 830H488.5V2830H413.5V830Z" fill="white"/>
<path d="M485.3 830V2830H491.7V830H485.3ZM416.7 2830V830H410.3V2830H416.7Z" fill="black" mask="url(#path-1-inside-1_70_3430)"/>
<rect x="414" y="1096.81" width="74" height="299" fill="black" stroke="black"/>
<rect x="414" y="1758.93" width="74" height="299" fill="black" stroke="black"/>
<rect x="414" y="2421.05" width="74" height="299" fill="black" stroke="black"/>
<path d="M9.53061 825.319L450.852 11.3273L892.172 825.319H9.53061Z" fill="#FF0000" stroke="black" stroke-width="10.3341"/>
<path d="M124.606 759.965L449.092 121.522L773.578 759.965H124.606Z" fill="white" stroke="black" stroke-width="10.3341"/>
<rect x="232.867" y="571.521" width="423.338" height="33.2506" fill="black"/>
<rect x="232.867" y="680.094" width="423.338" height="33.2506" fill="black"/>
<path d="M264.41 570.228L275.282 553.538L286.155 570.228V731.328H264.41V570.228Z" fill="black"/>
<path d="M332.105 570.228L342.978 553.538L353.85 570.228V731.328H332.105V570.228Z" fill="black"/>
<path d="M399.824 570.228L410.696 553.538L421.569 570.228V731.328H399.824V570.228Z" fill="black"/>
<path d="M467.52 570.228L478.392 553.538L489.264 570.228V731.328H467.52V570.228Z" fill="black"/>
<path d="M535.215 570.228L546.087 553.538L556.959 570.228V731.328H535.215V570.228Z" fill="black"/>
<path d="M602.934 570.228L613.806 553.538L624.678 570.228V731.328H602.934V570.228Z" fill="black"/>
<rect x="302.5" y="831.986" width="297" height="897" fill="white" stroke="black" stroke-width="3"/>
<line x1="452.5" y1="830.486" x2="452.5" y2="1730.49" stroke="black" stroke-width="3"/>
<mask id="path-18-inside-2_70_3430" fill="white">
<path fill-rule="evenodd" clip-rule="evenodd" d="M601 1330.15V1415L301 1115V1030.15L601 1330.15Z"/>
</mask>
<path fill-rule="evenodd" clip-rule="evenodd" d="M601 1330.15V1415L301 1115V1030.15L601 1330.15Z" fill="#FF0000"/>
<path d="M601 1330.15H604V1328.9L603.121 1328.03L601 1330.15ZM601 1415L598.879 1417.12L604 1422.24V1415H601ZM301 1115H298V1116.24L298.879 1117.12L301 1115ZM301 1030.15L303.121 1028.03L298 1022.9V1030.15H301ZM598 1330.15V1415H604V1330.15H598ZM603.121 1412.88L303.121 1112.88L298.879 1117.12L598.879 1417.12L603.121 1412.88ZM304 1115V1030.15H298V1115H304ZM298.879 1032.27L598.879 1332.27L603.121 1328.03L303.121 1028.03L298.879 1032.27Z" fill="black" mask="url(#path-18-inside-2_70_3430)"/>
<mask id="path-20-inside-3_70_3430" fill="white">
<path fill-rule="evenodd" clip-rule="evenodd" d="M601 1580.49V1665.34L301 1365.34V1280.49L601 1580.49Z"/>
</mask>
<path fill-rule="evenodd" clip-rule="evenodd" d="M601 1580.49V1665.34L301 1365.34V1280.49L601 1580.49Z" fill="#FF0000"/>
<path d="M601 1580.49H604V1579.24L603.121 1578.37L601 1580.49ZM601 1665.34L598.879 1667.46L604 1672.58V1665.34H601ZM301 1365.34H298V1366.58L298.879 1367.46L301 1365.34ZM301 1280.49L303.121 1278.37L298 1273.24V1280.49H301ZM598 1580.49V1665.34H604V1580.49H598ZM603.121 1663.22L303.121 1363.22L298.879 1367.46L598.879 1667.46L603.121 1663.22ZM304 1365.34V1280.49H298V1365.34H304ZM298.879 1282.61L598.879 1582.61L603.121 1578.37L303.121 1278.37L298.879 1282.61Z" fill="black" mask="url(#path-20-inside-3_70_3430)"/>
</svg>
