<svg width="901" height="2830" viewBox="0 0 901 2830" fill="none" xmlns="http://www.w3.org/2000/svg">
<mask id="path-1-inside-1_70_3316" fill="white">
<path d="M412.98 830H487.98V2830H412.98V830Z"/>
</mask>
<path d="M412.98 830H487.98V2830H412.98V830Z" fill="white"/>
<path d="M484.78 830V2830H491.18V830H484.78ZM416.18 2830V830H409.78V2830H416.18Z" fill="black" mask="url(#path-1-inside-1_70_3316)"/>
<rect x="413.48" y="1096.81" width="74" height="299" fill="black" stroke="black"/>
<rect x="413.48" y="1758.93" width="74" height="299" fill="black" stroke="black"/>
<rect x="413.48" y="2421.05" width="74" height="299" fill="black" stroke="black"/>
<path d="M9.15952 824.833L450.48 10.8409L891.801 824.833H9.15952Z" fill="#FF0000" stroke="black" stroke-width="10.3341"/>
<path d="M124.231 759.477L448.717 121.034L773.203 759.477H124.231Z" fill="white" stroke="black" stroke-width="10.3341"/>
<path fill-rule="evenodd" clip-rule="evenodd" d="M596.334 682.975H695.93V718.483H213.062V682.975H317.26C337.572 650.612 392.376 627.425 456.797 627.425C521.217 627.425 576.022 650.612 596.334 682.975Z" fill="black"/>
<rect x="153.153" y="982.672" width="594.655" height="194.655" rx="45.4307" fill="white" stroke="black" stroke-width="5.34479"/>
<path d="M300.423 1023.54C300.175 1021.22 299.13 1019.41 297.287 1018.12C295.463 1016.83 293.089 1016.18 290.166 1016.18C288.111 1016.18 286.348 1016.49 284.878 1017.11C283.408 1017.73 282.283 1018.57 281.503 1019.63C280.724 1020.7 280.325 1021.91 280.308 1023.27C280.308 1024.41 280.565 1025.39 281.078 1026.22C281.61 1027.06 282.327 1027.77 283.231 1028.35C284.134 1028.92 285.135 1029.4 286.233 1029.78C287.332 1030.17 288.439 1030.5 289.555 1030.77L294.657 1032.04C296.712 1032.52 298.687 1033.17 300.582 1033.98C302.495 1034.8 304.205 1035.83 305.711 1037.07C307.234 1038.31 308.439 1039.8 309.324 1041.56C310.21 1043.31 310.653 1045.36 310.653 1047.72C310.653 1050.91 309.838 1053.72 308.208 1056.14C306.579 1058.55 304.223 1060.44 301.14 1061.8C298.076 1063.15 294.364 1063.82 290.007 1063.82C285.773 1063.82 282.097 1063.17 278.979 1061.86C275.879 1060.55 273.452 1058.63 271.698 1056.12C269.962 1053.6 269.023 1050.54 268.882 1046.92H278.581C278.722 1048.82 279.307 1050.4 280.334 1051.65C281.362 1052.91 282.699 1053.85 284.347 1054.47C286.012 1055.09 287.872 1055.4 289.927 1055.4C292.07 1055.4 293.948 1055.08 295.56 1054.44C297.19 1053.79 298.465 1052.88 299.386 1051.73C300.308 1050.56 300.777 1049.2 300.795 1047.64C300.777 1046.22 300.361 1045.05 299.546 1044.13C298.731 1043.19 297.588 1042.42 296.118 1041.8C294.666 1041.16 292.965 1040.59 291.016 1040.09L284.825 1038.5C280.343 1037.35 276.8 1035.6 274.196 1033.27C271.61 1030.91 270.317 1027.78 270.317 1023.89C270.317 1020.68 271.185 1017.87 272.921 1015.46C274.674 1013.05 277.057 1011.18 280.069 1009.86C283.08 1008.51 286.49 1007.84 290.299 1007.84C294.161 1007.84 297.544 1008.51 300.449 1009.86C303.372 1011.18 305.666 1013.04 307.332 1015.41C308.997 1017.77 309.856 1020.48 309.909 1023.54H300.423ZM323.931 1063V1008.58H344.339C348.519 1008.58 352.027 1009.36 354.861 1010.92C357.713 1012.48 359.866 1014.62 361.318 1017.35C362.789 1020.06 363.524 1023.14 363.524 1026.6C363.524 1030.09 362.789 1033.19 361.318 1035.9C359.848 1038.61 357.678 1040.74 354.808 1042.3C351.938 1043.84 348.404 1044.61 344.206 1044.61H330.681V1036.51H342.877C345.322 1036.51 347.324 1036.08 348.883 1035.23C350.442 1034.38 351.593 1033.21 352.337 1031.72C353.099 1030.24 353.48 1028.53 353.48 1026.6C353.48 1024.67 353.099 1022.96 352.337 1021.49C351.593 1020.02 350.433 1018.88 348.856 1018.07C347.297 1017.23 345.287 1016.82 342.824 1016.82H333.79V1063H323.931ZM376.576 1063V1008.58H411.97V1016.84H386.435V1031.62H410.137V1039.88H386.435V1054.74H412.183V1063H376.576ZM426.518 1063V1008.58H461.912V1016.84H436.376V1031.62H460.078V1039.88H436.376V1054.74H462.124V1063H426.518ZM494.9 1063H476.459V1008.58H495.272C500.675 1008.58 505.316 1009.67 509.196 1011.85C513.093 1014.01 516.087 1017.12 518.177 1021.18C520.267 1025.23 521.312 1030.09 521.312 1035.74C521.312 1041.41 520.258 1046.28 518.15 1050.35C516.06 1054.43 513.04 1057.55 509.089 1059.73C505.157 1061.91 500.427 1063 494.9 1063ZM486.317 1054.47H494.421C498.212 1054.47 501.375 1053.78 503.908 1052.4C506.441 1051 508.345 1048.92 509.621 1046.15C510.896 1043.37 511.534 1039.9 511.534 1035.74C511.534 1031.57 510.896 1028.12 509.621 1025.37C508.345 1022.61 506.459 1020.55 503.961 1019.18C501.481 1017.8 498.398 1017.11 494.714 1017.11H486.317V1054.47ZM270.848 1152V1097.58H291.681C295.613 1097.58 298.882 1098.2 301.486 1099.44C304.107 1100.66 306.065 1102.34 307.358 1104.46C308.669 1106.59 309.324 1109 309.324 1111.69C309.324 1113.9 308.899 1115.8 308.049 1117.38C307.199 1118.94 306.056 1120.2 304.621 1121.18C303.186 1122.15 301.583 1122.85 299.812 1123.28V1123.81C301.743 1123.91 303.594 1124.51 305.365 1125.59C307.154 1126.65 308.616 1128.16 309.75 1130.1C310.883 1132.05 311.45 1134.41 311.45 1137.17C311.45 1139.99 310.768 1142.52 309.404 1144.77C308.04 1147 305.985 1148.77 303.239 1150.06C300.494 1151.35 297.039 1152 292.876 1152H270.848ZM280.706 1143.76H291.309C294.887 1143.76 297.464 1143.08 299.041 1141.72C300.635 1140.33 301.433 1138.56 301.433 1136.4C301.433 1134.79 301.034 1133.34 300.237 1132.04C299.44 1130.73 298.306 1129.71 296.836 1128.96C295.365 1128.2 293.611 1127.82 291.574 1127.82H280.706V1143.76ZM280.706 1120.72H290.458C292.159 1120.72 293.691 1120.41 295.055 1119.79C296.419 1119.16 297.491 1118.26 298.27 1117.11C299.068 1115.94 299.466 1114.56 299.466 1112.97C299.466 1110.86 298.722 1109.12 297.234 1107.76C295.764 1106.39 293.576 1105.71 290.671 1105.71H280.706V1120.72ZM324.516 1152V1097.58H344.923C349.104 1097.58 352.612 1098.31 355.446 1099.76C358.298 1101.21 360.45 1103.25 361.903 1105.87C363.373 1108.47 364.108 1111.51 364.108 1114.99C364.108 1118.47 363.364 1121.5 361.876 1124.07C360.406 1126.62 358.236 1128.6 355.366 1130C352.496 1131.38 348.971 1132.07 344.791 1132.07H330.256V1123.89H343.462C345.907 1123.89 347.908 1123.55 349.467 1122.88C351.026 1122.19 352.178 1121.19 352.922 1119.87C353.683 1118.55 354.064 1116.92 354.064 1114.99C354.064 1113.05 353.683 1111.41 352.922 1110.04C352.16 1108.66 351 1107.62 349.441 1106.91C347.882 1106.18 345.871 1105.82 343.409 1105.82H334.374V1152H324.516ZM352.629 1127.34L366.101 1152H355.1L341.868 1127.34H352.629ZM377.672 1152V1097.58H413.066V1105.84H387.531V1120.62H411.233V1128.88H387.531V1143.74H413.279V1152H377.672ZM434.602 1152H424.08L443.238 1097.58H455.408L474.593 1152H464.071L449.536 1108.74H449.11L434.602 1152ZM434.948 1130.66H463.645V1138.58H434.948V1130.66ZM486.251 1152V1097.58H496.109V1122.58H496.773L518.004 1097.58H530.041L508.996 1122L530.227 1152H518.376L502.141 1128.67L496.109 1135.79V1152H486.251ZM541.38 1152V1097.58H576.774V1105.84H551.238V1120.62H574.941V1128.88H551.238V1143.74H576.987V1152H541.38ZM591.321 1152V1097.58H611.729C615.909 1097.58 619.417 1098.31 622.251 1099.76C625.103 1101.21 627.256 1103.25 628.708 1105.87C630.178 1108.47 630.914 1111.51 630.914 1114.99C630.914 1118.47 630.17 1121.5 628.682 1124.07C627.211 1126.62 625.041 1128.6 622.171 1130C619.302 1131.38 615.776 1132.07 611.596 1132.07H597.061V1123.89H610.267C612.712 1123.89 614.714 1123.55 616.272 1122.88C617.831 1122.19 618.983 1121.19 619.727 1119.87C620.489 1118.55 620.869 1116.92 620.869 1114.99C620.869 1113.05 620.489 1111.41 619.727 1110.04C618.965 1108.66 617.805 1107.62 616.246 1106.91C614.687 1106.18 612.676 1105.82 610.214 1105.82H601.179V1152H591.321ZM619.435 1127.34L632.907 1152H621.906L608.673 1127.34H619.435Z" fill="black"/>
</svg>
