<svg width="20" height="20" viewBox="0 0 20 20" fill="none" xmlns="http://www.w3.org/2000/svg">
<path d="M12.3447 10L19.5205 2.82416C20.1598 2.18485 20.1598 1.11915 19.5205 0.479486C18.8812 -0.159828 17.8155 -0.159828 17.1758 0.479486L10 7.65533L2.82416 0.479486C2.18485 -0.159828 1.11915 -0.159828 0.479486 0.479486C-0.159828 1.1188 -0.159828 2.1845 0.479486 2.82416L7.65532 10L0.479486 17.1758C-0.159828 17.8152 -0.159828 18.8808 0.479486 19.5205C1.1188 20.1598 2.1845 20.1598 2.82416 19.5205L10 12.3447L17.1758 19.5205C17.8152 20.1598 18.8808 20.1598 19.5205 19.5205C20.1598 18.8812 20.1598 17.8155 19.5205 17.1758L12.3447 10Z" fill="#ABABAB"/>
</svg>
