<svg width="100%" viewBox="0 0 70 60" fill="none" xmlns="http://www.w3.org/2000/svg">
<!-- <path d="M2.50515 62.4322H9.17532L10.9096 64.2665V67.7683L9.17532 69.6026H5.20657V71.9372H6.5406V73.2712H2.50515V71.9372H3.67243V63.7662H2.50515V62.4322ZM5.20657 63.8663V68.1686H8.50831L9.47548 67.1847V64.8501L8.52498 63.8663H5.20657ZM18.2426 73.2712V71.9372H19.3432L18.6261 69.8695H14.4573L13.7402 71.9372H14.8575V73.2712H11.3223V71.9372H12.2061L15.0242 63.7662H14.3239V62.4322H18.7762V63.7662H18.0592L20.8773 71.9372H21.7778V73.2712H18.2426ZM16.5417 63.8163L14.9075 68.5354H18.1759L16.5417 63.8163ZM23.3657 62.4322H30.0359L31.7701 64.2665V67.6016L30.0859 69.3692L31.6367 71.9372H32.5205V73.2712H29.5523V71.9372H30.0192L28.5184 69.4359H26.0671V71.9372H27.0677V73.2712H23.3657V71.9372H24.533V63.7662H23.3657V62.4322ZM26.0671 63.8663V68.0018H29.3689L30.3361 67.018V64.8501L29.3856 63.8663H26.0671ZM44.5138 73.2712H40.9786V71.9372H41.8291L39.3778 68.5187H37.7269V71.9372H38.8942V73.2712H35.0255V71.9372H36.1928V63.7662H35.0255V62.4322H38.8942V63.7662H37.7269V67.1847H39.1944L41.6623 63.7662H40.8119V62.4322H44.3471V63.7662H43.3799L40.5284 67.735L43.5467 71.9372H44.5138V73.2712ZM46.0137 71.9372H47.3477V63.7662H46.0137V62.4322H50.2159V63.7662H48.8819V71.9372H50.2159V73.2712H46.0137V71.9372ZM55.412 71.9372H56.5793V73.2712H52.7106V71.9372H53.8779V63.7662H52.7106V62.4322H56.1791L61.0483 71.637V63.7662H59.881V62.4322H63.7497V63.7662H62.5825V73.2712H60.2812L55.412 64.0831V71.9372ZM72.7465 69.019H70.4453V67.685H74.0806V71.4369L72.3463 73.2712H67.9773L66.2431 71.4369V64.2665L67.9773 62.4322H72.3463L74.0806 64.2665V66.3676H72.7465V64.9502L71.696 63.8663H68.6444L67.7772 64.7501V70.9534L68.6277 71.8372H71.6793L72.7465 70.7532V69.019Z" fill="white"/> -->
<path d="M56.3441 31.132C56.3441 33.5605 55.8657 35.9652 54.9364 38.2089C54.007 40.4526 52.6449 42.4912 50.9276 44.2084C49.2104 45.9256 47.1718 47.2878 44.9281 48.2171C42.6845 49.1465 40.2797 49.6248 37.8512 49.6248C35.4227 49.6248 33.018 49.1465 30.7743 48.2171C28.5307 47.2878 26.492 45.9256 24.7748 44.2084C23.0576 42.4912 21.6954 40.4525 20.7661 38.2089C19.8367 35.9652 19.3584 33.5605 19.3584 31.132C19.3584 28.7035 19.8367 26.2987 20.7661 24.0551C21.6954 21.8114 23.0576 19.7728 24.7748 18.0556C26.492 16.3384 28.5307 14.9762 30.7743 14.0468C33.018 13.1175 35.4227 12.6392 37.8512 12.6392C40.2797 12.6392 42.6845 13.1175 44.9281 14.0468C47.1718 14.9762 49.2104 16.3384 50.9276 18.0556C52.6449 19.7728 54.007 21.8114 54.9364 24.0551C55.8657 26.2987 56.3441 28.7035 56.3441 31.132L56.3441 31.132Z" stroke="white" stroke-width="4.54785"/>
<path d="M58.6984 11.4977C63.6205 16.7239 66.4002 23.6083 66.4867 30.787C66.5732 37.9656 63.9602 44.9149 59.1654 50.2582" stroke="white" stroke-width="3.0319" stroke-linejoin="round"/>
<path d="M17.0043 11.4977C12.0821 16.7239 9.30246 23.6083 9.21596 30.787C9.12946 37.9656 11.7424 44.9149 16.5372 50.2582" stroke="white" stroke-width="3.0319" stroke-linejoin="round"/>
</svg>
