<svg width="103" height="288" viewBox="0 0 103 288" fill="none" xmlns="http://www.w3.org/2000/svg">
<path d="M3.59393 284.948L2.01735 283.281V275.246L3.59393 273.579H7.8689L9.44548 275.246V283.281L7.8689 284.948H3.59393ZM4.18515 283.645H7.26252L8.05081 282.841V275.686L7.27768 274.882H4.20031L3.41202 275.686V282.841L4.18515 283.645Z" fill="#0B8E00"/>
<path d="M48.7136 13.6344H49.9264V4.69033H48.7136V3.47757H52.5338V4.69033H51.321V13.6344H52.5338V14.8472H48.7136V13.6344ZM54.3166 11.0254H57.9548L58.9008 12.0259V14.1179L57.9548 15.1185H55.7901V17.1195H56.5177V17.8472H54.3166V17.1195H54.9533V11.7531H54.3166V11.0254ZM57.591 14.3362L58.1186 13.7996V12.3443L57.6001 11.8076H55.7901V14.3362H57.591ZM60.2654 11.0254H63.9036L64.8496 12.0259V14.027L63.9036 15.0275L64.8769 17.1195H65.3498V17.8472H63.6399V17.1195H63.9946L63.0213 15.0275H61.7389V17.1195H62.2846V17.8472H60.2654V17.1195H60.9021V11.7531H60.2654V11.0254ZM63.5398 14.2453L64.0673 13.7086V12.3443L63.5489 11.8076H61.7389V14.2453H63.5398ZM66.8071 17.1195H67.5348V11.7531H66.8071V11.0254H69.0992V11.7531H68.3716V17.1195H69.0992V17.8472H66.8071V17.1195Z" fill="white"/>
<path d="M95.7274 273.579H99.775V274.791H99.0777L101.746 283.735H102.504V284.948H99.2899V283.735H100.351L99.6537 281.401H95.8487L95.1514 283.735H96.2125V284.948H92.9987V283.735H93.7567L96.4248 274.791H95.7274V273.579ZM97.7436 275.019L96.2125 280.188H99.2899L97.7436 275.019Z" fill="white"/>
<path d="M27.808 36.092V35.0005H29.9637L30.6186 34.3319V32.2991L29.9091 31.576H27.8216L27.003 32.4219V33.6225H25.8706V31.9034L27.2895 30.4026H30.4548L31.8738 31.9034V34.7276L31.1779 35.4507L32.133 36.4467V39.1345L30.7141 40.6353H27.2759L25.857 39.1345V37.4154H26.9894V38.616L27.8216 39.4619H30.182L30.8778 38.7388V36.8424L30.141 36.092H27.808ZM36.0267 40.6353L34.6078 39.1345V31.9034L36.0267 30.4026H39.8742L41.2931 31.9034V39.1345L39.8742 40.6353H36.0267ZM36.5588 39.4619H39.3285L40.0379 38.7388V32.2991L39.3421 31.576H36.5725L35.863 32.2991V38.7388L36.5588 39.4619ZM44.9003 40.6353L43.4814 39.1345V31.9034L44.9003 30.4026H48.7478L50.1667 31.9034V39.1345L48.7478 40.6353H44.9003ZM45.4324 39.4619H48.2021L48.9115 38.7388V32.2991L48.2157 31.576H45.4461L44.7366 32.2991V38.7388L45.4324 39.4619Z" fill="white"/>
<path d="M32.0784 77.3213H25.8024V76.2298L30.6186 70.8679V68.9851L29.9091 68.262H27.8216L27.003 69.1079V70.3085H25.8706V68.5894L27.2895 67.0886H30.4548L31.8738 68.5894V71.2636L27.3305 76.2298H30.9869V74.6472H32.0784V77.3213ZM39.7787 69.7628V68.1801H36.2314V71.1408H39.765L41.143 72.587V75.8205L39.7241 77.3213H36.286L34.867 75.8205V74.1014H35.9994V75.302L36.8317 76.1479H39.192L39.8878 75.4248V72.9826L39.1511 72.2323H35.1399V67.0886H40.8702V69.7628H39.7787ZM44.9003 77.3213L43.4814 75.8205V68.5894L44.9003 67.0886H48.7478L50.1667 68.5894V75.8205L48.7478 77.3213H44.9003ZM45.4324 76.1479H48.2021L48.9115 75.4248V68.9851L48.2157 68.262H45.4461L44.7366 68.9851V75.4248L45.4324 76.1479Z" fill="white"/>
<path d="M32.0784 114.008H25.8024V112.916L30.6186 107.554V105.671L29.9091 104.948H27.8216L27.003 105.794V106.995H25.8706V105.276L27.2895 103.775H30.4548L31.8738 105.276V107.95L27.3305 112.916H30.9869V111.333H32.0784V114.008ZM36.0267 114.008L34.6078 112.507V105.276L36.0267 103.775H39.8742L41.2931 105.276V112.507L39.8742 114.008H36.0267ZM36.5588 112.834H39.3285L40.0379 112.111V105.671L39.3421 104.948H36.5725L35.863 105.671V112.111L36.5588 112.834ZM44.9003 114.008L43.4814 112.507V105.276L44.9003 103.775H48.7478L50.1667 105.276V112.507L48.7478 114.008H44.9003ZM45.4324 112.834H48.2021L48.9115 112.111V105.671L48.2157 104.948H45.4461L44.7366 105.671V112.111L45.4324 112.834Z" fill="white"/>
<path d="M28.8585 140.46H30.1138V149.602H32.1603V150.693H26.812V149.602H28.8585V141.784L26.6347 142.889L26.1026 141.825L28.8585 140.46ZM39.7787 143.135V141.552H36.2314V144.513H39.765L41.143 145.959V149.192L39.7241 150.693H36.286L34.867 149.192V147.473H35.9994V148.674L36.8317 149.52H39.192L39.8878 148.797V146.354L39.1511 145.604H35.1399V140.46H40.8702V143.135H39.7787ZM44.9003 150.693L43.4814 149.192V141.961L44.9003 140.46H48.7478L50.1667 141.961V149.192L48.7478 150.693H44.9003ZM45.4324 149.52H48.2021L48.9115 148.797V142.357L48.2157 141.634H45.4461L44.7366 142.357V148.797L45.4324 149.52Z" fill="white"/>
<path d="M28.1007 177.146H29.3559V186.287H31.4025V187.379H26.0542V186.287H28.1007V178.47L25.8768 179.575L25.3447 178.511L28.1007 177.146ZM35.2689 187.379L33.85 185.878V178.647L35.2689 177.146H39.1164L40.5353 178.647V185.878L39.1164 187.379H35.2689ZM35.801 186.206H38.5706L39.2801 185.482V179.043L38.5843 178.32H35.8147L35.1052 179.043V185.482L35.801 186.206ZM44.1425 187.379L42.7236 185.878V178.647L44.1425 177.146H47.99L49.4089 178.647V185.878L47.99 187.379H44.1425ZM44.6746 186.206H47.4443L48.1537 185.482V179.043L47.4579 178.32H44.6883L43.9788 179.043V185.482L44.6746 186.206Z" fill="white"/>
<path d="M34.6319 216.506V214.924H31.0846V217.884H34.6183L35.9963 219.331V222.564L34.5773 224.065H31.1392L29.7203 222.564V220.845H30.8527V222.046L31.6849 222.892H34.0453L34.7411 222.168V219.726L34.0043 218.976H29.9931V213.832H35.7234V216.506H34.6319ZM39.7536 224.065L38.3346 222.564V215.333L39.7536 213.832H43.601L45.02 215.333V222.564L43.601 224.065H39.7536ZM40.2857 222.892H43.0553L43.7648 222.168V215.729L43.0689 215.006H40.2993L39.5898 215.729V222.168L40.2857 222.892Z" fill="white"/>
<path d="M35.3646 260.751L33.9457 259.25V252.019L35.3646 250.518H39.2121L40.631 252.019V259.25L39.2121 260.751H35.3646ZM35.8967 259.578H38.6663L39.444 258.786V252.483L38.68 251.692H35.9104L35.1327 252.483V258.786L35.8967 259.578ZM36.6062 254.816H37.9705V256.453H36.6062V254.816Z" fill="white"/>
<line y1="-0.757973" x2="24.2476" y2="-0.757973" transform="matrix(-1 0 0 1 82.8096 33.6995)" stroke="white" stroke-width="1.51595"/>
<line y1="-0.757973" x2="24.2476" y2="-0.757973" transform="matrix(-1 0 0 1 82.8096 71.5981)" stroke="white" stroke-width="1.51595"/>
<line y1="-0.757973" x2="14.884" y2="-0.757973" transform="matrix(-1 0 0 1 82.8096 52.6487)" stroke="white" stroke-width="1.51595"/>
<line y1="-0.757973" x2="8.3118" y2="-0.757973" transform="matrix(-1 0 0 1 82.8096 37.4893)" stroke="white" stroke-width="1.51595"/>
<line y1="-0.757973" x2="8.3118" y2="-0.757973" transform="matrix(-1 0 0 1 82.8096 56.4387)" stroke="white" stroke-width="1.51595"/>
<line y1="-0.757973" x2="8.3118" y2="-0.757973" transform="matrix(-1 0 0 1 82.8096 41.2793)" stroke="white" stroke-width="1.51595"/>
<line y1="-0.757973" x2="8.3118" y2="-0.757973" transform="matrix(-1 0 0 1 82.8096 60.2285)" stroke="white" stroke-width="1.51595"/>
<line y1="-0.757973" x2="8.3118" y2="-0.757973" transform="matrix(-1 0 0 1 82.8096 45.0691)" stroke="white" stroke-width="1.51595"/>
<line y1="-0.757973" x2="8.3118" y2="-0.757973" transform="matrix(-1 0 0 1 82.8096 64.0183)" stroke="white" stroke-width="1.51595"/>
<line y1="-0.757973" x2="8.3118" y2="-0.757973" transform="matrix(-1 0 0 1 82.8096 48.8589)" stroke="white" stroke-width="1.51595"/>
<line y1="-0.757973" x2="8.3118" y2="-0.757973" transform="matrix(-1 0 0 1 82.8096 67.8083)" stroke="white" stroke-width="1.51595"/>
<line y1="-0.757973" x2="24.2476" y2="-0.757973" transform="matrix(-1 0 0 1 82.8096 108.436)" stroke="white" stroke-width="1.51595"/>
<line y1="-0.757973" x2="14.884" y2="-0.757973" transform="matrix(-1 0 0 1 82.8096 89.4863)" stroke="white" stroke-width="1.51595"/>
<line y1="-0.757973" x2="8.3118" y2="-0.757973" transform="matrix(-1 0 0 1 82.8096 74.3269)" stroke="white" stroke-width="1.51595"/>
<line y1="-0.757973" x2="8.3118" y2="-0.757973" transform="matrix(-1 0 0 1 82.8096 93.2761)" stroke="white" stroke-width="1.51595"/>
<line y1="-0.757973" x2="8.3118" y2="-0.757973" transform="matrix(-1 0 0 1 82.8096 78.1167)" stroke="white" stroke-width="1.51595"/>
<line y1="-0.757973" x2="8.3118" y2="-0.757973" transform="matrix(-1 0 0 1 82.8096 97.0662)" stroke="white" stroke-width="1.51595"/>
<line y1="-0.757973" x2="8.3118" y2="-0.757973" transform="matrix(-1 0 0 1 82.8096 81.9067)" stroke="white" stroke-width="1.51595"/>
<line y1="-0.757973" x2="8.3118" y2="-0.757973" transform="matrix(-1 0 0 1 82.8096 100.856)" stroke="white" stroke-width="1.51595"/>
<line y1="-0.757973" x2="8.3118" y2="-0.757973" transform="matrix(-1 0 0 1 82.8096 85.6965)" stroke="white" stroke-width="1.51595"/>
<line y1="-0.757973" x2="8.3118" y2="-0.757973" transform="matrix(-1 0 0 1 82.8096 104.646)" stroke="white" stroke-width="1.51595"/>
<line y1="-0.757973" x2="24.2476" y2="-0.757973" transform="matrix(-1 0 0 1 82.8096 145.273)" stroke="white" stroke-width="1.51595"/>
<line y1="-0.757973" x2="14.884" y2="-0.757973" transform="matrix(-1 0 0 1 82.8096 126.324)" stroke="white" stroke-width="1.51595"/>
<line y1="-0.757973" x2="8.3118" y2="-0.757973" transform="matrix(-1 0 0 1 82.8096 111.164)" stroke="white" stroke-width="1.51595"/>
<line y1="-0.757973" x2="8.3118" y2="-0.757973" transform="matrix(-1 0 0 1 82.8096 130.114)" stroke="white" stroke-width="1.51595"/>
<line y1="-0.757973" x2="8.3118" y2="-0.757973" transform="matrix(-1 0 0 1 82.8096 114.954)" stroke="white" stroke-width="1.51595"/>
<line y1="-0.757973" x2="8.3118" y2="-0.757973" transform="matrix(-1 0 0 1 82.8096 133.904)" stroke="white" stroke-width="1.51595"/>
<line y1="-0.757973" x2="8.3118" y2="-0.757973" transform="matrix(-1 0 0 1 82.8096 118.744)" stroke="white" stroke-width="1.51595"/>
<line y1="-0.757973" x2="8.3118" y2="-0.757973" transform="matrix(-1 0 0 1 82.8096 137.693)" stroke="white" stroke-width="1.51595"/>
<line y1="-0.757973" x2="8.3118" y2="-0.757973" transform="matrix(-1 0 0 1 82.8096 122.534)" stroke="white" stroke-width="1.51595"/>
<line y1="-0.757973" x2="8.3118" y2="-0.757973" transform="matrix(-1 0 0 1 82.8096 141.483)" stroke="white" stroke-width="1.51595"/>
<line y1="-0.757973" x2="24.2476" y2="-0.757973" transform="matrix(-1 0 0 1 82.8096 182.111)" stroke="white" stroke-width="1.51595"/>
<line y1="-0.757973" x2="14.884" y2="-0.757973" transform="matrix(-1 0 0 1 82.8096 163.161)" stroke="white" stroke-width="1.51595"/>
<line y1="-0.757973" x2="8.3118" y2="-0.757973" transform="matrix(-1 0 0 1 82.8096 148.002)" stroke="white" stroke-width="1.51595"/>
<line y1="-0.757973" x2="8.3118" y2="-0.757973" transform="matrix(-1 0 0 1 82.8096 166.951)" stroke="white" stroke-width="1.51595"/>
<line y1="-0.757973" x2="8.3118" y2="-0.757973" transform="matrix(-1 0 0 1 82.8096 151.792)" stroke="white" stroke-width="1.51595"/>
<line y1="-0.757973" x2="8.3118" y2="-0.757973" transform="matrix(-1 0 0 1 82.8096 170.741)" stroke="white" stroke-width="1.51595"/>
<line y1="-0.757973" x2="8.3118" y2="-0.757973" transform="matrix(-1 0 0 1 82.8096 155.582)" stroke="white" stroke-width="1.51595"/>
<line y1="-0.757973" x2="8.3118" y2="-0.757973" transform="matrix(-1 0 0 1 82.8096 174.531)" stroke="white" stroke-width="1.51595"/>
<line y1="-0.757973" x2="8.3118" y2="-0.757973" transform="matrix(-1 0 0 1 82.8096 159.371)" stroke="white" stroke-width="1.51595"/>
<line y1="-0.757973" x2="8.3118" y2="-0.757973" transform="matrix(-1 0 0 1 82.8096 178.321)" stroke="white" stroke-width="1.51595"/>
<line y1="-0.757973" x2="24.2476" y2="-0.757973" transform="matrix(-1 0 0 1 82.8096 218.948)" stroke="white" stroke-width="1.51595"/>
<line y1="-0.757973" x2="14.884" y2="-0.757973" transform="matrix(-1 0 0 1 82.8096 199.999)" stroke="white" stroke-width="1.51595"/>
<line y1="-0.757973" x2="8.3118" y2="-0.757973" transform="matrix(-1 0 0 1 82.8096 184.839)" stroke="white" stroke-width="1.51595"/>
<line y1="-0.757973" x2="8.3118" y2="-0.757973" transform="matrix(-1 0 0 1 82.8096 203.789)" stroke="white" stroke-width="1.51595"/>
<line y1="-0.757973" x2="8.3118" y2="-0.757973" transform="matrix(-1 0 0 1 82.8096 188.629)" stroke="white" stroke-width="1.51595"/>
<line y1="-0.757973" x2="8.3118" y2="-0.757973" transform="matrix(-1 0 0 1 82.8096 207.579)" stroke="white" stroke-width="1.51595"/>
<line y1="-0.757973" x2="8.3118" y2="-0.757973" transform="matrix(-1 0 0 1 82.8096 192.419)" stroke="white" stroke-width="1.51595"/>
<line y1="-0.757973" x2="8.3118" y2="-0.757973" transform="matrix(-1 0 0 1 82.8096 211.368)" stroke="white" stroke-width="1.51595"/>
<line y1="-0.757973" x2="8.3118" y2="-0.757973" transform="matrix(-1 0 0 1 82.8096 196.209)" stroke="white" stroke-width="1.51595"/>
<line y1="-0.757973" x2="8.3118" y2="-0.757973" transform="matrix(-1 0 0 1 82.8096 215.158)" stroke="white" stroke-width="1.51595"/>
<line y1="-0.757973" x2="24.2476" y2="-0.757973" transform="matrix(-1 0 0 1 82.8096 255.786)" stroke="white" stroke-width="1.51595"/>
<line y1="-0.757973" x2="14.884" y2="-0.757973" transform="matrix(-1 0 0 1 82.8096 236.836)" stroke="white" stroke-width="1.51595"/>
<line y1="-0.757973" x2="8.3118" y2="-0.757973" transform="matrix(-1 0 0 1 82.8096 221.677)" stroke="white" stroke-width="1.51595"/>
<line y1="-0.757973" x2="8.3118" y2="-0.757973" transform="matrix(-1 0 0 1 82.8096 240.626)" stroke="white" stroke-width="1.51595"/>
<line y1="-0.757973" x2="8.3118" y2="-0.757973" transform="matrix(-1 0 0 1 82.8096 225.467)" stroke="white" stroke-width="1.51595"/>
<line y1="-0.757973" x2="8.3118" y2="-0.757973" transform="matrix(-1 0 0 1 82.8096 244.416)" stroke="white" stroke-width="1.51595"/>
<line y1="-0.757973" x2="8.3118" y2="-0.757973" transform="matrix(-1 0 0 1 82.8096 229.257)" stroke="white" stroke-width="1.51595"/>
<line y1="-0.757973" x2="8.3118" y2="-0.757973" transform="matrix(-1 0 0 1 82.8096 248.206)" stroke="white" stroke-width="1.51595"/>
<line y1="-0.757973" x2="8.3118" y2="-0.757973" transform="matrix(-1 0 0 1 82.8096 233.046)" stroke="white" stroke-width="1.51595"/>
<line y1="-0.757973" x2="8.3118" y2="-0.757973" transform="matrix(-1 0 0 1 82.8096 251.996)" stroke="white" stroke-width="1.51595"/>
<path d="M84.3252 254.255L96.5101 261.29L96.5101 247.22L84.3252 254.255Z" fill="#FF0000"/>
</svg>
