<svg width="50"  viewBox="0 0 50 50" fill="none" xmlns="http://www.w3.org/2000/svg">
<path d="M1.58618 8.10628L5.58754 3.57866C6.4508 2.60187 7.69171 2.04248 8.9953 2.04248H39.8372C40.9993 2.04248 42.1174 2.48735 42.9618 3.28576L48.06 8.10628" stroke="white" stroke-width="3.0319" stroke-linecap="round"/>
<path d="M25.6248 2.01184L6.33178 26.0503C5.27105 27.3719 5.49959 29.3064 6.83908 30.3445L25.6248 44.9031" stroke="white" stroke-width="3.0319" stroke-linecap="round"/>
<path d="M32.1978 34.6076C32.7899 35.1996 33.7497 35.1996 34.3417 34.6076L43.9892 24.9601C44.5812 24.3681 44.5812 23.4083 43.9892 22.8163C43.3971 22.2243 42.4373 22.2243 41.8453 22.8163L33.2698 31.3918L24.6943 22.8163C24.1023 22.2243 23.1424 22.2243 22.5504 22.8163C21.9584 23.4083 21.9584 24.3681 22.5504 24.9601L32.1978 34.6076ZM31.7538 9.90308L31.7538 33.5356L34.7857 33.5356L34.7857 9.90308L31.7538 9.90308Z" fill="white"/>
</svg>
