<svg width="205" height="233" viewBox="0 0 205 233" fill="none" xmlns="http://www.w3.org/2000/svg">
<g filter="url(#filter0_i_329_21879)">
<rect x="2" y="1.55713" width="201.443" height="201.443" rx="9.62114" fill="url(#paint0_linear_329_21879)"/>
</g>
<rect x="3.5033" y="3.06043" width="198.436" height="198.436" rx="8.11784" stroke="url(#paint1_linear_329_21879)" stroke-width="3.00661"/>
<g filter="url(#filter1_f_329_21879)">
<rect x="2.60132" y="2.15845" width="200.24" height="200.24" rx="9.01982" stroke="#3B3C42" stroke-width="1.20264"/>
</g>
<rect x="10.4187" y="9.97559" width="184.606" height="184.606" rx="9.01982" fill="url(#paint2_linear_329_21879)" stroke="url(#paint3_linear_329_21879)" stroke-width="1.20264"/>
<g filter="url(#filter2_f_329_21879)">
<rect x="10.118" y="9.67493" width="185.207" height="185.207" rx="9.32048" stroke="black" stroke-width="0.601321"/>
</g>
<rect x="16.4314" y="15.9889" width="172.579" height="172.579" rx="9.01982" fill="url(#paint4_linear_329_21879)" stroke="url(#paint5_linear_329_21879)" stroke-width="1.20264"/>
<rect x="27.8564" y="27.4139" width="149.729" height="149.729" rx="9.62114" fill="url(#paint6_radial_329_21879)"/>
<g filter="url(#filter3_f_329_21879)">
<rect x="29.0048" y="28.5623" width="147.432" height="147.432" rx="8.47281" stroke="#2D2D2D" stroke-width="2.29668"/>
</g>
<path d="M143.113 53.1057C151.082 59.8038 157.304 68.3832 161.227 78.0906C165.149 87.7982 166.651 98.3336 165.598 108.768" stroke="#0B8E00" stroke-width="7.21586"/>
<path d="M123.494 41.8983C130.199 44.2588 136.465 47.7456 142.027 52.2135" stroke="#FF0404" stroke-width="7.21586"/>
<g filter="url(#filter4_d_329_21879)">
<path fill-rule="evenodd" clip-rule="evenodd" d="M42.3951 111.324C42.4222 111.5 42.45 111.676 42.4786 111.852L35.272 113.023C35.24 112.826 35.2089 112.629 35.1786 112.432C35.1483 112.235 35.1189 112.038 35.0904 111.84L42.3163 110.795C42.3418 110.972 42.3681 111.148 42.3951 111.324ZM43.191 115.525C43.2695 115.873 43.3511 116.219 43.4356 116.566L36.3431 118.298C36.2485 117.911 36.1572 117.523 36.0694 117.133L43.191 115.525ZM44.434 120.171C44.5396 120.511 44.6481 120.851 44.7596 121.189L37.8249 123.473C37.7001 123.094 37.5787 122.714 37.4606 122.333L44.434 120.171ZM46.0378 124.705C46.1697 125.036 46.3045 125.366 46.4422 125.695L39.7081 128.516C39.554 128.148 39.4031 127.779 39.2555 127.408L46.0378 124.705Z" fill="#0384EF"/>
<path fill-rule="evenodd" clip-rule="evenodd" d="M42.6034 91.4663C42.5727 91.6419 42.5427 91.8175 42.5135 91.9933L35.3111 90.797C35.3438 90.6004 35.3773 90.4038 35.4117 90.2073C35.4461 90.0108 35.4814 89.8145 35.5175 89.6184L42.6979 90.9401C42.6656 91.1153 42.6341 91.2907 42.6034 91.4663ZM42.0135 95.7009C41.9767 96.0554 41.943 96.4102 41.9124 96.7651L34.6383 96.1377C34.6726 95.7404 34.7103 95.3434 34.7516 94.9466L42.0135 95.7009ZM41.7049 100.501C41.696 100.857 41.6902 101.213 41.6875 101.569L34.3867 101.515C34.3896 101.116 34.3961 100.717 34.4061 100.318L41.7049 100.501ZM41.7737 105.31C41.7928 105.665 41.815 106.021 41.8403 106.377L34.5576 106.895C34.5293 106.497 34.5045 106.099 34.4831 105.701L41.7737 105.31Z" fill="#0384EF"/>
<path fill-rule="evenodd" clip-rule="evenodd" d="M49.2723 72.5021C49.1864 72.6582 49.1012 72.8147 49.0167 72.9716L42.5894 69.5081C42.684 69.3325 42.7793 69.1574 42.8755 68.9826C42.9717 68.8079 43.0686 68.6335 43.1662 68.4597L49.532 72.0348C49.4448 72.1901 49.3582 72.3459 49.2723 72.5021ZM47.3433 76.3176C47.1937 76.6412 47.0469 76.9659 46.9031 77.2918L40.2239 74.3433C40.3849 73.9785 40.5491 73.6151 40.7166 73.253L47.3433 76.3176ZM45.4974 80.7589C45.3737 81.0931 45.2528 81.4284 45.135 81.7647L38.245 79.3493C38.3769 78.9729 38.5122 78.5977 38.6507 78.2236L45.4974 80.7589ZM44.0057 85.3313C43.9085 85.6742 43.8144 86.0179 43.7232 86.3624L36.665 84.495C36.767 84.1094 36.8724 83.7248 36.9811 83.3411L44.0057 85.3313Z" fill="#0384EF"/>
<path fill-rule="evenodd" clip-rule="evenodd" d="M61.972 56.4917C61.8395 56.6109 61.7075 56.7306 61.5761 56.8509L56.6458 51.466C56.7929 51.3313 56.9405 51.1973 57.0888 51.0639C57.2371 50.9305 57.386 50.7977 57.5354 50.6657L62.3709 56.1359C62.2375 56.2539 62.1045 56.3725 61.972 56.4917ZM58.8952 59.4604C58.6475 59.7167 58.4021 59.9751 58.159 60.2355L52.8214 55.254C53.0935 54.9625 53.3681 54.6733 53.6454 54.3865L58.8952 59.4604ZM55.6911 63.0473C55.4643 63.3222 55.2399 63.5991 55.018 63.8778L49.306 59.3305C49.5544 59.0184 49.8055 58.7086 50.0594 58.4009L55.6911 63.0473ZM52.7783 66.8745C52.5738 67.1664 52.3718 67.46 52.1724 67.7553L46.1212 63.6701C46.3444 63.3395 46.5705 63.0109 46.7994 62.6843L52.7783 66.8745Z" fill="#0384EF"/>
<path fill-rule="evenodd" clip-rule="evenodd" d="M80.0388 46.0672C79.8724 46.1309 79.7062 46.1953 79.5404 46.2605L76.8716 39.4646C77.0572 39.3918 77.2431 39.3197 77.4294 39.2484C77.6157 39.1771 77.8023 39.1066 77.9891 39.037L80.5389 45.8783C80.372 45.9406 80.2053 46.0035 80.0388 46.0672ZM76.1015 47.7337C75.7783 47.884 75.4565 48.0371 75.1361 48.1929L71.9423 41.6274C72.3009 41.453 72.6611 41.2817 73.0228 41.1135L76.1015 47.7337ZM71.8234 49.9314C71.513 50.1066 71.2042 50.2845 70.897 50.465L67.198 44.1704C67.5418 43.9683 67.8874 43.7692 68.2348 43.5732L71.8234 49.9314ZM67.7309 52.4581C67.4353 52.657 67.1414 52.8586 66.8492 53.0627L62.6677 47.0776C62.9947 46.8492 63.3236 46.6236 63.6545 46.401L67.7309 52.4581Z" fill="#0384EF"/>
<path fill-rule="evenodd" clip-rule="evenodd" d="M99.4914 42.0704C99.3133 42.0775 99.1353 42.0854 98.9573 42.0941L98.6029 34.8016C98.8021 34.7919 99.0013 34.7831 99.2006 34.7752C99.4 34.7672 99.5993 34.7602 99.7986 34.754L100.026 42.0515C99.8476 42.057 99.6695 42.0633 99.4914 42.0704ZM95.2279 42.3897C94.8736 42.4287 94.5197 42.4708 94.1663 42.516L93.2408 35.2738C93.6363 35.2232 94.0324 35.1761 94.4289 35.1325L95.2279 42.3897ZM90.4715 43.1033C90.1214 43.17 89.7719 43.2397 89.4231 43.3125L87.9322 36.1652C88.3226 36.0838 88.7138 36.0058 89.1056 35.9311L90.4715 43.1033ZM85.7858 44.1879C85.442 44.2818 85.0991 44.3787 84.757 44.4786L82.71 37.4704C83.0929 37.3586 83.4767 37.2501 83.8614 37.145L85.7858 44.1879Z" fill="#0384EF"/>
<path fill-rule="evenodd" clip-rule="evenodd" d="M119.436 44.5768C119.266 44.5259 119.095 44.4757 118.923 44.4263L120.949 37.4118C121.14 37.4671 121.332 37.5233 121.523 37.5803C121.714 37.6373 121.905 37.6951 122.096 37.7538L119.948 44.7318C119.778 44.6794 119.607 44.6277 119.436 44.5768ZM115.299 43.4986C114.951 43.4208 114.603 43.3461 114.254 43.2744L115.723 36.1226C116.113 36.2028 116.503 36.2865 116.893 36.3736L115.299 43.4986ZM110.568 42.634C110.215 42.5837 109.862 42.5365 109.508 42.4925L110.411 35.2475C110.807 35.2968 111.203 35.3496 111.597 35.4059L110.568 42.634ZM105.783 42.1432C105.428 42.1208 105.072 42.1015 104.716 42.0853L105.048 34.7918C105.446 34.8099 105.845 34.8315 106.243 34.8566L105.783 42.1432Z" fill="#0384EF"/>
<path fill-rule="evenodd" clip-rule="evenodd" d="M137.771 53.6021C137.627 53.4978 137.482 53.3942 137.336 53.2912L141.557 47.3333C141.719 47.4486 141.881 47.5646 142.043 47.6813C142.205 47.798 142.366 47.9154 142.527 48.0335L138.203 53.9168C138.06 53.8113 137.916 53.7064 137.771 53.6021ZM134.219 51.2229C133.916 51.0351 133.611 50.8499 133.306 50.6674L137.045 44.3968C137.388 44.601 137.728 44.8083 138.067 45.0186L134.219 51.2229ZM130.035 48.8501C129.719 48.6866 129.401 48.5258 129.081 48.3679L132.317 41.8232C132.675 42 133.031 42.1799 133.385 42.3629L130.035 48.8501ZM125.679 46.8128C125.35 46.6747 125.02 46.5394 124.69 46.407L127.402 39.6286C127.773 39.7768 128.142 39.9282 128.509 40.0828L125.679 46.8128Z" fill="#0384EF"/>
<path fill-rule="evenodd" clip-rule="evenodd" d="M152.082 68.1063C151.98 67.9604 151.877 67.815 151.773 67.67L157.714 63.426C157.83 63.5883 157.945 63.7511 158.06 63.9144C158.174 64.0777 158.288 64.2415 158.401 64.4057L152.387 68.5454C152.286 68.3986 152.185 68.2523 152.082 68.1063ZM149.507 64.6936C149.282 64.4167 149.055 64.1419 148.826 63.8692L154.416 59.1722C154.672 59.4775 154.926 59.785 155.177 60.0949L149.507 64.6936ZM146.333 61.0798C146.087 60.8215 145.84 60.5653 145.59 60.3113L150.794 55.1902C151.073 55.4745 151.351 55.7612 151.625 56.0503L146.333 61.0798ZM142.885 57.7262C142.621 57.4879 142.353 57.252 142.084 57.0183L146.87 51.5048C147.172 51.7662 147.47 52.0303 147.767 52.297L142.885 57.7262Z" fill="#0384EF"/>
<path fill-rule="evenodd" clip-rule="evenodd" d="M160.698 85.9992C160.647 85.8282 160.596 85.6575 160.544 85.487L167.531 83.3667C167.589 83.5575 167.646 83.7486 167.702 83.94C167.758 84.1314 167.814 84.3229 167.868 84.5147L160.846 86.5128C160.797 86.3414 160.748 86.1702 160.698 85.9992ZM159.349 81.9419C159.225 81.6078 159.098 81.2748 158.968 80.9431L165.767 78.2812C165.912 78.6525 166.054 79.0251 166.193 79.3991L159.349 81.9419ZM157.498 77.5027C157.348 77.1794 157.196 76.8574 157.04 76.5369L163.609 73.3497C163.783 73.7085 163.954 74.0689 164.122 74.4307L157.498 77.5027ZM155.305 73.2224C155.13 72.9119 154.953 72.6029 154.772 72.2954L161.071 68.6028C161.272 68.9469 161.471 69.2927 161.667 69.6402L155.305 73.2224Z" fill="#0384EF"/>
<path fill-rule="evenodd" clip-rule="evenodd" d="M163.126 105.955C163.133 105.777 163.14 105.599 163.147 105.42L170.443 105.676C170.436 105.875 170.428 106.075 170.42 106.274C170.411 106.473 170.401 106.672 170.391 106.872L163.1 106.489C163.109 106.311 163.118 106.133 163.126 105.955ZM163.163 101.679C163.154 101.323 163.142 100.967 163.126 100.611L170.42 100.293C170.438 100.692 170.452 101.09 170.462 101.489L163.163 101.679ZM162.849 96.88C162.812 96.5256 162.772 96.1715 162.729 95.8178L169.975 94.9289C170.024 95.3247 170.069 95.721 170.111 96.1177L162.849 96.88ZM162.16 92.1201C162.095 91.7697 162.027 91.4199 161.956 91.0707L169.111 89.6159C169.19 90.0068 169.266 90.3983 169.339 90.7904L162.16 92.1201Z" fill="#0384EF"/>
<path fill-rule="evenodd" clip-rule="evenodd" d="M158.839 125.935C158.905 125.77 158.971 125.604 159.035 125.438L165.841 128.08C165.769 128.265 165.696 128.451 165.623 128.636C165.549 128.822 165.474 129.007 165.399 129.191L158.64 126.431C158.707 126.266 158.774 126.101 158.839 125.935ZM160.281 121.911C160.39 121.571 160.495 121.231 160.598 120.889L167.591 122.989C167.476 123.371 167.358 123.752 167.236 124.132L160.281 121.911ZM161.564 117.275C161.645 116.928 161.724 116.58 161.799 116.232L168.935 117.776C168.85 118.166 168.763 118.555 168.671 118.944L161.564 117.275ZM162.478 112.553C162.532 112.201 162.583 111.848 162.631 111.495L169.866 112.475C169.812 112.87 169.755 113.265 169.695 113.659L162.478 112.553Z" fill="#0384EF"/>
</g>
<line x1="103.04" y1="34.3707" x2="103.04" y2="47.3111" stroke="#0384EF" stroke-width="1.80396"/>
<line x1="80.1813" y1="38.2457" x2="84.5613" y2="50.4223" stroke="#0384EF" stroke-width="1.80396"/>
<line x1="45.1334" y1="66.4976" x2="56.1667" y2="73.2593" stroke="#0384EF" stroke-width="1.80396"/>
<line x1="36.5275" y1="87.7384" x2="49.1817" y2="90.4449" stroke="#0384EF" stroke-width="1.80396"/>
<line x1="35.3194" y1="109.246" x2="48.1846" y2="107.853" stroke="#0384EF" stroke-width="1.80396"/>
<line x1="124.713" y1="38.2352" x2="120.553" y2="50.4886" stroke="#0384EF" stroke-width="1.80396"/>
<line x1="159.852" y1="65.9459" x2="148.972" y2="72.9504" stroke="#0384EF" stroke-width="1.80396"/>
<line x1="168.705" y1="86.9734" x2="156.119" y2="89.979" stroke="#0384EF" stroke-width="1.80396"/>
<line x1="170.075" y1="109.928" x2="157.207" y2="108.561" stroke="#0384EF" stroke-width="1.80396"/>
<path fill-rule="evenodd" clip-rule="evenodd" d="M72.8463 63.0184C72.5757 63.2242 72.307 63.4331 72.0402 63.6449C71.7734 63.8566 71.5091 64.071 71.2472 64.2879L59.8128 50.4812C60.1697 50.1856 60.5301 49.8934 60.8937 49.6047C61.2573 49.316 61.6236 49.0314 61.9925 48.7507L72.8463 63.0184ZM133.504 63.7335C133.238 63.5209 132.97 63.3113 132.7 63.1046L143.594 48.8684C143.962 49.15 144.328 49.4358 144.691 49.7255C145.054 50.0152 145.413 50.3084 145.769 50.6051L134.295 64.3788C134.034 64.1611 133.77 63.946 133.504 63.7335ZM57.7575 122.601C57.8975 122.911 58.0409 123.22 58.1876 123.527C58.3342 123.835 58.4839 124.14 58.6366 124.444L42.6197 132.496C42.4115 132.082 42.2075 131.665 42.0076 131.246C41.8077 130.827 41.6123 130.406 41.4214 129.984L57.7575 122.601ZM147.184 123.655C147.331 123.348 147.476 123.04 147.616 122.731L163.931 130.16C163.739 130.582 163.543 131.002 163.341 131.421C163.14 131.839 162.935 132.255 162.726 132.669L146.732 124.571C146.886 124.268 147.036 123.962 147.184 123.655Z" fill="#0384EF"/>
<path d="M61.6135 125.098L60.863 124.305V120.48L61.6135 119.686H63.6484L64.3988 120.48V124.305L63.6484 125.098H61.6135ZM61.8949 124.478H63.3597L63.7349 124.095V120.689L63.3669 120.307H61.9021L61.5269 120.689V124.095L61.8949 124.478Z" fill="white"/>
<path d="M75.3631 66.4341V65.597H73.487V67.1629H75.3559L76.0847 67.9277V69.6379L75.3342 70.4316H73.5158L72.7654 69.6379V68.7287H73.3643V69.3637L73.8045 69.8111H75.0528L75.4208 69.4286V68.137L75.0312 67.7401H72.9097V65.0197H75.9404V66.4341H75.3631ZM78.0719 70.4316L77.3214 69.6379V65.8135L78.0719 65.0197H80.1067L80.8572 65.8135V69.6379L80.1067 70.4316H78.0719ZM78.3533 69.8111H79.8181L80.1933 69.4286V66.0228L79.8253 65.6403H78.3605L77.9853 66.0228V69.4286L78.3533 69.8111Z" fill="white"/>
<path d="M124.158 66.0687V70.9033H125.24V71.4806H122.411V70.9033H123.494V66.7686L122.318 67.3531L122.036 66.7903L123.494 66.0687H124.158ZM127.285 71.4806L126.534 70.6868V66.8624L127.285 66.0687H129.32L130.07 66.8624V70.6868L129.32 71.4806H127.285ZM127.566 70.86H129.031L129.406 70.4776V67.0717L129.038 66.6893H127.574L127.198 67.0717V70.4776L127.566 70.86ZM131.978 71.4806L131.228 70.6868V66.8624L131.978 66.0687H134.013L134.763 66.8624V70.6868L134.013 71.4806H131.978ZM132.259 70.86H133.724L134.099 70.4776V67.0717L133.731 66.6893H132.267L131.891 67.0717V70.4776L132.259 70.86Z" fill="white"/>
<path d="M133.688 120.102V124.937H134.77V125.514H131.942V124.937H133.024V120.802L131.848 121.387L131.566 120.824L133.024 120.102H133.688ZM138.8 121.517V120.68H136.923V122.245H138.792L139.521 123.01V124.72L138.771 125.514H136.952L136.202 124.72V123.811H136.801V124.446L137.241 124.894H138.489L138.857 124.511V123.22L138.468 122.823H136.346V120.102H139.377V121.517H138.8ZM141.508 125.514L140.758 124.72V120.896L141.508 120.102H143.543L144.294 120.896V124.72L143.543 125.514H141.508ZM141.79 124.894H143.255L143.63 124.511V121.105L143.262 120.723H141.797L141.422 121.105V124.511L141.79 124.894Z" fill="white"/>
<g filter="url(#filter5_di_329_21879)">
<path d="M40.9663 132.454L101.676 99.0924C103.678 97.9922 106.194 98.8023 107.178 100.864C108.162 102.926 107.209 105.391 105.094 106.255L40.9663 132.454Z" fill="url(#paint7_linear_329_21879)"/>
</g>
<circle cx="103.596" cy="102.24" r="6.31388" transform="rotate(-25.506 103.596 102.24)" fill="url(#paint8_linear_329_21879)"/>
<g filter="url(#filter6_f_329_21879)">
<circle cx="103.596" cy="102.24" r="5.86288" transform="rotate(-25.506 103.596 102.24)" stroke="url(#paint9_linear_329_21879)" stroke-width="0.901982"/>
</g>
<path d="M95.7068 129.22V127.488H100.296V129.22H98.8024L102.699 141.753L106.617 129.22H105.123V127.488H109.713V129.22H108.609L104.084 143.723H101.335L96.8108 129.22H95.7068Z" fill="white"/>
<g filter="url(#filter7_i_329_21879)">
<path d="M91.2295 213.228V219.276C91.2295 219.938 91.4022 220.447 91.7475 220.802C92.0929 221.147 92.5782 221.32 93.2035 221.32C93.8382 221.32 94.3282 221.147 94.6735 220.802C95.0189 220.447 95.1915 219.938 95.1915 219.276V213.228H97.1655V219.262C97.1655 220.092 96.9835 220.797 96.6195 221.376C96.2649 221.945 95.7842 222.374 95.1775 222.664C94.5802 222.953 93.9129 223.098 93.1755 223.098C92.4475 223.098 91.7849 222.953 91.1875 222.664C90.5995 222.374 90.1329 221.945 89.7875 221.376C89.4422 220.797 89.2695 220.092 89.2695 219.262V213.228H91.2295ZM104.603 217.988C105.154 218.09 105.607 218.366 105.961 218.814C106.316 219.262 106.493 219.775 106.493 220.354C106.493 220.876 106.363 221.338 106.101 221.74C105.849 222.132 105.481 222.44 104.995 222.664C104.51 222.888 103.936 223 103.273 223H99.0593V213.228H103.091C103.754 213.228 104.323 213.335 104.799 213.55C105.285 213.764 105.649 214.063 105.891 214.446C106.143 214.828 106.269 215.262 106.269 215.748C106.269 216.317 106.115 216.793 105.807 217.176C105.509 217.558 105.107 217.829 104.603 217.988ZM101.019 217.26H102.811C103.278 217.26 103.637 217.157 103.889 216.952C104.141 216.737 104.267 216.434 104.267 216.042C104.267 215.65 104.141 215.346 103.889 215.132C103.637 214.917 103.278 214.81 102.811 214.81H101.019V217.26ZM102.993 221.404C103.469 221.404 103.838 221.292 104.099 221.068C104.37 220.844 104.505 220.526 104.505 220.116C104.505 219.696 104.365 219.369 104.085 219.136C103.805 218.893 103.427 218.772 102.951 218.772H101.019V221.404H102.993ZM114.047 221.138H110.155L109.511 223H107.453L110.967 213.214H113.249L116.763 223H114.691L114.047 221.138ZM113.515 219.57L112.101 215.482L110.687 219.57H113.515Z" fill="white"/>
</g>
<defs>
<filter id="filter0_i_329_21879" x="2" y="1.55713" width="203.848" height="205.051" filterUnits="userSpaceOnUse" color-interpolation-filters="sRGB">
<feFlood flood-opacity="0" result="BackgroundImageFix"/>
<feBlend mode="normal" in="SourceGraphic" in2="BackgroundImageFix" result="shape"/>
<feColorMatrix in="SourceAlpha" type="matrix" values="0 0 0 0 0 0 0 0 0 0 0 0 0 0 0 0 0 0 127 0" result="hardAlpha"/>
<feOffset dx="2.40529" dy="8.4185"/>
<feGaussianBlur stdDeviation="1.80396"/>
<feComposite in2="hardAlpha" operator="arithmetic" k2="-1" k3="1"/>
<feColorMatrix type="matrix" values="0 0 0 0 0 0 0 0 0 0 0 0 0 0 0 0 0 0 0.6 0"/>
<feBlend mode="normal" in2="shape" result="effect1_innerShadow_329_21879"/>
</filter>
<filter id="filter1_f_329_21879" x="0.797357" y="0.354486" width="203.848" height="203.848" filterUnits="userSpaceOnUse" color-interpolation-filters="sRGB">
<feFlood flood-opacity="0" result="BackgroundImageFix"/>
<feBlend mode="normal" in="SourceGraphic" in2="BackgroundImageFix" result="shape"/>
<feGaussianBlur stdDeviation="0.601321" result="effect1_foregroundBlur_329_21879"/>
</filter>
<filter id="filter2_f_329_21879" x="8.61474" y="8.17162" width="188.213" height="188.214" filterUnits="userSpaceOnUse" color-interpolation-filters="sRGB">
<feFlood flood-opacity="0" result="BackgroundImageFix"/>
<feBlend mode="normal" in="SourceGraphic" in2="BackgroundImageFix" result="shape"/>
<feGaussianBlur stdDeviation="0.601321" result="effect1_foregroundBlur_329_21879"/>
</filter>
<filter id="filter3_f_329_21879" x="25.5598" y="25.1173" width="154.322" height="154.322" filterUnits="userSpaceOnUse" color-interpolation-filters="sRGB">
<feFlood flood-opacity="0" result="BackgroundImageFix"/>
<feBlend mode="normal" in="SourceGraphic" in2="BackgroundImageFix" result="shape"/>
<feGaussianBlur stdDeviation="1.14834" result="effect1_foregroundBlur_329_21879"/>
</filter>
<filter id="filter4_d_329_21879" x="31.9814" y="32.3486" width="140.886" height="99.2479" filterUnits="userSpaceOnUse" color-interpolation-filters="sRGB">
<feFlood flood-opacity="0" result="BackgroundImageFix"/>
<feColorMatrix in="SourceAlpha" type="matrix" values="0 0 0 0 0 0 0 0 0 0 0 0 0 0 0 0 0 0 127 0" result="hardAlpha"/>
<feOffset/>
<feGaussianBlur stdDeviation="1.20264"/>
<feComposite in2="hardAlpha" operator="out"/>
<feColorMatrix type="matrix" values="0 0 0 0 0.0117647 0 0 0 0 0.517647 0 0 0 0 0.937255 0 0 0 1 0"/>
<feBlend mode="normal" in2="BackgroundImageFix" result="effect1_dropShadow_329_21879"/>
<feBlend mode="normal" in="SourceGraphic" in2="effect1_dropShadow_329_21879" result="shape"/>
</filter>
<filter id="filter5_di_329_21879" x="38.561" y="96.1948" width="71.4107" height="44.0763" filterUnits="userSpaceOnUse" color-interpolation-filters="sRGB">
<feFlood flood-opacity="0" result="BackgroundImageFix"/>
<feColorMatrix in="SourceAlpha" type="matrix" values="0 0 0 0 0 0 0 0 0 0 0 0 0 0 0 0 0 0 127 0" result="hardAlpha"/>
<feOffset dy="5.41189"/>
<feGaussianBlur stdDeviation="1.20264"/>
<feComposite in2="hardAlpha" operator="out"/>
<feColorMatrix type="matrix" values="0 0 0 0 0 0 0 0 0 0 0 0 0 0 0 0 0 0 0.7 0"/>
<feBlend mode="normal" in2="BackgroundImageFix" result="effect1_dropShadow_329_21879"/>
<feBlend mode="normal" in="SourceGraphic" in2="effect1_dropShadow_329_21879" result="shape"/>
<feColorMatrix in="SourceAlpha" type="matrix" values="0 0 0 0 0 0 0 0 0 0 0 0 0 0 0 0 0 0 127 0" result="hardAlpha"/>
<feOffset dy="-7.81718"/>
<feGaussianBlur stdDeviation="1.20264"/>
<feComposite in2="hardAlpha" operator="arithmetic" k2="-1" k3="1"/>
<feColorMatrix type="matrix" values="0 0 0 0 0 0 0 0 0 0 0 0 0 0 0 0 0 0 0.25 0"/>
<feBlend mode="normal" in2="shape" result="effect2_innerShadow_329_21879"/>
</filter>
<filter id="filter6_f_329_21879" x="96.679" y="95.3238" width="13.833" height="13.8333" filterUnits="userSpaceOnUse" color-interpolation-filters="sRGB">
<feFlood flood-opacity="0" result="BackgroundImageFix"/>
<feBlend mode="normal" in="SourceGraphic" in2="BackgroundImageFix" result="shape"/>
<feGaussianBlur stdDeviation="0.300661" result="effect1_foregroundBlur_329_21879"/>
</filter>
<filter id="filter7_i_329_21879" x="89.2695" y="213.214" width="27.4937" height="10.884" filterUnits="userSpaceOnUse" color-interpolation-filters="sRGB">
<feFlood flood-opacity="0" result="BackgroundImageFix"/>
<feBlend mode="normal" in="SourceGraphic" in2="BackgroundImageFix" result="shape"/>
<feColorMatrix in="SourceAlpha" type="matrix" values="0 0 0 0 0 0 0 0 0 0 0 0 0 0 0 0 0 0 127 0" result="hardAlpha"/>
<feOffset dy="1"/>
<feGaussianBlur stdDeviation="0.75"/>
<feComposite in2="hardAlpha" operator="arithmetic" k2="-1" k3="1"/>
<feColorMatrix type="matrix" values="0 0 0 0 0.125 0 0 0 0 0.125 0 0 0 0 0.125 0 0 0 1 0"/>
<feBlend mode="normal" in2="shape" result="effect1_innerShadow_329_21879"/>
</filter>
<linearGradient id="paint0_linear_329_21879" x1="91.2047" y1="-38.0842" x2="94.5517" y2="145.163" gradientUnits="userSpaceOnUse">
<stop stop-color="#202325"/>
<stop offset="0.458333" stop-color="#202425"/>
<stop offset="1" stop-color="#0E1011"/>
</linearGradient>
<linearGradient id="paint1_linear_329_21879" x1="89.1916" y1="-15.5805" x2="168.566" y2="197.889" gradientUnits="userSpaceOnUse">
<stop stop-color="#23212C"/>
<stop offset="0.994792" stop-color="#292C2F"/>
</linearGradient>
<linearGradient id="paint2_linear_329_21879" x1="94.6037" y1="9.37427" x2="108.415" y2="194.938" gradientUnits="userSpaceOnUse">
<stop stop-color="#969EA1"/>
<stop offset="0.22" stop-color="#1E1820"/>
<stop offset="0.458333" stop-color="#1B161D"/>
<stop offset="0.765" stop-color="#A0A39F"/>
<stop offset="1" stop-color="#FFFFFB"/>
</linearGradient>
<linearGradient id="paint3_linear_329_21879" x1="102.722" y1="9.37427" x2="104.826" y2="195.183" gradientUnits="userSpaceOnUse">
<stop stop-color="#E6EBF1"/>
<stop offset="0.994792" stop-color="#868990"/>
</linearGradient>
<linearGradient id="paint4_linear_329_21879" x1="92.7858" y1="-18.8104" x2="151.361" y2="214.89" gradientUnits="userSpaceOnUse">
<stop stop-color="#585659"/>
<stop offset="0.458333" stop-color="#262526"/>
<stop offset="0.774091" stop-color="#161616"/>
<stop offset="1" stop-color="#585659"/>
</linearGradient>
<linearGradient id="paint5_linear_329_21879" x1="102.721" y1="15.3876" x2="102.721" y2="86.1892" gradientUnits="userSpaceOnUse">
<stop/>
<stop offset="0.994792"/>
</linearGradient>
<radialGradient id="paint6_radial_329_21879" cx="0" cy="0" r="1" gradientUnits="userSpaceOnUse" gradientTransform="translate(102.721 104.124) rotate(69.1066) scale(70.3784 70.3791)">
<stop stop-color="#2E3335"/>
<stop offset="1" stop-color="#1E2022"/>
</radialGradient>
<linearGradient id="paint7_linear_329_21879" x1="107.178" y1="100.864" x2="40.9663" y2="132.454" gradientUnits="userSpaceOnUse">
<stop stop-color="#A20000"/>
<stop offset="1" stop-color="#FF0000"/>
</linearGradient>
<linearGradient id="paint8_linear_329_21879" x1="102.994" y1="96.8286" x2="107.383" y2="106.973" gradientUnits="userSpaceOnUse">
<stop stop-color="#8991A5"/>
<stop offset="1" stop-color="#5D6579"/>
</linearGradient>
<linearGradient id="paint9_linear_329_21879" x1="103.596" y1="108.554" x2="103.596" y2="95.9266" gradientUnits="userSpaceOnUse">
<stop stop-color="#FFFFFA"/>
<stop offset="1" stop-color="#1C1822"/>
</linearGradient>
</defs>
</svg>
