<svg width="95" height="299" viewBox="0 0 95 299" fill="none" xmlns="http://www.w3.org/2000/svg">
<path d="M8.98447 290.948H2.01111V289.735L7.3624 283.778V281.686L6.57411 280.882H4.25471L3.34514 281.822V283.156H2.08691V281.246L3.66349 279.578H7.18049L8.75707 281.246V284.217L3.70897 289.735H7.77171V287.977H8.98447V290.948Z" fill="#FF0000"/>
<path d="M33.4707 20.8469L30.3024 10.6901H29.5293V9.47732H32.7431V10.6901H31.6971L34.4258 19.4674L37.1697 10.6901H36.1237V9.47732H39.3375V10.6901H38.5643L35.396 20.8469H33.4707ZM41.6618 23.0647H43.2353L43.8174 22.4735V21.7003H44.5451V22.8464L43.5991 23.8469H41.307L40.3611 22.8464V18.0257L41.307 17.0252H43.5991L44.5451 18.0257V19.1717H43.8174V18.3986L43.2444 17.8074H41.6709L41.1979 18.2895V22.5826L41.6618 23.0647ZM47.1338 17.0252H49.5624V17.7528H49.144L50.7448 23.1193H51.1996V23.8469H49.2713V23.1193H49.908L49.4896 21.7185H47.2066L46.7882 23.1193H47.4249V23.8469H45.4966V23.1193H45.9514L47.5522 17.7528H47.1338V17.0252ZM48.3435 17.8893L47.4249 20.9909H49.2713L48.3435 17.8893ZM55.3013 23.8469H52.6454V23.1193H53.5549V17.7528H52.2088V18.8079H51.5175V17.0252H56.4292V18.8079H55.7379V17.7528H54.3917V23.1193H55.3013V23.8469Z" fill="white"/>
<path d="M75.4482 290.948H72.2344V289.735H73.1136L70.6578 285.87H69.2783V289.735H70.3395V290.948H66.8225V289.735H67.8836V280.791H66.8225V279.578H70.3395V280.791H69.2783V284.657H70.5517L72.9772 280.791H72.0828V279.578H75.2966V280.791H74.5386L71.7796 285.172L74.6751 289.735H75.4482V290.948ZM79.9952 290.948L76.8269 280.791H76.0537V279.578H79.2675V280.791H78.2215L80.9502 289.568L83.6941 280.791H82.6481V279.578H85.8619V280.791H85.0888L81.9205 290.948H79.9952Z" fill="white"/>
<path d="M20.0827 42.0917V41.0002H22.2384L22.8933 40.3317V38.2988L22.1838 37.5757H20.0963L19.2777 38.4216V39.6222H18.1453V37.9032L19.5642 36.4024H22.7295L24.1485 37.9032V40.7274L23.4526 41.4505L24.4077 42.4464V45.1342L22.9888 46.635H19.5506L18.1317 45.1342V43.4151H19.2641V44.6158L20.0963 45.4617H22.4567L23.1525 44.7386V42.8421L22.4157 42.0917H20.0827ZM28.3014 46.635L26.8825 45.1342V37.9032L28.3014 36.4024H32.1489L33.5678 37.9032V45.1342L32.1489 46.635H28.3014ZM28.8335 45.4617H31.6032L32.3126 44.7386V38.2988L31.6168 37.5757H28.8472L28.1377 38.2988V44.7386L28.8335 45.4617Z" fill="white"/>
<path d="M24.3531 83.321H18.0771V82.2296L22.8933 76.8677V74.9849L22.1838 74.2617H20.0963L19.2777 75.1076V76.3083H18.1453V74.5892L19.5642 73.0884H22.7295L24.1485 74.5892V77.2633L19.6052 82.2296H23.2616V80.6469H24.3531V83.321ZM32.0534 75.7625V74.1799H28.5061V77.1405H32.0397L33.4177 78.5867V81.8203L31.9988 83.321H28.5606L27.1417 81.8203V80.1012H28.2741V81.3018L29.1064 82.1477H31.4667L32.1625 81.4246V78.9824L31.4258 78.232H27.4146V73.0884H33.1449V75.7625H32.0534Z" fill="white"/>
<path d="M24.3531 120.007H18.0771V118.915L22.8933 113.553V111.671L22.1838 110.948H20.0963L19.2777 111.793V112.994H18.1453V111.275L19.5642 109.774H22.7295L24.1485 111.275V113.949L19.6052 118.915H23.2616V117.333H24.3531V120.007ZM28.3014 120.007L26.8825 118.506V111.275L28.3014 109.774H32.1489L33.5678 111.275V118.506L32.1489 120.007H28.3014ZM28.8335 118.833H31.6032L32.3126 118.11V111.671L31.6168 110.948H28.8472L28.1377 111.671V118.11L28.8335 118.833Z" fill="white"/>
<path d="M21.1332 146.46H22.3885V155.601H24.435V156.693H19.0867V155.601H21.1332V147.784L18.9094 148.889L18.3773 147.825L21.1332 146.46ZM32.0534 149.134V147.552H28.5061V150.512H32.0397L33.4177 151.959V155.192L31.9988 156.693H28.5606L27.1417 155.192V153.473H28.2741V154.674L29.1064 155.52H31.4667L32.1625 154.796V152.354L31.4258 151.604H27.4146V146.46H33.1449V149.134H32.0534Z" fill="white"/>
<path d="M14.5219 187.717H18.7377V188.808H14.5219V187.717ZM24.315 183.146H25.5702V192.287H27.6168V193.379H22.2685V192.287H24.315V184.469L22.0911 185.575L21.559 184.51L24.315 183.146ZM31.4832 193.379L30.0643 191.878V184.647L31.4832 183.146H35.3307L36.7496 184.647V191.878L35.3307 193.379H31.4832ZM32.0153 192.205H34.7849L35.4944 191.482V185.042L34.7986 184.319H32.0289L31.3195 185.042V191.482L32.0153 192.205Z" fill="white"/>
<path d="M19.0065 224.403H23.2224V225.494H19.0065V224.403ZM30.8462 222.506V220.924H27.2989V223.884H30.8326L32.2106 225.33V228.564L30.7916 230.065H27.3535L25.9345 228.564V226.845H27.067V228.045L27.8992 228.891H30.2595L30.9554 228.168V225.726L30.2186 224.976H26.2074V219.832H31.9377V222.506H30.8462Z" fill="white"/>
<path d="M23.9125 266.75L22.4935 265.25V258.019L23.9125 256.518H27.7599L29.1789 258.019V265.25L27.7599 266.75H23.9125ZM24.4446 265.577H27.2142L27.9919 264.786V258.483L27.2278 257.691H24.4582L23.6805 258.483V264.786L24.4446 265.577ZM25.154 260.816H26.5184V262.453H25.154V260.816Z" fill="white"/>
<line y1="-0.757973" x2="24.2476" y2="-0.757973" transform="matrix(-1 0 0 1 67.5684 39.6987)" stroke="white" stroke-width="1.51595"/>
<line y1="-0.757973" x2="24.2476" y2="-0.757973" transform="matrix(-1 0 0 1 67.5684 77.5974)" stroke="white" stroke-width="1.51595"/>
<line y1="-0.757973" x2="14.884" y2="-0.757973" transform="matrix(-1 0 0 1 67.5684 58.6479)" stroke="white" stroke-width="1.51595"/>
<line y1="-0.757973" x2="8.3118" y2="-0.757973" transform="matrix(-1 0 0 1 67.5684 43.4885)" stroke="white" stroke-width="1.51595"/>
<line y1="-0.757973" x2="8.3118" y2="-0.757973" transform="matrix(-1 0 0 1 67.5684 62.438)" stroke="white" stroke-width="1.51595"/>
<line y1="-0.757973" x2="8.3118" y2="-0.757973" transform="matrix(-1 0 0 1 67.5684 47.2786)" stroke="white" stroke-width="1.51595"/>
<line y1="-0.757973" x2="8.3118" y2="-0.757973" transform="matrix(-1 0 0 1 67.5684 66.2278)" stroke="white" stroke-width="1.51595"/>
<line y1="-0.757973" x2="8.3118" y2="-0.757973" transform="matrix(-1 0 0 1 67.5684 51.0684)" stroke="white" stroke-width="1.51595"/>
<line y1="-0.757973" x2="8.3118" y2="-0.757973" transform="matrix(-1 0 0 1 67.5684 70.0176)" stroke="white" stroke-width="1.51595"/>
<line y1="-0.757973" x2="8.3118" y2="-0.757973" transform="matrix(-1 0 0 1 67.5684 54.8582)" stroke="white" stroke-width="1.51595"/>
<line y1="-0.757973" x2="8.3118" y2="-0.757973" transform="matrix(-1 0 0 1 67.5684 73.8076)" stroke="white" stroke-width="1.51595"/>
<line y1="-0.757973" x2="24.2476" y2="-0.757973" transform="matrix(-1 0 0 1 67.5684 114.435)" stroke="white" stroke-width="1.51595"/>
<line y1="-0.757973" x2="14.884" y2="-0.757973" transform="matrix(-1 0 0 1 67.5684 95.4856)" stroke="white" stroke-width="1.51595"/>
<line y1="-0.757973" x2="8.3118" y2="-0.757973" transform="matrix(-1 0 0 1 67.5684 80.3262)" stroke="white" stroke-width="1.51595"/>
<line y1="-0.757973" x2="8.3118" y2="-0.757973" transform="matrix(-1 0 0 1 67.5684 99.2754)" stroke="white" stroke-width="1.51595"/>
<line y1="-0.757973" x2="8.3118" y2="-0.757973" transform="matrix(-1 0 0 1 67.5684 84.116)" stroke="white" stroke-width="1.51595"/>
<line y1="-0.757973" x2="8.3118" y2="-0.757973" transform="matrix(-1 0 0 1 67.5684 103.065)" stroke="white" stroke-width="1.51595"/>
<line y1="-0.757973" x2="8.3118" y2="-0.757973" transform="matrix(-1 0 0 1 67.5684 87.906)" stroke="white" stroke-width="1.51595"/>
<line y1="-0.757973" x2="8.3118" y2="-0.757973" transform="matrix(-1 0 0 1 67.5684 106.855)" stroke="white" stroke-width="1.51595"/>
<line y1="-0.757973" x2="8.3118" y2="-0.757973" transform="matrix(-1 0 0 1 67.5684 91.6958)" stroke="white" stroke-width="1.51595"/>
<line y1="-0.757973" x2="8.3118" y2="-0.757973" transform="matrix(-1 0 0 1 67.5684 110.645)" stroke="white" stroke-width="1.51595"/>
<line y1="-0.757973" x2="24.2476" y2="-0.757973" transform="matrix(-1 0 0 1 67.5684 151.272)" stroke="white" stroke-width="1.51595"/>
<line y1="-0.757973" x2="14.884" y2="-0.757973" transform="matrix(-1 0 0 1 67.5684 132.323)" stroke="white" stroke-width="1.51595"/>
<line y1="-0.757973" x2="8.3118" y2="-0.757973" transform="matrix(-1 0 0 1 67.5684 117.164)" stroke="white" stroke-width="1.51595"/>
<line y1="-0.757973" x2="8.3118" y2="-0.757973" transform="matrix(-1 0 0 1 67.5684 136.113)" stroke="white" stroke-width="1.51595"/>
<line y1="-0.757973" x2="8.3118" y2="-0.757973" transform="matrix(-1 0 0 1 67.5684 120.953)" stroke="white" stroke-width="1.51595"/>
<line y1="-0.757973" x2="8.3118" y2="-0.757973" transform="matrix(-1 0 0 1 67.5684 139.903)" stroke="white" stroke-width="1.51595"/>
<line y1="-0.757973" x2="8.3118" y2="-0.757973" transform="matrix(-1 0 0 1 67.5684 124.743)" stroke="white" stroke-width="1.51595"/>
<line y1="-0.757973" x2="8.3118" y2="-0.757973" transform="matrix(-1 0 0 1 67.5684 143.693)" stroke="white" stroke-width="1.51595"/>
<line y1="-0.757973" x2="8.3118" y2="-0.757973" transform="matrix(-1 0 0 1 67.5684 128.533)" stroke="white" stroke-width="1.51595"/>
<line y1="-0.757973" x2="8.3118" y2="-0.757973" transform="matrix(-1 0 0 1 67.5684 147.482)" stroke="white" stroke-width="1.51595"/>
<line y1="-0.757973" x2="24.2476" y2="-0.757973" transform="matrix(-1 0 0 1 67.5684 188.11)" stroke="white" stroke-width="1.51595"/>
<line y1="-0.757973" x2="14.884" y2="-0.757973" transform="matrix(-1 0 0 1 67.5684 169.161)" stroke="white" stroke-width="1.51595"/>
<line y1="-0.757973" x2="8.3118" y2="-0.757973" transform="matrix(-1 0 0 1 67.5684 154.001)" stroke="white" stroke-width="1.51595"/>
<line y1="-0.757973" x2="8.3118" y2="-0.757973" transform="matrix(-1 0 0 1 67.5684 172.951)" stroke="white" stroke-width="1.51595"/>
<line y1="-0.757973" x2="8.3118" y2="-0.757973" transform="matrix(-1 0 0 1 67.5684 157.791)" stroke="white" stroke-width="1.51595"/>
<line y1="-0.757973" x2="8.3118" y2="-0.757973" transform="matrix(-1 0 0 1 67.5684 176.741)" stroke="white" stroke-width="1.51595"/>
<line y1="-0.757973" x2="8.3118" y2="-0.757973" transform="matrix(-1 0 0 1 67.5684 161.581)" stroke="white" stroke-width="1.51595"/>
<line y1="-0.757973" x2="8.3118" y2="-0.757973" transform="matrix(-1 0 0 1 67.5684 180.531)" stroke="white" stroke-width="1.51595"/>
<line y1="-0.757973" x2="8.3118" y2="-0.757973" transform="matrix(-1 0 0 1 67.5684 165.371)" stroke="white" stroke-width="1.51595"/>
<line y1="-0.757973" x2="8.3118" y2="-0.757973" transform="matrix(-1 0 0 1 67.5684 184.32)" stroke="white" stroke-width="1.51595"/>
<line y1="-0.757973" x2="24.2476" y2="-0.757973" transform="matrix(-1 0 0 1 67.5684 224.948)" stroke="white" stroke-width="1.51595"/>
<line y1="-0.757973" x2="14.884" y2="-0.757973" transform="matrix(-1 0 0 1 67.5684 205.998)" stroke="white" stroke-width="1.51595"/>
<line y1="-0.757973" x2="8.3118" y2="-0.757973" transform="matrix(-1 0 0 1 67.5684 190.839)" stroke="white" stroke-width="1.51595"/>
<line y1="-0.757973" x2="8.3118" y2="-0.757973" transform="matrix(-1 0 0 1 67.5684 209.788)" stroke="white" stroke-width="1.51595"/>
<line y1="-0.757973" x2="8.3118" y2="-0.757973" transform="matrix(-1 0 0 1 67.5684 194.628)" stroke="white" stroke-width="1.51595"/>
<line y1="-0.757973" x2="8.3118" y2="-0.757973" transform="matrix(-1 0 0 1 67.5684 213.578)" stroke="white" stroke-width="1.51595"/>
<line y1="-0.757973" x2="8.3118" y2="-0.757973" transform="matrix(-1 0 0 1 67.5684 198.418)" stroke="white" stroke-width="1.51595"/>
<line y1="-0.757973" x2="8.3118" y2="-0.757973" transform="matrix(-1 0 0 1 67.5684 217.368)" stroke="white" stroke-width="1.51595"/>
<line y1="-0.757973" x2="8.3118" y2="-0.757973" transform="matrix(-1 0 0 1 67.5684 202.208)" stroke="white" stroke-width="1.51595"/>
<line y1="-0.757973" x2="8.3118" y2="-0.757973" transform="matrix(-1 0 0 1 67.5684 221.157)" stroke="white" stroke-width="1.51595"/>
<line y1="-0.757973" x2="24.2476" y2="-0.757973" transform="matrix(-1 0 0 1 67.5684 261.785)" stroke="white" stroke-width="1.51595"/>
<line y1="-0.757973" x2="14.884" y2="-0.757973" transform="matrix(-1 0 0 1 67.5684 242.835)" stroke="white" stroke-width="1.51595"/>
<line y1="-0.757973" x2="8.3118" y2="-0.757973" transform="matrix(-1 0 0 1 67.5684 227.676)" stroke="white" stroke-width="1.51595"/>
<line y1="-0.757973" x2="8.3118" y2="-0.757973" transform="matrix(-1 0 0 1 67.5684 246.625)" stroke="white" stroke-width="1.51595"/>
<line y1="-0.757973" x2="8.3118" y2="-0.757973" transform="matrix(-1 0 0 1 67.5684 231.466)" stroke="white" stroke-width="1.51595"/>
<line y1="-0.757973" x2="8.3118" y2="-0.757973" transform="matrix(-1 0 0 1 67.5684 250.415)" stroke="white" stroke-width="1.51595"/>
<line y1="-0.757973" x2="8.3118" y2="-0.757973" transform="matrix(-1 0 0 1 67.5684 235.256)" stroke="white" stroke-width="1.51595"/>
<line y1="-0.757973" x2="8.3118" y2="-0.757973" transform="matrix(-1 0 0 1 67.5684 254.205)" stroke="white" stroke-width="1.51595"/>
<line y1="-0.757973" x2="8.3118" y2="-0.757973" transform="matrix(-1 0 0 1 67.5684 239.046)" stroke="white" stroke-width="1.51595"/>
<line y1="-0.757973" x2="8.3118" y2="-0.757973" transform="matrix(-1 0 0 1 67.5684 257.995)" stroke="white" stroke-width="1.51595"/>
<path d="M68.9922 260.255L81.1771 267.29L81.1771 253.22L68.9922 260.255Z" fill="#FF0000"/>
<line x1="93.4289" y1="0.35083" x2="93.4289" y2="298.171" stroke="white" stroke-width="1.51595"/>
</svg>
