<svg width="24" height="61" viewBox="0 0 24 61" fill="none" xmlns="http://www.w3.org/2000/svg">
<path d="M10.1319 2.04871C10.1319 1.21147 9.4532 0.532757 8.61597 0.532757C7.77873 0.532757 7.10002 1.21147 7.10002 2.04871L10.1319 2.04871ZM7.10002 2.04871L7.10002 16.6832L10.1319 16.6832L10.1319 2.04871L7.10002 2.04871Z" fill="white"/>
<path d="M7.53215 58.5276C7.53215 59.3648 8.21086 60.0435 9.0481 60.0435C9.88533 60.0435 10.564 59.3648 10.564 58.5276L7.53215 58.5276ZM10.564 58.5276L10.564 43.8931L7.53215 43.8931L7.53215 58.5276L10.564 58.5276Z" fill="white"/>
<path d="M23.1528 21.3349C23.6266 20.6446 23.4512 19.701 22.7609 19.2271C22.0707 18.7533 21.127 18.9287 20.6532 19.619L23.1528 21.3349ZM11.0252 39.0013L23.1528 21.3349L20.6532 19.619L8.52559 37.2853L11.0252 39.0013Z" fill="white"/>
<path d="M12.5681 20.3897C12.7334 19.8989 12.8004 19.3804 12.7653 18.8638C12.7302 18.3471 12.5937 17.8425 12.3636 17.3786C12.1335 16.9147 11.8143 16.5006 11.4241 16.1601C11.034 15.8196 10.5806 15.5593 10.0899 15.394C9.59913 15.2287 9.08063 15.1616 8.56398 15.1967C8.04734 15.2318 7.54266 15.3683 7.07876 15.5984C6.61487 15.8285 6.20084 16.1478 5.86033 16.5379C5.51981 16.928 5.25946 17.3814 5.09416 17.8722C4.92886 18.3629 4.86184 18.8814 4.89692 19.3981C4.932 19.9147 5.0685 20.4194 5.29862 20.8833C5.52874 21.3472 5.84798 21.7612 6.23811 22.1017C6.62824 22.4422 7.08162 22.7026 7.57237 22.8679C8.06311 23.0332 8.58161 23.1002 9.09826 23.0651C9.6149 23.03 10.1196 22.8935 10.5835 22.6634C11.0474 22.4333 11.4614 22.1141 11.8019 21.7239C12.1424 21.3338 12.4028 20.8804 12.5681 20.3897L12.5681 20.3897Z" stroke="white" stroke-width="3.0319"/>
<path d="M5.09525 40.1866C4.92995 40.6774 4.86293 41.1959 4.89801 41.7125C4.93309 42.2292 5.06959 42.7338 5.29971 43.1977C5.52983 43.6616 5.84907 44.0756 6.2392 44.4162C6.62933 44.7567 7.08271 45.017 7.57346 45.1823C8.0642 45.3476 8.5827 45.4147 9.09935 45.3796C9.61599 45.3445 10.1207 45.208 10.5846 44.9779C11.0485 44.7477 11.4625 44.4285 11.803 44.0384C12.1435 43.6482 12.4039 43.1949 12.5692 42.7041C12.7345 42.2134 12.8015 41.6949 12.7664 41.1782C12.7313 40.6616 12.5948 40.1569 12.3647 39.693C12.1346 39.2291 11.8153 38.8151 11.4252 38.4746C11.0351 38.1341 10.5817 37.8737 10.091 37.7084C9.60022 37.5431 9.08172 37.4761 8.56507 37.5112C8.04843 37.5462 7.54375 37.6827 7.07986 37.9129C6.61596 38.143 6.20193 38.4622 5.86142 38.8524C5.5209 39.2425 5.26056 39.6959 5.09525 40.1866L5.09525 40.1866Z" stroke="white" stroke-width="3.0319"/>
</svg>
