<svg width="100%"  viewBox="0 27 74 24" fill="none" xmlns="http://www.w3.org/2000/svg">
<path d="M6.90007 50.3235C7.94961 50.3235 8.80044 49.4728 8.80044 48.4235C8.80044 47.3741 7.94961 46.5234 6.90007 46.5234C5.85052 46.5234 4.99969 47.3741 4.99969 48.4235C4.99969 49.4728 5.85052 50.3235 6.90007 50.3235Z" fill="#675667"/>
<path d="M54.1489 50.3235C55.1985 50.3235 56.0493 49.4728 56.0493 48.4235C56.0493 47.3741 55.1985 46.5234 54.1489 46.5234C53.0994 46.5234 52.2486 47.3741 52.2486 48.4235C52.2486 49.4728 53.0994 50.3235 54.1489 50.3235Z" fill="#675667"/>
<path d="M13.1005 50.3235C14.1501 50.3235 15.0009 49.4728 15.0009 48.4235C15.0009 47.3741 14.1501 46.5234 13.1005 46.5234C12.051 46.5234 11.2002 47.3741 11.2002 48.4235C11.2002 49.4728 12.051 50.3235 13.1005 50.3235Z" fill="#675667"/>
<path d="M60.3499 50.3235C61.3995 50.3235 62.2503 49.4728 62.2503 48.4235C62.2503 47.3741 61.3995 46.5234 60.3499 46.5234C59.3004 46.5234 58.4496 47.3741 58.4496 48.4235C58.4496 49.4728 59.3004 50.3235 60.3499 50.3235Z" fill="#675667"/>
<path d="M19.3015 50.3235C20.3511 50.3235 21.2019 49.4728 21.2019 48.4235C21.2019 47.3741 20.3511 46.5234 19.3015 46.5234C18.252 46.5234 17.4012 47.3741 17.4012 48.4235C17.4012 49.4728 18.252 50.3235 19.3015 50.3235Z" fill="#675667"/>
<path d="M66.5508 50.3235C67.6004 50.3235 68.4512 49.4728 68.4512 48.4235C68.4512 47.3741 67.6004 46.5234 66.5508 46.5234C65.5013 46.5234 64.6505 47.3741 64.6505 48.4235C64.6505 49.4728 65.5013 50.3235 66.5508 50.3235Z" fill="#675667"/>
<path d="M6.66963 28.2584C6.94753 27.7964 7.44729 27.5139 7.98652 27.5139H65.0011C65.4842 27.5139 65.9392 27.741 66.2294 28.127L73.1435 37.3223C73.3437 37.5886 73.4519 37.9126 73.4519 38.2456V46.4148C73.4519 47.2633 72.7639 47.9512 71.9152 47.9512H2.50736C1.65865 47.9512 0.970642 47.2633 0.970642 46.4148V38.159C0.970642 37.88 1.04663 37.6062 1.19046 37.3671L6.66963 28.2584Z" fill="#0B8E00"/>
<path d="M8.80043 32.987H5.24866V36.5381H8.80043V32.987Z" fill="black"/>
<path d="M67.5613 32.987H64.0095V36.5381H67.5613V32.987Z" fill="black"/>
<path d="M58.173 40.5159H14.2903V43.6007H58.173V40.5159Z" fill="#F5F504"/>
<path d="M28.3883 30.8256L26.701 37.2971H24.7924L23.7598 33.0381L22.6902 37.2971H20.7816L19.1404 30.8256H20.8278L21.7589 35.5363L22.9115 30.8256H24.6449L25.7514 35.5363L26.6918 30.8256H28.3883ZM33.2084 36.1539H30.7926L30.4054 37.2971H28.755L31.0969 30.8256H32.9225L35.2644 37.2971H33.5956L33.2084 36.1539ZM32.8027 34.9371L32.0004 32.5679L31.2075 34.9371H32.8027ZM35.7099 34.0521C35.7099 33.413 35.8481 32.8445 36.1248 32.3467C36.4014 31.8428 36.7855 31.4525 37.2772 31.176C37.7752 30.8932 38.3377 30.7519 38.9646 30.7519C39.7329 30.7519 40.3907 30.9547 40.9377 31.3603C41.4848 31.7659 41.8505 32.319 42.0349 33.0197H40.3015C40.1725 32.7492 39.9881 32.5434 39.7483 32.402C39.5148 32.2606 39.2474 32.19 38.9462 32.19C38.4605 32.19 38.0671 32.3589 37.7659 32.6971C37.4648 33.0351 37.3141 33.4868 37.3141 34.0521C37.3141 34.6176 37.4648 35.0693 37.7659 35.4073C38.0671 35.7453 38.4605 35.9143 38.9462 35.9143C39.2474 35.9143 39.5148 35.8436 39.7483 35.7022C39.9881 35.5609 40.1725 35.355 40.3015 35.0846H42.0349C41.8505 35.7852 41.4848 36.3384 40.9377 36.744C40.3907 37.1434 39.7329 37.3432 38.9646 37.3432C38.3377 37.3432 37.7752 37.2049 37.2772 36.9284C36.7855 36.6456 36.4014 36.2554 36.1248 35.7576C35.8481 35.2598 35.7099 34.6913 35.7099 34.0521ZM47.2971 32.8722C47.1804 32.657 47.0113 32.4941 46.79 32.3836C46.5749 32.2668 46.3198 32.2084 46.0248 32.2084C45.5146 32.2084 45.1058 32.3774 44.7985 32.7154C44.4911 33.0473 44.3375 33.4929 44.3375 34.0521C44.3375 34.6483 44.4972 35.1154 44.8169 35.4534C45.1426 35.7852 45.5884 35.9511 46.1538 35.9511C46.5411 35.9511 46.8668 35.8528 47.1312 35.6562C47.4017 35.4595 47.5983 35.1768 47.7213 34.8081H45.7204V33.6465H49.1504V35.1123C49.0336 35.5056 48.8339 35.8713 48.5511 36.2093C48.2746 36.5473 47.9211 36.8208 47.4908 37.0297C47.0605 37.2387 46.5749 37.3432 46.034 37.3432C45.3947 37.3432 44.823 37.2049 44.319 36.9284C43.8211 36.6456 43.4308 36.2554 43.148 35.7576C42.8714 35.2598 42.7331 34.6913 42.7331 34.0521C42.7331 33.413 42.8714 32.8445 43.148 32.3467C43.4308 31.8428 43.8211 31.4525 44.319 31.176C44.8169 30.8932 45.3855 30.7519 46.0248 30.7519C46.7992 30.7519 47.4508 30.9393 47.9795 31.3142C48.5142 31.6891 48.8677 32.2084 49.0398 32.8722H47.2971ZM51.5636 35.3243C51.6557 35.8099 51.9385 36.0526 52.4119 36.0526C52.7376 36.0526 52.9681 35.9082 53.1033 35.6193C53.2385 35.3305 53.3062 34.8603 53.3062 34.2088C53.1709 34.3993 52.9865 34.5469 52.753 34.6513C52.5194 34.7558 52.2582 34.8081 51.9693 34.8081C51.5759 34.8081 51.2254 34.7281 50.9182 34.5684C50.6108 34.4025 50.3679 34.1597 50.1897 33.8401C50.0176 33.5143 49.9315 33.1211 49.9315 32.6602C49.9315 32.2053 50.0238 31.8089 50.2082 31.4709C50.3988 31.1329 50.6661 30.8717 51.0103 30.6874C51.3607 30.503 51.7725 30.4108 52.2458 30.4108C53.1556 30.4108 53.7918 30.6935 54.1544 31.2589C54.5171 31.8243 54.6985 32.657 54.6985 33.7572C54.6985 34.5561 54.6247 35.2167 54.4772 35.7391C54.3358 36.2554 54.093 36.6487 53.7487 36.9191C53.4107 37.1895 52.9466 37.3248 52.3565 37.3248C51.8893 37.3248 51.4898 37.2325 51.1578 37.0482C50.8321 36.8638 50.58 36.6211 50.4018 36.32C50.2297 36.0187 50.1313 35.6869 50.1067 35.3243H51.5636ZM52.3288 33.5635C52.587 33.5635 52.7929 33.4868 52.9466 33.3331C53.1003 33.1733 53.1771 32.9582 53.1771 32.6878C53.1771 32.3928 53.0972 32.1654 52.9374 32.0056C52.7776 31.8458 52.5624 31.7659 52.2919 31.7659C52.0215 31.7659 51.8064 31.8488 51.6465 32.0149C51.4928 32.1746 51.416 32.3958 51.416 32.6786C51.416 32.9428 51.4928 33.1579 51.6465 33.3239C51.8064 33.4836 52.0338 33.5635 52.3288 33.5635Z" fill="black"/>
<path d="M15.1632 30.3897H11.611V45.4443H15.1632V30.3897Z" fill="black"/>
<path d="M61.199 30.3897H57.6467V45.4443H61.199V30.3897Z" fill="black"/>
</svg>
