<svg width="24" height="25" viewBox="0 0 24 25" fill="none" xmlns="http://www.w3.org/2000/svg">
<path d="M12 0.639648C5.383 0.639648 0 6.02265 0 12.6396C0 19.2566 5.383 24.6396 12 24.6396C18.617 24.6396 24 19.2566 24 12.6396C24 6.02265 18.617 0.639648 12 0.639648ZM12 22.6396C6.486 22.6396 2 18.1536 2 12.6396C2 7.12565 6.486 2.63965 12 2.63965C17.514 2.63965 22 7.12565 22 12.6396C22 18.1536 17.514 22.6396 12 22.6396ZM13.5 7.13965C13.5 7.96765 12.828 8.63965 12 8.63965C11.172 8.63965 10.5 7.96765 10.5 7.13965C10.5 6.31165 11.172 5.63965 12 5.63965C12.828 5.63965 13.5 6.31165 13.5 7.13965ZM13.5 18.1396C13.5 18.9676 12.828 19.6396 12 19.6396C11.172 19.6396 10.5 18.9676 10.5 18.1396C10.5 17.3116 11.172 16.6396 12 16.6396C12.828 16.6396 13.5 17.3116 13.5 18.1396ZM13.5 12.6396C13.5 13.4676 12.828 14.1396 12 14.1396C11.172 14.1396 10.5 13.4676 10.5 12.6396C10.5 11.8116 11.172 11.1396 12 11.1396C12.828 11.1396 13.5 11.8116 13.5 12.6396Z" fill="white"/>
</svg>
