<svg width="24" height="25" viewBox="0 0 24 25" fill="none" xmlns="http://www.w3.org/2000/svg">
<g clip-path="url(#clip0_7002_29138)">
<path d="M12 0.835938C9.62663 0.835938 7.30655 1.53973 5.33316 2.8583C3.35977 4.17688 1.8217 6.05102 0.913451 8.24374C0.00519943 10.4365 -0.232441 12.8493 0.230582 15.177C0.693605 17.5048 1.83649 19.643 3.51472 21.3212C5.19295 22.9995 7.33115 24.1423 9.65892 24.6054C11.9867 25.0684 14.3995 24.8307 16.5922 23.9225C18.7849 23.0142 20.6591 21.4762 21.9776 19.5028C23.2962 17.5294 24 15.2093 24 12.8359C23.9966 9.6544 22.7312 6.60415 20.4815 4.35446C18.2318 2.10477 15.1815 0.839379 12 0.835938V0.835938ZM16 13.8359H13V16.8359C13 17.1012 12.8946 17.3555 12.7071 17.543C12.5196 17.7306 12.2652 17.8359 12 17.8359C11.7348 17.8359 11.4804 17.7306 11.2929 17.543C11.1054 17.3555 11 17.1012 11 16.8359V13.8359H8.00001C7.73479 13.8359 7.48043 13.7306 7.2929 13.543C7.10536 13.3555 7.00001 13.1012 7.00001 12.8359C7.00001 12.5707 7.10536 12.3164 7.2929 12.1288C7.48043 11.9413 7.73479 11.8359 8.00001 11.8359H11V8.83594C11 8.57072 11.1054 8.31637 11.2929 8.12883C11.4804 7.9413 11.7348 7.83594 12 7.83594C12.2652 7.83594 12.5196 7.9413 12.7071 8.12883C12.8946 8.31637 13 8.57072 13 8.83594V11.8359H16C16.2652 11.8359 16.5196 11.9413 16.7071 12.1288C16.8946 12.3164 17 12.5707 17 12.8359C17 13.1012 16.8946 13.3555 16.7071 13.543C16.5196 13.7306 16.2652 13.8359 16 13.8359Z" fill="white" fill-opacity="0.11"/>
<path d="M12 0.835938C9.62663 0.835938 7.30655 1.53973 5.33316 2.8583C3.35977 4.17688 1.8217 6.05102 0.913451 8.24374C0.00519943 10.4365 -0.232441 12.8493 0.230582 15.177C0.693605 17.5048 1.83649 19.643 3.51472 21.3212C5.19295 22.9995 7.33115 24.1423 9.65892 24.6054C11.9867 25.0684 14.3995 24.8307 16.5922 23.9225C18.7849 23.0142 20.6591 21.4762 21.9776 19.5028C23.2962 17.5294 24 15.2093 24 12.8359C23.9966 9.6544 22.7312 6.60415 20.4815 4.35446C18.2318 2.10477 15.1815 0.839379 12 0.835938V0.835938ZM16 13.8359H13V16.8359C13 17.1012 12.8946 17.3555 12.7071 17.543C12.5196 17.7306 12.2652 17.8359 12 17.8359C11.7348 17.8359 11.4804 17.7306 11.2929 17.543C11.1054 17.3555 11 17.1012 11 16.8359V13.8359H8.00001C7.73479 13.8359 7.48043 13.7306 7.2929 13.543C7.10536 13.3555 7.00001 13.1012 7.00001 12.8359C7.00001 12.5707 7.10536 12.3164 7.2929 12.1288C7.48043 11.9413 7.73479 11.8359 8.00001 11.8359H11V8.83594C11 8.57072 11.1054 8.31637 11.2929 8.12883C11.4804 7.9413 11.7348 7.83594 12 7.83594C12.2652 7.83594 12.5196 7.9413 12.7071 8.12883C12.8946 8.31637 13 8.57072 13 8.83594V11.8359H16C16.2652 11.8359 16.5196 11.9413 16.7071 12.1288C16.8946 12.3164 17 12.5707 17 12.8359C17 13.1012 16.8946 13.3555 16.7071 13.543C16.5196 13.7306 16.2652 13.8359 16 13.8359Z" fill="#5E5E5E" fill-opacity="0.21" style="mix-blend-mode:color-dodge"/>
</g>
<defs>
<clipPath id="clip0_7002_29138">
<rect width="24" height="24" fill="white" transform="translate(0 0.835938)"/>
</clipPath>
</defs>
</svg>
