<svg width="24" height="25" viewBox="0 0 24 25" fill="none" xmlns="http://www.w3.org/2000/svg">
<path d="M19.0612 8.35399C18.9219 8.2146 18.7565 8.10402 18.5745 8.02858C18.3924 7.95314 18.1973 7.91431 18.0002 7.91431C17.8032 7.91431 17.608 7.95314 17.426 8.02858C17.2439 8.10402 17.0785 8.2146 16.9392 8.35399L12.3532 12.939C12.2595 13.0327 12.1323 13.0854 11.9997 13.0854C11.8671 13.0854 11.74 13.0327 11.6462 12.939L7.06122 8.35399C6.77996 8.07259 6.39843 7.91445 6.00057 7.91436C5.60271 7.91427 5.22111 8.07222 4.93972 8.35349C4.65832 8.63475 4.50019 9.01627 4.50009 9.41413C4.5 9.81199 4.65796 10.1936 4.93922 10.475L9.52522 15.061C9.85023 15.386 10.2361 15.6439 10.6607 15.8198C11.0854 15.9957 11.5406 16.0862 12.0002 16.0862C12.4599 16.0862 12.915 15.9957 13.3397 15.8198C13.7644 15.6439 14.1502 15.386 14.4752 15.061L19.0612 10.475C19.3424 10.1937 19.5004 9.81223 19.5004 9.41449C19.5004 9.01674 19.3424 8.63528 19.0612 8.35399Z" fill="white" fill-opacity="0.1" style="mix-blend-mode:lighten"/>
<path d="M19.0612 8.35399C18.9219 8.2146 18.7565 8.10402 18.5745 8.02858C18.3924 7.95314 18.1973 7.91431 18.0002 7.91431C17.8032 7.91431 17.608 7.95314 17.426 8.02858C17.2439 8.10402 17.0785 8.2146 16.9392 8.35399L12.3532 12.939C12.2595 13.0327 12.1323 13.0854 11.9997 13.0854C11.8671 13.0854 11.74 13.0327 11.6462 12.939L7.06122 8.35399C6.77996 8.07259 6.39843 7.91445 6.00057 7.91436C5.60271 7.91427 5.22111 8.07222 4.93972 8.35349C4.65832 8.63475 4.50019 9.01627 4.50009 9.41413C4.5 9.81199 4.65796 10.1936 4.93922 10.475L9.52522 15.061C9.85023 15.386 10.2361 15.6439 10.6607 15.8198C11.0854 15.9957 11.5406 16.0862 12.0002 16.0862C12.4599 16.0862 12.915 15.9957 13.3397 15.8198C13.7644 15.6439 14.1502 15.386 14.4752 15.061L19.0612 10.475C19.3424 10.1937 19.5004 9.81223 19.5004 9.41449C19.5004 9.01674 19.3424 8.63528 19.0612 8.35399Z" fill="#5E5E5E" fill-opacity="0.45" style="mix-blend-mode:color-dodge"/>
</svg>
