<svg width="18" height="19" viewBox="0 0 18 19" fill="none" xmlns="http://www.w3.org/2000/svg">
<g clip-path="url(#clip0_5008_10496)">
<path d="M18 17.375C18 17.996 17.4967 18.5 16.875 18.5H1.125C0.50325 18.5 0 17.996 0 17.375C0 16.754 0.50325 16.25 1.125 16.25H16.875C17.4967 16.25 18 16.754 18 17.375ZM8.96625 11H8.973C13.5427 10.9978 16.6088 8.114 17.715 6.87425C18.1283 6.41075 18.0877 5.69975 17.6243 5.28575C17.1608 4.87325 16.4498 4.91225 16.0358 5.3765C15.1313 6.39125 12.6315 8.75 8.97 8.75075C5.3685 8.75075 2.86575 6.4325 1.95675 5.43575C1.53825 4.97675 0.82725 4.94375 0.3675 5.36225C-0.0915 5.7815 -0.1245 6.4925 0.294 6.9515C1.404 8.16875 4.47075 10.9985 8.96625 11ZM0.72 13.1742C1.836 13.6047 4.80075 14.7493 8.967 14.75H8.9715C13.2592 14.75 16.1842 13.604 17.2853 13.172C17.8635 12.9455 18.1493 12.293 17.9227 11.7148C17.697 11.1365 17.0445 10.8507 16.4655 11.0772C15.4718 11.4665 12.834 12.4992 8.97 12.4992C5.2215 12.4992 2.6355 11.501 1.53075 11.075C0.95175 10.8523 0.29925 11.1395 0.0765 11.7192C-0.147 12.2983 0.141 12.9508 0.72075 13.1735L0.72 13.1742ZM8.538 7.433C8.793 7.688 9.207 7.688 9.46275 7.433L11.5305 5.36525C11.9422 4.9535 11.6505 4.24925 11.0685 4.24925H10.1258V1.625C10.1258 1.00325 9.6225 0.5 9.00075 0.5C8.379 0.5 7.87575 1.00325 7.87575 1.625V4.25H6.933C6.351 4.25 6.05925 4.95425 6.471 5.366L8.53875 7.43375L8.538 7.433Z" fill="white"/>
</g>
<defs>
<clipPath id="clip0_5008_10496">
<rect width="18" height="18" fill="white" transform="translate(0 0.5)"/>
</clipPath>
</defs>
</svg>
