<svg width="16" height="16" viewBox="0 0 16 16" fill="none" xmlns="http://www.w3.org/2000/svg">
<g clip-path="url(#clip0_7380_19666)">
<path d="M4 0C1.79067 0 0 1.79067 0 4C0 6.20933 1.79067 8 4 8C6.20933 8 8 6.20933 8 4C8 1.79067 6.20933 0 4 0ZM6.46133 3.81467L4.65333 5.55133C4.352 5.84867 3.952 5.99867 3.55133 5.99867C3.15067 5.99867 2.74867 5.84867 2.442 5.54933L1.68733 4.81067C1.424 4.55267 1.42 4.13067 1.67733 3.868C1.93467 3.60467 2.35667 3.60067 2.62 3.85733L3.37467 4.596C3.47067 4.69067 3.62733 4.69 3.72267 4.596L5.538 2.85333C5.80333 2.59933 6.226 2.60667 6.48067 2.87267C6.736 3.138 6.72733 3.55933 6.46133 3.81467ZM8.846 10.3207C8.304 10.8627 7.99933 11.5973 7.99933 12.364V13.334H8.96933C9.736 13.334 10.4707 13.0293 11.0127 12.4873L15.5507 7.94933C16.1487 7.35133 16.1487 6.38067 15.5507 5.78267C14.9527 5.18467 13.982 5.18467 13.384 5.78267L8.846 10.3207ZM13.9993 11.386V13.334C13.9993 14.8067 12.8053 16.0007 11.3327 16.0007H4.66667C3.194 16.0007 2 14.8067 2 13.334V8.94133C2.618 9.19267 3.29267 9.334 4 9.334C6.94067 9.334 9.33333 6.94133 9.33333 4.00067C9.33333 3.77467 9.31467 3.55267 9.28733 3.334H11.3333C12.1287 3.334 12.836 3.69133 13.3247 4.24533C13.0047 4.38467 12.7027 4.57867 12.4413 4.84L7.90267 9.37867C7.11133 10.1707 6.666 11.244 6.666 12.364V13.334C6.666 14.0707 7.26267 14.6673 7.99933 14.6673H8.96933C10.0887 14.6673 11.1627 14.2227 11.9547 13.4307L13.9993 11.386Z" fill="white"/>
</g>
<defs>
<clipPath id="clip0_7380_19666">
<rect width="16" height="16" fill="white"/>
</clipPath>
</defs>
</svg>
