<svg width="16" height="17" viewBox="0 0 16 17" fill="none" xmlns="http://www.w3.org/2000/svg">
<path d="M11.8614 5.30793C11.5651 4.03412 10.8111 2.91356 9.74277 2.15926C8.67442 1.40495 7.36615 1.06948 6.06664 1.21661C4.76713 1.36374 3.56699 1.98322 2.69432 2.9573C1.82165 3.93137 1.33731 5.19213 1.33335 6.49993C1.33277 7.3522 1.53864 8.19192 1.93335 8.94727C1.2141 9.33269 0.644281 9.94743 0.314427 10.6938C-0.0154265 11.4402 -0.0863956 12.2754 0.112796 13.0667C0.311987 13.858 0.769913 14.5601 1.41382 15.0613C2.05772 15.5626 2.85067 15.8343 3.66668 15.8333H10.6667C11.9727 15.8272 13.2312 15.3421 14.2034 14.47C15.1756 13.5978 15.7939 12.3992 15.9412 11.1015C16.0885 9.80375 15.7545 8.49707 15.0025 7.42921C14.2505 6.36135 13.1328 5.60656 11.8614 5.30793Z" fill="white" fill-opacity="0.5"/>
</svg>
