<svg width="16" height="17" viewBox="0 0 16 17" fill="none" xmlns="http://www.w3.org/2000/svg">
<path d="M11.6667 5.83333C13.1393 5.83333 14.3333 7.02733 14.3333 8.5C14.3333 9.97267 13.1393 11.1667 11.6667 11.1667C10.194 11.1667 9 9.97267 9 8.5C9 7.02733 10.194 5.83333 11.6667 5.83333ZM8 5.83333C9.47267 5.83333 10.6667 4.63933 10.6667 3.16667C10.6667 1.694 9.47267 0.5 8 0.5C6.52733 0.5 5.33333 1.694 5.33333 3.16667C5.33333 4.63933 6.52733 5.83333 8 5.83333ZM4.33333 11.1667C5.806 11.1667 7 9.97267 7 8.5C7 7.02733 5.806 5.83333 4.33333 5.83333C2.86067 5.83333 1.66667 7.02733 1.66667 8.5C1.66667 9.97267 2.86067 11.1667 4.33333 11.1667ZM13 11.8333H10C9.22867 11.8333 8.532 12.134 8 12.6133C7.468 12.1333 6.77133 11.8333 6 11.8333H3C1.346 11.8333 0 13.1793 0 14.8333V16.5H2V14.8333C2 14.3113 2.40333 13.8867 2.91333 13.842L4.50667 15.8333L6.09867 13.8433C6.60333 13.8933 7 14.3153 7 14.8333V16.5H9V14.8333C9 14.3113 9.40333 13.8867 9.91333 13.842L11.5067 15.8333L13.0987 13.8433C13.6033 13.8933 14 14.3153 14 14.8333V16.5H16V14.8333C16 13.1793 14.654 11.8333 13 11.8333Z" fill="white" fill-opacity="0.23" style="mix-blend-mode:lighten"/>
<path d="M11.6667 5.83333C13.1393 5.83333 14.3333 7.02733 14.3333 8.5C14.3333 9.97267 13.1393 11.1667 11.6667 11.1667C10.194 11.1667 9 9.97267 9 8.5C9 7.02733 10.194 5.83333 11.6667 5.83333ZM8 5.83333C9.47267 5.83333 10.6667 4.63933 10.6667 3.16667C10.6667 1.694 9.47267 0.5 8 0.5C6.52733 0.5 5.33333 1.694 5.33333 3.16667C5.33333 4.63933 6.52733 5.83333 8 5.83333ZM4.33333 11.1667C5.806 11.1667 7 9.97267 7 8.5C7 7.02733 5.806 5.83333 4.33333 5.83333C2.86067 5.83333 1.66667 7.02733 1.66667 8.5C1.66667 9.97267 2.86067 11.1667 4.33333 11.1667ZM13 11.8333H10C9.22867 11.8333 8.532 12.134 8 12.6133C7.468 12.1333 6.77133 11.8333 6 11.8333H3C1.346 11.8333 0 13.1793 0 14.8333V16.5H2V14.8333C2 14.3113 2.40333 13.8867 2.91333 13.842L4.50667 15.8333L6.09867 13.8433C6.60333 13.8933 7 14.3153 7 14.8333V16.5H9V14.8333C9 14.3113 9.40333 13.8867 9.91333 13.842L11.5067 15.8333L13.0987 13.8433C13.6033 13.8933 14 14.3153 14 14.8333V16.5H16V14.8333C16 13.1793 14.654 11.8333 13 11.8333Z" fill="#a3a0a1" style="mix-blend-mode:color-dodge"/>
</svg>
