<svg width="18" height="18" viewBox="0 0 18 18" fill="none" xmlns="http://www.w3.org/2000/svg">
<g clip-path="url(#clip0_7002_28638)">
<g clip-path="url(#clip1_7002_28638)">
<path d="M16.3013 5.68516C16.1438 4.58416 15.1867 3.75391 14.0737 3.75391H11.361C11.5253 3.41191 11.6242 3.03316 11.6242 2.62891C11.6242 1.18141 10.4467 0.00390625 8.99925 0.00390625C7.55175 0.00390625 6.37425 1.18141 6.37425 2.62891C6.37425 3.03316 6.474 3.41191 6.6375 3.75391H3.92475C2.8125 3.75391 1.85475 4.58416 1.698 5.68516L0.0075 17.5224L0 18.0039H18V17.6289L16.3013 5.68516ZM7.875 2.62891C7.875 2.00866 8.37975 1.50391 9 1.50391C9.62025 1.50391 10.125 2.00866 10.125 2.62891C10.125 3.24916 9.62025 3.75391 9 3.75391C8.37975 3.75391 7.875 3.24916 7.875 2.62891Z" fill="white" fill-opacity="0.96"/>
</g>
</g>
<defs>
<clipPath id="clip0_7002_28638">
<rect width="18" height="18" fill="white" transform="translate(0 0.00390625)"/>
</clipPath>
<clipPath id="clip1_7002_28638">
<rect width="18" height="18" fill="white" transform="translate(0 0.00390625)"/>
</clipPath>
</defs>
</svg>
