<svg width="40" height="41" viewBox="0 0 40 41" fill="none" xmlns="http://www.w3.org/2000/svg">
<path fill-rule="evenodd" clip-rule="evenodd" d="M10 14.6667C10 12.3655 11.8655 10.5 14.1667 10.5C16.4679 10.5 18.3333 12.3655 18.3333 14.6667C18.3333 16.9679 16.4679 18.8334 14.1667 18.8334C11.8655 18.8334 10 16.9679 10 14.6667ZM14.1667 13.8334C13.7064 13.8334 13.3333 14.2065 13.3333 14.6667C13.3333 15.1269 13.7064 15.5 14.1667 15.5C14.6269 15.5 15 15.1269 15 14.6667C15 14.2065 14.6269 13.8334 14.1667 13.8334Z" fill="#808080" fill-opacity="0.18"/>
<path fill-rule="evenodd" clip-rule="evenodd" d="M3.33334 8.83337C3.33334 6.07195 5.57192 3.83337 8.33334 3.83337H31.6667C34.4281 3.83337 36.6667 6.07195 36.6667 8.83337V32.1667C36.6667 34.9281 34.4281 37.1667 31.6667 37.1667H8.33334C5.57192 37.1667 3.33334 34.9281 3.33334 32.1667V8.83337ZM8.33334 7.16671C7.41287 7.16671 6.66668 7.9129 6.66668 8.83337V32.1667C6.66668 32.8814 7.11655 33.4911 7.74858 33.7279L25.4883 15.9882C26.1392 15.3373 27.1944 15.3373 27.8453 15.9882L33.3333 21.4762V8.83337C33.3333 7.9129 32.5872 7.16671 31.6667 7.16671H8.33334ZM33.3333 26.1903L26.6668 19.5237L12.3572 33.8334H31.6667C32.5872 33.8334 33.3333 33.0872 33.3333 32.1667V26.1903Z" fill="#808080" fill-opacity="0.18"/>
</svg>
