<svg width="18" height="19" viewBox="0 0 18 19" fill="none" xmlns="http://www.w3.org/2000/svg">
<g clip-path="url(#clip0_485_14018)">
<path d="M4.40101 12.1873C3.61001 11.4566 3.00667 10.5462 2.64205 9.53296C2.27742 8.51977 2.16224 7.43364 2.30626 6.36651C2.44866 5.28445 2.85131 4.25307 3.4797 3.36074C4.10809 2.46842 4.94348 1.74177 5.91427 1.24309C6.88505 0.744398 7.96228 0.488543 9.05363 0.497448C10.145 0.506353 11.2179 0.779753 12.1804 1.29422C13.1429 1.80868 13.9663 2.54886 14.5801 3.45132C15.1938 4.35378 15.5796 5.3916 15.7043 6.47583C15.8291 7.56006 15.689 8.65837 15.2962 9.67662C14.9034 10.6949 14.2696 11.6027 13.449 12.3223C12.9206 12.7765 12.5104 13.3523 12.2535 14H9.75001V8.61201C10.1872 8.45744 10.5659 8.17158 10.8344 7.79353C11.1029 7.41548 11.2481 6.9637 11.25 6.50001C11.25 6.30109 11.171 6.11033 11.0303 5.96968C10.8897 5.82902 10.6989 5.75001 10.5 5.75001C10.3011 5.75001 10.1103 5.82902 9.96968 5.96968C9.82903 6.11033 9.75001 6.30109 9.75001 6.50001C9.75001 6.69892 9.67099 6.88968 9.53034 7.03034C9.38969 7.17099 9.19892 7.25001 9.00001 7.25001C8.8011 7.25001 8.61033 7.17099 8.46968 7.03034C8.32903 6.88968 8.25001 6.69892 8.25001 6.50001C8.25001 6.30109 8.17099 6.11033 8.03034 5.96968C7.88969 5.82902 7.69892 5.75001 7.50001 5.75001C7.3011 5.75001 7.11033 5.82902 6.96968 5.96968C6.82903 6.11033 6.75001 6.30109 6.75001 6.50001C6.75193 6.9637 6.89707 7.41548 7.16557 7.79353C7.43408 8.17158 7.81283 8.45744 8.25001 8.61201V14H5.67226C5.38553 13.3104 4.95167 12.6918 4.40101 12.1873ZM6.00001 15.5V15.7325C6.0008 16.4663 6.29263 17.1697 6.81147 17.6885C7.3303 18.2074 8.03376 18.4992 8.76751 18.5H9.23251C9.96625 18.4992 10.6697 18.2074 11.1885 17.6885C11.7074 17.1697 11.9992 16.4663 12 15.7325V15.5H6.00001Z" fill="white" fill-opacity="0.96"/>
</g>
<defs>
<clipPath id="clip0_485_14018">
<rect width="18" height="18" fill="white" transform="translate(0 0.5)"/>
</clipPath>
</defs>
</svg>
