<svg width="24" height="25" viewBox="0 0 24 25" fill="none" xmlns="http://www.w3.org/2000/svg">
<g clip-path="url(#clip0_485_18521)">
<path d="M19 2.50015H9.95596C9.19418 2.49779 8.44207 2.67073 7.75782 3.00557C7.07357 3.34041 6.47553 3.82818 6.00996 4.43115L0.209962 11.8861C0.0734069 12.0617 -0.000732422 12.2777 -0.000732422 12.5001C-0.000732422 12.7225 0.0734069 12.9386 0.209962 13.1141L6.00996 20.5691C6.47553 21.1721 7.07357 21.6599 7.75782 21.9947C8.44207 22.3296 9.19418 22.5025 9.95596 22.5001H19C20.3256 22.4986 21.5964 21.9713 22.5337 21.0339C23.4711 20.0966 23.9984 18.8257 24 17.5001V7.50015C23.9984 6.17455 23.4711 4.9037 22.5337 3.96637C21.5964 3.02903 20.3256 2.50173 19 2.50015ZM17.707 14.7931C17.8025 14.8854 17.8787 14.9957 17.9311 15.1177C17.9835 15.2397 18.0111 15.371 18.0122 15.5037C18.0134 15.6365 17.9881 15.7682 17.9378 15.8911C17.8875 16.014 17.8132 16.1256 17.7194 16.2195C17.6255 16.3134 17.5138 16.3877 17.3909 16.438C17.268 16.4882 17.1363 16.5136 17.0036 16.5124C16.8708 16.5112 16.7396 16.4837 16.6176 16.4312C16.4956 16.3788 16.3852 16.3027 16.293 16.2071L14 13.9141L11.707 16.2071C11.5184 16.3893 11.2658 16.4901 11.0036 16.4878C10.7414 16.4855 10.4906 16.3804 10.3051 16.195C10.1197 16.0096 10.0146 15.7587 10.0123 15.4965C10.01 15.2344 10.1108 14.9817 10.293 14.7931L12.586 12.5001L10.293 10.2071C10.1108 10.0185 10.01 9.76594 10.0123 9.50375C10.0146 9.24155 10.1197 8.99074 10.3051 8.80533C10.4906 8.61992 10.7414 8.51475 11.0036 8.51247C11.2658 8.51019 11.5184 8.61099 11.707 8.79315L14 11.0861L16.293 8.79315C16.4816 8.61099 16.7342 8.51019 16.9964 8.51247C17.2586 8.51475 17.5094 8.61992 17.6948 8.80533C17.8802 8.99074 17.9854 9.24155 17.9876 9.50375C17.9899 9.76594 17.8891 10.0185 17.707 10.2071L15.414 12.5001L17.707 14.7931Z" fill="white" fill-opacity="0.1" style="mix-blend-mode:lighten"/>
<path d="M19 2.50015H9.95596C9.19418 2.49779 8.44207 2.67073 7.75782 3.00557C7.07357 3.34041 6.47553 3.82818 6.00996 4.43115L0.209962 11.8861C0.0734069 12.0617 -0.000732422 12.2777 -0.000732422 12.5001C-0.000732422 12.7225 0.0734069 12.9386 0.209962 13.1141L6.00996 20.5691C6.47553 21.1721 7.07357 21.6599 7.75782 21.9947C8.44207 22.3296 9.19418 22.5025 9.95596 22.5001H19C20.3256 22.4986 21.5964 21.9713 22.5337 21.0339C23.4711 20.0966 23.9984 18.8257 24 17.5001V7.50015C23.9984 6.17455 23.4711 4.9037 22.5337 3.96637C21.5964 3.02903 20.3256 2.50173 19 2.50015ZM17.707 14.7931C17.8025 14.8854 17.8787 14.9957 17.9311 15.1177C17.9835 15.2397 18.0111 15.371 18.0122 15.5037C18.0134 15.6365 17.9881 15.7682 17.9378 15.8911C17.8875 16.014 17.8132 16.1256 17.7194 16.2195C17.6255 16.3134 17.5138 16.3877 17.3909 16.438C17.268 16.4882 17.1363 16.5136 17.0036 16.5124C16.8708 16.5112 16.7396 16.4837 16.6176 16.4312C16.4956 16.3788 16.3852 16.3027 16.293 16.2071L14 13.9141L11.707 16.2071C11.5184 16.3893 11.2658 16.4901 11.0036 16.4878C10.7414 16.4855 10.4906 16.3804 10.3051 16.195C10.1197 16.0096 10.0146 15.7587 10.0123 15.4965C10.01 15.2344 10.1108 14.9817 10.293 14.7931L12.586 12.5001L10.293 10.2071C10.1108 10.0185 10.01 9.76594 10.0123 9.50375C10.0146 9.24155 10.1197 8.99074 10.3051 8.80533C10.4906 8.61992 10.7414 8.51475 11.0036 8.51247C11.2658 8.51019 11.5184 8.61099 11.707 8.79315L14 11.0861L16.293 8.79315C16.4816 8.61099 16.7342 8.51019 16.9964 8.51247C17.2586 8.51475 17.5094 8.61992 17.6948 8.80533C17.8802 8.99074 17.9854 9.24155 17.9876 9.50375C17.9899 9.76594 17.8891 10.0185 17.707 10.2071L15.414 12.5001L17.707 14.7931Z" fill="white" fill-opacity="0.8" style="mix-blend-mode:color-dodge"/>
</g>
<defs>
<clipPath id="clip0_485_18521">
<rect width="24" height="24" fill="white" transform="translate(0 0.5)"/>
</clipPath>
</defs>
</svg>
