<svg width="44" height="44" viewBox="0 0 44 44" fill="none" xmlns="http://www.w3.org/2000/svg">
<path d="M0 17.6C0 11.4394 0 8.35913 1.19893 6.0061C2.25354 3.93632 3.93632 2.25354 6.0061 1.19893C8.35913 0 11.4394 0 17.6 0H26.4C32.5606 0 35.6409 0 37.9939 1.19893C40.0637 2.25354 41.7465 3.93632 42.8011 6.0061C44 8.35913 44 11.4394 44 17.6V26.4C44 32.5606 44 35.6409 42.8011 37.9939C41.7465 40.0637 40.0637 41.7465 37.9939 42.8011C35.6409 44 32.5606 44 26.4 44H17.6C11.4394 44 8.35913 44 6.0061 42.8011C3.93632 41.7465 2.25354 40.0637 1.19893 37.9939C0 35.6409 0 32.5606 0 26.4V17.6Z" fill="white" fill-opacity="0.06" style="mix-blend-mode:lighten"/>
<path d="M0 17.6C0 11.4394 0 8.35913 1.19893 6.0061C2.25354 3.93632 3.93632 2.25354 6.0061 1.19893C8.35913 0 11.4394 0 17.6 0H26.4C32.5606 0 35.6409 0 37.9939 1.19893C40.0637 2.25354 41.7465 3.93632 42.8011 6.0061C44 8.35913 44 11.4394 44 17.6V26.4C44 32.5606 44 35.6409 42.8011 37.9939C41.7465 40.0637 40.0637 41.7465 37.9939 42.8011C35.6409 44 32.5606 44 26.4 44H17.6C11.4394 44 8.35913 44 6.0061 42.8011C3.93632 41.7465 2.25354 40.0637 1.19893 37.9939C0 35.6409 0 32.5606 0 26.4V17.6Z" fill="#808080" fill-opacity="0.18" style="mix-blend-mode:color-dodge"/>
<path d="M0 17.6C0 11.4394 0 8.35913 1.19893 6.0061C2.25354 3.93632 3.93632 2.25354 6.0061 1.19893C8.35913 0 11.4394 0 17.6 0H26.4C32.5606 0 35.6409 0 37.9939 1.19893C40.0637 2.25354 41.7465 3.93632 42.8011 6.0061C44 8.35913 44 11.4394 44 17.6V26.4C44 32.5606 44 35.6409 42.8011 37.9939C41.7465 40.0637 40.0637 41.7465 37.9939 42.8011C35.6409 44 32.5606 44 26.4 44H17.6C11.4394 44 8.35913 44 6.0061 42.8011C3.93632 41.7465 2.25354 40.0637 1.19893 37.9939C0 35.6409 0 32.5606 0 26.4V17.6Z" fill="url(#paint0_radial_8009_5174)"/>
<path d="M0 17.6C0 11.4394 0 8.35913 1.19893 6.0061C2.25354 3.93632 3.93632 2.25354 6.0061 1.19893C8.35913 0 11.4394 0 17.6 0H26.4C32.5606 0 35.6409 0 37.9939 1.19893C40.0637 2.25354 41.7465 3.93632 42.8011 6.0061C44 8.35913 44 11.4394 44 17.6V26.4C44 32.5606 44 35.6409 42.8011 37.9939C41.7465 40.0637 40.0637 41.7465 37.9939 42.8011C35.6409 44 32.5606 44 26.4 44H17.6C11.4394 44 8.35913 44 6.0061 42.8011C3.93632 41.7465 2.25354 40.0637 1.19893 37.9939C0 35.6409 0 32.5606 0 26.4V17.6Z" fill="url(#paint1_radial_8009_5174)" style="mix-blend-mode:color-dodge"/>
<g clip-path="url(#clip0_8009_5174)">
<path d="M22 20.5833C23.9529 20.5833 25.5417 18.9945 25.5417 17.0417C25.5417 15.0888 23.9529 13.5 22 13.5C20.0471 13.5 18.4583 15.0888 18.4583 17.0417C18.4583 18.9945 20.0471 20.5833 22 20.5833ZM23.7092 21.5608C25.5785 22.1551 27.0306 23.6936 27.5002 25.6153C27.5788 25.9369 27.3359 26.25 27.0044 26.25H23.2134L22.4229 23.4896L23.7092 21.5608ZM16.4991 25.6153C16.9687 23.6936 18.4208 22.1551 20.2901 21.5608L21.5764 23.4896L20.7859 26.25H16.9949C16.6634 26.25 16.4212 25.9369 16.4991 25.6153ZM30.5 28.375C30.5 28.766 30.1827 29.0833 29.7917 29.0833H29.0833V29.7917C29.0833 30.1827 28.766 30.5 28.375 30.5H15.625C15.234 30.5 14.9167 30.1827 14.9167 29.7917V29.0833H14.2083C13.8173 29.0833 13.5 28.766 13.5 28.375C13.5 27.984 13.8173 27.6667 14.2083 27.6667H29.7917C30.1827 27.6667 30.5 27.984 30.5 28.375Z" fill="white"/>
</g>
<defs>
<radialGradient id="paint0_radial_8009_5174" cx="0" cy="0" r="1" gradientUnits="userSpaceOnUse" gradientTransform="translate(22 44) rotate(-90) scale(72.2857 22)">
<stop stop-color="white" stop-opacity="0.07"/>
<stop offset="0.603261" stop-color="white" stop-opacity="0"/>
</radialGradient>
<radialGradient id="paint1_radial_8009_5174" cx="0" cy="0" r="1" gradientUnits="userSpaceOnUse" gradientTransform="translate(22 44) rotate(-90) scale(60.1071 15.0135)">
<stop stop-color="#5E5E5E" stop-opacity="0.14"/>
<stop offset="0.738467" stop-color="#5E5E5E" stop-opacity="0"/>
</radialGradient>
<clipPath id="clip0_8009_5174">
<rect width="17" height="17" fill="white" transform="translate(13.5 13.5)"/>
</clipPath>
</defs>
</svg>
