<svg xmlns="http://www.w3.org/2000/svg" width="24" height="25" viewBox="0 0 24 25" fill="none">
<g clip-path="url(#clip0_423_232)">
<path d="M12.0085 0.658203C5.39145 0.658203 0.00845337 6.0412 0.00845337 12.6582C0.00845337 19.2752 5.39145 24.6582 12.0085 24.6582C18.6255 24.6582 24.0085 19.2752 24.0085 12.6582C24.0085 6.0412 18.6255 0.658203 12.0085 0.658203ZM12.0085 22.6582C6.49445 22.6582 2.00845 18.1722 2.00845 12.6582C2.00845 7.1442 6.49445 2.6582 12.0085 2.6582C17.5225 2.6582 22.0085 7.1442 22.0085 12.6582C22.0085 18.1722 17.5225 22.6582 12.0085 22.6582ZM13.5085 7.1582C13.5085 7.9862 12.8365 8.6582 12.0085 8.6582C11.1805 8.6582 10.5085 7.9862 10.5085 7.1582C10.5085 6.3302 11.1805 5.6582 12.0085 5.6582C12.8365 5.6582 13.5085 6.3302 13.5085 7.1582ZM13.5085 18.1582C13.5085 18.9862 12.8365 19.6582 12.0085 19.6582C11.1805 19.6582 10.5085 18.9862 10.5085 18.1582C10.5085 17.3302 11.1805 16.6582 12.0085 16.6582C12.8365 16.6582 13.5085 17.3302 13.5085 18.1582ZM13.5085 12.6582C13.5085 13.4862 12.8365 14.1582 12.0085 14.1582C11.1805 14.1582 10.5085 13.4862 10.5085 12.6582C10.5085 11.8302 11.1805 11.1582 12.0085 11.1582C12.8365 11.1582 13.5085 11.8302 13.5085 12.6582Z" fill="white"/>
</g>
<defs>
<clipPath id="clip0_423_232">
<rect width="24" height="24" fill="white" transform="translate(0.00845337 0.658203)"/>
</clipPath>
</defs>
</svg>