<svg xmlns="http://www.w3.org/2000/svg" width="25" height="25" viewBox="0 0 25 25" fill="none">
<g clip-path="url(#clip0_423_554)">
<path d="M12.53 7.6582V1.1182C13.443 1.4642 14.283 1.9972 14.995 2.7082L18.479 6.1942C19.191 6.9052 19.724 7.7452 20.07 8.6582H13.53C12.978 8.6582 12.53 8.2092 12.53 7.6582ZM13.8 20.1382C12.987 20.9512 12.53 22.0532 12.53 23.2032V24.6582H13.985C15.135 24.6582 16.237 24.2012 17.05 23.3882L23.857 16.5812C24.754 15.6842 24.754 14.2282 23.857 13.3312C22.96 12.4342 21.504 12.4342 20.607 13.3312L13.8 20.1382ZM10.53 23.2032C10.53 21.5112 11.189 19.9202 12.385 18.7242L19.192 11.9172C19.581 11.5282 20.034 11.2292 20.523 11.0162C20.519 10.8962 20.514 10.7772 20.506 10.6572H13.53C11.876 10.6572 10.53 9.3112 10.53 7.6572V0.682203C10.369 0.671203 10.208 0.658203 10.045 0.658203H5.53003C2.77303 0.658203 0.530029 2.9012 0.530029 5.6582V19.6582C0.530029 22.4152 2.77303 24.6582 5.53003 24.6582H10.53V23.2032Z" fill="white"/>
</g>
<defs>
<clipPath id="clip0_423_554">
<rect width="24" height="24" fill="white" transform="translate(0.530029 0.658203)"/>
</clipPath>
</defs>
</svg>