<svg width="10" height="10" viewBox="0 0 10 10" fill="none" xmlns="http://www.w3.org/2000/svg">
<path d="M4.00977 9.19287C3.71354 9.19287 3.46387 9.06803 3.26074 8.81836L0.677246 5.6001C0.596842 5.50277 0.539714 5.40967 0.505859 5.3208C0.472005 5.2277 0.455078 5.13249 0.455078 5.03516C0.455078 4.81934 0.527018 4.6416 0.670898 4.50195C0.814779 4.35807 0.998861 4.28613 1.22314 4.28613C1.47282 4.28613 1.68229 4.39404 1.85156 4.60986L3.98438 7.35205L8.11035 0.788574C8.20768 0.644694 8.30713 0.543132 8.40869 0.483887C8.51025 0.42041 8.63721 0.388672 8.78955 0.388672C9.0096 0.388672 9.18945 0.458496 9.3291 0.598145C9.47298 0.733561 9.54492 0.90918 9.54492 1.125C9.54492 1.20964 9.53011 1.29639 9.50049 1.38525C9.4751 1.47412 9.43066 1.56722 9.36719 1.66455L4.75879 8.79932C4.58105 9.06169 4.33138 9.19287 4.00977 9.19287Z" fill="white"/>
</svg>
