<svg width="1392" height="105" viewBox="0 0 1392 105" fill="none" xmlns="http://www.w3.org/2000/svg">
<line y1="77.2278" x2="1397.08" y2="77.2278" stroke="white" stroke-width="10" stroke-dasharray="1 4"/>
<line y1="80.7278" x2="1397.08" y2="80.7278" stroke="white"/>
<line y1="73.7278" x2="1397.08" y2="73.7278" stroke="white"/>
<path d="M1183.86 62.4792C1183.86 63.213 1183.11 63.8765 1182.09 63.8765C1181.06 63.8765 1180.31 63.213 1180.31 62.4792C1180.31 61.7453 1181.06 61.0819 1182.09 61.0819C1183.11 61.0819 1183.86 61.7453 1183.86 62.4792Z" fill="white" stroke="#2D3648" stroke-width="0.402592"/>
<line x1="1182" y1="51.447" x2="1182" y2="60.8801" stroke="#717D96" stroke-width="0.402592"/>
<path fill-rule="evenodd" clip-rule="evenodd" d="M1184.89 37.6941H1179.29V50.0423H1184.89V37.6941ZM1183.09 50.0427H1181.08V52.1182H1183.09V50.0427Z" fill="#2D3648"/>
<ellipse cx="1182.09" cy="41.0349" rx="1.97704" ry="1.59858" fill="#D1FFD9"/>
<ellipse cx="1182.09" cy="46.5046" rx="1.97704" ry="1.59858" fill="#FFEDAD"/>
<path fill-rule="evenodd" clip-rule="evenodd" d="M799.03 89.1582C799.462 88.8093 800.078 88.8093 800.51 89.1582L804.576 92.446C804.914 92.7194 805.336 92.8686 805.771 92.8686H813.965C814.4 92.8686 814.822 92.7194 815.16 92.446L819.226 89.1582C819.657 88.8093 820.274 88.8093 820.706 89.1582C821.288 89.6291 821.288 90.5172 820.706 90.9881L815.362 95.3086C814.916 95.6693 814.657 96.2122 814.657 96.7859V99.7382C814.657 100.293 814.414 100.821 813.992 101.182L811.204 103.567C810.508 104.163 809.486 104.177 808.774 103.601L805.784 101.183C805.338 100.823 805.079 100.28 805.079 99.7061V96.7858C805.079 96.2121 804.82 95.6691 804.373 95.3084L799.03 90.9881C798.448 90.5172 798.448 89.6291 799.03 89.1582Z" fill="black"/>
<path d="M296.245 62.4789C296.245 63.2128 295.492 63.8762 294.469 63.8762C293.446 63.8762 292.693 63.2128 292.693 62.4789C292.693 61.7451 293.446 61.0817 294.469 61.0817C295.492 61.0817 296.245 61.7451 296.245 62.4789Z" fill="white" stroke="#2D3648" stroke-width="0.402592"/>
<line x1="294.376" y1="49.1597" x2="294.376" y2="60.8803" stroke="#717D96" stroke-width="0.402592"/>
<rect x="290.053" y="37.6938" width="8.83355" height="12.3482" rx="0.805184" fill="#CBD2E0"/>
<path d="M293.57 46.4028L291.944 42.8824L292.857 42.8824L293.931 45.3837L293.882 45.3554L294 45.3554L293.951 45.3837L295.024 42.8824L295.938 42.8824L294.311 46.4028L293.57 46.4028Z" fill="black"/>
<rect x="0.0830078" y="57.3257" width="47.3474" height="12.3482" rx="0.805184" fill="#CBD2E0"/>
<rect x="0.0830078" y="84.3257" width="47.3474" height="12.3482" rx="0.805184" fill="#CBD2E0"/>
<rect x="0.0830078" y="23.9761" width="1400" height="2" fill="#808080" fill-opacity="0.3"/>
<path d="M30.0087 17.2749C29.0569 17.2749 28.2406 17.0203 27.5599 16.5112C26.8848 16.0021 26.3646 15.2772 25.9994 14.3364C25.6342 13.3957 25.4516 12.2806 25.4516 10.9912V10.9746C25.4516 9.68522 25.6342 8.57292 25.9994 7.6377C26.3646 6.69694 26.8848 5.97201 27.5599 5.46289C28.2406 4.95378 29.0569 4.69922 30.0087 4.69922C30.9605 4.69922 31.7767 4.95378 32.4574 5.46289C33.1381 5.97201 33.661 6.69694 34.0263 7.6377C34.3915 8.57292 34.5741 9.68522 34.5741 10.9746V10.9912C34.5741 12.2806 34.3915 13.3957 34.0263 14.3364C33.661 15.2772 33.1381 16.0021 32.4574 16.5112C31.7767 17.0203 30.9605 17.2749 30.0087 17.2749ZM30.0087 15.54C30.5178 15.54 30.9522 15.3574 31.3119 14.9922C31.6716 14.627 31.9455 14.1068 32.1337 13.4316C32.3274 12.751 32.4242 11.9375 32.4242 10.9912V10.9746C32.4242 10.0283 32.3274 9.21761 32.1337 8.54248C31.9455 7.86182 31.6716 7.34163 31.3119 6.98193C30.9522 6.6167 30.5178 6.43408 30.0087 6.43408C29.4996 6.43408 29.0652 6.6167 28.7055 6.98193C28.3513 7.34163 28.0774 7.86182 27.8837 8.54248C27.6955 9.21761 27.6015 10.0283 27.6015 10.9746V10.9912C27.6015 11.9375 27.6955 12.751 27.8837 13.4316C28.0774 14.1068 28.3513 14.627 28.7055 14.9922C29.0652 15.3574 29.4996 15.54 30.0087 15.54ZM36.9315 16.9761V7.90332H38.9984V9.31445H39.1395C39.3332 8.81087 39.6459 8.42074 40.0775 8.14404C40.5147 7.86735 41.0321 7.729 41.6298 7.729C42.0393 7.729 42.4073 7.79541 42.7338 7.92822C43.0658 8.06104 43.3508 8.24919 43.5888 8.49268C43.8267 8.73617 44.0093 9.02669 44.1366 9.36426H44.286C44.4354 9.03776 44.643 8.75277 44.9086 8.50928C45.1797 8.26025 45.4952 8.06934 45.8549 7.93652C46.2201 7.79818 46.613 7.729 47.0336 7.729C47.6423 7.729 48.1625 7.85075 48.5941 8.09424C49.0313 8.33219 49.3661 8.67529 49.5985 9.12354C49.8365 9.57178 49.9555 10.1086 49.9555 10.7339V16.9761H47.8886V11.2402C47.8886 10.8418 47.8277 10.5125 47.7059 10.2524C47.5897 9.99235 47.4099 9.7959 47.1664 9.66309C46.9229 9.53027 46.6158 9.46387 46.245 9.46387C45.8853 9.46387 45.5726 9.54688 45.307 9.71289C45.0414 9.87337 44.8339 10.092 44.6845 10.3687C44.5406 10.6453 44.4686 10.958 44.4686 11.3066V16.9761H42.4017V11.0908C42.4017 10.7533 42.3353 10.4627 42.2025 10.2192C42.0752 9.97575 41.8871 9.79036 41.6381 9.66309C41.3946 9.53027 41.1041 9.46387 40.7665 9.46387C40.4289 9.46387 40.1246 9.55241 39.8534 9.72949C39.5878 9.90104 39.3775 10.139 39.2225 10.4434C39.0731 10.7422 38.9984 11.0798 38.9984 11.4561V16.9761H36.9315Z" fill="white" fill-opacity="0.96"/>
<path fill-rule="evenodd" clip-rule="evenodd" d="M97.3441 16.4761H89.0698V8.47607H97.3441V16.4761ZM129.259 16.4761H120.985V8.47607H129.259V16.4761ZM161.174 16.4761H152.9V8.47607H161.174V16.4761ZM193.089 16.4761H184.815V8.47607H193.089V16.4761ZM225.004 16.4761H216.73V8.47607H225.004V16.4761ZM256.919 16.4761H248.645V8.47607H256.919V16.4761ZM288.834 16.4761H280.56V8.47607H288.834V16.4761Z" fill="#808080" fill-opacity="0.3"/>
<path fill-rule="evenodd" clip-rule="evenodd" d="M424.494 16.4761H416.22V8.47607H424.494V16.4761ZM456.409 16.4761H448.135V8.47607H456.409V16.4761ZM488.324 16.4761H480.05V8.47607H488.324V16.4761ZM520.239 16.4761H511.965V8.47607H520.239V16.4761ZM552.154 16.4761H543.88V8.47607H552.154V16.4761ZM584.069 16.4761H575.795V8.47607H584.069V16.4761ZM615.984 16.4761H607.71V8.47607H615.984V16.4761Z" fill="#808080" fill-opacity="0.3"/>
<path fill-rule="evenodd" clip-rule="evenodd" d="M752.88 16.4761H744.605V8.47607H752.88V16.4761ZM784.795 16.4761H776.52V8.47607H784.795V16.4761ZM816.71 16.4761H808.435V8.47607H816.71V16.4761ZM848.625 16.4761H840.351V8.47607H848.625V16.4761ZM880.54 16.4761H872.266V8.47607H880.54V16.4761ZM912.455 16.4761H904.181V8.47607H912.455V16.4761ZM944.37 16.4761H936.096V8.47607H944.37V16.4761Z" fill="#808080" fill-opacity="0.3"/>
<path fill-rule="evenodd" clip-rule="evenodd" d="M1078.79 16.4761H1070.52V8.47607H1078.79V16.4761ZM1110.71 16.4761H1102.43V8.47607H1110.71V16.4761ZM1142.62 16.4761H1134.35V8.47607H1142.62V16.4761ZM1174.54 16.4761H1166.26V8.47607H1174.54V16.4761ZM1206.45 16.4761H1198.18V8.47607H1206.45V16.4761ZM1238.37 16.4761H1230.09V8.47607H1238.37V16.4761ZM1270.28 16.4761H1262.01V8.47607H1270.28V16.4761Z" fill="#808080" fill-opacity="0.3"/>
<path d="M324.612 16.9761V15.5317L328.538 11.5142C329.08 10.9663 329.501 10.5153 329.8 10.1611C330.104 9.80143 330.317 9.486 330.439 9.21484C330.56 8.93815 330.621 8.64762 330.621 8.34326V8.31836C330.621 7.95312 330.541 7.62663 330.381 7.33887C330.22 7.05111 329.99 6.82699 329.692 6.6665C329.393 6.50049 329.036 6.41748 328.621 6.41748C328.2 6.41748 327.83 6.50602 327.509 6.68311C327.188 6.85465 326.939 7.09538 326.761 7.40527C326.584 7.71517 326.496 8.07764 326.496 8.49268L326.488 8.52588L324.495 8.51758L324.487 8.49268C324.487 7.74561 324.667 7.08708 325.027 6.51709C325.386 5.9471 325.884 5.50163 326.521 5.18066C327.157 4.8597 327.893 4.69922 328.729 4.69922C329.504 4.69922 330.192 4.84587 330.796 5.13916C331.404 5.43245 331.88 5.83643 332.223 6.35107C332.567 6.86572 332.738 7.46061 332.738 8.13574V8.16064C332.738 8.60889 332.652 9.04883 332.481 9.48047C332.309 9.90658 332.016 10.3742 331.601 10.8833C331.191 11.3924 330.624 11.9984 329.899 12.7012L326.936 15.5815L327.5 14.6353V15.5815L326.936 15.208H332.921V16.9761H324.612ZM339.619 17.2749C338.806 17.2749 338.089 17.1227 337.469 16.8184C336.85 16.514 336.357 16.1017 335.992 15.5815C335.627 15.0558 335.416 14.4665 335.361 13.8135L335.353 13.7056H337.32L337.337 13.7637C337.392 14.0902 337.522 14.3862 337.727 14.6519C337.932 14.9175 338.197 15.1305 338.524 15.291C338.85 15.446 339.218 15.5234 339.628 15.5234C340.093 15.5234 340.502 15.4211 340.856 15.2163C341.216 15.0116 341.495 14.7293 341.695 14.3696C341.894 14.0044 341.993 13.5894 341.993 13.1245V13.1079C341.993 12.6431 341.891 12.2336 341.686 11.8794C341.487 11.5197 341.21 11.2402 340.856 11.041C340.508 10.8363 340.104 10.7339 339.644 10.7339C339.307 10.7339 338.994 10.7837 338.706 10.8833C338.424 10.9829 338.172 11.1323 337.951 11.3315C337.84 11.4256 337.738 11.5308 337.644 11.647C337.55 11.7576 337.467 11.8794 337.395 12.0122H335.56L336.141 4.99805H343.33V6.74951H337.81L337.469 10.4019H337.619C337.785 10.1307 337.995 9.90104 338.25 9.71289C338.504 9.51921 338.795 9.37256 339.121 9.27295C339.448 9.16781 339.796 9.11523 340.167 9.11523C340.92 9.11523 341.584 9.28678 342.159 9.62988C342.74 9.96745 343.197 10.4351 343.529 11.0327C343.861 11.6248 344.027 12.3027 344.027 13.0664V13.083C344.027 13.9131 343.839 14.6436 343.463 15.2744C343.092 15.8997 342.574 16.3895 341.91 16.7437C341.246 17.0978 340.483 17.2749 339.619 17.2749ZM350.693 17.2749C349.741 17.2749 348.925 17.0203 348.244 16.5112C347.569 16.0021 347.049 15.2772 346.683 14.3364C346.318 13.3957 346.136 12.2806 346.136 10.9912V10.9746C346.136 9.68522 346.318 8.57292 346.683 7.6377C347.049 6.69694 347.569 5.97201 348.244 5.46289C348.925 4.95378 349.741 4.69922 350.693 4.69922C351.644 4.69922 352.461 4.95378 353.141 5.46289C353.822 5.97201 354.345 6.69694 354.71 7.6377C355.075 8.57292 355.258 9.68522 355.258 10.9746V10.9912C355.258 12.2806 355.075 13.3957 354.71 14.3364C354.345 15.2772 353.822 16.0021 353.141 16.5112C352.461 17.0203 351.644 17.2749 350.693 17.2749ZM350.693 15.54C351.202 15.54 351.636 15.3574 351.996 14.9922C352.356 14.627 352.629 14.1068 352.818 13.4316C353.011 12.751 353.108 11.9375 353.108 10.9912V10.9746C353.108 10.0283 353.011 9.21761 352.818 8.54248C352.629 7.86182 352.356 7.34163 351.996 6.98193C351.636 6.6167 351.202 6.43408 350.693 6.43408C350.184 6.43408 349.749 6.6167 349.389 6.98193C349.035 7.34163 348.761 7.86182 348.568 8.54248C348.379 9.21761 348.285 10.0283 348.285 10.9746V10.9912C348.285 11.9375 348.379 12.751 348.568 13.4316C348.761 14.1068 349.035 14.627 349.389 14.9922C349.749 15.3574 350.184 15.54 350.693 15.54ZM357.615 16.9761V7.90332H359.682V9.31445H359.824C360.017 8.81087 360.33 8.42074 360.761 8.14404C361.199 7.86735 361.716 7.729 362.314 7.729C362.723 7.729 363.091 7.79541 363.418 7.92822C363.75 8.06104 364.035 8.24919 364.273 8.49268C364.511 8.73617 364.693 9.02669 364.821 9.36426H364.97C365.119 9.03776 365.327 8.75277 365.593 8.50928C365.864 8.26025 366.179 8.06934 366.539 7.93652C366.904 7.79818 367.297 7.729 367.718 7.729C368.326 7.729 368.846 7.85075 369.278 8.09424C369.715 8.33219 370.05 8.67529 370.282 9.12354C370.52 9.57178 370.639 10.1086 370.639 10.7339V16.9761H368.573V11.2402C368.573 10.8418 368.512 10.5125 368.39 10.2524C368.274 9.99235 368.094 9.7959 367.85 9.66309C367.607 9.53027 367.3 9.46387 366.929 9.46387C366.569 9.46387 366.257 9.54688 365.991 9.71289C365.725 9.87337 365.518 10.092 365.368 10.3687C365.225 10.6453 365.153 10.958 365.153 11.3066V16.9761H363.086V11.0908C363.086 10.7533 363.019 10.4627 362.886 10.2192C362.759 9.97575 362.571 9.79036 362.322 9.66309C362.079 9.53027 361.788 9.46387 361.45 9.46387C361.113 9.46387 360.809 9.55241 360.537 9.72949C360.272 9.90104 360.061 10.139 359.907 10.4434C359.757 10.7422 359.682 11.0798 359.682 11.4561V16.9761H357.615Z" fill="white" fill-opacity="0.96"/>
<path d="M656.389 17.2749C655.575 17.2749 654.859 17.1227 654.239 16.8184C653.619 16.514 653.126 16.1017 652.761 15.5815C652.396 15.0558 652.186 14.4665 652.13 13.8135L652.122 13.7056H654.089L654.106 13.7637C654.161 14.0902 654.291 14.3862 654.496 14.6519C654.701 14.9175 654.966 15.1305 655.293 15.291C655.619 15.446 655.987 15.5234 656.397 15.5234C656.862 15.5234 657.271 15.4211 657.625 15.2163C657.985 15.0116 658.265 14.7293 658.464 14.3696C658.663 14.0044 658.763 13.5894 658.763 13.1245V13.1079C658.763 12.6431 658.66 12.2336 658.456 11.8794C658.256 11.5197 657.98 11.2402 657.625 11.041C657.277 10.8363 656.873 10.7339 656.414 10.7339C656.076 10.7339 655.763 10.7837 655.476 10.8833C655.193 10.9829 654.942 11.1323 654.72 11.3315C654.61 11.4256 654.507 11.5308 654.413 11.647C654.319 11.7576 654.236 11.8794 654.164 12.0122H652.33L652.911 4.99805H660.099V6.74951H654.579L654.239 10.4019H654.388C654.554 10.1307 654.764 9.90104 655.019 9.71289C655.274 9.51921 655.564 9.37256 655.891 9.27295C656.217 9.16781 656.566 9.11523 656.937 9.11523C657.689 9.11523 658.353 9.28678 658.929 9.62988C659.51 9.96745 659.966 10.4351 660.298 11.0327C660.63 11.6248 660.796 12.3027 660.796 13.0664V13.083C660.796 13.9131 660.608 14.6436 660.232 15.2744C659.861 15.8997 659.344 16.3895 658.68 16.7437C658.016 17.0978 657.252 17.2749 656.389 17.2749ZM667.462 17.2749C666.51 17.2749 665.694 17.0203 665.013 16.5112C664.338 16.0021 663.818 15.2772 663.453 14.3364C663.087 13.3957 662.905 12.2806 662.905 10.9912V10.9746C662.905 9.68522 663.087 8.57292 663.453 7.6377C663.818 6.69694 664.338 5.97201 665.013 5.46289C665.694 4.95378 666.51 4.69922 667.462 4.69922C668.414 4.69922 669.23 4.95378 669.911 5.46289C670.591 5.97201 671.114 6.69694 671.479 7.6377C671.845 8.57292 672.027 9.68522 672.027 10.9746V10.9912C672.027 12.2806 671.845 13.3957 671.479 14.3364C671.114 15.2772 670.591 16.0021 669.911 16.5112C669.23 17.0203 668.414 17.2749 667.462 17.2749ZM667.462 15.54C667.971 15.54 668.405 15.3574 668.765 14.9922C669.125 14.627 669.399 14.1068 669.587 13.4316C669.781 12.751 669.877 11.9375 669.877 10.9912V10.9746C669.877 10.0283 669.781 9.21761 669.587 8.54248C669.399 7.86182 669.125 7.34163 668.765 6.98193C668.405 6.6167 667.971 6.43408 667.462 6.43408C666.953 6.43408 666.518 6.6167 666.159 6.98193C665.805 7.34163 665.531 7.86182 665.337 8.54248C665.149 9.21761 665.055 10.0283 665.055 10.9746V10.9912C665.055 11.9375 665.149 12.751 665.337 13.4316C665.531 14.1068 665.805 14.627 666.159 14.9922C666.518 15.3574 666.953 15.54 667.462 15.54ZM678.768 17.2749C677.816 17.2749 676.999 17.0203 676.319 16.5112C675.644 16.0021 675.124 15.2772 674.758 14.3364C674.393 13.3957 674.21 12.2806 674.21 10.9912V10.9746C674.21 9.68522 674.393 8.57292 674.758 7.6377C675.124 6.69694 675.644 5.97201 676.319 5.46289C676.999 4.95378 677.816 4.69922 678.768 4.69922C679.719 4.69922 680.536 4.95378 681.216 5.46289C681.897 5.97201 682.42 6.69694 682.785 7.6377C683.15 8.57292 683.333 9.68522 683.333 10.9746V10.9912C683.333 12.2806 683.15 13.3957 682.785 14.3364C682.42 15.2772 681.897 16.0021 681.216 16.5112C680.536 17.0203 679.719 17.2749 678.768 17.2749ZM678.768 15.54C679.277 15.54 679.711 15.3574 680.071 14.9922C680.43 14.627 680.704 14.1068 680.893 13.4316C681.086 12.751 681.183 11.9375 681.183 10.9912V10.9746C681.183 10.0283 681.086 9.21761 680.893 8.54248C680.704 7.86182 680.43 7.34163 680.071 6.98193C679.711 6.6167 679.277 6.43408 678.768 6.43408C678.258 6.43408 677.824 6.6167 677.464 6.98193C677.11 7.34163 676.836 7.86182 676.643 8.54248C676.454 9.21761 676.36 10.0283 676.36 10.9746V10.9912C676.36 11.9375 676.454 12.751 676.643 13.4316C676.836 14.1068 677.11 14.627 677.464 14.9922C677.824 15.3574 678.258 15.54 678.768 15.54ZM685.69 16.9761V7.90332H687.757V9.31445H687.898C688.092 8.81087 688.405 8.42074 688.836 8.14404C689.274 7.86735 689.791 7.729 690.389 7.729C690.798 7.729 691.166 7.79541 691.493 7.92822C691.825 8.06104 692.11 8.24919 692.348 8.49268C692.586 8.73617 692.768 9.02669 692.895 9.36426H693.045C693.194 9.03776 693.402 8.75277 693.667 8.50928C693.939 8.26025 694.254 8.06934 694.614 7.93652C694.979 7.79818 695.372 7.729 695.792 7.729C696.401 7.729 696.921 7.85075 697.353 8.09424C697.79 8.33219 698.125 8.67529 698.357 9.12354C698.595 9.57178 698.714 10.1086 698.714 10.7339V16.9761H696.647V11.2402C696.647 10.8418 696.587 10.5125 696.465 10.2524C696.349 9.99235 696.169 9.7959 695.925 9.66309C695.682 9.53027 695.375 9.46387 695.004 9.46387C694.644 9.46387 694.332 9.54688 694.066 9.71289C693.8 9.87337 693.593 10.092 693.443 10.3687C693.299 10.6453 693.228 10.958 693.228 11.3066V16.9761H691.161V11.0908C691.161 10.7533 691.094 10.4627 690.961 10.2192C690.834 9.97575 690.646 9.79036 690.397 9.66309C690.153 9.53027 689.863 9.46387 689.525 9.46387C689.188 9.46387 688.883 9.55241 688.612 9.72949C688.347 9.90104 688.136 10.139 687.981 10.4434C687.832 10.7422 687.757 11.0798 687.757 11.4561V16.9761H685.69Z" fill="white" fill-opacity="0.96"/>
<path d="M981.06 16.9761L986.265 6.88232V6.74951H980.089V4.99805H988.423V6.78271L983.293 16.9761H981.06ZM994.757 17.2749C993.943 17.2749 993.226 17.1227 992.607 16.8184C991.987 16.514 991.494 16.1017 991.129 15.5815C990.764 15.0558 990.554 14.4665 990.498 13.8135L990.49 13.7056H992.457L992.474 13.7637C992.529 14.0902 992.659 14.3862 992.864 14.6519C993.069 14.9175 993.334 15.1305 993.661 15.291C993.987 15.446 994.355 15.5234 994.765 15.5234C995.23 15.5234 995.639 15.4211 995.993 15.2163C996.353 15.0116 996.633 14.7293 996.832 14.3696C997.031 14.0044 997.131 13.5894 997.131 13.1245V13.1079C997.131 12.6431 997.028 12.2336 996.824 11.8794C996.624 11.5197 996.348 11.2402 995.993 11.041C995.645 10.8363 995.241 10.7339 994.782 10.7339C994.444 10.7339 994.131 10.7837 993.844 10.8833C993.561 10.9829 993.31 11.1323 993.088 11.3315C992.977 11.4256 992.875 11.5308 992.781 11.647C992.687 11.7576 992.604 11.8794 992.532 12.0122H990.698L991.279 4.99805H998.467V6.74951H992.947L992.607 10.4019H992.756C992.922 10.1307 993.132 9.90104 993.387 9.71289C993.642 9.51921 993.932 9.37256 994.259 9.27295C994.585 9.16781 994.934 9.11523 995.304 9.11523C996.057 9.11523 996.721 9.28678 997.297 9.62988C997.878 9.96745 998.334 10.4351 998.666 11.0327C998.998 11.6248 999.164 12.3027 999.164 13.0664V13.083C999.164 13.9131 998.976 14.6436 998.6 15.2744C998.229 15.8997 997.712 16.3895 997.048 16.7437C996.384 17.0978 995.62 17.2749 994.757 17.2749ZM1005.83 17.2749C1004.88 17.2749 1004.06 17.0203 1003.38 16.5112C1002.71 16.0021 1002.19 15.2772 1001.82 14.3364C1001.46 13.3957 1001.27 12.2806 1001.27 10.9912V10.9746C1001.27 9.68522 1001.46 8.57292 1001.82 7.6377C1002.19 6.69694 1002.71 5.97201 1003.38 5.46289C1004.06 4.95378 1004.88 4.69922 1005.83 4.69922C1006.78 4.69922 1007.6 4.95378 1008.28 5.46289C1008.96 5.97201 1009.48 6.69694 1009.85 7.6377C1010.21 8.57292 1010.4 9.68522 1010.4 10.9746V10.9912C1010.4 12.2806 1010.21 13.3957 1009.85 14.3364C1009.48 15.2772 1008.96 16.0021 1008.28 16.5112C1007.6 17.0203 1006.78 17.2749 1005.83 17.2749ZM1005.83 15.54C1006.34 15.54 1006.77 15.3574 1007.13 14.9922C1007.49 14.627 1007.77 14.1068 1007.95 13.4316C1008.15 12.751 1008.25 11.9375 1008.25 10.9912V10.9746C1008.25 10.0283 1008.15 9.21761 1007.95 8.54248C1007.77 7.86182 1007.49 7.34163 1007.13 6.98193C1006.77 6.6167 1006.34 6.43408 1005.83 6.43408C1005.32 6.43408 1004.89 6.6167 1004.53 6.98193C1004.17 7.34163 1003.9 7.86182 1003.7 8.54248C1003.52 9.21761 1003.42 10.0283 1003.42 10.9746V10.9912C1003.42 11.9375 1003.52 12.751 1003.7 13.4316C1003.9 14.1068 1004.17 14.627 1004.53 14.9922C1004.89 15.3574 1005.32 15.54 1005.83 15.54ZM1012.75 16.9761V7.90332H1014.82V9.31445H1014.96C1015.15 8.81087 1015.47 8.42074 1015.9 8.14404C1016.34 7.86735 1016.85 7.729 1017.45 7.729C1017.86 7.729 1018.23 7.79541 1018.55 7.92822C1018.89 8.06104 1019.17 8.24919 1019.41 8.49268C1019.65 8.73617 1019.83 9.02669 1019.96 9.36426H1020.11C1020.26 9.03776 1020.46 8.75277 1020.73 8.50928C1021 8.26025 1021.32 8.06934 1021.68 7.93652C1022.04 7.79818 1022.43 7.729 1022.85 7.729C1023.46 7.729 1023.98 7.85075 1024.42 8.09424C1024.85 8.33219 1025.19 8.67529 1025.42 9.12354C1025.66 9.57178 1025.78 10.1086 1025.78 10.7339V16.9761H1023.71V11.2402C1023.71 10.8418 1023.65 10.5125 1023.53 10.2524C1023.41 9.99235 1023.23 9.7959 1022.99 9.66309C1022.74 9.53027 1022.44 9.46387 1022.07 9.46387C1021.71 9.46387 1021.39 9.54688 1021.13 9.71289C1020.86 9.87337 1020.66 10.092 1020.51 10.3687C1020.36 10.6453 1020.29 10.958 1020.29 11.3066V16.9761H1018.22V11.0908C1018.22 10.7533 1018.16 10.4627 1018.02 10.2192C1017.9 9.97575 1017.71 9.79036 1017.46 9.66309C1017.22 9.53027 1016.93 9.46387 1016.59 9.46387C1016.25 9.46387 1015.95 9.55241 1015.67 9.72949C1015.41 9.90104 1015.2 10.139 1015.04 10.4434C1014.89 10.7422 1014.82 11.0798 1014.82 11.4561V16.9761H1012.75Z" fill="white" fill-opacity="0.96"/>
<path d="M1309.9 16.9761V7.10645H1309.75L1306.77 9.20654V7.19775L1309.9 4.99805H1312.03V16.9761H1309.9ZM1319.75 17.2749C1318.8 17.2749 1317.98 17.0203 1317.3 16.5112C1316.63 16.0021 1316.11 15.2772 1315.74 14.3364C1315.38 13.3957 1315.19 12.2806 1315.19 10.9912V10.9746C1315.19 9.68522 1315.38 8.57292 1315.74 7.6377C1316.11 6.69694 1316.63 5.97201 1317.3 5.46289C1317.98 4.95378 1318.8 4.69922 1319.75 4.69922C1320.7 4.69922 1321.52 4.95378 1322.2 5.46289C1322.88 5.97201 1323.4 6.69694 1323.77 7.6377C1324.13 8.57292 1324.32 9.68522 1324.32 10.9746V10.9912C1324.32 12.2806 1324.13 13.3957 1323.77 14.3364C1323.4 15.2772 1322.88 16.0021 1322.2 16.5112C1321.52 17.0203 1320.7 17.2749 1319.75 17.2749ZM1319.75 15.54C1320.26 15.54 1320.7 15.3574 1321.05 14.9922C1321.41 14.627 1321.69 14.1068 1321.88 13.4316C1322.07 12.751 1322.17 11.9375 1322.17 10.9912V10.9746C1322.17 10.0283 1322.07 9.21761 1321.88 8.54248C1321.69 7.86182 1321.41 7.34163 1321.05 6.98193C1320.7 6.6167 1320.26 6.43408 1319.75 6.43408C1319.24 6.43408 1318.81 6.6167 1318.45 6.98193C1318.09 7.34163 1317.82 7.86182 1317.63 8.54248C1317.44 9.21761 1317.34 10.0283 1317.34 10.9746V10.9912C1317.34 11.9375 1317.44 12.751 1317.63 13.4316C1317.82 14.1068 1318.09 14.627 1318.45 14.9922C1318.81 15.3574 1319.24 15.54 1319.75 15.54ZM1331.06 17.2749C1330.11 17.2749 1329.29 17.0203 1328.61 16.5112C1327.93 16.0021 1327.41 15.2772 1327.05 14.3364C1326.68 13.3957 1326.5 12.2806 1326.5 10.9912V10.9746C1326.5 9.68522 1326.68 8.57292 1327.05 7.6377C1327.41 6.69694 1327.93 5.97201 1328.61 5.46289C1329.29 4.95378 1330.11 4.69922 1331.06 4.69922C1332.01 4.69922 1332.83 4.95378 1333.51 5.46289C1334.19 5.97201 1334.71 6.69694 1335.07 7.6377C1335.44 8.57292 1335.62 9.68522 1335.62 10.9746V10.9912C1335.62 12.2806 1335.44 13.3957 1335.07 14.3364C1334.71 15.2772 1334.19 16.0021 1333.51 16.5112C1332.83 17.0203 1332.01 17.2749 1331.06 17.2749ZM1331.06 15.54C1331.57 15.54 1332 15.3574 1332.36 14.9922C1332.72 14.627 1332.99 14.1068 1333.18 13.4316C1333.38 12.751 1333.47 11.9375 1333.47 10.9912V10.9746C1333.47 10.0283 1333.38 9.21761 1333.18 8.54248C1332.99 7.86182 1332.72 7.34163 1332.36 6.98193C1332 6.6167 1331.57 6.43408 1331.06 6.43408C1330.55 6.43408 1330.11 6.6167 1329.75 6.98193C1329.4 7.34163 1329.13 7.86182 1328.93 8.54248C1328.74 9.21761 1328.65 10.0283 1328.65 10.9746V10.9912C1328.65 11.9375 1328.74 12.751 1328.93 13.4316C1329.13 14.1068 1329.4 14.627 1329.75 14.9922C1330.11 15.3574 1330.55 15.54 1331.06 15.54ZM1342.36 17.2749C1341.41 17.2749 1340.59 17.0203 1339.91 16.5112C1339.24 16.0021 1338.72 15.2772 1338.35 14.3364C1337.99 13.3957 1337.81 12.2806 1337.81 10.9912V10.9746C1337.81 9.68522 1337.99 8.57292 1338.35 7.6377C1338.72 6.69694 1339.24 5.97201 1339.91 5.46289C1340.59 4.95378 1341.41 4.69922 1342.36 4.69922C1343.31 4.69922 1344.13 4.95378 1344.81 5.46289C1345.49 5.97201 1346.02 6.69694 1346.38 7.6377C1346.75 8.57292 1346.93 9.68522 1346.93 10.9746V10.9912C1346.93 12.2806 1346.75 13.3957 1346.38 14.3364C1346.02 15.2772 1345.49 16.0021 1344.81 16.5112C1344.13 17.0203 1343.31 17.2749 1342.36 17.2749ZM1342.36 15.54C1342.87 15.54 1343.31 15.3574 1343.67 14.9922C1344.03 14.627 1344.3 14.1068 1344.49 13.4316C1344.68 12.751 1344.78 11.9375 1344.78 10.9912V10.9746C1344.78 10.0283 1344.68 9.21761 1344.49 8.54248C1344.3 7.86182 1344.03 7.34163 1343.67 6.98193C1343.31 6.6167 1342.87 6.43408 1342.36 6.43408C1341.85 6.43408 1341.42 6.6167 1341.06 6.98193C1340.71 7.34163 1340.43 7.86182 1340.24 8.54248C1340.05 9.21761 1339.96 10.0283 1339.96 10.9746V10.9912C1339.96 11.9375 1340.05 12.751 1340.24 13.4316C1340.43 14.1068 1340.71 14.627 1341.06 14.9922C1341.42 15.3574 1341.85 15.54 1342.36 15.54ZM1349.29 16.9761V7.90332H1351.35V9.31445H1351.49C1351.69 8.81087 1352 8.42074 1352.43 8.14404C1352.87 7.86735 1353.39 7.729 1353.98 7.729C1354.39 7.729 1354.76 7.79541 1355.09 7.92822C1355.42 8.06104 1355.71 8.24919 1355.94 8.49268C1356.18 8.73617 1356.36 9.02669 1356.49 9.36426H1356.64C1356.79 9.03776 1357 8.75277 1357.26 8.50928C1357.53 8.26025 1357.85 8.06934 1358.21 7.93652C1358.57 7.79818 1358.97 7.729 1359.39 7.729C1360 7.729 1360.52 7.85075 1360.95 8.09424C1361.39 8.33219 1361.72 8.67529 1361.95 9.12354C1362.19 9.57178 1362.31 10.1086 1362.31 10.7339V16.9761H1360.24V11.2402C1360.24 10.8418 1360.18 10.5125 1360.06 10.2524C1359.94 9.99235 1359.76 9.7959 1359.52 9.66309C1359.28 9.53027 1358.97 9.46387 1358.6 9.46387C1358.24 9.46387 1357.93 9.54688 1357.66 9.71289C1357.4 9.87337 1357.19 10.092 1357.04 10.3687C1356.89 10.6453 1356.82 10.958 1356.82 11.3066V16.9761H1354.76V11.0908C1354.76 10.7533 1354.69 10.4627 1354.56 10.2192C1354.43 9.97575 1354.24 9.79036 1353.99 9.66309C1353.75 9.53027 1353.46 9.46387 1353.12 9.46387C1352.78 9.46387 1352.48 9.55241 1352.21 9.72949C1351.94 9.90104 1351.73 10.139 1351.58 10.4434C1351.43 10.7422 1351.35 11.0798 1351.35 11.4561V16.9761H1349.29Z" fill="white" fill-opacity="0.96"/>
</svg>
