<svg width="28" height="28" viewBox="0 0 28 28" fill="none" xmlns="http://www.w3.org/2000/svg">
<rect width="28" height="28" rx="14" fill="white" fill-opacity="0.07"/>
<rect width="28" height="28" rx="14" fill="#5E5E5E" fill-opacity="0.18" style="mix-blend-mode:color-dodge"/>
<path d="M9.06152 19.3618C8.95573 19.256 8.8859 19.1333 8.85205 18.9937C8.8182 18.854 8.8182 18.7144 8.85205 18.5747C8.8859 18.4351 8.95361 18.3145 9.05518 18.2129L12.8384 14.4233L9.05518 10.6401C8.95361 10.5428 8.8859 10.4243 8.85205 10.2847C8.82243 10.1408 8.82243 9.99902 8.85205 9.85938C8.8859 9.71973 8.95573 9.59701 9.06152 9.49121C9.16309 9.38542 9.28369 9.31559 9.42334 9.28174C9.56722 9.24788 9.70898 9.24788 9.84863 9.28174C9.99251 9.31559 10.1152 9.3833 10.2168 9.48486L14 13.2681L17.7832 9.48486C17.8848 9.3833 18.0054 9.31559 18.145 9.28174C18.2847 9.24788 18.4243 9.24788 18.564 9.28174C18.7036 9.31559 18.8263 9.38753 18.9321 9.49756C19.0379 9.59912 19.1077 9.71973 19.1416 9.85938C19.1797 9.99902 19.1797 10.1387 19.1416 10.2783C19.1077 10.418 19.04 10.5386 18.9385 10.6401L15.1616 14.4233L18.9385 18.2129C19.04 18.3145 19.1077 18.4351 19.1416 18.5747C19.1755 18.7144 19.1755 18.854 19.1416 18.9937C19.1077 19.1333 19.0379 19.256 18.9321 19.3618C18.8263 19.4676 18.7036 19.5374 18.564 19.5713C18.4243 19.6051 18.2847 19.6051 18.145 19.5713C18.0054 19.5374 17.8848 19.4697 17.7832 19.3682L14 15.585L10.2168 19.3682C10.1152 19.4697 9.99463 19.5374 9.85498 19.5713C9.71533 19.6051 9.57357 19.6051 9.42969 19.5713C9.29004 19.5374 9.16732 19.4676 9.06152 19.3618Z" fill="white" fill-opacity="0.96"/>
</svg>
