<svg width="28" height="29" viewBox="0 0 28 29" fill="none" xmlns="http://www.w3.org/2000/svg">
<rect y="0.5" width="28" height="28" rx="14" fill="white" fill-opacity="0.07"/>
<rect y="0.5" width="28" height="28" rx="14" fill="#5E5E5E" fill-opacity="0.18" style="mix-blend-mode:color-dodge"/>
<path d="M9.06152 19.8618C8.95573 19.756 8.8859 19.6333 8.85205 19.4937C8.8182 19.354 8.8182 19.2144 8.85205 19.0747C8.8859 18.9351 8.95361 18.8145 9.05518 18.7129L12.8384 14.9233L9.05518 11.1401C8.95361 11.0428 8.8859 10.9243 8.85205 10.7847C8.82243 10.6408 8.82243 10.499 8.85205 10.3594C8.8859 10.2197 8.95573 10.097 9.06152 9.99121C9.16309 9.88542 9.28369 9.81559 9.42334 9.78174C9.56722 9.74788 9.70898 9.74788 9.84863 9.78174C9.99251 9.81559 10.1152 9.8833 10.2168 9.98486L14 13.7681L17.7832 9.98486C17.8848 9.8833 18.0054 9.81559 18.145 9.78174C18.2847 9.74788 18.4243 9.74788 18.564 9.78174C18.7036 9.81559 18.8263 9.88753 18.9321 9.99756C19.0379 10.0991 19.1077 10.2197 19.1416 10.3594C19.1797 10.499 19.1797 10.6387 19.1416 10.7783C19.1077 10.918 19.04 11.0386 18.9385 11.1401L15.1616 14.9233L18.9385 18.7129C19.04 18.8145 19.1077 18.9351 19.1416 19.0747C19.1755 19.2144 19.1755 19.354 19.1416 19.4937C19.1077 19.6333 19.0379 19.756 18.9321 19.8618C18.8263 19.9676 18.7036 20.0374 18.564 20.0713C18.4243 20.1051 18.2847 20.1051 18.145 20.0713C18.0054 20.0374 17.8848 19.9697 17.7832 19.8682L14 16.085L10.2168 19.8682C10.1152 19.9697 9.99463 20.0374 9.85498 20.0713C9.71533 20.1051 9.57357 20.1051 9.42969 20.0713C9.29004 20.0374 9.16732 19.9676 9.06152 19.8618Z" fill="white" fill-opacity="0.96"/>
</svg>
