<svg width="66" height="30" viewBox="0 0 66 30" fill="none" xmlns="http://www.w3.org/2000/svg">
<g clip-path="url(#clip0_7002_5899)">
<path fill-rule="evenodd" clip-rule="evenodd" d="M2.08086 0C1.24348 0 0.642749 0.254854 0.296875 1.03762V23.5194C0.624545 24.3022 1.24348 24.557 2.08086 24.557H36.3952H37.1051V23.7015V8.55583C37.1051 7.31796 37.5966 6.82646 38.8527 6.82646H43.5129C44.8054 6.82646 45.2787 7.29976 45.2787 8.59223V23.7925V24.5388H45.9522H58.5311C59.7872 24.5388 60.2423 24.0837 60.2423 22.7913V1.76578C60.2423 0.436893 59.8054 0 58.4947 0H2.08086ZM16.826 6.80825H18.7374H18.7556C18.968 6.80825 19.1804 6.80623 19.3927 6.80421H19.3928C19.8175 6.80016 20.2423 6.79612 20.667 6.80825C21.559 6.84466 22.0869 7.35437 22.1051 8.26456C22.1415 9.57524 22.1415 10.9041 22.1051 12.2148C22.0687 13.0886 21.559 13.6165 20.6852 13.6347C19.3381 13.6711 18.0093 13.6711 16.6622 13.6347C15.8248 13.6165 15.2969 13.0704 15.2787 12.2512C15.2423 10.9041 15.2423 9.57524 15.2787 8.22816C15.3151 7.37257 15.843 6.88107 16.6986 6.80825H16.826ZM11.1828 8.20995V10.2488L11.1646 10.2306C11.1646 10.4565 11.1666 10.6803 11.1687 10.9028V10.9029V10.9029V10.9029V10.9029C11.1727 11.3438 11.1767 11.7793 11.1646 12.2148C11.1464 13.0704 10.6731 13.6165 9.83571 13.6347C8.45221 13.6711 7.06872 13.6711 5.68522 13.6347C4.86605 13.5983 4.37454 13.034 4.37454 12.1966V8.24636C4.39275 7.42719 4.90246 6.86286 5.72163 6.84466C7.10513 6.80825 8.48862 6.80825 9.87212 6.84466C10.6731 6.86286 11.1646 7.40898 11.1828 8.20995ZM26.201 12.233V10.2488V8.26456C26.2192 7.42718 26.6925 6.86286 27.5117 6.84466C28.8952 6.80825 30.2787 6.80825 31.6622 6.84466C32.4813 6.88107 32.991 7.42718 32.991 8.26456V12.2148C32.9728 13.0704 32.4631 13.6347 31.6076 13.6529C30.2605 13.6893 28.9316 13.6893 27.5845 13.6529C26.7107 13.6347 26.2192 13.1068 26.201 12.233ZM56.1646 8.22816V10.2124V12.1966C56.1464 13.0704 55.6549 13.6165 54.7993 13.6347C53.4522 13.6711 52.1233 13.6711 50.7762 13.6347C49.8843 13.6165 49.3745 13.0522 49.3745 12.1602V8.26456C49.3927 7.40898 49.9025 6.84466 50.758 6.82646C52.1051 6.79005 53.4704 6.79005 54.8357 6.82646C55.6549 6.84466 56.1464 7.39078 56.1646 8.22816ZM45.2606 29.9998C46.7533 29.9998 48.0094 28.762 47.9183 27.3057H47.9001H42.6028C42.5118 28.7438 43.7679 29.9998 45.2606 29.9998ZM50.7944 27.3057H56.0917C56.2009 28.7438 54.9631 29.9998 53.4521 30.018C51.9594 30.018 50.7215 28.7984 50.7762 27.3057H50.7944ZM7.17788 30.0184C8.6706 29.9456 9.81744 28.7623 9.76283 27.3242H4.41089C4.4473 28.8898 5.70336 30.0912 7.17788 30.0184ZM12.6208 27.2881H17.9364C18.0638 28.6898 16.8259 29.9641 15.3332 30.0005C13.8405 30.0369 12.5662 28.7808 12.6208 27.2881ZM63.0273 20.4793V23.1189C63.2022 23.1189 63.3707 23.1232 63.5342 23.1274C63.8472 23.1353 64.1421 23.1428 64.429 23.1189C65.139 23.0825 65.6669 22.5546 65.7033 21.8628C65.7397 21.2257 65.3028 20.5704 64.6475 20.4793C64.2962 20.443 63.9369 20.455 63.5748 20.4671C63.3928 20.4732 63.2101 20.4793 63.0273 20.4793Z" fill="white"/>
<g filter="url(#filter0_f_7002_5899)">
<mask id="path-2-inside-1_7002_5899" fill="white">
<path fill-rule="evenodd" clip-rule="evenodd" d="M2.08086 0C1.24348 0 0.642749 0.254854 0.296875 1.03762V23.5194C0.624545 24.3022 1.24348 24.557 2.08086 24.557H36.3952H37.1051V23.7015V8.55583C37.1051 7.31796 37.5966 6.82646 38.8527 6.82646H43.5129C44.8054 6.82646 45.2787 7.29976 45.2787 8.59223V23.7925V24.5388H45.9522H58.5311C59.7872 24.5388 60.2423 24.0837 60.2423 22.7913V1.76578C60.2423 0.436893 59.8054 0 58.4947 0H2.08086ZM16.826 6.80825H18.7374H18.7556C18.968 6.80825 19.1804 6.80623 19.3927 6.80421H19.3928C19.8175 6.80016 20.2423 6.79612 20.667 6.80825C21.559 6.84466 22.0869 7.35437 22.1051 8.26456C22.1415 9.57524 22.1415 10.9041 22.1051 12.2148C22.0687 13.0886 21.559 13.6165 20.6852 13.6347C19.3381 13.6711 18.0093 13.6711 16.6622 13.6347C15.8248 13.6165 15.2969 13.0704 15.2787 12.2512C15.2423 10.9041 15.2423 9.57524 15.2787 8.22816C15.3151 7.37257 15.843 6.88107 16.6986 6.80825H16.826ZM11.1828 8.20995V10.2488L11.1646 10.2306C11.1646 10.4565 11.1666 10.6803 11.1687 10.9028V10.9029V10.9029V10.9029V10.9029C11.1727 11.3438 11.1767 11.7793 11.1646 12.2148C11.1464 13.0704 10.6731 13.6165 9.83571 13.6347C8.45221 13.6711 7.06872 13.6711 5.68522 13.6347C4.86605 13.5983 4.37454 13.034 4.37454 12.1966V8.24636C4.39275 7.42719 4.90246 6.86286 5.72163 6.84466C7.10513 6.80825 8.48862 6.80825 9.87212 6.84466C10.6731 6.86286 11.1646 7.40898 11.1828 8.20995ZM26.201 12.233V10.2488V8.26456C26.2192 7.42718 26.6925 6.86286 27.5117 6.84466C28.8952 6.80825 30.2787 6.80825 31.6622 6.84466C32.4813 6.88107 32.991 7.42718 32.991 8.26456V12.2148C32.9728 13.0704 32.4631 13.6347 31.6076 13.6529C30.2605 13.6893 28.9316 13.6893 27.5845 13.6529C26.7107 13.6347 26.2192 13.1068 26.201 12.233ZM56.1646 8.22816V10.2124V12.1966C56.1464 13.0704 55.6549 13.6165 54.7993 13.6347C53.4522 13.6711 52.1233 13.6711 50.7762 13.6347C49.8843 13.6165 49.3745 13.0522 49.3745 12.1602V8.26456C49.3927 7.40898 49.9025 6.84466 50.758 6.82646C52.1051 6.79005 53.4704 6.79005 54.8357 6.82646C55.6549 6.84466 56.1464 7.39078 56.1646 8.22816ZM45.2606 29.9998C46.7533 29.9998 48.0094 28.762 47.9183 27.3057H47.9001H42.6028C42.5118 28.7438 43.7679 29.9998 45.2606 29.9998ZM50.7944 27.3057H56.0917C56.2009 28.7438 54.9631 29.9998 53.4521 30.018C51.9594 30.018 50.7215 28.7984 50.7762 27.3057H50.7944ZM7.17788 30.0184C8.6706 29.9456 9.81744 28.7623 9.76283 27.3242H4.41089C4.4473 28.8898 5.70336 30.0912 7.17788 30.0184ZM12.6208 27.2881H17.9364C18.0638 28.6898 16.8259 29.9641 15.3332 30.0005C13.8405 30.0369 12.5662 28.7808 12.6208 27.2881ZM63.0273 20.4793V23.1189C63.2022 23.1189 63.3707 23.1232 63.5342 23.1274C63.8472 23.1353 64.1421 23.1428 64.429 23.1189C65.139 23.0825 65.6669 22.5546 65.7033 21.8628C65.7397 21.2257 65.3028 20.5704 64.6475 20.4793C64.2962 20.443 63.9369 20.455 63.5748 20.4671C63.3928 20.4732 63.2101 20.4793 63.0273 20.4793Z"/>
</mask>
<path d="M0.296875 1.03762L-0.617812 0.633458L-0.703125 0.826535V1.03762H0.296875ZM0.296875 23.5194H-0.703125V23.7203L-0.625566 23.9056L0.296875 23.5194ZM37.1051 24.557V25.557H38.1051V24.557H37.1051ZM45.2787 24.5388H44.2787V25.5388H45.2787V24.5388ZM19.3927 6.80421V5.80416L19.3832 5.80425L19.3927 6.80421ZM19.3928 6.80421V7.80425L19.4023 7.80416L19.3928 6.80421ZM20.667 6.80825L20.7078 5.80901L20.6956 5.80866L20.667 6.80825ZM22.1051 8.26456L21.1053 8.28456L21.1055 8.29233L22.1051 8.26456ZM22.1051 12.2148L23.1044 12.2564L23.1047 12.2426L22.1051 12.2148ZM20.6852 13.6347L20.6644 12.6349L20.6582 12.6351L20.6852 13.6347ZM16.6622 13.6347L16.6892 12.6351L16.6839 12.6349L16.6622 13.6347ZM15.2787 12.2512L16.2784 12.229L16.2783 12.2242L15.2787 12.2512ZM15.2787 8.22816L14.2796 8.18564L14.2792 8.19339L14.279 8.20114L15.2787 8.22816ZM16.6986 6.80825V5.80825H16.6561L16.6138 5.81185L16.6986 6.80825ZM11.1828 10.2488L10.4757 10.9559L12.1828 12.6629V10.2488H11.1828ZM11.1828 8.20995H12.1828V8.19859L12.1825 8.18723L11.1828 8.20995ZM11.1646 10.2306L11.8717 9.52346L10.1646 7.81646V10.2306H11.1646ZM11.1687 10.9028H12.1687L12.1686 10.8936L11.1687 10.9028ZM11.1687 10.9029H10.1686L10.1687 10.9121L11.1687 10.9029ZM11.1646 12.2148L10.165 12.187L10.1648 12.1935L11.1646 12.2148ZM9.83571 13.6347L9.81397 12.6349L9.8094 12.6351L9.83571 13.6347ZM5.68522 13.6347L5.64082 14.6337L5.64987 14.6341L5.65892 14.6344L5.68522 13.6347ZM4.37454 8.24636L3.37479 8.22414L3.37454 8.23525V8.24636H4.37454ZM5.72163 6.84466L5.74385 7.84442L5.74794 7.84431L5.72163 6.84466ZM9.87212 6.84466L9.84581 7.84432L9.8494 7.8444L9.87212 6.84466ZM26.201 12.233H25.201V12.2434L25.2012 12.2538L26.201 12.233ZM26.201 8.26456L25.2012 8.24283L25.201 8.2537V8.26456H26.201ZM27.5117 6.84466L27.5339 7.84442L27.538 7.84431L27.5117 6.84466ZM31.6622 6.84466L31.7066 5.84565L31.6975 5.84524L31.6885 5.84501L31.6622 6.84466ZM32.991 12.2148L33.9908 12.2361L33.991 12.2254V12.2148H32.991ZM31.6076 13.6529L31.5863 12.6531L31.5805 12.6533L31.6076 13.6529ZM27.5845 13.6529L27.6115 12.6533L27.6053 12.6531L27.5845 13.6529ZM56.1646 8.22816H57.1646V8.21729L57.1644 8.20642L56.1646 8.22816ZM56.1646 12.1966L57.1644 12.2174L57.1646 12.207V12.1966H56.1646ZM54.7993 13.6347L54.778 12.6349L54.7723 12.6351L54.7993 13.6347ZM50.7762 13.6347L50.8033 12.6351L50.7966 12.6349L50.7762 13.6347ZM49.3745 8.26456L48.3748 8.24329L48.3745 8.25393V8.26456H49.3745ZM50.758 6.82646L50.7793 7.82625L50.7851 7.82609L50.758 6.82646ZM54.8357 6.82646L54.8091 7.82611L54.8135 7.82621L54.8357 6.82646ZM47.9183 27.3057L48.9164 27.2433L48.8578 26.3057H47.9183V27.3057ZM42.6028 27.3057V26.3057H41.6641L41.6048 27.2425L42.6028 27.3057ZM56.0917 27.3057L57.0888 27.2299L57.0186 26.3057H56.0917V27.3057ZM53.4521 30.018V31.0181L53.4642 31.018L53.4521 30.018ZM50.7762 27.3057V26.3057H49.8121L49.7768 27.2691L50.7762 27.3057ZM9.76283 27.3242L10.7621 27.2863L10.7256 26.3242H9.76283V27.3242ZM7.17788 30.0184L7.12916 29.0196L7.12856 29.0196L7.17788 30.0184ZM4.41089 27.3242V26.3242H3.38736L3.41116 27.3475L4.41089 27.3242ZM17.9364 27.2881L18.9323 27.1976L18.8496 26.2881H17.9364V27.2881ZM12.6208 27.2881V26.2881H11.6567L11.6215 27.2515L12.6208 27.2881ZM15.3332 30.0005L15.3088 29.0008H15.3088L15.3332 30.0005ZM63.0273 23.1189H62.0273V24.1189H63.0273V23.1189ZM63.0273 20.4793V19.4793H62.0273V20.4793H63.0273ZM63.5342 23.1274L63.5597 22.1277H63.5597L63.5342 23.1274ZM64.429 23.1189L64.3778 22.1202L64.3619 22.121L64.346 22.1224L64.429 23.1189ZM65.7033 21.8628L64.7049 21.8058L64.7047 21.8103L65.7033 21.8628ZM64.6475 20.4793L64.7851 19.4889L64.7678 19.4865L64.7504 19.4847L64.6475 20.4793ZM63.5748 20.4671L63.6082 21.4666H63.6083L63.5748 20.4671ZM1.21156 1.44179C1.30846 1.22248 1.40489 1.14573 1.48105 1.10445C1.57862 1.05156 1.75351 1 2.08086 1V-1C1.57082 -1 1.02666 -0.924137 0.528052 -0.653902C0.00803426 -0.37206 -0.368838 0.0699913 -0.617812 0.633458L1.21156 1.44179ZM1.29688 23.5194V1.03762H-0.703125V23.5194H1.29688ZM2.08086 23.557C1.75253 23.557 1.57201 23.5052 1.47143 23.4511C1.39497 23.41 1.30485 23.3376 1.21932 23.1333L-0.625566 23.9056C-0.383431 24.484 -0.000252366 24.9305 0.524023 25.2125C1.02417 25.4815 1.5718 25.557 2.08086 25.557V23.557ZM36.3952 23.557H2.08086V25.557H36.3952V23.557ZM37.1051 23.557H36.3952V25.557H37.1051V23.557ZM36.1051 23.7015V24.557H38.1051V23.7015H36.1051ZM36.1051 8.55583V23.7015H38.1051V8.55583H36.1051ZM38.8527 5.82646C38.1312 5.82646 37.3644 5.96076 36.8037 6.51695C36.2408 7.07527 36.1051 7.84021 36.1051 8.55583H38.1051C38.1051 8.30647 38.1306 8.14709 38.1598 8.04937C38.1865 7.9599 38.2112 7.93784 38.2121 7.93693C38.2133 7.93571 38.2375 7.9097 38.3316 7.88206C38.4335 7.85211 38.5979 7.82646 38.8527 7.82646V5.82646ZM43.5129 5.82646H38.8527V7.82646H43.5129V5.82646ZM46.2787 8.59223C46.2787 7.8686 46.1555 7.08549 45.5876 6.51756C45.0196 5.94963 44.2365 5.82646 43.5129 5.82646V7.82646C43.782 7.82646 43.9536 7.85193 44.0595 7.88217C44.1097 7.89652 44.139 7.91021 44.1541 7.91859C44.1681 7.9264 44.1726 7.93107 44.1734 7.93177C44.1741 7.93248 44.1787 7.93701 44.1865 7.95107C44.1949 7.96617 44.2086 7.99539 44.2229 8.04563C44.2532 8.15156 44.2787 8.32316 44.2787 8.59223H46.2787ZM46.2787 23.7925V8.59223H44.2787V23.7925H46.2787ZM46.2787 24.5388V23.7925H44.2787V24.5388H46.2787ZM45.9522 23.5388H45.2787V25.5388H45.9522V23.5388ZM58.5311 23.5388H45.9522V25.5388H58.5311V23.5388ZM59.2423 22.7913C59.2423 23.3689 59.13 23.4636 59.1447 23.4485C59.1643 23.4287 59.0847 23.5388 58.5311 23.5388V25.5388C59.2336 25.5388 60.0096 25.4214 60.5707 24.8509C61.127 24.2852 61.2423 23.5061 61.2423 22.7913H59.2423ZM59.2423 1.76578V22.7913H61.2423V1.76578H59.2423ZM58.4947 1C59.0949 1 59.1741 1.11304 59.1499 1.08872C59.1284 1.06695 59.2423 1.15385 59.2423 1.76578H61.2423C61.2423 1.04882 61.1377 0.252828 60.57 -0.31961C59.9998 -0.894598 59.2052 -1 58.4947 -1V1ZM2.08086 1H58.4947V-1H2.08086V1ZM18.7374 5.80825H16.826V7.80825H18.7374V5.80825ZM18.7556 5.80825H18.7374V7.80825H18.7556V5.80825ZM19.3832 5.80425C19.1701 5.80628 18.9624 5.80825 18.7556 5.80825V7.80825C18.9735 7.80825 19.1907 7.80618 19.4023 7.80416L19.3832 5.80425ZM19.3928 5.80421H19.3927V7.80421H19.3928V5.80421ZM20.6956 5.80866C20.2486 5.79589 19.8048 5.80024 19.3833 5.80425L19.4023 7.80416C19.8302 7.80009 20.2359 7.79634 20.6385 7.80785L20.6956 5.80866ZM23.1049 8.24457C23.092 7.5989 22.8921 6.97286 22.4208 6.50163C21.9526 6.03342 21.3331 5.83461 20.7078 5.80908L20.6262 7.80742C20.8929 7.81831 20.9833 7.89255 21.0066 7.91584C21.0269 7.93612 21.1 8.02003 21.1053 8.28456L23.1049 8.24457ZM23.1047 12.2426C23.1417 10.9134 23.1417 9.56598 23.1047 8.2368L21.1055 8.29233C21.1414 9.5845 21.1414 10.8949 21.1055 12.187L23.1047 12.2426ZM20.7061 14.6345C21.3436 14.6212 21.9581 14.4153 22.4196 13.9494C22.8772 13.4874 23.0784 12.8771 23.1043 12.2564L21.106 12.1732C21.0954 12.4263 21.0235 12.5168 20.9988 12.5418C20.9779 12.5629 20.9006 12.63 20.6644 12.6349L20.7061 14.6345ZM16.6351 14.6343C18.0002 14.6712 19.3471 14.6712 20.7122 14.6343L20.6582 12.6351C19.3291 12.671 18.0183 12.671 16.6892 12.6351L16.6351 14.6343ZM14.2789 12.2734C14.2927 12.8959 14.5056 13.4957 14.9528 13.9471C15.4013 14.3999 16.0038 14.6206 16.6404 14.6345L16.6839 12.6349C16.4832 12.6306 16.403 12.5691 16.3737 12.5396C16.343 12.5086 16.2828 12.4257 16.2784 12.229L14.2789 12.2734ZM14.279 8.20114C14.2421 9.56623 14.2421 10.9131 14.279 12.2782L16.2783 12.2242C16.2424 10.8951 16.2424 9.58425 16.2783 8.25517L14.279 8.20114ZM16.6138 5.81185C16.0172 5.86263 15.4307 6.06963 14.981 6.51092C14.5239 6.95952 14.3065 7.55386 14.2796 8.18564L16.2778 8.27067C16.2873 8.04687 16.352 7.96766 16.3818 7.93841C16.4191 7.90185 16.5244 7.82669 16.7834 7.80465L16.6138 5.81185ZM16.826 5.80825H16.6986V7.80825H16.826V5.80825ZM12.1828 10.2488V8.20995H10.1828V10.2488H12.1828ZM10.4575 10.9377L10.4757 10.9559L11.8899 9.54166L11.8717 9.52346L10.4575 10.9377ZM12.1686 10.8936C12.1666 10.6704 12.1646 10.4511 12.1646 10.2306H10.1646C10.1646 10.4618 10.1667 10.6902 10.1687 10.9119L12.1686 10.8936ZM12.1687 10.9029V10.9028H10.1687V10.9029H12.1687ZM12.1687 10.9029V10.9029H10.1687V10.9029H12.1687ZM12.1687 10.9029V10.9029H10.1687V10.9029H12.1687ZM12.1687 10.9029V10.9029H10.1687V10.9029H12.1687ZM12.1642 12.2426C12.1769 11.7855 12.1726 11.3315 12.1686 10.8938L10.1687 10.9121C10.1728 11.3561 10.1765 11.7731 10.165 12.187L12.1642 12.2426ZM9.85744 14.6345C10.4986 14.6205 11.1035 14.3956 11.5445 13.9145C11.975 13.4448 12.1516 12.8379 12.1644 12.2361L10.1648 12.1935C10.1594 12.4473 10.0902 12.5412 10.0702 12.5631C10.0606 12.5735 10.0102 12.6307 9.81397 12.6349L9.85744 14.6345ZM5.65892 14.6344C7.05995 14.6712 8.46099 14.6712 9.86202 14.6344L9.8094 12.6351C8.44344 12.671 7.07749 12.671 5.71153 12.6351L5.65892 14.6344ZM3.37454 12.1966C3.37454 12.8097 3.55677 13.4154 3.9794 13.885C4.40828 14.3615 5.00205 14.6053 5.64082 14.6337L5.72963 12.6357C5.54923 12.6277 5.48765 12.5711 5.46599 12.5471C5.43807 12.516 5.37454 12.4208 5.37454 12.1966H3.37454ZM3.37454 8.24636V12.1966H5.37454V8.24636H3.37454ZM5.69941 5.84491C5.05519 5.85922 4.45774 6.09579 4.02071 6.55852C3.5896 7.01499 3.38838 7.61263 3.37479 8.22414L5.3743 8.26858C5.37891 8.06091 5.44165 7.96681 5.47474 7.93177C5.50191 7.903 5.5689 7.8483 5.74385 7.84441L5.69941 5.84491ZM9.89842 5.84501C8.49739 5.80814 7.09636 5.80814 5.69533 5.84501L5.74794 7.84431C7.1139 7.80837 8.47985 7.80837 9.84581 7.84431L9.89842 5.84501ZM12.1825 8.18723C12.1689 7.58825 11.9741 6.99905 11.5486 6.54776C11.1168 6.08982 10.5274 5.85929 9.89484 5.84492L9.8494 7.8444C10.0178 7.84823 10.0746 7.89986 10.0934 7.91978C10.1184 7.94634 10.1785 8.03068 10.1831 8.23267L12.1825 8.18723ZM25.201 10.2488V12.233H27.201V10.2488H25.201ZM25.201 8.26456V10.2488H27.201V8.26456H25.201ZM27.4895 5.84491C26.8417 5.8593 26.2436 6.09914 25.8123 6.57883C25.3926 7.0457 25.2142 7.6461 25.2012 8.24283L27.2008 8.2863C27.206 8.04564 27.2734 7.9452 27.2996 7.91601C27.3143 7.89965 27.3624 7.84822 27.5339 7.84441L27.4895 5.84491ZM31.6885 5.84501C30.2874 5.80814 28.8864 5.80814 27.4854 5.84501L27.538 7.84431C28.9039 7.80837 30.2699 7.80837 31.6359 7.84431L31.6885 5.84501ZM33.991 8.26456C33.991 7.64108 33.7979 7.03504 33.3642 6.57121C32.9282 6.10503 32.334 5.87353 31.7066 5.84565L31.6178 7.84367C31.8095 7.8522 31.8797 7.91196 31.9034 7.93729C31.9293 7.96496 31.991 8.05067 31.991 8.26456H33.991ZM33.991 12.2148V8.26456H31.991V12.2148H33.991ZM31.6288 14.6527C32.2803 14.6388 32.8914 14.4093 33.34 13.9349C33.782 13.4673 33.9776 12.856 33.9908 12.2361L31.9913 12.1935C31.9863 12.4292 31.9179 12.5278 31.8867 12.5609C31.8619 12.5871 31.7904 12.6488 31.5863 12.6531L31.6288 14.6527ZM27.5575 14.6525C28.9226 14.6894 30.2695 14.6894 31.6346 14.6525L31.5805 12.6533C30.2515 12.6892 28.9406 12.6892 27.6115 12.6533L27.5575 14.6525ZM25.2012 12.2538C25.2141 12.8703 25.3986 13.4869 25.8515 13.9573C26.3095 14.4331 26.9264 14.6394 27.5637 14.6527L27.6053 12.6531C27.3688 12.6482 27.3031 12.5814 27.2923 12.5703C27.2765 12.5538 27.2061 12.4695 27.2008 12.2122L25.2012 12.2538ZM57.1646 10.2124V8.22816H55.1646V10.2124H57.1646ZM57.1646 12.1966V10.2124H55.1646V12.1966H57.1646ZM54.8206 14.6345C55.464 14.6208 56.0763 14.4005 56.5261 13.9198C56.9679 13.4477 57.1516 12.8331 57.1644 12.2174L55.1648 12.1758C55.1594 12.4339 55.0883 12.5292 55.0658 12.5532C55.0514 12.5686 54.9902 12.6304 54.778 12.6349L54.8206 14.6345ZM50.7492 14.6343C52.1143 14.6712 53.4612 14.6712 54.8263 14.6343L54.7723 12.6351C53.4432 12.671 52.1323 12.671 50.8033 12.6351L50.7492 14.6343ZM48.3745 12.1602C48.3745 12.7939 48.558 13.4255 49.0114 13.9091C49.4703 14.3986 50.0979 14.6211 50.7558 14.6345L50.7966 12.6349C50.5626 12.6301 50.4893 12.5613 50.4704 12.5412C50.4459 12.515 50.3745 12.4185 50.3745 12.1602H48.3745ZM48.3745 8.26456V12.1602H50.3745V8.26456H48.3745ZM50.7368 5.82668C50.0853 5.84054 49.4742 6.07007 49.0256 6.54448C48.5836 7.01206 48.388 7.62339 48.3748 8.24329L50.3743 8.28584C50.3793 8.05016 50.4477 7.95153 50.4789 7.9185C50.5037 7.8923 50.5752 7.83057 50.7793 7.82623L50.7368 5.82668ZM54.8624 5.82681C53.4794 5.78993 52.0962 5.78992 50.731 5.82682L50.7851 7.82609C52.114 7.79017 53.4614 7.79016 54.8091 7.8261L54.8624 5.82681ZM57.1644 8.20642C57.1512 7.59936 56.9622 6.99858 56.5311 6.53731C56.0926 6.06811 55.4942 5.84084 54.8579 5.8267L54.8135 7.82621C54.9964 7.83027 55.0533 7.88517 55.0699 7.90292C55.0939 7.9286 55.1598 8.01958 55.1648 8.24989L57.1644 8.20642ZM46.9203 27.368C46.9719 28.1933 46.2335 28.9998 45.2606 28.9998V30.9998C47.2731 30.9998 49.0468 29.3307 48.9164 27.2433L46.9203 27.368ZM47.9001 28.3057H47.9183V26.3057H47.9001V28.3057ZM42.6028 28.3057H47.9001V26.3057H42.6028V28.3057ZM45.2606 28.9998C44.2918 28.9998 43.5495 28.1792 43.6008 27.3688L41.6048 27.2425C41.474 29.3084 43.2439 30.9998 45.2606 30.9998V28.9998ZM56.0917 26.3057H50.7944V28.3057H56.0917V26.3057ZM53.4642 31.018C55.4885 30.9936 57.2465 29.3056 57.0888 27.2299L55.0946 27.3814C55.1554 28.182 54.4376 29.0061 53.4401 29.0181L53.4642 31.018ZM49.7768 27.2691C49.7004 29.3585 51.4237 31.018 53.4521 31.018V29.018C52.4951 29.018 51.7427 28.2383 51.7755 27.3422L49.7768 27.2691ZM50.7944 26.3057H50.7762V28.3057H50.7944V26.3057ZM8.76355 27.3622C8.79566 28.2078 8.12036 28.9712 7.12916 29.0196L7.2266 31.0172C9.22084 30.9199 10.8392 29.3169 10.7621 27.2863L8.76355 27.3622ZM4.41089 28.3242H9.76283V26.3242H4.41089V28.3242ZM7.12856 29.0196C6.25404 29.0628 5.43485 28.3431 5.41062 27.301L3.41116 27.3475C3.45974 29.4364 5.15269 31.1196 7.2272 31.0172L7.12856 29.0196ZM17.9364 26.2881H12.6208V28.2881H17.9364V26.2881ZM15.3576 31.0002C17.3512 30.9515 19.1188 29.2495 18.9323 27.1976L16.9405 27.3786C17.0088 28.1301 16.3007 28.9766 15.3088 29.0008L15.3576 31.0002ZM11.6215 27.2515C11.5452 29.3363 13.3052 31.0502 15.3576 31.0002L15.3088 29.0008C14.3758 29.0235 13.5872 28.2253 13.6202 27.3246L11.6215 27.2515ZM64.0273 23.1189V20.4793H62.0273V23.1189H64.0273ZM63.5597 22.1277C63.3978 22.1236 63.2169 22.1189 63.0273 22.1189V24.1189C63.1876 24.1189 63.3436 24.1228 63.5088 24.127L63.5597 22.1277ZM64.346 22.1224C64.1228 22.141 63.8836 22.1359 63.5597 22.1277L63.5088 24.127C63.8109 24.1347 64.1613 24.1447 64.5121 24.1155L64.346 22.1224ZM64.7047 21.8103C64.6956 21.9827 64.5842 22.1096 64.3778 22.1202L64.4803 24.1176C65.6938 24.0554 66.6382 23.1265 66.7019 21.9154L64.7047 21.8103ZM64.5099 21.4698C64.5315 21.4728 64.5769 21.4874 64.6279 21.557C64.6826 21.6317 64.7094 21.7273 64.7049 21.8058L66.7017 21.9199C66.7619 20.8669 66.0537 19.6651 64.7851 19.4889L64.5099 21.4698ZM63.6083 21.4666C63.9829 21.4541 64.273 21.4459 64.5446 21.474L64.7504 19.4847C64.3194 19.4401 63.8908 19.456 63.5414 19.4677L63.6083 21.4666ZM63.0273 21.4793C63.2296 21.4793 63.429 21.4726 63.6082 21.4666L63.5414 19.4677C63.3566 19.4739 63.1906 19.4793 63.0273 19.4793V21.4793Z" fill="white" mask="url(#path-2-inside-1_7002_5899)"/>
</g>
</g>
<defs>
<filter id="filter0_f_7002_5899" x="-0.703125" y="-1" width="67.4084" height="32.0234" filterUnits="userSpaceOnUse" color-interpolation-filters="sRGB">
<feFlood flood-opacity="0" result="BackgroundImageFix"/>
<feBlend mode="normal" in="SourceGraphic" in2="BackgroundImageFix" result="shape"/>
<feGaussianBlur stdDeviation="0.5" result="effect1_foregroundBlur_7002_5899"/>
</filter>
<clipPath id="clip0_7002_5899">
<rect width="65.4066" height="30" fill="white" transform="translate(0.296875)"/>
</clipPath>
</defs>
</svg>
