<svg width="44" height="44" viewBox="0 0 44 44" fill="none" xmlns="http://www.w3.org/2000/svg">
<path d="M0 17.6C0 11.4394 0 8.35913 1.19893 6.0061C2.25354 3.93632 3.93632 2.25354 6.0061 1.19893C8.35913 0 11.4394 0 17.6 0H26.4C32.5606 0 35.6409 0 37.9939 1.19893C40.0637 2.25354 41.7465 3.93632 42.8011 6.0061C44 8.35913 44 11.4394 44 17.6V26.4C44 32.5606 44 35.6409 42.8011 37.9939C41.7465 40.0637 40.0637 41.7465 37.9939 42.8011C35.6409 44 32.5606 44 26.4 44H17.6C11.4394 44 8.35913 44 6.0061 42.8011C3.93632 41.7465 2.25354 40.0637 1.19893 37.9939C0 35.6409 0 32.5606 0 26.4V17.6Z" fill="white" fill-opacity="0.06" style="mix-blend-mode:lighten"/>
<path d="M0 17.6C0 11.4394 0 8.35913 1.19893 6.0061C2.25354 3.93632 3.93632 2.25354 6.0061 1.19893C8.35913 0 11.4394 0 17.6 0H26.4C32.5606 0 35.6409 0 37.9939 1.19893C40.0637 2.25354 41.7465 3.93632 42.8011 6.0061C44 8.35913 44 11.4394 44 17.6V26.4C44 32.5606 44 35.6409 42.8011 37.9939C41.7465 40.0637 40.0637 41.7465 37.9939 42.8011C35.6409 44 32.5606 44 26.4 44H17.6C11.4394 44 8.35913 44 6.0061 42.8011C3.93632 41.7465 2.25354 40.0637 1.19893 37.9939C0 35.6409 0 32.5606 0 26.4V17.6Z" fill="#808080" fill-opacity="0.18" style="mix-blend-mode:color-dodge"/>
<path d="M0 17.6C0 11.4394 0 8.35913 1.19893 6.0061C2.25354 3.93632 3.93632 2.25354 6.0061 1.19893C8.35913 0 11.4394 0 17.6 0H26.4C32.5606 0 35.6409 0 37.9939 1.19893C40.0637 2.25354 41.7465 3.93632 42.8011 6.0061C44 8.35913 44 11.4394 44 17.6V26.4C44 32.5606 44 35.6409 42.8011 37.9939C41.7465 40.0637 40.0637 41.7465 37.9939 42.8011C35.6409 44 32.5606 44 26.4 44H17.6C11.4394 44 8.35913 44 6.0061 42.8011C3.93632 41.7465 2.25354 40.0637 1.19893 37.9939C0 35.6409 0 32.5606 0 26.4V17.6Z" fill="url(#paint0_radial_8009_5167)"/>
<path d="M0 17.6C0 11.4394 0 8.35913 1.19893 6.0061C2.25354 3.93632 3.93632 2.25354 6.0061 1.19893C8.35913 0 11.4394 0 17.6 0H26.4C32.5606 0 35.6409 0 37.9939 1.19893C40.0637 2.25354 41.7465 3.93632 42.8011 6.0061C44 8.35913 44 11.4394 44 17.6V26.4C44 32.5606 44 35.6409 42.8011 37.9939C41.7465 40.0637 40.0637 41.7465 37.9939 42.8011C35.6409 44 32.5606 44 26.4 44H17.6C11.4394 44 8.35913 44 6.0061 42.8011C3.93632 41.7465 2.25354 40.0637 1.19893 37.9939C0 35.6409 0 32.5606 0 26.4V17.6Z" fill="url(#paint1_radial_8009_5167)" style="mix-blend-mode:color-dodge"/>
<g clip-path="url(#clip0_8009_5167)">
<path d="M30.5 18.4583V19.1667H13.5V18.4583C13.5 16.5026 15.086 14.9167 17.0417 14.9167H17.75V14.2083C17.75 13.8173 18.0673 13.5 18.4583 13.5C18.8493 13.5 19.1667 13.8173 19.1667 14.2083V14.9167H24.8333V14.2083C24.8333 13.8173 25.1507 13.5 25.5417 13.5C25.9327 13.5 26.25 13.8173 26.25 14.2083V14.9167H26.9583C28.914 14.9167 30.5 16.5026 30.5 18.4583ZM30.5 25.5417C30.5 28.2758 28.2751 30.5 25.5417 30.5C22.8082 30.5 20.5833 28.2758 20.5833 25.5417C20.5833 22.8075 22.8082 20.5833 25.5417 20.5833C28.2751 20.5833 30.5 22.8075 30.5 25.5417ZM26.9583 25.9567L26.25 25.2484V24.125C26.25 23.734 25.9327 23.4167 25.5417 23.4167C25.1507 23.4167 24.8333 23.734 24.8333 24.125V25.5417C24.8333 25.7294 24.9077 25.91 25.0409 26.0425L25.9567 26.9583C26.233 27.2346 26.6821 27.2346 26.9583 26.9583C27.2346 26.6821 27.2346 26.233 26.9583 25.9567ZM19.1667 25.5417C19.1667 23.5378 20.0932 21.7521 21.5389 20.5833H13.5V26.9583C13.5 28.914 15.086 30.5 17.0417 30.5H21.5389C20.0932 29.3312 19.1667 27.5455 19.1667 25.5417Z" fill="white"/>
</g>
<defs>
<radialGradient id="paint0_radial_8009_5167" cx="0" cy="0" r="1" gradientUnits="userSpaceOnUse" gradientTransform="translate(22 44) rotate(-90) scale(72.2857 22)">
<stop stop-color="white" stop-opacity="0.07"/>
<stop offset="0.603261" stop-color="white" stop-opacity="0"/>
</radialGradient>
<radialGradient id="paint1_radial_8009_5167" cx="0" cy="0" r="1" gradientUnits="userSpaceOnUse" gradientTransform="translate(22 44) rotate(-90) scale(60.1071 15.0135)">
<stop stop-color="#5E5E5E" stop-opacity="0.14"/>
<stop offset="0.738467" stop-color="#5E5E5E" stop-opacity="0"/>
</radialGradient>
<clipPath id="clip0_8009_5167">
<rect width="17" height="17" fill="white" transform="translate(13.5 13.5)"/>
</clipPath>
</defs>
</svg>
