<svg width="18" height="19" viewBox="0 0 18 19" fill="none" xmlns="http://www.w3.org/2000/svg">
<g clip-path="url(#clip0_7378_8380)">
<path d="M11.1173 9.281C11.1564 9.30241 11.1889 9.33415 11.2113 9.37276C11.2336 9.41138 11.2449 9.45539 11.244 9.5C11.2463 9.53805 11.2393 9.57609 11.2236 9.61084C11.2079 9.64559 11.184 9.67601 11.154 9.6995L7.125 11.7155C7.08663 11.7367 7.0434 11.7476 6.99956 11.747C6.95572 11.7465 6.91278 11.7345 6.87496 11.7124C6.83713 11.6902 6.80572 11.6586 6.78382 11.6206C6.76191 11.5826 6.75025 11.5396 6.75 11.4958V7.50425C6.74915 7.45975 6.76043 7.41586 6.78263 7.37728C6.80483 7.3387 6.8371 7.30688 6.876 7.28525C6.91181 7.2646 6.95242 7.25373 6.99375 7.25375C7.05422 7.25553 7.11318 7.27311 7.16475 7.30475L11.1173 9.281ZM18 4.25V14.75C17.9988 15.7442 17.6033 16.6973 16.9003 17.4003C16.1973 18.1033 15.2442 18.4988 14.25 18.5H3.75C2.7558 18.4988 1.80267 18.1033 1.09966 17.4003C0.396661 16.6973 0.00119089 15.7442 0 14.75L0 4.25C0.00119089 3.2558 0.396661 2.30267 1.09966 1.59966C1.80267 0.896661 2.7558 0.501191 3.75 0.5L14.25 0.5C15.2442 0.501191 16.1973 0.896661 16.9003 1.59966C17.6033 2.30267 17.9988 3.2558 18 4.25ZM12.744 9.5C12.7443 9.184 12.6589 8.87382 12.497 8.60244C12.3351 8.33107 12.1027 8.10862 11.8245 7.95875L7.866 5.9825C7.59937 5.82953 7.29721 5.74936 6.98982 5.75005C6.68243 5.75074 6.38062 5.83226 6.11469 5.98643C5.84875 6.1406 5.62804 6.36199 5.47469 6.6284C5.32134 6.89481 5.24075 7.19686 5.241 7.50425V11.4958C5.2392 11.8031 5.31908 12.1054 5.47247 12.3717C5.62586 12.638 5.84726 12.8588 6.114 13.0115C6.38401 13.1691 6.69085 13.2527 7.0035 13.2537C7.29275 13.2551 7.57725 13.1803 7.8285 13.037L11.8605 11.0218C12.1301 10.8699 12.3542 10.6488 12.5095 10.3812C12.6649 10.1136 12.7458 9.80939 12.744 9.5Z" fill="white"/>
</g>
<defs>
<clipPath id="clip0_7378_8380">
<rect width="18" height="18" fill="white" transform="translate(0 0.5)"/>
</clipPath>
</defs>
</svg>
