<svg xmlns="http://www.w3.org/2000/svg" width="17" height="16" viewBox="0 0 17 16" fill="none">
<path d="M14.494 2.66666H12.4274C12.1084 1.11572 10.7441 0.002 9.16071 0H7.82736C6.24395 0.002 4.87964 1.11572 4.5607 2.66666H2.49405C2.12586 2.66666 1.82739 2.96513 1.82739 3.33331C1.82739 3.7015 2.12586 4 2.49405 4H3.16071V12.6667C3.16292 14.5067 4.65402 15.9978 6.49405 16H10.494C12.3341 15.9978 13.8252 14.5067 13.8274 12.6667V4H14.494C14.8622 4 15.1607 3.70153 15.1607 3.33334C15.1607 2.96516 14.8622 2.66666 14.494 2.66666ZM7.82739 11.3333C7.82739 11.7015 7.52892 12 7.16074 12C6.79252 12 6.49405 11.7015 6.49405 11.3333V7.33334C6.49405 6.96516 6.79252 6.66669 7.1607 6.66669C7.52889 6.66669 7.82736 6.96516 7.82736 7.33334V11.3333H7.82739ZM10.494 11.3333C10.494 11.7015 10.1956 12 9.82739 12C9.45921 12 9.16074 11.7015 9.16074 11.3333V7.33334C9.16074 6.96516 9.45921 6.66669 9.82739 6.66669C10.1956 6.66669 10.494 6.96516 10.494 7.33334V11.3333ZM5.94139 2.66666C6.22496 1.86819 6.98008 1.33434 7.82739 1.33331H9.16074C10.008 1.33434 10.7632 1.86819 11.0467 2.66666H5.94139Z" fill="white"/>
</svg>