<svg xmlns="http://www.w3.org/2000/svg" width="17" height="16" viewBox="0 0 17 16" fill="none">
<path d="M14.4942 2.66666H12.4275C12.1085 1.11572 10.7442 0.002 9.16083 0H7.82748C6.24408 0.002 4.87976 1.11572 4.56083 2.66666H2.49417C2.12598 2.66666 1.82751 2.96513 1.82751 3.33331C1.82751 3.7015 2.12598 4 2.49417 4H3.16083V12.6667C3.16305 14.5067 4.65414 15.9978 6.49417 16H10.4942C12.3342 15.9978 13.8253 14.5067 13.8275 12.6667V4H14.4942C14.8624 4 15.1608 3.70153 15.1608 3.33334C15.1608 2.96516 14.8624 2.66666 14.4942 2.66666ZM7.82751 11.3333C7.82751 11.7015 7.52905 12 7.16086 12C6.79264 12 6.49417 11.7015 6.49417 11.3333V7.33334C6.49417 6.96516 6.79264 6.66669 7.16083 6.66669C7.52901 6.66669 7.82748 6.96516 7.82748 7.33334V11.3333H7.82751ZM10.4942 11.3333C10.4942 11.7015 10.1957 12 9.82751 12C9.45933 12 9.16086 11.7015 9.16086 11.3333V7.33334C9.16086 6.96516 9.45933 6.66669 9.82751 6.66669C10.1957 6.66669 10.4942 6.96516 10.4942 7.33334V11.3333ZM5.94151 2.66666C6.22508 1.86819 6.9802 1.33434 7.82751 1.33331H9.16086C10.0082 1.33434 10.7633 1.86819 11.0469 2.66666H5.94151Z" fill="white" fill-opacity="0.5"/>
</svg>