<svg width="18" height="19" viewBox="0 0 18 19" fill="none" xmlns="http://www.w3.org/2000/svg">
<g clip-path="url(#clip0_5008_10410)">
<path d="M17.0302 10.8448L15.5947 9.40925C15.1702 8.984 14.6047 8.75 14.0032 8.75H9.74996V7.25H14.625C15.6585 7.25 16.5 6.4085 16.5 5.375V3.875C16.5 2.8415 15.6585 2 14.625 2H9.74546L9.74996 1.2545C9.75221 0.83975 9.41846 0.50225 9.00371 0.5H8.99996C8.58746 0.5 8.25221 0.833 8.24996 1.2455L8.24546 2H3.99596C3.39521 2 2.82971 2.234 2.40446 2.65925L0.968961 4.09475C0.675711 4.388 0.675711 4.862 0.968961 5.15525L2.40446 6.59075C2.82896 7.016 3.39446 7.25 3.99596 7.25H8.24921V8.75H3.37421C2.34071 8.75 1.49921 9.5915 1.49921 10.625V12.125C1.49921 13.1585 2.34071 14 3.37421 14H8.24246L8.24921 17.7515C8.24921 18.1655 8.58596 18.5 8.99921 18.5H9.00071C9.41471 18.5 9.74996 18.1625 9.74921 17.7485L9.74246 14H14.0032C14.604 14 15.1695 13.766 15.5947 13.3407L17.0302 11.9052C17.3235 11.612 17.3235 11.138 17.0302 10.8448Z" fill="white" fill-opacity="0.96"/>
</g>
<defs>
<clipPath id="clip0_5008_10410">
<rect width="18" height="18" fill="white" transform="translate(0 0.5)"/>
</clipPath>
</defs>
</svg>
