<svg width="18" height="19" viewBox="0 0 18 19" fill="none" xmlns="http://www.w3.org/2000/svg">
<g clip-path="url(#clip0_485_18528)">
<path fill-rule="evenodd" clip-rule="evenodd" d="M3.75001 0.5H14.25C16.32 0.502496 17.9975 2.17998 18 4.25001V14.75C17.9975 16.82 16.32 18.4975 14.25 18.5H3.75001C1.67998 18.4975 0.00249609 16.82 0 14.75V4.25001C0.00249609 2.17998 1.67998 0.502496 3.75001 0.5ZM11.4697 13.0303L12.5302 11.9698L10.0605 9.50001L12.5302 7.03026L11.4697 5.96976L8.99998 8.43951L6.53023 5.96976L5.46973 7.03026L7.93948 9.50001L5.46973 11.9698L6.53023 13.0303L8.99998 10.5605L11.4697 13.0303Z" fill="white" fill-opacity="0.23" style="mix-blend-mode:lighten"/>
<path fill-rule="evenodd" clip-rule="evenodd" d="M3.75001 0.5H14.25C16.32 0.502496 17.9975 2.17998 18 4.25001V14.75C17.9975 16.82 16.32 18.4975 14.25 18.5H3.75001C1.67998 18.4975 0.00249609 16.82 0 14.75V4.25001C0.00249609 2.17998 1.67998 0.502496 3.75001 0.5ZM11.4697 13.0303L12.5302 11.9698L10.0605 9.50001L12.5302 7.03026L11.4697 5.96976L8.99998 8.43951L6.53023 5.96976L5.46973 7.03026L7.93948 9.50001L5.46973 11.9698L6.53023 13.0303L8.99998 10.5605L11.4697 13.0303Z" fill="#545454" style="mix-blend-mode:color-dodge"/>
</g>
<defs>
<clipPath id="clip0_485_18528">
<rect width="18" height="18" fill="white" transform="translate(0 0.5)"/>
</clipPath>
</defs>
</svg>
