<svg width="16" height="17" viewBox="0 0 16 17" fill="none" xmlns="http://www.w3.org/2000/svg">
<g clip-path="url(#clip0_7449_3109)">
<path d="M10.6667 0.5H5.33333C3.49533 0.5 2 1.99533 2 3.83333V13.1667C2 15.0047 3.49533 16.5 5.33333 16.5H6C6.368 16.5 6.66667 16.2013 6.66667 15.8333V12.5H6C5.632 12.5 5.33333 12.2013 5.33333 11.8333C5.33333 11.4653 5.632 11.1667 6 11.1667H10C10.368 11.1667 10.6667 11.4653 10.6667 11.8333C10.6667 12.2013 10.368 12.5 10 12.5H9.33333V15.8333C9.33333 16.2013 9.632 16.5 10 16.5H10.6667C12.5047 16.5 14 15.0047 14 13.1667V3.83333C14 1.99533 12.5047 0.5 10.6667 0.5ZM6.66667 9.83333H6C5.632 9.83333 5.33333 9.53467 5.33333 9.16667C5.33333 8.79867 5.632 8.5 6 8.5H6.66667C7.03467 8.5 7.33333 8.79867 7.33333 9.16667C7.33333 9.53467 7.03467 9.83333 6.66667 9.83333ZM6.66667 7.16667H6C5.632 7.16667 5.33333 6.868 5.33333 6.5C5.33333 6.132 5.632 5.83333 6 5.83333H6.66667C7.03467 5.83333 7.33333 6.132 7.33333 6.5C7.33333 6.868 7.03467 7.16667 6.66667 7.16667ZM6.66667 4.5H6C5.632 4.5 5.33333 4.20133 5.33333 3.83333C5.33333 3.46533 5.632 3.16667 6 3.16667H6.66667C7.03467 3.16667 7.33333 3.46533 7.33333 3.83333C7.33333 4.20133 7.03467 4.5 6.66667 4.5ZM10 9.83333H9.33333C8.96533 9.83333 8.66667 9.53467 8.66667 9.16667C8.66667 8.79867 8.96533 8.5 9.33333 8.5H10C10.368 8.5 10.6667 8.79867 10.6667 9.16667C10.6667 9.53467 10.368 9.83333 10 9.83333ZM10 7.16667H9.33333C8.96533 7.16667 8.66667 6.868 8.66667 6.5C8.66667 6.132 8.96533 5.83333 9.33333 5.83333H10C10.368 5.83333 10.6667 6.132 10.6667 6.5C10.6667 6.868 10.368 7.16667 10 7.16667ZM10 4.5H9.33333C8.96533 4.5 8.66667 4.20133 8.66667 3.83333C8.66667 3.46533 8.96533 3.16667 9.33333 3.16667H10C10.368 3.16667 10.6667 3.46533 10.6667 3.83333C10.6667 4.20133 10.368 4.5 10 4.5Z" fill="white" fill-opacity="0.23" style="mix-blend-mode:lighten"/>
<path d="M10.6667 0.5H5.33333C3.49533 0.5 2 1.99533 2 3.83333V13.1667C2 15.0047 3.49533 16.5 5.33333 16.5H6C6.368 16.5 6.66667 16.2013 6.66667 15.8333V12.5H6C5.632 12.5 5.33333 12.2013 5.33333 11.8333C5.33333 11.4653 5.632 11.1667 6 11.1667H10C10.368 11.1667 10.6667 11.4653 10.6667 11.8333C10.6667 12.2013 10.368 12.5 10 12.5H9.33333V15.8333C9.33333 16.2013 9.632 16.5 10 16.5H10.6667C12.5047 16.5 14 15.0047 14 13.1667V3.83333C14 1.99533 12.5047 0.5 10.6667 0.5ZM6.66667 9.83333H6C5.632 9.83333 5.33333 9.53467 5.33333 9.16667C5.33333 8.79867 5.632 8.5 6 8.5H6.66667C7.03467 8.5 7.33333 8.79867 7.33333 9.16667C7.33333 9.53467 7.03467 9.83333 6.66667 9.83333ZM6.66667 7.16667H6C5.632 7.16667 5.33333 6.868 5.33333 6.5C5.33333 6.132 5.632 5.83333 6 5.83333H6.66667C7.03467 5.83333 7.33333 6.132 7.33333 6.5C7.33333 6.868 7.03467 7.16667 6.66667 7.16667ZM6.66667 4.5H6C5.632 4.5 5.33333 4.20133 5.33333 3.83333C5.33333 3.46533 5.632 3.16667 6 3.16667H6.66667C7.03467 3.16667 7.33333 3.46533 7.33333 3.83333C7.33333 4.20133 7.03467 4.5 6.66667 4.5ZM10 9.83333H9.33333C8.96533 9.83333 8.66667 9.53467 8.66667 9.16667C8.66667 8.79867 8.96533 8.5 9.33333 8.5H10C10.368 8.5 10.6667 8.79867 10.6667 9.16667C10.6667 9.53467 10.368 9.83333 10 9.83333ZM10 7.16667H9.33333C8.96533 7.16667 8.66667 6.868 8.66667 6.5C8.66667 6.132 8.96533 5.83333 9.33333 5.83333H10C10.368 5.83333 10.6667 6.132 10.6667 6.5C10.6667 6.868 10.368 7.16667 10 7.16667ZM10 4.5H9.33333C8.96533 4.5 8.66667 4.20133 8.66667 3.83333C8.66667 3.46533 8.96533 3.16667 9.33333 3.16667H10C10.368 3.16667 10.6667 3.46533 10.6667 3.83333C10.6667 4.20133 10.368 4.5 10 4.5Z" fill="#a3a0a1" style="mix-blend-mode:color-dodge"/>
</g>
<defs>
<clipPath id="clip0_7449_3109">
<rect width="16" height="16" fill="white" transform="translate(0 0.5)"/>
</clipPath>
</defs>
</svg>
