<svg width="44" height="44" viewBox="0 0 44 44" fill="none" xmlns="http://www.w3.org/2000/svg">
<path d="M0 17.6C0 11.4394 0 8.35913 1.19893 6.0061C2.25354 3.93632 3.93632 2.25354 6.0061 1.19893C8.35913 0 11.4394 0 17.6 0H26.4C32.5606 0 35.6409 0 37.9939 1.19893C40.0637 2.25354 41.7465 3.93632 42.8011 6.0061C44 8.35913 44 11.4394 44 17.6V26.4C44 32.5606 44 35.6409 42.8011 37.9939C41.7465 40.0637 40.0637 41.7465 37.9939 42.8011C35.6409 44 32.5606 44 26.4 44H17.6C11.4394 44 8.35913 44 6.0061 42.8011C3.93632 41.7465 2.25354 40.0637 1.19893 37.9939C0 35.6409 0 32.5606 0 26.4V17.6Z" fill="white" fill-opacity="0.06" style="mix-blend-mode:lighten"/>
<path d="M0 17.6C0 11.4394 0 8.35913 1.19893 6.0061C2.25354 3.93632 3.93632 2.25354 6.0061 1.19893C8.35913 0 11.4394 0 17.6 0H26.4C32.5606 0 35.6409 0 37.9939 1.19893C40.0637 2.25354 41.7465 3.93632 42.8011 6.0061C44 8.35913 44 11.4394 44 17.6V26.4C44 32.5606 44 35.6409 42.8011 37.9939C41.7465 40.0637 40.0637 41.7465 37.9939 42.8011C35.6409 44 32.5606 44 26.4 44H17.6C11.4394 44 8.35913 44 6.0061 42.8011C3.93632 41.7465 2.25354 40.0637 1.19893 37.9939C0 35.6409 0 32.5606 0 26.4V17.6Z" fill="#808080" fill-opacity="0.18" style="mix-blend-mode:color-dodge"/>
<path d="M0 17.6C0 11.4394 0 8.35913 1.19893 6.0061C2.25354 3.93632 3.93632 2.25354 6.0061 1.19893C8.35913 0 11.4394 0 17.6 0H26.4C32.5606 0 35.6409 0 37.9939 1.19893C40.0637 2.25354 41.7465 3.93632 42.8011 6.0061C44 8.35913 44 11.4394 44 17.6V26.4C44 32.5606 44 35.6409 42.8011 37.9939C41.7465 40.0637 40.0637 41.7465 37.9939 42.8011C35.6409 44 32.5606 44 26.4 44H17.6C11.4394 44 8.35913 44 6.0061 42.8011C3.93632 41.7465 2.25354 40.0637 1.19893 37.9939C0 35.6409 0 32.5606 0 26.4V17.6Z" fill="url(#paint0_radial_8009_5161)"/>
<path d="M0 17.6C0 11.4394 0 8.35913 1.19893 6.0061C2.25354 3.93632 3.93632 2.25354 6.0061 1.19893C8.35913 0 11.4394 0 17.6 0H26.4C32.5606 0 35.6409 0 37.9939 1.19893C40.0637 2.25354 41.7465 3.93632 42.8011 6.0061C44 8.35913 44 11.4394 44 17.6V26.4C44 32.5606 44 35.6409 42.8011 37.9939C41.7465 40.0637 40.0637 41.7465 37.9939 42.8011C35.6409 44 32.5606 44 26.4 44H17.6C11.4394 44 8.35913 44 6.0061 42.8011C3.93632 41.7465 2.25354 40.0637 1.19893 37.9939C0 35.6409 0 32.5606 0 26.4V17.6Z" fill="url(#paint1_radial_8009_5161)" style="mix-blend-mode:color-dodge"/>
<path d="M23.7 17.75V12.191C24.4863 12.4879 25.2005 12.9486 25.7953 13.5425L28.7566 16.5056C29.3512 17.0996 29.8122 17.8136 30.109 18.6H24.55C24.3246 18.6 24.1084 18.5104 23.949 18.351C23.7896 18.1916 23.7 17.9754 23.7 17.75ZM30.5 20.7122V27.95C30.4987 29.0767 30.0505 30.157 29.2537 30.9537C28.457 31.7504 27.3768 32.1986 26.25 32.2H17.75C16.6232 32.1986 15.543 31.7504 14.7463 30.9537C13.9495 30.157 13.5013 29.0767 13.5 27.95V16.05C13.5013 14.9232 13.9495 13.843 14.7463 13.0463C15.543 12.2495 16.6232 11.8013 17.75 11.8H21.5878C21.7263 11.8 21.8632 11.811 22 11.8204V17.75C22 18.4263 22.2687 19.0749 22.7469 19.5531C23.2251 20.0313 23.8737 20.3 24.55 20.3H30.4796C30.489 20.4368 30.5 20.5737 30.5 20.7122ZM23.7 27.95C23.7 27.7245 23.6104 27.5083 23.451 27.3489C23.2916 27.1895 23.0754 27.1 22.85 27.1H18.6C18.3746 27.1 18.1584 27.1895 17.999 27.3489C17.8396 27.5083 17.75 27.7245 17.75 27.95C17.75 28.1754 17.8396 28.3916 17.999 28.551C18.1584 28.7104 18.3746 28.8 18.6 28.8H22.85C23.0754 28.8 23.2916 28.7104 23.451 28.551C23.6104 28.3916 23.7 28.1754 23.7 27.95ZM26.25 24.55C26.25 24.3245 26.1604 24.1083 26.001 23.9489C25.8416 23.7895 25.6254 23.7 25.4 23.7H18.6C18.3746 23.7 18.1584 23.7895 17.999 23.9489C17.8396 24.1083 17.75 24.3245 17.75 24.55C17.75 24.7754 17.8396 24.9916 17.999 25.151C18.1584 25.3104 18.3746 25.4 18.6 25.4H25.4C25.6254 25.4 25.8416 25.3104 26.001 25.151C26.1604 24.9916 26.25 24.7754 26.25 24.55Z" fill="white"/>
<defs>
<radialGradient id="paint0_radial_8009_5161" cx="0" cy="0" r="1" gradientUnits="userSpaceOnUse" gradientTransform="translate(22 44) rotate(-90) scale(72.2857 22)">
<stop stop-color="white" stop-opacity="0.07"/>
<stop offset="0.603261" stop-color="white" stop-opacity="0"/>
</radialGradient>
<radialGradient id="paint1_radial_8009_5161" cx="0" cy="0" r="1" gradientUnits="userSpaceOnUse" gradientTransform="translate(22 44) rotate(-90) scale(60.1071 15.0135)">
<stop stop-color="#5E5E5E" stop-opacity="0.14"/>
<stop offset="0.738467" stop-color="#5E5E5E" stop-opacity="0"/>
</radialGradient>
</defs>
</svg>
