<svg xmlns="http://www.w3.org/2000/svg" width="17" height="16" viewBox="0 0 17 16" fill="none">
<g clip-path="url(#clip0_205_31860)">
<path d="M9.16081 2.66667H7.82747C7.09214 2.66667 6.49414 2.06867 6.49414 1.33333C6.49414 0.598 7.09214 0 7.82747 0H9.16081C9.89614 0 10.4941 0.598 10.4941 1.33333C10.4941 2.06867 9.89614 2.66667 9.16081 2.66667ZM11.8268 1.4C11.7915 2.84 10.6088 4 9.16081 4H7.82747C6.37947 4 5.19681 2.84 5.16147 1.4C3.63947 1.70867 2.49414 3.054 2.49414 4.66667V12.6667C2.49414 14.5073 3.98681 16 5.82747 16H11.1608C13.0015 16 14.4941 14.5073 14.4941 12.6667V4.66667C14.4941 3.054 13.3488 1.70867 11.8268 1.4Z" fill="white"/>
</g>
<defs>
<clipPath id="clip0_205_31860">
<rect width="16" height="16" fill="white" transform="translate(0.494141)"/>
</clipPath>
</defs>
</svg>