<svg width="32" height="33" viewBox="0 0 32 33" fill="none" xmlns="http://www.w3.org/2000/svg">
<rect y="0.333984" width="32" height="32" rx="16" fill="white" fill-opacity="0.06" style="mix-blend-mode:lighten"/>
<rect y="0.333984" width="32" height="32" rx="16" fill="#5E5E5E" fill-opacity="0.18" style="mix-blend-mode:color-dodge"/>
<path fill-rule="evenodd" clip-rule="evenodd" d="M8 12.8158C8 10.3406 10.0066 8.33398 12.4818 8.33398H13.6984V10.3326H12.4818C11.1104 10.3326 9.99864 11.4444 9.99864 12.8158V19.8522C9.99864 21.2236 11.1104 22.3353 12.4818 22.3353H19.3142C20.6856 22.3353 21.7974 21.2236 21.7974 19.8522V18.5489H23.796V19.8522C23.796 22.3274 21.7894 24.334 19.3142 24.334H12.4818C10.0066 24.334 8 22.3274 8 19.8522V12.8158Z" fill="white"/>
<path d="M22.6841 13.2299C21.6978 13.5441 20.8521 13.6087 20.184 13.5778L23.4995 10.2622C23.8938 9.86862 23.8938 9.22879 23.4995 8.8352C23.1053 8.44094 22.4668 8.44094 22.0725 8.8352L18.7576 12.1501C18.726 11.4813 18.7913 10.6356 19.1048 9.64996C19.2737 9.11912 18.9796 8.55128 18.4488 8.38241C17.9166 8.21286 17.3501 8.50687 17.1806 9.03771C16.1566 12.253 17.2008 14.515 17.2458 14.6099C17.3454 14.8198 17.515 14.9886 17.7255 15.0882C17.7895 15.1185 18.8336 15.6016 20.4914 15.6016C21.2961 15.6016 22.2454 15.4879 23.2963 15.1528C23.8272 14.9839 24.1212 14.4161 23.9523 13.8852C23.7821 13.3544 23.2163 13.059 22.6841 13.2299Z" fill="white"/>
</svg>
