<svg width="33" height="32" viewBox="0 0 33 32" fill="none" xmlns="http://www.w3.org/2000/svg">
<rect x="0.75" width="32" height="32" rx="16" fill="white" fill-opacity="0.06" style="mix-blend-mode:lighten"/>
<rect x="0.75" width="32" height="32" rx="16" fill="#5E5E5E" fill-opacity="0.18" style="mix-blend-mode:color-dodge"/>
<path fill-rule="evenodd" clip-rule="evenodd" d="M8.75 12.4818C8.75 10.0066 10.7566 8 13.2318 8H14.4484V9.99864H13.2318C11.8604 9.99864 10.7486 11.1104 10.7486 12.4818V19.5182C10.7486 20.8896 11.8604 22.0014 13.2318 22.0014H20.0642C21.4356 22.0014 22.5474 20.8896 22.5474 19.5182V18.2149H24.546V19.5182C24.546 21.9934 22.5394 24 20.0642 24H13.2318C10.7566 24 8.75 21.9934 8.75 19.5182V12.4818Z" fill="white"/>
<path d="M18.7983 10.3716C19.7847 10.0574 20.6304 9.99284 21.2985 10.0238L17.9829 13.3393C17.5886 13.7329 17.5886 14.3728 17.9829 14.7664C18.3772 15.1606 19.0156 15.1606 19.4099 14.7664L22.7248 11.4515C22.7564 12.1202 22.6912 12.9659 22.3776 13.9516C22.2088 14.4824 22.5028 15.0503 23.0336 15.2192C23.5658 15.3887 24.1323 15.0947 24.3018 14.5638C25.3258 11.3485 24.2817 9.08657 24.2366 8.99171C24.137 8.78179 23.9675 8.61292 23.7569 8.51335C23.693 8.48307 22.6488 8 20.991 8C20.1863 8 19.237 8.1137 18.1861 8.44876C17.6552 8.61763 17.3612 9.18548 17.5301 9.71632C17.7003 10.2472 18.2661 10.5425 18.7983 10.3716Z" fill="white"/>
</svg>
