<svg width="32" height="32" viewBox="0 0 32 32" fill="none" xmlns="http://www.w3.org/2000/svg">
<rect width="32" height="32" rx="16" fill="white" fill-opacity="0.06" style="mix-blend-mode:lighten"/>
<rect width="32" height="32" rx="16" fill="#5E5E5E" fill-opacity="0.18" style="mix-blend-mode:color-dodge"/>
<g clip-path="url(#clip0_5343_1456)">
<path d="M20 16C20 13.794 18.206 12 16 12C13.794 12 12 13.794 12 16C12 18.206 13.794 20 16 20C18.206 20 20 18.206 20 16ZM13.3333 23.3333C13.3333 23.702 13.0353 24 12.6667 24H11.3333C9.49533 24 8 22.5047 8 20.6667V19.3333C8 18.9647 8.298 18.6667 8.66667 18.6667C9.03533 18.6667 9.33333 18.9647 9.33333 19.3333V20.6667C9.33333 21.7693 10.2307 22.6667 11.3333 22.6667H12.6667C13.0353 22.6667 13.3333 22.9647 13.3333 23.3333ZM24 19.3333V20.6667C24 22.5047 22.5047 24 20.6667 24H19.3333C18.9647 24 18.6667 23.702 18.6667 23.3333C18.6667 22.9647 18.9647 22.6667 19.3333 22.6667H20.6667C21.7693 22.6667 22.6667 21.7693 22.6667 20.6667V19.3333C22.6667 18.9647 22.9647 18.6667 23.3333 18.6667C23.702 18.6667 24 18.9647 24 19.3333ZM24 11.3333V12.6667C24 13.0353 23.702 13.3333 23.3333 13.3333C22.9647 13.3333 22.6667 13.0353 22.6667 12.6667V11.3333C22.6667 10.2307 21.7693 9.33333 20.6667 9.33333H19.3333C18.9647 9.33333 18.6667 9.03533 18.6667 8.66667C18.6667 8.298 18.9647 8 19.3333 8H20.6667C22.5047 8 24 9.49533 24 11.3333ZM8 12.6667V11.3333C8 9.49533 9.49533 8 11.3333 8H12.6667C13.0353 8 13.3333 8.298 13.3333 8.66667C13.3333 9.03533 13.0353 9.33333 12.6667 9.33333H11.3333C10.2307 9.33333 9.33333 10.2307 9.33333 11.3333V12.6667C9.33333 13.0353 9.03533 13.3333 8.66667 13.3333C8.298 13.3333 8 13.0353 8 12.6667Z" fill="white"/>
</g>
<defs>
<clipPath id="clip0_5343_1456">
<rect width="16" height="16" fill="white" transform="translate(8 8)"/>
</clipPath>
</defs>
</svg>
