<svg width="10" height="17" viewBox="0 0 10 17" fill="none" xmlns="http://www.w3.org/2000/svg">
<path d="M4 14.334C4 15.434 3.1 16.334 2 16.334C0.9 16.334 0 15.434 0 14.334C0 13.234 0.9 12.334 2 12.334C3.1 12.334 4 13.234 4 14.334ZM2 6.33398C0.9 6.33398 0 7.23398 0 8.33398C0 9.43398 0.9 10.334 2 10.334C3.1 10.334 4 9.43398 4 8.33398C4 7.23398 3.1 6.33398 2 6.33398ZM2 0.333984C0.9 0.333984 0 1.23398 0 2.33398C0 3.43398 0.9 4.33398 2 4.33398C3.1 4.33398 4 3.43398 4 2.33398C4 1.23398 3.1 0.333984 2 0.333984ZM8 4.33398C9.1 4.33398 10 3.43398 10 2.33398C10 1.23398 9.1 0.333984 8 0.333984C6.9 0.333984 6 1.23398 6 2.33398C6 3.43398 6.9 4.33398 8 4.33398ZM8 6.33398C6.9 6.33398 6 7.23398 6 8.33398C6 9.43398 6.9 10.334 8 10.334C9.1 10.334 10 9.43398 10 8.33398C10 7.23398 9.1 6.33398 8 6.33398ZM8 12.334C6.9 12.334 6 13.234 6 14.334C6 15.434 6.9 16.334 8 16.334C9.1 16.334 10 15.434 10 14.334C10 13.234 9.1 12.334 8 12.334Z" fill="white" fill-opacity="0.5"/>
</svg>
