<svg width="18" height="11" viewBox="0 0 18 11" fill="none" xmlns="http://www.w3.org/2000/svg">
<path d="M9.00928 10.3029C8.56396 10.3029 8.15576 10.1204 7.78467 9.75549L0.919434 2.73254C0.783366 2.59029 0.678223 2.43567 0.604004 2.26868C0.53597 2.0955 0.501953 1.90995 0.501953 1.71204C0.501953 1.43372 0.566895 1.18323 0.696777 0.960571C0.832845 0.73173 1.01221 0.552368 1.23486 0.422485C1.45752 0.286418 1.70492 0.218384 1.97705 0.218384C2.39144 0.218384 2.75635 0.376099 3.07178 0.691528L9.38965 7.19495H8.63818L14.9375 0.691528C15.2529 0.376099 15.6147 0.218384 16.0229 0.218384C16.2951 0.218384 16.5425 0.286418 16.7651 0.422485C16.9878 0.552368 17.1641 0.73173 17.2939 0.960571C17.43 1.18323 17.498 1.43372 17.498 1.71204C17.498 2.11405 17.3589 2.45422 17.0806 2.73254L10.2246 9.75549C10.0391 9.94104 9.84733 10.0771 9.64941 10.1637C9.4515 10.2503 9.23812 10.2967 9.00928 10.3029Z" fill="white" fill-opacity="0.23" style="mix-blend-mode:lighten"/>
<path d="M9.00928 10.3029C8.56396 10.3029 8.15576 10.1204 7.78467 9.75549L0.919434 2.73254C0.783366 2.59029 0.678223 2.43567 0.604004 2.26868C0.53597 2.0955 0.501953 1.90995 0.501953 1.71204C0.501953 1.43372 0.566895 1.18323 0.696777 0.960571C0.832845 0.73173 1.01221 0.552368 1.23486 0.422485C1.45752 0.286418 1.70492 0.218384 1.97705 0.218384C2.39144 0.218384 2.75635 0.376099 3.07178 0.691528L9.38965 7.19495H8.63818L14.9375 0.691528C15.2529 0.376099 15.6147 0.218384 16.0229 0.218384C16.2951 0.218384 16.5425 0.286418 16.7651 0.422485C16.9878 0.552368 17.1641 0.73173 17.2939 0.960571C17.43 1.18323 17.498 1.43372 17.498 1.71204C17.498 2.11405 17.3589 2.45422 17.0806 2.73254L10.2246 9.75549C10.0391 9.94104 9.84733 10.0771 9.64941 10.1637C9.4515 10.2503 9.23812 10.2967 9.00928 10.3029Z" fill="white" style="mix-blend-mode:color-dodge"/>
</svg>
