<svg width="18" height="19" viewBox="0 0 18 19" fill="none" xmlns="http://www.w3.org/2000/svg">
<g clip-path="url(#clip0_8815_19540)">
<path d="M18 17.6664C18 18.0804 17.664 18.4164 17.25 18.4164H0.75C0.336 18.4164 0 18.0804 0 17.6664C0 16.4237 1.00725 15.4164 2.25 15.4164H15.75C16.9928 15.4164 18 16.4237 18 17.6664ZM16.6583 5.06868L17.7833 3.93093C18.075 3.63618 18.072 3.16218 17.7773 2.87043C17.4818 2.57868 17.0078 2.58168 16.7168 2.87643L15.5918 4.01418C15.3 4.30893 15.303 4.78293 15.5978 5.07468C15.744 5.21868 15.9345 5.29143 16.125 5.29143C16.3185 5.29143 16.512 5.21718 16.6583 5.06868ZM13.791 2.63643L14.3738 1.51143C14.5643 1.14393 14.4203 0.690931 14.0528 0.500431C13.6868 0.309931 13.2323 0.452431 13.0418 0.821431L12.459 1.94643C12.2685 2.31393 12.4125 2.76693 12.78 2.95743C12.8895 3.01443 13.008 3.04143 13.1243 3.04143C13.395 3.04143 13.6575 2.89443 13.791 2.63643ZM2.40225 5.07468C2.697 4.78293 2.69925 4.30893 2.40825 4.01418L1.28325 2.87643C0.993 2.58168 0.51675 2.57943 0.22275 2.87043C-0.072 3.16218 -0.07425 3.63618 0.21675 3.93093L1.34175 5.06868C1.488 5.21718 1.6815 5.29143 1.875 5.29143C2.0655 5.29143 2.25675 5.21868 2.40225 5.07468ZM5.22 2.95743C5.5875 2.76693 5.7315 2.31468 5.541 1.94643L4.95825 0.821431C4.767 0.452431 4.31325 0.309931 3.94725 0.500431C3.57975 0.690931 3.43575 1.14318 3.62625 1.51143L4.209 2.63643C4.3425 2.89443 4.60425 3.04143 4.87575 3.04143C4.992 3.04143 5.10975 3.01443 5.22 2.95743ZM15.75 10.1664V13.1664C15.75 13.5812 15.4148 13.9164 15 13.9164H3C2.58525 13.9164 2.25 13.5812 2.25 13.1664V10.1664C2.25 6.44418 5.27775 3.41643 9 3.41643C12.7223 3.41643 15.75 6.44418 15.75 10.1664ZM9.75 7.91643C9.75 7.50168 9.41475 7.16643 9 7.16643C7.3455 7.16643 6 8.51193 6 10.1664C6 10.5812 6.33525 10.9164 6.75 10.9164C7.16475 10.9164 7.5 10.5812 7.5 10.1664C7.5 9.33918 8.17275 8.66643 9 8.66643C9.41475 8.66643 9.75 8.33118 9.75 7.91643Z" fill="#D9D9D9"/>
</g>
<defs>
<clipPath id="clip0_8815_19540">
<rect width="18" height="18" fill="white" transform="translate(0 0.416016)"/>
</clipPath>
</defs>
</svg>
