<svg width="19" height="19" viewBox="0 0 19 19" fill="none" xmlns="http://www.w3.org/2000/svg">
<g clip-path="url(#clip0_485_18525)">
<path d="M14.75 0.5H4.25001C2.17998 0.502496 0.502496 2.17998 0.5 4.25001V14.75C0.502496 16.82 2.17998 18.4975 4.25001 18.5H14.75C16.82 18.4975 18.4975 16.82 18.5 14.75V4.25001C18.4975 2.17998 16.82 0.502496 14.75 0.5ZM15.5 6.55925L8.5595 13.4998C7.97383 14.0857 7.02409 14.0859 6.43817 13.5002C6.43803 13.5 6.43789 13.4999 6.43775 13.4998L3.49999 10.5628C3.2065 10.2693 3.2065 9.79348 3.49999 9.50004C3.79347 9.20659 4.26928 9.20655 4.56273 9.50004L7.49971 12.437L14.441 5.49651C14.7344 5.20408 15.2094 5.20493 15.5018 5.49837C15.7943 5.79186 15.7935 6.26682 15.5 6.55925Z" fill="white" fill-opacity="0.23" style="mix-blend-mode:lighten"/>
<path d="M14.75 0.5H4.25001C2.17998 0.502496 0.502496 2.17998 0.5 4.25001V14.75C0.502496 16.82 2.17998 18.4975 4.25001 18.5H14.75C16.82 18.4975 18.4975 16.82 18.5 14.75V4.25001C18.4975 2.17998 16.82 0.502496 14.75 0.5ZM15.5 6.55925L8.5595 13.4998C7.97383 14.0857 7.02409 14.0859 6.43817 13.5002C6.43803 13.5 6.43789 13.4999 6.43775 13.4998L3.49999 10.5628C3.2065 10.2693 3.2065 9.79348 3.49999 9.50004C3.79347 9.20659 4.26928 9.20655 4.56273 9.50004L7.49971 12.437L14.441 5.49651C14.7344 5.20408 15.2094 5.20493 15.5018 5.49837C15.7943 5.79186 15.7935 6.26682 15.5 6.55925Z" fill="#545454" style="mix-blend-mode:color-dodge"/>
</g>
<defs>
<clipPath id="clip0_485_18525">
<rect width="18" height="18" fill="white" transform="translate(0.5 0.5)"/>
</clipPath>
</defs>
</svg>
