<svg width="16" height="17" viewBox="0 0 16 17" fill="none" xmlns="http://www.w3.org/2000/svg">
<g clip-path="url(#clip0_1014_2735)">
<path d="M10.6667 0.7C11.1372 0.861318 11.5653 1.12655 11.9193 1.476L13.0233 2.58133C13.3732 2.93486 13.6387 3.36284 13.8 3.83333H10.6667V0.7ZM14 5.16667V13.1667C13.9989 14.0504 13.6474 14.8976 13.0225 15.5225C12.3976 16.1474 11.5504 16.4989 10.6667 16.5H5.33333C4.4496 16.4989 3.60237 16.1474 2.97748 15.5225C2.35259 14.8976 2.00106 14.0504 2 13.1667V3.83333C2.00106 2.9496 2.35259 2.10237 2.97748 1.47748C3.60237 0.852588 4.4496 0.501059 5.33333 0.5L9.33333 0.5V3.83333C9.33333 4.18696 9.47381 4.52609 9.72386 4.77614C9.97391 5.02619 10.313 5.16667 10.6667 5.16667H14ZM11.2053 12.1087C11.1539 12.0375 11.0889 11.9772 11.0141 11.9312C10.9393 11.8852 10.8561 11.8545 10.7694 11.8407C10.6827 11.827 10.5941 11.8305 10.5087 11.8511C10.4234 11.8717 10.3429 11.9089 10.272 11.9607C9.82408 12.2725 9.30086 12.4587 8.75667 12.5C8.54344 12.4942 8.33926 12.4126 8.18067 12.27C7.83275 11.9939 7.40342 11.8404 6.95933 11.8333C6.21978 11.9029 5.51537 12.1818 4.92867 12.6373C4.85585 12.6892 4.79422 12.7553 4.74745 12.8315C4.70068 12.9077 4.66972 12.9925 4.65641 13.081C4.6431 13.1694 4.64771 13.2596 4.66998 13.3462C4.69225 13.4328 4.73171 13.514 4.78602 13.5851C4.84033 13.6561 4.90837 13.7155 4.98611 13.7597C5.06384 13.8039 5.14967 13.832 5.23849 13.8424C5.32731 13.8527 5.41731 13.8451 5.50312 13.82C5.58894 13.7948 5.66881 13.7527 5.738 13.696C6.09308 13.4179 6.51362 13.2356 6.95933 13.1667C7.12333 13.1667 7.20667 13.2187 7.426 13.3667C7.80588 13.6667 8.27525 13.831 8.75933 13.8333C9.58787 13.7955 10.3879 13.5193 11.0633 13.038C11.205 12.9333 11.2994 12.7768 11.326 12.6026C11.3526 12.4285 11.3092 12.2509 11.2053 12.1087ZM11.3333 9.83333C11.3333 9.65652 11.2631 9.48695 11.1381 9.36193C11.013 9.23691 10.8435 9.16667 10.6667 9.16667H5.33333C5.15652 9.16667 4.98695 9.23691 4.86193 9.36193C4.7369 9.48695 4.66667 9.65652 4.66667 9.83333C4.66667 10.0101 4.7369 10.1797 4.86193 10.3047C4.98695 10.4298 5.15652 10.5 5.33333 10.5H10.6667C10.8435 10.5 11.013 10.4298 11.1381 10.3047C11.2631 10.1797 11.3333 10.0101 11.3333 9.83333ZM11.3333 7.16667C11.3333 6.98986 11.2631 6.82029 11.1381 6.69526C11.013 6.57024 10.8435 6.5 10.6667 6.5H5.33333C5.15652 6.5 4.98695 6.57024 4.86193 6.69526C4.7369 6.82029 4.66667 6.98986 4.66667 7.16667C4.66667 7.34348 4.7369 7.51305 4.86193 7.63807C4.98695 7.7631 5.15652 7.83333 5.33333 7.83333H10.6667C10.8435 7.83333 11.013 7.7631 11.1381 7.63807C11.2631 7.51305 11.3333 7.34348 11.3333 7.16667Z" fill="white" fill-opacity="0.5"/>
</g>
<defs>
<clipPath id="clip0_1014_2735">
<rect width="16" height="16" fill="white" transform="translate(0 0.5)"/>
</clipPath>
</defs>
</svg>
