<svg width="18" height="15" viewBox="0 0 18 15" fill="none" xmlns="http://www.w3.org/2000/svg">
<path d="M8.99985 10.4997C10.6561 10.4997 11.9987 9.15705 11.9987 7.50082C11.9987 5.84459 10.6561 4.50195 8.99985 4.50195C7.34362 4.50195 6.00098 5.84459 6.00098 7.50082C6.00098 9.15705 7.34362 10.4997 8.99985 10.4997Z" fill="white" fill-opacity="0.96"/>
<path d="M17.4501 5.56527C16.2873 3.67147 13.6423 0.494141 8.99998 0.494141C4.35771 0.494141 1.71269 3.67147 0.549868 5.56527C-0.183289 6.75111 -0.183289 8.24947 0.549868 9.43535C1.71269 11.3291 4.35771 14.5065 8.99998 14.5065C13.6423 14.5065 16.2873 11.3291 17.4501 9.43535C18.1833 8.24947 18.1833 6.75111 17.4501 5.56527ZM8.99998 11.9986C6.51564 11.9986 4.50165 9.98463 4.50165 7.50029C4.50165 5.01595 6.51564 3.00196 8.99998 3.00196C11.4843 3.00196 13.4983 5.01595 13.4983 7.50029C13.4958 9.98361 11.4833 11.9961 8.99998 11.9986Z" fill="white" fill-opacity="0.96"/>
</svg>
