<svg width="20" height="20" viewBox="0 0 20 20" fill="none" xmlns="http://www.w3.org/2000/svg">
<g clip-path="url(#clip0_8024_4028)">
<path d="M5.83333 0H3.33333C1.49238 0 0 1.49238 0 3.33333V5.83333C0 7.67428 1.49238 9.16667 3.33333 9.16667H5.83333C7.67428 9.16667 9.16667 7.67428 9.16667 5.83333V3.33333C9.16667 1.49238 7.67428 0 5.83333 0Z" fill="white"/>
<path d="M5.83333 10.8335H3.33333C1.49238 10.8335 0 12.3259 0 14.1668V16.6668C0 18.5078 1.49238 20.0002 3.33333 20.0002H5.83333C7.67428 20.0002 9.16667 18.5078 9.16667 16.6668V14.1668C9.16667 12.3259 7.67428 10.8335 5.83333 10.8335Z" fill="white"/>
<path d="M18.5775 15.9385L16.6667 17.8468V2.15349L18.5775 4.06182C18.655 4.13919 18.7469 4.20056 18.848 4.24241C18.9492 4.28426 19.0575 4.30578 19.167 4.30574C19.2765 4.3057 19.3848 4.28411 19.4859 4.24218C19.5871 4.20026 19.6789 4.13883 19.7563 4.06141C19.8337 3.98398 19.895 3.89208 19.9369 3.79094C19.9787 3.6898 20.0002 3.5814 20.0002 3.47195C20.0002 3.36249 19.9786 3.25411 19.9367 3.153C19.8947 3.05189 19.8333 2.96003 19.7559 2.88266L17.6 0.730157C17.1313 0.261989 16.4959 -0.000976563 15.8334 -0.000976562C15.1709 -0.000976562 14.5355 0.261989 14.0667 0.730157L11.9109 2.88266C11.8335 2.96003 11.772 3.05189 11.7301 3.153C11.6882 3.25411 11.6666 3.36249 11.6666 3.47195C11.6665 3.5814 11.688 3.6898 11.7299 3.79094C11.7717 3.89208 11.8331 3.98398 11.9105 4.06141C11.9878 4.13883 12.0797 4.20026 12.1808 4.24218C12.2819 4.28411 12.3903 4.3057 12.4998 4.30574C12.6092 4.30578 12.7176 4.28426 12.8187 4.24241C12.9199 4.20056 13.0118 4.13919 13.0892 4.06182L15.0001 2.15349V17.8468L13.0892 15.9385C13.0117 15.8611 12.9198 15.7998 12.8186 15.7579C12.7174 15.7161 12.609 15.6946 12.4995 15.6947C12.39 15.6948 12.2816 15.7164 12.1804 15.7584C12.0793 15.8004 11.9874 15.8618 11.9101 15.9393C11.8327 16.0168 11.7713 16.1088 11.7295 16.21C11.6877 16.3111 11.6662 16.4196 11.6663 16.5291C11.6663 16.6386 11.688 16.747 11.73 16.8481C11.7719 16.9492 11.8334 17.0411 11.9109 17.1185L14.0667 19.271C14.5361 19.7379 15.1713 20.0001 15.8334 20.0001C16.4955 20.0001 17.1307 19.7379 17.6 19.271L19.7559 17.1185C19.9124 16.9622 20.0004 16.7502 20.0005 16.5291C20.0007 16.3079 19.913 16.0958 19.7567 15.9393C19.6005 15.7828 19.3884 15.6949 19.1673 15.6947C18.9462 15.6945 18.734 15.7822 18.5775 15.9385Z" fill="white"/>
</g>
<defs>
<clipPath id="clip0_8024_4028">
<rect width="20" height="20" fill="white"/>
</clipPath>
</defs>
</svg>
