<svg width="18" height="19" viewBox="0 0 18 19" fill="none" xmlns="http://www.w3.org/2000/svg">
<g clip-path="url(#clip0_8023_3174)">
<path d="M9.74985 18.7482H4.49985C4.30094 18.7482 4.11017 18.6692 3.96952 18.5285C3.82887 18.3879 3.74985 18.1971 3.74985 17.9982C3.74985 17.7993 3.82887 17.6085 3.96952 17.4678C4.11017 17.3272 4.30094 17.2482 4.49985 17.2482H9.74985C9.94876 17.2482 10.1395 17.3272 10.2802 17.4678C10.4208 17.6085 10.4999 17.7993 10.4999 17.9982C10.4999 18.1971 10.4208 18.3879 10.2802 18.5285C10.1395 18.6692 9.94876 18.7482 9.74985 18.7482ZM14.2499 17.9982C14.2499 17.7993 14.1708 17.6085 14.0302 17.4678C13.8895 17.3272 13.6988 17.2482 13.4999 17.2482H12.7499C12.5509 17.2482 12.3602 17.3272 12.2195 17.4678C12.0789 17.6085 11.9999 17.7993 11.9999 17.9982C11.9999 18.1971 12.0789 18.3879 12.2195 18.5285C12.3602 18.6692 12.5509 18.7482 12.7499 18.7482H13.4999C13.6988 18.7482 13.8895 18.6692 14.0302 18.5285C14.1708 18.3879 14.2499 18.1971 14.2499 17.9982ZM14.2499 14.9982C14.2499 14.7993 14.1708 14.6085 14.0302 14.4678C13.8895 14.3272 13.6988 14.2482 13.4999 14.2482H8.24985C8.05094 14.2482 7.86017 14.3272 7.71952 14.4678C7.57887 14.6085 7.49985 14.7993 7.49985 14.9982C7.49985 15.1971 7.57887 15.3879 7.71952 15.5285C7.86017 15.6692 8.05094 15.7482 8.24985 15.7482H13.4999C13.6988 15.7482 13.8895 15.6692 14.0302 15.5285C14.1708 15.3879 14.2499 15.1971 14.2499 14.9982ZM5.99985 14.9982C5.99985 14.7993 5.92083 14.6085 5.78018 14.4678C5.63953 14.3272 5.44876 14.2482 5.24985 14.2482H4.49985C4.30094 14.2482 4.11017 14.3272 3.96952 14.4678C3.82887 14.6085 3.74985 14.7993 3.74985 14.9982C3.74985 15.1971 3.82887 15.3879 3.96952 15.5285C4.11017 15.6692 4.30094 15.7482 4.49985 15.7482H5.24985C5.44876 15.7482 5.63953 15.6692 5.78018 15.5285C5.92083 15.3879 5.99985 15.1971 5.99985 14.9982ZM10.4999 11.9982C10.4999 11.7993 10.4208 11.6085 10.2802 11.4678C10.1395 11.3272 9.94876 11.2482 9.74985 11.2482H4.49985C4.30094 11.2482 4.11017 11.3272 3.96952 11.4678C3.82887 11.6085 3.74985 11.7993 3.74985 11.9982C3.74985 12.1971 3.82887 12.3879 3.96952 12.5285C4.11017 12.6692 4.30094 12.7482 4.49985 12.7482H9.74985C9.94876 12.7482 10.1395 12.6692 10.2802 12.5285C10.4208 12.3879 10.4999 12.1971 10.4999 11.9982ZM14.2499 11.9982C14.2499 11.7993 14.1708 11.6085 14.0302 11.4678C13.8895 11.3272 13.6988 11.2482 13.4999 11.2482H12.7499C12.5509 11.2482 12.3602 11.3272 12.2195 11.4678C12.0789 11.6085 11.9999 11.7993 11.9999 11.9982C11.9999 12.1971 12.0789 12.3879 12.2195 12.5285C12.3602 12.6692 12.5509 12.7482 12.7499 12.7482H13.4999C13.6988 12.7482 13.8895 12.6692 14.0302 12.5285C14.1708 12.3879 14.2499 12.1971 14.2499 11.9982ZM13.4384 4.59792C13.3269 4.57078 13.2229 4.51923 13.1338 4.44698C13.0447 4.37474 12.9727 4.28361 12.9231 4.18018C12.3497 2.98237 11.3973 2.00706 10.2135 1.40532C9.02968 0.803574 7.68047 0.60898 6.37485 0.851675C5.17325 1.07521 4.06946 1.66283 3.21311 2.53488C2.35676 3.40693 1.78928 4.52122 1.5876 5.72668C1.46667 6.44413 1.47505 7.17743 1.61235 7.89192C1.6298 8.01218 1.61737 8.13489 1.57617 8.24921C1.53497 8.36353 1.46626 8.46595 1.3761 8.54743C0.883727 9.00074 0.507942 9.56612 0.28062 10.1956C0.0532979 10.8251 -0.0188564 11.5001 0.070277 12.1634C0.15941 12.8267 0.407202 13.4588 0.792635 14.0059C1.17807 14.5531 1.68977 14.9992 2.28435 15.3064C2.01885 14.4567 2.9166 13.8117 2.54235 13.0872C2.35599 12.7381 2.26412 12.3463 2.27583 11.9508C2.28755 11.5553 2.40245 11.1696 2.60915 10.8322C2.81585 10.4948 3.10716 10.2172 3.4542 10.027C3.80124 9.8369 4.19195 9.74077 4.5876 9.74818H9.74985C10.121 9.74803 10.4861 9.84196 10.8111 10.0212C11.4794 10.3917 12.0441 9.66718 12.7499 9.74818C14.0144 9.61318 15.3906 10.1389 15.6891 11.4732C15.8209 12.022 15.738 12.6005 15.4574 13.0902C15.1191 13.6287 15.6666 14.0937 15.7139 14.6359C19.4376 12.0327 18.4949 5.52642 13.4384 4.59792Z" fill="white"/>
</g>
<defs>
<clipPath id="clip0_8023_3174">
<rect width="18" height="18" fill="white" transform="translate(0 0.748047)"/>
</clipPath>
</defs>
</svg>
