<svg width="52" height="52" viewBox="0 0 52 52" fill="none" xmlns="http://www.w3.org/2000/svg">
<g clip-path="url(#clip0_8836_1195)">
<path d="M50.6047 20.5393L43.0192 7.53935C41.0843 4.22435 37.5007 2.16602 33.6635 2.16602H18.3408C14.5037 2.16602 10.9178 4.22652 8.98299 7.53935L1.39966 20.5393C-0.56551 23.9063 -0.56551 28.0902 1.39966 31.4572L8.98299 44.4572C10.9178 47.7722 14.5015 49.8305 18.3408 49.8305H33.6635C37.5007 49.8305 41.0865 47.77 43.0213 44.4572L50.6047 31.4572C52.5677 28.0902 52.5677 23.9063 50.6047 20.5393ZM39.4333 22.7732L29.8437 32.1873C28.1472 33.8514 25.9632 34.6812 23.7792 34.6812C21.6168 34.6812 19.4523 33.8665 17.7623 32.235L13.6478 28.1877C12.7942 27.3492 12.7833 25.9777 13.6218 25.124C14.4603 24.2682 15.8297 24.2573 16.6855 25.098L20.787 29.1302C22.4727 30.7552 25.1247 30.7465 26.8125 29.0912L36.4 19.6792C37.2515 18.8385 38.6187 18.8537 39.4637 19.7073C40.3022 20.561 40.2892 21.9347 39.4333 22.7732Z" fill="#32D74B"/>
</g>
<defs>
<clipPath id="clip0_8836_1195">
<rect width="52" height="52" fill="white"/>
</clipPath>
</defs>
</svg>
