<svg width="17" height="17" viewBox="0 0 17 17" fill="none" xmlns="http://www.w3.org/2000/svg">
<path d="M15.8333 7.83273H14.5V6.49939C14.5 6.1312 14.2015 5.83273 13.8333 5.83273C13.4652 5.83273 13.1667 6.1312 13.1667 6.49939V7.83273H11.8333C11.4652 7.83273 11.1667 8.1312 11.1667 8.49938C11.1667 8.86757 11.4652 9.16604 11.8333 9.16604H13.1667V10.4994C13.1667 10.8676 13.4652 11.166 13.8333 11.166C14.2015 11.166 14.5 10.8676 14.5 10.4994V9.16604H15.8333C16.2015 9.16604 16.5 8.86757 16.5 8.49938C16.5 8.1312 16.2015 7.83273 15.8333 7.83273Z" fill="white" fill-opacity="0.96"/>
<path d="M6.5 8.5C8.70914 8.5 10.5 6.70914 10.5 4.5C10.5 2.29086 8.70914 0.5 6.5 0.5C4.29086 0.5 2.5 2.29086 2.5 4.5C2.5 6.70914 4.29086 8.5 6.5 8.5Z" fill="white" fill-opacity="0.96"/>
<path d="M6.5 9.83272C3.18781 9.83641 0.503688 12.5205 0.5 15.8327C0.5 16.2009 0.798469 16.4994 1.16666 16.4994H11.8333C12.2015 16.4994 12.5 16.2009 12.5 15.8327C12.4963 12.5205 9.81219 9.83638 6.5 9.83272Z" fill="white" fill-opacity="0.96"/>
</svg>
