<svg width="181" height="167" viewBox="0 0 181 167" fill="none" xmlns="http://www.w3.org/2000/svg">
<path d="M102.992 0.86543L96.4923 2.54362L16.4179 23.2193L9.91851 24.8975C6.76376 25.7158 4.06204 27.7538 2.40608 30.5641C0.750126 33.3745 0.275168 36.7278 1.08541 39.8884L29.2684 149.314C30.0857 152.472 32.1211 155.178 34.9279 156.836C37.7347 158.494 41.0838 158.969 44.2404 158.158L44.2572 158.154L137.297 134.13L137.314 134.126C140.468 133.308 143.17 131.27 144.826 128.459C146.482 125.649 146.957 122.296 146.147 119.135L117.964 9.70974C117.146 6.551 115.111 3.84586 112.304 2.1878C109.497 0.529741 106.148 0.0541728 102.992 0.86543Z" fill="#F2F2F2"/>
<path d="M103.875 4.29699L96.1773 6.2847L18.5001 26.3414L10.8021 28.3291C8.55547 28.9118 6.63151 30.3631 5.45225 32.3644C4.273 34.3658 3.93477 36.7537 4.51176 39.0044L32.6948 148.43C33.2768 150.679 34.7262 152.606 36.725 153.786C38.7238 154.967 41.1088 155.306 43.3567 154.728L43.3735 154.724L136.413 130.7L136.43 130.696C138.677 130.113 140.601 128.662 141.78 126.661C142.959 124.659 143.297 122.271 142.72 120.021L114.537 10.5952C113.955 8.34585 112.506 6.41947 110.507 5.23873C108.508 4.05798 106.123 3.7193 103.875 4.29699Z" fill="white"/>
<path d="M98.0628 39.7309L50.9963 51.8838C50.4706 52.0195 49.9126 51.9406 49.4451 51.6644C48.9775 51.3882 48.6386 50.9373 48.5031 50.411C48.3675 49.8846 48.4463 49.3259 48.7222 48.8578C48.9981 48.3896 49.4483 48.0503 49.974 47.9146L97.0405 35.7617C97.566 35.6266 98.1236 35.7058 98.5908 35.982C99.058 36.2583 99.3965 36.709 99.532 37.235C99.6675 37.7611 99.5889 38.3194 99.3134 38.7875C99.0379 39.2555 98.5881 39.5948 98.0628 39.7309Z" fill="#F2F2F2"/>
<path d="M107.964 44.3173L52.7214 58.5813C52.1957 58.717 51.6377 58.6381 51.1702 58.3619C50.7026 58.0857 50.3637 57.6348 50.2282 57.1085C50.0926 56.5821 50.1714 56.0234 50.4473 55.5553C50.7231 55.0871 51.1734 54.7478 51.6991 54.6121L106.942 40.3481C107.467 40.2124 108.026 40.2913 108.493 40.5675C108.961 40.8437 109.299 41.2946 109.435 41.8209C109.571 42.3473 109.492 42.906 109.216 43.3742C108.94 43.8423 108.49 44.1816 107.964 44.3173Z" fill="#F2F2F2"/>
<path d="M105.794 69.749L58.7273 81.9018C58.467 81.969 58.196 81.9842 57.9299 81.9466C57.6637 81.909 57.4075 81.8192 57.176 81.6824C56.9445 81.5457 56.7421 81.3646 56.5805 81.1495C56.4189 80.9345 56.3012 80.6896 56.234 80.429C56.1669 80.1684 56.1517 79.8971 56.1893 79.6306C56.2269 79.3641 56.3166 79.1076 56.4531 78.8758C56.5897 78.644 56.7706 78.4414 56.9854 78.2795C57.2002 78.1177 57.4447 77.9998 57.705 77.9326L104.771 65.7798C105.032 65.7126 105.303 65.6973 105.569 65.735C105.835 65.7726 106.091 65.8624 106.323 65.9992C106.554 66.1359 106.757 66.317 106.918 66.5321C107.08 66.7471 107.198 66.992 107.265 67.2526C107.332 67.5132 107.347 67.7845 107.309 68.051C107.272 68.3175 107.182 68.574 107.046 68.8058C106.909 69.0376 106.728 69.2402 106.513 69.4021C106.299 69.5639 106.054 69.6818 105.794 69.749Z" fill="#F2F2F2"/>
<path d="M115.695 74.3349L60.4524 88.5989C60.1921 88.6661 59.9211 88.6813 59.6549 88.6437C59.3888 88.606 59.1326 88.5163 58.9011 88.3795C58.6696 88.2427 58.4672 88.0617 58.3056 87.8466C58.144 87.6315 58.0263 87.3867 57.9591 87.1261C57.892 86.8655 57.8768 86.5941 57.9144 86.3276C57.952 86.0611 58.0417 85.8047 58.1782 85.5729C58.3148 85.341 58.4957 85.1384 58.7105 84.9766C58.9253 84.8148 59.1698 84.6969 59.4301 84.6297L114.673 70.3657C115.198 70.23 115.756 70.3089 116.224 70.5851C116.692 70.8613 117.03 71.3122 117.166 71.8385C117.302 72.3649 117.223 72.9236 116.947 73.3918C116.671 73.8599 116.221 74.1992 115.695 74.3349Z" fill="#F2F2F2"/>
<path d="M113.525 99.7646L66.4583 111.917C65.9328 112.053 65.3751 111.974 64.9078 111.697C64.4406 111.421 64.102 110.97 63.9665 110.444C63.831 109.918 63.9096 109.36 64.1852 108.892C64.4608 108.424 64.9107 108.084 65.436 107.948L112.503 95.7954C113.028 95.6597 113.586 95.7386 114.054 96.0148C114.521 96.291 114.86 96.7419 114.996 97.2682C115.131 97.7946 115.053 98.3533 114.777 98.8214C114.501 99.2896 114.051 99.6289 113.525 99.7646Z" fill="#F2F2F2"/>
<path d="M123.426 104.352L68.1834 118.616C67.923 118.684 67.6519 118.699 67.3855 118.662C67.1192 118.624 66.8629 118.535 66.6311 118.398C66.3994 118.261 66.1969 118.08 66.0351 117.865C65.8734 117.65 65.7555 117.405 65.6884 117.144C65.6212 116.883 65.606 116.612 65.6437 116.345C65.6814 116.079 65.7712 115.822 65.908 115.59C66.0447 115.358 66.2258 115.156 66.4408 114.994C66.6558 114.832 66.9006 114.714 67.1611 114.647L122.404 100.383C122.929 100.248 123.487 100.326 123.955 100.603C124.423 100.879 124.761 101.33 124.897 101.856C125.033 102.382 124.954 102.941 124.678 103.409C124.402 103.877 123.952 104.217 123.426 104.352Z" fill="#F2F2F2"/>
<path d="M42.9613 64.3438L26.305 68.6446C26.0529 68.7094 25.7855 68.6714 25.5614 68.539C25.3372 68.4066 25.1747 68.1906 25.1094 67.9384L21.286 53.0932C21.2213 52.8408 21.2592 52.573 21.3914 52.3486C21.5237 52.1242 21.7394 51.9615 21.9913 51.8961L38.6477 47.5954C38.8998 47.5306 39.1672 47.5685 39.3913 47.7009C39.6154 47.8333 39.7779 48.0493 39.8432 48.3016L43.6667 63.1468C43.7314 63.3992 43.6935 63.6669 43.5612 63.8914C43.429 64.1158 43.2133 64.2785 42.9613 64.3438Z" fill="#E6E6E6"/>
<path d="M50.6925 94.3614L34.0362 98.6622C33.7841 98.727 33.5167 98.689 33.2925 98.5566C33.0684 98.4242 32.9059 98.2082 32.8406 97.956L29.0172 83.1107C28.9525 82.8584 28.9904 82.5906 29.1226 82.3662C29.2549 82.1418 29.4706 81.9791 29.7225 81.9137L46.3789 77.6129C46.6309 77.5481 46.8984 77.5861 47.1225 77.7185C47.3466 77.8509 47.5091 78.0669 47.5744 78.3192L51.3979 93.1644C51.4626 93.4168 51.4246 93.6845 51.2924 93.9089C51.1602 94.1333 50.9445 94.296 50.6925 94.3614Z" fill="#E6E6E6"/>
<path d="M58.4233 124.379L41.7669 128.68C41.5148 128.745 41.2474 128.707 41.0233 128.574C40.7991 128.442 40.6366 128.226 40.5714 127.974L36.7479 113.128C36.6832 112.876 36.7211 112.608 36.8534 112.384C36.9856 112.159 37.2013 111.997 37.4532 111.931L54.1096 107.631C54.3617 107.566 54.6291 107.604 54.8532 107.736C55.0773 107.868 55.2399 108.085 55.3051 108.337L59.1286 123.182C59.1933 123.434 59.1554 123.702 59.0231 123.927C58.8909 124.151 58.6752 124.314 58.4233 124.379Z" fill="#E6E6E6"/>
<path d="M167.906 28.6035H71.7876C68.5287 28.6072 65.4043 29.9051 63.0999 32.2124C60.7955 34.5197 59.4993 37.648 59.4956 40.911V153.916C59.4993 157.179 60.7955 160.308 63.0999 162.615C65.4043 164.922 68.5287 166.22 71.7876 166.224H167.906C171.165 166.22 174.289 164.922 176.593 162.615C178.898 160.308 180.194 157.179 180.198 153.916V40.911C180.194 37.648 178.898 34.5197 176.593 32.2124C174.289 29.9051 171.165 28.6072 167.906 28.6035Z" fill="#E6E6E6"/>
<path d="M167.906 32.1465H71.7876C69.4668 32.1491 67.2419 33.0733 65.6009 34.7164C63.9599 36.3595 63.0368 38.5873 63.0342 40.9109V153.916C63.0368 156.24 63.9599 158.468 65.6009 160.111C67.2419 161.754 69.4668 162.678 71.7876 162.681H167.906C170.227 162.678 172.452 161.754 174.093 160.111C175.734 158.468 176.657 156.24 176.659 153.916V40.9109C176.657 38.5873 175.734 36.3595 174.093 34.7164C172.452 33.0734 170.227 32.1491 167.906 32.1465Z" fill="white"/>
<path d="M153.44 94.2436H104.834C104.565 94.2439 104.298 94.1911 104.05 94.0882C103.801 93.9854 103.575 93.8345 103.385 93.6441C103.194 93.4538 103.043 93.2277 102.94 92.9789C102.837 92.7301 102.784 92.4634 102.784 92.1941C102.784 91.9247 102.837 91.658 102.94 91.4092C103.043 91.1604 103.194 90.9344 103.385 90.744C103.575 90.5537 103.801 90.4027 104.05 90.2999C104.298 90.197 104.565 90.1442 104.834 90.1445H153.44C153.982 90.1451 154.503 90.3613 154.886 90.7456C155.269 91.1299 155.485 91.6509 155.485 92.1941C155.485 92.7372 155.269 93.2582 154.886 93.6425C154.503 94.0268 153.982 94.243 153.44 94.2436Z" fill="#E6E6E6"/>
<path d="M161.884 101.16H104.834C104.565 101.16 104.298 101.107 104.05 101.004C103.801 100.901 103.575 100.75 103.385 100.56C103.194 100.37 103.043 100.144 102.94 99.8949C102.837 99.6461 102.784 99.3794 102.784 99.1101C102.784 98.8407 102.837 98.574 102.94 98.3252C103.043 98.0764 103.194 97.8504 103.385 97.66C103.575 97.4697 103.801 97.3188 104.05 97.2159C104.298 97.113 104.565 97.0602 104.834 97.0605H161.884C162.426 97.0605 162.947 97.2765 163.331 97.6608C163.715 98.0452 163.931 98.5665 163.931 99.1101C163.931 99.6536 163.715 100.175 163.331 100.559C162.947 100.944 162.426 101.16 161.884 101.16Z" fill="#E6E6E6"/>
<path d="M153.44 125.242H104.834C104.565 125.242 104.298 125.189 104.05 125.086C103.801 124.983 103.575 124.833 103.385 124.642C103.194 124.452 103.043 124.226 102.94 123.977C102.837 123.728 102.784 123.461 102.784 123.192C102.784 122.923 102.837 122.656 102.94 122.407C103.043 122.158 103.194 121.932 103.385 121.742C103.575 121.552 103.801 121.401 104.05 121.298C104.298 121.195 104.565 121.142 104.834 121.143H153.44C153.983 121.143 154.504 121.359 154.887 121.743C155.271 122.127 155.487 122.649 155.487 123.192C155.487 123.736 155.271 124.257 154.887 124.641C154.504 125.026 153.983 125.242 153.44 125.242Z" fill="#E6E6E6"/>
<path d="M161.884 132.16H104.834C104.565 132.16 104.298 132.107 104.05 132.004C103.801 131.901 103.575 131.75 103.385 131.56C103.194 131.37 103.043 131.144 102.94 130.895C102.837 130.646 102.784 130.379 102.784 130.11C102.784 129.841 102.837 129.574 102.94 129.325C103.043 129.076 103.194 128.85 103.385 128.66C103.575 128.47 103.801 128.319 104.05 128.216C104.298 128.113 104.565 128.06 104.834 128.061H161.884C162.153 128.06 162.419 128.113 162.668 128.216C162.916 128.319 163.142 128.47 163.332 128.66C163.523 128.85 163.674 129.076 163.777 129.325C163.88 129.574 163.933 129.841 163.933 130.11C163.933 130.379 163.88 130.646 163.777 130.895C163.674 131.144 163.523 131.37 163.332 131.56C163.142 131.75 162.916 131.901 162.668 132.004C162.419 132.107 162.153 132.16 161.884 132.16Z" fill="#E6E6E6"/>
<path d="M93.9455 104.3H76.7442C76.484 104.3 76.2345 104.196 76.0505 104.012C75.8665 103.828 75.763 103.578 75.7627 103.318V87.9867C75.763 87.7261 75.8665 87.4763 76.0505 87.2921C76.2345 87.1078 76.484 87.0042 76.7442 87.0039H93.9455C94.2057 87.0042 94.4552 87.1078 94.6392 87.2921C94.8233 87.4763 94.9268 87.7261 94.927 87.9867V103.318C94.9268 103.578 94.8233 103.828 94.6392 104.012C94.4552 104.196 94.2057 104.3 93.9455 104.3Z" fill="#E6E6E6"/>
<path d="M93.9455 135.298H76.7442C76.484 135.298 76.2345 135.194 76.0505 135.01C75.8665 134.826 75.763 134.576 75.7627 134.316V118.985C75.763 118.724 75.8665 118.474 76.0505 118.29C76.2345 118.106 76.484 118.002 76.7442 118.002H93.9455C94.2057 118.002 94.4552 118.106 94.6392 118.29C94.8233 118.474 94.9268 118.724 94.927 118.985V134.316C94.9268 134.576 94.8233 134.826 94.6392 135.01C94.4552 135.194 94.2057 135.298 93.9455 135.298Z" fill="#E6E6E6"/>
<path d="M153.494 59.7338H117.659C117.116 59.7338 116.595 59.5179 116.211 59.1335C115.827 58.7492 115.612 58.2279 115.612 57.6843C115.612 57.1407 115.827 56.6194 116.211 56.2351C116.595 55.8507 117.116 55.6348 117.659 55.6348H153.494C154.037 55.6348 154.558 55.8507 154.941 56.2351C155.325 56.6194 155.541 57.1407 155.541 57.6843C155.541 58.2279 155.325 58.7492 154.941 59.1335C154.558 59.5179 154.037 59.7338 153.494 59.7338Z" fill="#CCCCCC"/>
<path d="M161.938 66.6518H117.659C117.39 66.6518 117.124 66.5988 116.875 66.4958C116.627 66.3928 116.401 66.2418 116.211 66.0515C116.021 65.8612 115.87 65.6352 115.767 65.3866C115.665 65.1379 115.612 64.8714 115.612 64.6023C115.612 64.3331 115.665 64.0666 115.767 63.8179C115.87 63.5693 116.021 63.3433 116.211 63.153C116.401 62.9627 116.627 62.8117 116.875 62.7087C117.124 62.6057 117.39 62.5527 117.659 62.5527H161.938C162.481 62.5527 163.001 62.7687 163.385 63.153C163.769 63.5374 163.985 64.0587 163.985 64.6023C163.985 65.1458 163.769 65.6671 163.385 66.0515C163.001 66.4359 162.481 66.6518 161.938 66.6518Z" fill="#CCCCCC"/>
<path d="M109.727 75.0337H76.6903C76.43 75.0334 76.1805 74.9298 75.9965 74.7455C75.8125 74.5613 75.709 74.3115 75.7087 74.051V48.2347C75.709 47.9741 75.8125 47.7243 75.9965 47.5401C76.1805 47.3559 76.43 47.2522 76.6903 47.252H109.727C109.988 47.2522 110.237 47.3559 110.421 47.5401C110.605 47.7243 110.709 47.9741 110.709 48.2347V74.051C110.709 74.3115 110.605 74.5613 110.421 74.7455C110.237 74.9298 109.988 75.0334 109.727 75.0337Z" fill="#6C63FF"/>
</svg>
