<svg width="18" height="18" viewBox="0 0 18 18" fill="none" xmlns="http://www.w3.org/2000/svg">
<g id="house-window 1">
<path id="Vector" d="M16.3478 4.18595L11.0977 0.642947C9.8235 -0.216553 8.1765 -0.216553 6.90225 0.642947L1.653 4.18595C0.618 4.88345 0 6.0452 0 7.2947V14.2517C0 16.3194 1.68225 18.0017 3.75 18.0017H14.25C16.3177 18.0017 18 16.3194 18 14.2517V7.2947C18 6.04595 17.382 4.88345 16.3478 4.18595ZM12 12.0017C12 12.8289 11.3273 13.5017 10.5 13.5017H7.5C6.67275 13.5017 6 12.8289 6 12.0017V9.0017C6 8.17445 6.67275 7.5017 7.5 7.5017H10.5C11.3273 7.5017 12 8.17445 12 9.0017V12.0017ZM10.5 9.0017L10.5015 12.0017H7.5V9.0017H10.5Z" fill="#1F1F1F"/>
</g>
</svg>
