<svg width="16" height="17" viewBox="0 0 16 17" fill="none" xmlns="http://www.w3.org/2000/svg">
<g clip-path="url(#clip0_7449_3115)">
<path d="M14 3.83333H12.6667V2.5C12.6667 1.39733 11.7693 0.5 10.6667 0.5H5.33333C4.23067 0.5 3.33333 1.39733 3.33333 2.5V6.5H2C0.897333 6.5 0 7.39733 0 8.5V16.5H16V5.83333C16 4.73067 15.1027 3.83333 14 3.83333ZM4 13.1667H2.66667V11.8333H4V13.1667ZM4 10.5H2.66667V9.16667H4V10.5ZM7.33333 13.1667H6V11.8333H7.33333V13.1667ZM7.33333 10.5H6V9.16667H7.33333V10.5ZM7.33333 7.83333H6V6.5H7.33333V7.83333ZM7.33333 5.16667H6V3.83333H7.33333V5.16667ZM10 13.1667H8.66667V11.8333H10V13.1667ZM10 10.5H8.66667V9.16667H10V10.5ZM10 7.83333H8.66667V6.5H10V7.83333ZM10 5.16667H8.66667V3.83333H10V5.16667ZM13.3333 13.1667H12V11.8333H13.3333V13.1667ZM13.3333 10.5H12V9.16667H13.3333V10.5ZM13.3333 7.83333H12V6.5H13.3333V7.83333Z" fill="white" fill-opacity="0.23" style="mix-blend-mode:lighten"/>
<path d="M14 3.83333H12.6667V2.5C12.6667 1.39733 11.7693 0.5 10.6667 0.5H5.33333C4.23067 0.5 3.33333 1.39733 3.33333 2.5V6.5H2C0.897333 6.5 0 7.39733 0 8.5V16.5H16V5.83333C16 4.73067 15.1027 3.83333 14 3.83333ZM4 13.1667H2.66667V11.8333H4V13.1667ZM4 10.5H2.66667V9.16667H4V10.5ZM7.33333 13.1667H6V11.8333H7.33333V13.1667ZM7.33333 10.5H6V9.16667H7.33333V10.5ZM7.33333 7.83333H6V6.5H7.33333V7.83333ZM7.33333 5.16667H6V3.83333H7.33333V5.16667ZM10 13.1667H8.66667V11.8333H10V13.1667ZM10 10.5H8.66667V9.16667H10V10.5ZM10 7.83333H8.66667V6.5H10V7.83333ZM10 5.16667H8.66667V3.83333H10V5.16667ZM13.3333 13.1667H12V11.8333H13.3333V13.1667ZM13.3333 10.5H12V9.16667H13.3333V10.5ZM13.3333 7.83333H12V6.5H13.3333V7.83333Z" fill="#a3a0a1" style="mix-blend-mode:color-dodge"/>
</g>
<defs>
<clipPath id="clip0_7449_3115">
<rect width="16" height="16" fill="white" transform="translate(0 0.5)"/>
</clipPath>
</defs>
</svg>
