<svg width="24" height="25" viewBox="0 0 24 25" fill="none" xmlns="http://www.w3.org/2000/svg">
<path d="M11 7.5C11.5523 7.5 12 7.94772 12 8.5V10.5H14C14.5523 10.5 15 10.9477 15 11.5C15 12.0523 14.5523 12.5 14 12.5H12V14.5C12 15.0523 11.5523 15.5 11 15.5C10.4477 15.5 10 15.0523 10 14.5V12.5H8C7.44772 12.5 7 12.0523 7 11.5C7 10.9477 7.44772 10.5 8 10.5H10V8.5C10 7.94772 10.4477 7.5 11 7.5Z" fill="white"/>
<path fill-rule="evenodd" clip-rule="evenodd" d="M16.6176 18.532C15.078 19.7635 13.125 20.5 11 20.5C6.02944 20.5 2 16.4706 2 11.5C2 6.52944 6.02944 2.5 11 2.5C15.9706 2.5 20 6.52944 20 11.5C20 13.625 19.2635 15.5781 18.0318 17.1178L21.707 20.7929C22.0975 21.1834 22.0975 21.8166 21.707 22.2071C21.3165 22.5977 20.6833 22.5977 20.2928 22.2071L16.6176 18.532ZM4 11.5C4 7.63401 7.13401 4.5 11 4.5C14.866 4.5 18 7.63401 18 11.5C18 13.3858 17.2543 15.0975 16.0416 16.3562C16.0072 16.3826 15.9742 16.4115 15.9428 16.4429C15.9114 16.4744 15.8825 16.5074 15.8561 16.5417C14.5974 17.7543 12.8858 18.5 11 18.5C7.13401 18.5 4 15.366 4 11.5Z" fill="white"/>
</svg>
