<svg width="24" height="25" viewBox="0 0 24 25" fill="none" xmlns="http://www.w3.org/2000/svg">
<path d="M8 10.5C7.44772 10.5 7 10.9477 7 11.5C7 12.0523 7.44772 12.5 8 12.5H14C14.5523 12.5 15 12.0523 15 11.5C15 10.9477 14.5523 10.5 14 10.5H8Z" fill="white"/>
<path fill-rule="evenodd" clip-rule="evenodd" d="M11 20.5C13.125 20.5 15.078 19.7635 16.6176 18.532L20.2928 22.2071C20.6833 22.5977 21.3165 22.5977 21.707 22.2071C22.0975 21.8166 22.0975 21.1834 21.707 20.7929L18.0318 17.1178C19.2635 15.5781 20 13.625 20 11.5C20 6.52944 15.9706 2.5 11 2.5C6.02944 2.5 2 6.52944 2 11.5C2 16.4706 6.02944 20.5 11 20.5ZM11 4.5C7.13401 4.5 4 7.63401 4 11.5C4 15.366 7.13401 18.5 11 18.5C12.8858 18.5 14.5974 17.7543 15.8561 16.5417C15.8825 16.5074 15.9114 16.4744 15.9428 16.4429C15.9742 16.4115 16.0072 16.3826 16.0416 16.3562C17.2543 15.0975 18 13.3858 18 11.5C18 7.63401 14.866 4.5 11 4.5Z" fill="white"/>
</svg>
