<svg width="20" height="20" viewBox="0 0 20 20" fill="none" xmlns="http://www.w3.org/2000/svg">
<path d="M10.5893 1.91009C10.2638 1.58466 9.7362 1.58466 9.41077 1.91009L5.2441 6.07676C4.91866 6.4022 4.91866 6.92983 5.2441 7.25527C5.56954 7.58071 6.09717 7.58071 6.42261 7.25527L9.16669 4.51119V12.5589C9.16669 13.0191 9.53978 13.3922 10 13.3922C10.4603 13.3922 10.8334 13.0191 10.8334 12.5589V4.51119L13.5774 7.25527C13.9029 7.58071 14.4305 7.58071 14.7559 7.25527C15.0814 6.92983 15.0814 6.4022 14.7559 6.07676L10.5893 1.91009Z" fill="white"/>
<path d="M3.33335 12.4993C3.33335 12.0391 2.96026 11.666 2.50002 11.666C2.03978 11.666 1.66669 12.0391 1.66669 12.4993V15.8327C1.66669 16.4957 1.93008 17.1316 2.39892 17.6004C2.86776 18.0693 3.50365 18.3327 4.16669 18.3327H15.8334C16.4964 18.3327 17.1323 18.0693 17.6011 17.6004C18.07 17.1316 18.3334 16.4957 18.3334 15.8327V12.4993C18.3334 12.0391 17.9603 11.666 17.5 11.666C17.0398 11.666 16.6667 12.0391 16.6667 12.4993V15.8327C16.6667 16.0537 16.5789 16.2657 16.4226 16.4219C16.2663 16.5782 16.0544 16.666 15.8334 16.666H4.16669C3.94567 16.666 3.73371 16.5782 3.57743 16.4219C3.42115 16.2657 3.33335 16.0537 3.33335 15.8327V12.4993Z" fill="white"/>
</svg>
