<svg width="24" height="25" viewBox="0 0 24 25" fill="none" xmlns="http://www.w3.org/2000/svg">
<path d="M12.7071 1.79289C12.3166 1.40237 11.6834 1.40237 11.2929 1.79289L8.29289 4.79289C7.90237 5.18342 7.90237 5.81658 8.29289 6.20711C8.68342 6.59763 9.31658 6.59763 9.70711 6.20711L11 4.91421V11.5H4.41421L5.70711 10.2071C6.09763 9.81658 6.09763 9.18342 5.70711 8.79289C5.31658 8.40237 4.68342 8.40237 4.29289 8.79289L1.29289 11.7929C0.902369 12.1834 0.902369 12.8166 1.29289 13.2071L4.29289 16.2071C4.68342 16.5976 5.31658 16.5976 5.70711 16.2071C6.09763 15.8166 6.09763 15.1834 5.70711 14.7929L4.41421 13.5H11V20.0858L9.70711 18.7929C9.31658 18.4024 8.68342 18.4024 8.29289 18.7929C7.90237 19.1834 7.90237 19.8166 8.29289 20.2071L11.2929 23.2071C11.6834 23.5976 12.3166 23.5976 12.7071 23.2071L15.7071 20.2071C16.0976 19.8166 16.0976 19.1834 15.7071 18.7929C15.3166 18.4024 14.6834 18.4024 14.2929 18.7929L13 20.0858V13.5H19.5858L18.2929 14.7929C17.9024 15.1834 17.9024 15.8166 18.2929 16.2071C18.6834 16.5976 19.3166 16.5976 19.7071 16.2071L22.7071 13.2071C23.0976 12.8166 23.0976 12.1834 22.7071 11.7929L19.7071 8.79289C19.3166 8.40237 18.6834 8.40237 18.2929 8.79289C17.9024 9.18342 17.9024 9.81658 18.2929 10.2071L19.5858 11.5H13V4.91421L14.2929 6.20711C14.6834 6.59763 15.3166 6.59763 15.7071 6.20711C16.0976 5.81658 16.0976 5.18342 15.7071 4.79289L12.7071 1.79289Z" fill="white"/>
</svg>
