<svg width="16" height="12" viewBox="0 0 16 12" fill="none" xmlns="http://www.w3.org/2000/svg">
<path d="M15.9682 11.3992L8.54538 1.16606C8.27592 0.795557 7.72437 0.795557 7.45701 1.16606L0.0321296 11.3992C0.0138576 11.4244 0.00291175 11.4541 0.000505066 11.4851C-0.00190162 11.5161 0.00432498 11.5472 0.0184947 11.5749C0.0326645 11.6026 0.0542238 11.6258 0.0807831 11.642C0.107342 11.6582 0.137864 11.6667 0.168965 11.6666H1.74783C1.85519 11.6666 1.95624 11.6139 2.0194 11.5276L8.00014 3.28385L13.9809 11.5276C14.044 11.6139 14.1451 11.6666 14.2525 11.6666H15.8313C15.9682 11.6666 16.0482 11.5108 15.9682 11.3992Z" fill="white" fill-opacity="0.96"/>
</svg>
