<svg width="51" height="50" viewBox="0 0 51 50" fill="none" xmlns="http://www.w3.org/2000/svg">
<g clip-path="url(#clip0_7462_11505)">
<path d="M47.6969 3.05C45.7282 1.08333 43.1136 0 40.3324 0C37.5511 0 34.9324 1.08333 32.9678 3.05C28.9074 7.1125 28.9074 13.7208 32.9844 17.7979L36.7074 21.4417C37.724 22.4354 39.0282 22.9312 40.3324 22.9312C41.6365 22.9312 42.9407 22.4354 43.9574 21.4417L47.6969 17.7833C51.7574 13.7208 51.7574 7.1125 47.6969 3.05208V3.05ZM40.3344 13.0979C38.6094 13.0979 37.2094 11.6979 37.2094 9.97292C37.2094 8.24792 38.6094 6.84792 40.3344 6.84792C42.0594 6.84792 43.4594 8.24792 43.4594 9.97292C43.4594 11.6979 42.0594 13.0979 40.3344 13.0979Z" fill="white" fill-opacity="0.5"/>
<path d="M50.749 37.5C50.749 32.9042 47.0115 29.1667 42.4157 29.1667H25.749C23.4511 29.1667 21.5824 27.2979 21.5824 25C21.5824 22.7021 23.4511 20.8333 25.749 20.8333C26.9011 20.8333 27.8324 19.9 27.8324 18.75C27.8324 17.6 26.9011 16.6667 25.749 16.6667C21.1532 16.6667 17.4157 20.4042 17.4157 25C17.4157 29.5958 21.1532 33.3333 25.749 33.3333H42.4157C44.7136 33.3333 46.5824 35.2021 46.5824 37.5C46.5824 39.7979 44.7136 41.6667 42.4157 41.6667H27.8324C26.6803 41.6667 25.749 42.6 25.749 43.75C25.749 44.9 26.6803 45.8333 27.8324 45.8333H42.4157C47.0115 45.8333 50.749 42.0958 50.749 37.5Z" fill="white" fill-opacity="0.5"/>
<path d="M21.4407 40.9104L19.7428 36.5563C18.4844 33.3333 15.4386 31.2521 11.9782 31.2521H11.1657V39.5854C11.1657 40.7354 10.2344 41.6688 9.08236 41.6688C7.93027 41.6688 6.99902 40.7354 6.99902 39.5854V31.2521H2.83236C1.68027 31.2521 0.749023 32.1854 0.749023 33.3354V43.7521C0.749023 44.9021 1.68027 45.8354 2.83236 45.8354H4.91569V46.8771C4.91569 48.6021 6.31569 50.0021 8.04069 50.0021C9.76569 50.0021 11.1657 48.6021 11.1657 46.8771C11.1657 48.6021 12.5657 50.0021 14.2907 50.0021C16.0157 50.0021 17.4157 48.6021 17.4157 46.8771V45.8354C20.1219 45.8354 21.5824 43.6896 21.5824 41.6688C21.5824 41.4083 21.5344 41.1521 21.4407 40.9125V40.9104Z" fill="white" fill-opacity="0.5"/>
<g filter="url(#filter0_f_7462_11505)">
<path d="M33.3215 3.40337L33.3214 3.40346C29.4572 7.26962 29.4557 13.56 33.3361 17.4425C33.3367 17.4431 33.3374 17.4437 33.338 17.4444L37.0569 21.0841L33.3215 3.40337ZM33.3215 3.40337C35.1921 1.5308 37.6835 0.5 40.3324 0.5C42.9248 0.5 45.363 1.48739 47.2236 3.28582L47.3434 3.40564M33.3215 3.40337L47.3434 3.40564M47.3434 3.40564C51.2079 7.27013 51.2086 13.5606 47.3451 17.428C47.3445 17.4287 47.3439 17.4293 47.3433 17.4299L43.6079 21.0841C42.6867 21.9845 41.5089 22.4312 40.3324 22.4312C39.156 22.4312 37.9782 21.9846 37.0571 21.0843L47.3434 3.40564ZM11.1657 46.8771H10.6657C10.6657 48.3259 9.48955 49.5021 8.04069 49.5021C6.59183 49.5021 5.41569 48.3259 5.41569 46.8771V45.8354V45.3354H4.91569H2.83236C1.95674 45.3354 1.24902 44.6263 1.24902 43.7521V33.3354C1.24902 32.4612 1.95674 31.7521 2.83236 31.7521H6.49902V39.5854C6.49902 41.0112 7.65381 42.1688 9.08236 42.1688C10.5109 42.1688 11.6657 41.0112 11.6657 39.5854V31.7521H11.9782C15.2325 31.7521 18.0935 33.7069 19.2769 36.7379C19.277 36.738 19.277 36.738 19.277 36.7381L20.9407 41.0045V41.0068L20.9751 41.0947C21.0458 41.2753 21.0824 41.4697 21.0824 41.6688C21.0824 43.469 19.7933 45.3354 17.4157 45.3354H16.9157V45.8354V46.8771C16.9157 48.3259 15.7395 49.5021 14.2907 49.5021C12.8418 49.5021 11.6657 48.3259 11.6657 46.8771H11.1657ZM36.7094 9.97292C36.7094 11.9741 38.3333 13.5979 40.3344 13.5979C42.3356 13.5979 43.9594 11.9741 43.9594 9.97292C43.9594 7.97177 42.3356 6.34792 40.3344 6.34792C38.3333 6.34792 36.7094 7.97177 36.7094 9.97292ZM42.4157 29.6667C46.7354 29.6667 50.249 33.1803 50.249 37.5C50.249 41.8197 46.7354 45.3333 42.4157 45.3333H27.8324C26.9567 45.3333 26.249 44.6242 26.249 43.75C26.249 42.8758 26.9567 42.1667 27.8324 42.1667H42.4157C44.9897 42.1667 47.0824 40.0741 47.0824 37.5C47.0824 34.9259 44.9897 32.8333 42.4157 32.8333H25.749C21.4293 32.8333 17.9157 29.3197 17.9157 25C17.9157 20.6803 21.4293 17.1667 25.749 17.1667C26.6246 17.1667 27.3324 17.8758 27.3324 18.75C27.3324 19.6242 26.6246 20.3333 25.749 20.3333C23.175 20.3333 21.0824 22.4259 21.0824 25C21.0824 27.5741 23.175 29.6667 25.749 29.6667H42.4157Z" stroke="white"/>
</g>
</g>
<defs>
<filter id="filter0_f_7462_11505" x="-0.250977" y="-1" width="52" height="52.0039" filterUnits="userSpaceOnUse" color-interpolation-filters="sRGB">
<feFlood flood-opacity="0" result="BackgroundImageFix"/>
<feBlend mode="normal" in="SourceGraphic" in2="BackgroundImageFix" result="shape"/>
<feGaussianBlur stdDeviation="0.5" result="effect1_foregroundBlur_7462_11505"/>
</filter>
<clipPath id="clip0_7462_11505">
<rect width="50" height="50" fill="white" transform="translate(0.749023)"/>
</clipPath>
</defs>
</svg>
