<svg width="8" height="14" viewBox="0 0 8 14" fill="none" xmlns="http://www.w3.org/2000/svg">
<path d="M0.17334 6.71191C0.178223 6.56055 0.20752 6.42139 0.26123 6.29443C0.319824 6.16748 0.407715 6.04541 0.524902 5.92822L6.16455 0.413086C6.3501 0.227539 6.57715 0.134766 6.8457 0.134766C7.03125 0.134766 7.19727 0.178711 7.34375 0.266602C7.49512 0.354492 7.61475 0.474121 7.70264 0.625488C7.79541 0.771973 7.8418 0.935547 7.8418 1.11621C7.8418 1.38965 7.73926 1.62891 7.53418 1.83398L2.51709 6.71191L7.53418 11.5898C7.73926 11.7998 7.8418 12.0391 7.8418 12.3076C7.8418 12.4932 7.79541 12.6592 7.70264 12.8057C7.61475 12.9521 7.49512 13.0693 7.34375 13.1572C7.19727 13.2451 7.03125 13.2891 6.8457 13.2891C6.57715 13.2891 6.3501 13.1963 6.16455 13.0107L0.524902 7.49561C0.402832 7.37842 0.3125 7.25635 0.253906 7.12939C0.200195 6.99756 0.17334 6.8584 0.17334 6.71191Z" fill="white" fill-opacity="0.96"/>
</svg>
