<svg width="18" height="19" viewBox="0 0 18 19" fill="none" xmlns="http://www.w3.org/2000/svg">
<g clip-path="url(#clip0_5008_10462)">
<path d="M4.40107 12.5221C3.61007 11.7914 3.00673 10.881 2.64211 9.86777C2.27748 8.85458 2.1623 7.76845 2.30632 6.70132C2.44872 5.61926 2.85137 4.58787 3.47976 3.69555C4.10815 2.80323 4.94354 2.07658 5.91433 1.57789C6.88511 1.07921 7.96235 0.823351 9.05369 0.832256C10.145 0.841161 11.218 1.11456 12.1805 1.62902C13.143 2.14349 13.9664 2.88367 14.5802 3.78613C15.1939 4.68859 15.5797 5.72641 15.7044 6.81064C15.8291 7.89487 15.6891 8.99318 15.2963 10.0114C14.9035 11.0297 14.2696 11.9375 13.4491 12.6571C12.9207 13.1113 12.5104 13.6871 12.2536 14.3348H9.75007V8.94682C10.1872 8.79225 10.566 8.50639 10.8345 8.12834C11.103 7.75029 11.2481 7.29851 11.2501 6.83482C11.2501 6.6359 11.1711 6.44514 11.0304 6.30449C10.8897 6.16383 10.699 6.08482 10.5001 6.08482C10.3012 6.08482 10.1104 6.16383 9.96974 6.30449C9.82909 6.44514 9.75007 6.6359 9.75007 6.83482C9.75007 7.03373 9.67105 7.22449 9.5304 7.36515C9.38975 7.5058 9.19898 7.58482 9.00007 7.58482C8.80116 7.58482 8.61039 7.5058 8.46974 7.36515C8.32909 7.22449 8.25007 7.03373 8.25007 6.83482C8.25007 6.6359 8.17105 6.44514 8.0304 6.30449C7.88975 6.16383 7.69898 6.08482 7.50007 6.08482C7.30116 6.08482 7.11039 6.16383 6.96974 6.30449C6.82909 6.44514 6.75007 6.6359 6.75007 6.83482C6.75199 7.29851 6.89713 7.75029 7.16563 8.12834C7.43414 8.50639 7.81289 8.79225 8.25007 8.94682V14.3348H5.67232C5.38559 13.6452 4.95173 13.0266 4.40107 12.5221ZM6.00007 15.8348V16.0673C6.00086 16.8011 6.29269 17.5045 6.81153 18.0234C7.33036 18.5422 8.03383 18.834 8.76757 18.8348H9.23257C9.96631 18.834 10.6698 18.5422 11.1886 18.0234C11.7074 17.5045 11.9993 16.8011 12.0001 16.0673V15.8348H6.00007Z" fill="white" fill-opacity="0.96"/>
</g>
<defs>
<clipPath id="clip0_5008_10462">
<rect width="18" height="18" fill="white" transform="translate(0 0.833984)"/>
</clipPath>
</defs>
</svg>
