<svg width="101" height="100" viewBox="0 0 101 100" fill="none" xmlns="http://www.w3.org/2000/svg">
<g clip-path="url(#clip0_7002_29102)">
<path d="M50.1421 0C40.253 0 30.5861 2.93245 22.3636 8.42652C14.1411 13.9206 7.73252 21.7295 3.94814 30.8658C0.163754 40.0021 -0.826413 50.0555 1.10285 59.7545C3.03211 69.4536 7.79415 78.3627 14.7868 85.3553C21.7794 92.348 30.6885 97.11 40.3876 99.0393C50.0866 100.969 60.14 99.9784 69.2763 96.194C78.4126 92.4096 86.2215 86.001 91.7156 77.7785C97.2097 69.5561 100.142 59.8891 100.142 50C100.128 36.7436 94.8553 24.0342 85.4816 14.6605C76.1079 5.28678 63.3985 0.0143378 50.1421 0V0ZM66.8088 54.1667H54.3088V66.6667C54.3088 67.7717 53.8698 68.8316 53.0884 69.613C52.307 70.3944 51.2472 70.8333 50.1421 70.8333C49.037 70.8333 47.9772 70.3944 47.1958 69.613C46.4144 68.8316 45.9754 67.7717 45.9754 66.6667V54.1667H33.4754C32.3704 54.1667 31.3106 53.7277 30.5292 52.9463C29.7478 52.1649 29.3088 51.1051 29.3088 50C29.3088 48.8949 29.7478 47.8351 30.5292 47.0537C31.3106 46.2723 32.3704 45.8333 33.4754 45.8333H45.9754V33.3333C45.9754 32.2283 46.4144 31.1685 47.1958 30.3871C47.9772 29.6057 49.037 29.1667 50.1421 29.1667C51.2472 29.1667 52.307 29.6057 53.0884 30.3871C53.8698 31.1685 54.3088 32.2283 54.3088 33.3333V45.8333H66.8088C67.9138 45.8333 68.9737 46.2723 69.7551 47.0537C70.5365 47.8351 70.9754 48.8949 70.9754 50C70.9754 51.1051 70.5365 52.1649 69.7551 52.9463C68.9737 53.7277 67.9138 54.1667 66.8088 54.1667Z" fill="white" fill-opacity="0.5"/>
<g filter="url(#filter0_f_7002_29102)">
<path d="M22.6414 8.84226C30.7815 3.40317 40.3518 0.500053 50.1418 0.5C63.2658 0.514267 75.8481 5.73404 85.1281 15.0141C94.4081 24.2941 99.6279 36.8765 99.6421 50.0005C99.642 59.7905 96.7389 69.3606 91.2999 77.5007C85.8607 85.641 78.1299 91.9855 69.0849 95.732C60.04 99.4786 50.0872 100.459 40.4851 98.5489C30.8831 96.6389 22.063 91.9245 15.1403 85.0018C8.21763 78.0791 3.50321 69.259 1.59324 59.657C-0.316727 50.0549 0.663538 40.1021 4.41008 31.0572C8.15661 22.0122 14.5012 14.2814 22.6414 8.84226ZM54.8088 66.6667V54.6667H66.8088C68.0465 54.6667 69.2334 54.175 70.1086 53.2998C70.9838 52.4247 71.4754 51.2377 71.4754 50C71.4754 48.7623 70.9838 47.5753 70.1086 46.7002C69.2334 45.825 68.0465 45.3333 66.8088 45.3333H54.8088V33.3333C54.8088 32.0957 54.3171 30.9087 53.4419 30.0335C52.5668 29.1583 51.3798 28.6667 50.1421 28.6667C48.9044 28.6667 47.7175 29.1583 46.8423 30.0335C45.9671 30.9087 45.4754 32.0957 45.4754 33.3333V45.3333H33.4754C32.2378 45.3333 31.0508 45.825 30.1756 46.7002C29.3004 47.5753 28.8088 48.7623 28.8088 50C28.8088 51.2377 29.3004 52.4247 30.1756 53.2998C31.0508 54.175 32.2378 54.6667 33.4754 54.6667H45.4754V66.6667C45.4754 67.9044 45.9671 69.0913 46.8423 69.9665C47.7175 70.8417 48.9044 71.3333 50.1421 71.3333C51.3798 71.3333 52.5668 70.8417 53.4419 69.9665C54.3171 69.0913 54.8088 67.9044 54.8088 66.6667Z" stroke="white"/>
</g>
</g>
<defs>
<filter id="filter0_f_7002_29102" x="-0.85791" y="-1" width="102" height="102" filterUnits="userSpaceOnUse" color-interpolation-filters="sRGB">
<feFlood flood-opacity="0" result="BackgroundImageFix"/>
<feBlend mode="normal" in="SourceGraphic" in2="BackgroundImageFix" result="shape"/>
<feGaussianBlur stdDeviation="0.5" result="effect1_foregroundBlur_7002_29102"/>
</filter>
<clipPath id="clip0_7002_29102">
<rect width="100" height="100" fill="white" transform="translate(0.14209)"/>
</clipPath>
</defs>
</svg>
