<svg width="55" height="30" viewBox="0 0 55 30" fill="none" xmlns="http://www.w3.org/2000/svg">
<g clip-path="url(#clip0_7002_5893)">
<path fill-rule="evenodd" clip-rule="evenodd" d="M0.0268778 15.1008V18.4351H0.756816H27.2478C28.2043 18.4351 28.6159 18.709 28.6055 19.3383C28.5951 19.9498 28.1983 20.2089 27.27 20.2089H0.667979H0.00170758V23.1657C0.00318818 24.1399 0.275619 24.4123 1.2543 24.4123L7.1623 24.413C20.951 24.4148 34.7398 24.4166 48.5285 24.3946C49.3236 24.3946 50.1631 24.2406 50.9019 23.9519C52.9881 23.1346 54.4628 21.6643 54.8477 19.399C55.2593 16.9708 54.4924 14.8447 52.8267 13.0368C52.0143 12.1556 51.2049 11.2717 50.3955 10.3878C49.1338 9.00988 47.872 7.632 46.5993 6.26456C46.3629 6.0104 46.1279 5.75423 45.8929 5.49793C44.9529 4.47316 44.0111 3.4463 42.9688 2.53788C41.0366 0.852948 38.7817 -0.0117248 36.1329 0.000120066C27.6114 0.0393948 19.0906 0.0336532 10.5695 0.0279112C7.52621 0.0258605 4.48284 0.0238097 1.43937 0.0238097C1.38825 0.0238097 1.33712 0.0232535 1.28604 0.0226978C1.13298 0.0210326 0.980341 0.0193719 0.829365 0.0326934C0.362975 0.0741503 0.0416839 0.345101 0.022436 0.798166C-0.00571786 1.46969 -9.10792e-05 2.14268 0.00569932 2.83524C0.00813084 3.12606 0.0105912 3.42033 0.0105912 3.7194H0.709436C1.63339 3.7194 2.55718 3.71907 3.48091 3.71874C5.32821 3.71808 7.17529 3.71742 9.02303 3.7194C9.96913 3.72088 10.2475 3.99479 10.2475 4.94238C10.2504 7.91691 10.2504 10.8914 10.2475 13.866C10.246 14.8343 9.96765 15.1008 8.97861 15.1008H0.610236H0.0268778ZM22.6046 15.1011L22.5908 15.1011C21.7949 15.101 20.999 15.1008 20.2031 15.1008C19.4137 15.1008 18.6242 15.101 17.8346 15.1011H17.8344L17.8206 15.1011C16.2319 15.1015 14.643 15.1018 13.0547 15.1008C12.1101 15.1008 11.8347 14.8269 11.8347 13.8823C11.8317 10.89 11.8317 7.89618 11.8347 4.90388C11.8347 3.99775 12.116 3.72088 13.034 3.72088C17.8193 3.7194 22.6031 3.7194 27.387 3.72088C28.3375 3.72088 28.6099 3.99331 28.6099 4.93942C28.6114 7.93172 28.6114 10.9255 28.6099 13.9178C28.6085 14.8136 28.3183 15.1008 27.4077 15.1008C25.8067 15.1018 24.2056 15.1015 22.6046 15.1011ZM39.321 15.1007C38.7608 15.0993 38.2005 15.0978 37.6401 15.0978C37.0242 15.0978 36.4083 15.0983 35.7926 15.0988H35.7924H35.7922H35.7921H35.7919H35.7918H35.7916C34.5606 15.0998 33.3297 15.1008 32.0982 15.0978C31.0307 15.0964 30.5658 14.6433 30.5643 13.5921C30.5584 10.8011 30.5599 8.01167 30.5643 5.22221C30.5658 4.19319 31.0263 3.72384 32.0449 3.7194C33.8187 3.71199 35.591 3.71496 37.3648 3.7194C38.3716 3.72236 39.2229 4.08955 39.9603 4.78247C41.2821 6.0236 42.6126 7.25456 43.9431 8.48559L43.9448 8.4871L43.9449 8.48724L43.9451 8.48738L43.9452 8.48752L43.9454 8.48766L43.9455 8.4878C44.4443 8.94927 44.9431 9.41076 45.4414 9.87279C46.3135 10.6812 46.6259 11.9826 46.2084 13.0739C45.7494 14.2731 44.6256 15.0756 43.2931 15.0919C41.9687 15.1075 40.645 15.1041 39.321 15.1007ZM8.4424 5.52539H0.0458984V13.2838H8.4424V5.52539ZM39.0983 26.2144H46.1741C46.2186 27.5055 45.7581 28.5434 44.7335 29.2807C43.552 30.132 42.2624 30.2342 40.9743 29.5487C39.6876 28.8632 39.085 27.7409 39.0969 26.2129L39.0983 26.2144ZM11.4346 26.2129H4.3677C4.36326 27.6817 4.92293 28.7891 6.14591 29.4895C7.43107 30.2238 8.73993 30.1617 9.95254 29.3133C11.0023 28.5789 11.5027 27.541 11.4346 26.2129ZM19.9749 26.2256C20.043 27.5729 19.5263 28.6256 18.4425 29.3541C17.215 30.1788 15.9047 30.2143 14.6329 29.4533C13.4454 28.7441 12.8976 27.6514 12.9124 26.2256H19.9749ZM37.6382 26.2144H30.5698V26.2129C30.5298 27.6831 31.1102 28.7817 32.3273 29.4865C33.5873 30.2179 34.8813 30.1617 36.0895 29.3488C37.1763 28.6189 37.6678 27.5573 37.6382 26.2144ZM13.6543 5.51367H26.7932V13.2868H13.6543V5.51367ZM32.3706 5.49113V13.2539C32.3947 13.2648 32.4142 13.276 32.4308 13.2855C32.4571 13.3006 32.4765 13.3117 32.4965 13.3117C33.1712 13.3125 33.8459 13.3135 34.5207 13.3145C37.4457 13.3188 40.3714 13.3231 43.296 13.3146C43.8808 13.3132 44.322 13.0096 44.5412 12.4574C44.7647 11.8947 44.5145 11.455 44.1088 11.0774C43.6315 10.6326 43.1542 10.1877 42.677 9.74272C41.723 8.85317 40.769 7.96361 39.8136 7.07537C38.8585 6.18696 38.5145 5.79321 38.0822 5.6204C37.6506 5.4479 37.1311 5.49556 35.8278 5.49113C35.0705 5.48916 34.3131 5.48981 33.5449 5.49046C33.1567 5.49079 32.7657 5.49113 32.3706 5.49113Z" fill="white" fill-opacity="0.5"/>
<g filter="url(#filter0_f_7002_5893)">
<mask id="path-2-inside-1_7002_5893" fill="white">
<path fill-rule="evenodd" clip-rule="evenodd" d="M0.0268778 15.1008V18.4351H0.756816H27.2478C28.2043 18.4351 28.6159 18.709 28.6055 19.3383C28.5951 19.9498 28.1983 20.2089 27.27 20.2089H0.667979H0.00170758V23.1657C0.00318818 24.1399 0.275619 24.4123 1.2543 24.4123L7.1623 24.413C20.951 24.4148 34.7398 24.4166 48.5285 24.3946C49.3236 24.3946 50.1631 24.2406 50.9019 23.9519C52.9881 23.1346 54.4628 21.6643 54.8477 19.399C55.2593 16.9708 54.4924 14.8447 52.8267 13.0368C52.0143 12.1556 51.2049 11.2717 50.3955 10.3878C49.1338 9.00988 47.872 7.632 46.5993 6.26456C46.3629 6.0104 46.1279 5.75423 45.8929 5.49793C44.9529 4.47316 44.0111 3.4463 42.9688 2.53788C41.0366 0.852948 38.7817 -0.0117248 36.1329 0.000120066C27.6114 0.0393948 19.0906 0.0336532 10.5695 0.0279112C7.52621 0.0258605 4.48284 0.0238097 1.43937 0.0238097C1.38825 0.0238097 1.33712 0.0232535 1.28604 0.0226978C1.13298 0.0210326 0.980341 0.0193719 0.829365 0.0326934C0.362975 0.0741503 0.0416839 0.345101 0.022436 0.798166C-0.00571786 1.46969 -9.10792e-05 2.14268 0.00569932 2.83524C0.00813084 3.12606 0.0105912 3.42033 0.0105912 3.7194H0.709436C1.63339 3.7194 2.55718 3.71907 3.48091 3.71874C5.32821 3.71808 7.17529 3.71742 9.02303 3.7194C9.96913 3.72088 10.2475 3.99479 10.2475 4.94238C10.2504 7.91691 10.2504 10.8914 10.2475 13.866C10.246 14.8343 9.96765 15.1008 8.97861 15.1008H0.610236H0.0268778ZM22.6046 15.1011L22.5908 15.1011C21.7949 15.101 20.999 15.1008 20.2031 15.1008C19.4137 15.1008 18.6242 15.101 17.8346 15.1011H17.8344L17.8206 15.1011C16.2319 15.1015 14.643 15.1018 13.0547 15.1008C12.1101 15.1008 11.8347 14.8269 11.8347 13.8823C11.8317 10.89 11.8317 7.89618 11.8347 4.90388C11.8347 3.99775 12.116 3.72088 13.034 3.72088C17.8193 3.7194 22.6031 3.7194 27.387 3.72088C28.3375 3.72088 28.6099 3.99331 28.6099 4.93942C28.6114 7.93172 28.6114 10.9255 28.6099 13.9178C28.6085 14.8136 28.3183 15.1008 27.4077 15.1008C25.8067 15.1018 24.2056 15.1015 22.6046 15.1011ZM39.321 15.1007C38.7608 15.0993 38.2005 15.0978 37.6401 15.0978C37.0242 15.0978 36.4083 15.0983 35.7926 15.0988H35.7924H35.7922H35.7921H35.7919H35.7918H35.7916C34.5606 15.0998 33.3297 15.1008 32.0982 15.0978C31.0307 15.0964 30.5658 14.6433 30.5643 13.5921C30.5584 10.8011 30.5599 8.01167 30.5643 5.22221C30.5658 4.19319 31.0263 3.72384 32.0449 3.7194C33.8187 3.71199 35.591 3.71496 37.3648 3.7194C38.3716 3.72236 39.2229 4.08955 39.9603 4.78247C41.2821 6.0236 42.6126 7.25456 43.9431 8.48559L43.9448 8.4871L43.9449 8.48724L43.9451 8.48738L43.9452 8.48752L43.9454 8.48766L43.9455 8.4878C44.4443 8.94927 44.9431 9.41076 45.4414 9.87279C46.3135 10.6812 46.6259 11.9826 46.2084 13.0739C45.7494 14.2731 44.6256 15.0756 43.2931 15.0919C41.9687 15.1075 40.645 15.1041 39.321 15.1007ZM8.4424 5.52539H0.0458984V13.2838H8.4424V5.52539ZM39.0983 26.2144H46.1741C46.2186 27.5055 45.7581 28.5434 44.7335 29.2807C43.552 30.132 42.2624 30.2342 40.9743 29.5487C39.6876 28.8632 39.085 27.7409 39.0969 26.2129L39.0983 26.2144ZM11.4346 26.2129H4.3677C4.36326 27.6817 4.92293 28.7891 6.14591 29.4895C7.43107 30.2238 8.73993 30.1617 9.95254 29.3133C11.0023 28.5789 11.5027 27.541 11.4346 26.2129ZM19.9749 26.2256C20.043 27.5729 19.5263 28.6256 18.4425 29.3541C17.215 30.1788 15.9047 30.2143 14.6329 29.4533C13.4454 28.7441 12.8976 27.6514 12.9124 26.2256H19.9749ZM37.6382 26.2144H30.5698V26.2129C30.5298 27.6831 31.1102 28.7817 32.3273 29.4865C33.5873 30.2179 34.8813 30.1617 36.0895 29.3488C37.1763 28.6189 37.6678 27.5573 37.6382 26.2144ZM13.6543 5.51367H26.7932V13.2868H13.6543V5.51367ZM32.3706 5.49113V13.2539C32.3947 13.2648 32.4142 13.276 32.4308 13.2855C32.4571 13.3006 32.4765 13.3117 32.4965 13.3117C33.1712 13.3125 33.8459 13.3135 34.5207 13.3145C37.4457 13.3188 40.3714 13.3231 43.296 13.3146C43.8808 13.3132 44.322 13.0096 44.5412 12.4574C44.7647 11.8947 44.5145 11.455 44.1088 11.0774C43.6315 10.6326 43.1542 10.1877 42.677 9.74272C41.723 8.85317 40.769 7.96361 39.8136 7.07537C38.8585 6.18696 38.5145 5.79321 38.0822 5.6204C37.6506 5.4479 37.1311 5.49556 35.8278 5.49113C35.0705 5.48916 34.3131 5.48981 33.5449 5.49046C33.1567 5.49079 32.7657 5.49113 32.3706 5.49113Z"/>
</mask>
<path fill-rule="evenodd" clip-rule="evenodd" d="M0.0268778 15.1008V18.4351H0.756816H27.2478C28.2043 18.4351 28.6159 18.709 28.6055 19.3383C28.5951 19.9498 28.1983 20.2089 27.27 20.2089H0.667979H0.00170758V23.1657C0.00318818 24.1399 0.275619 24.4123 1.2543 24.4123L7.1623 24.413C20.951 24.4148 34.7398 24.4166 48.5285 24.3946C49.3236 24.3946 50.1631 24.2406 50.9019 23.9519C52.9881 23.1346 54.4628 21.6643 54.8477 19.399C55.2593 16.9708 54.4924 14.8447 52.8267 13.0368C52.0143 12.1556 51.2049 11.2717 50.3955 10.3878C49.1338 9.00988 47.872 7.632 46.5993 6.26456C46.3629 6.0104 46.1279 5.75423 45.8929 5.49793C44.9529 4.47316 44.0111 3.4463 42.9688 2.53788C41.0366 0.852948 38.7817 -0.0117248 36.1329 0.000120066C27.6114 0.0393948 19.0906 0.0336532 10.5695 0.0279112C7.52621 0.0258605 4.48284 0.0238097 1.43937 0.0238097C1.38825 0.0238097 1.33712 0.0232535 1.28604 0.0226978C1.13298 0.0210326 0.980341 0.0193719 0.829365 0.0326934C0.362975 0.0741503 0.0416839 0.345101 0.022436 0.798166C-0.00571786 1.46969 -9.10792e-05 2.14268 0.00569932 2.83524C0.00813084 3.12606 0.0105912 3.42033 0.0105912 3.7194H0.709436C1.63339 3.7194 2.55718 3.71907 3.48091 3.71874C5.32821 3.71808 7.17529 3.71742 9.02303 3.7194C9.96913 3.72088 10.2475 3.99479 10.2475 4.94238C10.2504 7.91691 10.2504 10.8914 10.2475 13.866C10.246 14.8343 9.96765 15.1008 8.97861 15.1008H0.610236H0.0268778ZM22.6046 15.1011L22.5908 15.1011C21.7949 15.101 20.999 15.1008 20.2031 15.1008C19.4137 15.1008 18.6242 15.101 17.8346 15.1011H17.8344L17.8206 15.1011C16.2319 15.1015 14.643 15.1018 13.0547 15.1008C12.1101 15.1008 11.8347 14.8269 11.8347 13.8823C11.8317 10.89 11.8317 7.89618 11.8347 4.90388C11.8347 3.99775 12.116 3.72088 13.034 3.72088C17.8193 3.7194 22.6031 3.7194 27.387 3.72088C28.3375 3.72088 28.6099 3.99331 28.6099 4.93942C28.6114 7.93172 28.6114 10.9255 28.6099 13.9178C28.6085 14.8136 28.3183 15.1008 27.4077 15.1008C25.8067 15.1018 24.2056 15.1015 22.6046 15.1011ZM39.321 15.1007C38.7608 15.0993 38.2005 15.0978 37.6401 15.0978C37.0242 15.0978 36.4083 15.0983 35.7926 15.0988H35.7924H35.7922H35.7921H35.7919H35.7918H35.7916C34.5606 15.0998 33.3297 15.1008 32.0982 15.0978C31.0307 15.0964 30.5658 14.6433 30.5643 13.5921C30.5584 10.8011 30.5599 8.01167 30.5643 5.22221C30.5658 4.19319 31.0263 3.72384 32.0449 3.7194C33.8187 3.71199 35.591 3.71496 37.3648 3.7194C38.3716 3.72236 39.2229 4.08955 39.9603 4.78247C41.2821 6.0236 42.6126 7.25456 43.9431 8.48559L43.9448 8.4871L43.9449 8.48724L43.9451 8.48738L43.9452 8.48752L43.9454 8.48766L43.9455 8.4878C44.4443 8.94927 44.9431 9.41076 45.4414 9.87279C46.3135 10.6812 46.6259 11.9826 46.2084 13.0739C45.7494 14.2731 44.6256 15.0756 43.2931 15.0919C41.9687 15.1075 40.645 15.1041 39.321 15.1007ZM8.4424 5.52539H0.0458984V13.2838H8.4424V5.52539ZM39.0983 26.2144H46.1741C46.2186 27.5055 45.7581 28.5434 44.7335 29.2807C43.552 30.132 42.2624 30.2342 40.9743 29.5487C39.6876 28.8632 39.085 27.7409 39.0969 26.2129L39.0983 26.2144ZM11.4346 26.2129H4.3677C4.36326 27.6817 4.92293 28.7891 6.14591 29.4895C7.43107 30.2238 8.73993 30.1617 9.95254 29.3133C11.0023 28.5789 11.5027 27.541 11.4346 26.2129ZM19.9749 26.2256C20.043 27.5729 19.5263 28.6256 18.4425 29.3541C17.215 30.1788 15.9047 30.2143 14.6329 29.4533C13.4454 28.7441 12.8976 27.6514 12.9124 26.2256H19.9749ZM37.6382 26.2144H30.5698V26.2129C30.5298 27.6831 31.1102 28.7817 32.3273 29.4865C33.5873 30.2179 34.8813 30.1617 36.0895 29.3488C37.1763 28.6189 37.6678 27.5573 37.6382 26.2144ZM13.6543 5.51367H26.7932V13.2868H13.6543V5.51367ZM32.3706 5.49113V13.2539C32.3947 13.2648 32.4142 13.276 32.4308 13.2855C32.4571 13.3006 32.4765 13.3117 32.4965 13.3117C33.1712 13.3125 33.8459 13.3135 34.5207 13.3145C37.4457 13.3188 40.3714 13.3231 43.296 13.3146C43.8808 13.3132 44.322 13.0096 44.5412 12.4574C44.7647 11.8947 44.5145 11.455 44.1088 11.0774C43.6315 10.6326 43.1542 10.1877 42.677 9.74272C41.723 8.85317 40.769 7.96361 39.8136 7.07537C38.8585 6.18696 38.5145 5.79321 38.0822 5.6204C37.6506 5.4479 37.1311 5.49556 35.8278 5.49113C35.0705 5.48916 34.3131 5.48981 33.5449 5.49046C33.1567 5.49079 32.7657 5.49113 32.3706 5.49113Z" stroke="white" stroke-width="2" mask="url(#path-2-inside-1_7002_5893)"/>
</g>
</g>
<defs>
<filter id="filter0_f_7002_5893" x="-0.999023" y="-1" width="56.9561" height="32" filterUnits="userSpaceOnUse" color-interpolation-filters="sRGB">
<feFlood flood-opacity="0" result="BackgroundImageFix"/>
<feBlend mode="normal" in="SourceGraphic" in2="BackgroundImageFix" result="shape"/>
<feGaussianBlur stdDeviation="0.5" result="effect1_foregroundBlur_7002_5893"/>
</filter>
<clipPath id="clip0_7002_5893">
<rect width="54.9556" height="30" fill="white"/>
</clipPath>
</defs>
</svg>
