<svg width="100" height="100" viewBox="0 0 100 100" fill="none" xmlns="http://www.w3.org/2000/svg">
<g clip-path="url(#clip0_7002_27231)">
<path d="M37.5 37.5H8.33333C3.7375 37.5 0 33.7625 0 29.1667V20.8333C0 9.34583 9.34583 0 20.8333 0H37.5C42.0958 0 45.8333 3.7375 45.8333 8.33333V29.1667C45.8333 33.7625 42.0958 37.5 37.5 37.5ZM79.1667 100H62.5C57.9042 100 54.1667 96.2625 54.1667 91.6667V70.8333C54.1667 66.2375 57.9042 62.5 62.5 62.5H91.6667C96.2625 62.5 100 66.2375 100 70.8333V79.1667C100 90.6542 90.6542 100 79.1667 100ZM91.6667 54.1667H62.5C57.9042 54.1667 54.1667 50.4292 54.1667 45.8333V8.33333C54.1667 3.7375 57.9042 0 62.5 0H79.1667C90.6542 0 100 9.34583 100 20.8333V45.8333C100 50.4292 96.2625 54.1667 91.6667 54.1667ZM37.5 100H20.8333C9.34583 100 0 90.6542 0 79.1667V54.1667C0 49.5708 3.7375 45.8333 8.33333 45.8333H37.5C42.0958 45.8333 45.8333 49.5708 45.8333 54.1667V91.6667C45.8333 96.2625 42.0958 100 37.5 100Z" fill="white" fill-opacity="0.5"/>
<g filter="url(#filter0_f_7002_27231)">
<path d="M37.5 37H8.33333C4.01364 37 0.5 33.4864 0.5 29.1667V20.8333C0.5 9.62197 9.62197 0.5 20.8333 0.5H37.5C41.8197 0.5 45.3333 4.01364 45.3333 8.33333V29.1667C45.3333 33.4864 41.8197 37 37.5 37ZM79.1667 99.5H62.5C58.1803 99.5 54.6667 95.9864 54.6667 91.6667V70.8333C54.6667 66.5136 58.1803 63 62.5 63H91.6667C95.9864 63 99.5 66.5136 99.5 70.8333V79.1667C99.5 90.378 90.378 99.5 79.1667 99.5ZM91.6667 53.6667H62.5C58.1803 53.6667 54.6667 50.153 54.6667 45.8333V8.33333C54.6667 4.01364 58.1803 0.5 62.5 0.5H79.1667C90.378 0.5 99.5 9.62197 99.5 20.8333V45.8333C99.5 50.153 95.9864 53.6667 91.6667 53.6667ZM37.5 99.5H20.8333C9.62197 99.5 0.5 90.378 0.5 79.1667V54.1667C0.5 49.847 4.01364 46.3333 8.33333 46.3333H37.5C41.8197 46.3333 45.3333 49.847 45.3333 54.1667V91.6667C45.3333 95.9864 41.8197 99.5 37.5 99.5Z" stroke="white"/>
</g>
</g>
<defs>
<filter id="filter0_f_7002_27231" x="-1" y="-1" width="102" height="102" filterUnits="userSpaceOnUse" color-interpolation-filters="sRGB">
<feFlood flood-opacity="0" result="BackgroundImageFix"/>
<feBlend mode="normal" in="SourceGraphic" in2="BackgroundImageFix" result="shape"/>
<feGaussianBlur stdDeviation="0.5" result="effect1_foregroundBlur_7002_27231"/>
</filter>
<clipPath id="clip0_7002_27231">
<rect width="100" height="100" fill="white"/>
</clipPath>
</defs>
</svg>
