<svg width="61" height="29" viewBox="0 0 61 29" fill="none" xmlns="http://www.w3.org/2000/svg">
<path d="M56.332 0.046875H3.83203C1.76128 0.046875 0.0820312 1.72613 0.0820312 3.79688V18.7969H60.082V3.79688C60.082 1.72613 58.4028 0.046875 56.332 0.046875ZM11.332 15.0469H3.83203V3.79688H11.332V15.0469ZM22.582 11.2969H15.082V3.79688H22.582V11.2969ZM33.832 11.2969H26.332V3.79688H33.832V11.2969ZM45.082 11.2969H37.582V3.79688H45.082V11.2969ZM56.332 15.0469H48.832V3.79688H56.332V15.0469Z" fill="#3994EF"/>
<path d="M0.0820312 20.7969V24.4314H3.84403C3.84253 24.4711 3.83203 24.5071 3.83203 24.5469C3.83203 26.6176 5.51128 28.2969 7.58203 28.2969C9.65278 28.2969 11.332 26.6176 11.332 24.5469H15.082C15.082 26.6176 16.7613 28.2969 18.832 28.2969C20.9028 28.2969 22.582 26.6176 22.582 24.5469C22.582 24.5071 22.5715 24.4711 22.57 24.4314H37.5933C37.5925 24.4711 37.582 24.5071 37.582 24.5469C37.582 26.6176 39.2613 28.2969 41.332 28.2969C43.4028 28.2969 45.082 26.6176 45.082 24.5469H48.832C48.832 26.6176 50.5113 28.2969 52.582 28.2969C54.6528 28.2969 56.332 26.6176 56.332 24.5469C56.332 24.5071 56.3215 24.4711 56.32 24.4314H60.082V20.7969H0.0820312Z" fill="#3994EF"/>
</svg>
