<svg width="64" height="29" viewBox="0 0 64 29" fill="none" xmlns="http://www.w3.org/2000/svg">
<path d="M0.266357 20.7969V24.4314H4.02836C4.02686 24.4711 4.01636 24.5071 4.01636 24.5469C4.01636 26.6176 5.69561 28.2969 7.76636 28.2969C9.83711 28.2969 11.5164 26.6176 11.5164 24.5469H15.2664C15.2664 26.6176 16.9456 28.2969 19.0164 28.2969C21.0871 28.2969 22.7664 26.6176 22.7664 24.5469C22.7664 24.5071 22.7559 24.4711 22.7544 24.4314H40.7776C40.7769 24.4711 40.7664 24.5071 40.7664 24.5469C40.7664 26.6176 42.4456 28.2969 44.5164 28.2969C46.5871 28.2969 48.2664 26.6176 48.2664 24.5469H52.0164C52.0164 26.6176 53.6956 28.2969 55.7664 28.2969C57.8371 28.2969 59.5164 26.6176 59.5164 24.5469C59.5164 24.5071 59.5059 24.4711 59.5044 24.4314H63.748V20.7969L0.266357 20.7969Z" fill="#DBDBDB"/>
<path d="M0.266357 18.7974V14.443V13.043L1.76636 5.04297C3.46636 4.04297 5.36636 3.04297 8.56636 2.04297H14.2664V5.04297H19.6664V1.04297H23.2664V5.04297H26.1664V2.84297H27.1664V1.04297H33.7664L33.8664 0.0429688L48.7664 1.54297V1.84297V5.04297H49.7664V2.04297H55.4664C58.5664 3.04297 60.5664 4.04297 62.2664 5.04297L63.7664 13.043V14.443V18.7974H0.266357ZM4.96636 12.343V7.94297C4.96636 7.74297 4.76636 7.54297 4.56636 7.54297H2.16636L1.36636 12.743H4.46636C4.86636 12.743 4.96636 12.543 4.96636 12.343ZM8.46636 12.343V7.94297C8.46636 7.74297 8.26636 7.54297 8.06636 7.54297H6.26636C6.06636 7.54297 5.86636 7.74297 5.86636 7.94297V12.343C5.86636 12.543 6.06636 12.743 6.26636 12.743H8.06636C8.26636 12.743 8.46636 12.543 8.46636 12.343ZM12.6664 12.343V7.94297C12.6664 7.74297 12.4664 7.54297 12.2664 7.54297H10.4664C10.2664 7.54297 10.0664 7.74297 10.0664 7.94297V12.343C10.0664 12.543 10.2664 12.743 10.4664 12.743H12.2664C12.5664 12.743 12.6664 12.543 12.6664 12.343ZM53.4664 12.343V7.94297C53.4664 7.74297 53.2664 7.54297 53.0664 7.54297H51.2664C51.0664 7.54297 50.8664 7.74297 50.8664 7.94297V12.343C50.8664 12.543 51.0664 12.743 51.2664 12.743H53.0664C53.2664 12.743 53.4664 12.543 53.4664 12.343ZM58.0664 12.343V7.94297C58.0664 7.74297 57.8664 7.54297 57.6664 7.54297H55.8664C55.6664 7.54297 55.4664 7.74297 55.4664 7.94297V12.343C55.4664 12.543 55.6664 12.743 55.8664 12.743H57.6664C57.8664 12.743 58.0664 12.543 58.0664 12.343ZM62.4664 12.743L61.6664 7.54297H59.2664C59.0664 7.54297 58.8664 7.74297 58.8664 7.94297V12.343C58.8664 12.543 59.0664 12.743 59.2664 12.743H62.4664ZM41.3664 5.04297V3.44297H46.2664V2.74297L35.9664 1.74297V2.84297H36.9664V5.04297H41.3664Z" fill="#DBDBDB"/>
</svg>
