<svg width="101" height="139" viewBox="0 0 101 139" fill="none" xmlns="http://www.w3.org/2000/svg">
<g clip-path="url(#clip0_7002_27225)">
<path d="M95.4095 66.6892C92.0056 66.6892 88.7887 66.6296 85.5717 66.7011C80.8755 66.8045 77.0064 70.3953 76.4139 75.0915C75.8453 79.565 78.7123 83.9948 83.1024 85.2792C84.1323 85.5814 85.2457 85.6887 86.3233 85.7086C89.2897 85.7643 92.2562 85.7285 95.3777 85.7285C95.3777 88.2893 95.4652 90.7547 95.3419 93.2082C95.2743 94.5085 94.2603 95.0931 92.9998 95.2998C86.0608 96.449 79.1259 97.638 72.187 98.7912C65.2958 99.9364 58.4244 101.217 51.5014 102.112C49.1752 102.414 46.6979 101.837 44.3239 101.451C32.0526 99.4433 19.7931 97.3636 7.52974 95.3038C5.50572 94.9618 4.92914 94.2739 4.92516 92.2181C4.91721 89.3431 4.92516 86.4681 4.92516 83.4381C5.38245 83.4062 5.80396 83.3506 6.22546 83.3506C9.00103 83.3426 11.7806 83.3824 14.5561 83.3347C19.8289 83.2432 23.9804 79.0123 23.9684 73.7951C23.9565 68.582 19.7931 64.3789 14.5084 64.3073C11.3869 64.2636 8.26538 64.2994 5.04048 64.2994C4.99674 63.8659 4.92914 63.4882 4.92914 63.1144C4.92118 58.947 4.91721 54.7837 4.92914 50.6164C4.93311 48.652 5.458 48.0078 7.43431 47.5664C21.3519 44.4568 35.2695 41.3393 49.203 38.2973C50.2091 38.0786 51.3662 38.3092 52.4041 38.5359C65.7053 41.4586 78.9986 44.421 92.292 47.3716C95.0039 47.972 95.4095 48.481 95.4135 51.3162C95.4135 56.3703 95.4135 61.4204 95.4135 66.6892H95.4095ZM35.8819 61.9652C35.9058 69.8346 42.3118 76.2049 50.2091 76.2049C58.0507 76.2049 64.4965 69.7232 64.4488 61.8777C64.4011 53.9963 58.0029 47.638 50.1136 47.638C42.2721 47.638 35.858 54.0918 35.8779 61.9691L35.8819 61.9652ZM18.7632 49.8847C16.4569 50.4255 13.7449 50.9742 11.0887 51.7337C9.91164 52.0717 9.4623 53.1931 9.76849 54.39C10.0906 55.6466 11.0489 56.3941 12.3134 56.1675C14.8862 55.7062 17.447 55.1217 19.9721 54.4417C21.2247 54.1077 21.7893 53.046 21.5189 51.7655C21.2684 50.5686 20.4214 49.9324 18.7593 49.8847H18.7632ZM26.3623 49.8966C26.2986 51.1691 27.3086 52.2984 28.5811 52.3779C29.9053 52.4614 31.0783 51.3798 31.1062 50.0477C31.13 48.7753 30.0882 47.6817 28.8118 47.638C27.5433 47.5942 26.4299 48.6241 26.3662 49.8966H26.3623Z" fill="white" fill-opacity="0.5"/>
<path d="M9.77246 42.1425C9.77246 38.0269 9.48218 34.0942 9.84404 30.2171C10.3411 24.8489 14.3653 20.952 19.7255 19.9618C23.9128 19.1904 28.088 18.3434 32.2872 17.6316C33.333 17.4567 33.5358 17.0272 33.5199 16.0848C33.4682 13.2575 33.492 10.4342 33.504 7.60697C33.5199 3.04994 36.5022 0.0238588 41.0195 0.0119294C47.1194 -0.00397646 53.2193 -0.00397646 59.3152 0.0119294C63.7688 0.0238588 66.7989 3.03404 66.8307 7.46381C66.8506 10.3388 66.8665 13.2178 66.8187 16.0927C66.8028 17.0352 67.0096 17.4487 68.0594 17.6276C72.2069 18.3275 76.3384 19.1506 80.4699 19.9499C86.8521 21.1786 90.6338 25.7714 90.6497 32.3008C90.6576 35.5177 90.6497 38.7347 90.6497 42.1465C77.8972 39.3192 65.3037 36.5278 52.5791 33.7045V14.5697H47.8431V33.6965C35.1105 36.5238 22.4773 39.3272 9.76849 42.1465L9.77246 42.1425ZM14.4567 31.426C14.4448 32.8734 15.256 33.8953 16.5404 34.0504C17.8487 34.2055 18.9104 33.3864 19.1847 32.0105C19.5903 29.9706 19.9959 29.5809 22.0279 29.2071C23.6344 28.9128 25.2449 28.6464 26.8354 28.2766C28.1994 27.9585 28.9549 26.7337 28.6805 25.501C28.4022 24.2445 27.245 23.4571 25.8692 23.6838C23.869 24.0138 21.8609 24.3399 19.8886 24.7932C16.7909 25.509 14.4846 28.3959 14.4607 31.426H14.4567ZM59.852 20.8923C58.4205 21.0673 57.5337 21.7035 57.3548 23.0118C57.1878 24.2484 57.7763 25.2505 58.9573 25.5289C61.5062 26.1293 64.0869 26.6304 66.6835 27.0002C67.956 27.1791 68.8746 26.3639 69.141 25.0994C69.3955 23.8826 68.8706 22.797 67.6936 22.5028C65.0572 21.8427 62.3691 21.4013 59.852 20.8963V20.8923ZM38.2479 23.9343C38.3155 22.6658 37.3094 21.5365 36.033 21.449C34.7685 21.3615 33.6193 22.3517 33.5159 23.6281C33.4046 24.9563 34.4663 26.1452 35.7984 26.1929C37.0669 26.2367 38.1843 25.2108 38.2519 23.9383L38.2479 23.9343ZM78.7282 26.2168C78.7442 24.9443 77.6904 23.8588 76.4139 23.8269C75.1415 23.7951 74.04 24.833 73.9883 26.1055C73.9326 27.4376 75.0421 28.5828 76.3742 28.5709C77.6506 28.5589 78.7163 27.4932 78.7282 26.2168Z" fill="white" fill-opacity="0.5"/>
<path d="M90.0373 100.62C91.7671 104.1 93.5048 107.488 95.1351 110.931C95.8906 112.526 95.0755 113.878 93.1827 114.327C89.8106 115.122 86.4227 115.862 83.0427 116.622C82.8558 116.661 82.6769 116.717 82.323 116.808C82.7644 117.278 83.1143 117.675 83.4841 118.049C88.5302 123.099 93.5803 128.149 98.6304 133.199C98.9446 133.514 99.2786 133.82 99.553 134.17C100.392 135.251 100.324 136.508 99.4098 137.399C98.4952 138.289 97.2546 138.325 96.177 137.462C95.831 137.184 95.5288 136.85 95.2146 136.536C89.3573 130.678 83.4881 124.841 77.6665 118.948C76.9388 118.212 76.2947 118.069 75.3244 118.288C67.3079 120.105 59.2834 121.882 51.2509 123.632C50.555 123.783 49.7677 123.779 49.0678 123.628C41.0394 121.878 33.0149 120.101 24.9983 118.284C24.0241 118.065 23.3879 118.228 22.6641 118.96C16.8068 124.885 10.9018 130.762 5.00469 136.647C4.61897 137.033 4.24121 137.446 3.78789 137.729C2.7222 138.393 1.66844 138.242 0.821453 137.339C0.0182083 136.488 -0.0772267 135.474 0.559007 134.472C0.821453 134.062 1.19922 133.716 1.54915 133.37C6.66685 128.249 11.7846 123.131 16.9023 118.005C17.2482 117.659 17.5703 117.298 18.0634 116.773C14.7232 116.025 11.5658 115.317 8.40854 114.61C7.82798 114.478 7.23548 114.399 6.67083 114.212C5.25123 113.747 4.52354 112.363 5.15579 111.027C6.72252 107.714 8.37275 104.442 10.0588 101.189C10.2019 100.915 10.8739 100.724 11.2557 100.787C20.1033 102.227 28.947 103.706 37.7906 105.181C41.5523 105.81 45.2902 106.736 49.0798 106.999C51.6923 107.177 54.3804 106.541 57.0088 106.112C67.956 104.326 78.8953 102.477 90.0373 100.62Z" fill="white" fill-opacity="0.5"/>
<path d="M4.99276 78.5828V69.1745C8.48807 69.1745 11.9953 68.9717 15.4628 69.2461C17.8248 69.433 19.3915 71.8904 19.1927 74.2246C18.9859 76.6144 17.0056 78.5192 14.5243 78.5669C11.4068 78.6265 8.28527 78.5788 4.99276 78.5788V78.5828Z" fill="white" fill-opacity="0.5"/>
<path d="M95.3419 71.453V80.9687C94.0774 80.9687 92.8129 80.9687 91.5483 80.9687C89.5681 80.9687 87.5838 81.0323 85.6035 80.9408C83.0586 80.8215 81.0783 78.6186 81.13 76.1055C81.1777 73.656 83.166 71.5365 85.6592 71.4729C88.8284 71.3934 91.9977 71.453 95.3419 71.453Z" fill="white" fill-opacity="0.5"/>
<path d="M50.1494 71.4411C44.8965 71.4331 40.6218 67.1266 40.6457 61.8658C40.6696 56.6129 44.988 52.358 50.2568 52.3978C55.4501 52.4376 59.677 56.6964 59.685 61.8976C59.6929 67.1584 55.4063 71.449 50.1494 71.4411Z" fill="white" fill-opacity="0.5"/>
<g filter="url(#filter0_f_7002_27225)">
<mask id="path-2-inside-1_7002_27225" fill="white">
<path d="M95.4095 66.6892C92.0056 66.6892 88.7887 66.6296 85.5717 66.7011C80.8755 66.8045 77.0064 70.3953 76.4139 75.0915C75.8453 79.565 78.7123 83.9948 83.1024 85.2792C84.1323 85.5814 85.2457 85.6887 86.3233 85.7086C89.2897 85.7643 92.2562 85.7285 95.3777 85.7285C95.3777 88.2893 95.4652 90.7547 95.3419 93.2082C95.2743 94.5085 94.2603 95.0931 92.9998 95.2998C86.0608 96.449 79.1259 97.638 72.187 98.7912C65.2958 99.9364 58.4244 101.217 51.5014 102.112C49.1752 102.414 46.6979 101.837 44.3239 101.451C32.0526 99.4433 19.7931 97.3636 7.52974 95.3038C5.50572 94.9618 4.92914 94.2739 4.92516 92.2181C4.91721 89.3431 4.92516 86.4681 4.92516 83.4381C5.38245 83.4062 5.80396 83.3506 6.22546 83.3506C9.00103 83.3426 11.7806 83.3824 14.5561 83.3347C19.8289 83.2432 23.9804 79.0123 23.9684 73.7951C23.9565 68.582 19.7931 64.3789 14.5084 64.3073C11.3869 64.2636 8.26538 64.2994 5.04048 64.2994C4.99674 63.8659 4.92914 63.4882 4.92914 63.1144C4.92118 58.947 4.91721 54.7837 4.92914 50.6164C4.93311 48.652 5.458 48.0078 7.43431 47.5664C21.3519 44.4568 35.2695 41.3393 49.203 38.2973C50.2091 38.0786 51.3662 38.3092 52.4041 38.5359C65.7053 41.4586 78.9986 44.421 92.292 47.3716C95.0039 47.972 95.4095 48.481 95.4135 51.3162C95.4135 56.3703 95.4135 61.4204 95.4135 66.6892H95.4095ZM35.8819 61.9652C35.9058 69.8346 42.3118 76.2049 50.2091 76.2049C58.0507 76.2049 64.4965 69.7232 64.4488 61.8777C64.4011 53.9963 58.0029 47.638 50.1136 47.638C42.2721 47.638 35.858 54.0918 35.8779 61.9691L35.8819 61.9652ZM18.7632 49.8847C16.4569 50.4255 13.7449 50.9742 11.0887 51.7337C9.91164 52.0717 9.4623 53.1931 9.76849 54.39C10.0906 55.6466 11.0489 56.3941 12.3134 56.1675C14.8862 55.7062 17.447 55.1217 19.9721 54.4417C21.2247 54.1077 21.7893 53.046 21.5189 51.7655C21.2684 50.5686 20.4214 49.9324 18.7593 49.8847H18.7632ZM26.3623 49.8966C26.2986 51.1691 27.3086 52.2984 28.5811 52.3779C29.9053 52.4614 31.0783 51.3798 31.1062 50.0477C31.13 48.7753 30.0882 47.6817 28.8118 47.638C27.5433 47.5942 26.4299 48.6241 26.3662 49.8966H26.3623Z"/>
<path d="M9.77246 42.1425C9.77246 38.0269 9.48218 34.0942 9.84404 30.2171C10.3411 24.8489 14.3653 20.952 19.7255 19.9618C23.9128 19.1904 28.088 18.3434 32.2872 17.6316C33.333 17.4567 33.5358 17.0272 33.5199 16.0848C33.4682 13.2575 33.492 10.4342 33.504 7.60697C33.5199 3.04994 36.5022 0.0238588 41.0195 0.0119294C47.1194 -0.00397646 53.2193 -0.00397646 59.3152 0.0119294C63.7688 0.0238588 66.7989 3.03404 66.8307 7.46381C66.8506 10.3388 66.8665 13.2178 66.8187 16.0927C66.8028 17.0352 67.0096 17.4487 68.0594 17.6276C72.2069 18.3275 76.3384 19.1506 80.4699 19.9499C86.8521 21.1786 90.6338 25.7714 90.6497 32.3008C90.6576 35.5177 90.6497 38.7347 90.6497 42.1465C77.8972 39.3192 65.3037 36.5278 52.5791 33.7045V14.5697H47.8431V33.6965C35.1105 36.5238 22.4773 39.3272 9.76849 42.1465L9.77246 42.1425ZM14.4567 31.426C14.4448 32.8734 15.256 33.8953 16.5404 34.0504C17.8487 34.2055 18.9104 33.3864 19.1847 32.0105C19.5903 29.9706 19.9959 29.5809 22.0279 29.2071C23.6344 28.9128 25.2449 28.6464 26.8354 28.2766C28.1994 27.9585 28.9549 26.7337 28.6805 25.501C28.4022 24.2445 27.245 23.4571 25.8692 23.6838C23.869 24.0138 21.8609 24.3399 19.8886 24.7932C16.7909 25.509 14.4846 28.3959 14.4607 31.426H14.4567ZM59.852 20.8923C58.4205 21.0673 57.5337 21.7035 57.3548 23.0118C57.1878 24.2484 57.7763 25.2505 58.9573 25.5289C61.5062 26.1293 64.0869 26.6304 66.6835 27.0002C67.956 27.1791 68.8746 26.3639 69.141 25.0994C69.3955 23.8826 68.8706 22.797 67.6936 22.5028C65.0572 21.8427 62.3691 21.4013 59.852 20.8963V20.8923ZM38.2479 23.9343C38.3155 22.6658 37.3094 21.5365 36.033 21.449C34.7685 21.3615 33.6193 22.3517 33.5159 23.6281C33.4046 24.9563 34.4663 26.1452 35.7984 26.1929C37.0669 26.2367 38.1843 25.2108 38.2519 23.9383L38.2479 23.9343ZM78.7282 26.2168C78.7442 24.9443 77.6904 23.8588 76.4139 23.8269C75.1415 23.7951 74.04 24.833 73.9883 26.1055C73.9326 27.4376 75.0421 28.5828 76.3742 28.5709C77.6506 28.5589 78.7163 27.4932 78.7282 26.2168Z"/>
<path d="M90.0373 100.62C91.7671 104.1 93.5048 107.488 95.1351 110.931C95.8906 112.526 95.0755 113.878 93.1827 114.327C89.8106 115.122 86.4227 115.862 83.0427 116.622C82.8558 116.661 82.6769 116.717 82.323 116.808C82.7644 117.278 83.1143 117.675 83.4841 118.049C88.5302 123.099 93.5803 128.149 98.6304 133.199C98.9446 133.514 99.2786 133.82 99.553 134.17C100.392 135.251 100.324 136.508 99.4098 137.399C98.4952 138.289 97.2546 138.325 96.177 137.462C95.831 137.184 95.5288 136.85 95.2146 136.536C89.3573 130.678 83.4881 124.841 77.6665 118.948C76.9388 118.212 76.2947 118.069 75.3244 118.288C67.3079 120.105 59.2834 121.882 51.2509 123.632C50.555 123.783 49.7677 123.779 49.0678 123.628C41.0394 121.878 33.0149 120.101 24.9983 118.284C24.0241 118.065 23.3879 118.228 22.6641 118.96C16.8068 124.885 10.9018 130.762 5.00469 136.647C4.61897 137.033 4.24121 137.446 3.78789 137.729C2.7222 138.393 1.66844 138.242 0.821453 137.339C0.0182083 136.488 -0.0772267 135.474 0.559007 134.472C0.821453 134.062 1.19922 133.716 1.54915 133.37C6.66685 128.249 11.7846 123.131 16.9023 118.005C17.2482 117.659 17.5703 117.298 18.0634 116.773C14.7232 116.025 11.5658 115.317 8.40854 114.61C7.82798 114.478 7.23548 114.399 6.67083 114.212C5.25123 113.747 4.52354 112.363 5.15579 111.027C6.72252 107.714 8.37275 104.442 10.0588 101.189C10.2019 100.915 10.8739 100.724 11.2557 100.787C20.1033 102.227 28.947 103.706 37.7906 105.181C41.5523 105.81 45.2902 106.736 49.0798 106.999C51.6923 107.177 54.3804 106.541 57.0088 106.112C67.956 104.326 78.8953 102.477 90.0373 100.62Z"/>
<path d="M4.99276 78.5828V69.1745C8.48807 69.1745 11.9953 68.9717 15.4628 69.2461C17.8248 69.433 19.3915 71.8904 19.1927 74.2246C18.9859 76.6144 17.0056 78.5192 14.5243 78.5669C11.4068 78.6265 8.28527 78.5788 4.99276 78.5788V78.5828Z"/>
<path d="M95.3419 71.453V80.9687C94.0774 80.9687 92.8129 80.9687 91.5483 80.9687C89.5681 80.9687 87.5838 81.0323 85.6035 80.9408C83.0586 80.8215 81.0783 78.6186 81.13 76.1055C81.1777 73.656 83.166 71.5365 85.6592 71.4729C88.8284 71.3934 91.9977 71.453 95.3419 71.453Z"/>
<path d="M50.1494 71.4411C44.8965 71.4331 40.6218 67.1266 40.6457 61.8658C40.6696 56.6129 44.988 52.358 50.2568 52.3978C55.4501 52.4376 59.677 56.6964 59.685 61.8976C59.6929 67.1584 55.4063 71.449 50.1494 71.4411Z"/>
</mask>
<path d="M95.4095 66.6892C92.0056 66.6892 88.7887 66.6296 85.5717 66.7011C80.8755 66.8045 77.0064 70.3953 76.4139 75.0915C75.8453 79.565 78.7123 83.9948 83.1024 85.2792C84.1323 85.5814 85.2457 85.6887 86.3233 85.7086C89.2897 85.7643 92.2562 85.7285 95.3777 85.7285C95.3777 88.2893 95.4652 90.7547 95.3419 93.2082C95.2743 94.5085 94.2603 95.0931 92.9998 95.2998C86.0608 96.449 79.1259 97.638 72.187 98.7912C65.2958 99.9364 58.4244 101.217 51.5014 102.112C49.1752 102.414 46.6979 101.837 44.3239 101.451C32.0526 99.4433 19.7931 97.3636 7.52974 95.3038C5.50572 94.9618 4.92914 94.2739 4.92516 92.2181C4.91721 89.3431 4.92516 86.4681 4.92516 83.4381C5.38245 83.4062 5.80396 83.3506 6.22546 83.3506C9.00103 83.3426 11.7806 83.3824 14.5561 83.3347C19.8289 83.2432 23.9804 79.0123 23.9684 73.7951C23.9565 68.582 19.7931 64.3789 14.5084 64.3073C11.3869 64.2636 8.26538 64.2994 5.04048 64.2994C4.99674 63.8659 4.92914 63.4882 4.92914 63.1144C4.92118 58.947 4.91721 54.7837 4.92914 50.6164C4.93311 48.652 5.458 48.0078 7.43431 47.5664C21.3519 44.4568 35.2695 41.3393 49.203 38.2973C50.2091 38.0786 51.3662 38.3092 52.4041 38.5359C65.7053 41.4586 78.9986 44.421 92.292 47.3716C95.0039 47.972 95.4095 48.481 95.4135 51.3162C95.4135 56.3703 95.4135 61.4204 95.4135 66.6892H95.4095ZM35.8819 61.9652C35.9058 69.8346 42.3118 76.2049 50.2091 76.2049C58.0507 76.2049 64.4965 69.7232 64.4488 61.8777C64.4011 53.9963 58.0029 47.638 50.1136 47.638C42.2721 47.638 35.858 54.0918 35.8779 61.9691L35.8819 61.9652ZM18.7632 49.8847C16.4569 50.4255 13.7449 50.9742 11.0887 51.7337C9.91164 52.0717 9.4623 53.1931 9.76849 54.39C10.0906 55.6466 11.0489 56.3941 12.3134 56.1675C14.8862 55.7062 17.447 55.1217 19.9721 54.4417C21.2247 54.1077 21.7893 53.046 21.5189 51.7655C21.2684 50.5686 20.4214 49.9324 18.7593 49.8847H18.7632ZM26.3623 49.8966C26.2986 51.1691 27.3086 52.2984 28.5811 52.3779C29.9053 52.4614 31.0783 51.3798 31.1062 50.0477C31.13 48.7753 30.0882 47.6817 28.8118 47.638C27.5433 47.5942 26.4299 48.6241 26.3662 49.8966H26.3623Z" stroke="white" stroke-width="2" mask="url(#path-2-inside-1_7002_27225)"/>
<path d="M9.77246 42.1425C9.77246 38.0269 9.48218 34.0942 9.84404 30.2171C10.3411 24.8489 14.3653 20.952 19.7255 19.9618C23.9128 19.1904 28.088 18.3434 32.2872 17.6316C33.333 17.4567 33.5358 17.0272 33.5199 16.0848C33.4682 13.2575 33.492 10.4342 33.504 7.60697C33.5199 3.04994 36.5022 0.0238588 41.0195 0.0119294C47.1194 -0.00397646 53.2193 -0.00397646 59.3152 0.0119294C63.7688 0.0238588 66.7989 3.03404 66.8307 7.46381C66.8506 10.3388 66.8665 13.2178 66.8187 16.0927C66.8028 17.0352 67.0096 17.4487 68.0594 17.6276C72.2069 18.3275 76.3384 19.1506 80.4699 19.9499C86.8521 21.1786 90.6338 25.7714 90.6497 32.3008C90.6576 35.5177 90.6497 38.7347 90.6497 42.1465C77.8972 39.3192 65.3037 36.5278 52.5791 33.7045V14.5697H47.8431V33.6965C35.1105 36.5238 22.4773 39.3272 9.76849 42.1465L9.77246 42.1425ZM14.4567 31.426C14.4448 32.8734 15.256 33.8953 16.5404 34.0504C17.8487 34.2055 18.9104 33.3864 19.1847 32.0105C19.5903 29.9706 19.9959 29.5809 22.0279 29.2071C23.6344 28.9128 25.2449 28.6464 26.8354 28.2766C28.1994 27.9585 28.9549 26.7337 28.6805 25.501C28.4022 24.2445 27.245 23.4571 25.8692 23.6838C23.869 24.0138 21.8609 24.3399 19.8886 24.7932C16.7909 25.509 14.4846 28.3959 14.4607 31.426H14.4567ZM59.852 20.8923C58.4205 21.0673 57.5337 21.7035 57.3548 23.0118C57.1878 24.2484 57.7763 25.2505 58.9573 25.5289C61.5062 26.1293 64.0869 26.6304 66.6835 27.0002C67.956 27.1791 68.8746 26.3639 69.141 25.0994C69.3955 23.8826 68.8706 22.797 67.6936 22.5028C65.0572 21.8427 62.3691 21.4013 59.852 20.8963V20.8923ZM38.2479 23.9343C38.3155 22.6658 37.3094 21.5365 36.033 21.449C34.7685 21.3615 33.6193 22.3517 33.5159 23.6281C33.4046 24.9563 34.4663 26.1452 35.7984 26.1929C37.0669 26.2367 38.1843 25.2108 38.2519 23.9383L38.2479 23.9343ZM78.7282 26.2168C78.7442 24.9443 77.6904 23.8588 76.4139 23.8269C75.1415 23.7951 74.04 24.833 73.9883 26.1055C73.9326 27.4376 75.0421 28.5828 76.3742 28.5709C77.6506 28.5589 78.7163 27.4932 78.7282 26.2168Z" stroke="white" stroke-width="2" mask="url(#path-2-inside-1_7002_27225)"/>
<path d="M90.0373 100.62C91.7671 104.1 93.5048 107.488 95.1351 110.931C95.8906 112.526 95.0755 113.878 93.1827 114.327C89.8106 115.122 86.4227 115.862 83.0427 116.622C82.8558 116.661 82.6769 116.717 82.323 116.808C82.7644 117.278 83.1143 117.675 83.4841 118.049C88.5302 123.099 93.5803 128.149 98.6304 133.199C98.9446 133.514 99.2786 133.82 99.553 134.17C100.392 135.251 100.324 136.508 99.4098 137.399C98.4952 138.289 97.2546 138.325 96.177 137.462C95.831 137.184 95.5288 136.85 95.2146 136.536C89.3573 130.678 83.4881 124.841 77.6665 118.948C76.9388 118.212 76.2947 118.069 75.3244 118.288C67.3079 120.105 59.2834 121.882 51.2509 123.632C50.555 123.783 49.7677 123.779 49.0678 123.628C41.0394 121.878 33.0149 120.101 24.9983 118.284C24.0241 118.065 23.3879 118.228 22.6641 118.96C16.8068 124.885 10.9018 130.762 5.00469 136.647C4.61897 137.033 4.24121 137.446 3.78789 137.729C2.7222 138.393 1.66844 138.242 0.821453 137.339C0.0182083 136.488 -0.0772267 135.474 0.559007 134.472C0.821453 134.062 1.19922 133.716 1.54915 133.37C6.66685 128.249 11.7846 123.131 16.9023 118.005C17.2482 117.659 17.5703 117.298 18.0634 116.773C14.7232 116.025 11.5658 115.317 8.40854 114.61C7.82798 114.478 7.23548 114.399 6.67083 114.212C5.25123 113.747 4.52354 112.363 5.15579 111.027C6.72252 107.714 8.37275 104.442 10.0588 101.189C10.2019 100.915 10.8739 100.724 11.2557 100.787C20.1033 102.227 28.947 103.706 37.7906 105.181C41.5523 105.81 45.2902 106.736 49.0798 106.999C51.6923 107.177 54.3804 106.541 57.0088 106.112C67.956 104.326 78.8953 102.477 90.0373 100.62Z" stroke="white" stroke-width="2" mask="url(#path-2-inside-1_7002_27225)"/>
<path d="M4.99276 78.5828V69.1745C8.48807 69.1745 11.9953 68.9717 15.4628 69.2461C17.8248 69.433 19.3915 71.8904 19.1927 74.2246C18.9859 76.6144 17.0056 78.5192 14.5243 78.5669C11.4068 78.6265 8.28527 78.5788 4.99276 78.5788V78.5828Z" stroke="white" stroke-width="2" mask="url(#path-2-inside-1_7002_27225)"/>
<path d="M95.3419 71.453V80.9687C94.0774 80.9687 92.8129 80.9687 91.5483 80.9687C89.5681 80.9687 87.5838 81.0323 85.6035 80.9408C83.0586 80.8215 81.0783 78.6186 81.13 76.1055C81.1777 73.656 83.166 71.5365 85.6592 71.4729C88.8284 71.3934 91.9977 71.453 95.3419 71.453Z" stroke="white" stroke-width="2" mask="url(#path-2-inside-1_7002_27225)"/>
<path d="M50.1494 71.4411C44.8965 71.4331 40.6218 67.1266 40.6457 61.8658C40.6696 56.6129 44.988 52.358 50.2568 52.3978C55.4501 52.4376 59.677 56.6964 59.685 61.8976C59.6929 67.1584 55.4063 71.449 50.1494 71.4411Z" stroke="white" stroke-width="2" mask="url(#path-2-inside-1_7002_27225)"/>
</g>
</g>
<defs>
<filter id="filter0_f_7002_27225" x="-0.85791" y="-1" width="102" height="140.139" filterUnits="userSpaceOnUse" color-interpolation-filters="sRGB">
<feFlood flood-opacity="0" result="BackgroundImageFix"/>
<feBlend mode="normal" in="SourceGraphic" in2="BackgroundImageFix" result="shape"/>
<feGaussianBlur stdDeviation="0.5" result="effect1_foregroundBlur_7002_27225"/>
</filter>
<clipPath id="clip0_7002_27225">
<rect width="100" height="138.138" fill="white" transform="translate(0.141602)"/>
</clipPath>
</defs>
</svg>
