<svg width="25" height="24" viewBox="0 0 25 24" fill="none" xmlns="http://www.w3.org/2000/svg">
<path d="M18.4209 1.50459C18.4206 1.90228 18.2623 2.28355 17.9809 2.56459L10.3089 10.2366C10.0767 10.4687 9.89252 10.7444 9.76684 11.0477C9.64117 11.3511 9.57648 11.6762 9.57648 12.0046C9.57648 12.3329 9.64117 12.6581 9.76684 12.9614C9.89252 13.2648 10.0767 13.5404 10.3089 13.7726L17.9709 21.4346C18.2442 21.7175 18.3954 22.0964 18.392 22.4897C18.3885 22.883 18.2308 23.2592 17.9527 23.5373C17.6746 23.8154 17.2983 23.9732 16.905 23.9766C16.5118 23.98 16.1329 23.8288 15.8499 23.5556L8.18795 15.8996C7.15771 14.8673 6.5791 13.4685 6.5791 12.0101C6.5791 10.5517 7.15771 9.15285 8.18795 8.12059L15.8599 0.443587C16.0697 0.233671 16.3371 0.0907004 16.6281 0.0327662C16.9192 -0.0251679 17.2209 0.00453824 17.4951 0.118126C17.7692 0.231713 18.0036 0.424077 18.1684 0.670876C18.3332 0.917674 18.4211 1.20782 18.4209 1.50459Z" fill="white" fill-opacity="0.5"/>
</svg>
