<svg width="25" height="24" viewBox="0 0 25 24" fill="none" xmlns="http://www.w3.org/2000/svg">
<path d="M6.5791 22.5005C6.57945 22.1028 6.73772 21.7215 7.0191 21.4405L14.6911 13.7685C14.9233 13.5364 15.1075 13.2607 15.2332 12.9574C15.3589 12.654 15.4236 12.3289 15.4236 12.0005C15.4236 11.6721 15.3589 11.347 15.2332 11.0436C15.1075 10.7403 14.9233 10.4647 14.6911 10.2325L7.0291 2.56551C6.75586 2.2826 6.60467 1.9037 6.60809 1.5104C6.61151 1.11711 6.76926 0.74089 7.04737 0.462777C7.32549 0.184665 7.7017 0.0269118 8.095 0.0234942C8.4883 0.0200766 8.8672 0.171268 9.1501 0.444505L16.8121 8.10551C17.8423 9.13777 18.4209 10.5366 18.4209 11.995C18.4209 13.4534 17.8423 14.8522 16.8121 15.8845L9.1401 23.5565C8.93062 23.7661 8.66374 23.909 8.37315 23.9671C8.08255 24.0252 7.78126 23.9959 7.50729 23.8829C7.23332 23.77 6.99895 23.5784 6.83376 23.3323C6.66857 23.0863 6.57995 22.7969 6.5791 22.5005Z" fill="white" fill-opacity="0.5"/>
</svg>
