<svg width="16" height="17" viewBox="0 0 16 17" fill="none" xmlns="http://www.w3.org/2000/svg">
<g clip-path="url(#clip0_1014_2713)">
<path d="M4.66667 0.5H2.66667C1.19391 0.5 0 1.69391 0 3.16667V5.16667C0 6.63943 1.19391 7.83333 2.66667 7.83333H4.66667C6.13943 7.83333 7.33333 6.63943 7.33333 5.16667V3.16667C7.33333 1.69391 6.13943 0.5 4.66667 0.5Z" fill="white" fill-opacity="0.5"/>
<path d="M4.66667 9.16669H2.66667C1.19391 9.16669 0 10.3606 0 11.8334V13.8334C0 15.3061 1.19391 16.5 2.66667 16.5H4.66667C6.13943 16.5 7.33333 15.3061 7.33333 13.8334V11.8334C7.33333 10.3606 6.13943 9.16669 4.66667 9.16669Z" fill="white" fill-opacity="0.5"/>
<path d="M13.3334 9.16669H11.3334C9.86065 9.16669 8.66675 10.3606 8.66675 11.8334V13.8334C8.66675 15.3061 9.86065 16.5 11.3334 16.5H13.3334C14.8062 16.5 16.0001 15.3061 16.0001 13.8334V11.8334C16.0001 10.3606 14.8062 9.16669 13.3334 9.16669Z" fill="white" fill-opacity="0.5"/>
<path d="M9.33341 5.16669H11.3334V7.16669C11.3334 7.3435 11.4037 7.51307 11.5287 7.63809C11.6537 7.76312 11.8233 7.83335 12.0001 7.83335C12.1769 7.83335 12.3465 7.76312 12.4715 7.63809C12.5965 7.51307 12.6667 7.3435 12.6667 7.16669V5.16669H14.6667C14.8436 5.16669 15.0131 5.09645 15.1382 4.97142C15.2632 4.8464 15.3334 4.67683 15.3334 4.50002C15.3334 4.32321 15.2632 4.15364 15.1382 4.02862C15.0131 3.90359 14.8436 3.83335 14.6667 3.83335H12.6667V1.83335C12.6667 1.65654 12.5965 1.48697 12.4715 1.36195C12.3465 1.23692 12.1769 1.16669 12.0001 1.16669C11.8233 1.16669 11.6537 1.23692 11.5287 1.36195C11.4037 1.48697 11.3334 1.65654 11.3334 1.83335V3.83335H9.33341C9.1566 3.83335 8.98703 3.90359 8.86201 4.02862C8.73699 4.15364 8.66675 4.32321 8.66675 4.50002C8.66675 4.67683 8.73699 4.8464 8.86201 4.97142C8.98703 5.09645 9.1566 5.16669 9.33341 5.16669Z" fill="white" fill-opacity="0.5"/>
</g>
<defs>
<clipPath id="clip0_1014_2713">
<rect width="16" height="16" fill="white" transform="translate(0 0.5)"/>
</clipPath>
</defs>
</svg>
