<svg width="17" height="16" viewBox="0 0 17 16" fill="none" xmlns="http://www.w3.org/2000/svg">
<g id="apps 1" clip-path="url(#clip0_1_624)">
<g id="Group">
<path id="Vector" d="M3.1608 0H5.1608C6.63355 0 7.82745 1.19391 7.82745 2.66666V4.66666C7.82745 6.13941 6.63355 7.33331 5.1608 7.33331H3.1608C1.68805 7.33334 0.494141 6.13944 0.494141 4.66666V2.66666C0.494141 1.19391 1.68805 0 3.1608 0Z" fill="white"/>
<path id="Vector_2" d="M11.8275 0H13.8275C15.3002 0 16.4941 1.19391 16.4941 2.66666V4.66666C16.4941 6.13941 15.3002 7.33331 13.8275 7.33331H11.8275C10.3547 7.33331 9.16083 6.13941 9.16083 4.66666V2.66666C9.1608 1.19391 10.3547 0 11.8275 0Z" fill="white"/>
<path id="Vector_3" d="M3.1608 8.66666H5.1608C6.63355 8.66666 7.82745 9.86056 7.82745 11.3333V13.3333C7.82745 14.8061 6.63355 16 5.1608 16H3.1608C1.68805 16 0.494141 14.8061 0.494141 13.3333V11.3333C0.494141 9.86056 1.68805 8.66666 3.1608 8.66666Z" fill="white"/>
<path id="Vector_4" d="M11.8275 8.66666H13.8275C15.3002 8.66666 16.4941 9.86056 16.4941 11.3333V13.3333C16.4941 14.8061 15.3002 16 13.8275 16H11.8275C10.3547 16 9.16083 14.8061 9.16083 13.3333V11.3333C9.1608 9.86056 10.3547 8.66666 11.8275 8.66666Z" fill="white"/>
</g>
</g>
<defs>
<clipPath id="clip0_1_624">
<rect width="16" height="16" fill="white" transform="translate(0.494141)"/>
</clipPath>
</defs>
</svg>
