<svg xmlns="http://www.w3.org/2000/svg" width="17" height="16" viewBox="0 0 17 16" fill="none">
<g clip-path="url(#clip0_394_1755)">
<path d="M3.1608 0H5.1608C6.63355 0 7.82745 1.19391 7.82745 2.66666V4.66666C7.82745 6.13941 6.63355 7.33331 5.1608 7.33331H3.1608C1.68805 7.33334 0.494141 6.13944 0.494141 4.66666V2.66666C0.494141 1.19391 1.68805 0 3.1608 0Z" fill="white" fill-opacity="0.5"/>
<path d="M11.8275 0H13.8275C15.3002 0 16.4941 1.19391 16.4941 2.66666V4.66666C16.4941 6.13941 15.3002 7.33331 13.8275 7.33331H11.8275C10.3547 7.33331 9.16083 6.13941 9.16083 4.66666V2.66666C9.1608 1.19391 10.3547 0 11.8275 0Z" fill="white" fill-opacity="0.5"/>
<path d="M3.1608 8.66675H5.1608C6.63355 8.66675 7.82745 9.86065 7.82745 11.3334V13.3334C7.82745 14.8062 6.63355 16.0001 5.1608 16.0001H3.1608C1.68805 16.0001 0.494141 14.8062 0.494141 13.3334V11.3334C0.494141 9.86065 1.68805 8.66675 3.1608 8.66675Z" fill="white" fill-opacity="0.5"/>
<path d="M11.8275 8.66675H13.8275C15.3002 8.66675 16.4941 9.86065 16.4941 11.3334V13.3334C16.4941 14.8062 15.3002 16.0001 13.8275 16.0001H11.8275C10.3547 16.0001 9.16083 14.8062 9.16083 13.3334V11.3334C9.1608 9.86065 10.3547 8.66675 11.8275 8.66675Z" fill="white" fill-opacity="0.5"/>
</g>
<defs>
<clipPath id="clip0_394_1755">
<rect width="16" height="16" fill="white" transform="translate(0.494141)"/>
</clipPath>
</defs>
</svg>
