<svg width="32" height="32" viewBox="0 0 32 32" fill="none" xmlns="http://www.w3.org/2000/svg">
<rect width="32" height="32" rx="16" fill="url(#paint0_linear_5413_2521)"/>
<g clip-path="url(#clip0_5413_2521)">
<path d="M12.3333 8C11.7145 8 11.121 8.24583 10.6834 8.68342C10.2458 9.121 10 9.71449 10 10.3333V21.6667C10 22.2855 10.2458 22.879 10.6834 23.3166C11.121 23.7542 11.7145 24 12.3333 24C12.9522 24 13.5457 23.7542 13.9832 23.3166C14.4208 22.879 14.6667 22.2855 14.6667 21.6667V10.3333C14.6667 9.71449 14.4208 9.121 13.9832 8.68342C13.5457 8.24583 12.9522 8 12.3333 8Z" fill="#1F1F1F"/>
<path d="M19.6663 8C19.0475 8 18.454 8.24583 18.0164 8.68342C17.5788 9.121 17.333 9.71449 17.333 10.3333V21.6667C17.333 22.2855 17.5788 22.879 18.0164 23.3166C18.454 23.7542 19.0475 24 19.6663 24C20.2852 24 20.8787 23.7542 21.3163 23.3166C21.7538 22.879 21.9997 22.2855 21.9997 21.6667V10.3333C21.9997 9.71449 21.7538 9.121 21.3163 8.68342C20.8787 8.24583 20.2852 8 19.6663 8Z" fill="#1F1F1F"/>
</g>
<defs>
<linearGradient id="paint0_linear_5413_2521" x1="0" y1="16" x2="32" y2="16" gradientUnits="userSpaceOnUse">
<stop stop-color="#0A84FF"/>
<stop offset="1" stop-color="#00D9FF"/>
</linearGradient>
<clipPath id="clip0_5413_2521">
<rect width="16" height="16" fill="white" transform="translate(8 8)"/>
</clipPath>
</defs>
</svg>
