<svg width="25" height="24" viewBox="0 0 25 24" fill="none" xmlns="http://www.w3.org/2000/svg">
<g clip-path="url(#clip0_5834_1629)">
<path d="M6.75 0C5.82174 0 4.9315 0.368749 4.27513 1.02513C3.61875 1.6815 3.25 2.57174 3.25 3.5V20.5C3.25 21.4283 3.61875 22.3185 4.27513 22.9749C4.9315 23.6313 5.82174 24 6.75 24C7.67826 24 8.5685 23.6313 9.22487 22.9749C9.88125 22.3185 10.25 21.4283 10.25 20.5V3.5C10.25 2.57174 9.88125 1.6815 9.22487 1.02513C8.5685 0.368749 7.67826 0 6.75 0Z" fill="#1F1F1F"/>
<path d="M17.75 0C16.8217 0 15.9315 0.368749 15.2751 1.02513C14.6187 1.6815 14.25 2.57174 14.25 3.5V20.5C14.25 21.4283 14.6187 22.3185 15.2751 22.9749C15.9315 23.6313 16.8217 24 17.75 24C18.6783 24 19.5685 23.6313 20.2249 22.9749C20.8813 22.3185 21.25 21.4283 21.25 20.5V3.5C21.25 2.57174 20.8813 1.6815 20.2249 1.02513C19.5685 0.368749 18.6783 0 17.75 0Z" fill="#1F1F1F"/>
</g>
<defs>
<clipPath id="clip0_5834_1629">
<rect width="24" height="24" fill="white" transform="translate(0.25)"/>
</clipPath>
</defs>
</svg>
