<svg width="24" height="25" viewBox="0 0 24 25" fill="none" xmlns="http://www.w3.org/2000/svg">
<g clip-path="url(#clip0_1358_1978)">
<path d="M20.492 8.46947L10.954 1.47547C10.209 0.92995 9.32755 0.601378 8.40727 0.526168C7.48699 0.450959 6.56385 0.63205 5.74019 1.04937C4.91653 1.46669 4.22451 2.10393 3.74085 2.89047C3.25718 3.67701 3.00076 4.58212 3.00001 5.50547V19.5005C2.99857 20.4247 3.25365 21.3312 3.73686 22.1191C4.22006 22.907 4.91243 23.5453 5.7369 23.9631C6.56137 24.3808 7.48559 24.5615 8.40668 24.4851C9.32777 24.4088 10.2096 24.0783 10.954 23.5305L20.492 16.5365C21.1249 16.072 21.6395 15.4651 21.9942 14.7648C22.349 14.0645 22.5338 13.2905 22.5338 12.5055C22.5338 11.7205 22.349 10.9465 21.9942 10.2462C21.6395 9.54586 21.1249 8.93892 20.492 8.47447V8.46947Z" fill="#1F1F1F"/>
</g>
<defs>
<clipPath id="clip0_1358_1978">
<rect width="24" height="24" fill="white" transform="translate(0 0.5)"/>
</clipPath>
</defs>
</svg>
