<svg width="68" height="68" viewBox="0 0 68 68" fill="none" xmlns="http://www.w3.org/2000/svg">
<g filter="url(#filter0_d_8396_40301)">
<path d="M9.99979 29.199C9.99979 22.4784 9.99979 19.1181 11.3077 16.5511C12.4582 14.2932 14.294 12.4574 16.5519 11.3069C19.1188 9.99902 22.4792 9.99902 29.1998 9.99902H38.8002C45.5208 9.99902 48.8811 9.99902 51.4481 11.3069C53.706 12.4574 55.5418 14.2932 56.6923 16.5511C58.0002 19.1181 58.0002 22.4784 58.0002 29.199V38.8C58.0002 45.5207 58.0002 48.881 56.6923 51.4479C55.5418 53.7059 53.706 55.5417 51.4481 56.6921C48.8811 58.0001 45.5208 58.0001 38.8002 58.0001H29.1998C22.4792 58.0001 19.1188 58.0001 16.5519 56.6921C14.294 55.5417 12.4582 53.7059 11.3077 51.4479C9.99979 48.881 9.99979 45.5207 9.99979 38.8001V29.199Z" fill="url(#paint0_linear_8396_40301)"/>
<path d="M10.6998 29.199C10.6998 25.8272 10.7003 23.3404 10.861 21.3745C11.0209 19.4167 11.3361 18.0373 11.9314 16.8689C13.0148 14.7427 14.7435 13.014 16.8697 11.9306C18.038 11.3353 19.4175 11.0201 21.3752 10.8602C23.3411 10.6996 25.8279 10.699 29.1998 10.699H38.8002C42.1721 10.699 44.6589 10.6996 46.6248 10.8602C48.5825 11.0201 49.962 11.3353 51.1303 11.9306C53.2565 13.014 54.9852 14.7427 56.0686 16.8689C56.6639 18.0373 56.9791 19.4167 57.139 21.3744C57.2997 23.3404 57.3002 25.8272 57.3002 29.199V38.8C57.3002 42.1719 57.2997 44.6587 57.139 46.6246C56.9791 48.5824 56.6639 49.9618 56.0686 51.1301C54.9852 53.2564 53.2565 54.9851 51.1303 56.0684C49.962 56.6637 48.5825 56.9789 46.6248 57.1389C44.6589 57.2995 42.1721 57.3001 38.8002 57.3001H29.1998C25.8279 57.3001 23.3411 57.2995 21.3752 57.1389C19.4175 56.9789 18.038 56.6637 16.8697 56.0684C14.7435 54.9851 13.0148 53.2564 11.9314 51.1301C11.3361 49.9618 11.0209 48.5824 10.861 46.6246C10.7003 44.6587 10.6998 42.1719 10.6998 38.8001V29.199Z" stroke="url(#paint1_linear_8396_40301)" stroke-width="1.4"/>
<path d="M25.1403 21.9996C25.3313 22.1324 25.3789 22.3146 25.3789 22.5432C25.3733 27.1989 25.3752 31.8546 25.3727 36.5097C25.3727 36.6156 25.3658 36.7352 25.3182 36.8247C24.7477 37.9043 24.2881 39.0283 23.9293 40.1942C23.923 40.2137 23.9111 40.2318 23.8741 40.3045C23.8741 40.173 23.8741 40.0991 23.8741 40.0245C23.8741 34.1972 23.8754 28.3699 23.8704 22.5426C23.8704 22.314 23.9167 22.1311 24.109 21.999H25.1403V21.9996Z" fill="#1F1F1F"/>
<path d="M33.3899 21.9996C33.5808 22.1318 33.6291 22.314 33.6284 22.5425C33.6209 24.5482 33.6222 26.5539 33.6284 28.5596C33.6284 28.7299 33.584 28.8195 33.4262 28.8984C32.996 29.1125 32.5777 29.3511 32.1243 29.5966V29.3555C32.1243 27.0843 32.1268 24.8137 32.1199 22.5425C32.1193 22.314 32.1669 22.1318 32.3585 21.9996H33.3899Z" fill="#1F1F1F"/>
<path d="M21.9998 37.233C22.1319 37.0414 22.3135 36.9769 22.5433 36.9957C22.7281 37.0107 22.9147 36.9988 23.1126 36.9988V39.997C22.7368 39.9375 22.3123 40.1698 22.0004 39.7641V37.233H21.9998Z" fill="#1F1F1F"/>
<path d="M21.9998 23.7341C22.1319 23.5425 22.3135 23.478 22.5433 23.4968C22.7281 23.5118 22.9147 23.4999 23.1126 23.4999V26.1236C22.7368 26.0642 22.3123 26.2965 22.0004 25.8907V23.7341H21.9998Z" fill="#1F1F1F"/>
<path d="M21.9998 28.234C22.1319 28.0424 22.3135 27.9779 22.5433 27.9966C22.7274 28.0117 22.9147 27.9998 23.1126 27.9998V30.6235C22.7368 30.564 22.3123 30.7963 22.0004 30.3906V28.2346L21.9998 28.234Z" fill="#1F1F1F"/>
<path d="M21.9998 32.7339C22.1319 32.5422 22.3135 32.4777 22.5433 32.4965C22.7274 32.5116 22.9147 32.4997 23.1126 32.4997V35.1234C22.7368 35.0639 22.3123 35.2962 22.0004 34.8905V32.7345L21.9998 32.7339Z" fill="#1F1F1F"/>
<path d="M21.9998 42.1079C22.1319 41.9163 22.3135 41.8518 22.5433 41.8705C22.7274 41.8856 22.9147 41.8737 23.1126 41.8737V44.4974C22.7368 44.4379 22.3123 44.6702 22.0004 44.2645V42.1085L21.9998 42.1079Z" fill="#1F1F1F"/>
<path d="M43.0211 27.6241C43.849 27.6241 44.6768 27.6234 45.5053 27.6241C45.8741 27.6241 45.9975 27.7481 45.9994 28.1138C46.0006 28.2853 46 28.4575 45.9994 28.6291C45.9975 28.9973 45.8748 29.1225 45.5091 29.1232C44.236 29.1244 42.9629 29.1169 41.6898 29.1263C35.0946 29.1733 29.0799 33.2635 26.5964 39.3833C25.8036 41.3364 25.3978 43.3665 25.3765 45.4736C25.3721 45.8869 25.2613 45.9965 24.8442 45.9978C24.6727 45.9978 24.5005 45.9996 24.3289 45.9978C24.0101 45.9934 23.8755 45.8594 23.8767 45.5369C23.8811 44.2995 24.0007 43.0722 24.275 41.8655C25.4529 36.6901 28.3222 32.7332 32.8916 30.0337C35.1334 28.7093 37.5713 27.9409 40.1669 27.7161C41.1143 27.6341 42.0687 27.6291 43.0205 27.5884C43.0205 27.6003 43.0218 27.6122 43.0218 27.6234L43.0211 27.6241Z" fill="#1F1F1F"/>
<path d="M43.4782 35.8742C44.1576 35.8742 44.837 35.8736 45.5165 35.8742C45.8696 35.8748 45.9961 36.002 45.9993 36.352C46.0005 36.5317 46.0005 36.7114 45.9993 36.8912C45.9968 37.2443 45.8709 37.3733 45.5208 37.3733C44.3179 37.3746 43.1156 37.3721 41.9126 37.3739C40.5632 37.3765 39.2757 37.6582 38.0859 38.302C35.6161 39.6376 34.1464 41.694 33.7131 44.4749C33.658 44.8281 33.648 45.1894 33.6273 45.5476C33.6091 45.8676 33.4858 45.9953 33.1614 45.9985C32.966 46.0003 32.7706 46.001 32.5759 45.9985C32.2584 45.9941 32.1213 45.8576 32.1269 45.5357C32.1714 43.0447 33.0193 40.865 34.7031 39.0277C36.2455 37.3458 38.1598 36.3132 40.4173 35.9957C41.4248 35.8542 42.4562 35.8786 43.4763 35.8279C43.4769 35.8435 43.4775 35.8586 43.4788 35.8742H43.4782Z" fill="#1F1F1F"/>
<path d="M39.5505 30.0606C39.7039 31.8158 39.8548 33.5459 40.0026 35.236C39.136 35.5103 38.3012 35.7746 37.4433 36.0463C37.4095 35.6913 37.3707 35.3074 37.3375 34.9229C37.2204 33.5704 37.1077 32.2172 36.9862 30.8652C36.973 30.7174 36.9906 30.6385 37.1534 30.601C37.9048 30.4294 38.6538 30.2459 39.404 30.0681C39.4403 30.0593 39.4797 30.0637 39.5505 30.0599V30.0606Z" fill="#1F1F1F"/>
<path d="M26.1409 23.51H31.3622V26.1062H26.1409V23.51Z" fill="#1F1F1F"/>
<path d="M41.8846 35.107V29.8865H44.4808V35.107H41.8846Z" fill="#1F1F1F"/>
<path d="M26.1409 28.0085H31.3741C31.3741 28.5057 31.3447 28.9967 31.3829 29.4826C31.4173 29.9216 31.3171 30.234 30.9001 30.4476C30.7091 30.5452 30.5431 30.6304 30.3208 30.6292C29.0177 30.6204 27.7146 30.6248 26.412 30.6248H26.1409V28.0085Z" fill="#1F1F1F"/>
<path d="M31.3576 44.4899H26.1638C26.1977 44.18 26.2177 43.8794 26.2653 43.5838C26.3498 43.061 26.4469 42.5406 26.5515 42.0215C26.5627 41.9639 26.6548 41.8806 26.7099 41.8806C28.2535 41.8731 29.7977 41.8743 31.3582 41.8743V44.4906L31.3576 44.4899Z" fill="#1F1F1F"/>
<path d="M32.1243 41.6175V40.0496C32.1243 37.8642 32.1262 35.6788 32.1199 33.494C32.1199 33.3274 32.1662 33.2222 32.3028 33.1283C32.7305 32.834 33.1513 32.529 33.6241 32.1927C33.6241 32.3355 33.6241 32.41 33.6241 32.4839C33.6241 34.6299 33.6253 36.7765 33.6197 38.9224C33.6197 39.0376 33.5896 39.1754 33.5226 39.2649C32.9972 39.9682 32.5545 40.7171 32.2126 41.5255C32.1982 41.5593 32.1794 41.5919 32.1625 41.6251C32.1493 41.6226 32.1368 41.62 32.1237 41.6169L32.1243 41.6175Z" fill="#1F1F1F"/>
<path d="M31.3659 36.9988V39.9832H27.1741C27.2718 39.7452 27.3476 39.5085 27.4615 39.2912C27.8366 38.5743 28.2224 37.8623 28.6125 37.1534C28.6501 37.0852 28.7465 37.0063 28.816 37.0056C29.6576 36.9956 30.4993 36.9988 31.3659 36.9988Z" fill="#1F1F1F"/>
<path d="M26.1346 32.5115H28.4797C28.3638 32.6367 28.2649 32.7319 28.1791 32.8377C27.6011 33.551 27.0275 34.2686 26.4458 34.9787C26.38 35.0588 26.2692 35.1008 26.1352 35.1897V32.5115H26.1346Z" fill="#1F1F1F"/>
<path d="M34.3826 26.1231V23.5044C34.6512 23.5044 34.9142 23.4881 35.1741 23.5094C35.377 23.5263 35.4947 23.6716 35.4966 23.8763C35.5023 24.4994 35.5035 25.1231 35.4966 25.7461C35.4941 25.9684 35.3488 26.1112 35.1284 26.1206C34.8879 26.1306 34.6475 26.1231 34.3826 26.1231Z" fill="#1F1F1F"/>
<path d="M41.8755 26.859C41.8755 26.6016 41.868 26.3605 41.878 26.1201C41.8874 25.8984 42.029 25.755 42.2525 25.7525C42.8756 25.7456 43.4993 25.7456 44.123 25.7525C44.3453 25.755 44.4868 25.8996 44.4962 26.1213C44.5062 26.3611 44.4987 26.6022 44.4987 26.8583H41.8762L41.8755 26.859Z" fill="#1F1F1F"/>
<path d="M34.3899 32.5003C34.6473 32.5003 34.8884 32.4927 35.1282 32.5028C35.3486 32.5122 35.4933 32.6543 35.4958 32.8772C35.5027 33.5003 35.5027 34.124 35.4958 34.747C35.4933 34.9693 35.3474 35.1115 35.127 35.1202C34.8871 35.1303 34.646 35.1228 34.3899 35.1228V32.5003Z" fill="#1F1F1F"/>
<path d="M41.8757 38.1316H44.4945C44.4945 38.3996 44.5114 38.6626 44.4888 38.9225C44.4719 39.1254 44.3273 39.2437 44.1219 39.2456C43.4988 39.2512 42.8751 39.2525 42.252 39.2456C42.0291 39.2431 41.8869 39.0984 41.8776 38.878C41.8675 38.6376 41.8751 38.3971 41.8751 38.1322L41.8757 38.1316Z" fill="#1F1F1F"/>
<path d="M36.6967 27.5752C36.6723 27.2759 36.6385 26.9897 36.6285 26.7035C36.621 26.4875 36.7612 26.3416 36.9886 26.3203C37.5935 26.264 38.1984 26.2114 38.8039 26.1682C39.072 26.1487 39.2147 26.279 39.2435 26.5401C39.2611 26.7017 39.2686 26.8645 39.2805 27.0285C38.427 27.2095 37.5791 27.3886 36.6961 27.5752H36.6967Z" fill="#1F1F1F"/>
<path d="M40.2721 38.3049C40.2984 38.6143 40.3272 38.8936 40.3435 39.1735C40.3585 39.4277 40.2402 39.583 39.9884 39.608C39.3747 39.6694 38.7598 39.7239 38.1443 39.7583C38.0334 39.7646 37.8963 39.68 37.8074 39.5986C37.7209 39.5191 37.6934 39.4014 37.8387 39.3087C38.5832 38.8366 39.3823 38.4997 40.2715 38.3049H40.2721Z" fill="#1F1F1F"/>
<path d="M35.3986 41.9695C35.4318 42.0803 35.4925 42.1905 35.4944 42.3014C35.5038 42.8931 35.5019 43.4855 35.4975 44.0773C35.4957 44.3528 35.3529 44.4905 35.0774 44.4968C34.8832 44.5012 34.6897 44.4974 34.4724 44.4974C34.6065 43.5901 34.892 42.7572 35.3986 41.9689V41.9695Z" fill="#1F1F1F"/>
<path d="M34.3816 38.2506V37.0039C34.6496 37.0039 34.9139 36.9838 35.1719 37.0139C35.2733 37.0258 35.3767 37.1385 35.4449 37.2305C35.4625 37.2543 35.361 37.3877 35.294 37.4485C35.0022 37.7133 34.7029 37.9701 34.3822 38.2506H34.3816Z" fill="#1F1F1F"/>
<path d="M30.1795 35.1064C30.5777 34.705 30.9572 34.3231 31.363 33.9148V35.1064H30.1795Z" fill="#1F1F1F"/>
<path d="M34.385 28.4369V28.0205H35.2417C35.2467 28.0393 35.2511 28.0575 35.2561 28.0762C34.9724 28.194 34.6881 28.3117 34.385 28.4369Z" fill="#1F1F1F"/>
</g>
<defs>
<filter id="filter0_d_8396_40301" x="-90.0002" y="-90.001" width="248" height="248.001" filterUnits="userSpaceOnUse" color-interpolation-filters="sRGB">
<feFlood flood-opacity="0" result="BackgroundImageFix"/>
<feColorMatrix in="SourceAlpha" type="matrix" values="0 0 0 0 0 0 0 0 0 0 0 0 0 0 0 0 0 0 127 0" result="hardAlpha"/>
<feOffset/>
<feGaussianBlur stdDeviation="5"/>
<feComposite in2="hardAlpha" operator="out"/>
<feColorMatrix type="matrix" values="0 0 0 0 0.0392157 0 0 0 0 0.517647 0 0 0 0 1 0 0 0 1 0"/>
<feBlend mode="normal" in2="BackgroundImageFix" result="effect1_dropShadow_8396_40301"/>
<feBlend mode="normal" in="SourceGraphic" in2="effect1_dropShadow_8396_40301" result="shape"/>
</filter>
<linearGradient id="paint0_linear_8396_40301" x1="9.99979" y1="33.9995" x2="58.0002" y2="33.9995" gradientUnits="userSpaceOnUse">
<stop stop-color="#0A84FF"/>
<stop offset="1" stop-color="#00D9FF"/>
</linearGradient>
<linearGradient id="paint1_linear_8396_40301" x1="-5.52976" y1="14.243" x2="-0.399904" y2="61.7068" gradientUnits="userSpaceOnUse">
<stop stop-color="white" stop-opacity="0.4"/>
<stop offset="0.368352" stop-color="white" stop-opacity="0.01"/>
<stop offset="0.574372" stop-color="white" stop-opacity="0.01"/>
<stop offset="1" stop-color="white" stop-opacity="0.1"/>
</linearGradient>
</defs>
</svg>
