<svg width="56" height="56" viewBox="0 0 56 56" fill="none" xmlns="http://www.w3.org/2000/svg">
<g filter="url(#filter0_d_8396_39903)">
<rect x="3.99979" y="3" width="48.0004" height="48.001" rx="12" fill="white" fill-opacity="0.06" style="mix-blend-mode:lighten" shape-rendering="crispEdges"/>
<rect x="3.99979" y="3" width="48.0004" height="48.001" rx="12" fill="#5E5E5E" fill-opacity="0.18" style="mix-blend-mode:color-dodge" shape-rendering="crispEdges"/>
<rect x="3.99979" y="3" width="48.0004" height="48.001" rx="12" fill="url(#paint0_radial_8396_39903)" shape-rendering="crispEdges"/>
<rect x="3.99979" y="3" width="48.0004" height="48.001" rx="12" fill="url(#paint1_radial_8396_39903)" style="mix-blend-mode:color-dodge" shape-rendering="crispEdges"/>
<rect x="4.24979" y="3.25" width="47.5004" height="47.501" rx="11.75" stroke="url(#paint2_linear_8396_39903)" stroke-width="0.5" shape-rendering="crispEdges"/>
<path d="M19.1403 15.0006C19.3313 15.1334 19.3789 15.3156 19.3789 15.5442C19.3733 20.1999 19.3752 24.8556 19.3727 29.5107C19.3727 29.6165 19.3658 29.7361 19.3182 29.8257C18.7477 30.9052 18.2881 32.0292 17.9293 33.1952C17.923 33.2146 17.9111 33.2328 17.8741 33.3054C17.8741 33.1739 17.8741 33.1 17.8741 33.0255C17.8741 27.1982 17.8754 21.3709 17.8704 15.5435C17.8704 15.315 17.9167 15.1321 18.109 15H19.1403V15.0006Z" fill="white" fill-opacity="0.5"/>
<path d="M27.3899 15.0006C27.5808 15.1327 27.6291 15.315 27.6284 15.5435C27.6209 17.5492 27.6222 19.5549 27.6284 21.5606C27.6284 21.7309 27.584 21.8205 27.4262 21.8994C26.996 22.1135 26.5777 22.3521 26.1243 22.5976V22.3565C26.1243 20.0853 26.1268 17.8147 26.1199 15.5435C26.1193 15.315 26.1669 15.1327 26.3585 15.0006L27.3899 15.0006Z" fill="white" fill-opacity="0.5"/>
<path d="M15.9998 30.234C16.1319 30.0424 16.3135 29.9779 16.5433 29.9966C16.7281 30.0117 16.9147 29.9998 17.1126 29.9998V32.998C16.7368 32.9385 16.3123 33.1708 16.0004 32.765V30.234H15.9998Z" fill="white" fill-opacity="0.5"/>
<path d="M15.9998 16.7351C16.1319 16.5435 16.3135 16.479 16.5433 16.4977C16.7281 16.5128 16.9147 16.5009 17.1126 16.5009V19.1246C16.7368 19.0651 16.3123 19.2974 16.0004 18.8917V16.7351H15.9998Z" fill="white" fill-opacity="0.5"/>
<path d="M15.9998 21.235C16.1319 21.0433 16.3135 20.9788 16.5433 20.9976C16.7274 21.0127 16.9147 21.0008 17.1126 21.0008V23.6245C16.7368 23.565 16.3123 23.7973 16.0004 23.3916V21.2356L15.9998 21.235Z" fill="white" fill-opacity="0.5"/>
<path d="M15.9998 25.7348C16.1319 25.5432 16.3135 25.4787 16.5433 25.4975C16.7274 25.5125 16.9147 25.5006 17.1126 25.5006V28.1244C16.7368 28.0649 16.3123 28.2972 16.0004 27.8914V25.7355L15.9998 25.7348Z" fill="white" fill-opacity="0.5"/>
<path d="M15.9998 35.1089C16.1319 34.9172 16.3135 34.8527 16.5433 34.8715C16.7274 34.8866 16.9147 34.8747 17.1126 34.8747V37.4984C16.7368 37.4389 16.3123 37.6712 16.0004 37.2655V35.1095L15.9998 35.1089Z" fill="white" fill-opacity="0.5"/>
<path d="M37.0211 20.625C37.849 20.625 38.6768 20.6244 39.5053 20.625C39.8741 20.625 39.9975 20.749 39.9994 21.1147C40.0006 21.2863 40 21.4585 39.9994 21.6301C39.9975 21.9983 39.8748 22.1235 39.5091 22.1241C38.236 22.1254 36.9629 22.1179 35.6898 22.1273C29.0946 22.1742 23.0799 26.2645 20.5964 32.3843C19.8036 34.3374 19.3978 36.3675 19.3765 38.4746C19.3721 38.8879 19.2613 38.9975 18.8442 38.9987C18.6727 38.9987 18.5005 39.0006 18.3289 38.9987C18.0101 38.9943 17.8755 38.8603 17.8767 38.5379C17.8811 37.3005 18.0007 36.0732 18.275 34.8665C19.4529 29.691 22.3222 25.7341 26.8916 23.0346C29.1334 21.7102 31.5713 20.9419 34.1669 20.7171C35.1143 20.6351 36.0687 20.6301 37.0205 20.5894C37.0205 20.6013 37.0218 20.6132 37.0218 20.6244L37.0211 20.625Z" fill="white" fill-opacity="0.5"/>
<path d="M37.4782 28.8752C38.1576 28.8752 38.837 28.8746 39.5165 28.8752C39.8696 28.8758 39.9961 29.0029 39.9993 29.353C40.0005 29.5327 40.0005 29.7124 39.9993 29.8921C39.9968 30.2453 39.8709 30.3743 39.5208 30.3743C38.3179 30.3755 37.1156 30.373 35.9126 30.3749C34.5632 30.3774 33.2757 30.6592 32.0859 31.3029C29.6161 32.6386 28.1464 34.695 27.7131 37.4759C27.658 37.8291 27.648 38.1904 27.6273 38.5486C27.6091 38.8686 27.4858 38.9963 27.1614 38.9994C26.966 39.0013 26.7706 39.0019 26.5759 38.9994C26.2584 38.9951 26.1213 38.8585 26.1269 38.5367C26.1714 36.0457 27.0193 33.8659 28.7031 32.0287C30.2455 30.3467 32.1598 29.3142 34.4173 28.9967C35.4248 28.8552 36.4562 28.8796 37.4763 28.8289C37.4769 28.8445 37.4775 28.8595 37.4788 28.8752H37.4782Z" fill="white" fill-opacity="0.5"/>
<path d="M33.5505 23.0615C33.7039 24.8168 33.8548 26.5469 34.0026 28.237C33.136 28.5113 32.3012 28.7755 31.4433 29.0473C31.4095 28.6922 31.3707 28.3084 31.3375 27.9239C31.2204 26.5713 31.1077 25.2181 30.9862 23.8662C30.973 23.7184 30.9906 23.6395 31.1534 23.6019C31.9048 23.4304 32.6538 23.2469 33.404 23.0691C33.4403 23.0603 33.4797 23.0647 33.5505 23.0609V23.0615Z" fill="white" fill-opacity="0.5"/>
<path d="M20.1409 16.511H25.3622V19.1072H20.1409V16.511Z" fill="white" fill-opacity="0.5"/>
<path d="M35.8846 28.108V22.8875H38.4808V28.108H35.8846Z" fill="white" fill-opacity="0.5"/>
<path d="M20.1409 21.0095H25.3741C25.3741 21.5067 25.3447 21.9977 25.3829 22.4836C25.4173 22.9225 25.3171 23.235 24.9001 23.4485C24.7091 23.5462 24.5431 23.6314 24.3208 23.6301C23.0177 23.6214 21.7146 23.6257 20.412 23.6257H20.1409V21.0095Z" fill="white" fill-opacity="0.5"/>
<path d="M25.3576 37.4909H20.1638C20.1977 37.181 20.2177 36.8804 20.2653 36.5848C20.3498 36.062 20.4469 35.5416 20.5515 35.0225C20.5627 34.9649 20.6548 34.8816 20.7099 34.8816C22.2535 34.8741 23.7977 34.8753 25.3582 34.8753V37.4915L25.3576 37.4909Z" fill="white" fill-opacity="0.5"/>
<path d="M26.1243 34.6185V33.0505C26.1243 30.8651 26.1262 28.6797 26.1199 26.4949C26.1199 26.3284 26.1662 26.2232 26.3028 26.1293C26.7305 25.8349 27.1513 25.53 27.6241 25.1937C27.6241 25.3365 27.6241 25.411 27.6241 25.4849C27.6241 27.6309 27.6253 29.7774 27.6197 31.9234C27.6197 32.0386 27.5896 32.1764 27.5226 32.2659C26.9972 32.9691 26.5545 33.7181 26.2126 34.5265C26.1982 34.5603 26.1794 34.5928 26.1625 34.626C26.1493 34.6235 26.1368 34.621 26.1237 34.6179L26.1243 34.6185Z" fill="white" fill-opacity="0.5"/>
<path d="M25.3659 29.9997V32.9842H21.1741C21.2718 32.7462 21.3476 32.5095 21.4615 32.2922C21.8366 31.5752 22.2224 30.8632 22.6125 30.1544C22.6501 30.0861 22.7465 30.0072 22.816 30.0066C23.6576 29.9966 24.4993 29.9997 25.3659 29.9997Z" fill="white" fill-opacity="0.5"/>
<path d="M20.1346 25.5125H22.4797C22.3638 25.6377 22.2649 25.7329 22.1791 25.8387C21.6011 26.5519 21.0275 27.2695 20.4458 27.9796C20.38 28.0598 20.2692 28.1017 20.1352 28.1907V25.5125H20.1346Z" fill="white" fill-opacity="0.5"/>
<path d="M28.3826 19.1241V16.5053C28.6512 16.5053 28.9142 16.4891 29.1741 16.5104C29.377 16.5273 29.4947 16.6725 29.4966 16.8773C29.5023 17.5004 29.5035 18.124 29.4966 18.7471C29.4941 18.9694 29.3488 19.1122 29.1284 19.1216C28.8879 19.1316 28.6475 19.1241 28.3826 19.1241Z" fill="white" fill-opacity="0.5"/>
<path d="M35.8755 19.8599C35.8755 19.6026 35.868 19.3615 35.878 19.121C35.8874 18.8994 36.029 18.756 36.2525 18.7535C36.8756 18.7466 37.4993 18.7466 38.123 18.7535C38.3453 18.756 38.4868 18.9006 38.4962 19.1223C38.5062 19.3621 38.4987 19.6032 38.4987 19.8593H35.8762L35.8755 19.8599Z" fill="white" fill-opacity="0.5"/>
<path d="M28.3899 25.5012C28.6473 25.5012 28.8884 25.4937 29.1282 25.5037C29.3486 25.5131 29.4933 25.6553 29.4958 25.8782C29.5027 26.5013 29.5027 27.125 29.4958 27.748C29.4933 27.9703 29.3474 28.1125 29.127 28.1212C28.8871 28.1312 28.646 28.1237 28.3899 28.1237V25.5012Z" fill="white" fill-opacity="0.5"/>
<path d="M35.8757 31.1326H38.4945C38.4945 31.4006 38.5114 31.6636 38.4888 31.9234C38.4719 32.1263 38.3273 32.2447 38.1219 32.2466C37.4988 32.2522 36.8751 32.2534 36.252 32.2466C36.0291 32.2441 35.8869 32.0994 35.8776 31.879C35.8675 31.6385 35.8751 31.3981 35.8751 31.1332L35.8757 31.1326Z" fill="white" fill-opacity="0.5"/>
<path d="M30.6967 20.5762C30.6723 20.2769 30.6385 19.9907 30.6285 19.7045C30.621 19.4885 30.7612 19.3426 30.9886 19.3213C31.5935 19.2649 32.1984 19.2123 32.8039 19.1691C33.072 19.1497 33.2147 19.28 33.2435 19.5411C33.2611 19.7026 33.2686 19.8655 33.2805 20.0295C32.427 20.2105 31.5791 20.3896 30.6961 20.5762H30.6967Z" fill="white" fill-opacity="0.5"/>
<path d="M34.2721 31.3059C34.2984 31.6152 34.3272 31.8945 34.3435 32.1744C34.3585 32.4287 34.2402 32.584 33.9884 32.609C33.3747 32.6704 32.7598 32.7249 32.1443 32.7593C32.0334 32.7656 31.8963 32.681 31.8074 32.5996C31.7209 32.5201 31.6934 32.4024 31.8387 32.3097C32.5832 31.8375 33.3823 31.5007 34.2715 31.3059H34.2721Z" fill="white" fill-opacity="0.5"/>
<path d="M29.3986 34.9705C29.4318 35.0813 29.4925 35.1915 29.4944 35.3024C29.5038 35.8941 29.5019 36.4865 29.4975 37.0782C29.4957 37.3538 29.3529 37.4915 29.0774 37.4978C28.8832 37.5022 28.6897 37.4984 28.4724 37.4984C28.6065 36.5911 28.892 35.7582 29.3986 34.9698V34.9705Z" fill="white" fill-opacity="0.5"/>
<path d="M28.3816 31.2516V30.0048C28.6496 30.0048 28.9139 29.9848 29.1719 30.0149C29.2733 30.0268 29.3767 30.1395 29.4449 30.2315C29.4625 30.2553 29.361 30.3887 29.294 30.4494C29.0022 30.7143 28.7029 30.971 28.3822 31.2516H28.3816Z" fill="white" fill-opacity="0.5"/>
<path d="M24.1795 28.1074C24.5777 27.706 24.9572 27.324 25.363 26.9158V28.1074H24.1795Z" fill="white" fill-opacity="0.5"/>
<path d="M28.385 21.4379V21.0215H29.2417C29.2467 21.0403 29.2511 21.0584 29.2561 21.0772C28.9724 21.1949 28.6881 21.3127 28.385 21.4379Z" fill="white" fill-opacity="0.5"/>
</g>
<defs>
<filter id="filter0_d_8396_39903" x="-0.000213623" y="0" width="56.0004" height="56.001" filterUnits="userSpaceOnUse" color-interpolation-filters="sRGB">
<feFlood flood-opacity="0" result="BackgroundImageFix"/>
<feColorMatrix in="SourceAlpha" type="matrix" values="0 0 0 0 0 0 0 0 0 0 0 0 0 0 0 0 0 0 127 0" result="hardAlpha"/>
<feOffset dy="1"/>
<feGaussianBlur stdDeviation="2"/>
<feComposite in2="hardAlpha" operator="out"/>
<feColorMatrix type="matrix" values="0 0 0 0 0 0 0 0 0 0 0 0 0 0 0 0 0 0 0.1 0"/>
<feBlend mode="normal" in2="BackgroundImageFix" result="effect1_dropShadow_8396_39903"/>
<feBlend mode="normal" in="SourceGraphic" in2="effect1_dropShadow_8396_39903" result="shape"/>
</filter>
<radialGradient id="paint0_radial_8396_39903" cx="0" cy="0" r="1" gradientUnits="userSpaceOnUse" gradientTransform="translate(28 51.001) rotate(-89.7164) scale(48.0016 48.0043)">
<stop stop-color="white" stop-opacity="0.12"/>
<stop offset="0.6875" stop-color="white" stop-opacity="0"/>
</radialGradient>
<radialGradient id="paint1_radial_8396_39903" cx="0" cy="0" r="1" gradientUnits="userSpaceOnUse" gradientTransform="translate(28 51.001) rotate(-89.7164) scale(48.0016 48.5149)">
<stop stop-color="#5E5E5E" stop-opacity="0.32"/>
<stop offset="0.738467" stop-color="#5E5E5E" stop-opacity="0"/>
</radialGradient>
<linearGradient id="paint2_linear_8396_39903" x1="7.66083" y1="4.33336" x2="28.4893" y2="36.5939" gradientUnits="userSpaceOnUse">
<stop stop-color="white" stop-opacity="0.4"/>
<stop offset="0.51" stop-color="white" stop-opacity="0"/>
<stop offset="0.650663" stop-color="white" stop-opacity="0"/>
<stop offset="1" stop-color="white" stop-opacity="0.1"/>
</linearGradient>
</defs>
</svg>
