<svg width="16" height="17" viewBox="0 0 16 17" fill="none" xmlns="http://www.w3.org/2000/svg">
<g clip-path="url(#clip0_7449_3103)">
<path d="M14.8435 6.068C14.3475 5.57133 13.6608 5.28667 12.9581 5.28667L11.3315 5.16667C11.3315 4.23 10.9335 3.33067 10.2401 2.7C9.85812 2.35267 9.40212 2.10267 8.91279 1.96267C8.83346 1.93933 8.74812 1.932 8.66612 1.91467V1.16667C8.66612 0.798667 8.36812 0.5 7.99946 0.5C7.63079 0.5 7.33279 0.798667 7.33279 1.16667V1.91467C7.24946 1.932 7.16212 1.93933 7.08079 1.96333C6.59346 2.10267 6.13879 2.35267 5.75746 2.69933C5.06412 3.33 4.66612 4.22933 4.66612 5.166H3.06079C2.35812 5.166 1.67146 5.45067 1.17546 5.94733L0.334124 6.71733C-0.355876 7.34933 0.0907905 8.49933 1.02679 8.49933L14.9281 8.61933C15.8448 8.61933 16.3008 7.50933 15.6495 6.86467L14.8435 6.06733V6.068ZM7.99946 6.5C7.26279 6.5 6.66612 5.90333 6.66612 5.16667C6.66612 4.43 7.26279 3.83333 7.99946 3.83333C8.73612 3.83333 9.33279 4.43 9.33279 5.16667C9.33279 5.90333 8.73612 6.5 7.99946 6.5ZM15.3328 10.5V14.1667C15.3328 15.4533 14.2861 16.5 12.9995 16.5H11.3328C10.9641 16.5 10.6661 16.2013 10.6661 15.8333V13.8333C10.6661 12.3627 9.47012 11.1667 7.99946 11.1667C6.52879 11.1667 5.33279 12.3627 5.33279 13.8333V15.8333C5.33279 16.2013 5.03479 16.5 4.66612 16.5H2.99946C1.71279 16.5 0.666124 15.4533 0.666124 14.1667V10.5C0.666124 10.132 0.964124 9.83333 1.33279 9.83333H14.6661C15.0348 9.83333 15.3328 10.132 15.3328 10.5Z" fill="white" fill-opacity="0.23" style="mix-blend-mode:lighten"/>
<path d="M14.8435 6.068C14.3475 5.57133 13.6608 5.28667 12.9581 5.28667L11.3315 5.16667C11.3315 4.23 10.9335 3.33067 10.2401 2.7C9.85812 2.35267 9.40212 2.10267 8.91279 1.96267C8.83346 1.93933 8.74812 1.932 8.66612 1.91467V1.16667C8.66612 0.798667 8.36812 0.5 7.99946 0.5C7.63079 0.5 7.33279 0.798667 7.33279 1.16667V1.91467C7.24946 1.932 7.16212 1.93933 7.08079 1.96333C6.59346 2.10267 6.13879 2.35267 5.75746 2.69933C5.06412 3.33 4.66612 4.22933 4.66612 5.166H3.06079C2.35812 5.166 1.67146 5.45067 1.17546 5.94733L0.334124 6.71733C-0.355876 7.34933 0.0907905 8.49933 1.02679 8.49933L14.9281 8.61933C15.8448 8.61933 16.3008 7.50933 15.6495 6.86467L14.8435 6.06733V6.068ZM7.99946 6.5C7.26279 6.5 6.66612 5.90333 6.66612 5.16667C6.66612 4.43 7.26279 3.83333 7.99946 3.83333C8.73612 3.83333 9.33279 4.43 9.33279 5.16667C9.33279 5.90333 8.73612 6.5 7.99946 6.5ZM15.3328 10.5V14.1667C15.3328 15.4533 14.2861 16.5 12.9995 16.5H11.3328C10.9641 16.5 10.6661 16.2013 10.6661 15.8333V13.8333C10.6661 12.3627 9.47012 11.1667 7.99946 11.1667C6.52879 11.1667 5.33279 12.3627 5.33279 13.8333V15.8333C5.33279 16.2013 5.03479 16.5 4.66612 16.5H2.99946C1.71279 16.5 0.666124 15.4533 0.666124 14.1667V10.5C0.666124 10.132 0.964124 9.83333 1.33279 9.83333H14.6661C15.0348 9.83333 15.3328 10.132 15.3328 10.5Z" fill="#a3a0a1" style="mix-blend-mode:color-dodge"/>
</g>
<defs>
<clipPath id="clip0_7449_3103">
<rect width="16" height="16" fill="white" transform="translate(0 0.5)"/>
</clipPath>
</defs>
</svg>
