<svg width="18" height="19" viewBox="0 0 18 19" fill="none" xmlns="http://www.w3.org/2000/svg">
<g clip-path="url(#clip0_5008_10354)">
<path d="M7.50007 18.8343C7.39843 18.8347 7.2978 18.814 7.20457 18.7736C7.02178 18.6952 6.87762 18.5474 6.80378 18.3627C6.72994 18.1781 6.73247 17.9716 6.81082 17.7888L9.06082 12.5388C9.14104 12.3588 9.28888 12.2176 9.47238 12.1458C9.65587 12.0739 9.86027 12.0772 10.0414 12.1548C10.2225 12.2325 10.3658 12.3783 10.4403 12.5607C10.5147 12.7432 10.5144 12.9476 10.4393 13.1298L8.18932 18.3798C8.1315 18.5147 8.03538 18.6297 7.91286 18.7104C7.79035 18.7912 7.64682 18.8343 7.50007 18.8343ZM5.18932 18.3798L7.43932 13.1298C7.51438 12.9476 7.51472 12.7432 7.44025 12.5607C7.36579 12.3783 7.22251 12.2325 7.04139 12.1548C6.86027 12.0772 6.65587 12.0739 6.47238 12.1458C6.28888 12.2176 6.14104 12.3588 6.06082 12.5388L3.81082 17.7888C3.73247 17.9716 3.72994 18.1781 3.80378 18.3627C3.87762 18.5474 4.02178 18.6952 4.20457 18.7736C4.2978 18.814 4.39843 18.8347 4.50007 18.8343C4.64682 18.8343 4.79035 18.7912 4.91286 18.7104C5.03538 18.6297 5.1315 18.5147 5.18932 18.3798ZM11.1893 18.3798L13.4393 13.1298C13.4798 13.039 13.5018 12.9411 13.5041 12.8417C13.5064 12.7424 13.4889 12.6436 13.4526 12.551C13.4164 12.4585 13.3621 12.374 13.293 12.3027C13.2238 12.2313 13.1412 12.1743 13.0498 12.1352C12.9585 12.096 12.8602 12.0754 12.7609 12.0745C12.6615 12.0736 12.5629 12.0925 12.4709 12.1301C12.3789 12.1677 12.2952 12.2231 12.2248 12.2933C12.1544 12.3635 12.0987 12.4469 12.0608 12.5388L9.81082 17.7888C9.73247 17.9716 9.72994 18.1781 9.80378 18.3627C9.87762 18.5474 10.0218 18.6952 10.2046 18.7736C10.2978 18.814 10.3984 18.8347 10.5001 18.8343C10.6468 18.8343 10.7903 18.7912 10.9129 18.7104C11.0354 18.6297 11.1315 18.5147 11.1893 18.3798ZM13.4393 4.68331C13.3281 4.65629 13.2243 4.60485 13.1354 4.53273C13.0466 4.4606 12.9749 4.36959 12.9256 4.26631C12.3519 3.06824 11.3991 2.09278 10.2149 1.49104C9.03063 0.889292 7.68101 0.694844 6.37507 0.937812C5.17334 1.16121 4.06937 1.74877 3.21288 2.62083C2.35638 3.49289 1.78879 4.60725 1.58707 5.81281C1.46616 6.53077 1.47455 7.26455 1.61182 7.97956C1.62935 8.09846 1.61746 8.21984 1.57719 8.33307C1.53691 8.44631 1.46949 8.54794 1.38082 8.62906C0.874409 9.0912 0.490291 9.67152 0.262746 10.3182C0.0352021 10.9649 -0.0286893 11.6579 0.0767743 12.3354C0.182238 13.0128 0.453776 13.6535 0.867153 14.2005C1.28053 14.7474 1.82289 15.1835 2.44582 15.4698C2.52699 15.5046 2.61424 15.5231 2.70256 15.524C2.79087 15.525 2.8785 15.5085 2.96041 15.4754C3.04232 15.4424 3.11688 15.3935 3.17981 15.3315C3.24273 15.2695 3.29278 15.1957 3.32707 15.1143L4.68457 11.9471C4.80114 11.6752 4.97016 11.429 5.18197 11.2226C5.39378 11.0161 5.64421 10.8534 5.91895 10.7439C6.19369 10.6343 6.48734 10.58 6.7831 10.584C7.07885 10.588 7.37091 10.6503 7.64257 10.7673C7.84155 10.8679 8.06212 10.9182 8.28502 10.9139C8.50792 10.9096 8.72638 10.8507 8.92132 10.7426C9.19304 10.6196 9.48856 10.5583 9.78676 10.5628C10.085 10.5673 10.3785 10.6377 10.6463 10.7688C10.8454 10.8668 11.0651 10.9156 11.287 10.911C11.5089 10.9065 11.7264 10.8487 11.9213 10.7426C12.1943 10.6244 12.4892 10.5656 12.7866 10.57C13.0839 10.5744 13.377 10.6419 13.6463 10.7681C13.9222 10.8896 14.1712 11.0649 14.3785 11.2837C14.5859 11.5025 14.7476 11.7605 14.8541 12.0426C14.9606 12.3247 15.0098 12.6251 14.9988 12.9264C14.9878 13.2277 14.9168 13.5238 14.7901 13.7973L14.4286 14.6411C14.3942 14.7194 14.3846 14.8064 14.4011 14.8904C14.4176 14.9744 14.4594 15.0513 14.5208 15.1108C14.5823 15.1703 14.6606 15.2096 14.745 15.2234C14.8295 15.2371 14.9161 15.2247 14.9933 15.1878C19.4251 12.9371 18.9488 5.77756 13.4371 4.68331H13.4393Z" fill="white" fill-opacity="0.96"/>
</g>
<defs>
<clipPath id="clip0_5008_10354">
<rect width="18" height="18" fill="white" transform="translate(0 0.833984)"/>
</clipPath>
</defs>
</svg>
