<svg width="18" height="16" viewBox="0 0 18 16" fill="none" xmlns="http://www.w3.org/2000/svg">
<g clip-path="url(#clip0_7002_28646)">
<path d="M9.00316 7.67177C6.80485 7.67177 4.60655 7.67247 2.40754 7.67177C0.961189 7.67107 0.0133378 6.72392 0.0119341 5.28038C0.0105303 4.3564 0.00912461 3.43243 0.0119342 2.50915C0.0168495 1.159 0.977337 0.181658 2.33101 0.177445C5.11487 0.167616 7.89804 0.173935 10.6812 0.173233C12.3066 0.173233 13.932 0.171829 15.5574 0.173935C17.0465 0.176744 17.9874 1.11968 17.9881 2.60815C17.9881 3.53213 17.9923 4.45611 17.9874 5.37938C17.9803 6.68671 17.0086 7.66685 15.7041 7.67037C13.4707 7.67598 11.2373 7.67177 9.00316 7.67177ZM5.26302 1.70524C5.26302 2.44877 5.27074 3.14948 5.26021 3.85018C5.25319 4.355 4.94286 4.67376 4.49421 4.66744C4.06241 4.66182 3.76261 4.34728 3.75348 3.86001C3.74225 3.26392 3.75138 2.66713 3.74927 2.07104C3.74927 1.94817 3.73874 1.8253 3.73242 1.68768C3.26832 1.68768 2.84776 1.68628 2.4272 1.68768C1.77493 1.69049 1.51024 1.95168 1.50743 2.60113C1.50392 3.44296 1.50603 4.28549 1.50673 5.12732C1.50673 5.93405 1.74755 6.17698 2.54796 6.17698C6.85189 6.17698 11.1551 6.17698 15.4591 6.17698C15.5524 6.17698 15.6465 6.18119 15.7399 6.17347C16.1759 6.13696 16.4771 5.86735 16.4848 5.43625C16.5031 4.43083 16.501 3.42471 16.4863 2.41928C16.4806 2.03944 16.2209 1.727 15.8824 1.70805C15.3509 1.67856 14.8159 1.70032 14.3062 1.70032C14.2774 1.74385 14.2655 1.75298 14.2655 1.76211C14.2599 2.20584 14.2599 2.65028 14.2493 3.09401C14.2374 3.59391 13.925 3.93233 13.4903 3.92882C13.0557 3.92601 12.7524 3.5883 12.7391 3.08488C12.7328 2.85108 12.7377 2.61728 12.7377 2.38348C12.7377 2.15599 12.7377 1.92851 12.7377 1.70664L11.2485 1.70664C11.2485 1.83864 11.2485 1.95308 11.2485 2.06753C11.2485 2.66362 11.2527 3.26041 11.2471 3.8565C11.2422 4.34236 10.9501 4.65901 10.5141 4.66674C10.0563 4.67516 9.76495 4.36553 9.75512 3.85159C9.7495 3.55951 9.75372 3.26673 9.75372 2.97465C9.75372 2.5569 9.75372 2.13914 9.75372 1.70734L8.24699 1.70734C8.24699 2.1918 8.28069 2.66011 8.23295 3.11999C8.20907 3.35098 8.08199 3.60866 7.92121 3.77787C7.72462 3.98429 7.42973 3.97656 7.16855 3.84386C6.89472 3.70414 6.75641 3.47034 6.7543 3.16282C6.75079 2.67626 6.7536 2.18969 6.7536 1.70453L5.26372 1.70453L5.26302 1.70524Z" fill="white"/>
<path d="M15.3672 11.3092C15.0814 11.0375 14.7879 10.7728 14.5106 10.492C14.175 10.1522 14.1588 9.70352 14.4551 9.3981C14.7697 9.07373 15.212 9.08496 15.5736 9.44163C16.2982 10.1564 17.0185 10.8753 17.7361 11.5978C18.0921 11.9559 18.0864 12.3786 17.7242 12.7423C17.0143 13.4556 16.3031 14.1668 15.5876 14.8746C15.2211 15.2369 14.79 15.2586 14.4685 14.9434C14.1546 14.6358 14.1715 14.1795 14.5225 13.8249C14.7935 13.5511 15.0779 13.2892 15.4226 12.9585L2.58245 12.9585C2.90542 13.2702 3.18345 13.53 3.45166 13.7989C3.82448 14.1732 3.85256 14.6274 3.5324 14.9427C3.20382 15.267 2.77412 15.2354 2.38726 14.8521C1.68164 14.1514 0.977423 13.4493 0.276014 12.7444C-0.0764448 12.3898 -0.0968057 11.9657 0.238102 11.6259C0.977425 10.876 1.72306 10.1325 2.47432 9.39529C2.74112 9.13341 3.07954 9.09971 3.37653 9.26962C3.66089 9.4318 3.81816 9.75056 3.72759 10.0763C3.68336 10.2357 3.57734 10.3923 3.46149 10.5145C3.1975 10.7918 2.91033 11.0467 2.55998 11.3802L15.3131 11.3802C15.3314 11.357 15.3489 11.3338 15.3672 11.3114L15.3672 11.3092Z" fill="white"/>
</g>
<defs>
<clipPath id="clip0_7002_28646">
<rect width="14.9922" height="18" fill="white" transform="translate(18 0.171875) rotate(90)"/>
</clipPath>
</defs>
</svg>
