<svg width="53" height="53" viewBox="0 0 53 53" fill="none" xmlns="http://www.w3.org/2000/svg">
<path d="M19.0302 31.1315C17.0635 29.1648 14.4468 28.0815 11.6656 28.0815C8.88434 28.0815 6.26768 29.1648 4.29893 31.1315C0.236427 35.1919 0.236427 41.8023 4.35309 45.9148L8.49893 49.7669C9.39059 50.5961 10.5323 51.0086 11.6739 51.0086C12.8156 51.0086 13.9656 50.5919 14.8573 49.7586L19.026 45.8607C20.9948 43.894 22.0781 41.2773 22.0781 38.4961C22.0781 35.7148 20.9948 33.0982 19.026 31.1294L19.0302 31.1315ZM37.6656 22.6836C38.5573 23.5107 39.6989 23.9253 40.8406 23.9253C41.9823 23.9253 43.1343 23.5086 44.026 22.6753L48.1948 18.7773C52.2573 14.7169 52.2573 8.10651 48.1948 4.04609C46.226 2.07943 43.6114 0.996094 40.8302 0.996094C38.0489 0.996094 35.4323 2.07943 33.4635 4.04609C29.401 8.10651 29.401 14.7169 33.5177 18.8294L37.6635 22.6815L37.6656 22.6836ZM51.2489 42.6628C51.2489 47.2586 47.5114 50.9961 42.9156 50.9961H24.1656C23.0156 50.9961 22.0823 50.0628 22.0823 48.9128C22.0823 47.7628 23.0156 46.8294 24.1656 46.8294H42.9156C45.2135 46.8294 47.0823 44.9607 47.0823 42.6628C47.0823 40.3648 45.2135 38.4961 42.9156 38.4961H32.4989C27.9031 38.4961 24.1656 34.7586 24.1656 30.1628C24.1656 26.6378 26.3989 23.4794 29.7218 22.3044C30.8093 21.919 31.9968 22.4898 32.3802 23.5753C32.7635 24.6607 32.1948 25.8503 31.1093 26.2336C29.4489 26.8211 28.3323 28.4003 28.3323 30.1628C28.3323 32.4607 30.201 34.3294 32.4989 34.3294H42.9156C47.5114 34.3294 51.2489 38.0669 51.2489 42.6628Z" fill="white" fill-opacity="0.5"/>
<g filter="url(#filter0_f_7461_9074)">
<path d="M11.6656 28.5854C14.3127 28.5854 16.8009 29.6149 18.6733 31.4857L18.6725 31.4869C20.5474 33.3619 21.5781 35.8514 21.5781 38.5C21.5781 41.146 20.5495 43.6329 18.6784 45.5051L14.5159 49.3972C14.5158 49.3972 14.5158 49.3973 14.5158 49.3973C13.7212 50.1398 12.695 50.5125 11.6739 50.5125C10.6524 50.5125 9.63411 50.1437 8.83942 49.4047L8.83927 49.4045L4.70016 45.5587C0.783697 41.6395 0.788984 35.3506 4.65229 31.4892C6.52734 29.6161 9.01693 28.5854 11.6656 28.5854ZM38.0123 22.3271L38.0106 22.3254L38.0039 22.3191L33.8647 18.4733C29.9483 14.554 29.9536 8.26517 33.8169 4.40374C35.6919 2.53068 38.1815 1.5 40.8302 1.5C43.4787 1.5 45.9663 2.5306 47.8414 4.40374C51.7065 8.26694 51.7084 14.5562 47.8471 18.4218L43.6846 22.3139C42.8902 23.0563 41.862 23.4292 40.8406 23.4292C39.8225 23.4292 38.8066 23.0607 38.0123 22.3271ZM29.8885 22.7797L29.8889 22.7796C30.7148 22.4869 31.617 22.9197 31.9087 23.7457C32.2001 24.5707 31.7679 25.4746 30.9428 25.766L30.9426 25.7661C29.0824 26.4243 27.8323 28.1923 27.8323 30.1667C27.8323 32.7407 29.9249 34.8333 32.4989 34.8333H42.9156C47.2353 34.8333 50.7489 38.347 50.7489 42.6667C50.7489 46.9864 47.2353 50.5 42.9156 50.5H24.1656C23.2917 50.5 22.5823 49.7905 22.5823 48.9167C22.5823 48.0428 23.2917 47.3333 24.1656 47.3333H42.9156C45.4897 47.3333 47.5823 45.2407 47.5823 42.6667C47.5823 40.0926 45.4897 38 42.9156 38H32.4989C28.1792 38 24.6656 34.4864 24.6656 30.1667C24.6656 26.8535 26.7654 23.8841 29.8885 22.7797Z" stroke="white"/>
</g>
<defs>
<filter id="filter0_f_7461_9074" x="0.258789" y="0" width="51.9902" height="52.0117" filterUnits="userSpaceOnUse" color-interpolation-filters="sRGB">
<feFlood flood-opacity="0" result="BackgroundImageFix"/>
<feBlend mode="normal" in="SourceGraphic" in2="BackgroundImageFix" result="shape"/>
<feGaussianBlur stdDeviation="0.5" result="effect1_foregroundBlur_7461_9074"/>
</filter>
</defs>
</svg>
