<svg width="16" height="16" viewBox="0 0 16 16" fill="none" xmlns="http://www.w3.org/2000/svg">
<g clip-path="url(#clip0_7461_9156)">
<path d="M8.00001 9.33333C10.8507 9.33333 13.0893 5.13867 13.7767 2.63C13.601 2.16133 13.3214 1.73858 12.9588 1.39356C12.5962 1.04853 12.1602 0.790201 11.6833 0.638C10.4956 0.237678 9.25325 0.0224934 8.00001 0C6.74685 0.0226791 5.5046 0.237628 4.31668 0.637333C3.8399 0.78978 3.40386 1.04827 3.0413 1.3934C2.67874 1.73852 2.39909 2.1613 2.22335 2.63C2.91068 5.13867 5.14935 9.33333 8.00001 9.33333ZM6.66668 2H9.33335C9.51016 2 9.67973 2.07024 9.80475 2.19526C9.92978 2.32029 10 2.48986 10 2.66667C10 2.84348 9.92978 3.01305 9.80475 3.13807C9.67973 3.2631 9.51016 3.33333 9.33335 3.33333H6.66668C6.48987 3.33333 6.3203 3.2631 6.19528 3.13807C6.07025 3.01305 6.00001 2.84348 6.00001 2.66667C6.00001 2.48986 6.07025 2.32029 6.19528 2.19526C6.3203 2.07024 6.48987 2 6.66668 2ZM14 5.72333C12.7393 8.21533 10.6473 10.6667 8.00001 10.6667C5.35268 10.6667 3.26068 8.21533 2.00001 5.72333V10.7847C2.00007 11.6222 2.31543 12.4291 2.88335 13.0447L2.05068 15.0807C2.01613 15.1619 1.99808 15.2493 1.99757 15.3376C1.99706 15.4259 2.0141 15.5134 2.0477 15.5951C2.08131 15.6768 2.13081 15.751 2.19332 15.8134C2.25584 15.8757 2.33012 15.9251 2.41187 15.9585C2.49361 15.9919 2.58118 16.0088 2.6695 16.0081C2.75781 16.0074 2.84511 15.9892 2.92631 15.9544C3.00752 15.9197 3.08101 15.8692 3.14253 15.8058C3.20405 15.7425 3.25237 15.6675 3.28468 15.5853L4.00001 13.83C5.25218 14.41 6.62035 14.6962 8.00001 14.6667C9.3797 14.6964 10.7479 14.4103 12 13.83L12.718 15.5853C12.7512 15.6664 12.7999 15.7402 12.8616 15.8024C12.9232 15.8646 12.9965 15.9141 13.0773 15.9479C13.158 15.9818 13.2447 15.9995 13.3322 15.9999C13.4198 16.0003 13.5066 15.9835 13.5877 15.9503C13.6688 15.9172 13.7425 15.8684 13.8047 15.8068C13.8669 15.7451 13.9164 15.6719 13.9503 15.5911C13.9842 15.5103 14.0018 15.4237 14.0023 15.3361C14.0027 15.2485 13.9858 15.1617 13.9527 15.0807L13.1193 13.0447C13.6863 12.4287 14.0007 11.6219 14 10.7847V5.72333ZM8.00001 13.3333C7.86816 13.3333 7.73927 13.2942 7.62963 13.221C7.52 13.1477 7.43455 13.0436 7.38409 12.9218C7.33364 12.8 7.32043 12.6659 7.34616 12.5366C7.37188 12.4073 7.43537 12.2885 7.52861 12.1953C7.62184 12.102 7.74063 12.0385 7.86995 12.0128C7.99927 11.9871 8.13332 12.0003 8.25514 12.0507C8.37695 12.1012 8.48107 12.1867 8.55433 12.2963C8.62758 12.4059 8.66668 12.5348 8.66668 12.6667C8.66668 12.8435 8.59644 13.013 8.47142 13.1381C8.34639 13.2631 8.17683 13.3333 8.00001 13.3333Z" fill="white"/>
</g>
<defs>
<clipPath id="clip0_7461_9156">
<rect width="16" height="16" fill="white"/>
</clipPath>
</defs>
</svg>
