<svg width="18" height="19" viewBox="0 0 18 19" fill="none" xmlns="http://www.w3.org/2000/svg">
<g clip-path="url(#clip0_7044_8555)">
<path d="M1.875 5.70266H3.297C3.6165 6.64391 4.40175 7.12016 5.64525 7.12016C6.88875 7.12016 7.674 6.64391 7.99275 5.70266H16.125C16.7467 5.70266 17.25 5.19941 17.25 4.57766C17.25 3.95591 16.7467 3.45266 16.125 3.45266H7.99275C7.67325 2.51141 6.888 2.03516 5.64525 2.03516C4.4025 2.03516 3.6165 2.51141 3.297 3.45266H1.875C1.25325 3.45266 0.75 3.95591 0.75 4.57766C0.75 5.19941 1.25325 5.70266 1.875 5.70266Z" fill="white" fill-opacity="0.96"/>
<path d="M16.125 8.37453H14.703C14.3835 7.43328 13.5982 6.95703 12.3547 6.95703C11.1112 6.95703 10.3268 7.43328 10.0072 8.37453H1.875C1.25325 8.37453 0.75 8.87778 0.75 9.49953C0.75 10.1213 1.25325 10.6245 1.875 10.6245H10.0072C10.3268 11.5658 11.112 12.042 12.3547 12.042C13.5975 12.042 14.3835 11.5665 14.703 10.6245H16.125C16.7467 10.6245 17.25 10.1213 17.25 9.49953C17.25 8.87778 16.7467 8.37453 16.125 8.37453Z" fill="white" fill-opacity="0.96"/>
<path d="M16.125 13.2964H7.99275C7.67325 12.3552 6.888 11.8789 5.64525 11.8789C4.4025 11.8789 3.6165 12.3544 3.297 13.2964H1.875C1.25325 13.2964 0.75 13.8004 0.75 14.4214C0.75 15.0424 1.25325 15.5464 1.875 15.5464H3.297C3.6165 16.4884 4.40175 16.9639 5.64525 16.9639C6.88875 16.9639 7.674 16.4877 7.99275 15.5464H16.125C16.7467 15.5464 17.25 15.0424 17.25 14.4214C17.25 13.8004 16.7467 13.2964 16.125 13.2964Z" fill="white" fill-opacity="0.96"/>
</g>
<defs>
<clipPath id="clip0_7044_8555">
<rect width="18" height="18" fill="white" transform="translate(0 0.5)"/>
</clipPath>
</defs>
</svg>
