<svg width="56" height="56" viewBox="0 0 56 56" fill="none" xmlns="http://www.w3.org/2000/svg">
<g filter="url(#filter0_d_8396_39901)">
<rect x="4" y="3" width="48" height="48" rx="12" fill="white" fill-opacity="0.06" style="mix-blend-mode:lighten" shape-rendering="crispEdges"/>
<rect x="4" y="3" width="48" height="48" rx="12" fill="#5E5E5E" fill-opacity="0.18" style="mix-blend-mode:color-dodge" shape-rendering="crispEdges"/>
<rect x="4" y="3" width="48" height="48" rx="12" fill="url(#paint0_radial_8396_39901)" shape-rendering="crispEdges"/>
<rect x="4" y="3" width="48" height="48" rx="12" fill="url(#paint1_radial_8396_39901)" style="mix-blend-mode:color-dodge" shape-rendering="crispEdges"/>
<rect x="4.25" y="3.25" width="47.5" height="47.5" rx="11.75" stroke="url(#paint2_linear_8396_39901)" stroke-width="0.5" shape-rendering="crispEdges"/>
<path d="M36 34V20C36 17.239 33.761 15 31 15H25C22.239 15 20 17.239 20 20V34C20 36.761 22.239 39 25 39H31C33.761 39 36 36.761 36 34ZM31.5 27C31.5 28.48 30.578 29.738 29.281 30.25C30.578 30.763 31.5 32.022 31.5 33.5C31.5 35.43 29.93 37 28 37C26.07 37 24.5 35.43 24.5 33.5C24.5 32.023 25.423 30.763 26.719 30.25C25.421 29.738 24.5 28.479 24.5 27C24.5 25.521 25.421 24.262 26.718 23.75C25.421 23.238 24.5 21.979 24.5 20.5C24.5 18.567 26.067 17 28 17C29.933 17 31.5 18.567 31.5 20.5C31.5 21.979 30.579 23.238 29.282 23.75C30.579 24.262 31.5 25.521 31.5 27ZM28 25.5C28.828 25.5 29.5 26.172 29.5 27C29.5 27.828 28.828 28.5 28 28.5C27.172 28.5 26.5 27.828 26.5 27C26.5 26.172 27.172 25.5 28 25.5ZM28 32C28.828 32 29.5 32.672 29.5 33.5C29.5 34.328 28.828 35 28 35C27.172 35 26.5 34.328 26.5 33.5C26.5 32.672 27.172 32 28 32Z" fill="white" fill-opacity="0.5"/>
</g>
<defs>
<filter id="filter0_d_8396_39901" x="0" y="0" width="56" height="56" filterUnits="userSpaceOnUse" color-interpolation-filters="sRGB">
<feFlood flood-opacity="0" result="BackgroundImageFix"/>
<feColorMatrix in="SourceAlpha" type="matrix" values="0 0 0 0 0 0 0 0 0 0 0 0 0 0 0 0 0 0 127 0" result="hardAlpha"/>
<feOffset dy="1"/>
<feGaussianBlur stdDeviation="2"/>
<feComposite in2="hardAlpha" operator="out"/>
<feColorMatrix type="matrix" values="0 0 0 0 0 0 0 0 0 0 0 0 0 0 0 0 0 0 0.1 0"/>
<feBlend mode="normal" in2="BackgroundImageFix" result="effect1_dropShadow_8396_39901"/>
<feBlend mode="normal" in="SourceGraphic" in2="effect1_dropShadow_8396_39901" result="shape"/>
</filter>
<radialGradient id="paint0_radial_8396_39901" cx="0" cy="0" r="1" gradientUnits="userSpaceOnUse" gradientTransform="translate(28 51) rotate(-89.7164) scale(48.0006 48.0038)">
<stop stop-color="white" stop-opacity="0.12"/>
<stop offset="0.6875" stop-color="white" stop-opacity="0"/>
</radialGradient>
<radialGradient id="paint1_radial_8396_39901" cx="0" cy="0" r="1" gradientUnits="userSpaceOnUse" gradientTransform="translate(28 51) rotate(-89.7164) scale(48.0006 48.5145)">
<stop stop-color="#5E5E5E" stop-opacity="0.32"/>
<stop offset="0.738467" stop-color="#5E5E5E" stop-opacity="0"/>
</radialGradient>
<linearGradient id="paint2_linear_8396_39901" x1="7.66102" y1="4.33333" x2="28.4889" y2="36.5934" gradientUnits="userSpaceOnUse">
<stop stop-color="white" stop-opacity="0.4"/>
<stop offset="0.51" stop-color="white" stop-opacity="0"/>
<stop offset="0.650663" stop-color="white" stop-opacity="0"/>
<stop offset="1" stop-color="white" stop-opacity="0.1"/>
</linearGradient>
</defs>
</svg>
