<svg width="68" height="68" viewBox="0 0 68 68" fill="none" xmlns="http://www.w3.org/2000/svg">
<g filter="url(#filter0_d_8396_40296)">
<path d="M10 29.2C10 22.4794 10 19.1191 11.3079 16.5521C12.4584 14.2942 14.2942 12.4584 16.5521 11.3079C19.1191 10 22.4794 10 29.2 10H38.8C45.5206 10 48.8809 10 51.4479 11.3079C53.7058 12.4584 55.5416 14.2942 56.6921 16.5521C58 19.1191 58 22.4794 58 29.2V38.8C58 45.5206 58 48.8809 56.6921 51.4479C55.5416 53.7058 53.7058 55.5416 51.4479 56.6921C48.8809 58 45.5206 58 38.8 58H29.2C22.4794 58 19.1191 58 16.5521 56.6921C14.2942 55.5416 12.4584 53.7058 11.3079 51.4479C10 48.8809 10 45.5206 10 38.8V29.2Z" fill="url(#paint0_linear_8396_40296)"/>
<path d="M10.7 29.2C10.7 25.8281 10.7005 23.3413 10.8612 21.3754C11.0211 19.4177 11.3363 18.0382 11.9316 16.8699C13.015 14.7437 14.7437 13.015 16.8699 11.9316C18.0382 11.3363 19.4177 11.0211 21.3754 10.8612C23.3413 10.7005 25.8281 10.7 29.2 10.7H38.8C42.1719 10.7 44.6587 10.7005 46.6246 10.8612C48.5823 11.0211 49.9618 11.3363 51.1301 11.9316C53.2563 13.015 54.985 14.7437 56.0684 16.8699C56.6637 18.0382 56.9789 19.4177 57.1388 21.3754C57.2995 23.3413 57.3 25.8281 57.3 29.2V38.8C57.3 42.1719 57.2995 44.6587 57.1388 46.6246C56.9789 48.5823 56.6637 49.9618 56.0684 51.1301C54.985 53.2563 53.2563 54.985 51.1301 56.0684C49.9618 56.6637 48.5823 56.9789 46.6246 57.1388C44.6587 57.2995 42.1719 57.3 38.8 57.3H29.2C25.8281 57.3 23.3413 57.2995 21.3754 57.1388C19.4177 56.9789 18.0382 56.6637 16.8699 56.0684C14.7437 54.985 13.015 53.2563 11.9316 51.1301C11.3363 49.9618 11.0211 48.5823 10.8612 46.6246C10.7005 44.6587 10.7 42.1719 10.7 38.8V29.2Z" stroke="url(#paint1_linear_8396_40296)" stroke-width="1.4"/>
<path d="M42 41V27C42 24.239 39.761 22 37 22H31C28.239 22 26 24.239 26 27V41C26 43.761 28.239 46 31 46H37C39.761 46 42 43.761 42 41ZM37.5 34C37.5 35.48 36.578 36.738 35.281 37.25C36.578 37.763 37.5 39.022 37.5 40.5C37.5 42.43 35.93 44 34 44C32.07 44 30.5 42.43 30.5 40.5C30.5 39.023 31.423 37.763 32.719 37.25C31.421 36.738 30.5 35.479 30.5 34C30.5 32.521 31.421 31.262 32.718 30.75C31.421 30.238 30.5 28.979 30.5 27.5C30.5 25.567 32.067 24 34 24C35.933 24 37.5 25.567 37.5 27.5C37.5 28.979 36.579 30.238 35.282 30.75C36.579 31.262 37.5 32.521 37.5 34ZM34 32.5C34.828 32.5 35.5 33.172 35.5 34C35.5 34.828 34.828 35.5 34 35.5C33.172 35.5 32.5 34.828 32.5 34C32.5 33.172 33.172 32.5 34 32.5ZM34 39C34.828 39 35.5 39.672 35.5 40.5C35.5 41.328 34.828 42 34 42C33.172 42 32.5 41.328 32.5 40.5C32.5 39.672 33.172 39 34 39Z" fill="#1F1F1F"/>
</g>
<defs>
<filter id="filter0_d_8396_40296" x="-90" y="-90" width="248" height="248" filterUnits="userSpaceOnUse" color-interpolation-filters="sRGB">
<feFlood flood-opacity="0" result="BackgroundImageFix"/>
<feColorMatrix in="SourceAlpha" type="matrix" values="0 0 0 0 0 0 0 0 0 0 0 0 0 0 0 0 0 0 127 0" result="hardAlpha"/>
<feOffset/>
<feGaussianBlur stdDeviation="5"/>
<feComposite in2="hardAlpha" operator="out"/>
<feColorMatrix type="matrix" values="0 0 0 0 0.0392157 0 0 0 0 0.517647 0 0 0 0 1 0 0 0 1 0"/>
<feBlend mode="normal" in2="BackgroundImageFix" result="effect1_dropShadow_8396_40296"/>
<feBlend mode="normal" in="SourceGraphic" in2="effect1_dropShadow_8396_40296" result="shape"/>
</filter>
<linearGradient id="paint0_linear_8396_40296" x1="10" y1="34" x2="58" y2="34" gradientUnits="userSpaceOnUse">
<stop stop-color="#0A84FF"/>
<stop offset="1" stop-color="#00D9FF"/>
</linearGradient>
<linearGradient id="paint1_linear_8396_40296" x1="-5.52941" y1="14.2439" x2="-0.399731" y2="61.7067" gradientUnits="userSpaceOnUse">
<stop stop-color="white" stop-opacity="0.4"/>
<stop offset="0.368352" stop-color="white" stop-opacity="0.01"/>
<stop offset="0.574372" stop-color="white" stop-opacity="0.01"/>
<stop offset="1" stop-color="white" stop-opacity="0.1"/>
</linearGradient>
</defs>
</svg>
