<svg xmlns="http://www.w3.org/2000/svg" width="17" height="16" viewBox="0 0 17 16" fill="none">
<g clip-path="url(#clip0_383_89)">
<path d="M7.16081 15.3333C7.16081 15.5101 7.09057 15.6797 6.96555 15.8047C6.84052 15.9298 6.67095 16 6.49414 16H1.16081C0.983996 16 0.814427 15.9298 0.689403 15.8047C0.564379 15.6797 0.494141 15.5101 0.494141 15.3333C0.494141 15.1565 0.564379 14.987 0.689403 14.8619C0.814427 14.7369 0.983996 14.6667 1.16081 14.6667H6.49414C6.67095 14.6667 6.84052 14.7369 6.96555 14.8619C7.09057 14.987 7.16081 15.1565 7.16081 15.3333Z" fill="white" fill-opacity="0.5"/>
<path d="M1.16081 13.3333H5.16081C5.33762 13.3333 5.50719 13.2631 5.63221 13.1381C5.75724 13.013 5.82747 12.8435 5.82747 12.6667C5.82747 12.4899 5.75724 12.3203 5.63221 12.1953C5.50719 12.0702 5.33762 12 5.16081 12H1.16081C0.983996 12 0.814427 12.0702 0.689403 12.1953C0.564379 12.3203 0.494141 12.4899 0.494141 12.6667C0.494141 12.8435 0.564379 13.013 0.689403 13.1381C0.814427 13.2631 0.983996 13.3333 1.16081 13.3333Z" fill="white" fill-opacity="0.5"/>
<path d="M1.16081 10.6667H3.82747C4.00429 10.6667 4.17385 10.5964 4.29888 10.4714C4.4239 10.3464 4.49414 10.1768 4.49414 10C4.49414 9.82319 4.4239 9.65362 4.29888 9.52859C4.17385 9.40357 4.00429 9.33333 3.82747 9.33333H1.16081C0.983996 9.33333 0.814427 9.40357 0.689403 9.52859C0.564379 9.65362 0.494141 9.82319 0.494141 10C0.494141 10.1768 0.564379 10.3464 0.689403 10.4714C0.814427 10.5964 0.983996 10.6667 1.16081 10.6667Z" fill="white" fill-opacity="0.5"/>
<path d="M8.49414 0C6.37241 0 4.33758 0.842855 2.83729 2.34315C1.337 3.84344 0.494141 5.87827 0.494141 8C0.494141 8.04067 0.499474 8.08 0.500141 8.12067C0.711871 8.04307 0.935316 8.00226 1.16081 8H3.82747C4.15474 7.99889 4.47724 8.07838 4.76651 8.23144C5.05578 8.3845 5.30291 8.60643 5.48608 8.87764C5.66926 9.14884 5.78284 9.46097 5.8168 9.78647C5.85076 10.112 5.80405 10.4408 5.68081 10.744C5.95377 10.8156 6.20831 10.9447 6.42741 11.1226C6.6465 11.3004 6.82512 11.523 6.95133 11.7754C7.07754 12.0278 7.14842 12.3043 7.15926 12.5863C7.17009 12.8683 7.12061 13.1493 7.01414 13.4107C7.28075 13.4787 7.53012 13.6019 7.74611 13.7723C7.96211 13.9428 8.13992 14.1567 8.26804 14.4002C8.39617 14.6437 8.47176 14.9114 8.48992 15.1859C8.50808 15.4604 8.46841 15.7357 8.37347 15.994C8.41414 15.994 8.45347 16 8.49414 16C10.6159 16 12.6507 15.1571 14.151 13.6569C15.6513 12.1566 16.4941 10.1217 16.4941 8C16.4941 5.87827 15.6513 3.84344 14.151 2.34315C12.6507 0.842855 10.6159 0 8.49414 0ZM10.9655 10.4713C10.8405 10.5963 10.6709 10.6665 10.4941 10.6665C10.3174 10.6665 10.1478 10.5963 10.0228 10.4713L8.02281 8.47133C7.89777 8.34634 7.82751 8.1768 7.82747 8V4.66667C7.82747 4.48986 7.89771 4.32029 8.02274 4.19526C8.14776 4.07024 8.31733 4 8.49414 4C8.67095 4 8.84052 4.07024 8.96555 4.19526C9.09057 4.32029 9.16081 4.48986 9.16081 4.66667V7.724L10.9655 9.52867C11.0905 9.65369 11.1607 9.82322 11.1607 10C11.1607 10.1768 11.0905 10.3463 10.9655 10.4713Z" fill="white" fill-opacity="0.5"/>
</g>
<defs>
<clipPath id="clip0_383_89">
<rect width="16" height="16" fill="white" transform="translate(0.494141)"/>
</clipPath>
</defs>
</svg>