<svg width="51" height="50" viewBox="0 0 51 50" fill="none" xmlns="http://www.w3.org/2000/svg">
<g clip-path="url(#clip0_7461_10614)">
<path d="M46.6364 17.4C45.0864 15.8479 42.9406 14.9583 40.7447 14.9583L35.6614 14.5833C35.6614 11.6562 34.4177 8.84583 32.251 6.875C31.0572 5.78958 29.6322 5.00833 28.1031 4.57083C27.8552 4.49792 27.5885 4.475 27.3322 4.42083V2.08333C27.3322 0.933333 26.401 0 25.2489 0C24.0968 0 23.1656 0.933333 23.1656 2.08333V4.42083C22.9052 4.475 22.6322 4.49792 22.3781 4.57292C20.8552 5.00833 19.4343 5.78958 18.2427 6.87292C16.076 8.84375 14.8322 11.6542 14.8322 14.5812H9.81558C7.61975 14.5812 5.47391 15.4708 3.92391 17.0229L1.29475 19.4292C-0.861503 21.4042 0.534331 24.9979 3.45933 24.9979L46.901 25.3729C49.7656 25.3729 51.1906 21.9042 49.1552 19.8896L46.6364 17.3979V17.4ZM25.2489 18.75C22.9468 18.75 21.0822 16.8854 21.0822 14.5833C21.0822 12.2812 22.9468 10.4167 25.2489 10.4167C27.551 10.4167 29.4156 12.2812 29.4156 14.5833C29.4156 16.8854 27.551 18.75 25.2489 18.75ZM48.1656 31.25V42.7083C48.1656 46.7292 44.8947 50 40.8739 50H35.6656C34.5135 50 33.5822 49.0667 33.5822 47.9167V41.6667C33.5822 37.0708 29.8447 33.3333 25.2489 33.3333C20.6531 33.3333 16.9156 37.0708 16.9156 41.6667V47.9167C16.9156 49.0667 15.9843 50 14.8322 50H9.62391C5.60308 50 2.33225 46.7292 2.33225 42.7083V31.25C2.33225 30.1 3.2635 29.1667 4.41558 29.1667H46.0822C47.2343 29.1667 48.1656 30.1 48.1656 31.25Z" fill="white" fill-opacity="0.5"/>
<g filter="url(#filter0_f_7461_10614)">
<path d="M47.1364 18.6083L46.2826 17.7533C44.8265 16.2952 42.8079 15.4583 40.7447 15.4583H40.7263L40.708 15.457L35.6246 15.082L35.1614 15.0478V14.5833C35.1614 11.7972 33.9772 9.12106 31.9146 7.24487C30.779 6.21242 29.4225 5.46839 27.9655 5.05155L27.962 5.05053C27.8685 5.02302 27.7647 5.00301 27.6386 4.982C27.613 4.97773 27.5857 4.97332 27.5574 4.96872C27.456 4.95231 27.3399 4.9335 27.2288 4.91002L26.8322 4.82619V4.42083V2.08333C26.8322 1.20915 26.1245 0.5 25.2489 0.5C24.3733 0.5 23.6656 1.20915 23.6656 2.08333V4.42083V4.82753L23.2674 4.91036C23.1568 4.93336 23.0404 4.95196 22.9383 4.96828C22.9077 4.97317 22.8784 4.97785 22.8509 4.98239C22.7224 5.0036 22.6157 5.0241 22.5196 5.05247L22.5155 5.05367L22.5155 5.05365C21.0654 5.46826 19.7129 6.21206 18.5791 7.24279L47.1364 18.6083ZM47.1364 18.6083V18.5959M47.1364 18.6083V18.5959M47.1364 18.5959L48.8034 20.2449C48.8035 20.245 48.8035 20.245 48.8035 20.245C50.5211 21.9452 49.3192 24.8713 46.903 24.8729C46.9023 24.8729 46.9017 24.8729 46.901 24.8729L3.46365 24.4979V24.4979H3.45933C0.990705 24.4979 -0.187649 21.465 1.63246 19.7979L4.26149 17.3918L4.26977 17.3842L4.2777 17.3762C5.73385 15.9181 7.75238 15.0812 9.81558 15.0812H14.8322H15.3322V14.5812C15.3322 11.7952 16.5165 9.11907 18.579 7.24289L47.1364 18.5959ZM20.5822 14.5833C20.5822 17.1616 22.6707 19.25 25.2489 19.25C27.8271 19.25 29.9156 17.1616 29.9156 14.5833C29.9156 12.0051 27.8271 9.91667 25.2489 9.91667C22.6707 9.91667 20.5822 12.0051 20.5822 14.5833ZM47.6656 31.25V42.7083C47.6656 46.453 44.6186 49.5 40.8739 49.5H35.6656C34.79 49.5 34.0822 48.7908 34.0822 47.9167V41.6667C34.0822 36.7947 30.1209 32.8333 25.2489 32.8333C20.3769 32.8333 16.4156 36.7947 16.4156 41.6667V47.9167C16.4156 48.7909 15.7079 49.5 14.8322 49.5H9.62391C5.87922 49.5 2.83225 46.453 2.83225 42.7083V31.25C2.83225 30.3758 3.53996 29.6667 4.41558 29.6667H46.0822C46.9579 29.6667 47.6656 30.3758 47.6656 31.25Z" stroke="white"/>
</g>
</g>
<defs>
<filter id="filter0_f_7461_10614" x="-0.752441" y="-1" width="51.8647" height="52" filterUnits="userSpaceOnUse" color-interpolation-filters="sRGB">
<feFlood flood-opacity="0" result="BackgroundImageFix"/>
<feBlend mode="normal" in="SourceGraphic" in2="BackgroundImageFix" result="shape"/>
<feGaussianBlur stdDeviation="0.5" result="effect1_foregroundBlur_7461_10614"/>
</filter>
<clipPath id="clip0_7461_10614">
<rect width="50" height="50" fill="white" transform="translate(0.249023)"/>
</clipPath>
</defs>
</svg>
