<svg width="25" height="24" viewBox="0 0 25 24" fill="none" xmlns="http://www.w3.org/2000/svg">
<g clip-path="url(#clip0_5834_891)">
<path d="M12.25 0C5.633 0 0.25 5.383 0.25 12C0.25 18.617 5.633 24 12.25 24C18.867 24 24.25 18.617 24.25 12C24.25 5.383 18.867 0 12.25 0ZM17.25 14C17.25 15.654 15.904 17 14.25 17H10.25C8.596 17 7.25 15.654 7.25 14V10C7.25 8.346 8.596 7 10.25 7H14.25C15.904 7 17.25 8.346 17.25 10V14ZM15.25 10V14C15.25 14.551 14.801 15 14.25 15H10.25C9.699 15 9.25 14.551 9.25 14V10C9.25 9.449 9.699 9 10.25 9H14.25C14.801 9 15.25 9.449 15.25 10Z" fill="white"/>
</g>
<defs>
<clipPath id="clip0_5834_891">
<rect width="24" height="24" fill="white" transform="translate(0.25)"/>
</clipPath>
</defs>
</svg>
