<svg width="18" height="19" viewBox="0 0 18 19" fill="none" xmlns="http://www.w3.org/2000/svg">
<g clip-path="url(#clip0_5008_10339)">
<path d="M9 13.25C6.93 13.25 5.25 11.57 5.25 9.5C5.25 7.43 6.93 5.75 9 5.75C11.07 5.75 12.75 7.43 12.75 9.5C12.75 11.57 11.07 13.25 9 13.25ZM9.75 3.5V1.25C9.75 0.8375 9.4125 0.5 9 0.5C8.5875 0.5 8.25 0.8375 8.25 1.25V3.5C8.25 3.9125 8.5875 4.25 9 4.25C9.4125 4.25 9.75 3.9125 9.75 3.5ZM9.75 17.75V15.5C9.75 15.0875 9.4125 14.75 9 14.75C8.5875 14.75 8.25 15.0875 8.25 15.5V17.75C8.25 18.1625 8.5875 18.5 9 18.5C9.4125 18.5 9.75 18.1625 9.75 17.75ZM3.75 9.5C3.75 9.0875 3.4125 8.75 3 8.75H0.75C0.3375 8.75 0 9.0875 0 9.5C0 9.9125 0.3375 10.25 0.75 10.25H3C3.4125 10.25 3.75 9.9125 3.75 9.5ZM18 9.5C18 9.0875 17.6625 8.75 17.25 8.75H15C14.5875 8.75 14.25 9.0875 14.25 9.5C14.25 9.9125 14.5875 10.25 15 10.25H17.25C17.6625 10.25 18 9.9125 18 9.5ZM5.0325 5.5325C5.325 5.24 5.325 4.7675 5.0325 4.475L3.5325 2.975C3.24 2.6825 2.7675 2.6825 2.475 2.975C2.1825 3.2675 2.1825 3.74 2.475 4.0325L3.975 5.5325C4.125 5.6825 4.3125 5.75 4.5075 5.75C4.7025 5.75 4.89 5.675 5.04 5.5325H5.0325ZM15.5325 16.0325C15.825 15.74 15.825 15.2675 15.5325 14.975L14.0325 13.475C13.74 13.1825 13.2675 13.1825 12.975 13.475C12.6825 13.7675 12.6825 14.24 12.975 14.5325L14.475 16.0325C14.625 16.1825 14.8125 16.25 15.0075 16.25C15.2025 16.25 15.39 16.175 15.54 16.0325H15.5325ZM3.5325 16.0325L5.0325 14.5325C5.325 14.24 5.325 13.7675 5.0325 13.475C4.74 13.1825 4.2675 13.1825 3.975 13.475L2.475 14.975C2.1825 15.2675 2.1825 15.74 2.475 16.0325C2.625 16.1825 2.8125 16.25 3.0075 16.25C3.2025 16.25 3.39 16.175 3.54 16.0325H3.5325ZM14.0325 5.5325L15.5325 4.0325C15.825 3.74 15.825 3.2675 15.5325 2.975C15.24 2.6825 14.7675 2.6825 14.475 2.975L12.975 4.475C12.6825 4.7675 12.6825 5.24 12.975 5.5325C13.125 5.6825 13.3125 5.75 13.5075 5.75C13.7025 5.75 13.89 5.675 14.04 5.5325H14.0325Z" fill="white" fill-opacity="0.96"/>
</g>
<defs>
<clipPath id="clip0_5008_10339">
<rect width="18" height="18" fill="white" transform="translate(0 0.5)"/>
</clipPath>
</defs>
</svg>
