<svg width="39" height="12" viewBox="0 0 39 12" fill="none" xmlns="http://www.w3.org/2000/svg">
<g filter="url(#filter0_ii_6092_2860)">
<path fill-rule="evenodd" clip-rule="evenodd" d="M33.4354 11.7324C35.1155 11.7324 35.9556 11.7324 36.5973 11.4054C37.1618 11.1178 37.6208 10.6588 37.9084 10.0944C38.2354 9.45262 38.2354 8.61254 38.2354 6.93239L38.2354 5.29573C38.2354 3.61557 38.2354 2.77549 37.9084 2.13376C37.6208 1.56927 37.1618 1.11033 36.5973 0.822709C35.9556 0.495728 35.1155 0.495728 33.4353 0.495728L18.0022 0.495728C16.9721 0.495727 16.137 1.33082 16.137 2.36095C16.137 3.39109 15.3019 4.22618 14.2718 4.22618H12.9854C12.7606 4.22618 12.6482 4.22618 12.6171 4.22554C11.4247 4.20081 11.3596 4.17249 10.5282 3.3173C10.5066 3.295 10.2159 2.98331 9.63453 2.35994C8.62955 1.28231 7.19716 0.608478 5.60739 0.608478C2.56679 0.608478 0.101906 3.07337 0.101906 6.11396C0.101906 9.15455 2.56679 11.6194 5.60739 11.6194C7.19716 11.6194 8.62955 10.9456 9.63453 9.86798C10.2159 9.24461 10.5065 8.93292 10.5282 8.91062C11.3596 8.05543 11.4247 8.02711 12.6171 8.00238C12.6482 8.00174 12.7606 8.00174 12.9854 8.00174L14.2717 8.00174C15.3019 8.00174 16.137 8.83687 16.137 9.86706C16.137 10.8973 16.9721 11.7324 18.0023 11.7324L33.4354 11.7324Z" fill="#393844"/>
</g>
<defs>
<filter id="filter0_ii_6092_2860" x="0.101562" y="0.495728" width="39.1338" height="12.7367" filterUnits="userSpaceOnUse" color-interpolation-filters="sRGB">
<feFlood flood-opacity="0" result="BackgroundImageFix"/>
<feBlend mode="normal" in="SourceGraphic" in2="BackgroundImageFix" result="shape"/>
<feColorMatrix in="SourceAlpha" type="matrix" values="0 0 0 0 0 0 0 0 0 0 0 0 0 0 0 0 0 0 127 0" result="hardAlpha"/>
<feOffset dx="1" dy="1.5"/>
<feGaussianBlur stdDeviation="2"/>
<feComposite in2="hardAlpha" operator="arithmetic" k2="-1" k3="1"/>
<feColorMatrix type="matrix" values="0 0 0 0 0 0 0 0 0 0 0 0 0 0 0 0 0 0 0.46 0"/>
<feBlend mode="normal" in2="shape" result="effect1_innerShadow_6092_2860"/>
<feColorMatrix in="SourceAlpha" type="matrix" values="0 0 0 0 0 0 0 0 0 0 0 0 0 0 0 0 0 0 127 0" result="hardAlpha"/>
<feOffset dx="1" dy="1.5"/>
<feGaussianBlur stdDeviation="2"/>
<feComposite in2="hardAlpha" operator="arithmetic" k2="-1" k3="1"/>
<feColorMatrix type="matrix" values="0 0 0 0 0 0 0 0 0 0 0 0 0 0 0 0 0 0 0.08 0"/>
<feBlend mode="overlay" in2="effect1_innerShadow_6092_2860" result="effect2_innerShadow_6092_2860"/>
</filter>
</defs>
</svg>
