<svg width="80" height="54" viewBox="0 0 80 54" fill="none" xmlns="http://www.w3.org/2000/svg">
<g opacity="0.5" filter="url(#filter0_f_6092_2903)">
<path fill-rule="evenodd" clip-rule="evenodd" d="M25.764 32.7324C24.0839 32.7324 23.2438 32.7324 22.6021 32.4054C22.0376 32.1178 21.5786 31.6589 21.291 31.0944C20.964 30.4527 20.964 29.6126 20.964 27.9324L20.964 26.2958C20.964 24.6156 20.964 23.7755 21.291 23.1338C21.5786 22.5693 22.0376 22.1104 22.6021 21.8228C23.2438 21.4958 24.0839 21.4958 25.764 21.4958L41.1972 21.4958C42.2273 21.4958 43.0624 22.3309 43.0624 23.361C43.0624 24.3911 43.8975 25.2262 44.9276 25.2262L46.214 25.2262C46.4388 25.2262 46.5512 25.2262 46.5822 25.2256C47.7747 25.2009 47.8398 25.1725 48.6712 24.3173C48.6928 24.295 48.9835 23.9834 49.5649 23.36C50.5698 22.2824 52.0022 21.6085 53.592 21.6085C56.6326 21.6085 59.0975 24.0734 59.0975 27.114C59.0975 30.1546 56.6326 32.6195 53.592 32.6195C52.0022 32.6195 50.5698 31.9457 49.5649 30.868C48.9835 30.2446 48.6928 29.933 48.6712 29.9107C47.8398 29.0555 47.7747 29.0272 46.5822 29.0024C46.5512 29.0018 46.4388 29.0018 46.214 29.0018L44.9277 29.0018C43.8975 29.0018 43.0624 29.8369 43.0624 30.8671C43.0624 31.8973 42.2272 32.7324 41.1971 32.7324L25.764 32.7324Z" fill="url(#paint0_linear_6092_2903)"/>
</g>
<g filter="url(#filter1_f_6092_2903)">
<path fill-rule="evenodd" clip-rule="evenodd" d="M25.7639 32.7324C24.0837 32.7324 23.2436 32.7324 22.6019 32.4054C22.0374 32.1178 21.5785 31.6588 21.2908 31.0944C20.9639 30.4526 20.9639 29.6125 20.9639 27.9324L20.9639 26.2957C20.9639 24.6156 20.9639 23.7755 21.2908 23.1338C21.5785 22.5693 22.0374 22.1103 22.6019 21.8227C23.2436 21.4957 24.0837 21.4957 25.7639 21.4957L41.197 21.4957C42.2271 21.4957 43.0622 22.3308 43.0622 23.361C43.0622 24.3911 43.8973 25.2262 44.9274 25.2262H46.2139C46.4386 25.2262 46.551 25.2262 46.5821 25.2255C47.7745 25.2008 47.8396 25.1725 48.671 24.3173C48.6927 24.295 48.9833 23.9833 49.5647 23.3599C50.5697 22.2823 52.0021 21.6085 53.5918 21.6085C56.6324 21.6085 59.0973 24.0734 59.0973 27.114C59.0973 30.1546 56.6324 32.6194 53.5918 32.6194C52.0021 32.6194 50.5697 31.9456 49.5647 30.868C48.9833 30.2446 48.6927 29.9329 48.671 29.9106C47.8396 29.0554 47.7745 29.0271 46.5821 29.0024C46.551 29.0017 46.4386 29.0017 46.2139 29.0017L44.9275 29.0017C43.8973 29.0017 43.0622 29.8369 43.0622 30.8671C43.0622 31.8973 42.2271 32.7324 41.1969 32.7324L25.7639 32.7324Z" fill="url(#paint1_linear_6092_2903)"/>
</g>
<g filter="url(#filter2_ii_6092_2903)">
<path fill-rule="evenodd" clip-rule="evenodd" d="M25.7639 32.7324C24.0837 32.7324 23.2436 32.7324 22.6019 32.4054C22.0374 32.1178 21.5785 31.6588 21.2908 31.0944C20.9639 30.4526 20.9639 29.6125 20.9639 27.9324L20.9639 26.2957C20.9639 24.6156 20.9639 23.7755 21.2908 23.1338C21.5785 22.5693 22.0374 22.1103 22.6019 21.8227C23.2436 21.4957 24.0837 21.4957 25.7639 21.4957L41.197 21.4957C42.2271 21.4957 43.0622 22.3308 43.0622 23.361C43.0622 24.3911 43.8973 25.2262 44.9274 25.2262H46.2139C46.4386 25.2262 46.551 25.2262 46.5821 25.2255C47.7745 25.2008 47.8396 25.1725 48.671 24.3173C48.6927 24.295 48.9833 23.9833 49.5647 23.3599C50.5697 22.2823 52.0021 21.6085 53.5918 21.6085C56.6324 21.6085 59.0973 24.0734 59.0973 27.114C59.0973 30.1546 56.6324 32.6194 53.5918 32.6194C52.0021 32.6194 50.5697 31.9456 49.5647 30.868C48.9833 30.2446 48.6927 29.9329 48.671 29.9106C47.8396 29.0554 47.7745 29.0271 46.5821 29.0024C46.551 29.0017 46.4386 29.0017 46.2139 29.0017L44.9275 29.0017C43.8973 29.0017 43.0622 29.8369 43.0622 30.8671C43.0622 31.8973 42.2271 32.7324 41.1969 32.7324L25.7639 32.7324Z" fill="url(#paint2_linear_6092_2903)"/>
<path fill-rule="evenodd" clip-rule="evenodd" d="M25.7639 32.7324C24.0837 32.7324 23.2436 32.7324 22.6019 32.4054C22.0374 32.1178 21.5785 31.6588 21.2908 31.0944C20.9639 30.4526 20.9639 29.6125 20.9639 27.9324L20.9639 26.2957C20.9639 24.6156 20.9639 23.7755 21.2908 23.1338C21.5785 22.5693 22.0374 22.1103 22.6019 21.8227C23.2436 21.4957 24.0837 21.4957 25.7639 21.4957L41.197 21.4957C42.2271 21.4957 43.0622 22.3308 43.0622 23.361C43.0622 24.3911 43.8973 25.2262 44.9274 25.2262H46.2139C46.4386 25.2262 46.551 25.2262 46.5821 25.2255C47.7745 25.2008 47.8396 25.1725 48.671 24.3173C48.6927 24.295 48.9833 23.9833 49.5647 23.3599C50.5697 22.2823 52.0021 21.6085 53.5918 21.6085C56.6324 21.6085 59.0973 24.0734 59.0973 27.114C59.0973 30.1546 56.6324 32.6194 53.5918 32.6194C52.0021 32.6194 50.5697 31.9456 49.5647 30.868C48.9833 30.2446 48.6927 29.9329 48.671 29.9106C47.8396 29.0554 47.7745 29.0271 46.5821 29.0024C46.551 29.0017 46.4386 29.0017 46.2139 29.0017L44.9275 29.0017C43.8973 29.0017 43.0622 29.8369 43.0622 30.8671C43.0622 31.8973 42.2271 32.7324 41.1969 32.7324L25.7639 32.7324Z" fill="#0A84FF"/>
</g>
<defs>
<filter id="filter0_f_6092_2903" x="0.0638676" y="0.595728" width="79.9338" height="53.0367" filterUnits="userSpaceOnUse" color-interpolation-filters="sRGB">
<feFlood flood-opacity="0" result="BackgroundImageFix"/>
<feBlend mode="normal" in="SourceGraphic" in2="BackgroundImageFix" result="shape"/>
<feGaussianBlur stdDeviation="10.45" result="effect1_foregroundBlur_6092_2903"/>
</filter>
<filter id="filter1_f_6092_2903" x="19.9639" y="20.4957" width="40.1338" height="13.2367" filterUnits="userSpaceOnUse" color-interpolation-filters="sRGB">
<feFlood flood-opacity="0" result="BackgroundImageFix"/>
<feBlend mode="normal" in="SourceGraphic" in2="BackgroundImageFix" result="shape"/>
<feGaussianBlur stdDeviation="0.5" result="effect1_foregroundBlur_6092_2903"/>
</filter>
<filter id="filter2_ii_6092_2903" x="20.9639" y="21.4957" width="39.1338" height="12.7367" filterUnits="userSpaceOnUse" color-interpolation-filters="sRGB">
<feFlood flood-opacity="0" result="BackgroundImageFix"/>
<feBlend mode="normal" in="SourceGraphic" in2="BackgroundImageFix" result="shape"/>
<feColorMatrix in="SourceAlpha" type="matrix" values="0 0 0 0 0 0 0 0 0 0 0 0 0 0 0 0 0 0 127 0" result="hardAlpha"/>
<feOffset dx="1" dy="1.5"/>
<feGaussianBlur stdDeviation="2"/>
<feComposite in2="hardAlpha" operator="arithmetic" k2="-1" k3="1"/>
<feColorMatrix type="matrix" values="0 0 0 0 0 0 0 0 0 0 0 0 0 0 0 0 0 0 0.46 0"/>
<feBlend mode="normal" in2="shape" result="effect1_innerShadow_6092_2903"/>
<feColorMatrix in="SourceAlpha" type="matrix" values="0 0 0 0 0 0 0 0 0 0 0 0 0 0 0 0 0 0 127 0" result="hardAlpha"/>
<feOffset dx="1" dy="1.5"/>
<feGaussianBlur stdDeviation="2"/>
<feComposite in2="hardAlpha" operator="arithmetic" k2="-1" k3="1"/>
<feColorMatrix type="matrix" values="0 0 0 0 0 0 0 0 0 0 0 0 0 0 0 0 0 0 0.08 0"/>
<feBlend mode="overlay" in2="effect1_innerShadow_6092_2903" result="effect2_innerShadow_6092_2903"/>
</filter>
<linearGradient id="paint0_linear_6092_2903" x1="20.9639" y1="27.1141" x2="59.0974" y2="27.1141" gradientUnits="userSpaceOnUse">
<stop stop-color="#0A84FF"/>
<stop offset="1" stop-color="#00D9FF"/>
</linearGradient>
<linearGradient id="paint1_linear_6092_2903" x1="20.9639" y1="27.1141" x2="59.0974" y2="27.1141" gradientUnits="userSpaceOnUse">
<stop stop-color="#0A84FF"/>
<stop offset="1" stop-color="#00D9FF"/>
</linearGradient>
<linearGradient id="paint2_linear_6092_2903" x1="20.9639" y1="27.1141" x2="59.0974" y2="27.1141" gradientUnits="userSpaceOnUse">
<stop stop-color="#0A84FF"/>
<stop offset="1" stop-color="#00D9FF"/>
</linearGradient>
</defs>
</svg>
