<svg width="18" height="18" viewBox="0 0 18 18" fill="none" xmlns="http://www.w3.org/2000/svg">
<g clip-path="url(#clip0_5972_67705)">
<path d="M15 3.03902C13.2442 1.48956 10.9537 0.685453 8.61463 0.797411C6.2756 0.909369 4.0723 1.92858 2.47253 3.63865C0.872759 5.34873 0.00249778 7.61499 0.0465138 9.95629C0.0905297 12.2976 1.04536 14.5295 2.70827 16.1783C3.41069 16.8673 4.35605 17.2523 5.34002 17.25H12.6653C13.5967 17.2627 14.4973 16.9168 15.1808 16.284C16.08 15.4256 16.7924 14.3909 17.2737 13.2446C17.7549 12.0984 17.9945 10.8652 17.9775 9.62212C17.9606 8.37906 17.6874 7.15287 17.1751 6.02016C16.6628 4.88746 15.9223 3.8726 15 3.03902ZM14.5643 12.1418C14.4856 12.3243 14.3377 12.4681 14.1531 12.5417C13.9684 12.6152 13.7621 12.6125 13.5795 12.534L9.89177 10.95C9.62747 11.1479 9.30525 11.2531 8.97508 11.2492C8.64492 11.2454 8.32525 11.1326 8.06567 10.9286C7.80608 10.7245 7.62108 10.4405 7.53936 10.1206C7.45763 9.80068 7.48375 9.46274 7.61366 9.15918C7.74357 8.85562 7.97001 8.60341 8.25786 8.44165C8.54572 8.2799 8.8789 8.21764 9.20575 8.26454C9.53259 8.31144 9.83482 8.46488 10.0656 8.70105C10.2963 8.93722 10.4427 9.24293 10.482 9.57077L14.1683 11.1563C14.2587 11.1952 14.3406 11.2516 14.4093 11.3222C14.478 11.3928 14.5321 11.4763 14.5685 11.5678C14.6049 11.6593 14.623 11.7571 14.6216 11.8556C14.6202 11.9541 14.5995 12.0513 14.5605 12.1418H14.5643ZM15.0465 9.75002C14.8492 9.77463 14.6502 9.71988 14.4932 9.5978C14.3363 9.47573 14.2342 9.29632 14.2095 9.09902C14.0675 7.93968 13.5391 6.86198 12.7095 6.03977C11.7249 5.05516 10.3895 4.502 8.99702 4.502C7.60456 4.502 6.26914 5.05516 5.28452 6.03977C4.29991 7.02439 3.74675 8.35982 3.74675 9.75227C3.74675 11.1447 4.29991 12.4802 5.28452 13.4648C5.35952 13.5435 5.44352 13.6148 5.52527 13.6898C5.67446 13.8215 5.76522 14.007 5.7776 14.2056C5.78998 14.4042 5.72295 14.5996 5.59127 14.7488C5.45959 14.898 5.27404 14.9887 5.07544 15.0011C4.87684 15.0135 4.68146 14.9465 4.53227 14.8148C4.42652 14.7218 4.32452 14.625 4.22402 14.5245C2.95794 13.2582 2.24675 11.5409 2.24689 9.75024C2.24703 7.9596 2.9585 6.24235 4.22477 4.97627C5.49105 3.7102 7.20841 2.999 8.99905 2.99914C10.7897 2.99928 12.5069 3.71075 13.773 4.97702C14.838 6.03512 15.5161 7.42065 15.6983 8.91077C15.7108 9.0087 15.7038 9.10813 15.6778 9.20337C15.6518 9.2986 15.6072 9.38776 15.5467 9.46573C15.4861 9.5437 15.4108 9.60895 15.3249 9.65774C15.2391 9.70652 15.1445 9.73788 15.0465 9.75002Z" fill="white"/>
</g>
<defs>
<clipPath id="clip0_5972_67705">
<rect width="18" height="18" fill="white"/>
</clipPath>
</defs>
</svg>
