<svg width="18" height="19" viewBox="0 0 18 19" fill="none" xmlns="http://www.w3.org/2000/svg">
<g clip-path="url(#clip0_5008_10369)">
<path d="M7.1929 18.1666L8.2504 14.4166H5.94265C5.83465 14.4166 5.72816 14.3912 5.6317 14.3427C5.53524 14.2941 5.45149 14.2236 5.38713 14.1369C5.32278 14.0501 5.27961 13.9496 5.26107 13.8432C5.24254 13.7368 5.24916 13.6275 5.2804 13.5241L7.2754 7.66663H10.5004L9.02815 11.4166H11.3202C11.4429 11.4167 11.5634 11.45 11.6687 11.5131C11.774 11.5761 11.8603 11.6665 11.9184 11.7747C11.9765 11.8828 12.0042 12.0047 11.9985 12.1273C11.9929 12.2499 11.9541 12.3688 11.8864 12.4711L8.09215 18.1666H7.1929ZM13.0804 3.96088C10.1464 -2.92337 -0.0318483 0.401375 1.6999 7.70337C-1.1801 9.67737 -0.139848 14.4384 3.25465 15.0721L4.29565 15.1509C4.25965 15.1096 4.21615 15.0759 4.18315 15.0316C3.97979 14.7566 3.84328 14.4381 3.78444 14.1012C3.72559 13.7642 3.74604 13.4183 3.84415 13.0906L6.19915 6.16663H12.7017L11.2287 9.91663H11.3209C11.7148 9.91688 12.1013 10.0239 12.4392 10.2263C12.7772 10.4287 13.054 10.7188 13.2402 11.066C13.4263 11.4131 13.515 11.8042 13.4966 12.1977C13.4783 12.5912 13.3536 12.9723 13.1359 13.3006L11.8992 15.1569L12.8532 15.1426C19.5237 14.4541 19.7254 4.89613 13.0804 3.96088Z" fill="white" fill-opacity="0.96"/>
</g>
<defs>
<clipPath id="clip0_5008_10369">
<rect width="18" height="18" fill="white" transform="translate(0 0.166016)"/>
</clipPath>
</defs>
</svg>
