<svg width="18" height="19" viewBox="0 0 18 19" fill="none" xmlns="http://www.w3.org/2000/svg">
<path d="M10.5261 15.6789C10.5231 13.2061 12.5249 11.1991 14.9969 11.1954C15.9591 11.1939 16.8966 11.5029 17.6691 12.0766C18.9989 7.28788 16.1946 2.32813 11.4066 0.998378C6.61862 -0.331372 1.65962 2.47213 0.329868 7.26088C-0.999882 12.0496 1.80437 17.0101 6.59237 18.3399C8.16737 18.7771 9.83162 18.7771 11.4066 18.3399C10.8351 17.5704 10.5261 16.6374 10.5261 15.6789ZM9.74987 9.68413C9.74987 9.88363 9.67037 10.0741 9.52937 10.2151L7.27562 12.4696C6.97712 12.7576 6.50162 12.7494 6.21362 12.4509C5.93237 12.1599 5.93237 11.6979 6.21362 11.4069L8.24762 9.37288V5.92738C8.24762 5.51263 8.58362 5.17588 8.99912 5.17588C9.41387 5.17588 9.74987 5.51263 9.74987 5.92738V9.68413Z" fill="white" fill-opacity="0.96"/>
</svg>
