<svg width="44" height="44" viewBox="0 0 44 44" fill="none" xmlns="http://www.w3.org/2000/svg">
<path d="M0 17.6C0 11.4394 0 8.35913 1.19893 6.0061C2.25354 3.93632 3.93632 2.25354 6.0061 1.19893C8.35913 0 11.4394 0 17.6 0H26.4C32.5606 0 35.6409 0 37.9939 1.19893C40.0637 2.25354 41.7465 3.93632 42.8011 6.0061C44 8.35913 44 11.4394 44 17.6V26.4C44 32.5606 44 35.6409 42.8011 37.9939C41.7465 40.0637 40.0637 41.7465 37.9939 42.8011C35.6409 44 32.5606 44 26.4 44H17.6C11.4394 44 8.35913 44 6.0061 42.8011C3.93632 41.7465 2.25354 40.0637 1.19893 37.9939C0 35.6409 0 32.5606 0 26.4V17.6Z" fill="white" fill-opacity="0.06" style="mix-blend-mode:lighten"/>
<path d="M0 17.6C0 11.4394 0 8.35913 1.19893 6.0061C2.25354 3.93632 3.93632 2.25354 6.0061 1.19893C8.35913 0 11.4394 0 17.6 0H26.4C32.5606 0 35.6409 0 37.9939 1.19893C40.0637 2.25354 41.7465 3.93632 42.8011 6.0061C44 8.35913 44 11.4394 44 17.6V26.4C44 32.5606 44 35.6409 42.8011 37.9939C41.7465 40.0637 40.0637 41.7465 37.9939 42.8011C35.6409 44 32.5606 44 26.4 44H17.6C11.4394 44 8.35913 44 6.0061 42.8011C3.93632 41.7465 2.25354 40.0637 1.19893 37.9939C0 35.6409 0 32.5606 0 26.4V17.6Z" fill="#808080" fill-opacity="0.18" style="mix-blend-mode:color-dodge"/>
<path d="M0 17.6C0 11.4394 0 8.35913 1.19893 6.0061C2.25354 3.93632 3.93632 2.25354 6.0061 1.19893C8.35913 0 11.4394 0 17.6 0H26.4C32.5606 0 35.6409 0 37.9939 1.19893C40.0637 2.25354 41.7465 3.93632 42.8011 6.0061C44 8.35913 44 11.4394 44 17.6V26.4C44 32.5606 44 35.6409 42.8011 37.9939C41.7465 40.0637 40.0637 41.7465 37.9939 42.8011C35.6409 44 32.5606 44 26.4 44H17.6C11.4394 44 8.35913 44 6.0061 42.8011C3.93632 41.7465 2.25354 40.0637 1.19893 37.9939C0 35.6409 0 32.5606 0 26.4V17.6Z" fill="url(#paint0_radial_8009_5156)"/>
<path d="M0 17.6C0 11.4394 0 8.35913 1.19893 6.0061C2.25354 3.93632 3.93632 2.25354 6.0061 1.19893C8.35913 0 11.4394 0 17.6 0H26.4C32.5606 0 35.6409 0 37.9939 1.19893C40.0637 2.25354 41.7465 3.93632 42.8011 6.0061C44 8.35913 44 11.4394 44 17.6V26.4C44 32.5606 44 35.6409 42.8011 37.9939C41.7465 40.0637 40.0637 41.7465 37.9939 42.8011C35.6409 44 32.5606 44 26.4 44H17.6C11.4394 44 8.35913 44 6.0061 42.8011C3.93632 41.7465 2.25354 40.0637 1.19893 37.9939C0 35.6409 0 32.5606 0 26.4V17.6Z" fill="url(#paint1_radial_8009_5156)" style="mix-blend-mode:color-dodge"/>
<g clip-path="url(#clip0_8009_5156)">
<path d="M29.9617 28.8354C29.3312 29.8342 28.2262 30.5 26.9583 30.5H17.0417C15.0867 30.5 13.5 28.9133 13.5 26.9583V25.1237L16.3192 22.3046C16.7158 21.9079 17.3675 21.9079 17.7713 22.3046L21.7237 26.2571C22.6587 27.1921 24.1887 27.1921 25.1237 26.2571L25.5346 25.8462C25.9242 25.4567 26.5971 25.4567 26.9867 25.8462L29.9688 28.8283L29.9617 28.8354ZM28.3254 18.7204L28.8212 17.4879L30.0538 16.9921C30.3229 16.8858 30.5 16.6237 30.5 16.3333C30.5 16.0429 30.3229 15.7808 30.0538 15.6746L28.8212 15.1787L28.3254 13.9462C28.2192 13.6771 27.9571 13.5 27.6667 13.5C27.3762 13.5 27.1142 13.6771 27.0079 13.9462L26.5192 15.1717L25.2937 15.6392C25.0246 15.7383 24.8404 16.0004 24.8333 16.2908C24.8333 16.5812 24.9963 16.8433 25.2654 16.9567L26.5121 17.4808L27.0079 18.7204C27.1142 18.9896 27.3762 19.1667 27.6667 19.1667C27.9571 19.1667 28.2192 18.9896 28.3254 18.7204ZM30.5 18.3379V26.9583C30.5 27.0929 30.4929 27.2204 30.4787 27.3479L27.9783 24.8475C27.0292 23.8983 25.4779 23.8983 24.5217 24.8475L24.1108 25.2583C23.7283 25.6408 23.0979 25.6408 22.7154 25.2583L18.7629 21.3058C17.8137 20.3567 16.2625 20.3567 15.3062 21.3058L13.5 23.1263V17.0417C13.5 15.0867 15.0867 13.5 17.0417 13.5H25.6621L25.4354 14.0667L24.7908 14.3075C23.9762 14.6192 23.4308 15.3842 23.4167 16.2554C23.4025 17.1267 23.9125 17.9129 24.7129 18.2529L25.4142 18.5504L25.6904 19.2446C26.0162 20.0592 26.7883 20.5833 27.6667 20.5833C28.545 20.5833 29.3171 20.0592 29.6429 19.2446L29.9121 18.5717L30.5 18.3379ZM19.875 17.3958C19.875 16.8079 19.4004 16.3333 18.8125 16.3333C18.2246 16.3333 17.75 16.8079 17.75 17.3958C17.75 17.9837 18.2246 18.4583 18.8125 18.4583C19.4004 18.4583 19.875 17.9837 19.875 17.3958ZM25.5417 20.9375C25.5417 20.6117 25.3221 20.3283 25.0033 20.2504L23.9975 20.0025L23.7496 18.9967C23.6717 18.685 23.3883 18.4583 23.0625 18.4583C22.7367 18.4583 22.4533 18.6779 22.3754 18.9967L22.1275 19.9954L21.1358 20.2221C20.8171 20.2929 20.5904 20.5762 20.5904 20.9021C20.5904 21.2279 20.8029 21.5112 21.1146 21.5962L22.1275 21.8725L22.3825 22.8854C22.4604 23.1971 22.7437 23.4237 23.0696 23.4237C23.3954 23.4237 23.6787 23.2042 23.7567 22.8854L24.0046 21.8796L25.0104 21.6317C25.3221 21.5537 25.5487 21.2704 25.5487 20.9446L25.5417 20.9375Z" fill="white"/>
</g>
<defs>
<radialGradient id="paint0_radial_8009_5156" cx="0" cy="0" r="1" gradientUnits="userSpaceOnUse" gradientTransform="translate(22 44) rotate(-90) scale(72.2857 22)">
<stop stop-color="white" stop-opacity="0.07"/>
<stop offset="0.603261" stop-color="white" stop-opacity="0"/>
</radialGradient>
<radialGradient id="paint1_radial_8009_5156" cx="0" cy="0" r="1" gradientUnits="userSpaceOnUse" gradientTransform="translate(22 44) rotate(-90) scale(60.1071 15.0135)">
<stop stop-color="#5E5E5E" stop-opacity="0.14"/>
<stop offset="0.738467" stop-color="#5E5E5E" stop-opacity="0"/>
</radialGradient>
<clipPath id="clip0_8009_5156">
<rect width="17" height="17" fill="white" transform="translate(13.5 13.5)"/>
</clipPath>
</defs>
</svg>
