<svg width="18" height="18" viewBox="0 0 18 18" fill="none" xmlns="http://www.w3.org/2000/svg">
<g clip-path="url(#clip0_540_7372)">
<path d="M18 11.25C18 12.9045 16.6545 14.25 15 14.25H8.25V13.5C8.25 13.2345 8.20425 12.9825 8.121 12.75H15C15.8273 12.75 16.5 12.0773 16.5 11.25C16.5 10.4227 15.8273 9.75 15 9.75H6.75C5.0955 9.75 3.75 8.4045 3.75 6.75C3.75 5.0955 5.0955 3.75 6.75 3.75H9.22425C9.38025 4.2765 9.621 4.7835 9.945 5.25H6.75C5.92275 5.25 5.25 5.92275 5.25 6.75C5.25 7.57725 5.92275 8.25 6.75 8.25H15C16.6545 8.25 18 9.5955 18 11.25Z" fill="white"/>
<path d="M3.74975 18.0001L6.07637 15.7241C7.3598 14.4407 7.3598 12.353 6.07637 11.0702C5.45506 10.4489 4.62841 10.1067 3.74975 10.1067C2.8711 10.1067 2.04444 10.4489 1.42248 11.0702C0.13971 12.3537 0.139711 14.4414 1.42774 15.7294L3.74975 18.0001Z" fill="white"/>
<g clip-path="url(#clip1_540_7372)">
<path d="M16.3097 2.79401C16.5269 2.88325 16.5114 3.12319 16.5049 3.37307C16.6907 3.37307 16.8659 3.38009 17.0402 3.37132C17.2413 3.36107 17.3669 3.455 17.4353 3.63232C17.5342 3.88922 17.5339 4.14759 17.4168 4.39923C17.3528 4.53675 17.2522 4.62102 17.0866 4.62073C15.8393 4.61839 14.5919 4.61956 13.3445 4.61927C13.3164 4.61927 13.2885 4.61546 13.2483 4.61254C13.2483 4.23449 13.2459 3.86523 13.2497 3.49596C13.2509 3.39385 13.3313 3.37395 13.4165 3.37366C13.6219 3.37307 13.8276 3.37805 14.0325 3.36985C14.0874 3.3678 14.1546 3.33971 14.1922 3.3008C14.4234 3.06057 14.8302 3.06145 15.0574 3.30665C15.0844 3.33562 15.1255 3.36839 15.161 3.36956C15.3506 3.3757 15.5408 3.37249 15.7398 3.37249C15.7453 3.24813 15.7506 3.13782 15.7559 3.01727C15.5895 2.96372 15.4375 2.8736 15.235 2.90754C15.0832 2.933 14.9142 2.89408 14.7601 2.85516C14.5593 2.80425 14.4176 2.67258 14.3586 2.45576C14.1461 2.50082 13.9213 2.51106 13.7581 2.36593C13.5905 2.217 13.4118 2.1696 13.2001 2.12775C12.69 2.02651 12.5189 1.44394 12.8708 1.05653C12.9328 0.988064 12.9518 0.93481 12.9336 0.840592C12.8603 0.463719 13.1523 0.104403 13.5732 0.01867C14.0554 -0.079352 14.5834 0.214129 14.5464 0.828303C14.6527 0.901746 14.753 0.971093 14.8719 1.05331C15.3224 0.957926 15.7794 1.20079 15.7914 1.73684C16.082 1.80677 16.2099 1.99228 16.1601 2.29424C16.1559 2.31941 16.1736 2.34808 16.1818 2.375C16.2199 2.50053 16.2584 2.62635 16.3097 2.7943V2.79401Z" fill="white"/>
<path d="M16.8853 5.4951C16.8589 5.71923 16.7536 5.88368 16.5481 5.99282C16.6376 5.99282 16.7274 5.99282 16.8169 5.99282C17.1545 5.99282 17.492 5.99311 17.8295 5.99282C17.9155 5.99282 17.995 6.01301 17.9997 6.11191C18.005 6.22163 17.9217 6.24504 17.8304 6.24768C17.801 6.24855 17.7717 6.24797 17.7423 6.24797C15.4137 6.24797 13.0848 6.24797 10.7563 6.24768C10.7025 6.24768 10.6415 6.25821 10.5978 6.23597C10.5534 6.21373 10.4986 6.15609 10.5 6.11571C10.5015 6.07475 10.5602 6.02559 10.6051 6.00013C10.6389 5.98111 10.6911 5.99282 10.7348 5.99282C11.1786 5.99282 11.6227 5.99282 12.0746 5.98141C11.8715 5.88309 11.7591 5.72567 11.7377 5.4951C11.5507 5.4951 11.3705 5.49598 11.1906 5.4951C11.0236 5.49393 10.9902 5.46291 10.9896 5.30081C10.9887 4.82709 10.9497 4.8739 11.411 4.87303C11.5135 4.87303 11.6159 4.87303 11.7439 4.87303C11.7439 4.75452 11.7439 4.6448 11.7439 4.53507C11.7439 4.30099 11.7403 4.06661 11.7456 3.83282C11.7477 3.74914 11.723 3.70291 11.6379 3.6953C11.6332 3.69471 11.6285 3.69237 11.6238 3.69091C11.2047 3.57767 11.2062 3.57767 11.2414 3.15106C11.2496 3.04982 11.2951 3.00007 11.3978 3.00037C11.8774 3.00095 12.3567 3.00154 12.8363 3.00037C12.9727 3.00007 12.9939 3.08288 12.9933 3.19378C12.9915 3.67189 12.9924 4.14971 12.9927 4.62783C12.9927 4.84611 13.02 4.87361 13.2357 4.87361C14.6154 4.87361 15.9949 4.87361 17.3746 4.87361C17.6182 4.87361 17.6264 4.8821 17.6273 5.11706C17.6288 5.52261 17.6558 5.49803 17.2457 5.49598C17.1289 5.49539 17.0121 5.49598 16.8847 5.49598L16.8853 5.4951ZM13.445 5.98667C13.2425 5.88134 13.138 5.71719 13.1142 5.50271H12.7576C12.6801 5.78741 12.6537 5.82369 12.4039 5.98667H13.445ZM14.4963 5.50739H14.1259C14.1024 5.73504 13.9827 5.88426 13.7617 5.98433H14.8661C14.6307 5.88309 14.5174 5.73152 14.496 5.50739H14.4963ZM15.171 5.98697H16.203C16.0007 5.88309 15.8907 5.71836 15.8695 5.4989H15.5065C15.4824 5.71836 15.3753 5.88134 15.171 5.98697Z" fill="white"/>
</g>
</g>
<defs>
<clipPath id="clip0_540_7372">
<rect width="18" height="18" fill="white"/>
</clipPath>
<clipPath id="clip1_540_7372">
<rect width="7.5" height="6.25" fill="white" transform="translate(10.5)"/>
</clipPath>
</defs>
</svg>
