<svg width="16" height="17" viewBox="0 0 16 17" fill="none" xmlns="http://www.w3.org/2000/svg">
<path d="M7 2.16602C7 1.61402 7.448 1.16602 8 1.16602C8.552 1.16602 9 1.61402 9 2.16602C9 2.71802 8.552 3.16602 8 3.16602C7.448 3.16602 7 2.71802 7 2.16602ZM2 9.16602C2 8.61402 1.552 8.16602 1 8.16602C0.448 8.16602 0 8.61402 0 9.16602C0 9.71802 0.448 10.166 1 10.166C1.552 10.166 2 9.71802 2 9.16602ZM16 9.16602C16 8.61402 15.552 8.16602 15 8.16602C14.448 8.16602 14 8.61402 14 9.16602C14 9.71802 14.448 10.166 15 10.166C15.552 10.166 16 9.71802 16 9.16602ZM4 4.16602C4 3.61402 3.552 3.16602 3 3.16602C2.448 3.16602 2 3.61402 2 4.16602C2 4.71802 2.448 5.16602 3 5.16602C3.552 5.16602 4 4.71802 4 4.16602ZM14 14.166C14 13.614 13.552 13.166 13 13.166C12.448 13.166 12 13.614 12 14.166C12 14.718 12.448 15.166 13 15.166C13.552 15.166 14 14.718 14 14.166ZM3 13.166C2.448 13.166 2 13.614 2 14.166C2 14.718 2.448 15.166 3 15.166C3.552 15.166 4 14.718 4 14.166C4 13.614 3.552 13.166 3 13.166ZM13 3.16602C12.448 3.16602 12 3.61402 12 4.16602C12 4.71802 12.448 5.16602 13 5.16602C13.552 5.16602 14 4.71802 14 4.16602C14 3.61402 13.552 3.16602 13 3.16602ZM8.47133 9.63735C8.34133 9.76735 8.17067 9.83268 8 9.83268C7.82933 9.83268 7.65867 9.76735 7.52867 9.63735C7.268 9.37668 7.268 8.95535 7.52867 8.69468L10.7893 5.43402C10.01 4.85002 9.046 4.49935 8 4.49935C5.42667 4.49935 3.33333 6.59268 3.33333 9.16602C3.33333 11.7393 5.42667 13.8327 8 13.8327C10.5733 13.8327 12.6667 11.7393 12.6667 9.16602C12.6667 8.11935 12.316 7.15602 11.732 6.37668L8.47133 9.63735Z" fill="white" fill-opacity="0.5"/>
</svg>
