<svg width="18" height="19" viewBox="0 0 18 19" fill="none" xmlns="http://www.w3.org/2000/svg">
<g clip-path="url(#clip0_540_7400)">
<g clip-path="url(#clip1_540_7400)">
<path d="M8.80882 9.30556C6.61052 9.30556 4.41221 9.30626 2.2132 9.30556C0.766853 9.30486 -0.180998 8.35771 -0.182402 6.91417C-0.183806 5.99019 -0.185211 5.06622 -0.182402 4.14294C-0.177486 2.79278 0.783001 1.81545 2.13667 1.81123C4.92054 1.8014 7.7037 1.80772 10.4869 1.80702C12.1123 1.80702 13.7376 1.80562 15.363 1.80772C16.8522 1.81053 17.793 2.75347 17.7937 4.24194C17.7937 5.16592 17.7979 6.08989 17.793 7.01317C17.786 8.3205 16.8143 9.30064 15.5098 9.30415C13.2764 9.30977 11.0429 9.30556 8.80882 9.30556ZM5.06868 3.33903C5.06868 4.08256 5.07641 4.78327 5.06587 5.48397C5.05885 5.98879 4.74852 6.30755 4.29987 6.30123C3.86807 6.29561 3.56827 5.98107 3.55915 5.4938C3.54791 4.89771 3.55704 4.30092 3.55493 3.70483C3.55493 3.58196 3.5444 3.45909 3.53808 3.32147C3.07399 3.32147 2.65342 3.32007 2.23286 3.32147C1.5806 3.32428 1.3159 3.58547 1.31309 4.23492C1.30959 5.07675 1.31169 5.91928 1.31239 6.76111C1.31239 7.56784 1.55322 7.81077 2.35362 7.81077C6.65756 7.81077 10.9608 7.81077 15.2647 7.81077C15.3581 7.81077 15.4522 7.81498 15.5456 7.80726C15.9816 7.77075 16.2828 7.50114 16.2905 7.07004C16.3088 6.06462 16.3067 5.05849 16.2919 4.05307C16.2863 3.67323 16.0265 3.36079 15.6881 3.34184C15.1566 3.31235 14.6216 3.33411 14.1119 3.33411C14.0831 3.37764 14.0711 3.38677 14.0711 3.3959C14.0655 3.83963 14.0655 4.28407 14.055 4.7278C14.0431 5.2277 13.7306 5.56612 13.296 5.56261C12.8614 5.5598 12.5581 5.22209 12.5448 4.71867C12.5384 4.48487 12.5433 4.25107 12.5433 4.01726C12.5433 3.78978 12.5433 3.5623 12.5433 3.34043L11.0542 3.34043C11.0542 3.47243 11.0542 3.58687 11.0542 3.70132C11.0542 4.29741 11.0584 4.8942 11.0528 5.49029C11.0479 5.97615 10.7558 6.2928 10.3198 6.30053C9.86199 6.30895 9.57061 5.99932 9.56078 5.48538C9.55517 5.1933 9.55938 4.90052 9.55938 4.60844C9.55938 4.19069 9.55938 3.77293 9.55938 3.34113L8.05265 3.34113C8.05265 3.82559 8.08635 4.2939 8.03861 4.75378C8.01474 4.98477 7.88766 5.24245 7.72687 5.41166C7.53028 5.61808 7.2354 5.61035 6.97421 5.47765C6.70039 5.33793 6.56207 5.10413 6.55997 4.79661C6.55645 4.31004 6.55926 3.82348 6.55926 3.33832L5.06939 3.33832L5.06868 3.33903Z" fill="white"/>
<path d="M15.1728 12.9433C14.887 12.6716 14.5935 12.4069 14.3162 12.126C13.9806 11.7862 13.9644 11.3376 14.2607 11.0321C14.5753 10.7078 15.0176 10.719 15.3792 11.0757C16.1038 11.7904 16.8241 12.5094 17.5417 13.2318C17.8977 13.5899 17.892 14.0126 17.5298 14.3763C16.8199 15.0896 16.1087 15.8009 15.3932 16.5086C15.0267 16.8709 14.5956 16.8926 14.2741 16.5774C13.9602 16.2699 13.9771 15.8135 14.3281 15.4589C14.5992 15.1851 14.8835 14.9232 15.2282 14.5925L2.38805 14.5925C2.71102 14.9043 2.98906 15.1641 3.25726 15.433C3.63008 15.8072 3.65817 16.2615 3.33801 16.5767C3.00942 16.9011 2.57973 16.8695 2.19286 16.4861C1.48724 15.7854 0.783026 15.0833 0.0816172 14.3784C-0.270842 14.0238 -0.291203 13.5998 0.0437049 13.2599C0.783028 12.5101 1.52867 11.7665 2.27993 11.0293C2.54673 10.7674 2.88514 10.7337 3.18214 10.9036C3.46649 11.0658 3.62376 11.3846 3.53319 11.7104C3.48896 11.8698 3.38294 12.0263 3.26709 12.1485C3.0031 12.4258 2.71594 12.6807 2.36558 13.0142L15.1187 13.0142C15.137 12.991 15.1545 12.9679 15.1728 12.9454L15.1728 12.9433Z" fill="white"/>
</g>
</g>
<defs>
<clipPath id="clip0_540_7400">
<rect width="18" height="18" fill="white" transform="translate(0 0.666626)"/>
</clipPath>
<clipPath id="clip1_540_7400">
<rect width="14.9922" height="18" fill="white" transform="translate(17.8057 1.80566) rotate(90)"/>
</clipPath>
</defs>
</svg>
