<svg width="18" height="19" viewBox="0 0 18 19" fill="none" xmlns="http://www.w3.org/2000/svg">
<g clip-path="url(#clip0_540_7386)">
<path fill-rule="evenodd" clip-rule="evenodd" d="M-6.11959e-07 4.33325C-7.08524e-07 2.12411 1.79086 0.333252 4 0.333252L14 0.333251C16.2091 0.333251 18 2.12411 18 4.33325L18 14.3333C18 16.5424 16.2091 18.3333 14 18.3333L4 18.3333C1.79086 18.3333 -7.8281e-08 16.5424 -1.74846e-07 14.3333L-6.11959e-07 4.33325ZM6.36108 13.8333L6.36108 4.83325C6.36108 4.42075 6.02358 4.08325 5.61108 4.08325C5.19858 4.08325 4.86108 4.42075 4.86108 4.83325L4.86108 13.8333C4.86108 14.2458 5.19858 14.5833 5.61108 14.5833C6.02358 14.5833 6.36108 14.2458 6.36108 13.8333ZM13.1387 4.83325L13.1387 13.8333C13.1387 14.2458 12.8012 14.5833 12.3887 14.5833C11.9762 14.5833 11.6387 14.2458 11.6387 13.8333L11.6387 4.83325C11.6387 4.42075 11.9762 4.08325 12.3887 4.08325C12.8012 4.08325 13.1387 4.42075 13.1387 4.83325Z" fill="white"/>
</g>
<defs>
<clipPath id="clip0_540_7386">
<rect width="18" height="18" fill="white" transform="translate(0 18.3333) rotate(-90)"/>
</clipPath>
</defs>
</svg>
