<svg width="16" height="17" viewBox="0 0 16 17" fill="none" xmlns="http://www.w3.org/2000/svg">
<g clip-path="url(#clip0_5178_33)">
<path d="M4.66644 16.4292C4.54783 16.409 4.43051 16.3818 4.31511 16.3478L2.40244 15.7478C1.71078 15.5446 1.10337 15.1232 0.670835 14.5465C0.238303 13.9698 0.00384247 13.2687 0.00244141 12.5478V4.49982C0.00313462 3.95185 0.138909 3.4125 0.397747 2.92952C0.656585 2.44653 1.0305 2.03481 1.4864 1.73079C1.9423 1.42677 2.46612 1.23983 3.01149 1.18652C3.55686 1.13321 4.10697 1.21517 4.61311 1.42516L4.66644 1.44982V16.4292ZM13.7864 1.27782L13.7724 1.27316L11.9624 0.673156C11.7577 0.606743 11.5469 0.560523 11.3331 0.535156V15.3765L12.7024 15.7712C13.0948 15.8667 13.5037 15.8718 13.8984 15.7862C14.293 15.7006 14.6631 15.5265 14.9806 15.277C15.2981 15.0275 15.5549 14.7092 15.7314 14.346C15.908 13.9828 15.9997 13.5843 15.9998 13.1805V4.41716C15.9988 3.72971 15.7857 3.05933 15.3895 2.49749C14.9934 1.93564 14.4336 1.50971 13.7864 1.27782ZM9.99977 0.62649C9.99977 0.62649 6.10444 1.74182 5.99977 1.75316V16.4198C6.06644 16.4058 9.99977 15.3292 9.99977 15.3292V0.62649Z" fill="white" fill-opacity="0.5"/>
</g>
<defs>
<clipPath id="clip0_5178_33">
<rect width="16" height="16" fill="white" transform="translate(0 0.5)"/>
</clipPath>
</defs>
</svg>
