<svg width="18" height="19" viewBox="0 0 18 19" fill="none" xmlns="http://www.w3.org/2000/svg">
<g clip-path="url(#clip0_540_7359)">
<path d="M14.25 9.66211L16.9012 7.06861C18.3637 5.60611 18.3637 3.22711 16.9012 1.76536C16.1932 1.05736 15.2513 0.667358 14.25 0.667358C13.2487 0.667358 12.3067 1.05736 11.598 1.76536C10.1362 3.22786 10.1363 5.60686 11.604 7.07461L14.25 9.66211ZM18 13.4166C18 15.0711 16.6545 16.4166 15 16.4166H8.25V15.6666C8.25 15.4011 8.20425 15.1491 8.121 14.9166H15C15.8273 14.9166 16.5 14.2439 16.5 13.4166C16.5 12.5894 15.8273 11.9166 15 11.9166H6.75C5.0955 11.9166 3.75 10.5711 3.75 8.91661C3.75 7.26211 5.0955 5.91661 6.75 5.91661H9.22425C9.38025 6.44311 9.621 6.95011 9.945 7.41661H6.75C5.92275 7.41661 5.25 8.08936 5.25 8.91661C5.25 9.74386 5.92275 10.4166 6.75 10.4166H15C16.6545 10.4166 18 11.7621 18 13.4166Z" fill="white"/>
<g clip-path="url(#clip1_540_7359)">
<path d="M5.80974 13.9606C6.02692 14.0499 6.01137 14.2898 6.00491 14.5397C6.19069 14.5397 6.36591 14.5467 6.54025 14.5379C6.74129 14.5277 6.86691 14.6216 6.93529 14.7989C7.0342 15.0558 7.03391 15.3142 6.9168 15.5659C6.85282 15.7034 6.75215 15.7876 6.58662 15.7874C5.33926 15.785 4.0919 15.7862 2.84454 15.7859C2.81637 15.7859 2.78849 15.7821 2.74828 15.7792C2.74828 15.4011 2.74593 15.0319 2.74975 14.6626C2.75092 14.5605 2.83134 14.5406 2.91645 14.5403C3.1219 14.5397 3.32764 14.5447 3.5325 14.5365C3.58738 14.5344 3.65459 14.5063 3.69216 14.4674C3.92344 14.2272 4.33022 14.2281 4.55739 14.4733C4.58439 14.5022 4.62548 14.535 4.66099 14.5362C4.85059 14.5423 5.04078 14.5391 5.23977 14.5391C5.24534 14.4148 5.25063 14.3044 5.25591 14.1839C5.0895 14.1303 4.93747 14.0402 4.73495 14.0742C4.58322 14.0996 4.41416 14.0607 4.26008 14.0218C4.05932 13.9709 3.91757 13.8392 3.85857 13.6224C3.64608 13.6674 3.42126 13.6777 3.25808 13.5326C3.09049 13.3836 2.91175 13.3362 2.70014 13.2944C2.19005 13.1931 2.01894 12.6106 2.37084 12.2232C2.43277 12.1547 2.45185 12.1014 2.43365 12.0072C2.36028 11.6303 2.6523 11.271 3.07318 11.1853C3.55539 11.0873 4.08339 11.3808 4.04641 11.9949C4.15266 12.0684 4.25303 12.1377 4.3719 12.2199C4.82242 12.1246 5.27939 12.3674 5.29142 12.9035C5.58198 12.9734 5.70995 13.1589 5.66005 13.4609C5.65594 13.486 5.67355 13.5147 5.68177 13.5416C5.71993 13.6672 5.75837 13.793 5.80974 13.9609V13.9606Z" fill="white"/>
<path d="M6.38533 16.6617C6.35892 16.8859 6.25355 17.0503 6.0481 17.1594C6.13762 17.1594 6.22743 17.1594 6.31695 17.1594C6.65447 17.1594 6.99199 17.1597 7.32951 17.1594C7.4155 17.1594 7.49504 17.1796 7.49974 17.2785C7.50502 17.3883 7.42167 17.4117 7.33039 17.4143C7.30104 17.4152 7.27169 17.4146 7.24234 17.4146C4.91374 17.4146 2.58485 17.4146 0.256251 17.4143C0.202541 17.4143 0.141494 17.4248 0.097763 17.4026C0.0534451 17.3804 -0.00143867 17.3227 2.88112e-05 17.2823C0.00149629 17.2414 0.0601955 17.1922 0.1051 17.1668C0.138852 17.1477 0.191095 17.1594 0.234826 17.1594C0.678592 17.1594 1.12265 17.1594 1.57464 17.148C1.37154 17.0497 1.25913 16.8923 1.2377 16.6617C1.05075 16.6617 0.870539 16.6626 0.690625 16.6617C0.523626 16.6606 0.490167 16.6295 0.48958 16.4674C0.4887 15.9937 0.449665 16.0405 0.911041 16.0397C1.01347 16.0397 1.1159 16.0397 1.24387 16.0397C1.24387 15.9211 1.24387 15.8114 1.24387 15.7017C1.24387 15.4676 1.24034 15.2332 1.24563 14.9994C1.24768 14.9158 1.22303 14.8695 1.13791 14.8619C1.13322 14.8613 1.12852 14.859 1.12383 14.8575C0.704713 14.7443 0.706181 14.7443 0.7414 14.3177C0.749618 14.2164 0.79511 14.1667 0.897834 14.167C1.37741 14.1676 1.85669 14.1682 2.33626 14.167C2.47273 14.1667 2.49387 14.2495 2.49328 14.3604C2.49152 14.8385 2.4924 15.3163 2.49269 15.7945C2.49269 16.0127 2.51999 16.0402 2.73571 16.0402C4.11543 16.0402 5.49486 16.0402 6.87459 16.0402C7.11819 16.0402 7.12641 16.0487 7.12729 16.2837C7.12876 16.6892 7.15576 16.6647 6.74574 16.6626C6.62893 16.662 6.51212 16.6626 6.38474 16.6626L6.38533 16.6617ZM2.94497 17.1533C2.74246 17.048 2.63797 16.8838 2.6142 16.6693H2.2576C2.18012 16.954 2.1537 16.9903 1.90394 17.1533H2.94497ZM3.99627 16.674H3.62588C3.6024 16.9017 3.48265 17.0509 3.26165 17.151H4.36608C4.13069 17.0497 4.0174 16.8982 3.99598 16.674H3.99627ZM4.67102 17.1536H5.70295C5.50073 17.0497 5.39067 16.885 5.36954 16.6655H5.00649C4.98242 16.885 4.87529 17.048 4.67102 17.1536Z" fill="white"/>
</g>
</g>
<defs>
<clipPath id="clip0_540_7359">
<rect width="18" height="18" fill="white" transform="translate(0 0.666626)"/>
</clipPath>
<clipPath id="clip1_540_7359">
<rect width="7.5" height="6.25" fill="white" transform="translate(0 11.1666)"/>
</clipPath>
</defs>
</svg>
