<svg xmlns="http://www.w3.org/2000/svg" width="19" height="18" viewBox="0 0 19 18" fill="none">
<g clip-path="url(#clip0_383_18)">
<path d="M6.89538 10.848C6.18738 10.14 5.24538 9.75 4.24413 9.75C3.24288 9.75 2.30088 10.14 1.59213 10.848C0.12963 12.3097 0.12963 14.6895 1.61163 16.17L3.10413 17.5567C3.42513 17.8552 3.83613 18.0037 4.24713 18.0037C4.65813 18.0037 5.07213 17.8537 5.39313 17.5538L6.89388 16.1505C7.60263 15.4425 7.99263 14.5005 7.99263 13.4992C7.99263 12.498 7.60263 11.556 6.89388 10.8473L6.89538 10.848ZM13.6041 7.80675C13.9251 8.1045 14.3361 8.25375 14.7471 8.25375C15.1581 8.25375 15.5729 8.10375 15.8939 7.80375L17.3946 6.4005C18.8571 4.93875 18.8571 2.559 17.3946 1.09725C16.6859 0.38925 15.7446 -0.000750303 14.7434 -0.000750303C13.7421 -0.000750303 12.8001 0.38925 12.0914 1.09725C10.6289 2.559 10.6289 4.93875 12.1109 6.41925L13.6034 7.806L13.6041 7.80675ZM18.4941 14.9992C18.4941 16.6538 17.1486 17.9992 15.4941 17.9992H8.74413C8.33013 17.9992 7.99413 17.6632 7.99413 17.2492C7.99413 16.8353 8.33013 16.4992 8.74413 16.4992H15.4941C16.3214 16.4992 16.9941 15.8265 16.9941 14.9992C16.9941 14.172 16.3214 13.4992 15.4941 13.4992H11.7441C10.0896 13.4992 8.74413 12.1537 8.74413 10.4992C8.74413 9.23025 9.54813 8.09325 10.7444 7.67025C11.1359 7.5315 11.5634 7.737 11.7014 8.12775C11.8394 8.5185 11.6346 8.94675 11.2439 9.08475C10.6461 9.29625 10.2441 9.86475 10.2441 10.4992C10.2441 11.3265 10.9169 11.9992 11.7441 11.9992H15.4941C17.1486 11.9992 18.4941 13.3447 18.4941 14.9992Z" fill="white" fill-opacity="0.5"/>
</g>
<defs>
<clipPath id="clip0_383_18">
<rect width="18" height="18" fill="white" transform="translate(0.494141)"/>
</clipPath>
</defs>
</svg>