<svg width="16" height="17" viewBox="0 0 16 17" fill="none" xmlns="http://www.w3.org/2000/svg">
<g clip-path="url(#clip0_5178_945)">
<path d="M8 15.834C10.2091 15.834 12 14.0431 12 11.834C12 9.62485 10.2091 7.83398 8 7.83398C5.79086 7.83398 4 9.62485 4 11.834C4 14.0431 5.79086 15.834 8 15.834Z" fill="white" fill-opacity="0.5"/>
<path d="M7.58867 6.51618L5.13733 2.26885C5.07882 2.16751 4.99466 2.08336 4.89332 2.02485C4.79198 1.96635 4.67702 1.93555 4.56 1.93555C4.44298 1.93555 4.32802 1.96635 4.22668 2.02485C4.12534 2.08336 4.04118 2.16751 3.98267 2.26885L0 9.16685H3.38267C3.81613 8.41698 4.42553 7.78384 5.15829 7.32205C5.89105 6.86025 6.72517 6.58368 7.58867 6.51618Z" fill="white" fill-opacity="0.5"/>
<path d="M8.6665 3.16602V6.54068C9.7258 6.67603 10.7203 7.1254 11.522 7.83093C12.3236 8.53646 12.8957 9.46583 13.1645 10.4993H15.9998V3.16602H8.6665Z" fill="white" fill-opacity="0.5"/>
</g>
<defs>
<clipPath id="clip0_5178_945">
<rect width="16" height="16" fill="white" transform="translate(0 0.5)"/>
</clipPath>
</defs>
</svg>
