<svg width="201" height="165" viewBox="0 0 201 165" fill="none" xmlns="http://www.w3.org/2000/svg">
<path d="M98.6842 25.3847C99.9869 23.4268 99.2158 20.624 96.9622 19.1246C94.7085 17.6253 91.8255 17.997 90.5229 19.9549C89.2203 21.9128 89.9913 24.7155 92.245 26.2149C94.4987 27.7143 97.3816 27.3426 98.6842 25.3847Z" fill="#FD6584"/>
<path d="M13.363 48.6132C14.6656 46.6553 13.8946 43.8526 11.6409 42.3532C9.38717 40.8538 6.50422 41.2255 5.20161 43.1834C3.89899 45.1413 4.67 47.944 6.9237 49.4434C9.17739 50.9428 12.0603 50.5711 13.363 48.6132Z" fill="#E6E6E6"/>
<path d="M180.607 164.677H20.3932C15.1191 164.671 10.0626 162.574 6.33321 158.844C2.6038 155.115 0.505989 150.058 0.5 144.784V75.9169C0.505955 70.6427 2.60376 65.5862 6.33317 61.8568C10.0626 58.1274 15.119 56.0296 20.3932 56.0236C71.5163 41.8603 125.135 43.1871 180.607 56.0236C185.881 56.0296 190.937 58.1274 194.667 61.8568C198.396 65.5862 200.494 70.6427 200.5 75.9169V144.784C200.494 150.058 198.396 155.115 194.667 158.844C190.937 162.574 185.881 164.671 180.607 164.677Z" fill="#F2F2F2"/>
<path d="M24.9304 122.276C26.1417 117.662 31.9556 112.067 45.5214 119.681C53.4308 124.12 59.7245 124.265 64.1353 123.1C68.89 121.844 71.9223 117.54 75.3207 113.986C80.4143 108.658 87.5642 103.154 91.5484 105.146C93.374 106.059 95.8892 107.592 98.6786 109.356C109.624 116.275 124.321 120.931 133.596 111.894V111.894V111.894C143.359 102.381 158.695 102.605 166.813 113.555C166.873 113.636 166.932 113.717 166.991 113.798C171.421 119.888 175.758 116.335 177.373 113.798" stroke="black" stroke-width="7" stroke-dasharray="1 3"/>
<path d="M184.394 147.13C184.457 147.13 184.52 147.118 184.578 147.093C184.637 147.069 184.69 147.034 184.734 146.989C184.779 146.945 184.814 146.892 184.838 146.833C184.863 146.775 184.875 146.712 184.875 146.649V74.053C184.875 73.9255 184.824 73.8032 184.734 73.7131C184.644 73.6229 184.522 73.5723 184.394 73.5723C184.267 73.5723 184.144 73.6229 184.054 73.7131C183.964 73.8032 183.913 73.9255 183.913 74.053V146.649C183.913 146.712 183.926 146.775 183.95 146.833C183.974 146.892 184.01 146.945 184.054 146.989C184.099 147.034 184.152 147.069 184.21 147.093C184.269 147.118 184.331 147.13 184.394 147.13Z" fill="white"/>
<path d="M152.663 89.4372H152.662C152.534 89.4368 152.412 89.3857 152.322 89.2952C152.232 89.2047 152.182 89.0823 152.183 88.9548L152.423 15.3971C152.424 15.2699 152.474 15.148 152.565 15.0582C152.655 14.9684 152.777 14.918 152.904 14.918H152.905C153.033 14.9184 153.155 14.9695 153.245 15.0599C153.335 15.1504 153.385 15.2729 153.385 15.4004L153.144 88.9581C153.144 89.0853 153.093 89.2071 153.003 89.2969C152.913 89.3867 152.791 89.4372 152.663 89.4372Z" fill="#3F3D56"/>
<path d="M45.4519 102.898H45.4503C45.3228 102.897 45.2006 102.846 45.1108 102.756C45.0209 102.665 44.9707 102.543 44.9711 102.415L45.2115 29.819C45.212 29.6918 45.2628 29.5699 45.353 29.4801C45.4431 29.3903 45.5651 29.3399 45.6923 29.3398H45.6939C45.8214 29.3403 45.9435 29.3914 46.0334 29.4818C46.1232 29.5723 46.1735 29.6947 46.1731 29.8222L45.9327 102.418C45.9322 102.546 45.8814 102.667 45.7912 102.757C45.7011 102.847 45.5791 102.897 45.4519 102.898Z" fill="#3F3D56"/>
<path d="M45.6923 125.375C49.1441 125.375 51.9423 122.577 51.9423 119.125C51.9423 115.673 49.1441 112.875 45.6923 112.875C42.2405 112.875 39.4423 115.673 39.4423 119.125C39.4423 122.577 42.2405 125.375 45.6923 125.375Z" fill="#6C63FF"/>
<path d="M90.6442 112.152C94.096 112.152 96.8942 109.354 96.8942 105.902C96.8942 102.451 94.096 99.6523 90.6442 99.6523C87.1924 99.6523 84.3942 102.451 84.3942 105.902C84.3942 109.354 87.1924 112.152 90.6442 112.152Z" fill="#6C63FF"/>
<path d="M152.183 107.826C155.634 107.826 158.433 105.028 158.433 101.576C158.433 98.1244 155.634 95.3262 152.183 95.3262C148.731 95.3262 145.933 98.1244 145.933 101.576C145.933 105.028 148.731 107.826 152.183 107.826Z" fill="#6C63FF"/>
<path d="M161.551 25.6671H147.842C147.088 25.6665 146.36 25.3939 145.79 24.8994C145.221 24.4048 144.85 23.7215 144.744 22.975C143.897 16.746 143.897 10.4312 144.744 4.20219C144.848 3.4646 145.212 2.78845 145.771 2.29514C146.329 1.80182 147.045 1.52365 147.79 1.51054C152.103 -0.422865 156.748 -0.422628 161.598 1.51031C162.05 1.5163 162.495 1.6211 162.902 1.81734C163.309 2.01358 163.668 2.29651 163.954 2.64627C164.252 3.01012 164.465 3.43581 164.578 3.89243C164.691 4.34905 164.701 4.82512 164.607 5.28604C163.506 10.7663 163.506 16.4109 164.607 21.8911C164.701 22.352 164.691 22.8281 164.578 23.2847C164.465 23.7413 164.252 24.167 163.954 24.5309C163.663 24.8868 163.296 25.1735 162.881 25.37C162.465 25.5666 162.011 25.668 161.551 25.6671Z" fill="#6C63FF"/>
<path d="M52.2834 38.1522H38.5744C38.1147 38.1532 37.6605 38.0517 37.2449 37.8552C36.8293 37.6587 36.4627 37.372 36.1718 37.0161C35.8736 36.6522 35.6603 36.2265 35.5472 35.7699C35.4342 35.3133 35.4243 34.8372 35.5182 34.3763C36.6194 28.896 36.6194 23.2515 35.5182 17.7712C35.4243 17.3102 35.4342 16.8341 35.5472 16.3775C35.6603 15.9208 35.8736 15.4951 36.1718 15.1312C36.4566 14.7827 36.8141 14.5006 37.2192 14.3045C37.6243 14.1084 38.0674 14.003 38.5174 13.9957C42.6852 11.9546 47.3323 11.9546 52.3315 13.9957C53.0772 14.0076 53.7941 14.2853 54.3532 14.7787C54.9124 15.2722 55.2771 15.949 55.3816 16.6874C56.2281 22.9162 56.2281 29.231 55.3816 35.4599C55.2759 36.2065 54.9043 36.8899 54.3352 37.3845C53.766 37.8791 53.0375 38.1517 52.2834 38.1522Z" fill="#CCCCCC"/>
<path d="M160.115 8.66692H148.577C148.386 8.66692 148.202 8.59094 148.067 8.45569C147.932 8.32045 147.856 8.13703 147.856 7.94576C147.856 7.7545 147.932 7.57107 148.067 7.43583C148.202 7.30058 148.386 7.22461 148.577 7.22461H160.115C160.307 7.22461 160.49 7.30058 160.625 7.43583C160.761 7.57107 160.837 7.7545 160.837 7.94576C160.837 8.13703 160.761 8.32045 160.625 8.45569C160.49 8.59094 160.307 8.66692 160.115 8.66692Z" fill="white"/>
<path d="M160.115 14.4364H148.577C148.386 14.4364 148.202 14.3605 148.067 14.2252C147.932 14.09 147.856 13.9066 147.856 13.7153C147.856 13.524 147.932 13.3406 148.067 13.2054C148.202 13.0701 148.386 12.9941 148.577 12.9941H160.115C160.307 12.9941 160.49 13.0701 160.625 13.2054C160.761 13.3406 160.837 13.524 160.837 13.7153C160.837 13.9066 160.761 14.09 160.625 14.2252C160.49 14.3605 160.307 14.4364 160.115 14.4364Z" fill="white"/>
<path d="M160.115 20.206H148.577C148.386 20.206 148.202 20.13 148.067 19.9948C147.932 19.8595 147.856 19.6761 147.856 19.4848C147.856 19.2936 147.932 19.1101 148.067 18.9749C148.202 18.8396 148.386 18.7637 148.577 18.7637H160.115C160.307 18.7637 160.49 18.8396 160.625 18.9749C160.761 19.1101 160.837 19.2936 160.837 19.4848C160.837 19.6761 160.761 19.8595 160.625 19.9948C160.49 20.13 160.307 20.206 160.115 20.206Z" fill="white"/>
<path d="M52.4931 20.206H40.9546C40.7634 20.206 40.5799 20.13 40.4447 19.9948C40.3094 19.8595 40.2335 19.6761 40.2335 19.4848C40.2335 19.2936 40.3094 19.1101 40.4447 18.9749C40.5799 18.8396 40.7634 18.7637 40.9546 18.7637H52.4931C52.6843 18.7637 52.8678 18.8396 53.003 18.9749C53.1383 19.1101 53.2142 19.2936 53.2142 19.4848C53.2142 19.6761 53.1383 19.8595 53.003 19.9948C52.8678 20.13 52.6843 20.206 52.4931 20.206Z" fill="white"/>
<path d="M52.4931 25.9755H40.9546C40.7634 25.9755 40.5799 25.8995 40.4447 25.7643C40.3094 25.629 40.2335 25.4456 40.2335 25.2544C40.2335 25.0631 40.3094 24.8797 40.4447 24.7444C40.5799 24.6092 40.7634 24.5332 40.9546 24.5332H52.4931C52.6843 24.5332 52.8678 24.6092 53.003 24.7444C53.1383 24.8797 53.2142 25.0631 53.2142 25.2544C53.2142 25.4456 53.1383 25.629 53.003 25.7643C52.8678 25.8995 52.6843 25.9755 52.4931 25.9755Z" fill="white"/>
<path d="M52.4931 31.745H40.9546C40.7634 31.745 40.5799 31.6691 40.4447 31.5338C40.3094 31.3986 40.2335 31.2152 40.2335 31.0239C40.2335 30.8326 40.3094 30.6492 40.4447 30.514C40.5799 30.3787 40.7634 30.3027 40.9546 30.3027H52.4931C52.6843 30.3027 52.8678 30.3787 53.003 30.514C53.1383 30.6492 53.2142 30.8326 53.2142 31.0239C53.2142 31.2152 53.1383 31.3986 53.003 31.5338C52.8678 31.6691 52.6843 31.745 52.4931 31.745Z" fill="white"/>
</svg>
