<svg xmlns="http://www.w3.org/2000/svg" width="19" height="18" viewBox="0 0 19 18" fill="none">
<g clip-path="url(#clip0_205_32391)">
<path d="M6.89526 10.848C6.18726 10.14 5.24526 9.75002 4.24401 9.75002C3.24276 9.75002 2.30076 10.14 1.59201 10.848C0.129508 12.3098 0.129508 14.6895 1.61151 16.17L3.10401 17.5568C3.42501 17.8553 3.83601 18.0038 4.24701 18.0038C4.65801 18.0038 5.07201 17.8538 5.39301 17.5538L6.89376 16.1505C7.60251 15.4425 7.99251 14.5005 7.99251 13.4993C7.99251 12.498 7.60251 11.556 6.89376 10.8473L6.89526 10.848ZM13.604 7.80677C13.925 8.10452 14.336 8.25377 14.747 8.25377C15.158 8.25377 15.5728 8.10377 15.8938 7.80377L17.3945 6.40052C18.857 4.93877 18.857 2.55902 17.3945 1.09727C16.6858 0.389268 15.7445 -0.000732422 14.7433 -0.000732422C13.742 -0.000732422 12.8 0.389268 12.0913 1.09727C10.6288 2.55902 10.6288 4.93877 12.1108 6.41927L13.6033 7.80602L13.604 7.80677ZM18.494 14.9993C18.494 16.6538 17.1485 17.9993 15.494 17.9993H8.74401C8.33001 17.9993 7.99401 17.6633 7.99401 17.2493C7.99401 16.8353 8.33001 16.4993 8.74401 16.4993H15.494C16.3213 16.4993 16.994 15.8265 16.994 14.9993C16.994 14.172 16.3213 13.4993 15.494 13.4993H11.744C10.0895 13.4993 8.74401 12.1538 8.74401 10.4993C8.74401 9.23027 9.54801 8.09327 10.7443 7.67027C11.1358 7.53152 11.5633 7.73702 11.7013 8.12777C11.8393 8.51852 11.6345 8.94677 11.2438 9.08477C10.646 9.29627 10.244 9.86477 10.244 10.4993C10.244 11.3265 10.9168 11.9993 11.744 11.9993H15.494C17.1485 11.9993 18.494 13.3448 18.494 14.9993Z" fill="white"/>
</g>
<defs>
<clipPath id="clip0_205_32391">
<rect width="18" height="18" fill="white" transform="translate(0.494141)"/>
</clipPath>
</defs>
</svg>