<svg width="18" height="19" viewBox="0 0 18 19" fill="none" xmlns="http://www.w3.org/2000/svg">
<path d="M11.52 13.076C11.202 12.8105 11.1593 12.338 11.424 12.02C11.6895 11.7028 12.162 11.6585 12.48 11.924L17.679 16.256C17.883 15.794 18 15.2863 18 14.75V4.25C18 2.18225 16.3177 0.5 14.25 0.5H6.21975L8.298 4.5995C8.42475 4.84475 8.67975 5 8.96175 5H13.5C13.914 5 14.25 5.336 14.25 5.75C14.25 6.164 13.914 6.5 13.5 6.5H11.7922L12.651 8.003C12.8565 8.36225 12.7312 8.8205 12.372 9.026C12.255 9.09275 12.1267 9.125 12.0007 9.125C11.7405 9.125 11.487 8.98925 11.349 8.747L10.065 6.5H8.96175C8.1165 6.5 7.35075 6.0335 6.96225 5.28275L4.53825 0.5H3.75C1.68225 0.5 0 2.18225 0 4.25V14.75C0 15.1453 0.078 15.5195 0.192 15.8773L4.5 13.7255V10.9992C4.5 10.5852 4.836 10.2492 5.25 10.2492C5.664 10.2492 6 10.5852 6 10.9992V12.9762L7.91475 12.02C8.286 11.834 8.736 11.9855 8.9205 12.356C9.10575 12.7265 8.955 13.1772 8.5845 13.3617L0.92475 17.1882C1.61325 17.9847 2.6175 18.5 3.75 18.5H14.25C15.2393 18.5 16.1332 18.1077 16.8045 17.4792L11.52 13.076Z" fill="white" fill-opacity="0.96"/>
</svg>
