<svg width="18" height="18" viewBox="0 0 18 18" fill="none" xmlns="http://www.w3.org/2000/svg">
<g clip-path="url(#clip0_7207_1535)">
<path d="M6.40136 10.8488C5.69336 10.1407 4.75136 9.75075 3.75011 9.75075C2.74886 9.75075 1.80686 10.1407 1.09811 10.8488C-0.364388 12.3105 -0.364388 14.6902 1.11761 16.1707L2.61011 17.5575C2.93111 17.856 3.34211 18.0045 3.75311 18.0045C4.16411 18.0045 4.57811 17.8545 4.89911 17.5545L6.39986 16.1512C7.10861 15.4432 7.49861 14.5013 7.49861 13.5C7.49861 12.4987 7.10861 11.5568 6.39986 10.848L6.40136 10.8488ZM13.1101 7.8075C13.4311 8.10525 13.8421 8.2545 14.2531 8.2545C14.6641 8.2545 15.0789 8.1045 15.3999 7.8045L16.9006 6.40125C18.3631 4.9395 18.3631 2.55975 16.9006 1.098C16.1919 0.39 15.2506 0 14.2494 0C13.2481 0 12.3061 0.39 11.5974 1.098C10.1349 2.55975 10.1349 4.9395 11.6169 6.42L13.1094 7.80675L13.1101 7.8075ZM18.0001 15C18.0001 16.6545 16.6546 18 15.0001 18H8.25011C7.83611 18 7.50011 17.664 7.50011 17.25C7.50011 16.836 7.83611 16.5 8.25011 16.5H15.0001C15.8274 16.5 16.5001 15.8273 16.5001 15C16.5001 14.1727 15.8274 13.5 15.0001 13.5H11.2501C9.59561 13.5 8.25011 12.1545 8.25011 10.5C8.25011 9.231 9.05411 8.094 10.2504 7.671C10.6419 7.53225 11.0694 7.73775 11.2074 8.1285C11.3454 8.51925 11.1406 8.9475 10.7499 9.0855C10.1521 9.297 9.75011 9.8655 9.75011 10.5C9.75011 11.3273 10.4229 12 11.2501 12H15.0001C16.6546 12 18.0001 13.3455 18.0001 15Z" fill="white" fill-opacity="0.5"/>
</g>
<defs>
<clipPath id="clip0_7207_1535">
<rect width="18" height="18" fill="white"/>
</clipPath>
</defs>
</svg>
