<svg width="63" height="30" viewBox="0 0 63 30" fill="none" xmlns="http://www.w3.org/2000/svg">
<path fill-rule="evenodd" clip-rule="evenodd" d="M19.4971 0.976562H16.8223C15.7177 0.976562 14.8223 1.87199 14.8223 2.97656V3.97656C14.8223 5.08113 15.7177 5.97656 16.8223 5.97656H17.4971C18.6016 5.97656 19.4971 6.87199 19.4971 7.97656V20.7695C19.4971 21.3218 19.0494 21.7695 18.4971 21.7695H0.00585938V23.9766C0.00585938 24.5289 0.453575 24.9766 1.00586 24.9766H19.4971H39.5142H58.0059C58.5581 24.9766 59.0059 24.5288 59.0059 23.9766V21.7695H40.5142C39.9619 21.7695 39.5142 21.3218 39.5142 20.7695V7.97656C39.5142 6.87199 40.4096 5.97656 41.5142 5.97656H42.1719C43.2764 5.97656 44.1719 5.08113 44.1719 3.97656V2.97656C44.1719 1.87199 43.2764 0.976562 42.1719 0.976562H39.5142H19.4971ZM1.00586 12.2695C1.00586 11.9934 0.782002 11.7695 0.505859 11.7695C0.229717 11.7695 0.00585938 11.9934 0.00585938 12.2695V21.7695C0.558144 21.7695 1.00586 21.3218 1.00586 20.7695V12.2695ZM2.32422 14.2695C2.32422 13.9934 2.54808 13.7695 2.82422 13.7695C3.10036 13.7695 3.32422 13.9934 3.32422 14.2695V21.2695C3.32422 21.5457 3.10036 21.7695 2.82422 21.7695C2.54808 21.7695 2.32422 21.5457 2.32422 21.2695V14.2695ZM5.64258 16.2695C5.64258 15.9934 5.41872 15.7695 5.14258 15.7695C4.86644 15.7695 4.64258 15.9934 4.64258 16.2695V21.2695C4.64258 21.5457 4.86644 21.7695 5.14258 21.7695C5.41872 21.7695 5.64258 21.5457 5.64258 21.2695V16.2695ZM59.0049 12.2695C59.0049 11.9934 58.781 11.7695 58.5049 11.7695C58.2287 11.7695 58.0049 11.9934 58.0049 12.2696V20.7695C58.0049 21.3218 58.4536 21.7695 59.0059 21.7695L59.0049 12.2695ZM55.6865 14.2695C55.6865 13.9934 55.9104 13.7695 56.1865 13.7695C56.4627 13.7695 56.6865 13.9934 56.6865 14.2695V21.2695C56.6865 21.5457 56.4627 21.7695 56.1865 21.7695C55.9104 21.7695 55.6865 21.5457 55.6865 21.2695V14.2695ZM54.3682 16.2695C54.3682 15.9934 54.1443 15.7695 53.8682 15.7695C53.592 15.7695 53.3682 15.9934 53.3682 16.2695V21.2695C53.3682 21.5457 53.592 21.7695 53.8682 21.7695C54.1443 21.7695 54.3682 21.5457 54.3682 21.2695V16.2695ZM42.5643 29.9767C44.057 29.9767 45.3131 28.7389 45.222 27.2826H45.2038H39.9065C39.8155 28.7207 41.0716 29.9767 42.5643 29.9767ZM48.0981 27.2826H53.3954C53.5046 28.7207 52.2668 29.9767 50.7558 29.9949C49.2631 29.9949 48.0253 28.7753 48.0799 27.2826H48.0981ZM4.48183 29.9963C5.97455 29.9235 7.1214 28.7402 7.06678 27.3021H1.71484C1.75125 28.8676 3.00732 30.0691 4.48183 29.9963ZM9.92454 27.2669H15.2401C15.3675 28.6686 14.1296 29.9429 12.6369 29.9793C11.1442 30.0157 9.86993 28.7597 9.92454 27.2669ZM60.3311 22.0477V24.6873C60.506 24.6873 60.6744 24.6916 60.8379 24.6957C61.151 24.7037 61.4458 24.7112 61.7328 24.6873C62.4427 24.6509 62.9706 24.123 63.007 23.4312C63.0434 22.7941 62.6065 22.1387 61.9512 22.0477C61.5999 22.0114 61.2406 22.0234 60.8785 22.0355C60.6965 22.0416 60.5138 22.0477 60.3311 22.0477Z" fill="white"/>
</svg>
