<svg width="51" height="52" viewBox="0 0 51 52" fill="none" xmlns="http://www.w3.org/2000/svg">
<path d="M25.7491 30.1519C34.653 30.1519 41.6452 17.0502 43.7921 9.21458C43.2434 7.75073 42.37 6.43032 41.2376 5.35266C40.1051 4.27499 38.743 3.46813 37.2537 2.99274C33.5438 1.74237 29.6635 1.07026 25.7491 1C21.835 1.07084 17.9549 1.74221 14.2446 2.99066C12.7554 3.46681 11.3934 4.27419 10.261 5.35215C9.12858 6.43012 8.25512 7.75065 7.70621 9.21458C9.85304 17.0502 16.8453 30.1519 25.7491 30.1519ZM21.5846 7.24683H29.9137C30.466 7.24683 30.9956 7.46621 31.3861 7.85672C31.7766 8.24722 31.996 8.77685 31.996 9.32911C31.996 9.88136 31.7766 10.411 31.3861 10.8015C30.9956 11.192 30.466 11.4114 29.9137 11.4114H21.5846C21.0323 11.4114 20.5027 11.192 20.1122 10.8015C19.7217 10.411 19.5023 9.88136 19.5023 9.32911C19.5023 8.77685 19.7217 8.24722 20.1122 7.85672C20.5027 7.46621 21.0323 7.24683 21.5846 7.24683ZM44.4896 18.8764C40.5521 26.6599 34.0179 34.3164 25.7491 34.3164C17.4804 34.3164 10.9462 26.6599 7.00865 18.8764V34.685C7.00882 37.301 7.99382 39.8211 9.76766 41.7439L7.1669 48.1032C7.05899 48.3571 7.00261 48.6298 7.00101 48.9057C6.99942 49.1815 7.05264 49.4549 7.1576 49.71C7.26256 49.9651 7.41717 50.1968 7.61243 50.3917C7.80769 50.5865 8.03972 50.7406 8.29504 50.8451C8.55036 50.9495 8.82388 51.0021 9.09972 50.9999C9.37556 50.9978 9.64822 50.9408 9.90186 50.8323C10.1555 50.7239 10.3851 50.5661 10.5772 50.3682C10.7694 50.1703 10.9203 49.9362 11.0212 49.6795L13.2555 44.1968C17.1665 46.0085 21.4399 46.9024 25.7491 46.8101C30.0585 46.9031 34.332 46.0092 38.2428 44.1968L40.4854 49.6795C40.5889 49.9327 40.7413 50.163 40.9338 50.3574C41.1263 50.5517 41.3552 50.7062 41.6075 50.8121C41.8597 50.9179 42.1303 50.9731 42.4039 50.9744C42.6774 50.9756 42.9485 50.923 43.2017 50.8195C43.455 50.716 43.6853 50.5637 43.8796 50.3711C44.074 50.1786 44.2285 49.9497 44.3343 49.6975C44.4402 49.4452 44.4954 49.1746 44.4966 48.9011C44.4979 48.6275 44.4453 48.3564 44.3418 48.1032L41.7389 41.7439C43.5098 39.8199 44.4917 37.2999 44.4896 34.685V18.8764ZM25.7491 42.6455C25.3373 42.6455 24.9347 42.5234 24.5923 42.2946C24.2499 42.0658 23.983 41.7406 23.8254 41.3601C23.6678 40.9796 23.6265 40.561 23.7069 40.157C23.7872 39.7531 23.9855 39.3821 24.2767 39.0909C24.568 38.7997 24.939 38.6013 25.3429 38.521C25.7468 38.4407 26.1655 38.4819 26.546 38.6395C26.9265 38.7971 27.2517 39.064 27.4805 39.4064C27.7093 39.7488 27.8314 40.1514 27.8314 40.5633C27.8314 41.1155 27.612 41.6452 27.2215 42.0357C26.831 42.4262 26.3014 42.6455 25.7491 42.6455Z" fill="white" fill-opacity="0.5"/>
<g filter="url(#filter0_f_7461_10589)">
<path d="M37.094 3.46655L37.094 3.46661L37.1017 3.46906C38.5189 3.92146 39.8152 4.68931 40.8929 5.71487C41.9318 6.70346 42.7415 7.90672 43.2662 9.23998C42.1894 13.0883 39.9487 18.1824 36.9017 22.3253C33.7964 26.5474 29.9524 29.6519 25.7491 29.6519C21.5458 29.6519 17.7019 26.5474 14.5966 22.3253C11.5495 18.1824 9.30895 13.0884 8.23207 9.24002C8.75701 7.90663 9.56688 6.70322 10.6057 5.71431C11.6835 4.68842 12.9796 3.92005 14.3968 3.4669L14.3969 3.46696L14.404 3.46455C18.063 2.23338 21.8893 1.57086 25.7492 1.50008C29.6092 1.57029 33.4355 2.23352 37.094 3.46655ZM29.9137 6.74683H21.5846C20.8997 6.74683 20.2429 7.01889 19.7586 7.50316C19.2744 7.98743 19.0023 8.64425 19.0023 9.32911C19.0023 10.014 19.2744 10.6708 19.7586 11.1551C20.2429 11.6393 20.8997 11.9114 21.5846 11.9114H29.9137C30.5986 11.9114 31.2554 11.6393 31.7396 11.1551C32.2239 10.6708 32.496 10.014 32.496 9.32911C32.496 8.64425 32.2239 7.98743 31.7396 7.50316C31.2554 7.01889 30.5986 6.74683 29.9137 6.74683ZM24.3145 42.7104C24.7392 42.9941 25.2384 43.1455 25.7491 43.1455C26.434 43.1455 27.0908 42.8735 27.5751 42.3892C28.0594 41.9049 28.3314 41.2481 28.3314 40.5633C28.3314 40.0525 28.18 39.5533 27.8962 39.1286C27.6125 38.704 27.2092 38.373 26.7373 38.1776C26.2655 37.9821 25.7463 37.931 25.2454 38.0306C24.7445 38.1302 24.2843 38.3762 23.9232 38.7373C23.5621 39.0985 23.3161 39.5586 23.2165 40.0595C23.1168 40.5604 23.168 41.0796 23.3634 41.5515C23.5589 42.0233 23.8898 42.4266 24.3145 42.7104Z" stroke="white"/>
</g>
<defs>
<filter id="filter0_f_7461_10589" x="6.00098" y="0" width="39.4956" height="52" filterUnits="userSpaceOnUse" color-interpolation-filters="sRGB">
<feFlood flood-opacity="0" result="BackgroundImageFix"/>
<feBlend mode="normal" in="SourceGraphic" in2="BackgroundImageFix" result="shape"/>
<feGaussianBlur stdDeviation="0.5" result="effect1_foregroundBlur_7461_10589"/>
</filter>
</defs>
</svg>
