<svg width="19" height="25" viewBox="0 0 19 25" fill="none" xmlns="http://www.w3.org/2000/svg">
<path d="M9.62527 14.5C13.9013 14.5 17.2593 8.208 18.2903 4.445C18.0268 3.74199 17.6073 3.10787 17.0635 2.59033C16.5196 2.07279 15.8655 1.6853 15.1503 1.457C13.3686 0.856516 11.5051 0.53374 9.62527 0.5C7.74552 0.534019 5.88215 0.856442 4.10027 1.456C3.38509 1.68467 2.73103 2.07241 2.18719 2.59009C1.64335 3.10778 1.22388 3.74196 0.960265 4.445C1.99127 8.208 5.34927 14.5 9.62527 14.5ZM7.62527 3.5H11.6253C11.8905 3.5 12.1448 3.60536 12.3324 3.79289C12.5199 3.98043 12.6253 4.23478 12.6253 4.5C12.6253 4.76522 12.5199 5.01957 12.3324 5.20711C12.1448 5.39464 11.8905 5.5 11.6253 5.5H7.62527C7.36005 5.5 7.1057 5.39464 6.91816 5.20711C6.73062 5.01957 6.62527 4.76522 6.62527 4.5C6.62527 4.23478 6.73062 3.98043 6.91816 3.79289C7.1057 3.60536 7.36005 3.5 7.62527 3.5ZM18.6253 9.085C16.7343 12.823 13.5963 16.5 9.62527 16.5C5.65427 16.5 2.51627 12.823 0.625265 9.085V16.677C0.62535 17.9333 1.09839 19.1436 1.95027 20.067L0.701265 23.121C0.649445 23.2429 0.622365 23.3739 0.621599 23.5064C0.620832 23.6389 0.646395 23.7702 0.696801 23.8927C0.747208 24.0152 0.821454 24.1265 0.915227 24.22C1.009 24.3136 1.12043 24.3876 1.24305 24.4378C1.36566 24.4879 1.49702 24.5132 1.62949 24.5121C1.76196 24.5111 1.8929 24.4837 2.01471 24.4317C2.13652 24.3796 2.24676 24.3038 2.33905 24.2088C2.43133 24.1137 2.5038 24.0013 2.55227 23.878L3.62527 21.245C5.50351 22.1151 7.55576 22.5443 9.62527 22.5C11.6948 22.5447 13.7471 22.1154 15.6253 21.245L16.7023 23.878C16.752 23.9996 16.8251 24.1102 16.9176 24.2036C17.0101 24.2969 17.12 24.3711 17.2411 24.4219C17.3623 24.4728 17.4922 24.4992 17.6236 24.4999C17.755 24.5005 17.8852 24.4752 18.0068 24.4255C18.1284 24.3758 18.239 24.3026 18.3323 24.2102C18.4256 24.1177 18.4998 24.0078 18.5507 23.8866C18.6015 23.7655 18.628 23.6355 18.6286 23.5042C18.6292 23.3728 18.604 23.2426 18.5543 23.121L17.3043 20.067C18.1547 19.143 18.6263 17.9328 18.6253 16.677V9.085ZM9.62527 20.5C9.42748 20.5 9.23414 20.4414 9.06969 20.3315C8.90525 20.2216 8.77707 20.0654 8.70139 19.8827C8.6257 19.7 8.60589 19.4989 8.64448 19.3049C8.68307 19.1109 8.77831 18.9327 8.91816 18.7929C9.05801 18.653 9.23619 18.5578 9.43017 18.5192C9.62416 18.4806 9.82522 18.5004 10.0079 18.5761C10.1907 18.6518 10.3469 18.78 10.4567 18.9444C10.5666 19.1089 10.6253 19.3022 10.6253 19.5C10.6253 19.7652 10.5199 20.0196 10.3324 20.2071C10.1448 20.3946 9.89048 20.5 9.62527 20.5Z" fill="white" fill-opacity="0.7" style="mix-blend-mode:lighten"/>
<path d="M9.62527 14.5C13.9013 14.5 17.2593 8.208 18.2903 4.445C18.0268 3.74199 17.6073 3.10787 17.0635 2.59033C16.5196 2.07279 15.8655 1.6853 15.1503 1.457C13.3686 0.856516 11.5051 0.53374 9.62527 0.5C7.74552 0.534019 5.88215 0.856442 4.10027 1.456C3.38509 1.68467 2.73103 2.07241 2.18719 2.59009C1.64335 3.10778 1.22388 3.74196 0.960265 4.445C1.99127 8.208 5.34927 14.5 9.62527 14.5ZM7.62527 3.5H11.6253C11.8905 3.5 12.1448 3.60536 12.3324 3.79289C12.5199 3.98043 12.6253 4.23478 12.6253 4.5C12.6253 4.76522 12.5199 5.01957 12.3324 5.20711C12.1448 5.39464 11.8905 5.5 11.6253 5.5H7.62527C7.36005 5.5 7.1057 5.39464 6.91816 5.20711C6.73062 5.01957 6.62527 4.76522 6.62527 4.5C6.62527 4.23478 6.73062 3.98043 6.91816 3.79289C7.1057 3.60536 7.36005 3.5 7.62527 3.5ZM18.6253 9.085C16.7343 12.823 13.5963 16.5 9.62527 16.5C5.65427 16.5 2.51627 12.823 0.625265 9.085V16.677C0.62535 17.9333 1.09839 19.1436 1.95027 20.067L0.701265 23.121C0.649445 23.2429 0.622365 23.3739 0.621599 23.5064C0.620832 23.6389 0.646395 23.7702 0.696801 23.8927C0.747208 24.0152 0.821454 24.1265 0.915227 24.22C1.009 24.3136 1.12043 24.3876 1.24305 24.4378C1.36566 24.4879 1.49702 24.5132 1.62949 24.5121C1.76196 24.5111 1.8929 24.4837 2.01471 24.4317C2.13652 24.3796 2.24676 24.3038 2.33905 24.2088C2.43133 24.1137 2.5038 24.0013 2.55227 23.878L3.62527 21.245C5.50351 22.1151 7.55576 22.5443 9.62527 22.5C11.6948 22.5447 13.7471 22.1154 15.6253 21.245L16.7023 23.878C16.752 23.9996 16.8251 24.1102 16.9176 24.2036C17.0101 24.2969 17.12 24.3711 17.2411 24.4219C17.3623 24.4728 17.4922 24.4992 17.6236 24.4999C17.755 24.5005 17.8852 24.4752 18.0068 24.4255C18.1284 24.3758 18.239 24.3026 18.3323 24.2102C18.4256 24.1177 18.4998 24.0078 18.5507 23.8866C18.6015 23.7655 18.628 23.6355 18.6286 23.5042C18.6292 23.3728 18.604 23.2426 18.5543 23.121L17.3043 20.067C18.1547 19.143 18.6263 17.9328 18.6253 16.677V9.085ZM9.62527 20.5C9.42748 20.5 9.23414 20.4414 9.06969 20.3315C8.90525 20.2216 8.77707 20.0654 8.70139 19.8827C8.6257 19.7 8.60589 19.4989 8.64448 19.3049C8.68307 19.1109 8.77831 18.9327 8.91816 18.7929C9.05801 18.653 9.23619 18.5578 9.43017 18.5192C9.62416 18.4806 9.82522 18.5004 10.0079 18.5761C10.1907 18.6518 10.3469 18.78 10.4567 18.9444C10.5666 19.1089 10.6253 19.3022 10.6253 19.5C10.6253 19.7652 10.5199 20.0196 10.3324 20.2071C10.1448 20.3946 9.89048 20.5 9.62527 20.5Z" fill="#545454" style="mix-blend-mode:color-dodge"/>
</svg>
