<svg width="16" height="17" viewBox="0 0 16 17" fill="none" xmlns="http://www.w3.org/2000/svg">
<g clip-path="url(#clip0_1014_3390)">
<path d="M8.00001 9.83333C10.8507 9.83333 13.0893 5.63867 13.7767 3.13C13.601 2.66133 13.3214 2.23858 12.9588 1.89356C12.5962 1.54853 12.1602 1.2902 11.6833 1.138C10.4956 0.737678 9.25325 0.522493 8.00001 0.5C6.74685 0.522679 5.5046 0.737628 4.31668 1.13733C3.8399 1.28978 3.40386 1.54827 3.0413 1.8934C2.67874 2.23852 2.39909 2.6613 2.22335 3.13C2.91068 5.63867 5.14935 9.83333 8.00001 9.83333ZM6.66668 2.5H9.33335C9.51016 2.5 9.67973 2.57024 9.80475 2.69526C9.92978 2.82029 10 2.98986 10 3.16667C10 3.34348 9.92978 3.51305 9.80475 3.63807C9.67973 3.7631 9.51016 3.83333 9.33335 3.83333H6.66668C6.48987 3.83333 6.3203 3.7631 6.19528 3.63807C6.07025 3.51305 6.00001 3.34348 6.00001 3.16667C6.00001 2.98986 6.07025 2.82029 6.19528 2.69526C6.3203 2.57024 6.48987 2.5 6.66668 2.5ZM14 6.22333C12.7393 8.71533 10.6473 11.1667 8.00001 11.1667C5.35268 11.1667 3.26068 8.71533 2.00001 6.22333V11.2847C2.00007 12.1222 2.31543 12.9291 2.88335 13.5447L2.05068 15.5807C2.01613 15.6619 1.99808 15.7493 1.99757 15.8376C1.99706 15.9259 2.0141 16.0134 2.0477 16.0951C2.08131 16.1768 2.13081 16.251 2.19332 16.3134C2.25584 16.3757 2.33012 16.4251 2.41187 16.4585C2.49361 16.4919 2.58118 16.5088 2.6695 16.5081C2.75781 16.5074 2.84511 16.4892 2.92631 16.4544C3.00752 16.4197 3.08101 16.3692 3.14253 16.3058C3.20405 16.2425 3.25237 16.1675 3.28468 16.0853L4.00001 14.33C5.25218 14.91 6.62035 15.1962 8.00001 15.1667C9.3797 15.1964 10.7479 14.9103 12 14.33L12.718 16.0853C12.7512 16.1664 12.7999 16.2402 12.8616 16.3024C12.9232 16.3646 12.9965 16.4141 13.0773 16.4479C13.158 16.4818 13.2447 16.4995 13.3322 16.4999C13.4198 16.5003 13.5066 16.4835 13.5877 16.4503C13.6688 16.4172 13.7425 16.3684 13.8047 16.3068C13.8669 16.2451 13.9164 16.1719 13.9503 16.0911C13.9842 16.0103 14.0018 15.9237 14.0023 15.8361C14.0027 15.7485 13.9858 15.6617 13.9527 15.5807L13.1193 13.5447C13.6863 12.9287 14.0007 12.1219 14 11.2847V6.22333ZM8.00001 13.8333C7.86816 13.8333 7.73927 13.7942 7.62963 13.721C7.52 13.6477 7.43455 13.5436 7.38409 13.4218C7.33364 13.3 7.32043 13.1659 7.34616 13.0366C7.37188 12.9073 7.43537 12.7885 7.52861 12.6953C7.62184 12.602 7.74063 12.5385 7.86995 12.5128C7.99927 12.4871 8.13332 12.5003 8.25514 12.5507C8.37695 12.6012 8.48107 12.6867 8.55433 12.7963C8.62758 12.9059 8.66668 13.0348 8.66668 13.1667C8.66668 13.3435 8.59644 13.513 8.47142 13.6381C8.34639 13.7631 8.17683 13.8333 8.00001 13.8333Z" fill="white"/>
</g>
<defs>
<clipPath id="clip0_1014_3390">
<rect width="16" height="16" fill="white" transform="translate(0 0.5)"/>
</clipPath>
</defs>
</svg>
