<svg width="44" height="45" viewBox="0 0 44 45" fill="none" xmlns="http://www.w3.org/2000/svg">
<rect y="0.5" width="44" height="44" rx="12" fill="white" fill-opacity="0.06" style="mix-blend-mode:lighten"/>
<rect y="0.5" width="44" height="44" rx="12" fill="#5E5E5E" fill-opacity="0.18" style="mix-blend-mode:color-dodge"/>
<g clip-path="url(#clip0_7462_14671)">
<path d="M28 22.5C24.691 22.5 22 25.191 22 28.5C22 31.809 24.691 34.5 28 34.5C31.309 34.5 34 31.809 34 28.5C34 25.191 31.309 22.5 28 22.5ZM30.207 30.707C30.012 30.902 29.756 31 29.5 31C29.244 31 28.988 30.902 28.793 30.707L27.293 29.207C27.105 29.019 27 28.765 27 28.5V26C27 25.448 27.448 25 28 25C28.552 25 29 25.448 29 26V28.086L30.207 29.293C30.598 29.684 30.598 30.316 30.207 30.707ZM20 28.5C20 24.082 23.582 20.5 28 20.5C29.893 20.5 31.63 21.161 33 22.26V15.5C33 12.743 30.757 10.5 28 10.5H15C12.243 10.5 10 12.743 10 15.5V24.5C10 27.257 12.243 29.5 15 29.5H20.069C20.028 29.172 20 28.839 20 28.5ZM18 21.817V17.22C18 16.319 18.968 15.75 19.755 16.187L23.892 18.486C24.702 18.936 24.702 20.101 23.892 20.551L19.755 22.85C18.968 23.287 18 22.718 18 21.817Z" fill="white" fill-opacity="0.5"/>
</g>
<defs>
<clipPath id="clip0_7462_14671">
<rect width="24" height="24" fill="white" transform="translate(10 10.5)"/>
</clipPath>
</defs>
</svg>
