<svg width="44" height="43" viewBox="0 0 44 43" fill="none" xmlns="http://www.w3.org/2000/svg">
<rect y="0.474609" width="43.999" height="42.0503" rx="12" fill="white" fill-opacity="0.06" style="mix-blend-mode:lighten"/>
<rect y="0.474609" width="43.999" height="42.0503" rx="12" fill="#5E5E5E" fill-opacity="0.18" style="mix-blend-mode:color-dodge"/>
<path d="M29 10.4746H15C12.243 10.4746 10 12.7176 10 15.4746V25.4746C10 28.2316 12.243 30.4746 15 30.4746H21.5V28.4166C20.771 27.5936 20.289 26.5956 20.096 25.5256H16C15.447 25.5256 15 25.0776 15 24.5256C15 23.9736 15.447 23.5256 16 23.5256H20.082C20.197 22.8086 20.435 22.1346 20.78 21.5256H15.999C15.446 21.5256 14.999 21.0776 14.999 20.5256C14.999 19.9736 15.446 19.5256 15.999 19.5256H22.613C23.578 18.8636 24.743 18.4746 25.999 18.4746C29.308 18.4746 31.999 21.1656 31.999 24.4746C31.999 25.9366 31.462 27.3286 30.499 28.4166V30.2186C32.52 29.5766 33.999 27.7046 33.999 25.4736V15.4746C33.999 12.7176 31.757 10.4746 29 10.4746ZM28 17.5256H16C15.447 17.5256 15 17.0776 15 16.5256C15 15.9736 15.447 15.5256 16 15.5256H28C28.553 15.5256 29 15.9736 29 16.5256C29 17.0776 28.553 17.5256 28 17.5256ZM30 24.5256C30 22.3196 28.206 20.5256 26 20.5256C23.794 20.5256 22 22.3196 22 24.5256C22 25.7806 22.593 26.8886 23.5 27.6226V31.8726C23.5 32.4956 24.291 32.7626 24.669 32.2676L26 30.5246L27.331 32.2676C27.709 32.7626 28.5 32.4956 28.5 31.8726V27.6226C29.407 26.8886 30 25.7806 30 24.5256Z" fill="white" fill-opacity="0.5"/>
</svg>
