<svg width="18" height="19" viewBox="0 0 18 19" fill="none" xmlns="http://www.w3.org/2000/svg">
<g clip-path="url(#clip0_485_14028)">
<path fill-rule="evenodd" clip-rule="evenodd" d="M8.46275 0.5V2.63311C8.41105 2.63311 8.35936 2.63292 8.30766 2.63274L8.30726 2.63274C8.20362 2.63237 8.09993 2.632 7.99628 2.63311C7.65524 2.63588 7.41708 2.89255 7.41708 3.25511C7.41708 3.61657 7.65618 3.87601 7.99628 3.87712C8.66474 3.87878 9.33273 3.87878 10.0007 3.87712C10.3422 3.87601 10.5804 3.61878 10.5804 3.25567C10.5804 2.89311 10.3432 2.63644 10.0017 2.63311C9.90159 2.63238 9.80152 2.63261 9.69832 2.63286L9.53707 2.63311V0.5H14C16.2091 0.5 18 2.29086 18 4.5V14.5C18 16.7091 16.2091 18.5 14 18.5H13.541C13.3922 18.1346 13.2455 17.2916 13.0977 16.4415L13.0977 16.4415C12.9467 15.5737 12.7945 14.6985 12.6373 14.3164C12.6633 14.3302 12.6851 14.3409 12.704 14.3502C12.736 14.366 12.7599 14.3777 12.782 14.3934C12.9333 14.4999 13.0841 14.6071 13.2349 14.7144L13.235 14.7145C13.5004 14.9032 13.7657 15.0919 14.0334 15.276C14.2857 15.4495 14.5755 15.3725 14.7366 15.1069C14.894 14.8475 14.8597 14.4943 14.6549 14.2809C14.6201 14.2449 14.5807 14.2133 14.5408 14.185C12.8088 12.9587 11.0768 11.7324 9.34388 10.5078C9.0982 10.3343 8.86802 10.3565 8.67918 10.5572C8.51383 10.7329 8.44759 11.0256 8.55658 11.2557C8.61905 11.3871 8.7224 11.509 8.83185 11.5883C9.21575 11.8671 9.60232 12.1408 9.98883 12.4143C10.27 12.6134 10.5515 12.8126 10.8316 13.0136C10.9021 13.064 10.9735 13.1411 11.0092 13.2265C11.236 13.7692 11.4612 14.8201 11.6857 15.8678L11.6857 15.8678C11.907 16.9004 12.1276 17.9299 12.3484 18.4662C12.353 18.4772 12.3572 18.4885 12.3611 18.5H8.26627C8.11803 18.1436 7.97192 17.2836 7.82662 16.4284L7.82662 16.4284C7.68358 15.5865 7.54134 14.7493 7.39863 14.4017C7.39466 14.392 7.39326 14.3807 7.3908 14.3607L7.39079 14.3607C7.38919 14.3477 7.38713 14.3309 7.3836 14.3086C7.45553 14.3591 7.52392 14.4068 7.59016 14.453L7.59063 14.4534L7.59098 14.4536L7.59126 14.4538L7.59173 14.4541L7.59237 14.4546L7.59248 14.4546C7.6853 14.5194 7.77443 14.5816 7.86275 14.644C7.97 14.7197 8.07712 14.7958 8.18429 14.8719C8.36296 14.9989 8.54175 15.1259 8.72146 15.251C9.01318 15.4539 9.33214 15.3747 9.48716 15.0642C9.6403 14.7571 9.55668 14.3929 9.27295 14.1916C7.53674 12.9604 5.7996 11.7308 4.06151 10.5034C3.77919 10.3044 3.46445 10.3898 3.30943 10.6924C3.15066 11.0034 3.23991 11.3688 3.53304 11.5772C3.81508 11.7779 4.09753 11.9777 4.37997 12.1775C4.77542 12.4571 5.17086 12.7368 5.56519 13.0191C5.63142 13.0663 5.6986 13.1378 5.73195 13.2176C5.9609 13.7661 6.18842 14.8213 6.41535 15.8739L6.41536 15.8739C6.63961 16.914 6.86328 17.9514 7.08719 18.4945C7.08793 18.4963 7.08866 18.4982 7.08938 18.5H4C1.79086 18.5 0 16.7091 0 14.5V4.5C0 2.29086 1.79086 0.5 4 0.5H8.46275Z" fill="white" fill-opacity="0.96"/>
</g>
<defs>
<clipPath id="clip0_485_14028">
<rect width="18" height="18" fill="white" transform="translate(0 0.5)"/>
</clipPath>
</defs>
</svg>
