<svg width="25" height="24" viewBox="0 0 25 24" fill="none" xmlns="http://www.w3.org/2000/svg">
<g clip-path="url(#clip0_8070_1164)">
<path d="M18.25 12C18.25 8.691 15.559 6 12.25 6C8.941 6 6.25 8.691 6.25 12C6.25 15.309 8.941 18 12.25 18C15.559 18 18.25 15.309 18.25 12ZM8.25 23C8.25 23.553 7.803 24 7.25 24H5.25C2.493 24 0.25 21.757 0.25 19V17C0.25 16.447 0.697 16 1.25 16C1.803 16 2.25 16.447 2.25 17V19C2.25 20.654 3.596 22 5.25 22H7.25C7.803 22 8.25 22.447 8.25 23ZM24.25 17V19C24.25 21.757 22.007 24 19.25 24H17.25C16.697 24 16.25 23.553 16.25 23C16.25 22.447 16.697 22 17.25 22H19.25C20.904 22 22.25 20.654 22.25 19V17C22.25 16.447 22.697 16 23.25 16C23.803 16 24.25 16.447 24.25 17ZM24.25 5V7C24.25 7.553 23.803 8 23.25 8C22.697 8 22.25 7.553 22.25 7V5C22.25 3.346 20.904 2 19.25 2H17.25C16.697 2 16.25 1.553 16.25 1C16.25 0.447 16.697 0 17.25 0H19.25C22.007 0 24.25 2.243 24.25 5ZM0.25 7V5C0.25 2.243 2.493 0 5.25 0H7.25C7.803 0 8.25 0.447 8.25 1C8.25 1.553 7.803 2 7.25 2H5.25C3.596 2 2.25 3.346 2.25 5V7C2.25 7.553 1.803 8 1.25 8C0.697 8 0.25 7.553 0.25 7Z" fill="white" fill-opacity="0.1" style="mix-blend-mode:lighten"/>
<path d="M18.25 12C18.25 8.691 15.559 6 12.25 6C8.941 6 6.25 8.691 6.25 12C6.25 15.309 8.941 18 12.25 18C15.559 18 18.25 15.309 18.25 12ZM8.25 23C8.25 23.553 7.803 24 7.25 24H5.25C2.493 24 0.25 21.757 0.25 19V17C0.25 16.447 0.697 16 1.25 16C1.803 16 2.25 16.447 2.25 17V19C2.25 20.654 3.596 22 5.25 22H7.25C7.803 22 8.25 22.447 8.25 23ZM24.25 17V19C24.25 21.757 22.007 24 19.25 24H17.25C16.697 24 16.25 23.553 16.25 23C16.25 22.447 16.697 22 17.25 22H19.25C20.904 22 22.25 20.654 22.25 19V17C22.25 16.447 22.697 16 23.25 16C23.803 16 24.25 16.447 24.25 17ZM24.25 5V7C24.25 7.553 23.803 8 23.25 8C22.697 8 22.25 7.553 22.25 7V5C22.25 3.346 20.904 2 19.25 2H17.25C16.697 2 16.25 1.553 16.25 1C16.25 0.447 16.697 0 17.25 0H19.25C22.007 0 24.25 2.243 24.25 5ZM0.25 7V5C0.25 2.243 2.493 0 5.25 0H7.25C7.803 0 8.25 0.447 8.25 1C8.25 1.553 7.803 2 7.25 2H5.25C3.596 2 2.25 3.346 2.25 5V7C2.25 7.553 1.803 8 1.25 8C0.697 8 0.25 7.553 0.25 7Z" fill="#5E5E5E" fill-opacity="0.45" style="mix-blend-mode:color-dodge"/>
</g>
<defs>
<clipPath id="clip0_8070_1164">
<rect width="24" height="24" fill="white" transform="translate(0.25)"/>
</clipPath>
</defs>
</svg>
