<svg width="24" height="17" viewBox="0 0 24 17" fill="none" xmlns="http://www.w3.org/2000/svg">
<path fill-rule="evenodd" clip-rule="evenodd" d="M1.03034 1.15816C1.46185 0.809258 2.07847 0.809258 2.50998 1.15816L6.57626 4.44604C6.91436 4.71942 7.33601 4.86856 7.7708 4.86856H15.9651C16.3999 4.86856 16.8216 4.71942 17.1597 4.44604L21.2259 1.15816C21.6575 0.809258 22.2741 0.809258 22.7056 1.15816C23.288 1.62911 23.288 2.51716 22.7056 2.98811L17.3623 7.30857C16.9162 7.66927 16.6569 8.21224 16.6569 8.78592V11.7382C16.6569 12.2935 16.4141 12.8209 15.9922 13.1819L13.2038 15.5674C12.5079 16.1627 11.4864 16.1769 10.7742 15.6011L7.78414 13.1834C7.33804 12.8227 7.07881 12.2798 7.07881 11.7061V8.78578C7.07881 8.21209 6.81958 7.66913 6.37348 7.30843L1.03034 2.98811C0.447895 2.51717 0.447896 1.62911 1.03034 1.15816Z" fill="black"/>
</svg>
