<svg xmlns="http://www.w3.org/2000/svg" width="19" height="19" viewBox="0 0 19 19" fill="none">
<g clip-path="url(#clip0_383_155)">
<path d="M18.0551 14.5769C18.0551 14.9917 17.7191 15.3269 17.3051 15.3269H15.0551V17.5769C15.0551 17.9917 14.7191 18.3269 14.3051 18.3269C13.8911 18.3269 13.5551 17.9917 13.5551 17.5769V15.3269H11.3051C10.8911 15.3269 10.5551 14.9917 10.5551 14.5769C10.5551 14.1622 10.8911 13.8269 11.3051 13.8269H13.5551V11.5769C13.5551 11.1622 13.8911 10.8269 14.3051 10.8269C14.7191 10.8269 15.0551 11.1622 15.0551 11.5769V13.8269H17.3051C17.7191 13.8269 18.0551 14.1622 18.0551 14.5769ZM12.0551 5.5769C12.4683 5.5769 12.8051 5.2409 12.8051 4.8269C12.8051 4.4129 12.4683 4.0769 12.0551 4.0769C11.6418 4.0769 11.3051 4.4129 11.3051 4.8269C11.3051 5.2409 11.6418 5.5769 12.0551 5.5769ZM3.66105 7.19015L0.0550537 10.7962V4.0769C0.0550537 2.00915 1.7373 0.326904 3.80505 0.326904H12.8051C14.8728 0.326904 16.5551 2.00915 16.5551 4.0769V9.3269H14.3051C13.1163 9.3269 12.1413 10.2532 12.0611 11.4217L7.82955 7.19015C6.6798 6.0404 4.81005 6.0404 3.66105 7.19015ZM9.80505 4.8269C9.80505 6.0674 10.8146 7.0769 12.0551 7.0769C13.2956 7.0769 14.3051 6.0674 14.3051 4.8269C14.3051 3.5864 13.2956 2.5769 12.0551 2.5769C10.8146 2.5769 9.80505 3.5864 9.80505 4.8269ZM9.05505 14.5769C9.05505 13.4797 9.84405 12.5639 10.8851 12.3667L6.76905 8.25065C6.20505 7.6874 5.28705 7.68665 4.72155 8.25065L0.0550537 12.9172V13.0769C0.0550537 15.1447 1.7373 16.8269 3.80505 16.8269H9.05505V14.5769Z" fill="white" fill-opacity="0.5"/>
</g>
<defs>
<clipPath id="clip0_383_155">
<rect width="18" height="18" fill="white" transform="translate(0.0550537 0.326904)"/>
</clipPath>
</defs>
</svg>