<svg width="18" height="19" viewBox="0 0 18 19" fill="none" xmlns="http://www.w3.org/2000/svg">
<g clip-path="url(#clip0_5012_2098)">
<path d="M4.875 10.25H1.125C0.826631 10.25 0.540483 10.1315 0.329505 9.9205C0.118526 9.70952 0 9.42337 0 9.125C0 8.82663 0.118526 8.54048 0.329505 8.3295C0.540483 8.11853 0.826631 8 1.125 8H4.875C5.17337 8 5.45952 8.11853 5.6705 8.3295C5.88147 8.54048 6 8.82663 6 9.125C6 9.42337 5.88147 9.70952 5.6705 9.9205C5.45952 10.1315 5.17337 10.25 4.875 10.25Z" fill="white" fill-opacity="0.96"/>
<path d="M13.875 10.2502H8.625C8.32663 10.2502 8.04048 10.1316 7.8295 9.92065C7.61853 9.70967 7.5 9.42352 7.5 9.12515C7.5 8.82679 7.61853 8.54064 7.8295 8.32966C8.04048 8.11868 8.32663 8.00015 8.625 8.00015H13.875C14.1233 8.00017 14.3691 7.95089 14.5981 7.85517C14.8272 7.75944 15.035 7.61918 15.2094 7.44252C15.3838 7.26586 15.5214 7.05632 15.6142 6.82606C15.707 6.59579 15.7532 6.34939 15.75 6.10115C15.7405 5.7531 15.6121 5.41879 15.3861 5.15391C15.1601 4.88903 14.8502 4.70956 14.508 4.6454C14.2923 4.60773 14.0709 4.61776 13.8594 4.67478C13.648 4.73181 13.4516 4.83444 13.2841 4.97547C13.1165 5.1165 12.9819 5.2925 12.8896 5.49112C12.7973 5.68974 12.7497 5.90615 12.75 6.12515C12.75 6.42352 12.6315 6.70967 12.4205 6.92065C12.2095 7.13163 11.9234 7.25015 11.625 7.25015C9.54975 7.01165 10.7415 4.0814 11.82 3.26915C12.362 2.80793 13.024 2.51045 13.7287 2.41146C14.4335 2.31247 15.1518 2.41605 15.7999 2.71012C16.448 3.00419 16.999 3.47659 17.3885 4.07214C17.7781 4.6677 17.9902 5.36181 18 6.0734C18.0069 6.61945 17.9052 7.16141 17.701 7.66787C17.4967 8.17433 17.194 8.63519 16.8103 9.02373C16.4265 9.41227 15.9695 9.72075 15.4656 9.93128C14.9617 10.1418 14.4211 10.2502 13.875 10.2502Z" fill="white" fill-opacity="0.96"/>
<path d="M5.25 6.50034H1.125C0.826631 6.50034 0.540483 6.38182 0.329505 6.17084C0.118526 5.95986 0 5.67371 0 5.37534C0 5.07697 0.118526 4.79083 0.329505 4.57985C0.540483 4.36887 0.826631 4.25034 1.125 4.25034H5.25C5.43037 4.25817 5.60811 4.2049 5.75444 4.09913C5.90076 3.99337 6.0071 3.84132 6.05625 3.66759C6.07749 3.56017 6.07451 3.44936 6.04752 3.34323C6.02054 3.2371 5.97023 3.13832 5.90025 3.05409C5.8147 2.97255 5.7134 2.90933 5.60256 2.86831C5.49173 2.82728 5.37368 2.8093 5.25566 2.81548C5.13763 2.82166 5.02211 2.85186 4.91616 2.90424C4.81021 2.95662 4.71607 3.03007 4.6395 3.12009C4.54703 3.23694 4.43226 3.33424 4.30187 3.40637C4.17148 3.47849 4.02807 3.52399 3.87995 3.54023C3.73182 3.55647 3.58195 3.54312 3.43903 3.50096C3.29612 3.4588 3.163 3.38867 3.04741 3.29464C2.93181 3.2006 2.83606 3.08455 2.76569 2.9532C2.69532 2.82185 2.65175 2.67784 2.6375 2.52951C2.62325 2.38119 2.63861 2.23151 2.68269 2.08917C2.72676 1.94683 2.79867 1.81466 2.89425 1.70034C3.17827 1.35052 3.53528 1.06697 3.94031 0.86951C4.34535 0.67205 4.78862 0.56545 5.23915 0.557164C5.68967 0.548878 6.13657 0.639106 6.54859 0.821538C6.96061 1.00397 7.32781 1.2742 7.6245 1.61334C7.90533 1.95051 8.10855 2.34533 8.21976 2.76981C8.33096 3.19429 8.34743 3.63804 8.268 4.06959C8.12931 4.76409 7.75122 5.38786 7.19966 5.83209C6.6481 6.27632 5.9581 6.51282 5.25 6.50034Z" fill="white" fill-opacity="0.96"/>
<path d="M11.6888 18.5066C11.1571 18.5051 10.6323 18.3866 10.1515 18.1595C9.67078 17.9324 9.2459 17.6023 8.907 17.1926C8.81343 17.0783 8.74332 16.9465 8.70065 16.805C8.65798 16.6636 8.6436 16.515 8.65833 16.368C8.67306 16.2209 8.71661 16.0782 8.7865 15.948C8.85638 15.8178 8.95123 15.7026 9.06563 15.609C9.18002 15.5155 9.31173 15.4453 9.45323 15.4027C9.59472 15.36 9.74324 15.3456 9.89029 15.3604C10.1873 15.3901 10.4603 15.5366 10.6493 15.7677C10.7653 15.9041 10.9083 16.015 11.0692 16.0937C11.2302 16.1723 11.4056 16.2169 11.5845 16.2246C11.7635 16.2324 11.9421 16.2031 12.1092 16.1387C12.2763 16.0742 12.4283 15.976 12.5558 15.8501C12.6635 15.721 12.7411 15.5694 12.7829 15.4064C12.8247 15.2435 12.8296 15.0732 12.7973 14.9081C12.7293 14.6399 12.571 14.4032 12.349 14.238C12.1271 14.0727 11.855 13.9889 11.5785 14.0006H1.125C0.826631 14.0006 0.540483 13.8821 0.329505 13.6711C0.118526 13.4602 0 13.174 0 12.8756C0 12.5773 0.118526 12.2911 0.329505 12.0802C0.540483 11.8692 0.826631 11.7506 1.125 11.7506H11.5785C12.3833 11.735 13.168 12.0027 13.7955 12.5069C14.423 13.0111 14.8533 13.7198 15.0113 14.5091C15.102 14.9969 15.0842 15.4987 14.9592 15.9789C14.8341 16.459 14.6049 16.9057 14.2877 17.2873C13.9706 17.6689 13.5733 17.9759 13.1242 18.1867C12.675 18.3974 12.1849 18.5066 11.6888 18.5066Z" fill="white" fill-opacity="0.96"/>
</g>
<defs>
<clipPath id="clip0_5012_2098">
<rect width="18" height="18" fill="white" transform="translate(0 0.5)"/>
</clipPath>
</defs>
</svg>
