<svg width="44" height="44" viewBox="0 0 44 44" fill="none" xmlns="http://www.w3.org/2000/svg">
<rect x="0.7" y="0.7" width="42.6" height="42.6" rx="21.3" fill="#808080" fill-opacity="0.3" style="mix-blend-mode:luminosity"/>
<rect x="0.7" y="0.7" width="42.6" height="42.6" rx="21.3" stroke="url(#paint0_linear_8406_41152)" stroke-width="1.4"/>
<path d="M22 17C19.243 17 17 19.243 17 22C17 24.757 19.243 27 22 27C24.757 27 27 24.757 27 22C27 19.243 24.757 17 22 17ZM22 24C20.897 24 20 23.103 20 22C20 20.897 20.897 20 22 20C23.103 20 24 20.897 24 22C24 23.103 23.103 24 22 24ZM32.5 20.5H31.888C31.236 16.185 27.816 12.764 23.5 12.112V11.5C23.5 10.672 22.829 10 22 10C21.171 10 20.5 10.672 20.5 11.5V12.112C16.184 12.764 12.764 16.185 12.112 20.5H11.5C10.671 20.5 10 21.172 10 22C10 22.828 10.671 23.5 11.5 23.5H12.112C12.764 27.815 16.184 31.236 20.5 31.888V32.5C20.5 33.328 21.171 34 22 34C22.829 34 23.5 33.328 23.5 32.5V31.888C27.816 31.236 31.236 27.816 31.888 23.5H32.5C33.329 23.5 34 22.828 34 22C34 21.172 33.329 20.5 32.5 20.5ZM22 29C18.14 29 15 25.859 15 22C15 18.141 18.14 15 22 15C25.86 15 29 18.141 29 22C29 25.859 25.86 29 22 29Z" fill="url(#paint1_linear_8406_41152)"/>
<defs>
<linearGradient id="paint0_linear_8406_41152" x1="-14.2353" y1="3.89024" x2="-9.53309" y2="47.3978" gradientUnits="userSpaceOnUse">
<stop stop-color="white" stop-opacity="0.4"/>
<stop offset="0.368352" stop-color="white" stop-opacity="0.01"/>
<stop offset="0.574372" stop-color="white" stop-opacity="0.01"/>
<stop offset="1" stop-color="white" stop-opacity="0.1"/>
</linearGradient>
<linearGradient id="paint1_linear_8406_41152" x1="10" y1="22" x2="34" y2="22" gradientUnits="userSpaceOnUse">
<stop stop-color="#0A84FF"/>
<stop offset="1" stop-color="#00D9FF"/>
</linearGradient>
</defs>
</svg>
