<svg width="18" height="18" viewBox="0 0 18 18" fill="none" xmlns="http://www.w3.org/2000/svg">
<g clip-path="url(#clip0_5977_125060)">
<path d="M15.549 3.594C15.8544 3.70149 16.1763 3.7543 16.5 3.75C16.6989 3.75 16.8897 3.67098 17.0303 3.53033C17.171 3.38968 17.25 3.19891 17.25 3C17.25 2.80109 17.171 2.61032 17.0303 2.46967C16.8897 2.32902 16.6989 2.25 16.5 2.25C15.9113 2.25 15.75 2.08875 15.75 1.5C15.75 1.30109 15.671 1.11032 15.5303 0.96967C15.3897 0.829018 15.1989 0.75 15 0.75C14.8011 0.75 14.6103 0.829018 14.4697 0.96967C14.329 1.11032 14.25 1.30109 14.25 1.5C14.2456 1.86497 14.3171 2.22687 14.46 2.56275L13.9305 3.15075C12.7139 2.23521 11.2663 1.67682 9.75 1.53825V0.75C9.75 0.551088 9.67099 0.360322 9.53033 0.21967C9.38968 0.0790176 9.19892 0 9 0C8.80109 0 8.61033 0.0790176 8.46967 0.21967C8.32902 0.360322 8.25 0.551088 8.25 0.75V1.53825C6.73381 1.6766 5.28616 2.23472 4.0695 3.15L3.54 2.56275C3.68286 2.22687 3.75437 1.86497 3.75 1.5C3.75 1.30109 3.67099 1.11032 3.53033 0.96967C3.38968 0.829018 3.19892 0.75 3 0.75C2.80109 0.75 2.61033 0.829018 2.46967 0.96967C2.32902 1.11032 2.25 1.30109 2.25 1.5C2.25 2.08875 2.08875 2.25 1.5 2.25C1.30109 2.25 1.11033 2.32902 0.969674 2.46967C0.829022 2.61032 0.750005 2.80109 0.750005 3C0.750005 3.19891 0.829022 3.38968 0.969674 3.53033C1.11033 3.67098 1.30109 3.75 1.5 3.75C1.82371 3.7543 2.14564 3.70149 2.451 3.594L2.955 4.15425C1.86225 5.33084 1.13661 6.80075 0.867064 8.38372C0.597522 9.9667 0.795799 11.5939 1.43758 13.0659C2.07936 14.5378 3.13674 15.7904 4.48006 16.6702C5.82338 17.55 7.39424 18.0186 9 18.0186C10.6058 18.0186 12.1766 17.55 13.5199 16.6702C14.8633 15.7904 15.9207 14.5378 16.5624 13.0659C17.2042 11.5939 17.4025 9.9667 17.1329 8.38372C16.8634 6.80075 16.1378 5.33084 15.045 4.15425L15.549 3.594ZM9 11.25C8.67008 11.2511 8.34906 11.1431 8.08691 10.9428C7.82477 10.7425 7.63622 10.4611 7.55064 10.1425C7.46505 9.82382 7.48724 9.48584 7.61373 9.18113C7.74022 8.87642 7.96393 8.62209 8.25 8.45775V5.25C8.25 5.05109 8.32902 4.86032 8.46967 4.71967C8.61033 4.57902 8.80109 4.5 9 4.5C9.19892 4.5 9.38968 4.57902 9.53033 4.71967C9.67099 4.86032 9.75 5.05109 9.75 5.25V8.45775C10.0361 8.62209 10.2598 8.87642 10.3863 9.18113C10.5128 9.48584 10.535 9.82382 10.4494 10.1425C10.3638 10.4611 10.1752 10.7425 9.9131 10.9428C9.65095 11.1431 9.32992 11.2511 9 11.25Z" fill="white"/>
</g>
<defs>
<clipPath id="clip0_5977_125060">
<rect width="18" height="18" fill="white"/>
</clipPath>
</defs>
</svg>
