<svg width="20" height="24" viewBox="0 0 20 24" fill="none" xmlns="http://www.w3.org/2000/svg">
<path d="M17.492 7.96968L7.95401 0.975679C7.20903 0.430164 6.32755 0.101591 5.40727 0.0263818C4.48699 -0.0488277 3.56385 0.132264 2.74019 0.549583C1.91653 0.966902 1.22451 1.60415 0.740848 2.39069C0.257183 3.17722 0.00076115 4.08233 6.03388e-06 5.00568V19.0007C-0.00143046 19.9249 0.253651 20.8315 0.736856 21.6193C1.22006 22.4072 1.91243 23.0455 2.7369 23.4633C3.56137 23.881 4.48559 24.0617 5.40668 23.9854C6.32777 23.909 7.2096 23.5785 7.95401 23.0307L17.492 16.0367C18.1249 15.5722 18.6395 14.9653 18.9942 14.265C19.349 13.5647 19.5338 12.7907 19.5338 12.0057C19.5338 11.2207 19.349 10.4467 18.9942 9.74637C18.6395 9.04607 18.1249 8.43913 17.492 7.97468V7.96968Z" fill="white"/>
</svg>
