<svg width="18" height="19" viewBox="0 0 18 19" fill="none" xmlns="http://www.w3.org/2000/svg">
<g clip-path="url(#clip0_5008_10477)">
<path fill-rule="evenodd" clip-rule="evenodd" d="M8.46275 0.166016V2.29912C8.41105 2.29912 8.35936 2.29894 8.30766 2.29876L8.30726 2.29875C8.20362 2.29839 8.09993 2.29802 7.99628 2.29912C7.65524 2.3019 7.41708 2.55857 7.41708 2.92113C7.41708 3.28258 7.65618 3.54203 7.99628 3.54313C8.66474 3.5448 9.33273 3.5448 10.0007 3.54313C10.3422 3.54203 10.5804 3.2848 10.5804 2.92168C10.5804 2.55912 10.3432 2.30245 10.0017 2.29912C9.90159 2.29839 9.80152 2.29863 9.69832 2.29887L9.53707 2.29912V0.166016H14C16.2091 0.166016 18 1.95688 18 4.16602V14.166C18 16.3752 16.2091 18.166 14 18.166H13.541C13.3922 17.8006 13.2455 16.9576 13.0977 16.1075L13.0977 16.1075C12.9467 15.2397 12.7945 14.3645 12.6373 13.9824C12.6633 13.9962 12.6851 14.0069 12.704 14.0162C12.736 14.032 12.7599 14.0438 12.782 14.0594C12.9333 14.1659 13.0841 14.2732 13.2349 14.3804L13.235 14.3805C13.5004 14.5692 13.7657 14.7579 14.0334 14.942C14.2857 15.1155 14.5755 15.0385 14.7366 14.7729C14.894 14.5135 14.8597 14.1603 14.6549 13.9469C14.6201 13.9109 14.5807 13.8793 14.5408 13.851C12.8088 12.6247 11.0768 11.3985 9.34388 10.1738C9.0982 10.0003 8.86802 10.0225 8.67918 10.2232C8.51383 10.3989 8.44759 10.6916 8.55658 10.9217C8.61905 11.0531 8.7224 11.175 8.83185 11.2543C9.21575 11.5331 9.60232 11.8068 9.98883 12.0804C10.27 12.2794 10.5515 12.4786 10.8316 12.6796C10.9021 12.7301 10.9735 12.8071 11.0092 12.8925C11.236 13.4352 11.4612 14.4862 11.6857 15.5338L11.6857 15.5338C11.907 16.5665 12.1276 17.5959 12.3484 18.1322C12.353 18.1432 12.3572 18.1545 12.3611 18.166H8.26627C8.11803 17.8096 7.97192 16.9496 7.82662 16.0944L7.82662 16.0944C7.68358 15.2525 7.54134 14.4153 7.39863 14.0678C7.39466 14.058 7.39326 14.0467 7.3908 14.0267L7.39079 14.0267C7.38919 14.0137 7.38713 13.997 7.3836 13.9746C7.45553 14.0251 7.52392 14.0728 7.59016 14.119L7.59063 14.1194L7.59098 14.1196L7.59126 14.1198L7.59173 14.1201L7.59237 14.1206L7.59248 14.1207C7.6853 14.1854 7.77443 14.2476 7.86275 14.31C7.97 14.3857 8.07712 14.4618 8.18429 14.5379C8.36296 14.6649 8.54175 14.792 8.72146 14.9171C9.01318 15.12 9.33214 15.0407 9.48716 14.7302C9.6403 14.4231 9.55668 14.0589 9.27295 13.8577C7.53674 12.6264 5.7996 11.3968 4.06151 10.1694C3.77919 9.97039 3.46445 10.0558 3.30943 10.3585C3.15066 10.6695 3.23991 11.0348 3.53304 11.2432C3.81508 11.444 4.09753 11.6437 4.37997 11.8435C4.77542 12.1232 5.17086 12.4028 5.56519 12.6852C5.63142 12.7323 5.6986 12.8038 5.73195 12.8836C5.9609 13.4321 6.18842 14.4874 6.41535 15.5399L6.41536 15.5399C6.63961 16.58 6.86328 17.6174 7.08719 18.1605C7.08793 18.1623 7.08866 18.1642 7.08938 18.166H4C1.79086 18.166 0 16.3752 0 14.166V4.16602C0 1.95688 1.79086 0.166016 4 0.166016H8.46275Z" fill="white" fill-opacity="0.96"/>
</g>
<defs>
<clipPath id="clip0_5008_10477">
<rect width="18" height="18" fill="white" transform="translate(0 0.166016)"/>
</clipPath>
</defs>
</svg>
