<svg xmlns="http://www.w3.org/2000/svg" width="17" height="16" viewBox="0 0 17 16" fill="none">
<path d="M10.4942 5.33334H14.8542C14.6214 4.71659 14.2598 4.15659 13.7935 3.69069L11.4709 1.36669C11.0044 0.900905 10.4442 0.539561 9.82751 0.306686V4.66669C9.82751 5.03484 10.126 5.33334 10.4942 5.33334Z" fill="white" fill-opacity="0.5"/>
<path d="M15.1448 6.66666H10.4942C9.38961 6.66666 8.49417 5.77122 8.49417 4.66666V0.016C8.38683 0.00865625 8.27951 0 8.17083 0H5.16083C3.3208 0.00221875 1.8297 1.49331 1.82751 3.33334V12.6667C1.8297 14.5067 3.3208 15.9978 5.16083 16H11.8275C13.6675 15.9978 15.1586 14.5067 15.1608 12.6667V6.99C15.1608 6.88134 15.1522 6.774 15.1448 6.66666Z" fill="white" fill-opacity="0.5"/>
</svg>