<svg width="32" height="41" viewBox="0 0 32 41" fill="none" xmlns="http://www.w3.org/2000/svg">
<g filter="url(#filter0_d_928_3068)">
<path d="M16 0C18.3734 0 20.6934 0.703787 22.6668 2.02236C24.6402 3.34094 26.1783 5.21508 27.0865 7.4078C27.9948 9.60051 28.2324 12.0133 27.7694 14.3411C27.3064 16.6688 26.1635 18.8071 24.4853 20.4853C22.807 22.1635 20.6689 23.3064 18.3411 23.7694C16.0133 24.2324 13.6005 23.9948 11.4078 23.0866C9.21508 22.1783 7.34094 20.6402 6.02236 18.6668C4.70379 16.6934 4 14.3734 4 12C4 10.4241 4.31039 8.8637 4.91344 7.4078C5.5165 5.95189 6.40041 4.62902 7.51471 3.51472C8.62902 2.40042 9.95189 1.5165 11.4078 0.913445C12.8637 0.310389 14.4241 0 16 0ZM16 21.8082V2.19178C13.3987 2.19178 10.9039 3.22514 9.06454 5.06454C7.22514 6.90394 6.19178 9.3987 6.19178 12C6.19178 14.6013 7.22514 17.0961 9.06454 18.9355C10.9039 20.7749 13.3987 21.8082 16 21.8082Z" fill="black"/>
</g>
<g filter="url(#filter1_d_928_3068)">
<path d="M15.1523 32.0657V25.3877H16.7203V32.0657H15.1523ZM12.7723 29.4897V27.9777H19.0863V29.4897H12.7723Z" fill="black"/>
</g>
<defs>
<filter id="filter0_d_928_3068" x="0" y="0" width="32" height="32" filterUnits="userSpaceOnUse" color-interpolation-filters="sRGB">
<feFlood flood-opacity="0" result="BackgroundImageFix"/>
<feColorMatrix in="SourceAlpha" type="matrix" values="0 0 0 0 0 0 0 0 0 0 0 0 0 0 0 0 0 0 127 0" result="hardAlpha"/>
<feOffset dy="4"/>
<feGaussianBlur stdDeviation="2"/>
<feComposite in2="hardAlpha" operator="out"/>
<feColorMatrix type="matrix" values="0 0 0 0 0 0 0 0 0 0 0 0 0 0 0 0 0 0 0.25 0"/>
<feBlend mode="normal" in2="BackgroundImageFix" result="effect1_dropShadow_928_3068"/>
<feBlend mode="normal" in="SourceGraphic" in2="effect1_dropShadow_928_3068" result="shape"/>
</filter>
<filter id="filter1_d_928_3068" x="8.77228" y="25.3877" width="14.314" height="14.678" filterUnits="userSpaceOnUse" color-interpolation-filters="sRGB">
<feFlood flood-opacity="0" result="BackgroundImageFix"/>
<feColorMatrix in="SourceAlpha" type="matrix" values="0 0 0 0 0 0 0 0 0 0 0 0 0 0 0 0 0 0 127 0" result="hardAlpha"/>
<feOffset dy="4"/>
<feGaussianBlur stdDeviation="2"/>
<feComposite in2="hardAlpha" operator="out"/>
<feColorMatrix type="matrix" values="0 0 0 0 0 0 0 0 0 0 0 0 0 0 0 0 0 0 0.25 0"/>
<feBlend mode="normal" in2="BackgroundImageFix" result="effect1_dropShadow_928_3068"/>
<feBlend mode="normal" in="SourceGraphic" in2="effect1_dropShadow_928_3068" result="shape"/>
</filter>
</defs>
</svg>
