<svg width="34" height="24" viewBox="0 0 34 24" fill="none" xmlns="http://www.w3.org/2000/svg">
<g filter="url(#filter0_d_928_2987)">
<path d="M18.1232 15.4788C18.1392 15.4596 18.1456 15.434 18.1616 15.4148L29.332 3.07209C29.9559 2.37767 29.9559 1.25124 29.332 0.556815C29.3256 0.550415 29.3192 0.547216 29.3128 0.544016C29.174 0.375868 29.0001 0.240066 28.8033 0.146101C28.6066 0.0521359 28.3917 0.00227428 28.1737 0L5.8296 0C5.60757 0.00358799 5.38904 0.0558887 5.18945 0.153209C4.98985 0.250529 4.81405 0.390494 4.67448 0.563217L4.66808 0.556815C4.36612 0.90622 4.19995 1.35263 4.19995 1.81445C4.19995 2.27628 4.36612 2.72268 4.66808 3.07209L15.8641 15.4788C16.0035 15.6422 16.1767 15.7735 16.3717 15.8634C16.5667 15.9534 16.7789 16 16.9936 16C17.2084 16 17.4206 15.9534 17.6156 15.8634C17.8106 15.7735 17.9838 15.6422 18.1232 15.4788Z" fill="black"/>
</g>
<defs>
<filter id="filter0_d_928_2987" x="0.199951" y="0" width="33.6" height="24" filterUnits="userSpaceOnUse" color-interpolation-filters="sRGB">
<feFlood flood-opacity="0" result="BackgroundImageFix"/>
<feColorMatrix in="SourceAlpha" type="matrix" values="0 0 0 0 0 0 0 0 0 0 0 0 0 0 0 0 0 0 127 0" result="hardAlpha"/>
<feOffset dy="4"/>
<feGaussianBlur stdDeviation="2"/>
<feComposite in2="hardAlpha" operator="out"/>
<feColorMatrix type="matrix" values="0 0 0 0 0 0 0 0 0 0 0 0 0 0 0 0 0 0 0.25 0"/>
<feBlend mode="normal" in2="BackgroundImageFix" result="effect1_dropShadow_928_2987"/>
<feBlend mode="normal" in="SourceGraphic" in2="effect1_dropShadow_928_2987" result="shape"/>
</filter>
</defs>
</svg>
