<svg width="206" height="188" viewBox="0 0 206 188" fill="none" xmlns="http://www.w3.org/2000/svg">
<path d="M45.2974 181C21.4545 163.325 6 134.974 6 103.012C6 49.4338 49.4284 6 103 6C156.572 6 200 49.4338 200 103.012C200 134.974 184.546 163.325 160.703 181" stroke="#28A745" stroke-width="12"/>
<line x1="45.8821" y1="174" x2="62.8821" y2="155" stroke="#FEFEFE" stroke-width="3"/>
<path d="M69.546 154.1C68.966 154.1 68.456 153.943 68.016 153.63C67.576 153.31 67.2327 152.87 66.986 152.31C66.7394 151.743 66.616 151.097 66.616 150.37C66.616 149.643 66.7394 149.007 66.986 148.46C67.2327 147.907 67.576 147.477 68.016 147.17C68.456 146.857 68.966 146.7 69.546 146.7C70.126 146.7 70.6327 146.857 71.066 147.17C71.506 147.477 71.8494 147.907 72.096 148.46C72.3427 149.007 72.466 149.643 72.466 150.37C72.466 151.103 72.3427 151.75 72.096 152.31C71.8494 152.87 71.506 153.31 71.066 153.63C70.626 153.943 70.1194 154.1 69.546 154.1ZM69.546 153.19C69.926 153.19 70.2494 153.073 70.516 152.84C70.7827 152.6 70.9827 152.27 71.116 151.85C71.256 151.423 71.326 150.927 71.326 150.36C71.326 149.8 71.256 149.313 71.116 148.9C70.9827 148.487 70.7827 148.17 70.516 147.95C70.256 147.723 69.9327 147.61 69.546 147.61C69.1527 147.61 68.8227 147.723 68.556 147.95C68.296 148.177 68.096 148.497 67.956 148.91C67.8227 149.317 67.756 149.8 67.756 150.36C67.756 150.927 67.826 151.423 67.966 151.85C68.106 152.277 68.306 152.607 68.566 152.84C68.8327 153.073 69.1594 153.19 69.546 153.19Z" fill="#FEFEFE"/>
<path d="M48.6977 134V133.13C49.3977 132.557 49.981 132.057 50.4477 131.63C50.921 131.203 51.2977 130.823 51.5777 130.49C51.8577 130.157 52.0577 129.853 52.1777 129.58C52.2977 129.307 52.3577 129.033 52.3577 128.76C52.3577 128.387 52.2477 128.097 52.0277 127.89C51.8143 127.677 51.5177 127.57 51.1377 127.57C50.7443 127.57 50.4243 127.687 50.1777 127.92C49.931 128.147 49.7777 128.47 49.7177 128.89H48.6377C48.7043 128.23 48.961 127.7 49.4077 127.3C49.861 126.9 50.4577 126.7 51.1977 126.7C51.9043 126.7 52.461 126.887 52.8677 127.26C53.281 127.633 53.4877 128.147 53.4877 128.8C53.4877 129.133 53.4243 129.467 53.2977 129.8C53.1777 130.127 52.9777 130.47 52.6977 130.83C52.4177 131.183 52.041 131.577 51.5677 132.01C51.101 132.437 50.521 132.923 49.8277 133.47L49.5777 133.13H53.6177V134H48.6977ZM57.3034 134.1C56.7234 134.1 56.2134 133.943 55.7734 133.63C55.3334 133.31 54.99 132.87 54.7434 132.31C54.4967 131.743 54.3734 131.097 54.3734 130.37C54.3734 129.643 54.4967 129.007 54.7434 128.46C54.99 127.907 55.3334 127.477 55.7734 127.17C56.2134 126.857 56.7234 126.7 57.3034 126.7C57.8834 126.7 58.39 126.857 58.8234 127.17C59.2634 127.477 59.6067 127.907 59.8534 128.46C60.1 129.007 60.2234 129.643 60.2234 130.37C60.2234 131.103 60.1 131.75 59.8534 132.31C59.6067 132.87 59.2634 133.31 58.8234 133.63C58.3834 133.943 57.8767 134.1 57.3034 134.1ZM57.3034 133.19C57.6834 133.19 58.0067 133.073 58.2734 132.84C58.54 132.6 58.74 132.27 58.8734 131.85C59.0134 131.423 59.0834 130.927 59.0834 130.36C59.0834 129.8 59.0134 129.313 58.8734 128.9C58.74 128.487 58.54 128.17 58.2734 127.95C58.0134 127.723 57.69 127.61 57.3034 127.61C56.91 127.61 56.58 127.723 56.3134 127.95C56.0534 128.177 55.8534 128.497 55.7134 128.91C55.58 129.317 55.5134 129.8 55.5134 130.36C55.5134 130.927 55.5834 131.423 55.7234 131.85C55.8634 132.277 56.0634 132.607 56.3234 132.84C56.59 133.073 56.9167 133.19 57.3034 133.19Z" fill="#FEFEFE"/>
<path d="M47.9684 102V100.1L48.0084 99.9V95.79L48.3884 95.9L45.3884 99.96L44.9784 99.57H49.9184V100.44H44.4184V99.63L48.0084 94.8H49.0584V102H47.9684ZM53.5426 102.1C52.9626 102.1 52.4526 101.943 52.0126 101.63C51.5726 101.31 51.2293 100.87 50.9826 100.31C50.736 99.7433 50.6126 99.0967 50.6126 98.37C50.6126 97.6433 50.736 97.0067 50.9826 96.46C51.2293 95.9067 51.5726 95.4767 52.0126 95.17C52.4526 94.8567 52.9626 94.7 53.5426 94.7C54.1226 94.7 54.6293 94.8567 55.0626 95.17C55.5026 95.4767 55.846 95.9067 56.0926 96.46C56.3393 97.0067 56.4626 97.6433 56.4626 98.37C56.4626 99.1033 56.3393 99.75 56.0926 100.31C55.846 100.87 55.5026 101.31 55.0626 101.63C54.6226 101.943 54.116 102.1 53.5426 102.1ZM53.5426 101.19C53.9226 101.19 54.246 101.073 54.5126 100.84C54.7793 100.6 54.9793 100.27 55.1126 99.85C55.2526 99.4233 55.3226 98.9267 55.3226 98.36C55.3226 97.8 55.2526 97.3133 55.1126 96.9C54.9793 96.4867 54.7793 96.17 54.5126 95.95C54.2526 95.7233 53.9293 95.61 53.5426 95.61C53.1493 95.61 52.8193 95.7233 52.5526 95.95C52.2926 96.1767 52.0926 96.4967 51.9526 96.91C51.8193 97.3167 51.7526 97.8 51.7526 98.36C51.7526 98.9267 51.8226 99.4233 51.9626 99.85C52.1026 100.277 52.3026 100.607 52.5626 100.84C52.8293 101.073 53.156 101.19 53.5426 101.19Z" fill="#FEFEFE"/>
<path d="M55.2347 73.1C54.3547 73.1 53.6747 72.7933 53.1947 72.18C52.7214 71.56 52.4847 70.6733 52.4847 69.52C52.4847 68.72 52.598 68.0367 52.8247 67.47C53.058 66.8967 53.3847 66.46 53.8047 66.16C54.2314 65.8533 54.7347 65.7 55.3147 65.7C55.9547 65.7 56.4814 65.88 56.8947 66.24C57.3147 66.6 57.568 67.0933 57.6547 67.72H56.5647C56.5114 67.3467 56.3714 67.0633 56.1447 66.87C55.9247 66.67 55.6447 66.57 55.3047 66.57C54.7447 66.57 54.3247 66.81 54.0447 67.29C53.7647 67.77 53.6247 68.4933 53.6247 69.46V70.11L53.3647 70.02C53.4314 69.7067 53.5647 69.4333 53.7647 69.2C53.9647 68.9667 54.2114 68.7867 54.5047 68.66C54.8047 68.5267 55.1314 68.46 55.4847 68.46C55.9447 68.46 56.3447 68.5567 56.6847 68.75C57.0314 68.9433 57.298 69.2167 57.4847 69.57C57.678 69.9167 57.7747 70.32 57.7747 70.78C57.7747 71.2467 57.668 71.6567 57.4547 72.01C57.248 72.3567 56.9547 72.6267 56.5747 72.82C56.1947 73.0067 55.748 73.1 55.2347 73.1ZM55.2247 72.23C55.638 72.23 55.9747 72.1033 56.2347 71.85C56.5014 71.59 56.6347 71.2333 56.6347 70.78C56.6347 70.3133 56.5047 69.9533 56.2447 69.7C55.9847 69.44 55.638 69.31 55.2047 69.31C54.778 69.31 54.4214 69.4333 54.1347 69.68C53.848 69.9267 53.7047 70.27 53.7047 70.71C53.7047 71.0167 53.7714 71.2833 53.9047 71.51C54.038 71.7367 54.218 71.9133 54.4447 72.04C54.678 72.1667 54.938 72.23 55.2247 72.23ZM61.5963 73.1C61.0163 73.1 60.5063 72.9433 60.0663 72.63C59.6263 72.31 59.283 71.87 59.0363 71.31C58.7897 70.7433 58.6663 70.0967 58.6663 69.37C58.6663 68.6433 58.7897 68.0067 59.0363 67.46C59.283 66.9067 59.6263 66.4767 60.0663 66.17C60.5063 65.8567 61.0163 65.7 61.5963 65.7C62.1763 65.7 62.683 65.8567 63.1163 66.17C63.5563 66.4767 63.8997 66.9067 64.1463 67.46C64.393 68.0067 64.5163 68.6433 64.5163 69.37C64.5163 70.1033 64.393 70.75 64.1463 71.31C63.8997 71.87 63.5563 72.31 63.1163 72.63C62.6763 72.9433 62.1697 73.1 61.5963 73.1ZM61.5963 72.19C61.9763 72.19 62.2997 72.0733 62.5663 71.84C62.833 71.6 63.033 71.27 63.1663 70.85C63.3063 70.4233 63.3763 69.9267 63.3763 69.36C63.3763 68.8 63.3063 68.3133 63.1663 67.9C63.033 67.4867 62.833 67.17 62.5663 66.95C62.3063 66.7233 61.983 66.61 61.5963 66.61C61.203 66.61 60.873 66.7233 60.6063 66.95C60.3463 67.1767 60.1463 67.4967 60.0063 67.91C59.873 68.3167 59.8063 68.8 59.8063 69.36C59.8063 69.9267 59.8763 70.4233 60.0163 70.85C60.1563 71.2767 60.3563 71.6067 60.6163 71.84C60.883 72.0733 61.2097 72.19 61.5963 72.19Z" fill="#FEFEFE"/>
<path d="M76.1023 55.1C75.5823 55.1 75.129 55.01 74.7423 54.83C74.3623 54.65 74.0657 54.4033 73.8523 54.09C73.6457 53.77 73.5423 53.41 73.5423 53.01C73.5423 52.65 73.619 52.3267 73.7723 52.04C73.9323 51.7533 74.149 51.5267 74.4223 51.36C74.7023 51.1867 75.0123 51.1 75.3523 51.1L75.4223 51.31C75.0823 51.31 74.7857 51.24 74.5323 51.1C74.279 50.9533 74.079 50.7533 73.9323 50.5C73.7923 50.24 73.7223 49.95 73.7223 49.63C73.7223 49.25 73.8223 48.9167 74.0223 48.63C74.2223 48.3367 74.499 48.11 74.8523 47.95C75.2123 47.7833 75.6323 47.7 76.1123 47.7C76.5857 47.7 76.999 47.7833 77.3523 47.95C77.7057 48.11 77.9823 48.3367 78.1823 48.63C78.3823 48.9167 78.4823 49.25 78.4823 49.63C78.4823 49.95 78.409 50.2367 78.2623 50.49C78.1223 50.7433 77.9257 50.9433 77.6723 51.09C77.419 51.2367 77.119 51.31 76.7723 51.31L76.8523 51.1C77.199 51.1 77.509 51.1867 77.7823 51.36C78.0557 51.5267 78.269 51.7533 78.4223 52.04C78.5823 52.3267 78.6623 52.6533 78.6623 53.02C78.6623 53.42 78.5557 53.7767 78.3423 54.09C78.1357 54.4033 77.839 54.65 77.4523 54.83C77.0723 55.01 76.6223 55.1 76.1023 55.1ZM76.1023 54.23C76.5423 54.23 76.889 54.1133 77.1423 53.88C77.4023 53.64 77.5323 53.32 77.5323 52.92C77.5323 52.5267 77.4023 52.2167 77.1423 51.99C76.889 51.7633 76.5423 51.65 76.1023 51.65C75.6623 51.65 75.3123 51.7633 75.0523 51.99C74.799 52.2167 74.6723 52.5267 74.6723 52.92C74.6723 53.32 74.799 53.64 75.0523 53.88C75.3123 54.1133 75.6623 54.23 76.1023 54.23ZM76.1023 50.82C76.489 50.82 76.7923 50.72 77.0123 50.52C77.239 50.32 77.3523 50.05 77.3523 49.71C77.3523 49.3633 77.2357 49.0867 77.0023 48.88C76.7757 48.6733 76.4757 48.57 76.1023 48.57C75.7223 48.57 75.419 48.6733 75.1923 48.88C74.9657 49.0867 74.8523 49.3633 74.8523 49.71C74.8523 50.05 74.9657 50.32 75.1923 50.52C75.419 50.72 75.7223 50.82 76.1023 50.82ZM82.4987 55.1C81.9187 55.1 81.4087 54.9433 80.9687 54.63C80.5287 54.31 80.1853 53.87 79.9387 53.31C79.692 52.7433 79.5687 52.0967 79.5687 51.37C79.5687 50.6433 79.692 50.0067 79.9387 49.46C80.1853 48.9067 80.5287 48.4767 80.9687 48.17C81.4087 47.8567 81.9187 47.7 82.4987 47.7C83.0787 47.7 83.5853 47.8567 84.0187 48.17C84.4587 48.4767 84.802 48.9067 85.0487 49.46C85.2953 50.0067 85.4187 50.6433 85.4187 51.37C85.4187 52.1033 85.2953 52.75 85.0487 53.31C84.802 53.87 84.4587 54.31 84.0187 54.63C83.5787 54.9433 83.072 55.1 82.4987 55.1ZM82.4987 54.19C82.8787 54.19 83.202 54.0733 83.4687 53.84C83.7353 53.6 83.9353 53.27 84.0687 52.85C84.2087 52.4233 84.2787 51.9267 84.2787 51.36C84.2787 50.8 84.2087 50.3133 84.0687 49.9C83.9353 49.4867 83.7353 49.17 83.4687 48.95C83.2087 48.7233 82.8853 48.61 82.4987 48.61C82.1053 48.61 81.7753 48.7233 81.5087 48.95C81.2487 49.1767 81.0487 49.4967 80.9087 49.91C80.7753 50.3167 80.7087 50.8 80.7087 51.36C80.7087 51.9267 80.7787 52.4233 80.9187 52.85C81.0587 53.2767 81.2587 53.6067 81.5187 53.84C81.7853 54.0733 82.112 54.19 82.4987 54.19Z" fill="#FEFEFE"/>
<path d="M113.399 55V48.79L113.589 48.87C113.503 49.0567 113.353 49.24 113.139 49.42C112.926 49.6 112.679 49.7567 112.399 49.89C112.119 50.0167 111.823 50.1067 111.509 50.16V49.14C111.803 49.0933 112.089 49.0067 112.369 48.88C112.649 48.7467 112.899 48.5867 113.119 48.4C113.339 48.2067 113.503 48.0067 113.609 47.8H114.429V55H113.399ZM118.526 55.1C117.946 55.1 117.436 54.9433 116.996 54.63C116.556 54.31 116.213 53.87 115.966 53.31C115.719 52.7433 115.596 52.0967 115.596 51.37C115.596 50.6433 115.719 50.0067 115.966 49.46C116.213 48.9067 116.556 48.4767 116.996 48.17C117.436 47.8567 117.946 47.7 118.526 47.7C119.106 47.7 119.613 47.8567 120.046 48.17C120.486 48.4767 120.829 48.9067 121.076 49.46C121.323 50.0067 121.446 50.6433 121.446 51.37C121.446 52.1033 121.323 52.75 121.076 53.31C120.829 53.87 120.486 54.31 120.046 54.63C119.606 54.9433 119.099 55.1 118.526 55.1ZM118.526 54.19C118.906 54.19 119.229 54.0733 119.496 53.84C119.763 53.6 119.963 53.27 120.096 52.85C120.236 52.4233 120.306 51.9267 120.306 51.36C120.306 50.8 120.236 50.3133 120.096 49.9C119.963 49.4867 119.763 49.17 119.496 48.95C119.236 48.7233 118.913 48.61 118.526 48.61C118.133 48.61 117.803 48.7233 117.536 48.95C117.276 49.1767 117.076 49.4967 116.936 49.91C116.803 50.3167 116.736 50.8 116.736 51.36C116.736 51.9267 116.806 52.4233 116.946 52.85C117.086 53.2767 117.286 53.6067 117.546 53.84C117.813 54.0733 118.139 54.19 118.526 54.19ZM125.372 55.1C124.792 55.1 124.282 54.9433 123.842 54.63C123.402 54.31 123.058 53.87 122.812 53.31C122.565 52.7433 122.442 52.0967 122.442 51.37C122.442 50.6433 122.565 50.0067 122.812 49.46C123.058 48.9067 123.402 48.4767 123.842 48.17C124.282 47.8567 124.792 47.7 125.372 47.7C125.952 47.7 126.458 47.8567 126.892 48.17C127.332 48.4767 127.675 48.9067 127.922 49.46C128.168 50.0067 128.292 50.6433 128.292 51.37C128.292 52.1033 128.168 52.75 127.922 53.31C127.675 53.87 127.332 54.31 126.892 54.63C126.452 54.9433 125.945 55.1 125.372 55.1ZM125.372 54.19C125.752 54.19 126.075 54.0733 126.342 53.84C126.608 53.6 126.808 53.27 126.942 52.85C127.082 52.4233 127.152 51.9267 127.152 51.36C127.152 50.8 127.082 50.3133 126.942 49.9C126.808 49.4867 126.608 49.17 126.342 48.95C126.082 48.7233 125.758 48.61 125.372 48.61C124.978 48.61 124.648 48.7233 124.382 48.95C124.122 49.1767 123.922 49.4967 123.782 49.91C123.648 50.3167 123.582 50.8 123.582 51.36C123.582 51.9267 123.652 52.4233 123.792 52.85C123.932 53.2767 124.132 53.6067 124.392 53.84C124.658 54.0733 124.985 54.19 125.372 54.19Z" fill="#FEFEFE"/>
<path d="M139.519 73V66.79L139.709 66.87C139.623 67.0567 139.473 67.24 139.259 67.42C139.046 67.6 138.799 67.7567 138.519 67.89C138.239 68.0167 137.943 68.1067 137.629 68.16V67.14C137.923 67.0933 138.209 67.0067 138.489 66.88C138.769 66.7467 139.019 66.5867 139.239 66.4C139.459 66.2067 139.623 66.0067 139.729 65.8H140.549V73H139.519ZM141.646 73V72.13C142.346 71.5567 142.929 71.0567 143.396 70.63C143.869 70.2033 144.246 69.8233 144.526 69.49C144.806 69.1567 145.006 68.8533 145.126 68.58C145.246 68.3067 145.306 68.0333 145.306 67.76C145.306 67.3867 145.196 67.0967 144.976 66.89C144.763 66.6767 144.466 66.57 144.086 66.57C143.693 66.57 143.373 66.6867 143.126 66.92C142.879 67.1467 142.726 67.47 142.666 67.89H141.586C141.653 67.23 141.909 66.7 142.356 66.3C142.809 65.9 143.406 65.7 144.146 65.7C144.853 65.7 145.409 65.8867 145.816 66.26C146.229 66.6333 146.436 67.1467 146.436 67.8C146.436 68.1333 146.373 68.4667 146.246 68.8C146.126 69.1267 145.926 69.47 145.646 69.83C145.366 70.1833 144.989 70.5767 144.516 71.01C144.049 71.4367 143.469 71.9233 142.776 72.47L142.526 72.13H146.566V73H141.646ZM150.252 73.1C149.672 73.1 149.162 72.9433 148.722 72.63C148.282 72.31 147.938 71.87 147.692 71.31C147.445 70.7433 147.322 70.0967 147.322 69.37C147.322 68.6433 147.445 68.0067 147.692 67.46C147.938 66.9067 148.282 66.4767 148.722 66.17C149.162 65.8567 149.672 65.7 150.252 65.7C150.832 65.7 151.338 65.8567 151.772 66.17C152.212 66.4767 152.555 66.9067 152.802 67.46C153.048 68.0067 153.172 68.6433 153.172 69.37C153.172 70.1033 153.048 70.75 152.802 71.31C152.555 71.87 152.212 72.31 151.772 72.63C151.332 72.9433 150.825 73.1 150.252 73.1ZM150.252 72.19C150.632 72.19 150.955 72.0733 151.222 71.84C151.488 71.6 151.688 71.27 151.822 70.85C151.962 70.4233 152.032 69.9267 152.032 69.36C152.032 68.8 151.962 68.3133 151.822 67.9C151.688 67.4867 151.488 67.17 151.222 66.95C150.962 66.7233 150.638 66.61 150.252 66.61C149.858 66.61 149.528 66.7233 149.262 66.95C149.002 67.1767 148.802 67.4967 148.662 67.91C148.528 68.3167 148.462 68.8 148.462 69.36C148.462 69.9267 148.532 70.4233 148.672 70.85C148.812 71.2767 149.012 71.6067 149.272 71.84C149.538 72.0733 149.865 72.19 150.252 72.19Z" fill="#E53935"/>
<path d="M46.7974 123.075L100.024 97.2009C99.1898 96.2397 98.6252 95.1036 98.3495 93.9002L46.2987 122.093L46.7974 123.075Z" fill="#E53935"/>
<path d="M111 93.9994C111 98.4178 107.418 102 103 102C98.5819 102 95 98.4178 95 93.9994C95 89.5822 98.5819 86 103 86C107.418 86 111 89.5822 111 93.9994Z" fill="#D6D6D6"/>
<path d="M147.349 102V95.79L147.539 95.87C147.452 96.0567 147.302 96.24 147.089 96.42C146.875 96.6 146.629 96.7567 146.349 96.89C146.069 97.0167 145.772 97.1067 145.459 97.16V96.14C145.752 96.0933 146.039 96.0067 146.319 95.88C146.599 95.7467 146.849 95.5867 147.069 95.4C147.289 95.2067 147.452 95.0067 147.559 94.8H148.379V102H147.349ZM152.848 102V100.1L152.888 99.9V95.79L153.268 95.9L150.268 99.96L149.858 99.57H154.798V100.44H149.298V99.63L152.888 94.8H153.938V102H152.848ZM158.423 102.1C157.843 102.1 157.333 101.943 156.893 101.63C156.453 101.31 156.109 100.87 155.863 100.31C155.616 99.7433 155.493 99.0967 155.493 98.37C155.493 97.6433 155.616 97.0067 155.863 96.46C156.109 95.9067 156.453 95.4767 156.893 95.17C157.333 94.8567 157.843 94.7 158.423 94.7C159.003 94.7 159.509 94.8567 159.943 95.17C160.383 95.4767 160.726 95.9067 160.973 96.46C161.219 97.0067 161.343 97.6433 161.343 98.37C161.343 99.1033 161.219 99.75 160.973 100.31C160.726 100.87 160.383 101.31 159.943 101.63C159.503 101.943 158.996 102.1 158.423 102.1ZM158.423 101.19C158.803 101.19 159.126 101.073 159.393 100.84C159.659 100.6 159.859 100.27 159.993 99.85C160.133 99.4233 160.202 98.9267 160.202 98.36C160.202 97.8 160.133 97.3133 159.993 96.9C159.859 96.4867 159.659 96.17 159.393 95.95C159.133 95.7233 158.809 95.61 158.423 95.61C158.029 95.61 157.699 95.7233 157.433 95.95C157.173 96.1767 156.973 96.4967 156.833 96.91C156.699 97.3167 156.633 97.8 156.633 98.36C156.633 98.9267 156.703 99.4233 156.843 99.85C156.983 100.277 157.183 100.607 157.443 100.84C157.709 101.073 158.036 101.19 158.423 101.19Z" fill="#E53935"/>
<path d="M145.231 134V127.79L145.421 127.87C145.335 128.057 145.185 128.24 144.971 128.42C144.758 128.6 144.511 128.757 144.231 128.89C143.951 129.017 143.655 129.107 143.341 129.16V128.14C143.635 128.093 143.921 128.007 144.201 127.88C144.481 127.747 144.731 127.587 144.951 127.4C145.171 127.207 145.335 127.007 145.441 126.8H146.261V134H145.231ZM150.178 134.1C149.298 134.1 148.618 133.793 148.138 133.18C147.665 132.56 147.428 131.673 147.428 130.52C147.428 129.72 147.541 129.037 147.768 128.47C148.001 127.897 148.328 127.46 148.748 127.16C149.175 126.853 149.678 126.7 150.258 126.7C150.898 126.7 151.425 126.88 151.838 127.24C152.258 127.6 152.511 128.093 152.598 128.72H151.508C151.455 128.347 151.315 128.063 151.088 127.87C150.868 127.67 150.588 127.57 150.248 127.57C149.688 127.57 149.268 127.81 148.988 128.29C148.708 128.77 148.568 129.493 148.568 130.46V131.11L148.308 131.02C148.375 130.707 148.508 130.433 148.708 130.2C148.908 129.967 149.155 129.787 149.448 129.66C149.748 129.527 150.075 129.46 150.428 129.46C150.888 129.46 151.288 129.557 151.628 129.75C151.975 129.943 152.241 130.217 152.428 130.57C152.621 130.917 152.718 131.32 152.718 131.78C152.718 132.247 152.611 132.657 152.398 133.01C152.191 133.357 151.898 133.627 151.518 133.82C151.138 134.007 150.691 134.1 150.178 134.1ZM150.168 133.23C150.581 133.23 150.918 133.103 151.178 132.85C151.445 132.59 151.578 132.233 151.578 131.78C151.578 131.313 151.448 130.953 151.188 130.7C150.928 130.44 150.581 130.31 150.148 130.31C149.721 130.31 149.365 130.433 149.078 130.68C148.791 130.927 148.648 131.27 148.648 131.71C148.648 132.017 148.715 132.283 148.848 132.51C148.981 132.737 149.161 132.913 149.388 133.04C149.621 133.167 149.881 133.23 150.168 133.23ZM156.54 134.1C155.96 134.1 155.45 133.943 155.01 133.63C154.57 133.31 154.226 132.87 153.98 132.31C153.733 131.743 153.61 131.097 153.61 130.37C153.61 129.643 153.733 129.007 153.98 128.46C154.226 127.907 154.57 127.477 155.01 127.17C155.45 126.857 155.96 126.7 156.54 126.7C157.12 126.7 157.626 126.857 158.06 127.17C158.5 127.477 158.843 127.907 159.09 128.46C159.336 129.007 159.46 129.643 159.46 130.37C159.46 131.103 159.336 131.75 159.09 132.31C158.843 132.87 158.5 133.31 158.06 133.63C157.62 133.943 157.113 134.1 156.54 134.1ZM156.54 133.19C156.92 133.19 157.243 133.073 157.51 132.84C157.776 132.6 157.976 132.27 158.11 131.85C158.25 131.423 158.32 130.927 158.32 130.36C158.32 129.8 158.25 129.313 158.11 128.9C157.976 128.487 157.776 128.17 157.51 127.95C157.25 127.723 156.926 127.61 156.54 127.61C156.146 127.61 155.816 127.723 155.55 127.95C155.29 128.177 155.09 128.497 154.95 128.91C154.816 129.317 154.75 129.8 154.75 130.36C154.75 130.927 154.82 131.423 154.96 131.85C155.1 132.277 155.3 132.607 155.56 132.84C155.826 133.073 156.153 133.19 156.54 133.19Z" fill="#E53935"/>
<path d="M125.334 154V147.79L125.524 147.87C125.437 148.057 125.287 148.24 125.074 148.42C124.861 148.6 124.614 148.757 124.334 148.89C124.054 149.017 123.757 149.107 123.444 149.16V148.14C123.737 148.093 124.024 148.007 124.304 147.88C124.584 147.747 124.834 147.587 125.054 147.4C125.274 147.207 125.437 147.007 125.544 146.8H126.364V154H125.334ZM130.041 154.1C129.521 154.1 129.067 154.01 128.681 153.83C128.301 153.65 128.004 153.403 127.791 153.09C127.584 152.77 127.481 152.41 127.481 152.01C127.481 151.65 127.557 151.327 127.711 151.04C127.871 150.753 128.087 150.527 128.361 150.36C128.641 150.187 128.951 150.1 129.291 150.1L129.361 150.31C129.021 150.31 128.724 150.24 128.471 150.1C128.217 149.953 128.017 149.753 127.871 149.5C127.731 149.24 127.661 148.95 127.661 148.63C127.661 148.25 127.761 147.917 127.961 147.63C128.161 147.337 128.437 147.11 128.791 146.95C129.151 146.783 129.571 146.7 130.051 146.7C130.524 146.7 130.937 146.783 131.291 146.95C131.644 147.11 131.921 147.337 132.121 147.63C132.321 147.917 132.421 148.25 132.421 148.63C132.421 148.95 132.347 149.237 132.201 149.49C132.061 149.743 131.864 149.943 131.611 150.09C131.357 150.237 131.057 150.31 130.711 150.31L130.791 150.1C131.137 150.1 131.447 150.187 131.721 150.36C131.994 150.527 132.207 150.753 132.361 151.04C132.521 151.327 132.601 151.653 132.601 152.02C132.601 152.42 132.494 152.777 132.281 153.09C132.074 153.403 131.777 153.65 131.391 153.83C131.011 154.01 130.561 154.1 130.041 154.1ZM130.041 153.23C130.481 153.23 130.827 153.113 131.081 152.88C131.341 152.64 131.471 152.32 131.471 151.92C131.471 151.527 131.341 151.217 131.081 150.99C130.827 150.763 130.481 150.65 130.041 150.65C129.601 150.65 129.251 150.763 128.991 150.99C128.737 151.217 128.611 151.527 128.611 151.92C128.611 152.32 128.737 152.64 128.991 152.88C129.251 153.113 129.601 153.23 130.041 153.23ZM130.041 149.82C130.427 149.82 130.731 149.72 130.951 149.52C131.177 149.32 131.291 149.05 131.291 148.71C131.291 148.363 131.174 148.087 130.941 147.88C130.714 147.673 130.414 147.57 130.041 147.57C129.661 147.57 129.357 147.673 129.131 147.88C128.904 148.087 128.791 148.363 128.791 148.71C128.791 149.05 128.904 149.32 129.131 149.52C129.357 149.72 129.661 149.82 130.041 149.82ZM136.437 154.1C135.857 154.1 135.347 153.943 134.907 153.63C134.467 153.31 134.124 152.87 133.877 152.31C133.63 151.743 133.507 151.097 133.507 150.37C133.507 149.643 133.63 149.007 133.877 148.46C134.124 147.907 134.467 147.477 134.907 147.17C135.347 146.857 135.857 146.7 136.437 146.7C137.017 146.7 137.524 146.857 137.957 147.17C138.397 147.477 138.74 147.907 138.987 148.46C139.234 149.007 139.357 149.643 139.357 150.37C139.357 151.103 139.234 151.75 138.987 152.31C138.74 152.87 138.397 153.31 137.957 153.63C137.517 153.943 137.01 154.1 136.437 154.1ZM136.437 153.19C136.817 153.19 137.14 153.073 137.407 152.84C137.674 152.6 137.874 152.27 138.007 151.85C138.147 151.423 138.217 150.927 138.217 150.36C138.217 149.8 138.147 149.313 138.007 148.9C137.874 148.487 137.674 148.17 137.407 147.95C137.147 147.723 136.824 147.61 136.437 147.61C136.044 147.61 135.714 147.723 135.447 147.95C135.187 148.177 134.987 148.497 134.847 148.91C134.714 149.317 134.647 149.8 134.647 150.36C134.647 150.927 134.717 151.423 134.857 151.85C134.997 152.277 135.197 152.607 135.457 152.84C135.724 153.073 136.05 153.19 136.437 153.19Z" fill="#E53935"/>
<line x1="20.4308" y1="142.287" x2="44.0188" y2="132.612" stroke="#FEFEFE" stroke-width="3"/>
<line x1="12.1709" y1="95.5098" x2="37.5" y2="98.4143" stroke="#FEFEFE" stroke-width="3"/>
<line x1="27.8733" y1="51.7804" x2="48.6019" y2="66.6238" stroke="#FEFEFE" stroke-width="3"/>
<line x1="69.4085" y1="18.4841" x2="78.1769" y2="42.4239" stroke="#FEFEFE" stroke-width="3"/>
<line x1="124.685" y1="14.2475" x2="120.479" y2="39.3932" stroke="#FEFEFE" stroke-width="3"/>
<circle cx="126" cy="9" r="6" fill="#E53935"/>
<line x1="173.865" y1="46.1093" x2="155.01" y2="63.27" stroke="#FEFEFE" stroke-width="3"/>
<line x1="193.333" y1="90.4741" x2="168.278" y2="95.1906" stroke="#FEFEFE" stroke-width="3"/>
<line x1="186.709" y1="138.685" x2="163.393" y2="128.372" stroke="#FEFEFE" stroke-width="3"/>
<line x1="160.853" y1="173.262" x2="141.991" y2="156.11" stroke="#FEFEFE" stroke-width="3"/>
<path d="M91.9588 168V166.782C92.9388 165.979 93.7554 165.279 94.4088 164.682C95.0714 164.085 95.5988 163.553 95.9908 163.086C96.3828 162.619 96.6628 162.195 96.8308 161.812C96.9988 161.429 97.0828 161.047 97.0828 160.664C97.0828 160.141 96.9288 159.735 96.6208 159.446C96.3221 159.147 95.9068 158.998 95.3748 158.998C94.8241 158.998 94.3761 159.161 94.0308 159.488C93.6854 159.805 93.4708 160.258 93.3868 160.846H91.8748C91.9681 159.922 92.3274 159.18 92.9528 158.62C93.5874 158.06 94.4228 157.78 95.4588 157.78C96.4481 157.78 97.2274 158.041 97.7968 158.564C98.3754 159.087 98.6647 159.805 98.6647 160.72C98.6647 161.187 98.5761 161.653 98.3988 162.12C98.2308 162.577 97.9508 163.058 97.5588 163.562C97.1668 164.057 96.6394 164.607 95.9768 165.214C95.3234 165.811 94.5114 166.493 93.5408 167.258L93.1908 166.782H98.8468V168H91.9588ZM102.216 168V159.306L102.482 159.418C102.361 159.679 102.151 159.936 101.852 160.188C101.553 160.44 101.208 160.659 100.816 160.846C100.424 161.023 100.009 161.149 99.57 161.224V159.796C99.9807 159.731 100.382 159.609 100.774 159.432C101.166 159.245 101.516 159.021 101.824 158.76C102.132 158.489 102.361 158.209 102.51 157.92H103.658V168H102.216ZM105.109 168V166.264H106.831V168H105.109ZM112.431 168V165.34L112.487 165.06V159.306L113.019 159.46L108.819 165.144L108.245 164.598H115.161V165.816H107.461V164.682L112.487 157.92H113.957V168H112.431ZM87.0904 185V174.738H88.5464V185H87.0904ZM91.7244 185L88.2104 181.29L91.6124 177.86H93.4464L89.5824 181.612L89.6524 180.954L93.5864 185H91.7244ZM94.7329 185V177.86H96.1189V179.54H96.1889V185H94.7329ZM99.5489 185V180.338C99.5489 179.853 99.4369 179.498 99.2129 179.274C98.9889 179.05 98.6669 178.938 98.2469 178.938C97.8549 178.938 97.5003 179.031 97.1829 179.218C96.8749 179.395 96.6323 179.647 96.4549 179.974C96.2776 180.291 96.1889 180.669 96.1889 181.108L96.0069 179.442C96.2403 178.91 96.5903 178.49 97.0569 178.182C97.5329 177.874 98.0649 177.72 98.6529 177.72C99.3623 177.72 99.9269 177.925 100.347 178.336C100.776 178.747 100.991 179.288 100.991 179.96V185H99.5489ZM104.365 185V180.338C104.365 179.853 104.248 179.498 104.015 179.274C103.791 179.05 103.469 178.938 103.049 178.938C102.666 178.938 102.316 179.031 101.999 179.218C101.691 179.395 101.444 179.647 101.257 179.974C101.08 180.291 100.991 180.669 100.991 181.108L100.697 179.442C100.94 178.91 101.304 178.49 101.789 178.182C102.284 177.874 102.834 177.72 103.441 177.72C104.16 177.72 104.734 177.93 105.163 178.35C105.592 178.761 105.807 179.311 105.807 180.002V185H104.365ZM106.893 185.938L110.491 174.402H111.751L108.153 185.938H106.893ZM113.463 185V174.92H114.919V185H113.463ZM118.531 185V180.408C118.531 179.913 118.405 179.545 118.153 179.302C117.911 179.059 117.547 178.938 117.061 178.938C116.641 178.938 116.268 179.031 115.941 179.218C115.624 179.405 115.372 179.661 115.185 179.988C115.008 180.315 114.919 180.702 114.919 181.15L114.737 179.442C114.971 178.91 115.33 178.49 115.815 178.182C116.301 177.874 116.865 177.72 117.509 177.72C118.275 177.72 118.877 177.935 119.315 178.364C119.754 178.793 119.973 179.363 119.973 180.072V185H118.531Z" fill="#28A745"/>
<line x1="31.682" y1="159.408" x2="44.7779" y2="148.614" stroke="#FEFEFE"/>
<line x1="13.9089" y1="121.6" x2="30.5955" y2="118.508" stroke="#FEFEFE"/>
<line x1="17.1844" y1="73.5352" x2="32.9593" y2="79.7923" stroke="#FEFEFE"/>
<line x1="45.3902" y1="32.6873" x2="56.002" y2="45.9308" stroke="#FEFEFE"/>
<line x1="98.3071" y1="11.9908" x2="98.6926" y2="28.957" stroke="#FEFEFE"/>
<line x1="148.865" y1="24.1886" x2="142.463" y2="39.9054" stroke="#FEFEFE"/>
<line x1="185.692" y1="65.4563" x2="170.204" y2="72.3954" stroke="#FEFEFE"/>
<line x1="193.976" y1="111.5" x2="177.007" y2="111.732" stroke="#FEFEFE"/>
<line x1="177.359" y1="156.071" x2="162.609" y2="147.677" stroke="#FEFEFE"/>
</svg>
