<svg width="66" height="66" viewBox="0 0 66 66" fill="none" xmlns="http://www.w3.org/2000/svg">
<g filter="url(#filter0_i_906_2253)">
<rect x="1" y="1" width="64" height="64" rx="3.05673" fill="url(#paint0_linear_906_2253)"/>
</g>
<rect x="1.47761" y="1.47761" width="63.0448" height="63.0448" rx="2.57911" stroke="url(#paint1_linear_906_2253)" stroke-width="0.955227"/>
<g filter="url(#filter1_f_906_2253)">
<rect x="1.19105" y="1.19105" width="63.6179" height="63.6179" rx="2.86568" stroke="#3B3C42" stroke-width="0.382091"/>
</g>
<rect x="3.67469" y="3.67469" width="58.6507" height="58.6507" rx="2.86568" fill="url(#paint2_linear_906_2253)" stroke="url(#paint3_linear_906_2253)" stroke-width="0.382091"/>
<g filter="url(#filter2_f_906_2253)">
<rect x="3.57917" y="3.57917" width="58.8418" height="58.8418" rx="2.96121" stroke="black" stroke-width="0.191045"/>
</g>
<rect x="5.58509" y="5.58509" width="54.8298" height="54.8298" rx="2.86568" fill="url(#paint4_linear_906_2253)" stroke="url(#paint5_linear_906_2253)" stroke-width="0.382091"/>
<rect x="9.21484" y="9.21484" width="47.5702" height="47.5702" rx="3.05673" fill="url(#paint6_radial_906_2253)"/>
<path d="M34.1232 40.4788C34.1392 40.4596 34.1456 40.434 34.1616 40.4148L45.332 28.0721C45.9559 27.3777 45.9559 26.2512 45.332 25.5568C45.3256 25.5504 45.3192 25.5472 45.3128 25.544C45.174 25.3759 45.0001 25.2401 44.8033 25.1461C44.6066 25.0521 44.3917 25.0023 44.1737 25H21.8296C21.6076 25.0036 21.389 25.0559 21.1894 25.1532C20.9898 25.2505 20.8141 25.3905 20.6745 25.5632L20.6681 25.5568C20.3661 25.9062 20.2 26.3526 20.2 26.8145C20.2 27.2763 20.3661 27.7227 20.6681 28.0721L31.8641 40.4788C32.0035 40.6422 32.1767 40.7735 32.3717 40.8634C32.5667 40.9534 32.7789 41 32.9936 41C33.2084 41 33.4206 40.9534 33.6156 40.8634C33.8106 40.7735 33.9838 40.6422 34.1232 40.4788Z" fill="black"/>
<g filter="url(#filter3_f_906_2253)">
<rect x="9.57968" y="9.57968" width="46.8405" height="46.8405" rx="2.69189" stroke="#2D2D2D" stroke-width="0.729676"/>
</g>
<defs>
<filter id="filter0_i_906_2253" x="1" y="1" width="64.7642" height="65.1463" filterUnits="userSpaceOnUse" color-interpolation-filters="sRGB">
<feFlood flood-opacity="0" result="BackgroundImageFix"/>
<feBlend mode="normal" in="SourceGraphic" in2="BackgroundImageFix" result="shape"/>
<feColorMatrix in="SourceAlpha" type="matrix" values="0 0 0 0 0 0 0 0 0 0 0 0 0 0 0 0 0 0 127 0" result="hardAlpha"/>
<feOffset dx="0.764182" dy="2.67464"/>
<feGaussianBlur stdDeviation="0.573136"/>
<feComposite in2="hardAlpha" operator="arithmetic" k2="-1" k3="1"/>
<feColorMatrix type="matrix" values="0 0 0 0 0 0 0 0 0 0 0 0 0 0 0 0 0 0 0.6 0"/>
<feBlend mode="normal" in2="shape" result="effect1_innerShadow_906_2253"/>
</filter>
<filter id="filter1_f_906_2253" x="0.617909" y="0.617909" width="64.7642" height="64.7642" filterUnits="userSpaceOnUse" color-interpolation-filters="sRGB">
<feFlood flood-opacity="0" result="BackgroundImageFix"/>
<feBlend mode="normal" in="SourceGraphic" in2="BackgroundImageFix" result="shape"/>
<feGaussianBlur stdDeviation="0.191045" result="effect1_foregroundBlur_906_2253"/>
</filter>
<filter id="filter2_f_906_2253" x="3.10155" y="3.10155" width="59.7969" height="59.7969" filterUnits="userSpaceOnUse" color-interpolation-filters="sRGB">
<feFlood flood-opacity="0" result="BackgroundImageFix"/>
<feBlend mode="normal" in="SourceGraphic" in2="BackgroundImageFix" result="shape"/>
<feGaussianBlur stdDeviation="0.191045" result="effect1_foregroundBlur_906_2253"/>
</filter>
<filter id="filter3_f_906_2253" x="8.48517" y="8.48517" width="49.0294" height="49.0294" filterUnits="userSpaceOnUse" color-interpolation-filters="sRGB">
<feFlood flood-opacity="0" result="BackgroundImageFix"/>
<feBlend mode="normal" in="SourceGraphic" in2="BackgroundImageFix" result="shape"/>
<feGaussianBlur stdDeviation="0.364838" result="effect1_foregroundBlur_906_2253"/>
</filter>
<linearGradient id="paint0_linear_906_2253" x1="29.3411" y1="-11.5944" x2="30.4044" y2="46.6246" gradientUnits="userSpaceOnUse">
<stop stop-color="#202325"/>
<stop offset="0.458333" stop-color="#202425"/>
<stop offset="1" stop-color="#0E1011"/>
</linearGradient>
<linearGradient id="paint1_linear_906_2253" x1="28.7015" y1="-4.44478" x2="53.9194" y2="63.3761" gradientUnits="userSpaceOnUse">
<stop stop-color="#FEFEFE"/>
<stop offset="0.994792" stop-color="#292C2F"/>
</linearGradient>
<linearGradient id="paint2_linear_906_2253" x1="30.421" y1="3.48364" x2="34.8091" y2="62.4387" gradientUnits="userSpaceOnUse">
<stop stop-color="#969EA1"/>
<stop offset="0.22" stop-color="#1E1820"/>
<stop offset="0.458333" stop-color="#1B161D"/>
<stop offset="0.765" stop-color="#A0A39F"/>
<stop offset="1" stop-color="#FFFFFB"/>
</linearGradient>
<linearGradient id="paint3_linear_906_2253" x1="33.0001" y1="3.48364" x2="33.6687" y2="62.5165" gradientUnits="userSpaceOnUse">
<stop stop-color="#E6EBF1"/>
<stop offset="0.994792" stop-color="#868990"/>
</linearGradient>
<linearGradient id="paint4_linear_906_2253" x1="29.8435" y1="-5.47095" x2="48.4532" y2="68.7777" gradientUnits="userSpaceOnUse">
<stop stop-color="#585659"/>
<stop offset="0.458333" stop-color="#262526"/>
<stop offset="0.774091" stop-color="#161616"/>
<stop offset="1" stop-color="#585659"/>
</linearGradient>
<linearGradient id="paint5_linear_906_2253" x1="33" y1="5.39404" x2="33" y2="27.8883" gradientUnits="userSpaceOnUse">
<stop/>
<stop offset="0.994792"/>
</linearGradient>
<radialGradient id="paint6_radial_906_2253" cx="0" cy="0" r="1" gradientUnits="userSpaceOnUse" gradientTransform="translate(32.9999 33.5863) rotate(69.1066) scale(22.3598 22.36)">
<stop stop-color="#D6D6D6"/>
<stop offset="1" stop-color="#FEFEFE"/>
</radialGradient>
</defs>
</svg>
