<svg width="66" height="66" viewBox="0 0 66 66" fill="none" xmlns="http://www.w3.org/2000/svg">
<g filter="url(#filter0_i_906_2363)">
<rect x="0.999878" y="1" width="64" height="64" rx="3.05672" fill="url(#paint0_linear_906_2363)"/>
</g>
<rect x="1.47749" y="1.47761" width="63.0448" height="63.0448" rx="2.57911" stroke="url(#paint1_linear_906_2363)" stroke-width="0.955226"/>
<g filter="url(#filter1_f_906_2363)">
<rect x="1.19092" y="1.19105" width="63.6179" height="63.6179" rx="2.86568" stroke="#3B3C42" stroke-width="0.38209"/>
</g>
<rect x="3.67469" y="3.67469" width="58.6507" height="58.6507" rx="2.86568" fill="url(#paint2_linear_906_2363)" stroke="url(#paint3_linear_906_2363)" stroke-width="0.38209"/>
<g filter="url(#filter2_f_906_2363)">
<rect x="3.57917" y="3.57917" width="58.8418" height="58.8418" rx="2.9612" stroke="black" stroke-width="0.191045"/>
</g>
<rect x="5.58497" y="5.58509" width="54.8298" height="54.8298" rx="2.86568" fill="url(#paint4_linear_906_2363)" stroke="url(#paint5_linear_906_2363)" stroke-width="0.38209"/>
<rect x="9.21484" y="9.21484" width="47.5702" height="47.5702" rx="3.05672" fill="url(#paint6_radial_906_2363)"/>
<g clip-path="url(#clip0_906_2363)">
<path d="M26.0067 23.4601L23.62 21.0667L21.7334 22.9534L24.1267 25.3467L26.0067 23.4601ZM22.3334 31.0001H18.3334V33.6667H22.3334V31.0001ZM34.3334 17.7334H31.6667V21.6667H34.3334V17.7334ZM44.2667 22.9534L42.38 21.0667L39.9867 23.4601L41.8734 25.3467L44.2667 22.9534ZM39.9934 41.2067L42.3867 43.6001L44.2734 41.7134L41.88 39.3201L39.9934 41.2067ZM43.6667 31.0001V33.6667H47.6667V31.0001H43.6667ZM33 24.3334C28.58 24.3334 25 27.9134 25 32.3334C25 36.7534 28.58 40.3334 33 40.3334C37.42 40.3334 41 36.7534 41 32.3334C41 27.9134 37.42 24.3334 33 24.3334ZM31.6667 46.9334H34.3334V43.0001H31.6667V46.9334ZM21.7334 41.7134L23.62 43.6001L26.0134 41.2067L24.1267 39.3201L21.7334 41.7134Z" fill="black"/>
</g>
<g filter="url(#filter3_f_906_2363)">
<rect x="9.57968" y="9.57968" width="46.8405" height="46.8405" rx="2.69188" stroke="#2D2D2D" stroke-width="0.729675"/>
</g>
<defs>
<filter id="filter0_i_906_2363" x="0.999878" y="1" width="64.7642" height="65.1463" filterUnits="userSpaceOnUse" color-interpolation-filters="sRGB">
<feFlood flood-opacity="0" result="BackgroundImageFix"/>
<feBlend mode="normal" in="SourceGraphic" in2="BackgroundImageFix" result="shape"/>
<feColorMatrix in="SourceAlpha" type="matrix" values="0 0 0 0 0 0 0 0 0 0 0 0 0 0 0 0 0 0 127 0" result="hardAlpha"/>
<feOffset dx="0.764181" dy="2.67463"/>
<feGaussianBlur stdDeviation="0.573135"/>
<feComposite in2="hardAlpha" operator="arithmetic" k2="-1" k3="1"/>
<feColorMatrix type="matrix" values="0 0 0 0 0 0 0 0 0 0 0 0 0 0 0 0 0 0 0.6 0"/>
<feBlend mode="normal" in2="shape" result="effect1_innerShadow_906_2363"/>
</filter>
<filter id="filter1_f_906_2363" x="0.617788" y="0.61791" width="64.7642" height="64.7642" filterUnits="userSpaceOnUse" color-interpolation-filters="sRGB">
<feFlood flood-opacity="0" result="BackgroundImageFix"/>
<feBlend mode="normal" in="SourceGraphic" in2="BackgroundImageFix" result="shape"/>
<feGaussianBlur stdDeviation="0.191045" result="effect1_foregroundBlur_906_2363"/>
</filter>
<filter id="filter2_f_906_2363" x="3.10155" y="3.10155" width="59.797" height="59.7969" filterUnits="userSpaceOnUse" color-interpolation-filters="sRGB">
<feFlood flood-opacity="0" result="BackgroundImageFix"/>
<feBlend mode="normal" in="SourceGraphic" in2="BackgroundImageFix" result="shape"/>
<feGaussianBlur stdDeviation="0.191045" result="effect1_foregroundBlur_906_2363"/>
</filter>
<filter id="filter3_f_906_2363" x="8.48517" y="8.48517" width="49.0295" height="49.0294" filterUnits="userSpaceOnUse" color-interpolation-filters="sRGB">
<feFlood flood-opacity="0" result="BackgroundImageFix"/>
<feBlend mode="normal" in="SourceGraphic" in2="BackgroundImageFix" result="shape"/>
<feGaussianBlur stdDeviation="0.364837" result="effect1_foregroundBlur_906_2363"/>
</filter>
<linearGradient id="paint0_linear_906_2363" x1="29.341" y1="-11.5944" x2="30.4043" y2="46.6246" gradientUnits="userSpaceOnUse">
<stop stop-color="#202325"/>
<stop offset="0.458333" stop-color="#202425"/>
<stop offset="1" stop-color="#0E1011"/>
</linearGradient>
<linearGradient id="paint1_linear_906_2363" x1="28.7014" y1="-4.44478" x2="53.9193" y2="63.3761" gradientUnits="userSpaceOnUse">
<stop stop-color="#FEFEFE"/>
<stop offset="0.994792" stop-color="#292C2F"/>
</linearGradient>
<linearGradient id="paint2_linear_906_2363" x1="30.421" y1="3.48364" x2="34.8091" y2="62.4387" gradientUnits="userSpaceOnUse">
<stop stop-color="#969EA1"/>
<stop offset="0.22" stop-color="#1E1820"/>
<stop offset="0.458333" stop-color="#1B161D"/>
<stop offset="0.765" stop-color="#A0A39F"/>
<stop offset="1" stop-color="#FFFFFB"/>
</linearGradient>
<linearGradient id="paint3_linear_906_2363" x1="33.0001" y1="3.48364" x2="33.6687" y2="62.5165" gradientUnits="userSpaceOnUse">
<stop stop-color="#E6EBF1"/>
<stop offset="0.994792" stop-color="#868990"/>
</linearGradient>
<linearGradient id="paint4_linear_906_2363" x1="29.8434" y1="-5.47095" x2="48.4531" y2="68.7777" gradientUnits="userSpaceOnUse">
<stop stop-color="#585659"/>
<stop offset="0.458333" stop-color="#262526"/>
<stop offset="0.774091" stop-color="#161616"/>
<stop offset="1" stop-color="#585659"/>
</linearGradient>
<linearGradient id="paint5_linear_906_2363" x1="32.9999" y1="5.39404" x2="32.9999" y2="27.8883" gradientUnits="userSpaceOnUse">
<stop/>
<stop offset="0.994792"/>
</linearGradient>
<radialGradient id="paint6_radial_906_2363" cx="0" cy="0" r="1" gradientUnits="userSpaceOnUse" gradientTransform="translate(32.9999 33.5863) rotate(69.1066) scale(22.3598 22.36)">
<stop stop-color="#D6D6D6"/>
<stop offset="1" stop-color="#FEFEFE"/>
</radialGradient>
<clipPath id="clip0_906_2363">
<rect width="32" height="32" fill="white" transform="translate(17 17)"/>
</clipPath>
</defs>
</svg>
