<svg width="20" height="19" viewBox="0 0 20 19" fill="none" xmlns="http://www.w3.org/2000/svg">
<path d="M5.62916 4.03751L4.13749 2.54168L2.95833 3.72084L4.45416 5.21668L5.62916 4.03751ZM3.33333 8.75001H0.833328V10.4167H3.33333V8.75001ZM10.8333 0.458344H9.16666V2.91668H10.8333V0.458344ZM17.0417 3.72084L15.8625 2.54168L14.3667 4.03751L15.5458 5.21668L17.0417 3.72084ZM14.3708 15.1292L15.8667 16.625L17.0458 15.4458L15.55 13.95L14.3708 15.1292ZM16.6667 8.75001V10.4167H19.1667V8.75001H16.6667ZM9.99999 4.58334C7.23749 4.58334 4.99999 6.82084 4.99999 9.58334C4.99999 12.3458 7.23749 14.5833 9.99999 14.5833C12.7625 14.5833 15 12.3458 15 9.58334C15 6.82084 12.7625 4.58334 9.99999 4.58334ZM9.16666 18.7083H10.8333V16.25H9.16666V18.7083ZM2.95833 15.4458L4.13749 16.625L5.63333 15.1292L4.45416 13.95L2.95833 15.4458Z" fill="black"/>
</svg>
