<svg width="46" height="46" viewBox="0 0 46 46" fill="none" xmlns="http://www.w3.org/2000/svg">
<rect x="0.40332" y="0.128174" width="45" height="45" fill="#FF1493"/>
<circle cx="23.4033" cy="23.1282" r="11" stroke="#1E1E1E" stroke-width="2"/>
<path d="M33.4033 14.1282L37.7633 11.1282C40.9288 11.8614 50.9738 27.2348 37.7633 35.1282L33.4033 32.1282C38.8115 25.3071 38.7912 21.365 33.4033 14.1282Z" fill="#1E1E1E"/>
<path d="M13.4033 14.1282L9.04335 11.1282C5.87788 11.8614 -4.16712 27.2348 9.04335 35.1282L13.4033 32.1282C7.66827 24.6025 8.05611 20.6947 13.4033 14.1282Z" fill="#1E1E1E"/>
<path d="M20.4886 28.1282V19.4882H21.7606V28.1282H20.4886ZM21.1126 28.1282V27.0842H26.4886V28.1282H21.1126ZM21.1126 24.1802V23.1362H26.0566V24.1802H21.1126ZM21.1126 20.5322V19.4882H26.3806V20.5322H21.1126Z" fill="#1E1E1E"/>
</svg>
