<svg width="45" height="45" viewBox="0 0 45 45" fill="none" xmlns="http://www.w3.org/2000/svg">
<rect width="45" height="45" fill="#1E90FF"/>
<circle cx="23" cy="23" r="11" stroke="#1E1E1E" stroke-width="2"/>
<path d="M33 14L37.36 11C40.5254 11.7333 50.5704 27.1066 37.36 35L33 32C38.4082 25.1789 38.3879 21.2369 33 14Z" fill="#1E1E1E"/>
<path d="M13 14L8.64003 11C5.47456 11.7333 -4.57044 27.1066 8.64003 35L13 32C7.26495 24.4743 7.65279 20.5665 13 14Z" fill="#1E1E1E"/>
<path d="M20.0853 28V19.36H21.3573V28H20.0853ZM20.7093 28V26.956H26.0853V28H20.7093ZM20.7093 24.052V23.008H25.6533V24.052H20.7093ZM20.7093 20.404V19.36H25.9773V20.404H20.7093Z" fill="#1E1E1E"/>
</svg>
