<svg width="70" height="30" viewBox="0 0 70 30" fill="none" xmlns="http://www.w3.org/2000/svg">
<rect width="70" height="30" fill="#000F26"/>
<circle cx="35" cy="15" r="12" fill="#000F26" stroke="#E53935" stroke-width="2"/>
<path d="M28 2C24.5522 2 21.2456 3.36964 18.8076 5.80761C16.3696 8.24558 15 11.5522 15 15C15 18.4478 16.3696 21.7544 18.8076 24.1924C21.2456 26.6304 24.5522 28 28 28C28 28 19.3076 23.5 18.8076 15C18.3076 6.5 28 2 28 2Z" fill="#E53935"/>
<path d="M42 2C45.4478 2 48.7544 3.36964 51.1924 5.80761C53.6304 8.24558 55 11.5522 55 15C55 18.4478 53.6304 21.7544 51.1924 24.1924C48.7544 26.6304 45.4478 28 42 28C42 28 50.6924 23.5 51.1924 15C51.6924 6.5 42 2 42 2Z" fill="#E53935"/>
<path d="M61.7241 19V16.5769H54V12.4231H61.7241V10L68 14.5L61.7241 19Z" fill="#E53935"/>
<path d="M8.27586 19V16.5769H16V12.4231H8.27586V10L2 14.5L8.27586 19Z" fill="#E53935"/>
</svg>
