<svg width="66" height="66" viewBox="0 0 66 66" fill="none" xmlns="http://www.w3.org/2000/svg">
<g filter="url(#filter0_i_906_2262)">
<rect x="1" y="1" width="64" height="64" rx="3.05672" fill="url(#paint0_linear_906_2262)"/>
</g>
<rect x="1.47761" y="1.47761" width="63.0448" height="63.0448" rx="2.57911" stroke="url(#paint1_linear_906_2262)" stroke-width="0.955226"/>
<g filter="url(#filter1_f_906_2262)">
<rect x="1.19105" y="1.19105" width="63.6179" height="63.6179" rx="2.86568" stroke="#3B3C42" stroke-width="0.38209"/>
</g>
<rect x="3.67469" y="3.67469" width="58.6507" height="58.6507" rx="2.86568" fill="url(#paint2_linear_906_2262)" stroke="url(#paint3_linear_906_2262)" stroke-width="0.38209"/>
<g filter="url(#filter2_f_906_2262)">
<rect x="3.57917" y="3.57917" width="58.8418" height="58.8418" rx="2.9612" stroke="black" stroke-width="0.191045"/>
</g>
<rect x="5.58509" y="5.58509" width="54.8298" height="54.8298" rx="2.86568" fill="url(#paint4_linear_906_2262)" stroke="url(#paint5_linear_906_2262)" stroke-width="0.38209"/>
<rect x="9.21484" y="9.21484" width="47.5702" height="47.5702" rx="3.05672" fill="url(#paint6_radial_906_2262)"/>
<path d="M14.5025 38V28.784H16.4737V38H14.5025ZM20.4673 38V28.784H22.4385V38H20.4673ZM15.4241 32.4448H21.3633V33.9552H15.4241V32.4448ZM28.1822 38.128C27.4996 38.128 26.8681 38.0128 26.2878 37.7824C25.7161 37.552 25.2169 37.2277 24.7902 36.8096C24.3721 36.3829 24.0436 35.8795 23.8046 35.2992C23.5742 34.7104 23.459 34.0619 23.459 33.3536C23.459 32.4149 23.6596 31.5957 24.0606 30.896C24.4617 30.1877 25.0164 29.6373 25.7246 29.2448C26.4414 28.8523 27.2564 28.656 28.1694 28.656C29.0996 28.656 29.9188 28.8523 30.627 29.2448C31.3353 29.6373 31.89 30.1877 32.291 30.896C32.7006 31.6043 32.9054 32.4277 32.9054 33.3664C32.9054 34.0661 32.786 34.7104 32.547 35.2992C32.3167 35.8795 31.9881 36.3829 31.5615 36.8096C31.1433 37.2277 30.6441 37.552 30.0638 37.7824C29.4921 38.0128 28.8649 38.128 28.1822 38.128ZM28.1694 36.5664C28.707 36.5664 29.1806 36.4299 29.5902 36.1568C29.9998 35.8837 30.3199 35.5083 30.5503 35.0304C30.7892 34.544 30.9087 33.9808 30.9087 33.3408C30.9087 32.7093 30.7935 32.1589 30.5631 31.6896C30.3326 31.2203 30.0126 30.8576 29.6031 30.6016C29.1934 30.3456 28.7156 30.2176 28.1694 30.2176C27.6318 30.2176 27.1582 30.3456 26.7486 30.6016C26.339 30.8576 26.019 31.2203 25.7886 31.6896C25.5668 32.1504 25.4558 32.7008 25.4558 33.3408C25.4558 33.9893 25.571 34.5568 25.8014 35.0432C26.0318 35.5211 26.3518 35.8965 26.7614 36.1696C27.171 36.4341 27.6404 36.5664 28.1694 36.5664ZM33.9275 38V28.784H36.9996L39.5596 37.6672H38.446L41.006 28.784H44.0908V38H42.1452V29.3344H42.478L39.982 38H37.9468L35.4764 29.4112H35.7964V38H33.9275ZM45.365 38V28.784H47.3363V38H45.365ZM46.2867 38V36.4896H52.2259V38H46.2867ZM46.2867 34.032V32.5472H51.7779V34.032H46.2867ZM46.2867 30.2944V28.784H52.0723V30.2944H46.2867Z" fill="#1E1E1E"/>
<g filter="url(#filter3_f_906_2262)">
<rect x="9.57968" y="9.57968" width="46.8405" height="46.8405" rx="2.69188" stroke="#2D2D2D" stroke-width="0.729675"/>
</g>
<defs>
<filter id="filter0_i_906_2262" x="1" y="1" width="64.7642" height="65.1463" filterUnits="userSpaceOnUse" color-interpolation-filters="sRGB">
<feFlood flood-opacity="0" result="BackgroundImageFix"/>
<feBlend mode="normal" in="SourceGraphic" in2="BackgroundImageFix" result="shape"/>
<feColorMatrix in="SourceAlpha" type="matrix" values="0 0 0 0 0 0 0 0 0 0 0 0 0 0 0 0 0 0 127 0" result="hardAlpha"/>
<feOffset dx="0.764181" dy="2.67463"/>
<feGaussianBlur stdDeviation="0.573135"/>
<feComposite in2="hardAlpha" operator="arithmetic" k2="-1" k3="1"/>
<feColorMatrix type="matrix" values="0 0 0 0 0 0 0 0 0 0 0 0 0 0 0 0 0 0 0.6 0"/>
<feBlend mode="normal" in2="shape" result="effect1_innerShadow_906_2262"/>
</filter>
<filter id="filter1_f_906_2262" x="0.61791" y="0.61791" width="64.7642" height="64.7642" filterUnits="userSpaceOnUse" color-interpolation-filters="sRGB">
<feFlood flood-opacity="0" result="BackgroundImageFix"/>
<feBlend mode="normal" in="SourceGraphic" in2="BackgroundImageFix" result="shape"/>
<feGaussianBlur stdDeviation="0.191045" result="effect1_foregroundBlur_906_2262"/>
</filter>
<filter id="filter2_f_906_2262" x="3.10155" y="3.10155" width="59.7969" height="59.7969" filterUnits="userSpaceOnUse" color-interpolation-filters="sRGB">
<feFlood flood-opacity="0" result="BackgroundImageFix"/>
<feBlend mode="normal" in="SourceGraphic" in2="BackgroundImageFix" result="shape"/>
<feGaussianBlur stdDeviation="0.191045" result="effect1_foregroundBlur_906_2262"/>
</filter>
<filter id="filter3_f_906_2262" x="8.48517" y="8.48517" width="49.0294" height="49.0294" filterUnits="userSpaceOnUse" color-interpolation-filters="sRGB">
<feFlood flood-opacity="0" result="BackgroundImageFix"/>
<feBlend mode="normal" in="SourceGraphic" in2="BackgroundImageFix" result="shape"/>
<feGaussianBlur stdDeviation="0.364837" result="effect1_foregroundBlur_906_2262"/>
</filter>
<linearGradient id="paint0_linear_906_2262" x1="29.3411" y1="-11.5944" x2="30.4044" y2="46.6246" gradientUnits="userSpaceOnUse">
<stop stop-color="#202325"/>
<stop offset="0.458333" stop-color="#202425"/>
<stop offset="1" stop-color="#0E1011"/>
</linearGradient>
<linearGradient id="paint1_linear_906_2262" x1="28.7015" y1="-4.44478" x2="53.9194" y2="63.3761" gradientUnits="userSpaceOnUse">
<stop stop-color="#FEFEFE"/>
<stop offset="0.994792" stop-color="#292C2F"/>
</linearGradient>
<linearGradient id="paint2_linear_906_2262" x1="30.421" y1="3.48364" x2="34.8091" y2="62.4387" gradientUnits="userSpaceOnUse">
<stop stop-color="#969EA1"/>
<stop offset="0.22" stop-color="#1E1820"/>
<stop offset="0.458333" stop-color="#1B161D"/>
<stop offset="0.765" stop-color="#A0A39F"/>
<stop offset="1" stop-color="#FFFFFB"/>
</linearGradient>
<linearGradient id="paint3_linear_906_2262" x1="33.0001" y1="3.48364" x2="33.6687" y2="62.5165" gradientUnits="userSpaceOnUse">
<stop stop-color="#E6EBF1"/>
<stop offset="0.994792" stop-color="#868990"/>
</linearGradient>
<linearGradient id="paint4_linear_906_2262" x1="29.8435" y1="-5.47095" x2="48.4532" y2="68.7777" gradientUnits="userSpaceOnUse">
<stop stop-color="#585659"/>
<stop offset="0.458333" stop-color="#262526"/>
<stop offset="0.774091" stop-color="#161616"/>
<stop offset="1" stop-color="#585659"/>
</linearGradient>
<linearGradient id="paint5_linear_906_2262" x1="33" y1="5.39404" x2="33" y2="27.8883" gradientUnits="userSpaceOnUse">
<stop/>
<stop offset="0.994792"/>
</linearGradient>
<radialGradient id="paint6_radial_906_2262" cx="0" cy="0" r="1" gradientUnits="userSpaceOnUse" gradientTransform="translate(32.9999 33.5863) rotate(69.1066) scale(22.3598 22.36)">
<stop stop-color="#D6D6D6"/>
<stop offset="1" stop-color="#FEFEFE"/>
</radialGradient>
</defs>
</svg>
