<svg width="40" height="38" viewBox="0 0 40 38" fill="none" xmlns="http://www.w3.org/2000/svg">
<rect x="1.1371" y="1.1371" width="37.7258" height="35.7258" fill="#000F26" stroke="#D6D6D6" stroke-width="2.27419"/>
<path d="M38.8629 18.9999C38.8629 21.2203 37.1029 23.5132 33.619 25.3185C30.1921 27.0943 25.3788 28.2264 20 28.2264C14.6212 28.2264 9.80793 27.0943 6.38102 25.3185C2.89713 23.5132 1.1371 21.2203 1.1371 18.9999C1.1371 16.7795 2.89713 14.4866 6.38102 12.6813C9.80793 10.9055 14.6212 9.77336 20 9.77336C25.3788 9.77336 30.1921 10.9055 33.619 12.6813C37.1029 14.4866 38.8629 16.7795 38.8629 18.9999Z" fill="#D6D6D6" stroke="#D6D6D6" stroke-width="2.27419"/>
<rect x="18" y="10" width="4" height="4" fill="#000F26"/>
<rect x="3" y="3" width="6" height="6" fill="#D6D6D6"/>
<rect x="3" y="29" width="6" height="6" fill="#D6D6D6"/>
<rect x="31" y="3" width="6" height="6" fill="#D6D6D6"/>
<rect x="31" y="29" width="6" height="6" fill="#D6D6D6"/>
<rect x="18" y="24" width="4" height="4" fill="#000F26"/>
<rect x="18" y="17" width="4" height="4" fill="#000F26"/>
</svg>
