<svg width="45" height="45" viewBox="0 0 45 45" fill="none" xmlns="http://www.w3.org/2000/svg">
<rect width="45" height="45" fill="#1E90FF"/>
<circle cx="20.1938" cy="26.3165" r="11" stroke="black" stroke-width="2"/>
<path d="M31.5538 14.3165L27.1938 17.3165C30.1659 20.5854 34.8199 27.2537 27.1938 35.3165L31.5538 38.3165C44.7643 30.4231 34.7193 15.0498 31.5538 14.3165Z" fill="black" stroke="black" stroke-width="2"/>
<path d="M8.83388 14.3165L13.1938 17.3165C10.2218 20.5854 5.56783 27.2537 13.1938 35.3165L8.83388 38.3165C-4.37659 30.4231 5.6684 15.0498 8.83388 14.3165Z" fill="black" stroke="black" stroke-width="2"/>
<path d="M18.18 31.3164V30.3324H20.76C21.248 30.3324 21.628 30.2004 21.9 29.9364C22.18 29.6724 22.32 29.3124 22.32 28.8564C22.32 28.3764 22.172 27.9924 21.876 27.7044C21.588 27.4164 21.192 27.2724 20.688 27.2724H18.18V26.3124H20.568C21.056 26.3124 21.432 26.1964 21.696 25.9644C21.968 25.7244 22.104 25.3844 22.104 24.9444C22.104 24.5284 21.976 24.2124 21.72 23.9964C21.472 23.7724 21.104 23.6604 20.616 23.6604H18.18V22.6764H20.808C21.592 22.6764 22.216 22.8684 22.68 23.2524C23.144 23.6284 23.376 24.1444 23.376 24.8004C23.376 25.2164 23.28 25.5844 23.088 25.9044C22.904 26.2164 22.648 26.4604 22.32 26.6364C21.992 26.8044 21.62 26.8884 21.204 26.8884L21.264 26.6364C21.712 26.6364 22.112 26.7404 22.464 26.9484C22.816 27.1484 23.096 27.4244 23.304 27.7764C23.512 28.1284 23.616 28.5364 23.616 29.0004C23.616 29.4564 23.504 29.8604 23.28 30.2124C23.064 30.5644 22.756 30.8364 22.356 31.0284C21.956 31.2204 21.492 31.3164 20.964 31.3164H18.18ZM17.244 31.3164V22.6764H18.516V31.3164H17.244Z" fill="#1E1E1E"/>
</svg>
