<svg width="45" height="45" viewBox="0 0 45 45" fill="none" xmlns="http://www.w3.org/2000/svg">
<rect width="45" height="45" fill="#FF1493"/>
<circle cx="23" cy="23" r="11" stroke="black" stroke-width="2"/>
<path d="M30 14L34.36 11C37.5254 11.7333 47.5704 27.1066 34.36 35L30 32" stroke="black" stroke-width="2"/>
<path d="M16 14L11.64 11C8.47456 11.7333 -1.57044 27.1066 11.64 35L16 32" stroke="black" stroke-width="2"/>
<path d="M20.9861 28V27.016H23.5661C24.0541 27.016 24.4341 26.884 24.7061 26.62C24.9861 26.356 25.1261 25.996 25.1261 25.54C25.1261 25.06 24.9781 24.676 24.6821 24.388C24.3941 24.1 23.9981 23.956 23.4941 23.956H20.9861V22.996H23.3741C23.8621 22.996 24.2381 22.88 24.5021 22.648C24.7741 22.408 24.9101 22.068 24.9101 21.628C24.9101 21.212 24.7821 20.896 24.5261 20.68C24.2781 20.456 23.9101 20.344 23.4221 20.344H20.9861V19.36H23.6141C24.3981 19.36 25.0221 19.552 25.4861 19.936C25.9501 20.312 26.1821 20.828 26.1821 21.484C26.1821 21.9 26.0861 22.268 25.8941 22.588C25.7101 22.9 25.4541 23.144 25.1261 23.32C24.7981 23.488 24.4261 23.572 24.0101 23.572L24.0701 23.32C24.5181 23.32 24.9181 23.424 25.2701 23.632C25.6221 23.832 25.9021 24.108 26.1101 24.46C26.3181 24.812 26.4221 25.22 26.4221 25.684C26.4221 26.14 26.3101 26.544 26.0861 26.896C25.8701 27.248 25.5621 27.52 25.1621 27.712C24.7621 27.904 24.2981 28 23.7701 28H20.9861ZM20.0501 28V19.36H21.3221V28H20.0501Z" fill="#1E1E1E"/>
</svg>
