<svg width="66" height="66" viewBox="0 0 66 66" fill="none" xmlns="http://www.w3.org/2000/svg">
<g filter="url(#filter0_i_906_2465)">
<rect x="1" y="1" width="64" height="64" rx="3.05672" fill="url(#paint0_linear_906_2465)"/>
</g>
<rect x="1.47761" y="1.47761" width="63.0448" height="63.0448" rx="2.57911" stroke="url(#paint1_linear_906_2465)" stroke-width="0.955226"/>
<g filter="url(#filter1_f_906_2465)">
<rect x="1.19105" y="1.19105" width="63.6179" height="63.6179" rx="2.86568" stroke="#3B3C42" stroke-width="0.38209"/>
</g>
<rect x="3.67469" y="3.67469" width="58.6507" height="58.6507" rx="2.86568" fill="url(#paint2_linear_906_2465)" stroke="url(#paint3_linear_906_2465)" stroke-width="0.38209"/>
<g filter="url(#filter2_f_906_2465)">
<rect x="3.57917" y="3.57917" width="58.8418" height="58.8418" rx="2.9612" stroke="black" stroke-width="0.191045"/>
</g>
<rect x="5.58509" y="5.58509" width="54.8298" height="54.8298" rx="2.86568" fill="url(#paint4_linear_906_2465)" stroke="url(#paint5_linear_906_2465)" stroke-width="0.38209"/>
<rect x="9.21484" y="9.21484" width="47.5702" height="47.5702" rx="3.05672" fill="url(#paint6_radial_906_2465)"/>
<path d="M32.6236 43.6879C31.126 43.6879 29.8492 43.4191 28.7932 42.8815C27.7564 42.3247 26.9404 41.5663 26.3452 40.6063C25.75 39.6271 25.3756 38.5039 25.222 37.2367H29.6284C29.7244 38.2543 30.0316 39.0223 30.55 39.5407C31.0684 40.0399 31.8076 40.2895 32.7676 40.2895C33.4588 40.2895 34.0348 40.1551 34.4956 39.8863C34.9756 39.5983 35.35 39.1663 35.6188 38.5903C35.9068 37.9951 36.1084 37.2271 36.2236 36.2863C36.358 35.3455 36.4252 34.2031 36.4252 32.8591V30.9871L37.606 31.0159C37.3948 31.9375 37.0204 32.7343 36.4828 33.4063C35.9452 34.0783 35.2636 34.5967 34.438 34.9615C33.6316 35.3263 32.7004 35.5087 31.6444 35.5087C30.3196 35.5087 29.1484 35.2399 28.1308 34.7023C27.1324 34.1455 26.3452 33.3871 25.7692 32.4271C25.1932 31.4479 24.9052 30.3247 24.9052 29.0575C24.9052 27.7135 25.2316 26.5423 25.8844 25.5439C26.5372 24.5455 27.4492 23.7679 28.6204 23.2111C29.7916 22.6543 31.1548 22.3759 32.71 22.3759C35.4748 22.3759 37.5964 23.2687 39.0748 25.0543C40.5724 26.8207 41.3212 29.3839 41.3212 32.7439C41.3212 35.0095 40.9756 36.9679 40.2844 38.6191C39.6124 40.2511 38.6236 41.5087 37.318 42.3919C36.0316 43.2559 34.4668 43.6879 32.6236 43.6879ZM33.1132 32.1679C34.1884 32.1679 34.9948 31.8799 35.5324 31.3039C36.07 30.7279 36.3388 29.9983 36.3388 29.1151C36.3388 28.5007 36.214 27.9439 35.9644 27.4447C35.734 26.9263 35.3788 26.5231 34.8988 26.2351C34.4188 25.9279 33.8236 25.7743 33.1132 25.7743C32.0572 25.7743 31.2412 26.0911 30.6652 26.7247C30.0892 27.3391 29.8012 28.0975 29.8012 28.9999C29.8012 29.9023 30.0892 30.6607 30.6652 31.2751C31.2412 31.8703 32.0572 32.1679 33.1132 32.1679Z" fill="#1E1E1E"/>
<g filter="url(#filter3_f_906_2465)">
<rect x="9.57968" y="9.57968" width="46.8405" height="46.8405" rx="2.69188" stroke="#2D2D2D" stroke-width="0.729675"/>
</g>
<defs>
<filter id="filter0_i_906_2465" x="1" y="1" width="64.7642" height="65.1463" filterUnits="userSpaceOnUse" color-interpolation-filters="sRGB">
<feFlood flood-opacity="0" result="BackgroundImageFix"/>
<feBlend mode="normal" in="SourceGraphic" in2="BackgroundImageFix" result="shape"/>
<feColorMatrix in="SourceAlpha" type="matrix" values="0 0 0 0 0 0 0 0 0 0 0 0 0 0 0 0 0 0 127 0" result="hardAlpha"/>
<feOffset dx="0.764181" dy="2.67463"/>
<feGaussianBlur stdDeviation="0.573135"/>
<feComposite in2="hardAlpha" operator="arithmetic" k2="-1" k3="1"/>
<feColorMatrix type="matrix" values="0 0 0 0 0 0 0 0 0 0 0 0 0 0 0 0 0 0 0.6 0"/>
<feBlend mode="normal" in2="shape" result="effect1_innerShadow_906_2465"/>
</filter>
<filter id="filter1_f_906_2465" x="0.61791" y="0.61791" width="64.7642" height="64.7642" filterUnits="userSpaceOnUse" color-interpolation-filters="sRGB">
<feFlood flood-opacity="0" result="BackgroundImageFix"/>
<feBlend mode="normal" in="SourceGraphic" in2="BackgroundImageFix" result="shape"/>
<feGaussianBlur stdDeviation="0.191045" result="effect1_foregroundBlur_906_2465"/>
</filter>
<filter id="filter2_f_906_2465" x="3.10155" y="3.10155" width="59.7969" height="59.7969" filterUnits="userSpaceOnUse" color-interpolation-filters="sRGB">
<feFlood flood-opacity="0" result="BackgroundImageFix"/>
<feBlend mode="normal" in="SourceGraphic" in2="BackgroundImageFix" result="shape"/>
<feGaussianBlur stdDeviation="0.191045" result="effect1_foregroundBlur_906_2465"/>
</filter>
<filter id="filter3_f_906_2465" x="8.48517" y="8.48517" width="49.0294" height="49.0294" filterUnits="userSpaceOnUse" color-interpolation-filters="sRGB">
<feFlood flood-opacity="0" result="BackgroundImageFix"/>
<feBlend mode="normal" in="SourceGraphic" in2="BackgroundImageFix" result="shape"/>
<feGaussianBlur stdDeviation="0.364837" result="effect1_foregroundBlur_906_2465"/>
</filter>
<linearGradient id="paint0_linear_906_2465" x1="29.3411" y1="-11.5944" x2="30.4044" y2="46.6246" gradientUnits="userSpaceOnUse">
<stop stop-color="#202325"/>
<stop offset="0.458333" stop-color="#202425"/>
<stop offset="1" stop-color="#0E1011"/>
</linearGradient>
<linearGradient id="paint1_linear_906_2465" x1="28.7015" y1="-4.44478" x2="53.9194" y2="63.3761" gradientUnits="userSpaceOnUse">
<stop stop-color="#FEFEFE"/>
<stop offset="0.994792" stop-color="#292C2F"/>
</linearGradient>
<linearGradient id="paint2_linear_906_2465" x1="30.421" y1="3.48364" x2="34.8091" y2="62.4387" gradientUnits="userSpaceOnUse">
<stop stop-color="#969EA1"/>
<stop offset="0.22" stop-color="#1E1820"/>
<stop offset="0.458333" stop-color="#1B161D"/>
<stop offset="0.765" stop-color="#A0A39F"/>
<stop offset="1" stop-color="#FFFFFB"/>
</linearGradient>
<linearGradient id="paint3_linear_906_2465" x1="33.0001" y1="3.48364" x2="33.6687" y2="62.5165" gradientUnits="userSpaceOnUse">
<stop stop-color="#E6EBF1"/>
<stop offset="0.994792" stop-color="#868990"/>
</linearGradient>
<linearGradient id="paint4_linear_906_2465" x1="29.8435" y1="-5.47095" x2="48.4532" y2="68.7777" gradientUnits="userSpaceOnUse">
<stop stop-color="#585659"/>
<stop offset="0.458333" stop-color="#262526"/>
<stop offset="0.774091" stop-color="#161616"/>
<stop offset="1" stop-color="#585659"/>
</linearGradient>
<linearGradient id="paint5_linear_906_2465" x1="33" y1="5.39404" x2="33" y2="27.8883" gradientUnits="userSpaceOnUse">
<stop/>
<stop offset="0.994792"/>
</linearGradient>
<radialGradient id="paint6_radial_906_2465" cx="0" cy="0" r="1" gradientUnits="userSpaceOnUse" gradientTransform="translate(32.9999 33.5863) rotate(69.1066) scale(22.3598 22.36)">
<stop stop-color="#D6D6D6"/>
<stop offset="1" stop-color="#FEFEFE"/>
</radialGradient>
</defs>
</svg>
