<svg width="66" height="66" viewBox="0 0 66 66" fill="none" xmlns="http://www.w3.org/2000/svg">
<g filter="url(#filter0_i_906_2502)">
<rect x="0.999878" y="1" width="64" height="64" rx="3.05672" fill="url(#paint0_linear_906_2502)"/>
</g>
<rect x="1.47749" y="1.47761" width="63.0448" height="63.0448" rx="2.57911" stroke="url(#paint1_linear_906_2502)" stroke-width="0.955226"/>
<g filter="url(#filter1_f_906_2502)">
<rect x="1.19092" y="1.19105" width="63.6179" height="63.6179" rx="2.86568" stroke="#3B3C42" stroke-width="0.38209"/>
</g>
<rect x="3.67469" y="3.67469" width="58.6507" height="58.6507" rx="2.86568" fill="url(#paint2_linear_906_2502)" stroke="url(#paint3_linear_906_2502)" stroke-width="0.38209"/>
<g filter="url(#filter2_f_906_2502)">
<rect x="3.57917" y="3.57917" width="58.8418" height="58.8418" rx="2.9612" stroke="black" stroke-width="0.191045"/>
</g>
<rect x="5.58497" y="5.58509" width="54.8298" height="54.8298" rx="2.86568" fill="url(#paint4_linear_906_2502)" stroke="url(#paint5_linear_906_2502)" stroke-width="0.38209"/>
<rect x="9.21484" y="9.21484" width="47.5702" height="47.5702" rx="3.05672" fill="url(#paint6_radial_906_2502)"/>
<path d="M24.6588 38V28.784H27.206L31.302 36.9248L30.6748 37.0784V28.784H32.5948V38H30.0476L25.9516 29.8592L26.5788 29.7056V38H24.6588ZM37.6601 38.1152C36.4654 38.1152 35.5097 37.8507 34.7929 37.3216C34.0761 36.784 33.658 36.0288 33.5385 35.056H35.4329C35.4926 35.5509 35.7316 35.9435 36.1497 36.2336C36.5678 36.5152 37.1012 36.656 37.7497 36.656C38.2788 36.656 38.6841 36.5621 38.9657 36.3744C39.2558 36.1867 39.4009 35.9349 39.4009 35.6192C39.4009 35.3205 39.3156 35.0816 39.1449 34.9024C38.9742 34.7147 38.6798 34.5653 38.2617 34.4544L36.5465 33.9808C35.6676 33.7333 35.0233 33.3963 34.6137 32.9696C34.2126 32.5344 34.0121 31.9925 34.0121 31.344C34.0121 30.7893 34.1529 30.3115 34.4345 29.9104C34.7246 29.5008 35.13 29.1893 35.6505 28.976C36.171 28.7541 36.7812 28.6432 37.4809 28.6432C38.5561 28.6432 39.4137 28.8992 40.0537 29.4112C40.6937 29.9147 41.0564 30.5845 41.1417 31.4208H39.2473C39.162 30.9685 38.9529 30.6357 38.6201 30.4224C38.2958 30.2091 37.8777 30.1024 37.3657 30.1024C36.922 30.1024 36.5678 30.1877 36.3033 30.3584C36.0388 30.5291 35.9065 30.7595 35.9065 31.0496C35.9065 31.2715 35.979 31.4763 36.1241 31.664C36.2692 31.8432 36.5721 31.9968 37.0329 32.1248L38.7481 32.5984C39.6526 32.8459 40.3012 33.1872 40.6937 33.6224C41.0948 34.0491 41.2953 34.5909 41.2953 35.248C41.2953 36.1696 40.9753 36.8779 40.3353 37.3728C39.6953 37.8677 38.8036 38.1152 37.6601 38.1152Z" fill="#1E1E1E"/>
<g filter="url(#filter3_f_906_2502)">
<rect x="9.57968" y="9.57968" width="46.8405" height="46.8405" rx="2.69188" stroke="#2D2D2D" stroke-width="0.729675"/>
</g>
<defs>
<filter id="filter0_i_906_2502" x="0.999878" y="1" width="64.7642" height="65.1463" filterUnits="userSpaceOnUse" color-interpolation-filters="sRGB">
<feFlood flood-opacity="0" result="BackgroundImageFix"/>
<feBlend mode="normal" in="SourceGraphic" in2="BackgroundImageFix" result="shape"/>
<feColorMatrix in="SourceAlpha" type="matrix" values="0 0 0 0 0 0 0 0 0 0 0 0 0 0 0 0 0 0 127 0" result="hardAlpha"/>
<feOffset dx="0.764181" dy="2.67463"/>
<feGaussianBlur stdDeviation="0.573135"/>
<feComposite in2="hardAlpha" operator="arithmetic" k2="-1" k3="1"/>
<feColorMatrix type="matrix" values="0 0 0 0 0 0 0 0 0 0 0 0 0 0 0 0 0 0 0.6 0"/>
<feBlend mode="normal" in2="shape" result="effect1_innerShadow_906_2502"/>
</filter>
<filter id="filter1_f_906_2502" x="0.617788" y="0.61791" width="64.7642" height="64.7642" filterUnits="userSpaceOnUse" color-interpolation-filters="sRGB">
<feFlood flood-opacity="0" result="BackgroundImageFix"/>
<feBlend mode="normal" in="SourceGraphic" in2="BackgroundImageFix" result="shape"/>
<feGaussianBlur stdDeviation="0.191045" result="effect1_foregroundBlur_906_2502"/>
</filter>
<filter id="filter2_f_906_2502" x="3.10155" y="3.10155" width="59.797" height="59.7969" filterUnits="userSpaceOnUse" color-interpolation-filters="sRGB">
<feFlood flood-opacity="0" result="BackgroundImageFix"/>
<feBlend mode="normal" in="SourceGraphic" in2="BackgroundImageFix" result="shape"/>
<feGaussianBlur stdDeviation="0.191045" result="effect1_foregroundBlur_906_2502"/>
</filter>
<filter id="filter3_f_906_2502" x="8.48517" y="8.48517" width="49.0295" height="49.0294" filterUnits="userSpaceOnUse" color-interpolation-filters="sRGB">
<feFlood flood-opacity="0" result="BackgroundImageFix"/>
<feBlend mode="normal" in="SourceGraphic" in2="BackgroundImageFix" result="shape"/>
<feGaussianBlur stdDeviation="0.364837" result="effect1_foregroundBlur_906_2502"/>
</filter>
<linearGradient id="paint0_linear_906_2502" x1="29.341" y1="-11.5944" x2="30.4043" y2="46.6246" gradientUnits="userSpaceOnUse">
<stop stop-color="#202325"/>
<stop offset="0.458333" stop-color="#202425"/>
<stop offset="1" stop-color="#0E1011"/>
</linearGradient>
<linearGradient id="paint1_linear_906_2502" x1="28.7014" y1="-4.44478" x2="53.9193" y2="63.3761" gradientUnits="userSpaceOnUse">
<stop stop-color="#FEFEFE"/>
<stop offset="0.994792" stop-color="#292C2F"/>
</linearGradient>
<linearGradient id="paint2_linear_906_2502" x1="30.421" y1="3.48364" x2="34.8091" y2="62.4387" gradientUnits="userSpaceOnUse">
<stop stop-color="#969EA1"/>
<stop offset="0.22" stop-color="#1E1820"/>
<stop offset="0.458333" stop-color="#1B161D"/>
<stop offset="0.765" stop-color="#A0A39F"/>
<stop offset="1" stop-color="#FFFFFB"/>
</linearGradient>
<linearGradient id="paint3_linear_906_2502" x1="33.0001" y1="3.48364" x2="33.6687" y2="62.5165" gradientUnits="userSpaceOnUse">
<stop stop-color="#E6EBF1"/>
<stop offset="0.994792" stop-color="#868990"/>
</linearGradient>
<linearGradient id="paint4_linear_906_2502" x1="29.8434" y1="-5.47095" x2="48.4531" y2="68.7777" gradientUnits="userSpaceOnUse">
<stop stop-color="#585659"/>
<stop offset="0.458333" stop-color="#262526"/>
<stop offset="0.774091" stop-color="#161616"/>
<stop offset="1" stop-color="#585659"/>
</linearGradient>
<linearGradient id="paint5_linear_906_2502" x1="32.9999" y1="5.39404" x2="32.9999" y2="27.8883" gradientUnits="userSpaceOnUse">
<stop/>
<stop offset="0.994792"/>
</linearGradient>
<radialGradient id="paint6_radial_906_2502" cx="0" cy="0" r="1" gradientUnits="userSpaceOnUse" gradientTransform="translate(32.9999 33.5863) rotate(69.1066) scale(22.3598 22.36)">
<stop stop-color="#D6D6D6"/>
<stop offset="1" stop-color="#FEFEFE"/>
</radialGradient>
</defs>
</svg>
