<svg width="82" height="82" viewBox="0 0 82 82" fill="none" xmlns="http://www.w3.org/2000/svg">
<g filter="url(#filter0_i_942_3162)">
<rect x="1" y="1" width="80" height="80" rx="3.8209" fill="url(#paint0_linear_942_3162)"/>
</g>
<rect x="1.59702" y="1.59702" width="78.806" height="78.806" rx="3.22389" stroke="url(#paint1_linear_942_3162)" stroke-width="1.19403"/>
<g filter="url(#filter1_f_942_3162)">
<rect x="1.23881" y="1.23881" width="79.5224" height="79.5224" rx="3.5821" stroke="#3B3C42" stroke-width="0.477613"/>
</g>
<rect x="4.3433" y="4.3433" width="73.3134" height="73.3134" rx="3.5821" fill="url(#paint2_linear_942_3162)" stroke="url(#paint3_linear_942_3162)" stroke-width="0.477613"/>
<g filter="url(#filter2_f_942_3162)">
<rect x="4.2239" y="4.2239" width="73.5522" height="73.5522" rx="3.7015" stroke="black" stroke-width="0.238806"/>
</g>
<rect x="6.73124" y="6.73136" width="68.5373" height="68.5373" rx="3.5821" fill="url(#paint4_linear_942_3162)" stroke="url(#paint5_linear_942_3162)" stroke-width="0.477613"/>
<rect x="11.2686" y="11.2687" width="59.4627" height="59.4627" rx="3.8209" fill="url(#paint6_radial_942_3162)"/>
<path d="M41.068 57.07C38.5785 57.0694 36.1235 56.488 33.8981 55.3721C31.6727 54.2562 29.7383 52.6366 28.2487 50.6419C26.7591 48.6473 25.7553 46.3327 25.3172 43.882C24.8791 41.4314 25.0187 38.9123 25.7249 36.5251C26.3478 34.4191 27.3997 32.4647 28.8144 30.7848C28.9279 30.633 29.0713 30.5059 29.2356 30.4115C29.4 30.317 29.5819 30.2571 29.7702 30.2354C29.9585 30.2136 30.1493 30.2306 30.3309 30.2852C30.5124 30.3398 30.6809 30.4309 30.826 30.5529C30.9711 30.6749 31.0898 30.8252 31.1747 30.9947C31.2597 31.1642 31.3092 31.3492 31.3201 31.5385C31.331 31.7277 31.3032 31.9172 31.2384 32.0954C31.1735 32.2735 31.073 32.4365 30.9429 32.5744C30.5727 33.0166 30.2308 33.4818 29.9193 33.9671C29.5685 34.514 29.2582 35.0858 28.9908 35.6779C28.7534 36.2056 28.551 36.7484 28.385 37.3027C28.222 37.8565 28.0948 38.4201 28.0043 38.9902C27.8984 39.6745 27.8449 40.3659 27.8441 41.0584C27.8485 43.8524 28.739 46.5729 30.3874 48.8288C32.0359 51.0846 34.3574 52.7595 37.0179 53.6124C39.6785 54.4654 42.541 54.4525 45.1938 53.5757C47.8466 52.6988 50.1529 51.0031 51.781 48.7325C53.4091 46.462 54.275 43.7335 54.2543 40.9396C54.2336 38.1458 53.3273 35.4305 51.6657 33.1843C50.0041 30.9381 47.6729 29.2768 45.0074 28.4394C42.3419 27.602 39.4794 27.6316 36.8318 28.5239C36.6533 28.6133 36.4576 28.6633 36.2581 28.6704C36.0585 28.6776 35.8598 28.6417 35.6753 28.5653C35.4908 28.4889 35.325 28.3737 35.1889 28.2276C35.0529 28.0815 34.9498 27.9078 34.8868 27.7183C34.8237 27.5289 34.8022 27.3281 34.8235 27.1296C34.8449 26.931 34.9087 26.7394 35.0106 26.5677C35.1125 26.396 35.2502 26.2483 35.4142 26.1344C35.5783 26.0206 35.7649 25.9434 35.9614 25.908C38.1602 25.1669 40.4939 24.913 42.8006 25.1637C45.1074 25.4145 47.332 26.164 49.3202 27.3602C51.3084 28.5565 53.0126 30.1709 54.3147 32.0914C55.6168 34.012 56.4855 36.1928 56.8608 38.4825C57.236 40.7723 57.1087 43.1164 56.4877 45.3521C55.8668 47.5877 54.7669 49.6616 53.2645 51.4299C51.7621 53.1982 49.8931 54.6185 47.7871 55.5924C45.681 56.5663 43.3883 57.0705 41.068 57.07Z" fill="#231F20"/>
<path d="M41.0681 26.4627V55.6773C44.9422 55.6773 48.6576 54.1383 51.397 51.3989C54.1364 48.6595 55.6754 44.9441 55.6754 41.07C55.6754 37.1959 54.1364 33.4805 51.397 30.7411C48.6576 28.0017 44.9422 26.4627 41.0681 26.4627Z" fill="black"/>
<g filter="url(#filter3_f_942_3162)">
<rect x="11.7246" y="11.7247" width="58.5506" height="58.5506" rx="3.36486" stroke="#2D2D2D" stroke-width="0.912093"/>
</g>
<defs>
<filter id="filter0_i_942_3162" x="1" y="1" width="80.9552" height="81.4328" filterUnits="userSpaceOnUse" color-interpolation-filters="sRGB">
<feFlood flood-opacity="0" result="BackgroundImageFix"/>
<feBlend mode="normal" in="SourceGraphic" in2="BackgroundImageFix" result="shape"/>
<feColorMatrix in="SourceAlpha" type="matrix" values="0 0 0 0 0 0 0 0 0 0 0 0 0 0 0 0 0 0 127 0" result="hardAlpha"/>
<feOffset dx="0.955226" dy="3.34329"/>
<feGaussianBlur stdDeviation="0.716419"/>
<feComposite in2="hardAlpha" operator="arithmetic" k2="-1" k3="1"/>
<feColorMatrix type="matrix" values="0 0 0 0 0 0 0 0 0 0 0 0 0 0 0 0 0 0 0.6 0"/>
<feBlend mode="normal" in2="shape" result="effect1_innerShadow_942_3162"/>
</filter>
<filter id="filter1_f_942_3162" x="0.522387" y="0.522387" width="80.9552" height="80.9552" filterUnits="userSpaceOnUse" color-interpolation-filters="sRGB">
<feFlood flood-opacity="0" result="BackgroundImageFix"/>
<feBlend mode="normal" in="SourceGraphic" in2="BackgroundImageFix" result="shape"/>
<feGaussianBlur stdDeviation="0.238806" result="effect1_foregroundBlur_942_3162"/>
</filter>
<filter id="filter2_f_942_3162" x="3.62688" y="3.62688" width="74.7462" height="74.7462" filterUnits="userSpaceOnUse" color-interpolation-filters="sRGB">
<feFlood flood-opacity="0" result="BackgroundImageFix"/>
<feBlend mode="normal" in="SourceGraphic" in2="BackgroundImageFix" result="shape"/>
<feGaussianBlur stdDeviation="0.238806" result="effect1_foregroundBlur_942_3162"/>
</filter>
<filter id="filter3_f_942_3162" x="10.3565" y="10.3566" width="61.2868" height="61.2869" filterUnits="userSpaceOnUse" color-interpolation-filters="sRGB">
<feFlood flood-opacity="0" result="BackgroundImageFix"/>
<feBlend mode="normal" in="SourceGraphic" in2="BackgroundImageFix" result="shape"/>
<feGaussianBlur stdDeviation="0.456047" result="effect1_foregroundBlur_942_3162"/>
</filter>
<linearGradient id="paint0_linear_942_3162" x1="36.4264" y1="-14.743" x2="37.7555" y2="58.0308" gradientUnits="userSpaceOnUse">
<stop stop-color="#202325"/>
<stop offset="0.458333" stop-color="#202425"/>
<stop offset="1" stop-color="#0E1011"/>
</linearGradient>
<linearGradient id="paint1_linear_942_3162" x1="35.6269" y1="-5.80597" x2="67.1493" y2="78.9701" gradientUnits="userSpaceOnUse">
<stop stop-color="#FEFEFE"/>
<stop offset="0.994792" stop-color="#292C2F"/>
</linearGradient>
<linearGradient id="paint2_linear_942_3162" x1="37.7761" y1="4.10449" x2="43.2613" y2="77.7983" gradientUnits="userSpaceOnUse">
<stop stop-color="#969EA1"/>
<stop offset="0.22" stop-color="#1E1820"/>
<stop offset="0.458333" stop-color="#1B161D"/>
<stop offset="0.765" stop-color="#A0A39F"/>
<stop offset="1" stop-color="#FFFFFB"/>
</linearGradient>
<linearGradient id="paint3_linear_942_3162" x1="41" y1="4.10449" x2="41.8358" y2="77.8955" gradientUnits="userSpaceOnUse">
<stop stop-color="#E6EBF1"/>
<stop offset="0.994792" stop-color="#868990"/>
</linearGradient>
<linearGradient id="paint4_linear_942_3162" x1="37.0543" y1="-7.08868" x2="60.3164" y2="85.7221" gradientUnits="userSpaceOnUse">
<stop stop-color="#585659"/>
<stop offset="0.458333" stop-color="#262526"/>
<stop offset="0.774091" stop-color="#161616"/>
<stop offset="1" stop-color="#585659"/>
</linearGradient>
<linearGradient id="paint5_linear_942_3162" x1="40.9999" y1="6.49255" x2="40.9999" y2="34.6104" gradientUnits="userSpaceOnUse">
<stop/>
<stop offset="0.994792"/>
</linearGradient>
<radialGradient id="paint6_radial_942_3162" cx="0" cy="0" r="1" gradientUnits="userSpaceOnUse" gradientTransform="translate(40.9999 41.733) rotate(69.1066) scale(27.9497 27.95)">
<stop stop-color="#D6D6D6"/>
<stop offset="1" stop-color="#FEFEFE"/>
</radialGradient>
</defs>
</svg>
