<svg width="34" height="34" viewBox="0 0 34 34" fill="none" xmlns="http://www.w3.org/2000/svg">
<rect x="1" y="1" width="32" height="32" rx="3.05672" fill="url(#paint0_radial_906_1388)"/>
<path d="M6.91211 21V13.8H8.45211V21H6.91211ZM7.63211 21V19.82H12.2721V21H7.63211ZM7.63211 17.9V16.74H11.9221V17.9H7.63211ZM7.63211 14.98V13.8H12.1521V14.98H7.63211ZM13.1719 21V13.8H15.1619L18.3619 20.16L17.8719 20.28V13.8H19.3719V21H17.3819L14.1819 14.64L14.6719 14.52V21H13.1719ZM22.4591 21V14.98H20.1091V13.8H26.3491V14.98H23.9991V21H22.4591Z" fill="#1E1E1E"/>
<g filter="url(#filter0_f_906_1388)">
<rect x="1.36484" y="1.36484" width="31.2703" height="31.2703" rx="2.69188" stroke="#2D2D2D" stroke-width="0.729675"/>
</g>
<defs>
<filter id="filter0_f_906_1388" x="0.270325" y="0.270325" width="33.4593" height="33.4593" filterUnits="userSpaceOnUse" color-interpolation-filters="sRGB">
<feFlood flood-opacity="0" result="BackgroundImageFix"/>
<feBlend mode="normal" in="SourceGraphic" in2="BackgroundImageFix" result="shape"/>
<feGaussianBlur stdDeviation="0.364837" result="effect1_foregroundBlur_906_1388"/>
</filter>
<radialGradient id="paint0_radial_906_1388" cx="0" cy="0" r="1" gradientUnits="userSpaceOnUse" gradientTransform="translate(17 17.3945) rotate(69.1066) scale(15.0412 15.0414)">
<stop stop-color="#D6D6D6"/>
<stop offset="1" stop-color="#FEFEFE"/>
</radialGradient>
</defs>
</svg>
