<svg width="34" height="34" viewBox="0 0 34 34" fill="none" xmlns="http://www.w3.org/2000/svg">
<rect x="1" y="1" width="32" height="32" rx="3.05672" fill="url(#paint0_radial_906_1384)"/>
<path d="M2.31445 21V13.8H3.85445V21H2.31445ZM6.97445 21V13.8H8.51445V21H6.97445ZM3.03445 16.66H7.67445V17.84H3.03445V16.66ZM13.0017 21.1C12.4684 21.1 11.9751 21.01 11.5217 20.83C11.0751 20.65 10.6851 20.3967 10.3517 20.07C10.0251 19.7367 9.76839 19.3433 9.58172 18.89C9.40172 18.43 9.31172 17.9233 9.31172 17.37C9.31172 16.6367 9.46839 15.9967 9.78172 15.45C10.0951 14.8967 10.5284 14.4667 11.0817 14.16C11.6417 13.8533 12.2784 13.7 12.9917 13.7C13.7184 13.7 14.3584 13.8533 14.9117 14.16C15.4651 14.4667 15.8984 14.8967 16.2117 15.45C16.5317 16.0033 16.6917 16.6467 16.6917 17.38C16.6917 17.9267 16.5984 18.43 16.4117 18.89C16.2317 19.3433 15.9751 19.7367 15.6417 20.07C15.3151 20.3967 14.9251 20.65 14.4717 20.83C14.0251 21.01 13.5351 21.1 13.0017 21.1ZM12.9917 19.88C13.4117 19.88 13.7817 19.7733 14.1017 19.56C14.4217 19.3467 14.6717 19.0533 14.8517 18.68C15.0384 18.3 15.1317 17.86 15.1317 17.36C15.1317 16.8667 15.0417 16.4367 14.8617 16.07C14.6817 15.7033 14.4317 15.42 14.1117 15.22C13.7917 15.02 13.4184 14.92 12.9917 14.92C12.5717 14.92 12.2017 15.02 11.8817 15.22C11.5617 15.42 11.3117 15.7033 11.1317 16.07C10.9584 16.43 10.8717 16.86 10.8717 17.36C10.8717 17.8667 10.9617 18.31 11.1417 18.69C11.3217 19.0633 11.5717 19.3567 11.8917 19.57C12.2117 19.7767 12.5784 19.88 12.9917 19.88ZM17.4902 21V13.8H19.8902L21.8902 20.74H21.0202L23.0202 13.8H25.4302V21H23.9102V14.23H24.1702L22.2202 21H20.6302L18.7002 14.29H18.9502V21H17.4902ZM26.4258 21V13.8H27.9658V21H26.4258ZM27.1458 21V19.82H31.7858V21H27.1458ZM27.1458 17.9V16.74H31.4358V17.9H27.1458ZM27.1458 14.98V13.8H31.6658V14.98H27.1458Z" fill="#1E1E1E"/>
<g filter="url(#filter0_f_906_1384)">
<rect x="1.36484" y="1.36484" width="31.2703" height="31.2703" rx="2.69188" stroke="#2D2D2D" stroke-width="0.729675"/>
</g>
<defs>
<filter id="filter0_f_906_1384" x="0.270325" y="0.270325" width="33.4593" height="33.4593" filterUnits="userSpaceOnUse" color-interpolation-filters="sRGB">
<feFlood flood-opacity="0" result="BackgroundImageFix"/>
<feBlend mode="normal" in="SourceGraphic" in2="BackgroundImageFix" result="shape"/>
<feGaussianBlur stdDeviation="0.364837" result="effect1_foregroundBlur_906_1384"/>
</filter>
<radialGradient id="paint0_radial_906_1384" cx="0" cy="0" r="1" gradientUnits="userSpaceOnUse" gradientTransform="translate(17 17.3945) rotate(69.1066) scale(15.0412 15.0414)">
<stop stop-color="#D6D6D6"/>
<stop offset="1" stop-color="#FEFEFE"/>
</radialGradient>
</defs>
</svg>
