<svg width="46" height="46" viewBox="0 0 46 46" fill="none" xmlns="http://www.w3.org/2000/svg">
<rect x="0.40332" y="0.128174" width="45" height="45" fill="#FF1493"/>
<circle cx="23.4033" cy="23.1282" r="11" stroke="#1E1E1E" stroke-width="2"/>
<path d="M31.4033 14.1282L35.7633 11.1282C38.9288 11.8614 48.9738 27.2348 35.7633 35.1282L31.4033 32.1282C36.8115 25.3071 36.7912 21.365 31.4033 14.1282Z" fill="#1E1E1E"/>
<path d="M16.4033 14.1282L12.0434 11.1282C8.87788 11.8614 -1.16712 27.2348 12.0434 35.1282L16.4033 32.1282C10.6683 24.6025 11.0561 20.6947 16.4033 14.1282Z" fill="#1E1E1E"/>
<path d="M20.3245 28.1282V19.4882H23.9845C24.6085 19.4882 25.1405 19.5922 25.5805 19.8002C26.0205 20.0082 26.3565 20.3042 26.5885 20.6882C26.8285 21.0722 26.9485 21.5282 26.9485 22.0562C26.9485 22.5922 26.8285 23.0562 26.5885 23.4482C26.3565 23.8322 26.0165 24.1322 25.5685 24.3482C25.1285 24.5642 24.6005 24.6722 23.9845 24.6722H21.2965V23.6162H23.9245C24.4925 23.6162 24.9245 23.4802 25.2205 23.2082C25.5245 22.9362 25.6765 22.5562 25.6765 22.0682C25.6765 21.5722 25.5285 21.1922 25.2325 20.9282C24.9365 20.6642 24.5005 20.5322 23.9245 20.5322H21.5965V28.1282H20.3245Z" fill="#1E1E1E"/>
</svg>
