<svg width="45" height="45" viewBox="0 0 45 45" fill="none" xmlns="http://www.w3.org/2000/svg">
<rect width="45" height="45" fill="#1E90FF"/>
<circle cx="23" cy="23" r="11" stroke="#1E1E1E" stroke-width="2"/>
<path d="M33 14L37.36 11C40.5254 11.7333 50.5704 27.1066 37.36 35L33 32C38.4082 25.1789 38.3879 21.2369 33 14Z" fill="#1E1E1E"/>
<path d="M13 14L8.64003 11C5.47456 11.7333 -4.57044 27.1066 8.64003 35L13 32C7.26495 24.4743 7.65279 20.5665 13 14Z" fill="#1E1E1E"/>
<path d="M19.9212 28V19.36H23.5812C24.2052 19.36 24.7372 19.464 25.1772 19.672C25.6172 19.88 25.9532 20.176 26.1852 20.56C26.4252 20.944 26.5452 21.4 26.5452 21.928C26.5452 22.464 26.4252 22.928 26.1852 23.32C25.9532 23.704 25.6132 24.004 25.1652 24.22C24.7252 24.436 24.1972 24.544 23.5812 24.544H20.8932V23.488H23.5212C24.0892 23.488 24.5212 23.352 24.8172 23.08C25.1212 22.808 25.2732 22.428 25.2732 21.94C25.2732 21.444 25.1252 21.064 24.8292 20.8C24.5332 20.536 24.0972 20.404 23.5212 20.404H21.1932V28H19.9212Z" fill="#1E1E1E"/>
</svg>
