<svg width="45" height="45" viewBox="0 0 45 45" fill="none" xmlns="http://www.w3.org/2000/svg">
<rect width="45" height="45" fill="#28A745"/>
<line x1="3" y1="37" x2="29.6667" y2="37" stroke="#1E1E1E" stroke-width="2"/>
<path d="M33.1111 22.5455C33.1111 30.0477 27.1703 36.0909 19.8889 36.0909C12.6075 36.0909 6.66669 30.0477 6.66669 22.5455C6.66669 15.0432 12.6075 9 19.8889 9C27.1703 9 33.1111 15.0432 33.1111 22.5455Z" stroke="#1E1E1E" stroke-width="2"/>
<path d="M30.0556 22.5454C30.0556 28.3049 25.4933 32.9545 19.8889 32.9545C14.2845 32.9545 9.72223 28.3049 9.72223 22.5454C9.72223 16.786 14.2845 12.1364 19.8889 12.1364C25.4933 12.1364 30.0556 16.786 30.0556 22.5454Z" stroke="#1E1E1E"/>
<ellipse cx="19.8889" cy="22.5455" rx="3.55556" ry="3.63636" fill="#1E1E1E"/>
<line x1="42.2222" y1="8" x2="42.2222" y2="24.3636" stroke="#1E1E1E" stroke-width="2"/>
<rect x="39.4445" y="23.4545" width="3.55556" height="3.63636" fill="#1E1E1E"/>
<rect x="38.5555" y="26.1818" width="1.77778" height="1.81818" fill="#1E1E1E"/>
<rect x="36.7778" y="28" width="1.77778" height="1.81818" fill="#1E1E1E"/>
<rect x="36.7778" y="31.6364" width="1.77778" height="1.81818" fill="#1E1E1E"/>
<rect x="33.2222" y="31.6364" width="1.77778" height="1.81818" fill="#1E1E1E"/>
<rect x="31.4445" y="33.4545" width="1.77778" height="1.81818" fill="#1E1E1E"/>
<rect x="38.5555" y="29.8182" width="1.77778" height="1.81818" fill="#1E1E1E"/>
<rect x="35" y="29.8182" width="1.77778" height="1.81818" fill="#1E1E1E"/>
<rect x="38.5555" y="33.4545" width="1.77778" height="1.81818" fill="#1E1E1E"/>
<rect x="35" y="33.4545" width="1.77778" height="1.81818" fill="#1E1E1E"/>
<rect x="38.5555" y="36.1818" width="1.77778" height="1.81818" fill="#1E1E1E"/>
<rect x="35.8889" y="36.1818" width="1.77778" height="1.81818" fill="#1E1E1E"/>
<rect x="33.2222" y="36.1818" width="1.77778" height="1.81818" fill="#1E1E1E"/>
<rect x="30.5555" y="36.1818" width="1.77778" height="1.81818" fill="#1E1E1E"/>
</svg>
