<svg width="46" height="46" viewBox="0 0 46 46" fill="none" xmlns="http://www.w3.org/2000/svg">
<rect x="0.388672" y="0.346436" width="45" height="45" fill="#1E1E1E"/>
<line x1="3.38867" y1="37.3464" x2="30.0553" y2="37.3464" stroke="#666666" stroke-width="2"/>
<path d="M33.4996 22.8919C33.4996 30.3941 27.5588 36.4373 20.2774 36.4373C12.996 36.4373 7.05518 30.3941 7.05518 22.8919C7.05518 15.3896 12.996 9.34644 20.2774 9.34644C27.5588 9.34644 33.4996 15.3896 33.4996 22.8919Z" stroke="#666666" stroke-width="2"/>
<path d="M30.4442 22.8919C30.4442 28.6513 25.8819 33.301 20.2775 33.301C14.6731 33.301 10.1108 28.6513 10.1108 22.8919C10.1108 17.1324 14.6731 12.4828 20.2775 12.4828C25.8819 12.4828 30.4442 17.1324 30.4442 22.8919Z" stroke="#666666"/>
<ellipse cx="20.2777" cy="22.8919" rx="3.55556" ry="3.63636" fill="#666666"/>
<line x1="42.6108" y1="8.34644" x2="42.6108" y2="24.7101" stroke="#666666" stroke-width="2"/>
<rect x="39.833" y="23.801" width="3.55556" height="3.63636" fill="#666666"/>
<rect x="38.9443" y="26.5282" width="1.77778" height="1.81818" fill="#666666"/>
<rect x="37.1665" y="28.3464" width="1.77778" height="1.81818" fill="#666666"/>
<rect x="37.1665" y="31.9828" width="1.77778" height="1.81818" fill="#666666"/>
<rect x="33.6108" y="31.9828" width="1.77778" height="1.81818" fill="#666666"/>
<rect x="31.833" y="33.801" width="1.77778" height="1.81818" fill="#666666"/>
<rect x="38.9443" y="30.1647" width="1.77778" height="1.81818" fill="#666666"/>
<rect x="35.3887" y="30.1647" width="1.77778" height="1.81818" fill="#666666"/>
<rect x="38.9443" y="33.801" width="1.77778" height="1.81818" fill="#666666"/>
<rect x="35.3887" y="33.801" width="1.77778" height="1.81818" fill="#666666"/>
<rect x="38.9443" y="36.5283" width="1.77778" height="1.81818" fill="#666666"/>
<rect x="36.2773" y="36.5283" width="1.77778" height="1.81818" fill="#666666"/>
<rect x="33.6108" y="36.5283" width="1.77778" height="1.81818" fill="#666666"/>
<rect x="30.9443" y="36.5283" width="1.77778" height="1.81818" fill="#666666"/>
</svg>
