<svg width="196" height="112" viewBox="0 0 196 112" fill="none" xmlns="http://www.w3.org/2000/svg">
<path d="M96.5781 9.3217V22.8001H98.1246V9.3217H96.5781Z" fill="#FEFEFE" stroke="#FEFEFE" stroke-width="0.133333"/>
<path d="M94.6104 14.6332L94.4241 9.36818L93.9576 9.38424L94.1439 14.6492L94.6104 14.6332Z" fill="#FEFEFE" stroke="#FEFEFE" stroke-width="0.133333"/>
<path d="M91.6378 14.7764L91.2668 9.52373L90.8008 9.55585L91.1726 14.8085L91.6378 14.7764Z" fill="#FEFEFE" stroke="#FEFEFE" stroke-width="0.133333"/>
<path d="M88.6735 15.0215L88.1177 9.78687L87.6536 9.83504L88.2094 15.0691L88.6735 15.0215Z" fill="#FEFEFE" stroke="#FEFEFE" stroke-width="0.133333"/>
<path d="M85.7197 15.3678L84.9791 10.1597L84.5167 10.224L85.258 15.4326L85.7197 15.3678Z" fill="#FEFEFE" stroke="#FEFEFE" stroke-width="0.133333"/>
<path d="M83.659 19.386L82.092 10.6004L81.1597 10.7626L82.7266 19.5482L83.659 19.386Z" fill="#FEFEFE" stroke="#FEFEFE" stroke-width="0.133333"/>
<path d="M79.8558 16.3663L78.7507 11.2297L78.2941 11.3261L79.3992 16.462L79.8558 16.3663Z" fill="#FEFEFE" stroke="#FEFEFE" stroke-width="0.133333"/>
<path d="M76.9552 17.0179L75.6704 11.9238L75.2173 12.0356L76.5028 17.1292L76.9552 17.0179Z" fill="#FEFEFE" stroke="#FEFEFE" stroke-width="0.133333"/>
<path d="M74.0779 17.77L72.6143 12.7247L72.1659 12.852L73.6289 17.8973L74.0779 17.77Z" fill="#FEFEFE" stroke="#FEFEFE" stroke-width="0.133333"/>
<path d="M71.2291 18.6194L69.5893 13.6309L69.1456 13.7737L70.7854 18.7621L71.2291 18.6194Z" fill="#FEFEFE" stroke="#FEFEFE" stroke-width="0.133333"/>
<path d="M71.7617 27.1057L67.1052 14.4582L65.6517 14.9808L70.3087 27.629L71.7617 27.1057Z" fill="#FEFEFE" stroke="#FEFEFE" stroke-width="0.133333"/>
<path d="M65.633 20.6184L63.6442 15.7522L63.2116 15.9253L65.2005 20.791L65.633 20.6184Z" fill="#FEFEFE" stroke="#FEFEFE" stroke-width="0.133333"/>
<path d="M62.891 21.7607L60.7312 16.9663L60.305 17.1537L62.4648 21.9481L62.891 21.7607Z" fill="#FEFEFE" stroke="#FEFEFE" stroke-width="0.133333"/>
<path d="M60.1919 22.9989L57.8634 18.2799L57.444 18.4816L59.7725 23.2013L60.1919 22.9989Z" fill="#FEFEFE" stroke="#FEFEFE" stroke-width="0.133333"/>
<path d="M57.5382 24.3285L55.0434 19.6907L54.6315 19.9074L57.1263 24.5452L57.5382 24.3285Z" fill="#FEFEFE" stroke="#FEFEFE" stroke-width="0.133333"/>
<path d="M56.9946 28.8038L52.4827 21.08L51.6629 21.5478L56.1749 29.2723L56.9946 28.8038Z" fill="#FEFEFE" stroke="#FEFEFE" stroke-width="0.133333"/>
<path d="M52.3802 27.2593L49.5611 22.8004L49.1655 23.0451L51.9845 27.504L52.3802 27.2593Z" fill="#FEFEFE" stroke="#FEFEFE" stroke-width="0.133333"/>
<path d="M49.8819 28.8574L46.9058 24.4955L46.5192 24.7533L49.4953 29.1153L49.8819 28.8574Z" fill="#FEFEFE" stroke="#FEFEFE" stroke-width="0.133333"/>
<path d="M47.441 30.5404L44.3115 26.2818L43.9342 26.5522L47.0636 30.8114L47.441 30.5404Z" fill="#FEFEFE" stroke="#FEFEFE" stroke-width="0.133333"/>
<path d="M45.0612 32.306L41.7818 28.1553L41.4143 28.4395L44.6938 32.5895L45.0612 32.306Z" fill="#FEFEFE" stroke="#FEFEFE" stroke-width="0.133333"/>
<path d="M48.4989 40.0973L39.7339 29.7719L38.5493 30.7545L47.3141 41.0799L48.4989 40.0973Z" fill="#FEFEFE" stroke="#FEFEFE" stroke-width="0.133333"/>
<path d="M40.4967 36.0754L36.9291 32.159L36.5827 32.4671L40.1502 36.3841L40.4967 36.0754Z" fill="#FEFEFE" stroke="#FEFEFE" stroke-width="0.133333"/>
<path d="M38.3157 38.0754L34.6121 34.2849L34.2769 34.605L37.9804 38.3955L38.3157 38.0754Z" fill="#FEFEFE" stroke="#FEFEFE" stroke-width="0.133333"/>
<path d="M35.8843 40.5738L31.9533 36.8206L32.3702 36.3944L36.3013 40.1469L35.8843 40.5738Z" fill="#FEFEFE"/>
<path d="M33.8647 42.7299L29.8028 39.1146L30.2044 38.6736L34.2663 42.2889L33.8647 42.7299Z" fill="#FEFEFE"/>
<path d="M34.6053 47.4902L27.581 41.6629L28.2754 40.8451L35.2998 46.6718L34.6053 47.4902Z" fill="#FEFEFE"/>
<path d="M30.333 46.7851L26.1342 43.5433L25.8475 43.9062L30.0463 47.148L30.333 46.7851Z" fill="#FEFEFE" stroke="#FEFEFE" stroke-width="0.133333"/>
<path d="M28.5342 49.128L24.2254 46.0344L23.9516 46.407L28.2605 49.5006L28.5342 49.128Z" fill="#FEFEFE" stroke="#FEFEFE" stroke-width="0.133333"/>
<path d="M26.8183 51.5314L22.4052 48.5895L22.1447 48.9712L26.5578 51.9131L26.8183 51.5314Z" fill="#FEFEFE" stroke="#FEFEFE" stroke-width="0.133333"/>
<path d="M25.1885 53.9922L20.6771 51.2051L20.4303 51.5959L24.9418 54.3824L25.1885 53.9922Z" fill="#FEFEFE" stroke="#FEFEFE" stroke-width="0.133333"/>
<path d="M31.1111 60.151L19.3125 53.4171L18.5397 54.7406L30.3383 61.4744L31.1111 60.151Z" fill="#FEFEFE" stroke="#FEFEFE" stroke-width="0.133333"/>
<path d="M22.1953 59.0754L17.5026 56.6083L17.2839 57.0151L21.9768 59.4815L22.1953 59.0754Z" fill="#FEFEFE" stroke="#FEFEFE" stroke-width="0.133333"/>
<path d="M20.8354 61.691L16.0606 59.3886L15.8566 59.8021L20.6314 62.1045L20.8354 61.691Z" fill="#FEFEFE" stroke="#FEFEFE" stroke-width="0.133333"/>
<path d="M19.5679 64.3523L14.7171 62.2168L14.5277 62.6372L19.3786 64.7727L19.5679 64.3523Z" fill="#FEFEFE" stroke="#FEFEFE" stroke-width="0.133333"/>
<path d="M18.3977 67.0563L13.4741 65.0898L13.2998 65.5165L18.2234 67.483L18.3977 67.0563Z" fill="#FEFEFE" stroke="#FEFEFE" stroke-width="0.133333"/>
<path d="M20.89 70.8287L12.4164 67.7806L12.093 68.6591L20.5668 71.7072L20.89 70.8287Z" fill="#FEFEFE" stroke="#FEFEFE" stroke-width="0.133333"/>
<path d="M16.3452 72.577L11.2975 70.9558L11.1537 71.3932L16.2013 73.0151L16.3452 72.577Z" fill="#FEFEFE" stroke="#FEFEFE" stroke-width="0.133333"/>
<path d="M15.4701 75.3878L10.3648 73.9413L10.2366 74.3832L15.3417 75.8304L15.4701 75.3878Z" fill="#FEFEFE" stroke="#FEFEFE" stroke-width="0.133333"/>
<path d="M14.6934 78.2287L9.53906 76.9577L9.42643 77.4043L14.5808 78.6753L14.6934 78.2287Z" fill="#FEFEFE" stroke="#FEFEFE" stroke-width="0.133333"/>
<path d="M14.0188 81.0925L8.82104 79.9999L8.72428 80.4498L13.922 81.5424L14.0188 81.0925Z" fill="#FEFEFE" stroke="#FEFEFE" stroke-width="0.133333"/>
<path d="M21.7214 84.8779L8.30357 82.5397L8.03504 84.0439L21.4531 86.3821L21.7214 84.8779Z" fill="#FEFEFE" stroke="#FEFEFE" stroke-width="0.133333"/>
<path d="M186.667 84.0439L186.399 82.5397L172.98 84.8779L173.249 86.3821L186.667 84.0439Z" fill="#E53935" stroke="#E53935" stroke-width="0.133333"/>
<path d="M185.979 80.4498L185.882 79.9999L180.683 81.0925L180.78 81.5425L185.979 80.4498Z" fill="#E53935" stroke="#E53935" stroke-width="0.133333"/>
<path d="M185.276 77.4043L185.163 76.9577L180.008 78.2287L180.121 78.6753L185.276 77.4043Z" fill="#E53935" stroke="#E53935" stroke-width="0.133333"/>
<path d="M184.465 74.3832L184.337 73.9413L179.232 75.3878L179.36 75.8304L184.465 74.3832Z" fill="#E53935" stroke="#E53935" stroke-width="0.133333"/>
<path d="M183.548 71.3932L183.404 70.9558L178.357 72.577L178.5 73.0151L183.548 71.3932Z" fill="#E53935" stroke="#E53935" stroke-width="0.133333"/>
<path d="M182.609 68.6591L182.285 67.7806L173.813 70.8287L174.136 71.7072L182.609 68.6591Z" fill="#E53935" stroke="#E53935" stroke-width="0.133333"/>
<path d="M181.402 65.5164L181.228 65.0898L176.304 67.0563L176.478 67.483L181.402 65.5164Z" fill="#E53935" stroke="#E53935" stroke-width="0.133333"/>
<path d="M180.174 62.6372L179.984 62.2168L175.134 64.3523L175.323 64.7727L180.174 62.6372Z" fill="#E53935" stroke="#E53935" stroke-width="0.133333"/>
<path d="M178.846 59.8021L178.642 59.3886L173.868 61.691L174.071 62.1045L178.846 59.8021Z" fill="#E53935" stroke="#E53935" stroke-width="0.133333"/>
<path d="M177.418 57.0151L177.199 56.6083L172.506 59.0754L172.725 59.4815L177.418 57.0151Z" fill="#E53935" stroke="#E53935" stroke-width="0.133333"/>
<path d="M176.163 54.7406L175.39 53.4171L163.59 60.151L164.363 61.4744L176.163 54.7406Z" fill="#E53935" stroke="#E53935" stroke-width="0.133333"/>
<path d="M174.271 51.5959L174.025 51.2051L169.513 53.9923L169.76 54.3824L174.271 51.5959Z" fill="#E53935" stroke="#E53935" stroke-width="0.133333"/>
<path d="M172.557 48.9712L172.297 48.5895L167.883 51.5314L168.144 51.9131L172.557 48.9712Z" fill="#E53935" stroke="#E53935" stroke-width="0.133333"/>
<path d="M170.75 46.407L170.476 46.0344L166.167 49.128L166.441 49.5006L170.75 46.407Z" fill="#E53935" stroke="#E53935" stroke-width="0.133333"/>
<path d="M168.854 43.9062L168.567 43.5433L164.369 46.7851L164.655 47.148L168.854 43.9062Z" fill="#E53935" stroke="#E53935" stroke-width="0.133333"/>
<path d="M167.026 41.6546L166.418 40.9385L159.497 46.68L160.105 47.3968L167.026 41.6546Z" fill="#E53935" stroke="#E53935" stroke-width="0.133333"/>
<path d="M164.804 39.1096L164.492 38.7672L160.53 42.2939L160.841 42.6362L164.804 39.1096Z" fill="#E53935" stroke="#E53935" stroke-width="0.133333"/>
<path d="M162.654 36.8196L162.331 36.4882L158.495 40.1485L158.819 40.4801L162.654 36.8196Z" fill="#E53935" stroke="#E53935" stroke-width="0.133333"/>
<path d="M160.425 34.605L160.089 34.2849L156.386 38.0754L156.721 38.3955L160.425 34.605Z" fill="#E53935" stroke="#E53935" stroke-width="0.133333"/>
<path d="M158.119 32.4671L157.773 32.159L154.205 36.0754L154.552 36.3841L158.119 32.4671Z" fill="#E53935" stroke="#E53935" stroke-width="0.133333"/>
<path d="M156.152 30.7545L154.967 29.7719L146.202 40.0973L147.387 41.0799L156.152 30.7545Z" fill="#E53935" stroke="#E53935" stroke-width="0.133333"/>
<path d="M153.288 28.4395L152.92 28.1553L149.64 32.3059L150.008 32.5896L153.288 28.4395Z" fill="#E53935" stroke="#E53935" stroke-width="0.133333"/>
<path d="M150.767 26.5522L150.39 26.2819L147.261 30.5404L147.638 30.8114L150.767 26.5522Z" fill="#E53935" stroke="#E53935" stroke-width="0.133333"/>
<path d="M148.184 24.7533L147.797 24.4954L144.821 28.8574L145.208 29.1153L148.184 24.7533Z" fill="#E53935" stroke="#E53935" stroke-width="0.133333"/>
<path d="M145.537 23.0452L145.142 22.8011L142.323 27.2608L142.718 27.5049L145.537 23.0452Z" fill="#E53935" stroke="#E53935" stroke-width="0.133333"/>
<path d="M143.04 21.5478L142.22 21.08L137.708 28.8053L138.528 29.273L143.04 21.5478Z" fill="#E53935" stroke="#E53935" stroke-width="0.133333"/>
<path d="M140.071 19.9074L139.659 19.6907L137.164 24.3285L137.577 24.5452L140.071 19.9074Z" fill="#E53935" stroke="#E53935" stroke-width="0.133333"/>
<path d="M137.259 18.4816L136.839 18.2799L134.511 22.9989L134.931 23.2013L137.259 18.4816Z" fill="#E53935" stroke="#E53935" stroke-width="0.133333"/>
<path d="M134.397 17.1537L133.971 16.9663L131.811 21.7607L132.237 21.9481L134.397 17.1537Z" fill="#E53935" stroke="#E53935" stroke-width="0.133333"/>
<path d="M131.49 15.9253L131.058 15.7522L129.069 20.6184L129.501 20.791L131.49 15.9253Z" fill="#E53935" stroke="#E53935" stroke-width="0.133333"/>
<path d="M129.05 14.9808L127.597 14.4582L122.94 27.1057L124.393 27.629L129.05 14.9808Z" fill="#E53935" stroke="#E53935" stroke-width="0.133333"/>
<path d="M125.556 13.7737L125.113 13.6309L123.472 18.6194L123.916 18.7621L125.556 13.7737Z" fill="#E53935" stroke="#E53935" stroke-width="0.133333"/>
<path d="M122.536 12.8521L122.087 12.7247L120.624 17.77L121.072 17.8973L122.536 12.8521Z" fill="#E53935" stroke="#E53935" stroke-width="0.133333"/>
<path d="M119.485 12.0356L119.032 11.9238L117.747 17.0179L118.2 17.1292L119.485 12.0356Z" fill="#E53935" stroke="#E53935" stroke-width="0.133333"/>
<path d="M116.407 11.3261L115.951 11.2297L114.846 16.3663L115.302 16.462L116.407 11.3261Z" fill="#E53935" stroke="#E53935" stroke-width="0.133333"/>
<path d="M113.542 10.7626L112.61 10.6004L111.043 19.3846L111.975 19.5468L113.542 10.7626Z" fill="#E53935" stroke="#E53935" stroke-width="0.133333"/>
<path d="M110.185 10.224L109.723 10.1597L108.981 15.3678L109.444 15.4326L110.185 10.224Z" fill="#E53935" stroke="#E53935" stroke-width="0.133333"/>
<path d="M107.049 9.83504L106.585 9.78687L106.029 15.0215L106.493 15.0691L107.049 9.83504Z" fill="#E53935" stroke="#E53935" stroke-width="0.133333"/>
<path d="M103.9 9.55585L103.434 9.52373L103.063 14.7764L103.529 14.8086L103.9 9.55585Z" fill="#E53935" stroke="#E53935" stroke-width="0.133333"/>
<path d="M100.745 9.38424L100.279 9.36818L100.092 14.6332L100.559 14.6492L100.745 9.38424Z" fill="#E53935" stroke="#E53935" stroke-width="0.133333"/>
<path d="M39.9171 87.5609L92.9135 98.39C92.8426 97.2287 93.0648 96.0907 93.534 95.0645L40.1013 86.5713L39.9171 87.5609Z" fill="#FEFEFE"/>
<path d="M102.033 97.28C102.033 99.8357 99.9368 101.908 97.3514 101.908C94.7659 101.908 92.6698 99.8357 92.6698 97.28C92.6698 94.725 94.7659 92.653 97.3514 92.653C99.9368 92.653 102.033 94.725 102.033 97.28Z" fill="#FEFEFE"/>
<path d="M194 96.8954C194 44.4861 151.019 2 98 2C44.9807 2 2 44.4861 2 96.8954" stroke="#FEFEFE" stroke-width="4"/>
<path d="M29.8974 89.0422C29.3174 89.0422 28.8074 88.8855 28.3674 88.5722C27.9274 88.2522 27.5841 87.8122 27.3374 87.2522C27.0907 86.6855 26.9674 86.0389 26.9674 85.3122C26.9674 84.5855 27.0907 83.9489 27.3374 83.4022C27.5841 82.8489 27.9274 82.4189 28.3674 82.1122C28.8074 81.7989 29.3174 81.6422 29.8974 81.6422C30.4774 81.6422 30.9841 81.7989 31.4174 82.1122C31.8574 82.4189 32.2007 82.8489 32.4474 83.4022C32.6941 83.9489 32.8174 84.5855 32.8174 85.3122C32.8174 86.0455 32.6941 86.6922 32.4474 87.2522C32.2007 87.8122 31.8574 88.2522 31.4174 88.5722C30.9774 88.8855 30.4707 89.0422 29.8974 89.0422ZM29.8974 88.1322C30.2774 88.1322 30.6007 88.0155 30.8674 87.7822C31.1341 87.5422 31.3341 87.2122 31.4674 86.7922C31.6074 86.3655 31.6774 85.8689 31.6774 85.3022C31.6774 84.7422 31.6074 84.2555 31.4674 83.8422C31.3341 83.4289 31.1341 83.1122 30.8674 82.8922C30.6074 82.6655 30.2841 82.5522 29.8974 82.5522C29.5041 82.5522 29.1741 82.6655 28.9074 82.8922C28.6474 83.1189 28.4474 83.4389 28.3074 83.8522C28.1741 84.2589 28.1074 84.7422 28.1074 85.3022C28.1074 85.8689 28.1774 86.3655 28.3174 86.7922C28.4574 87.2189 28.6574 87.5489 28.9174 87.7822C29.1841 88.0155 29.5107 88.1322 29.8974 88.1322Z" fill="#FEFEFE"/>
<path d="M38.2387 67.2419C37.7454 67.2419 37.3087 67.1519 36.9287 66.9719C36.5554 66.7919 36.2521 66.5319 36.0187 66.1919C35.7921 65.8452 35.6521 65.4252 35.5987 64.9319H36.6887C36.7554 65.4052 36.9187 65.7652 37.1787 66.0119C37.4387 66.2519 37.7854 66.3719 38.2187 66.3719C38.6187 66.3719 38.9387 66.2619 39.1787 66.0419C39.4187 65.8219 39.5387 65.5186 39.5387 65.1319C39.5387 64.7386 39.4221 64.4186 39.1887 64.1719C38.9554 63.9252 38.6221 63.8019 38.1887 63.8019H37.3787V62.9519H38.1587C38.5454 62.9519 38.8454 62.8486 39.0587 62.6419C39.2721 62.4352 39.3787 62.1619 39.3787 61.8219C39.3787 61.4752 39.2754 61.2052 39.0687 61.0119C38.8621 60.8119 38.5654 60.7119 38.1787 60.7119C37.8187 60.7119 37.5087 60.8186 37.2487 61.0319C36.9954 61.2452 36.8421 61.5552 36.7887 61.9619H35.6987C35.7454 61.5286 35.8754 61.1552 36.0887 60.8419C36.3087 60.5219 36.5987 60.2752 36.9587 60.1019C37.3254 59.9286 37.7421 59.8419 38.2087 59.8419C38.6687 59.8419 39.0687 59.9186 39.4087 60.0719C39.7554 60.2252 40.0221 60.4452 40.2087 60.7319C40.4021 61.0186 40.4987 61.3552 40.4987 61.7419C40.4987 62.0752 40.4221 62.3719 40.2687 62.6319C40.1154 62.8919 39.9121 63.0952 39.6587 63.2419C39.4121 63.3819 39.1354 63.4519 38.8287 63.4519L38.7887 63.2419C39.1754 63.2419 39.5087 63.3286 39.7887 63.5019C40.0754 63.6686 40.2954 63.8986 40.4487 64.1919C40.6021 64.4786 40.6787 64.8086 40.6787 65.1819C40.6787 65.5952 40.5721 65.9586 40.3587 66.2719C40.1521 66.5786 39.8654 66.8186 39.4987 66.9919C39.1321 67.1586 38.7121 67.2419 38.2387 67.2419ZM44.5174 67.2419C43.9374 67.2419 43.4274 67.0852 42.9874 66.7719C42.5474 66.4519 42.2041 66.0119 41.9574 65.4519C41.7107 64.8852 41.5874 64.2386 41.5874 63.5119C41.5874 62.7852 41.7107 62.1486 41.9574 61.6019C42.2041 61.0486 42.5474 60.6186 42.9874 60.3119C43.4274 59.9986 43.9374 59.8419 44.5174 59.8419C45.0974 59.8419 45.6041 59.9986 46.0374 60.3119C46.4774 60.6186 46.8207 61.0486 47.0674 61.6019C47.3141 62.1486 47.4374 62.7852 47.4374 63.5119C47.4374 64.2452 47.3141 64.8919 47.0674 65.4519C46.8207 66.0119 46.4774 66.4519 46.0374 66.7719C45.5974 67.0852 45.0907 67.2419 44.5174 67.2419ZM44.5174 66.3319C44.8974 66.3319 45.2207 66.2152 45.4874 65.9819C45.7541 65.7419 45.9541 65.4119 46.0874 64.9919C46.2274 64.5652 46.2974 64.0686 46.2974 63.5019C46.2974 62.9419 46.2274 62.4552 46.0874 62.0419C45.9541 61.6286 45.7541 61.3119 45.4874 61.0919C45.2274 60.8652 44.9041 60.7519 44.5174 60.7519C44.1241 60.7519 43.7941 60.8652 43.5274 61.0919C43.2674 61.3186 43.0674 61.6386 42.9274 62.0519C42.7941 62.4586 42.7274 62.9419 42.7274 63.5019C42.7274 64.0686 42.7974 64.5652 42.9374 64.9919C43.0774 65.4186 43.2774 65.7486 43.5374 65.9819C43.8041 66.2152 44.1307 66.3319 44.5174 66.3319Z" fill="#FEFEFE"/>
<path d="M49.9779 50.5711C49.0979 50.5711 48.4179 50.2645 47.9379 49.6511C47.4646 49.0311 47.2279 48.1445 47.2279 46.9911C47.2279 46.1911 47.3412 45.5078 47.5679 44.9411C47.8012 44.3678 48.1279 43.9311 48.5479 43.6311C48.9746 43.3245 49.4779 43.1711 50.0579 43.1711C50.6979 43.1711 51.2246 43.3511 51.6379 43.7111C52.0579 44.0711 52.3112 44.5645 52.3979 45.1911H51.3079C51.2546 44.8178 51.1146 44.5345 50.8879 44.3411C50.6679 44.1411 50.3879 44.0411 50.0479 44.0411C49.4879 44.0411 49.0679 44.2811 48.7879 44.7611C48.5079 45.2411 48.3679 45.9645 48.3679 46.9311V47.5811L48.1079 47.4911C48.1746 47.1778 48.3079 46.9045 48.5079 46.6711C48.7079 46.4378 48.9546 46.2578 49.2479 46.1311C49.5479 45.9978 49.8746 45.9311 50.2279 45.9311C50.6879 45.9311 51.0879 46.0278 51.4279 46.2211C51.7746 46.4145 52.0412 46.6878 52.2279 47.0411C52.4212 47.3878 52.5179 47.7911 52.5179 48.2511C52.5179 48.7178 52.4112 49.1278 52.1979 49.4811C51.9912 49.8278 51.6979 50.0978 51.3179 50.2911C50.9379 50.4778 50.4912 50.5711 49.9779 50.5711ZM49.9679 49.7011C50.3812 49.7011 50.7179 49.5745 50.9779 49.3211C51.2446 49.0611 51.3779 48.7045 51.3779 48.2511C51.3779 47.7845 51.2479 47.4245 50.9879 47.1711C50.7279 46.9111 50.3812 46.7811 49.9479 46.7811C49.5212 46.7811 49.1646 46.9045 48.8779 47.1511C48.5912 47.3978 48.4479 47.7411 48.4479 48.1811C48.4479 48.4878 48.5146 48.7545 48.6479 48.9811C48.7812 49.2078 48.9612 49.3845 49.1879 49.5111C49.4212 49.6378 49.6812 49.7011 49.9679 49.7011ZM56.3396 50.5711C55.7596 50.5711 55.2496 50.4145 54.8096 50.1011C54.3696 49.7811 54.0262 49.3411 53.7796 48.7811C53.5329 48.2145 53.4096 47.5678 53.4096 46.8411C53.4096 46.1145 53.5329 45.4778 53.7796 44.9311C54.0262 44.3778 54.3696 43.9478 54.8096 43.6411C55.2496 43.3278 55.7596 43.1711 56.3396 43.1711C56.9196 43.1711 57.4262 43.3278 57.8596 43.6411C58.2996 43.9478 58.6429 44.3778 58.8896 44.9311C59.1362 45.4778 59.2596 46.1145 59.2596 46.8411C59.2596 47.5745 59.1362 48.2211 58.8896 48.7811C58.6429 49.3411 58.2996 49.7811 57.8596 50.1011C57.4196 50.4145 56.9129 50.5711 56.3396 50.5711ZM56.3396 49.6611C56.7196 49.6611 57.0429 49.5445 57.3096 49.3111C57.5762 49.0711 57.7762 48.7411 57.9096 48.3211C58.0496 47.8945 58.1196 47.3978 58.1196 46.8311C58.1196 46.2711 58.0496 45.7845 57.9096 45.3711C57.7762 44.9578 57.5762 44.6411 57.3096 44.4211C57.0496 44.1945 56.7262 44.0811 56.3396 44.0811C55.9462 44.0811 55.6162 44.1945 55.3496 44.4211C55.0896 44.6478 54.8896 44.9678 54.7496 45.3811C54.6162 45.7878 54.5496 46.2711 54.5496 46.8311C54.5496 47.3978 54.6196 47.8945 54.7596 48.3211C54.8996 48.7478 55.0996 49.0778 55.3596 49.3111C55.6262 49.5445 55.9529 49.6611 56.3396 49.6611Z" fill="#FEFEFE"/>
<path d="M69.1132 36.4651C68.6599 36.4651 68.2599 36.3784 67.9132 36.2051C67.5732 36.0317 67.2999 35.7817 67.0932 35.4551C66.8865 35.1284 66.7565 34.7284 66.7032 34.2551H67.7932C67.8532 34.7217 67.9999 35.0617 68.2332 35.2751C68.4665 35.4884 68.7699 35.5951 69.1432 35.5951C69.4232 35.5951 69.6599 35.5384 69.8532 35.4251C70.0532 35.3117 70.2132 35.1384 70.3332 34.9051C70.4599 34.6717 70.5532 34.3751 70.6132 34.0151C70.6732 33.6484 70.7032 33.2117 70.7032 32.7051V32.0551L70.9932 32.0751C70.9265 32.3884 70.7932 32.6651 70.5932 32.9051C70.3932 33.1384 70.1432 33.3184 69.8432 33.4451C69.5499 33.5717 69.2232 33.6351 68.8632 33.6351C68.4165 33.6351 68.0232 33.5384 67.6832 33.3451C67.3432 33.1517 67.0765 32.8851 66.8832 32.5451C66.6899 32.1984 66.5932 31.8051 66.5932 31.3651C66.5932 30.8984 66.6999 30.4951 66.9132 30.1551C67.1265 29.8084 67.4232 29.5417 67.8032 29.3551C68.1899 29.1617 68.6332 29.0651 69.1332 29.0651C70.0199 29.0651 70.6965 29.3751 71.1632 29.9951C71.6365 30.6151 71.8732 31.5184 71.8732 32.7051C71.8732 33.4984 71.7632 34.1784 71.5432 34.7451C71.3299 35.3051 71.0165 35.7317 70.6032 36.0251C70.1965 36.3184 69.6999 36.4651 69.1132 36.4651ZM69.1732 32.7851C69.6065 32.7851 69.9532 32.6651 70.2132 32.4251C70.4799 32.1851 70.6132 31.8517 70.6132 31.4251C70.6132 31.1384 70.5499 30.8851 70.4232 30.6651C70.3032 30.4384 70.1332 30.2617 69.9132 30.1351C69.6932 30.0017 69.4365 29.9351 69.1432 29.9351C68.7232 29.9351 68.3865 30.0684 68.1332 30.3351C67.8865 30.5951 67.7632 30.9417 67.7632 31.3751C67.7632 31.7951 67.8865 32.1351 68.1332 32.3951C68.3799 32.6551 68.7265 32.7851 69.1732 32.7851ZM75.8332 36.4651C75.2532 36.4651 74.7432 36.3084 74.3032 35.9951C73.8632 35.6751 73.5199 35.2351 73.2732 34.6751C73.0265 34.1084 72.9032 33.4617 72.9032 32.7351C72.9032 32.0084 73.0265 31.3717 73.2732 30.8251C73.5199 30.2717 73.8632 29.8417 74.3032 29.5351C74.7432 29.2217 75.2532 29.0651 75.8332 29.0651C76.4132 29.0651 76.9199 29.2217 77.3532 29.5351C77.7932 29.8417 78.1365 30.2717 78.3832 30.8251C78.6299 31.3717 78.7532 32.0084 78.7532 32.7351C78.7532 33.4684 78.6299 34.1151 78.3832 34.6751C78.1365 35.2351 77.7932 35.6751 77.3532 35.9951C76.9132 36.3084 76.4065 36.4651 75.8332 36.4651ZM75.8332 35.5551C76.2132 35.5551 76.5365 35.4384 76.8032 35.2051C77.0699 34.9651 77.2699 34.6351 77.4032 34.2151C77.5432 33.7884 77.6132 33.2917 77.6132 32.7251C77.6132 32.1651 77.5432 31.6784 77.4032 31.2651C77.2699 30.8517 77.0699 30.5351 76.8032 30.3151C76.5432 30.0884 76.2199 29.9751 75.8332 29.9751C75.4399 29.9751 75.1099 30.0884 74.8432 30.3151C74.5832 30.5417 74.3832 30.8617 74.2432 31.2751C74.1099 31.6817 74.0432 32.1651 74.0432 32.7251C74.0432 33.2917 74.1132 33.7884 74.2532 34.2151C74.3932 34.6417 74.5932 34.9717 74.8532 35.2051C75.1199 35.4384 75.4465 35.5551 75.8332 35.5551Z" fill="#FEFEFE"/>
<path d="M91.3708 31.2356V25.0256L91.5608 25.1056C91.4741 25.2923 91.3241 25.4756 91.1108 25.6556C90.8974 25.8356 90.6508 25.9923 90.3708 26.1256C90.0908 26.2523 89.7941 26.3423 89.4808 26.3956V25.3756C89.7741 25.3289 90.0608 25.2423 90.3408 25.1156C90.6208 24.9823 90.8708 24.8223 91.0908 24.6356C91.3108 24.4423 91.4741 24.2423 91.5808 24.0356H92.4008V31.2356H91.3708ZM93.4973 31.2356V30.3656C94.1973 29.7923 94.7806 29.2923 95.2473 28.8656C95.7206 28.4389 96.0973 28.0589 96.3773 27.7256C96.6573 27.3923 96.8573 27.0889 96.9773 26.8156C97.0973 26.5423 97.1573 26.2689 97.1573 25.9956C97.1573 25.6223 97.0473 25.3323 96.8273 25.1256C96.6139 24.9123 96.3173 24.8056 95.9373 24.8056C95.5439 24.8056 95.2239 24.9223 94.9773 25.1556C94.7306 25.3823 94.5773 25.7056 94.5173 26.1256H93.4373C93.5039 25.4656 93.7606 24.9356 94.2073 24.5356C94.6606 24.1356 95.2573 23.9356 95.9973 23.9356C96.7039 23.9356 97.2606 24.1223 97.6673 24.4956C98.0806 24.8689 98.2873 25.3823 98.2873 26.0356C98.2873 26.3689 98.2239 26.7023 98.0973 27.0356C97.9773 27.3623 97.7773 27.7056 97.4973 28.0656C97.2173 28.4189 96.8406 28.8123 96.3673 29.2456C95.9006 29.6723 95.3206 30.1589 94.6273 30.7056L94.3773 30.3656H98.4173V31.2356H93.4973ZM102.103 31.3356C101.523 31.3356 101.013 31.1789 100.573 30.8656C100.133 30.5456 99.7896 30.1056 99.543 29.5456C99.2963 28.9789 99.173 28.3323 99.173 27.6056C99.173 26.8789 99.2963 26.2423 99.543 25.6956C99.7896 25.1423 100.133 24.7123 100.573 24.4056C101.013 24.0923 101.523 23.9356 102.103 23.9356C102.683 23.9356 103.19 24.0923 103.623 24.4056C104.063 24.7123 104.406 25.1423 104.653 25.6956C104.9 26.2423 105.023 26.8789 105.023 27.6056C105.023 28.3389 104.9 28.9856 104.653 29.5456C104.406 30.1056 104.063 30.5456 103.623 30.8656C103.183 31.1789 102.676 31.3356 102.103 31.3356ZM102.103 30.4256C102.483 30.4256 102.806 30.3089 103.073 30.0756C103.34 29.8356 103.54 29.5056 103.673 29.0856C103.813 28.6589 103.883 28.1623 103.883 27.5956C103.883 27.0356 103.813 26.5489 103.673 26.1356C103.54 25.7223 103.34 25.4056 103.073 25.1856C102.813 24.9589 102.49 24.8456 102.103 24.8456C101.71 24.8456 101.38 24.9589 101.113 25.1856C100.853 25.4123 100.653 25.7323 100.513 26.1456C100.38 26.5523 100.313 27.0356 100.313 27.5956C100.313 28.1623 100.383 28.6589 100.523 29.0856C100.663 29.5123 100.863 29.8423 101.123 30.0756C101.39 30.3089 101.716 30.4256 102.103 30.4256Z" fill="#FEFEFE"/>
<path d="M117.273 36.3651V30.1551L117.463 30.2351C117.376 30.4217 117.226 30.6051 117.013 30.7851C116.799 30.9651 116.553 31.1217 116.273 31.2551C115.993 31.3817 115.696 31.4717 115.383 31.5251V30.5051C115.676 30.4584 115.963 30.3717 116.243 30.2451C116.523 30.1117 116.773 29.9517 116.993 29.7651C117.213 29.5717 117.376 29.3717 117.483 29.1651H118.303V36.3651H117.273ZM121.882 36.4651C121.155 36.4651 120.572 36.2751 120.132 35.8951C119.692 35.5084 119.422 34.9984 119.322 34.3651H120.412C120.492 34.7517 120.662 35.0551 120.922 35.2751C121.182 35.4884 121.492 35.5951 121.852 35.5951C122.238 35.5951 122.562 35.4717 122.822 35.2251C123.088 34.9717 123.222 34.5784 123.222 34.0451C123.222 33.5184 123.092 33.1217 122.832 32.8551C122.572 32.5817 122.238 32.4451 121.832 32.4451C121.558 32.4451 121.315 32.5051 121.102 32.6251C120.888 32.7384 120.735 32.8884 120.642 33.0751H119.682L120.032 29.1651H123.942V30.0351H120.532L120.992 29.8051L120.782 32.4851L120.492 32.4151C120.625 32.1884 120.822 32.0051 121.082 31.8651C121.348 31.7184 121.675 31.6451 122.062 31.6451C122.508 31.6451 122.905 31.7417 123.252 31.9351C123.598 32.1284 123.868 32.4051 124.062 32.7651C124.255 33.1251 124.352 33.5517 124.352 34.0451C124.352 34.5517 124.248 34.9851 124.042 35.3451C123.842 35.7051 123.555 35.9817 123.182 36.1751C122.815 36.3684 122.382 36.4651 121.882 36.4651ZM128.093 36.4651C127.513 36.4651 127.003 36.3084 126.563 35.9951C126.123 35.6751 125.78 35.2351 125.533 34.6751C125.286 34.1084 125.163 33.4617 125.163 32.7351C125.163 32.0084 125.286 31.3717 125.533 30.8251C125.78 30.2717 126.123 29.8417 126.563 29.5351C127.003 29.2217 127.513 29.0651 128.093 29.0651C128.673 29.0651 129.18 29.2217 129.613 29.5351C130.053 29.8417 130.396 30.2717 130.643 30.8251C130.89 31.3717 131.013 32.0084 131.013 32.7351C131.013 33.4684 130.89 34.1151 130.643 34.6751C130.396 35.2351 130.053 35.6751 129.613 35.9951C129.173 36.3084 128.666 36.4651 128.093 36.4651ZM128.093 35.5551C128.473 35.5551 128.796 35.4384 129.063 35.2051C129.33 34.9651 129.53 34.6351 129.663 34.2151C129.803 33.7884 129.873 33.2917 129.873 32.7251C129.873 32.1651 129.803 31.6784 129.663 31.2651C129.53 30.8517 129.33 30.5351 129.063 30.3151C128.803 30.0884 128.48 29.9751 128.093 29.9751C127.7 29.9751 127.37 30.0884 127.103 30.3151C126.843 30.5417 126.643 30.8617 126.503 31.2751C126.37 31.6817 126.303 32.1651 126.303 32.7251C126.303 33.2917 126.373 33.7884 126.513 34.2151C126.653 34.6417 126.853 34.9717 127.113 35.2051C127.38 35.4384 127.706 35.5551 128.093 35.5551Z" fill="#E53935"/>
<path d="M131.401 50.4711V44.2611L131.591 44.3411C131.505 44.5278 131.355 44.7111 131.141 44.8911C130.928 45.0711 130.681 45.2278 130.401 45.3611C130.121 45.4878 129.825 45.5778 129.511 45.6311V44.6111C129.805 44.5645 130.091 44.4778 130.371 44.3511C130.651 44.2178 130.901 44.0578 131.121 43.8711C131.341 43.6778 131.505 43.4778 131.611 43.2711H132.431V50.4711H131.401ZM136.108 50.5711C135.588 50.5711 135.135 50.4811 134.748 50.3011C134.368 50.1211 134.072 49.8745 133.858 49.5611C133.652 49.2411 133.548 48.8811 133.548 48.4811C133.548 48.1211 133.625 47.7978 133.778 47.5111C133.938 47.2245 134.155 46.9978 134.428 46.8311C134.708 46.6578 135.018 46.5711 135.358 46.5711L135.428 46.7811C135.088 46.7811 134.792 46.7111 134.538 46.5711C134.285 46.4245 134.085 46.2245 133.938 45.9711C133.798 45.7111 133.728 45.4211 133.728 45.1011C133.728 44.7211 133.828 44.3878 134.028 44.1011C134.228 43.8078 134.505 43.5811 134.858 43.4211C135.218 43.2545 135.638 43.1711 136.118 43.1711C136.592 43.1711 137.005 43.2545 137.358 43.4211C137.712 43.5811 137.988 43.8078 138.188 44.1011C138.388 44.3878 138.488 44.7211 138.488 45.1011C138.488 45.4211 138.415 45.7078 138.268 45.9611C138.128 46.2145 137.932 46.4145 137.678 46.5611C137.425 46.7078 137.125 46.7811 136.778 46.7811L136.858 46.5711C137.205 46.5711 137.515 46.6578 137.788 46.8311C138.062 46.9978 138.275 47.2245 138.428 47.5111C138.588 47.7978 138.668 48.1245 138.668 48.4911C138.668 48.8911 138.562 49.2478 138.348 49.5611C138.142 49.8745 137.845 50.1211 137.458 50.3011C137.078 50.4811 136.628 50.5711 136.108 50.5711ZM136.108 49.7011C136.548 49.7011 136.895 49.5845 137.148 49.3511C137.408 49.1111 137.538 48.7911 137.538 48.3911C137.538 47.9978 137.408 47.6878 137.148 47.4611C136.895 47.2345 136.548 47.1211 136.108 47.1211C135.668 47.1211 135.318 47.2345 135.058 47.4611C134.805 47.6878 134.678 47.9978 134.678 48.3911C134.678 48.7911 134.805 49.1111 135.058 49.3511C135.318 49.5845 135.668 49.7011 136.108 49.7011ZM136.108 46.2911C136.495 46.2911 136.798 46.1911 137.018 45.9911C137.245 45.7911 137.358 45.5211 137.358 45.1811C137.358 44.8345 137.242 44.5578 137.008 44.3511C136.782 44.1445 136.482 44.0411 136.108 44.0411C135.728 44.0411 135.425 44.1445 135.198 44.3511C134.972 44.5578 134.858 44.8345 134.858 45.1811C134.858 45.5211 134.972 45.7911 135.198 45.9911C135.425 46.1911 135.728 46.2911 136.108 46.2911ZM142.505 50.5711C141.925 50.5711 141.415 50.4145 140.975 50.1011C140.535 49.7811 140.191 49.3411 139.945 48.7811C139.698 48.2145 139.575 47.5678 139.575 46.8411C139.575 46.1145 139.698 45.4778 139.945 44.9311C140.191 44.3778 140.535 43.9478 140.975 43.6411C141.415 43.3278 141.925 43.1711 142.505 43.1711C143.085 43.1711 143.591 43.3278 144.025 43.6411C144.465 43.9478 144.808 44.3778 145.055 44.9311C145.301 45.4778 145.425 46.1145 145.425 46.8411C145.425 47.5745 145.301 48.2211 145.055 48.7811C144.808 49.3411 144.465 49.7811 144.025 50.1011C143.585 50.4145 143.078 50.5711 142.505 50.5711ZM142.505 49.6611C142.885 49.6611 143.208 49.5445 143.475 49.3111C143.741 49.0711 143.941 48.7411 144.075 48.3211C144.215 47.8945 144.285 47.3978 144.285 46.8311C144.285 46.2711 144.215 45.7845 144.075 45.3711C143.941 44.9578 143.741 44.6411 143.475 44.4211C143.215 44.1945 142.891 44.0811 142.505 44.0811C142.111 44.0811 141.781 44.1945 141.515 44.4211C141.255 44.6478 141.055 44.9678 140.915 45.3811C140.781 45.7878 140.715 46.2711 140.715 46.8311C140.715 47.3978 140.785 47.8945 140.925 48.3211C141.065 48.7478 141.265 49.0778 141.525 49.3111C141.791 49.5445 142.118 49.6611 142.505 49.6611Z" fill="#E53935"/>
<path d="M144.112 67.1419V66.2719C144.812 65.6986 145.395 65.1986 145.862 64.7719C146.335 64.3452 146.712 63.9652 146.992 63.6319C147.272 63.2986 147.472 62.9952 147.592 62.7219C147.712 62.4486 147.772 62.1752 147.772 61.9019C147.772 61.5286 147.662 61.2386 147.442 61.0319C147.228 60.8186 146.932 60.7119 146.552 60.7119C146.158 60.7119 145.838 60.8286 145.592 61.0619C145.345 61.2886 145.192 61.6119 145.132 62.0319H144.052C144.118 61.3719 144.375 60.8419 144.822 60.4419C145.275 60.0419 145.872 59.8419 146.612 59.8419C147.318 59.8419 147.875 60.0286 148.282 60.4019C148.695 60.7752 148.902 61.2886 148.902 61.9419C148.902 62.2752 148.838 62.6086 148.712 62.9419C148.592 63.2686 148.392 63.6119 148.112 63.9719C147.832 64.3252 147.455 64.7186 146.982 65.1519C146.515 65.5786 145.935 66.0652 145.242 66.6119L144.992 66.2719H149.032V67.1419H144.112ZM151.438 67.1419V60.9319L151.628 61.0119C151.542 61.1986 151.392 61.3819 151.178 61.5619C150.965 61.7419 150.718 61.8986 150.438 62.0319C150.158 62.1586 149.862 62.2486 149.548 62.3019V61.2819C149.842 61.2352 150.128 61.1486 150.408 61.0219C150.688 60.8886 150.938 60.7286 151.158 60.5419C151.378 60.3486 151.542 60.1486 151.648 59.9419H152.468V67.1419H151.438ZM156.565 67.2419C155.985 67.2419 155.475 67.0852 155.035 66.7719C154.595 66.4519 154.252 66.0119 154.005 65.4519C153.758 64.8852 153.635 64.2386 153.635 63.5119C153.635 62.7852 153.758 62.1486 154.005 61.6019C154.252 61.0486 154.595 60.6186 155.035 60.3119C155.475 59.9986 155.985 59.8419 156.565 59.8419C157.145 59.8419 157.652 59.9986 158.085 60.3119C158.525 60.6186 158.868 61.0486 159.115 61.6019C159.362 62.1486 159.485 62.7852 159.485 63.5119C159.485 64.2452 159.362 64.8919 159.115 65.4519C158.868 66.0119 158.525 66.4519 158.085 66.7719C157.645 67.0852 157.138 67.2419 156.565 67.2419ZM156.565 66.3319C156.945 66.3319 157.268 66.2152 157.535 65.9819C157.802 65.7419 158.002 65.4119 158.135 64.9919C158.275 64.5652 158.345 64.0686 158.345 63.5019C158.345 62.9419 158.275 62.4552 158.135 62.0419C158.002 61.6286 157.802 61.3119 157.535 61.0919C157.275 60.8652 156.952 60.7519 156.565 60.7519C156.172 60.7519 155.842 60.8652 155.575 61.0919C155.315 61.3186 155.115 61.6386 154.975 62.0519C154.842 62.4586 154.775 62.9419 154.775 63.5019C154.775 64.0686 154.845 64.5652 154.985 64.9919C155.125 65.4186 155.325 65.7486 155.585 65.9819C155.852 66.2152 156.178 66.3319 156.565 66.3319Z" fill="#E53935"/>
<path d="M149.646 88.9422V88.0722C150.346 87.4989 150.929 86.9989 151.396 86.5722C151.869 86.1455 152.246 85.7655 152.526 85.4322C152.806 85.0989 153.006 84.7955 153.126 84.5222C153.246 84.2489 153.306 83.9755 153.306 83.7022C153.306 83.3289 153.196 83.0389 152.976 82.8322C152.763 82.6189 152.466 82.5122 152.086 82.5122C151.693 82.5122 151.373 82.6289 151.126 82.8622C150.879 83.0889 150.726 83.4122 150.666 83.8322H149.586C149.653 83.1722 149.909 82.6422 150.356 82.2422C150.809 81.8422 151.406 81.6422 152.146 81.6422C152.853 81.6422 153.409 81.8289 153.816 82.2022C154.229 82.5755 154.436 83.0889 154.436 83.7422C154.436 84.0755 154.373 84.4089 154.246 84.7422C154.126 85.0689 153.926 85.4122 153.646 85.7722C153.366 86.1255 152.989 86.5189 152.516 86.9522C152.049 87.3789 151.469 87.8655 150.776 88.4122L150.526 88.0722H154.566V88.9422H149.646ZM158.429 88.9422V87.0422L158.469 86.8422V82.7322L158.849 82.8422L155.849 86.9022L155.439 86.5122H160.379V87.3822H154.879V86.5722L158.469 81.7422H159.519V88.9422H158.429ZM164.004 89.0422C163.424 89.0422 162.914 88.8855 162.474 88.5722C162.034 88.2522 161.69 87.8122 161.444 87.2522C161.197 86.6855 161.074 86.0389 161.074 85.3122C161.074 84.5855 161.197 83.9489 161.444 83.4022C161.69 82.8489 162.034 82.4189 162.474 82.1122C162.914 81.7989 163.424 81.6422 164.004 81.6422C164.584 81.6422 165.09 81.7989 165.524 82.1122C165.964 82.4189 166.307 82.8489 166.554 83.4022C166.8 83.9489 166.924 84.5855 166.924 85.3122C166.924 86.0455 166.8 86.6922 166.554 87.2522C166.307 87.8122 165.964 88.2522 165.524 88.5722C165.084 88.8855 164.577 89.0422 164.004 89.0422ZM164.004 88.1322C164.384 88.1322 164.707 88.0155 164.974 87.7822C165.24 87.5422 165.44 87.2122 165.574 86.7922C165.714 86.3655 165.784 85.8689 165.784 85.3022C165.784 84.7422 165.714 84.2555 165.574 83.8422C165.44 83.4289 165.24 83.1122 164.974 82.8922C164.714 82.6655 164.39 82.5522 164.004 82.5522C163.61 82.5522 163.28 82.6655 163.014 82.8922C162.754 83.1189 162.554 83.4389 162.414 83.8522C162.28 84.2589 162.214 84.7422 162.214 85.3022C162.214 85.8689 162.284 86.3655 162.424 86.7922C162.564 87.2189 162.764 87.5489 163.024 87.7822C163.29 88.0155 163.617 88.1322 164.004 88.1322Z" fill="#E53935"/>
<path d="M82.1919 57.108C81.1519 57.108 80.3199 56.86 79.6959 56.364C79.0719 55.868 78.7079 55.16 78.6039 54.24H79.8399C79.9119 54.84 80.1519 55.296 80.5599 55.608C80.9679 55.92 81.5199 56.076 82.2159 56.076C82.7999 56.076 83.2399 55.968 83.5359 55.752C83.8399 55.536 83.9919 55.228 83.9919 54.828C83.9919 54.468 83.8919 54.184 83.6919 53.976C83.4919 53.76 83.1759 53.584 82.7439 53.448L81.2439 52.968C80.4759 52.72 79.9119 52.408 79.5519 52.032C79.1919 51.656 79.0119 51.18 79.0119 50.604C79.0119 50.116 79.1319 49.696 79.3719 49.344C79.6199 48.992 79.9639 48.72 80.4039 48.528C80.8519 48.328 81.3719 48.228 81.9639 48.228C82.8759 48.228 83.6039 48.46 84.1479 48.924C84.6999 49.38 85.0159 50.016 85.0959 50.832H83.8599C83.7639 50.288 83.5559 49.892 83.2359 49.644C82.9159 49.388 82.4759 49.26 81.9159 49.26C81.3879 49.26 80.9759 49.364 80.6799 49.572C80.3839 49.78 80.2359 50.072 80.2359 50.448C80.2359 50.752 80.3319 51.008 80.5239 51.216C80.7239 51.416 81.0519 51.588 81.5079 51.732L83.0799 52.236C83.8079 52.468 84.3439 52.784 84.6879 53.184C85.0399 53.584 85.2159 54.088 85.2159 54.696C85.2159 55.464 84.9519 56.06 84.4239 56.484C83.8959 56.9 83.1519 57.108 82.1919 57.108ZM86.5364 57V48.36H90.1964C90.8204 48.36 91.3524 48.464 91.7924 48.672C92.2324 48.88 92.5684 49.176 92.8004 49.56C93.0404 49.944 93.1604 50.4 93.1604 50.928C93.1604 51.464 93.0404 51.928 92.8004 52.32C92.5684 52.704 92.2284 53.004 91.7804 53.22C91.3404 53.436 90.8124 53.544 90.1964 53.544H87.5084V52.488H90.1364C90.7044 52.488 91.1364 52.352 91.4324 52.08C91.7364 51.808 91.8884 51.428 91.8884 50.94C91.8884 50.444 91.7404 50.064 91.4444 49.8C91.1484 49.536 90.7124 49.404 90.1364 49.404H87.8084V57H86.5364ZM94.47 57V48.36H95.742V57H94.47ZM95.094 57V55.956H100.47V57H95.094ZM95.094 53.052V52.008H100.038V53.052H95.094ZM95.094 49.404V48.36H100.362V49.404H95.094ZM102.076 57V48.36H103.348V57H102.076ZM102.7 57V55.956H108.076V57H102.7ZM102.7 53.052V52.008H107.644V53.052H102.7ZM102.7 49.404V48.36H107.967V49.404H102.7ZM110.449 57V55.944H112.717C113.405 55.944 113.993 55.804 114.481 55.524C114.977 55.244 115.357 54.856 115.621 54.36C115.885 53.864 116.017 53.288 116.017 52.632C116.017 51.984 115.885 51.42 115.621 50.94C115.365 50.46 114.989 50.088 114.493 49.824C114.005 49.552 113.413 49.416 112.717 49.416H110.461V48.36H112.717C113.645 48.36 114.453 48.536 115.141 48.888C115.829 49.24 116.361 49.74 116.737 50.388C117.121 51.028 117.313 51.784 117.313 52.656C117.313 53.528 117.121 54.292 116.737 54.948C116.353 55.596 115.817 56.1 115.129 56.46C114.449 56.82 113.649 57 112.729 57H110.449ZM109.681 57V48.36H110.953V57H109.681Z" fill="#FEFEFE"/>
<path d="M83.1983 80V71.204H84.4463V80H83.1983ZM87.1703 80L84.1583 76.82L87.0743 73.88H88.6463L85.3343 77.096L85.3943 76.532L88.7663 80H87.1703ZM89.749 80V73.88H90.937V75.32H90.997V80H89.749ZM93.877 80V76.004C93.877 75.588 93.781 75.284 93.589 75.092C93.397 74.9 93.121 74.804 92.761 74.804C92.425 74.804 92.121 74.884 91.849 75.044C91.585 75.196 91.377 75.412 91.225 75.692C91.073 75.964 90.997 76.288 90.997 76.664L90.841 75.236C91.041 74.78 91.341 74.42 91.741 74.156C92.149 73.892 92.605 73.76 93.109 73.76C93.717 73.76 94.201 73.936 94.561 74.288C94.929 74.64 95.113 75.104 95.113 75.68V80H93.877ZM98.005 80V76.004C98.005 75.588 97.905 75.284 97.705 75.092C97.513 74.9 97.237 74.804 96.877 74.804C96.549 74.804 96.249 74.884 95.977 75.044C95.713 75.196 95.501 75.412 95.341 75.692C95.189 75.964 95.113 76.288 95.113 76.664L94.861 75.236C95.069 74.78 95.381 74.42 95.797 74.156C96.221 73.892 96.693 73.76 97.213 73.76C97.829 73.76 98.321 73.94 98.689 74.3C99.057 74.652 99.241 75.124 99.241 75.716V80H98.005ZM104.181 80.108C103.605 80.108 103.125 79.972 102.741 79.7C102.365 79.42 102.117 79.032 101.997 78.536L102.165 78.512V82.46H100.917V73.88H102.105V75.284L101.985 75.248C102.113 74.784 102.385 74.42 102.801 74.156C103.217 73.892 103.705 73.76 104.265 73.76C104.817 73.76 105.293 73.892 105.693 74.156C106.101 74.42 106.413 74.788 106.629 75.26C106.853 75.732 106.965 76.284 106.965 76.916C106.965 77.556 106.849 78.116 106.617 78.596C106.385 79.076 106.061 79.448 105.645 79.712C105.229 79.976 104.741 80.108 104.181 80.108ZM103.917 79.076C104.461 79.076 104.893 78.884 105.213 78.5C105.533 78.116 105.693 77.588 105.693 76.916C105.693 76.252 105.533 75.736 105.213 75.368C104.893 74.992 104.457 74.804 103.905 74.804C103.361 74.804 102.925 74.996 102.597 75.38C102.277 75.756 102.117 76.28 102.117 76.952C102.117 77.608 102.277 78.128 102.597 78.512C102.925 78.888 103.365 79.076 103.917 79.076ZM108.276 80V71.36H109.524V80H108.276ZM112.62 80V76.064C112.62 75.64 112.512 75.324 112.296 75.116C112.088 74.908 111.776 74.804 111.36 74.804C111 74.804 110.68 74.884 110.4 75.044C110.128 75.204 109.912 75.424 109.752 75.704C109.6 75.984 109.524 76.316 109.524 76.7L109.368 75.236C109.568 74.78 109.876 74.42 110.292 74.156C110.708 73.892 111.192 73.76 111.744 73.76C112.4 73.76 112.916 73.944 113.292 74.312C113.668 74.68 113.856 75.168 113.856 75.776V80H112.62Z" fill="#28A745"/>
</svg>
