<svg width="41" height="40" viewBox="0 0 41 40" fill="none" xmlns="http://www.w3.org/2000/svg">
<rect x="1.1371" y="2.1371" width="37.7258" height="35.7258" fill="#000F26" stroke="#D6D6D6" stroke-width="2.27419"/>
<path d="M38.8629 19.9999C38.8629 22.2203 37.1029 24.5132 33.619 26.3185C30.1921 28.0943 25.3788 29.2264 20 29.2264C14.6212 29.2264 9.80793 28.0943 6.38102 26.3185C2.89713 24.5132 1.1371 22.2203 1.1371 19.9999C1.1371 17.7795 2.89713 15.4866 6.38102 13.6813C9.80793 11.9055 14.6212 10.7734 20 10.7734C25.3788 10.7734 30.1921 11.9055 33.619 13.6813C37.1029 15.4866 38.8629 17.7795 38.8629 19.9999Z" fill="#000F26" stroke="#D6D6D6" stroke-width="2.27419"/>
<line x1="0.516195" y1="1.4559" x2="39.5162" y2="38.4559" stroke="#D6D6D6" stroke-width="1.5"/>
<line x1="39.0352" y1="1.54087" x2="0.519582" y2="38.5409" stroke="#D6D6D6" stroke-width="1.5"/>
</svg>
