<svg width="38" height="38" viewBox="0 0 38 38" fill="none" xmlns="http://www.w3.org/2000/svg">
<path d="M19.0003 22.5833C19.4203 22.5833 19.823 22.4165 20.1199 22.1196C20.4168 21.8226 20.5837 21.4199 20.5837 21V5.16665C20.5837 4.74672 20.4168 4.34399 20.1199 4.04706C19.823 3.75013 19.4203 3.58331 19.0003 3.58331C18.5804 3.58331 18.1777 3.75013 17.8807 4.04706C17.5838 4.34399 17.417 4.74672 17.417 5.16665V21C17.417 21.4199 17.5838 21.8226 17.8807 22.1196C18.1777 22.4165 18.5804 22.5833 19.0003 22.5833Z" fill="#D6D6D6"/>
<path d="M26.2678 4.92417C25.8941 4.73101 25.4589 4.69422 25.0581 4.8219C24.6572 4.94958 24.3235 5.23127 24.1303 5.60501C23.9372 5.97874 23.9004 6.4139 24.0281 6.81476C24.1557 7.21562 24.4374 7.54934 24.8112 7.74251C27.3341 9.04507 29.3463 11.1575 30.5247 13.7408C31.703 16.3241 31.9793 19.2284 31.3091 21.9876C30.6389 24.7467 29.061 27.2006 26.8289 28.9555C24.5967 30.7103 21.8397 31.6643 19.0003 31.6643C16.161 31.6643 13.4039 30.7103 11.1718 28.9555C8.93964 27.2006 7.36182 24.7467 6.6916 21.9876C6.02139 19.2284 6.29763 16.3241 7.47601 13.7408C8.65438 11.1575 10.6665 9.04507 13.1895 7.74251C13.3746 7.64686 13.539 7.5157 13.6733 7.35652C13.8077 7.19734 13.9094 7.01325 13.9726 6.81476C14.0358 6.61628 14.0593 6.40728 14.0418 6.19971C14.0242 5.99214 13.966 5.79006 13.8703 5.60501C13.7747 5.41995 13.6435 5.25555 13.4844 5.12118C13.3252 4.98682 13.1411 4.88512 12.9426 4.8219C12.7441 4.75868 12.5351 4.73517 12.3275 4.75272C12.12 4.77027 11.9179 4.82853 11.7328 4.92417C8.57993 6.55308 6.06567 9.19399 4.59354 12.4231C3.12141 15.6522 2.77678 19.2822 3.61495 22.7306C4.45312 26.1791 6.42549 29.2459 9.21553 31.4391C12.0056 33.6322 15.4515 34.8244 19.0003 34.8244C22.5492 34.8244 25.9951 33.6322 28.7852 31.4391C31.5752 29.2459 33.5476 26.1791 34.3857 22.7306C35.2239 19.2822 34.8793 15.6522 33.4071 12.4231C31.935 9.19399 29.4207 6.55308 26.2678 4.92417Z" fill="#D6D6D6"/>
</svg>
