<svg width="11" height="39" viewBox="0 0 11 39" fill="none" xmlns="http://www.w3.org/2000/svg">
<path d="M1.22217 9.45603V10.456H3.22217V9.45603H1.22217ZM1.22217 0.640869L1.22217 9.45603H3.22217L3.22217 0.640869L1.22217 0.640869Z" fill="#1E1E1E"/>
<path d="M1.22217 37.6409V38.6409H3.22217L3.22217 37.6409H1.22217ZM1.22217 28.2606L1.22217 37.6409H3.22217L3.22217 28.2606H1.22217Z" fill="#1E1E1E"/>
<path d="M2.68286 23.5757L2.14574 24.4192L3.83275 25.4935L4.36987 24.65L2.68286 23.5757ZM8.68286 14.1532L2.68286 23.5757L4.36987 24.65L10.3699 15.2274L8.68286 14.1532Z" fill="#1E1E1E"/>
<path d="M3.97217 12.1056C3.97217 13.1286 3.17902 13.9401 2.22217 13.9401C1.26532 13.9401 0.472168 13.1286 0.472168 12.1056C0.472168 11.0826 1.26532 10.2711 2.22217 10.2711C3.17902 10.2711 3.97217 11.0826 3.97217 12.1056Z" stroke="#1E1E1E" stroke-width="0.5"/>
<path d="M3.97217 26.6972C3.97217 27.7202 3.17902 28.5317 2.22217 28.5317C1.26532 28.5317 0.472168 27.7202 0.472168 26.6972C0.472168 25.6742 1.26532 24.8627 2.22217 24.8627C3.17902 24.8627 3.97217 25.6742 3.97217 26.6972Z" stroke="#1E1E1E" stroke-width="0.5"/>
</svg>
