<svg width="4" height="38" viewBox="0 0 4 38" fill="none" xmlns="http://www.w3.org/2000/svg">
<path d="M1.00004 8.81516V9.81516H3.00004V8.81516H1.00004ZM1.00004 0L1.00004 8.81516H3.00004L3.00004 0L1.00004 0Z" fill="#1E1E1E"/>
<path d="M1.00004 37V38H3.00004L3.00004 37H1.00004ZM1.00004 27.6197L1.00004 37H3.00004L3.00004 27.6197H1.00004Z" fill="#1E1E1E"/>
<path d="M1.00004 23.4507V24.4507H3.00004V23.4507H1.00004ZM1.00004 13.0282L1.00004 23.4507H3.00004L3.00004 13.0282H1.00004Z" fill="#1E1E1E"/>
<path d="M3.75 11.4648C3.75 12.4878 2.95685 13.2993 2 13.2993C1.04315 13.2993 0.25 12.4878 0.25 11.4648C0.25 10.4418 1.04315 9.63031 2 9.63031C2.95685 9.63031 3.75 10.4418 3.75 11.4648Z" stroke="#1E1E1E" stroke-width="0.5"/>
<path d="M3.75 26.0563C3.75 27.0793 2.95685 27.8908 2 27.8908C1.04315 27.8908 0.25 27.0793 0.25 26.0563C0.25 25.0333 1.04315 24.2218 2 24.2218C2.95685 24.2218 3.75 25.0333 3.75 26.0563Z" stroke="#1E1E1E" stroke-width="0.5"/>
</svg>
