<svg width="45" height="45" viewBox="0 0 45 45" fill="none" xmlns="http://www.w3.org/2000/svg">
<rect x="0.5" y="0.5" width="44" height="44" fill="#1E1E1E" stroke="#FEFEFE"/>
<path d="M23.9512 11.7661C18.3901 10.9491 13.7213 13.7371 11.338 19.2983C9.6261 23.2927 9.48336 26.6792 11.338 30.5965C13.8279 35.8557 18.2178 37.501 23.9512 36.8733C29.6845 36.2456 35.3895 30.4816 33.6977 24.3197C32.3926 19.5664 27.9645 17.4152 23.9512 17.4152C19.9378 17.4152 15.7424 19.9599 15.9246 24.3197C16.1006 28.5326 19.487 31.105 23.9512 30.5965C26.9232 29.6688 28.7929 26.7314 27.3911 24.3197C26.0689 22.0449 22.4068 22.0449 21.0845 24.3197" stroke="#E53935" stroke-width="2"/>
<path d="M24.3682 9.59599L27.9148 12.2588L24.0352 14.29L24.3682 9.59599Z" fill="#E53935" stroke="#E53935"/>
</svg>
