<svg width="45" height="46" viewBox="0 0 45 46" fill="none" xmlns="http://www.w3.org/2000/svg">
<rect x="0.5" y="0.687134" width="44" height="44" fill="#1E1E1E" stroke="#FEFEFE"/>
<path d="M23.9512 11.9532C18.3901 11.1362 13.7213 13.9243 11.338 19.4854C9.6261 23.4798 9.48336 26.8663 11.338 30.7836C13.8279 36.0429 18.2178 37.6881 23.9512 37.0605C29.6845 36.4328 35.3895 30.6687 33.6977 24.5068C32.3926 19.7535 27.9645 17.6023 23.9512 17.6023C19.9378 17.6023 15.7424 20.1471 15.9246 24.5068C16.1006 28.7197 19.487 31.2921 23.9512 30.7836C26.9232 29.8559 28.7929 26.9185 27.3911 24.5068C26.0689 22.232 22.4068 22.232 21.0845 24.5068" stroke="#D6D6D6" stroke-width="2"/>
<path d="M24.3681 9.78312L27.9147 12.4459L24.035 14.4771L24.3681 9.78312Z" fill="#D6D6D6" stroke="#D6D6D6"/>
</svg>
