<svg width="66" height="66" viewBox="0 0 66 66" fill="none" xmlns="http://www.w3.org/2000/svg">
<g filter="url(#filter0_i_906_2474)">
<rect x="1" y="1" width="64" height="64" rx="3.05672" fill="url(#paint0_linear_906_2474)"/>
</g>
<rect x="1.47761" y="1.47761" width="63.0448" height="63.0448" rx="2.57911" stroke="url(#paint1_linear_906_2474)" stroke-width="0.955226"/>
<g filter="url(#filter1_f_906_2474)">
<rect x="1.19105" y="1.19105" width="63.6179" height="63.6179" rx="2.86568" stroke="#3B3C42" stroke-width="0.38209"/>
</g>
<rect x="3.67469" y="3.67469" width="58.6507" height="58.6507" rx="2.86568" fill="url(#paint2_linear_906_2474)" stroke="url(#paint3_linear_906_2474)" stroke-width="0.38209"/>
<g filter="url(#filter2_f_906_2474)">
<rect x="3.57917" y="3.57917" width="58.8418" height="58.8418" rx="2.9612" stroke="black" stroke-width="0.191045"/>
</g>
<rect x="5.58509" y="5.58509" width="54.8298" height="54.8298" rx="2.86568" fill="url(#paint4_linear_906_2474)" stroke="url(#paint5_linear_906_2474)" stroke-width="0.38209"/>
<rect x="9.21484" y="9.21484" width="47.5702" height="47.5702" rx="3.05672" fill="url(#paint6_radial_906_2474)"/>
<path d="M33.4051 43.6879C31.6771 43.6879 30.1315 43.2367 28.7683 42.3343C27.4243 41.4127 26.3683 40.1455 25.6003 38.5327C24.8323 36.9007 24.4483 35.0383 24.4483 32.9455C24.4483 30.8527 24.8323 29.0191 25.6003 27.4447C26.3683 25.8511 27.4243 24.6127 28.7683 23.7295C30.1315 22.8271 31.6771 22.3759 33.4051 22.3759C35.1523 22.3759 36.6979 22.8271 38.0419 23.7295C39.3859 24.6127 40.4419 25.8511 41.2099 27.4447C41.9779 29.0191 42.3619 30.8527 42.3619 32.9455C42.3619 35.0575 41.9779 36.9199 41.2099 38.5327C40.4419 40.1455 39.3763 41.4127 38.0131 42.3343C36.6691 43.2367 35.1331 43.6879 33.4051 43.6879ZM33.4051 40.0015C34.3843 40.0015 35.1907 39.6751 35.8243 39.0223C36.4579 38.3695 36.9283 37.5055 37.2355 36.4303C37.5427 35.3551 37.6963 34.1839 37.6963 32.9167C37.6963 31.6495 37.5427 30.4975 37.2355 29.4607C36.9283 28.4239 36.4579 27.5983 35.8243 26.9839C35.1907 26.3695 34.3843 26.0623 33.4051 26.0623C32.4259 26.0623 31.6195 26.3791 30.9859 27.0127C30.3523 27.6271 29.8819 28.4527 29.5747 29.4895C29.2675 30.5263 29.1139 31.6687 29.1139 32.9167C29.1139 34.2031 29.2675 35.3839 29.5747 36.4591C29.8819 37.5343 30.3523 38.3983 30.9859 39.0511C31.6387 39.6847 32.4451 40.0015 33.4051 40.0015Z" fill="#1E1E1E"/>
<g filter="url(#filter3_f_906_2474)">
<rect x="9.57968" y="9.57968" width="46.8405" height="46.8405" rx="2.69188" stroke="#2D2D2D" stroke-width="0.729675"/>
</g>
<defs>
<filter id="filter0_i_906_2474" x="1" y="1" width="64.7642" height="65.1463" filterUnits="userSpaceOnUse" color-interpolation-filters="sRGB">
<feFlood flood-opacity="0" result="BackgroundImageFix"/>
<feBlend mode="normal" in="SourceGraphic" in2="BackgroundImageFix" result="shape"/>
<feColorMatrix in="SourceAlpha" type="matrix" values="0 0 0 0 0 0 0 0 0 0 0 0 0 0 0 0 0 0 127 0" result="hardAlpha"/>
<feOffset dx="0.764181" dy="2.67463"/>
<feGaussianBlur stdDeviation="0.573135"/>
<feComposite in2="hardAlpha" operator="arithmetic" k2="-1" k3="1"/>
<feColorMatrix type="matrix" values="0 0 0 0 0 0 0 0 0 0 0 0 0 0 0 0 0 0 0.6 0"/>
<feBlend mode="normal" in2="shape" result="effect1_innerShadow_906_2474"/>
</filter>
<filter id="filter1_f_906_2474" x="0.61791" y="0.61791" width="64.7642" height="64.7642" filterUnits="userSpaceOnUse" color-interpolation-filters="sRGB">
<feFlood flood-opacity="0" result="BackgroundImageFix"/>
<feBlend mode="normal" in="SourceGraphic" in2="BackgroundImageFix" result="shape"/>
<feGaussianBlur stdDeviation="0.191045" result="effect1_foregroundBlur_906_2474"/>
</filter>
<filter id="filter2_f_906_2474" x="3.10155" y="3.10155" width="59.7969" height="59.7969" filterUnits="userSpaceOnUse" color-interpolation-filters="sRGB">
<feFlood flood-opacity="0" result="BackgroundImageFix"/>
<feBlend mode="normal" in="SourceGraphic" in2="BackgroundImageFix" result="shape"/>
<feGaussianBlur stdDeviation="0.191045" result="effect1_foregroundBlur_906_2474"/>
</filter>
<filter id="filter3_f_906_2474" x="8.48517" y="8.48517" width="49.0294" height="49.0294" filterUnits="userSpaceOnUse" color-interpolation-filters="sRGB">
<feFlood flood-opacity="0" result="BackgroundImageFix"/>
<feBlend mode="normal" in="SourceGraphic" in2="BackgroundImageFix" result="shape"/>
<feGaussianBlur stdDeviation="0.364837" result="effect1_foregroundBlur_906_2474"/>
</filter>
<linearGradient id="paint0_linear_906_2474" x1="29.3411" y1="-11.5944" x2="30.4044" y2="46.6246" gradientUnits="userSpaceOnUse">
<stop stop-color="#202325"/>
<stop offset="0.458333" stop-color="#202425"/>
<stop offset="1" stop-color="#0E1011"/>
</linearGradient>
<linearGradient id="paint1_linear_906_2474" x1="28.7015" y1="-4.44478" x2="53.9194" y2="63.3761" gradientUnits="userSpaceOnUse">
<stop stop-color="#FEFEFE"/>
<stop offset="0.994792" stop-color="#292C2F"/>
</linearGradient>
<linearGradient id="paint2_linear_906_2474" x1="30.421" y1="3.48364" x2="34.8091" y2="62.4387" gradientUnits="userSpaceOnUse">
<stop stop-color="#969EA1"/>
<stop offset="0.22" stop-color="#1E1820"/>
<stop offset="0.458333" stop-color="#1B161D"/>
<stop offset="0.765" stop-color="#A0A39F"/>
<stop offset="1" stop-color="#FFFFFB"/>
</linearGradient>
<linearGradient id="paint3_linear_906_2474" x1="33.0001" y1="3.48364" x2="33.6687" y2="62.5165" gradientUnits="userSpaceOnUse">
<stop stop-color="#E6EBF1"/>
<stop offset="0.994792" stop-color="#868990"/>
</linearGradient>
<linearGradient id="paint4_linear_906_2474" x1="29.8435" y1="-5.47095" x2="48.4532" y2="68.7777" gradientUnits="userSpaceOnUse">
<stop stop-color="#585659"/>
<stop offset="0.458333" stop-color="#262526"/>
<stop offset="0.774091" stop-color="#161616"/>
<stop offset="1" stop-color="#585659"/>
</linearGradient>
<linearGradient id="paint5_linear_906_2474" x1="33" y1="5.39404" x2="33" y2="27.8883" gradientUnits="userSpaceOnUse">
<stop/>
<stop offset="0.994792"/>
</linearGradient>
<radialGradient id="paint6_radial_906_2474" cx="0" cy="0" r="1" gradientUnits="userSpaceOnUse" gradientTransform="translate(32.9999 33.5863) rotate(69.1066) scale(22.3598 22.36)">
<stop stop-color="#D6D6D6"/>
<stop offset="1" stop-color="#FEFEFE"/>
</radialGradient>
</defs>
</svg>
